<?xml version="1.0" encoding="utf-8"?>
<!-- Generator: Adobe Illustrator 27.8.1, SVG Export Plug-In . SVG Version: 6.00 Build 0)  -->
<svg version="1.1" id="Layer_1" xmlns="http://www.w3.org/2000/svg" xmlns:xlink="http://www.w3.org/1999/xlink" x="0px" y="0px"
	 viewBox="0 0 1920 1080" style="enable-background:new 0 0 1920 1080;" xml:space="preserve">
<style type="text/css">
	.st0{opacity:0.6;fill:#D2E4FF;}
	.st1{fill:#2E3552;}
</style>
<g>
	<path class="st0" d="M94.64,1061.68c-38.12-91.51-67.5-198.04-64.65-300.44c3.39-121.59,53.84-230.57,125.94-315.68
		c65.28-77.06,146.14-135.8,238.94-146.69c48.39-5.68,96.64,1.74,144.06,13.22c40.09,9.71,91.17,32.68,130.48,9.79
		c40.02-23.31,68.24-75.04,97.88-112.95c29.5-37.76,61.72-72.38,97.95-100.7c79.91-62.47,173.6-90.7,267.65-102.33
		c155.12-19.17,316.53,4.59,439.93,126.18c60.9,60.01,108.92,144.49,100.73,242.86c-4.27,51.29-22.18,98.76-20.94,151.16
		c0.77,32.4,8.88,62.99,25.38,88.85c16.56,25.95,38.6,46.22,59.68,66.6c30.41,29.42,59.87,59.84,84.38,96.53
		c42.73,63.97,81.03,157.58,50.63,238.43c-10.97,29.17-26.61,47.46-26.61,47.46L94.64,1061.68z"/>
	<path class="st1" d="M1927.1,1065.25H14.73c-1.59,0-2.9-1.3-2.9-2.9v-0.18c0-1.59,1.3-2.9,2.9-2.9H1927.1c1.59,0,2.9,1.3,2.9,2.9
		v0.18C1930,1063.94,1928.7,1065.25,1927.1,1065.25z"/>
</g>
<g>
	<g>
		<path d="M578.77,484.04V481l5.57-2.18c0.36-0.15,0.65-0.33,0.86-0.54c0.21-0.21,0.32-0.55,0.32-1.02V442.5h-9.57
			c-0.38,0-0.69,0.1-0.91,0.3c-0.22,0.2-0.39,0.52-0.5,0.94l-1.63,7.07h-4.96v-14.27h46.43v14.27h-4.99l-1.63-7.07
			c-0.09-0.4-0.26-0.71-0.53-0.93c-0.27-0.21-0.55-0.32-0.85-0.32h-9.57v34.75c0,0.47,0.12,0.82,0.37,1.06
			c0.25,0.23,0.52,0.41,0.82,0.51l5.57,2.18v3.04H578.77z"/>
		<path d="M618.45,481.03l4.1-1.76c0.45-0.19,0.77-0.38,0.96-0.58c0.19-0.19,0.29-0.5,0.29-0.93v-37.7c0-0.43-0.12-0.74-0.37-0.94
			c-0.25-0.2-0.54-0.39-0.88-0.56l-4.51-2.4v-3.1h16.54v17.22l-0.35,3.07c1.26-1.9,2.58-3.31,3.97-4.24
			c1.39-0.93,2.78-1.54,4.19-1.84c1.41-0.3,2.75-0.45,4.03-0.45c2.18,0,4.18,0.4,6.02,1.18c1.83,0.79,3.31,2.07,4.43,3.84
			c1.12,1.77,1.68,4.13,1.68,7.07v18.69c0,0.51,0.11,0.87,0.34,1.07c0.22,0.2,0.52,0.4,0.88,0.59l3.78,1.76v3.01h-20.35v-3.01
			l3.26-1.76c0.34-0.19,0.64-0.39,0.9-0.59s0.38-0.56,0.38-1.07v-14.4c0-2.13-0.17-3.89-0.51-5.26c-0.34-1.38-0.98-2.4-1.9-3.07
			c-0.93-0.67-2.27-1.01-4.02-1.01c-1,0-2.18,0.16-3.52,0.48c-1.34,0.32-2.41,1.12-3.2,2.4v21.02c0,0.43,0.11,0.73,0.34,0.9
			c0.22,0.17,0.53,0.37,0.91,0.61l3.04,1.76v3.01h-20.42V481.03z"/>
		<path d="M687.6,484.87c-3.63,0-6.88-0.72-9.76-2.16c-2.88-1.44-5.16-3.56-6.83-6.35c-1.67-2.79-2.51-6.2-2.51-10.21
			c0-3.69,0.8-7,2.4-9.92c1.6-2.92,3.83-5.23,6.7-6.93c2.87-1.7,6.2-2.54,10-2.54c3.6,0,6.68,0.66,9.23,1.97
			c2.55,1.31,4.5,3.06,5.86,5.23c1.35,2.18,2.03,4.58,2.03,7.2c0,0.3-0.02,0.82-0.06,1.57c-0.04,0.75-0.09,1.48-0.13,2.21
			c-0.04,0.73-0.09,1.23-0.13,1.5h-25.41v-5.31h14.72c0-1.98-0.22-3.67-0.67-5.06c-0.45-1.39-1.16-2.45-2.14-3.18
			c-0.98-0.74-2.29-1.1-3.94-1.1c-1.13,0-2.16,0.23-3.09,0.69c-0.93,0.46-1.73,1.18-2.42,2.18c-0.68,0.99-1.21,2.26-1.58,3.81
			c-0.37,1.55-0.56,3.41-0.56,5.58c0,2.77,0.36,5.17,1.07,7.2s1.97,3.59,3.78,4.7c1.8,1.11,4.35,1.66,7.63,1.66
			c1.66,0,3.18-0.14,4.54-0.43c1.37-0.29,2.59-0.65,3.68-1.07c1.09-0.43,2.03-0.83,2.82-1.22h1.79v4.35
			c-1.94,1.34-4.41,2.62-7.41,3.82S691.01,484.87,687.6,484.87z"/>
		<path d="M710.41,484.04v-3.01l4.13-1.76c0.36-0.17,0.66-0.36,0.9-0.56c0.23-0.2,0.35-0.52,0.35-0.94v-21.02c0-1-0.06-1.67-0.18-2
			c-0.12-0.33-0.42-0.6-0.91-0.82l-4.61-2.05v-3.1l15.94-1.66v7.46h0.42c1.41-2.24,2.76-3.91,4.06-5.02
			c1.3-1.11,2.56-1.84,3.78-2.19c1.22-0.35,2.38-0.53,3.49-0.53c1.04,0,2.1,0.13,3.17,0.38c1.07,0.26,2.08,0.74,3.04,1.44v11.23
			h-7.94l-0.96-2.4c-0.15-0.36-0.49-0.78-1.01-1.26c-0.52-0.48-1.15-0.72-1.87-0.72c-0.68,0-1.33,0.09-1.94,0.27
			c-0.61,0.18-1.21,0.5-1.81,0.94c-0.6,0.45-1.24,1.06-1.92,1.82v19.23c0,0.73,0.42,1.23,1.25,1.5l5.6,1.76v3.01H710.41z"/>
		<path d="M767.6,484.87c-3.63,0-6.88-0.72-9.76-2.16c-2.88-1.44-5.16-3.56-6.83-6.35c-1.67-2.79-2.51-6.2-2.51-10.21
			c0-3.69,0.8-7,2.4-9.92c1.6-2.92,3.83-5.23,6.7-6.93c2.87-1.7,6.2-2.54,10-2.54c3.6,0,6.68,0.66,9.23,1.97
			c2.55,1.31,4.5,3.06,5.86,5.23c1.35,2.18,2.03,4.58,2.03,7.2c0,0.3-0.02,0.82-0.06,1.57c-0.04,0.75-0.09,1.48-0.13,2.21
			c-0.04,0.73-0.09,1.23-0.13,1.5h-25.41v-5.31h14.72c0-1.98-0.22-3.67-0.67-5.06c-0.45-1.39-1.16-2.45-2.14-3.18
			c-0.98-0.74-2.29-1.1-3.94-1.1c-1.13,0-2.16,0.23-3.09,0.69c-0.93,0.46-1.73,1.18-2.42,2.18c-0.68,0.99-1.21,2.26-1.58,3.81
			c-0.37,1.55-0.56,3.41-0.56,5.58c0,2.77,0.36,5.17,1.07,7.2s1.97,3.59,3.78,4.7c1.8,1.11,4.35,1.66,7.63,1.66
			c1.66,0,3.18-0.14,4.54-0.43c1.37-0.29,2.59-0.65,3.68-1.07c1.09-0.43,2.03-0.83,2.82-1.22h1.79v4.35
			c-1.94,1.34-4.41,2.62-7.41,3.82S771.01,484.87,767.6,484.87z"/>
		<path d="M793.96,456.71l-2.37-3.55c2.09-1.39,3.58-2.79,4.48-4.21c0.9-1.42,1.58-2.69,2.05-3.82c-1.17-0.79-2.16-1.48-2.96-2.08
			c-0.8-0.6-1.4-1.24-1.81-1.92c-0.41-0.68-0.61-1.52-0.61-2.53c0-0.79,0.23-1.61,0.69-2.46c0.46-0.85,1.13-1.58,2.02-2.18
			c0.88-0.6,1.96-0.9,3.22-0.9c2.56,0,4.44,0.78,5.63,2.34c1.19,1.56,1.79,3.68,1.79,6.37c0,1.75-0.36,3.37-1.09,4.86
			c-0.73,1.49-1.69,2.86-2.88,4.1c-1.19,1.24-2.5,2.35-3.92,3.34C796.79,455.06,795.37,455.94,793.96,456.71z"/>
		<path d="M814.83,482.47v-9.89h5.54l0.96,2.94c0.11,0.34,0.28,0.67,0.53,0.98c0.25,0.31,0.48,0.55,0.72,0.72
			c0.9,0.66,2.05,1.27,3.46,1.84c1.41,0.57,3.04,0.85,4.9,0.85c1.11,0,2.11-0.19,3.01-0.58c0.9-0.38,1.62-0.92,2.16-1.6
			c0.54-0.68,0.82-1.48,0.82-2.4c0-1.3-0.44-2.28-1.33-2.94c-0.89-0.66-2.25-1.25-4.08-1.76c-1.05-0.3-2.2-0.6-3.47-0.91
			c-1.27-0.31-2.41-0.6-3.41-0.88c-3.16-0.87-5.49-2.2-7.01-3.97c-1.52-1.77-2.27-3.77-2.27-5.98c0-2.5,0.8-4.65,2.42-6.46
			c1.61-1.81,3.73-3.21,6.37-4.19c2.63-0.98,5.49-1.47,8.56-1.47c2.75,0,5.17,0.16,7.25,0.48c2.08,0.32,3.96,0.71,5.65,1.18v10.02
			h-5.5l-0.96-3.2c-0.13-0.3-0.32-0.58-0.58-0.83c-0.26-0.26-0.5-0.46-0.74-0.61c-0.73-0.49-1.72-0.95-2.98-1.38
			c-1.26-0.43-2.58-0.64-3.97-0.64c-1.62,0-2.87,0.37-3.74,1.1c-0.88,0.74-1.31,1.64-1.31,2.7c0,1.24,0.52,2.27,1.55,3.1
			c1.03,0.83,2.52,1.52,4.46,2.05c1.11,0.3,2.26,0.6,3.46,0.91c1.19,0.31,2.28,0.61,3.26,0.91c2.99,0.9,5.22,2.17,6.7,3.82
			c1.48,1.65,2.22,3.7,2.22,6.13c0,2.88-0.84,5.24-2.53,7.07c-1.69,1.84-3.87,3.18-6.56,4.05c-2.69,0.86-5.55,1.3-8.58,1.3
			c-2.9,0-5.69-0.27-8.37-0.82S816.56,483.03,814.83,482.47z"/>
		<path d="M886.99,484.71c-2.26,0-4.2-0.51-5.81-1.52c-1.61-1.01-2.84-2.32-3.7-3.92c-0.85-1.6-1.28-3.29-1.28-5.06
			c0-2.3,0.55-4.28,1.66-5.94c1.11-1.65,2.54-3,4.29-4.03c1.75-1.03,3.62-1.8,5.6-2.29c1.98-0.49,3.84-0.74,5.57-0.74
			c0.34,0,0.93,0.04,1.78,0.11c0.84,0.08,1.69,0.16,2.54,0.26c0.85,0.1,1.43,0.17,1.73,0.21v-2.72c0-2.35-0.4-4.14-1.2-5.38
			c-0.8-1.24-2.22-1.86-4.27-1.86c-0.92,0-1.96,0.26-3.12,0.78c-1.16,0.52-2.34,1.16-3.52,1.9c-1.18,0.75-2.28,1.48-3.3,2.21
			c-1.01,0.73-1.84,1.28-2.48,1.66h-2.5v-8.74c1.62-0.47,3.22-0.93,4.78-1.38c1.57-0.45,3.27-0.82,5.12-1.1
			c1.84-0.29,3.98-0.43,6.42-0.43c2.54,0,4.94,0.31,7.2,0.93c2.26,0.62,4.11,1.77,5.54,3.44c1.43,1.68,2.14,4.1,2.14,7.28v17.5
			c0,0.88,0.27,1.58,0.82,2.13s1.14,0.82,1.78,0.82c0.49,0,1.02-0.05,1.6-0.14c0.58-0.1,1.12-0.21,1.63-0.34h1.25v3.42
			c-0.6,0.38-1.42,0.81-2.46,1.26c-1.05,0.46-2.13,0.85-3.26,1.17c-1.13,0.32-2.16,0.48-3.07,0.48c-2.84,0-4.94-0.5-6.3-1.5
			c-1.37-1-2.05-2.55-2.05-4.64h-0.51c-1.17,1.77-2.5,3.1-3.97,3.98c-1.47,0.89-2.96,1.47-4.46,1.74
			C889.66,484.57,888.27,484.71,886.99,484.71z M892.68,478.34c1.09,0,2.28-0.26,3.57-0.77c1.29-0.51,2.33-1.38,3.12-2.59v-8.8
			c-2.37,0-4.45,0.19-6.26,0.58c-1.8,0.38-3.21,1.06-4.21,2.03c-1,0.97-1.5,2.34-1.5,4.11c0,1.43,0.28,2.54,0.85,3.33
			c0.56,0.79,1.26,1.34,2.08,1.65C891.15,478.19,891.94,478.34,892.68,478.34z"/>
		<path d="M943.56,482.18v-14.11h4.99l1.6,6.05c0.11,0.41,0.34,0.77,0.69,1.09c0.35,0.32,0.75,0.62,1.2,0.9
			c0.55,0.32,1.37,0.73,2.43,1.22c1.07,0.49,2.22,0.93,3.47,1.33c1.25,0.4,2.39,0.59,3.44,0.59c2.88,0,5.25-0.58,7.12-1.74
			c1.87-1.16,2.8-2.76,2.8-4.78c0-1.9-0.58-3.24-1.74-4.03c-1.16-0.79-2.72-1.58-4.69-2.37c-1.92-0.75-3.81-1.38-5.68-1.89
			c-1.87-0.51-3.69-1.1-5.46-1.76c-2.71-1.04-4.92-2.58-6.64-4.59c-1.72-2.02-2.58-4.67-2.58-7.95c0-3.01,0.9-5.61,2.7-7.81
			c1.8-2.2,4.15-3.89,7.04-5.09c2.89-1.19,5.97-1.79,9.23-1.79c1.86,0,3.78,0.11,5.78,0.34c1.99,0.22,3.91,0.5,5.74,0.83
			c1.83,0.33,3.43,0.65,4.8,0.94v13.73h-4.99l-1.63-5.86c-0.11-0.32-0.32-0.63-0.62-0.93c-0.31-0.3-0.6-0.53-0.88-0.7
			c-0.32-0.19-0.92-0.48-1.79-0.86c-0.88-0.38-1.87-0.73-2.98-1.04c-1.11-0.31-2.19-0.46-3.23-0.46c-2.8,0-4.89,0.59-6.29,1.76
			c-1.4,1.17-2.1,2.45-2.1,3.84c0,1.49,0.48,2.75,1.46,3.78c0.97,1.02,2.79,1.97,5.46,2.85c1.77,0.6,3.52,1.15,5.25,1.65
			c1.73,0.5,3.62,1.16,5.66,1.97c1.71,0.66,3.27,1.49,4.69,2.5c1.42,1,2.56,2.28,3.42,3.82s1.3,3.48,1.3,5.81
			c0,2.82-0.78,5.42-2.34,7.82c-1.56,2.4-3.92,4.33-7.07,5.79s-7.16,2.19-12,2.19c-1.58,0-3.4-0.15-5.46-0.46
			c-2.06-0.31-4.15-0.69-6.27-1.15C947.28,483.12,945.33,482.65,943.56,482.18z"/>
		<path d="M1008.65,484.94c-3.88,0-7.29-0.74-10.24-2.21s-5.24-3.63-6.88-6.46c-1.64-2.84-2.46-6.29-2.46-10.37
			c0-3.75,0.82-7.07,2.45-9.95c1.63-2.88,3.94-5.13,6.93-6.75c2.99-1.62,6.52-2.43,10.59-2.43c4.42,0,8.07,0.85,10.96,2.56
			c2.89,1.71,5.05,4,6.48,6.88c1.43,2.88,2.14,6.07,2.14,9.57c0,3.71-0.81,7.01-2.43,9.9c-1.62,2.89-3.93,5.16-6.91,6.8
			C1016.29,484.11,1012.75,484.94,1008.65,484.94z M1009.1,479.78c1.56,0,2.85-0.39,3.87-1.17c1.02-0.78,1.83-1.82,2.43-3.12
			s1.02-2.74,1.26-4.3c0.25-1.57,0.37-3.15,0.37-4.75c0-2.58-0.27-4.97-0.82-7.17c-0.54-2.2-1.44-3.97-2.67-5.33
			c-1.24-1.35-2.89-2.03-4.96-2.03c-1.56,0-2.85,0.38-3.87,1.15s-1.83,1.79-2.43,3.07c-0.6,1.28-1.02,2.7-1.26,4.26
			c-0.25,1.56-0.37,3.13-0.37,4.7c0,1.75,0.13,3.49,0.4,5.22c0.27,1.73,0.71,3.31,1.34,4.74c0.63,1.43,1.49,2.58,2.59,3.44
			C1006.09,479.35,1007.46,479.78,1009.1,479.78z"/>
		<path d="M1033.55,484.04v-3.01l5.34-1.92c0.4-0.15,0.72-0.33,0.94-0.54c0.22-0.21,0.34-0.53,0.34-0.96v-37.54
			c0-0.43-0.14-0.75-0.42-0.98c-0.28-0.22-0.57-0.4-0.86-0.53l-5.66-2.4v-3.1h17.7v44.54c0,0.43,0.14,0.76,0.42,0.99
			c0.28,0.23,0.57,0.41,0.86,0.51l5.28,1.92v3.01H1033.55z"/>
		<path d="M1077.96,484.71c-2.18,0-4.16-0.41-5.94-1.23c-1.78-0.82-3.21-2.12-4.27-3.9s-1.6-4.09-1.6-6.93v-17.5
			c0-0.45-0.13-0.78-0.38-0.99c-0.26-0.21-0.53-0.38-0.83-0.51l-4.13-1.76v-3.1l16.16-1.66v21.28c0,1.96,0.14,3.64,0.43,5.04
			c0.29,1.4,0.87,2.46,1.74,3.18c0.87,0.73,2.19,1.09,3.94,1.09c1.86,0,3.32-0.25,4.38-0.74c1.07-0.49,1.9-1.19,2.5-2.11v-19.71
			c0-0.45-0.12-0.77-0.37-0.98c-0.25-0.2-0.55-0.38-0.91-0.53l-4.06-1.76v-3.1l16.13-1.66v29.57c0,0.45,0.12,0.77,0.37,0.98
			c0.25,0.2,0.54,0.38,0.88,0.53l4.1,1.76v3.1l-15.39,1.63v-5.95h-0.48c-1.41,1.75-3.01,3.18-4.82,4.3
			C1083.6,484.15,1081.12,484.71,1077.96,484.71z"/>
		<path d="M1139.05,447.78v5.73h-12.8v19.42c0,1.05,0.38,1.96,1.13,2.75c0.76,0.79,1.65,1.4,2.67,1.84
			c1.02,0.44,1.91,0.66,2.66,0.66c0.68,0,1.57-0.03,2.66-0.1s1.9-0.14,2.43-0.22h1.57v3.3c-0.53,0.3-1.42,0.73-2.67,1.28
			c-1.25,0.56-2.69,1.06-4.34,1.5c-1.64,0.45-3.33,0.67-5.06,0.67c-2.09,0-4.04-0.3-5.84-0.91s-3.25-1.47-4.35-2.59
			c-1.1-1.12-1.65-2.44-1.65-3.95v-23.65h-5.86v-5.09c1.3-0.17,2.43-0.36,3.38-0.56s1.7-0.62,2.26-1.26s0.87-1.7,0.96-3.17
			l0.32-5.09l9.73-1.38v10.82H1139.05z"/>
		<path d="M1142.89,484.04v-3.01l5.31-1.92c0.41-0.15,0.73-0.33,0.96-0.54c0.23-0.21,0.35-0.53,0.35-0.96v-21.76
			c0-0.43-0.12-0.75-0.37-0.96c-0.25-0.21-0.55-0.39-0.91-0.54l-5.28-2.08v-3.1l17.34-0.67v29.12c0,0.43,0.13,0.76,0.38,0.99
			c0.26,0.23,0.54,0.41,0.87,0.51l5.31,1.92v3.01H1142.89z M1154.25,443.72c-1.09,0-2.16-0.26-3.22-0.78
			c-1.06-0.52-1.94-1.23-2.64-2.11c-0.7-0.89-1.06-1.87-1.06-2.96c0-1.77,0.7-3.11,2.1-4.02c1.4-0.91,3-1.36,4.82-1.36
			c2.13,0,3.86,0.41,5.18,1.23c1.32,0.82,1.98,2.06,1.98,3.73c0,1.17-0.34,2.23-1.02,3.18c-0.68,0.95-1.57,1.7-2.67,2.26
			C1156.62,443.44,1155.46,443.72,1154.25,443.72z"/>
		<path d="M1191.21,484.94c-3.88,0-7.29-0.74-10.24-2.21s-5.24-3.63-6.88-6.46c-1.64-2.84-2.46-6.29-2.46-10.37
			c0-3.75,0.82-7.07,2.45-9.95c1.63-2.88,3.94-5.13,6.93-6.75c2.99-1.62,6.52-2.43,10.59-2.43c4.42,0,8.07,0.85,10.96,2.56
			c2.89,1.71,5.05,4,6.48,6.88c1.43,2.88,2.14,6.07,2.14,9.57c0,3.71-0.81,7.01-2.43,9.9c-1.62,2.89-3.93,5.16-6.91,6.8
			C1198.84,484.11,1195.3,484.94,1191.21,484.94z M1191.66,479.78c1.56,0,2.85-0.39,3.87-1.17c1.02-0.78,1.83-1.82,2.43-3.12
			s1.02-2.74,1.26-4.3c0.25-1.57,0.37-3.15,0.37-4.75c0-2.58-0.27-4.97-0.82-7.17c-0.54-2.2-1.44-3.97-2.67-5.33
			c-1.24-1.35-2.89-2.03-4.96-2.03c-1.56,0-2.85,0.38-3.87,1.15s-1.83,1.79-2.43,3.07c-0.6,1.28-1.02,2.7-1.26,4.26
			c-0.25,1.56-0.37,3.13-0.37,4.7c0,1.75,0.13,3.49,0.4,5.22c0.27,1.73,0.71,3.31,1.34,4.74c0.63,1.43,1.49,2.58,2.59,3.44
			C1188.64,479.35,1190.01,479.78,1191.66,479.78z"/>
		<path d="M1216.97,484.04v-3.01l4.16-1.76c0.36-0.19,0.66-0.38,0.9-0.58c0.23-0.19,0.35-0.5,0.35-0.93v-22.62
			c0-0.45-0.13-0.77-0.38-0.98c-0.26-0.2-0.54-0.38-0.86-0.53l-4.1-1.76v-3.1l15.39-1.66v5.66h0.51c1.41-1.79,2.81-3.11,4.19-3.95
			s2.75-1.39,4.1-1.63c1.34-0.24,2.64-0.37,3.9-0.37c2.22,0,4.23,0.42,6.05,1.25c1.81,0.83,3.26,2.14,4.34,3.92s1.62,4.09,1.62,6.93
			v18.69c0,0.51,0.11,0.87,0.34,1.07s0.53,0.4,0.91,0.59l3.65,1.76v3.01h-20.35v-3.01l3.26-1.76c0.38-0.21,0.7-0.42,0.96-0.61
			s0.38-0.54,0.38-1.06v-14.4c0-2-0.16-3.7-0.46-5.09c-0.31-1.39-0.91-2.44-1.79-3.17c-0.89-0.73-2.21-1.09-3.98-1.09
			c-1.17,0-2.41,0.17-3.71,0.5c-1.3,0.33-2.37,1.13-3.2,2.38v21.02c0,0.43,0.12,0.73,0.35,0.9c0.23,0.17,0.54,0.37,0.93,0.61
			l3.04,1.76v3.01H1216.97z"/>
		<path d="M1289.06,484.04v-3.01l4.77-1.92c0.38-0.17,0.69-0.36,0.93-0.56c0.23-0.2,0.35-0.52,0.35-0.94V455.5h-6.75v-5.73h6.88
			c0.38-3.84,1.44-7.04,3.18-9.6c1.74-2.56,3.91-4.48,6.51-5.76c2.6-1.28,5.41-1.92,8.42-1.92c0.94,0,2.17,0.07,3.7,0.21
			c1.53,0.14,2.81,0.3,3.86,0.5v8.8h-2.5c-0.7-0.3-1.66-0.62-2.86-0.98s-2.41-0.66-3.6-0.91c-1.2-0.26-2.14-0.38-2.85-0.38
			c-0.58,0-1.05,0.07-1.41,0.22c-0.36,0.15-0.66,0.42-0.9,0.8c-0.32,0.51-0.55,1.55-0.69,3.12c-0.14,1.57-0.22,3.54-0.24,5.9h10.3
			v5.73h-10.27v22.11c0,0.43,0.12,0.75,0.37,0.98c0.24,0.22,0.54,0.4,0.88,0.53l5.6,1.92v3.01H1289.06z"/>
		<path d="M1340.9,484.94c-3.88,0-7.29-0.74-10.24-2.21s-5.24-3.63-6.88-6.46c-1.64-2.84-2.46-6.29-2.46-10.37
			c0-3.75,0.82-7.07,2.45-9.95c1.63-2.88,3.94-5.13,6.93-6.75c2.99-1.62,6.52-2.43,10.59-2.43c4.42,0,8.07,0.85,10.96,2.56
			c2.89,1.71,5.05,4,6.48,6.88c1.43,2.88,2.14,6.07,2.14,9.57c0,3.71-0.81,7.01-2.43,9.9c-1.62,2.89-3.93,5.16-6.91,6.8
			C1348.54,484.11,1345,484.94,1340.9,484.94z M1341.35,479.78c1.56,0,2.85-0.39,3.87-1.17c1.02-0.78,1.83-1.82,2.43-3.12
			s1.02-2.74,1.26-4.3c0.25-1.57,0.37-3.15,0.37-4.75c0-2.58-0.27-4.97-0.82-7.17c-0.54-2.2-1.44-3.97-2.67-5.33
			c-1.24-1.35-2.89-2.03-4.96-2.03c-1.56,0-2.85,0.38-3.87,1.15s-1.83,1.79-2.43,3.07c-0.6,1.28-1.02,2.7-1.26,4.26
			c-0.25,1.56-0.37,3.13-0.37,4.7c0,1.75,0.13,3.49,0.4,5.22c0.27,1.73,0.71,3.31,1.34,4.74c0.63,1.43,1.49,2.58,2.59,3.44
			C1338.34,479.35,1339.71,479.78,1341.35,479.78z"/>
		<path d="M1366.88,484.04v-3.01l4.13-1.76c0.36-0.17,0.66-0.36,0.9-0.56c0.23-0.2,0.35-0.52,0.35-0.94v-21.02c0-1-0.06-1.67-0.18-2
			c-0.12-0.33-0.42-0.6-0.91-0.82l-4.61-2.05v-3.1l15.94-1.66v7.46h0.42c1.41-2.24,2.76-3.91,4.06-5.02
			c1.3-1.11,2.56-1.84,3.78-2.19c1.22-0.35,2.38-0.53,3.49-0.53c1.04,0,2.1,0.13,3.17,0.38s2.08,0.74,3.04,1.44v11.23h-7.94
			l-0.96-2.4c-0.15-0.36-0.49-0.78-1.01-1.26c-0.52-0.48-1.15-0.72-1.87-0.72c-0.68,0-1.33,0.09-1.94,0.27
			c-0.61,0.18-1.21,0.5-1.81,0.94c-0.6,0.45-1.24,1.06-1.92,1.82v19.23c0,0.73,0.42,1.23,1.25,1.5l5.6,1.76v3.01H1366.88z"/>
		<path d="M596.88,534.18v5.73h-12.8v19.42c0,1.04,0.38,1.96,1.14,2.75s1.65,1.4,2.67,1.84c1.02,0.44,1.91,0.66,2.66,0.66
			c0.68,0,1.57-0.03,2.66-0.1c1.09-0.06,1.9-0.14,2.43-0.22h1.57v3.3c-0.53,0.3-1.42,0.73-2.67,1.28s-2.69,1.06-4.34,1.5
			c-1.64,0.45-3.33,0.67-5.06,0.67c-2.09,0-4.04-0.3-5.84-0.91s-3.25-1.47-4.35-2.59c-1.1-1.12-1.65-2.44-1.65-3.95v-23.65h-5.86
			v-5.09c1.3-0.17,2.43-0.36,3.38-0.56s1.7-0.62,2.26-1.26s0.87-1.7,0.96-3.17l0.32-5.09l9.73-1.38v10.82H596.88z"/>
		<path d="M600.33,567.43l4.1-1.76c0.45-0.19,0.77-0.38,0.96-0.58c0.19-0.19,0.29-0.5,0.29-0.93v-37.7c0-0.43-0.12-0.74-0.37-0.94
			c-0.25-0.2-0.54-0.39-0.88-0.56l-4.51-2.4v-3.1h16.54v17.22l-0.35,3.07c1.26-1.9,2.58-3.31,3.97-4.24
			c1.39-0.93,2.78-1.54,4.19-1.84c1.41-0.3,2.75-0.45,4.03-0.45c2.18,0,4.18,0.4,6.02,1.18c1.83,0.79,3.31,2.07,4.43,3.84
			c1.12,1.77,1.68,4.13,1.68,7.07v18.69c0,0.51,0.11,0.87,0.34,1.07c0.22,0.2,0.52,0.4,0.88,0.59l3.78,1.76v3.01h-20.35v-3.01
			l3.26-1.76c0.34-0.19,0.64-0.39,0.9-0.59c0.26-0.2,0.38-0.56,0.38-1.07v-14.4c0-2.13-0.17-3.89-0.51-5.26
			c-0.34-1.38-0.98-2.4-1.9-3.07c-0.93-0.67-2.27-1.01-4.02-1.01c-1,0-2.18,0.16-3.52,0.48c-1.34,0.32-2.41,1.12-3.2,2.4v21.02
			c0,0.43,0.11,0.72,0.34,0.9s0.53,0.37,0.91,0.61l3.04,1.76v3.01h-20.42V567.43z"/>
		<path d="M669.49,571.27c-3.63,0-6.88-0.72-9.76-2.16c-2.88-1.44-5.16-3.56-6.83-6.35s-2.51-6.2-2.51-10.21c0-3.69,0.8-7,2.4-9.92
			c1.6-2.92,3.83-5.23,6.7-6.93c2.87-1.7,6.2-2.54,10-2.54c3.6,0,6.68,0.66,9.23,1.97c2.55,1.31,4.5,3.06,5.86,5.23
			c1.35,2.18,2.03,4.58,2.03,7.2c0,0.3-0.02,0.82-0.06,1.57c-0.04,0.75-0.09,1.48-0.13,2.21c-0.04,0.72-0.09,1.23-0.13,1.5h-25.41
			v-5.31h14.72c0-1.98-0.22-3.67-0.67-5.06c-0.45-1.39-1.16-2.45-2.14-3.18c-0.98-0.74-2.29-1.1-3.94-1.1
			c-1.13,0-2.16,0.23-3.09,0.69c-0.93,0.46-1.73,1.18-2.42,2.18c-0.68,0.99-1.21,2.26-1.58,3.81c-0.37,1.55-0.56,3.41-0.56,5.58
			c0,2.77,0.36,5.17,1.07,7.2s1.97,3.59,3.78,4.7c1.8,1.11,4.35,1.66,7.63,1.66c1.66,0,3.18-0.14,4.54-0.43
			c1.37-0.29,2.59-0.65,3.68-1.07s2.03-0.83,2.82-1.22h1.79v4.35c-1.94,1.34-4.41,2.62-7.41,3.82S672.9,571.27,669.49,571.27z"/>
		<path d="M692.11,570.44v-3.01l4.77-1.92c0.38-0.17,0.69-0.36,0.93-0.56c0.23-0.2,0.35-0.52,0.35-0.94V541.9h-6.75v-5.73h6.88
			c0.38-3.84,1.44-7.04,3.18-9.6c1.74-2.56,3.91-4.48,6.51-5.76c2.6-1.28,5.41-1.92,8.42-1.92c0.94,0,2.17,0.07,3.7,0.21
			c1.52,0.14,2.81,0.3,3.86,0.5v8.8h-2.5c-0.7-0.3-1.66-0.62-2.86-0.98c-1.21-0.35-2.41-0.66-3.6-0.91
			c-1.2-0.26-2.14-0.38-2.85-0.38c-0.58,0-1.05,0.07-1.41,0.22c-0.36,0.15-0.66,0.42-0.9,0.8c-0.32,0.51-0.55,1.55-0.69,3.12
			c-0.14,1.57-0.22,3.54-0.24,5.9h10.3v5.73h-10.27v22.11c0,0.43,0.12,0.75,0.37,0.98c0.25,0.22,0.54,0.4,0.88,0.53l5.6,1.92v3.01
			H692.11z"/>
		<path d="M752.14,534.18v5.73h-12.8v19.42c0,1.04,0.38,1.96,1.14,2.75s1.65,1.4,2.67,1.84c1.02,0.44,1.91,0.66,2.66,0.66
			c0.68,0,1.57-0.03,2.66-0.1c1.09-0.06,1.9-0.14,2.43-0.22h1.57v3.3c-0.53,0.3-1.42,0.73-2.67,1.28s-2.69,1.06-4.34,1.5
			c-1.64,0.45-3.33,0.67-5.06,0.67c-2.09,0-4.04-0.3-5.84-0.91s-3.25-1.47-4.35-2.59c-1.1-1.12-1.65-2.44-1.65-3.95v-23.65h-5.86
			v-5.09c1.3-0.17,2.43-0.36,3.38-0.56s1.7-0.62,2.26-1.26s0.87-1.7,0.96-3.17l0.32-5.09l9.73-1.38v10.82H752.14z"/>
		<path d="M789.93,571.11c-2.26,0-4.2-0.51-5.81-1.52c-1.61-1.01-2.84-2.32-3.7-3.92c-0.85-1.6-1.28-3.29-1.28-5.06
			c0-2.3,0.55-4.28,1.66-5.94c1.11-1.65,2.54-3,4.29-4.03c1.75-1.03,3.62-1.8,5.6-2.29c1.98-0.49,3.84-0.74,5.57-0.74
			c0.34,0,0.93,0.04,1.78,0.11c0.84,0.08,1.69,0.16,2.54,0.26c0.85,0.1,1.43,0.17,1.73,0.21v-2.72c0-2.35-0.4-4.14-1.2-5.38
			c-0.8-1.24-2.22-1.86-4.27-1.86c-0.92,0-1.96,0.26-3.12,0.78c-1.16,0.52-2.34,1.16-3.52,1.9c-1.18,0.75-2.28,1.48-3.3,2.21
			s-1.84,1.28-2.48,1.66h-2.5v-8.74c1.62-0.47,3.22-0.93,4.78-1.38c1.57-0.45,3.27-0.82,5.12-1.1c1.84-0.29,3.98-0.43,6.42-0.43
			c2.54,0,4.94,0.31,7.2,0.93c2.26,0.62,4.11,1.77,5.54,3.44c1.43,1.68,2.14,4.1,2.14,7.28v17.5c0,0.88,0.27,1.58,0.82,2.13
			s1.14,0.82,1.78,0.82c0.49,0,1.02-0.05,1.6-0.14c0.58-0.1,1.12-0.21,1.63-0.34h1.25v3.42c-0.6,0.38-1.42,0.81-2.46,1.26
			c-1.05,0.46-2.13,0.85-3.26,1.17c-1.13,0.32-2.16,0.48-3.07,0.48c-2.84,0-4.94-0.5-6.3-1.5c-1.37-1-2.05-2.55-2.05-4.64h-0.51
			c-1.17,1.77-2.5,3.1-3.97,3.98c-1.47,0.89-2.96,1.47-4.46,1.74S791.21,571.11,789.93,571.11z M795.63,564.74
			c1.09,0,2.28-0.26,3.57-0.77c1.29-0.51,2.33-1.38,3.12-2.59v-8.8c-2.37,0-4.45,0.19-6.26,0.58c-1.8,0.38-3.21,1.06-4.21,2.03
			c-1,0.97-1.5,2.34-1.5,4.11c0,1.43,0.28,2.54,0.85,3.33c0.56,0.79,1.26,1.34,2.08,1.65C794.1,564.59,794.88,564.74,795.63,564.74z
			"/>
		<path d="M822.96,570.44v-3.01l4.16-1.76c0.36-0.19,0.66-0.38,0.9-0.58c0.23-0.19,0.35-0.5,0.35-0.93v-22.62
			c0-0.45-0.13-0.77-0.38-0.98c-0.26-0.2-0.54-0.38-0.86-0.53l-4.1-1.76v-3.1l15.39-1.66v5.66h0.51c1.41-1.79,2.81-3.11,4.19-3.95
			c1.39-0.84,2.75-1.39,4.1-1.63c1.34-0.24,2.65-0.37,3.9-0.37c2.22,0,4.23,0.42,6.05,1.25c1.81,0.83,3.26,2.14,4.34,3.92
			c1.08,1.78,1.62,4.09,1.62,6.93v18.69c0,0.51,0.11,0.87,0.34,1.07c0.22,0.2,0.53,0.4,0.91,0.59l3.65,1.76v3.01h-20.35v-3.01
			l3.26-1.76c0.38-0.21,0.7-0.42,0.96-0.61c0.26-0.19,0.38-0.54,0.38-1.06v-14.4c0-2-0.15-3.7-0.46-5.09
			c-0.31-1.39-0.91-2.44-1.79-3.17c-0.89-0.73-2.21-1.09-3.98-1.09c-1.17,0-2.41,0.17-3.71,0.5s-2.37,1.13-3.2,2.38v21.02
			c0,0.43,0.12,0.72,0.35,0.9c0.23,0.17,0.54,0.37,0.93,0.61l3.04,1.76v3.01H822.96z"/>
		<path d="M887.69,571.11c-3.01,0-5.6-0.76-7.76-2.29c-2.17-1.52-3.83-3.61-4.99-6.26c-1.16-2.65-1.74-5.64-1.74-8.99
			c0-3.73,0.7-7.14,2.11-10.21c1.41-3.07,3.42-5.53,6.05-7.38c2.62-1.84,5.74-2.77,9.34-2.77c2.15,0,4.03,0.39,5.62,1.17
			c1.59,0.78,2.84,1.7,3.76,2.77l-0.32-2.62v-8.06c0-0.43-0.12-0.75-0.35-0.96c-0.23-0.21-0.52-0.39-0.86-0.54l-5.44-2.4v-3.1h17.41
			v43.62c0,0.43,0.14,0.75,0.42,0.98c0.28,0.22,0.56,0.4,0.86,0.53l4.13,1.76v3.1l-15.46,1.63v-6.11h-0.54
			c-1.32,1.94-2.77,3.34-4.34,4.21c-1.57,0.86-3.06,1.4-4.48,1.62C889.68,571,888.54,571.11,887.69,571.11z M893.23,564.68
			c0.64,0,1.38-0.11,2.21-0.34c0.83-0.22,1.64-0.58,2.43-1.07c0.79-0.49,1.42-1.12,1.89-1.89v-20.77c-0.47-0.36-1.11-0.65-1.92-0.85
			c-0.81-0.2-1.63-0.35-2.45-0.45c-0.82-0.1-1.49-0.14-2-0.14c-2.05,0-3.73,0.55-5.04,1.65c-1.31,1.1-2.28,2.57-2.91,4.4
			c-0.63,1.83-0.94,3.86-0.94,6.08c0,2.52,0.3,4.79,0.9,6.82c0.6,2.03,1.54,3.63,2.82,4.8
			C889.48,564.09,891.16,564.68,893.23,564.68z"/>
		<path d="M962.31,571.27c-3.63,0-6.88-0.72-9.76-2.16c-2.88-1.44-5.16-3.56-6.83-6.35s-2.51-6.2-2.51-10.21c0-3.69,0.8-7,2.4-9.92
			c1.6-2.92,3.83-5.23,6.7-6.93c2.87-1.7,6.2-2.54,10-2.54c3.61,0,6.68,0.66,9.23,1.97c2.55,1.31,4.5,3.06,5.86,5.23
			c1.35,2.18,2.03,4.58,2.03,7.2c0,0.3-0.02,0.82-0.06,1.57c-0.04,0.75-0.09,1.48-0.13,2.21c-0.04,0.72-0.09,1.23-0.13,1.5h-25.41
			v-5.31h14.72c0-1.98-0.22-3.67-0.67-5.06c-0.45-1.39-1.16-2.45-2.14-3.18c-0.98-0.74-2.29-1.1-3.94-1.1
			c-1.13,0-2.16,0.23-3.09,0.69c-0.93,0.46-1.73,1.18-2.42,2.18c-0.68,0.99-1.21,2.26-1.58,3.81c-0.37,1.55-0.56,3.41-0.56,5.58
			c0,2.77,0.36,5.17,1.07,7.2s1.97,3.59,3.78,4.7c1.8,1.11,4.35,1.66,7.63,1.66c1.66,0,3.18-0.14,4.54-0.43
			c1.37-0.29,2.59-0.65,3.68-1.07s2.03-0.83,2.82-1.22h1.79v4.35c-1.94,1.34-4.41,2.62-7.41,3.82
			C968.93,570.67,965.73,571.27,962.31,571.27z"/>
		<path d="M1000.62,570.76l-13.12-30.72c-0.17-0.43-0.41-0.77-0.7-1.02c-0.3-0.26-0.58-0.45-0.83-0.58l-2.75-1.31v-2.94h19.97v2.94
			l-4.96,1.76l7.04,15.94l1.44,5.25h0.67l8.06-19.97l-4.51-2.98v-2.94h14.94v2.94l-2.94,2.27c-0.28,0.21-0.58,0.47-0.91,0.77
			c-0.33,0.3-0.56,0.61-0.69,0.93l-9.38,22.27l-3.58,7.39H1000.62z"/>
		<path d="M1048.75,571.27c-3.63,0-6.88-0.72-9.76-2.16c-2.88-1.44-5.16-3.56-6.83-6.35c-1.67-2.79-2.51-6.2-2.51-10.21
			c0-3.69,0.8-7,2.4-9.92c1.6-2.92,3.83-5.23,6.7-6.93c2.87-1.7,6.2-2.54,10-2.54c3.6,0,6.68,0.66,9.23,1.97s4.5,3.06,5.86,5.23
			s2.03,4.58,2.03,7.2c0,0.3-0.02,0.82-0.06,1.57c-0.04,0.75-0.09,1.48-0.13,2.21c-0.04,0.72-0.08,1.23-0.13,1.5h-25.41v-5.31h14.72
			c0-1.98-0.22-3.67-0.67-5.06c-0.45-1.39-1.16-2.45-2.14-3.18c-0.98-0.74-2.29-1.1-3.94-1.1c-1.13,0-2.16,0.23-3.09,0.69
			c-0.93,0.46-1.73,1.18-2.42,2.18c-0.68,0.99-1.21,2.26-1.58,3.81c-0.37,1.55-0.56,3.41-0.56,5.58c0,2.77,0.36,5.17,1.07,7.2
			s1.97,3.59,3.78,4.7s4.35,1.66,7.63,1.66c1.66,0,3.18-0.14,4.54-0.43c1.37-0.29,2.59-0.65,3.68-1.07s2.03-0.83,2.82-1.22h1.79
			v4.35c-1.94,1.34-4.41,2.62-7.41,3.82C1055.36,570.67,1052.16,571.27,1048.75,571.27z"/>
		<path d="M1071.56,570.44v-3.01l4.13-1.76c0.36-0.17,0.66-0.36,0.9-0.56c0.23-0.2,0.35-0.52,0.35-0.94v-21.02c0-1-0.06-1.67-0.18-2
			c-0.12-0.33-0.42-0.6-0.91-0.82l-4.61-2.05v-3.1l15.94-1.66v7.46h0.42c1.41-2.24,2.76-3.91,4.06-5.02
			c1.3-1.11,2.56-1.84,3.78-2.19s2.38-0.53,3.49-0.53c1.04,0,2.1,0.13,3.17,0.38s2.08,0.74,3.04,1.44v11.23h-7.94l-0.96-2.4
			c-0.15-0.36-0.49-0.78-1.01-1.26c-0.52-0.48-1.15-0.72-1.87-0.72c-0.68,0-1.33,0.09-1.94,0.27c-0.61,0.18-1.21,0.5-1.81,0.94
			c-0.6,0.45-1.24,1.06-1.92,1.82v19.23c0,0.72,0.42,1.23,1.25,1.5l5.6,1.76v3.01H1071.56z"/>
		<path d="M1109.35,585.83v-8.9h2.72c0.51,0.15,1.24,0.31,2.19,0.5c0.95,0.18,1.94,0.36,2.96,0.53c1.02,0.17,1.94,0.3,2.74,0.4
			c0.8,0.1,1.31,0.14,1.52,0.14c0.3,0,0.67-0.02,1.12-0.06s0.74-0.13,0.86-0.26c0.32-0.32,0.67-0.74,1.06-1.26
			c0.38-0.52,0.81-1.24,1.26-2.14c0.46-0.91,0.98-2.1,1.55-3.57l-3.94-5.7l-11.49-25.6c-0.17-0.41-0.39-0.71-0.66-0.93
			c-0.27-0.21-0.56-0.39-0.88-0.54l-3.04-1.31v-2.94h20.42v2.94l-4.9,1.76l7.1,15.68l1.6,4.61h0.77l7.68-19.07l-4.7-2.98v-2.94
			h15.23v2.94l-3.04,2.27c-0.3,0.21-0.6,0.45-0.9,0.7c-0.3,0.26-0.51,0.54-0.64,0.86l-14.21,35.1c-1.24,3.03-2.67,5.32-4.3,6.86
			c-1.63,1.55-3.36,2.58-5.18,3.1c-1.82,0.52-3.63,0.78-5.42,0.78c-0.3,0-0.97-0.05-2.03-0.16c-1.06-0.11-2.13-0.24-3.22-0.4
			C1110.5,586.1,1109.76,585.96,1109.35,585.83z"/>
		<path d="M1196.3,571.34c-3.88,0-7.3-0.74-10.24-2.21c-2.95-1.47-5.24-3.63-6.88-6.46c-1.64-2.84-2.46-6.29-2.46-10.37
			c0-3.75,0.82-7.07,2.45-9.95c1.63-2.88,3.94-5.13,6.93-6.75c2.99-1.62,6.52-2.43,10.59-2.43c4.42,0,8.07,0.85,10.96,2.56
			c2.89,1.71,5.05,4,6.48,6.88c1.43,2.88,2.14,6.07,2.14,9.57c0,3.71-0.81,7.01-2.43,9.9c-1.62,2.89-3.93,5.16-6.91,6.8
			S1200.39,571.34,1196.3,571.34z M1196.74,566.18c1.56,0,2.85-0.39,3.87-1.17c1.03-0.78,1.83-1.82,2.43-3.12
			c0.6-1.3,1.02-2.74,1.26-4.3c0.24-1.57,0.37-3.15,0.37-4.75c0-2.58-0.27-4.97-0.82-7.17c-0.54-2.2-1.43-3.97-2.67-5.33
			c-1.24-1.35-2.89-2.03-4.96-2.03c-1.56,0-2.85,0.38-3.87,1.15c-1.02,0.77-1.83,1.79-2.43,3.07c-0.6,1.28-1.02,2.7-1.26,4.26
			c-0.25,1.56-0.37,3.13-0.37,4.71c0,1.75,0.13,3.49,0.4,5.21c0.27,1.73,0.71,3.31,1.34,4.74c0.63,1.43,1.49,2.58,2.59,3.44
			S1195.1,566.18,1196.74,566.18z"/>
		<path d="M1250.25,534.18v5.73h-12.8v19.42c0,1.04,0.38,1.96,1.14,2.75s1.65,1.4,2.67,1.84c1.02,0.44,1.91,0.66,2.66,0.66
			c0.68,0,1.57-0.03,2.66-0.1c1.09-0.06,1.9-0.14,2.43-0.22h1.57v3.3c-0.53,0.3-1.42,0.73-2.67,1.28s-2.69,1.06-4.34,1.5
			c-1.64,0.45-3.33,0.67-5.05,0.67c-2.09,0-4.04-0.3-5.84-0.91s-3.25-1.47-4.35-2.59c-1.1-1.12-1.65-2.44-1.65-3.95v-23.65h-5.86
			v-5.09c1.3-0.17,2.43-0.36,3.38-0.56s1.7-0.62,2.26-1.26s0.87-1.7,0.96-3.17l0.32-5.09l9.73-1.38v10.82H1250.25z"/>
		<path d="M1253.7,567.43l4.1-1.76c0.45-0.19,0.77-0.38,0.96-0.58c0.19-0.19,0.29-0.5,0.29-0.93v-37.7c0-0.43-0.12-0.74-0.37-0.94
			c-0.25-0.2-0.54-0.39-0.88-0.56l-4.51-2.4v-3.1h16.54v17.22l-0.35,3.07c1.26-1.9,2.58-3.31,3.97-4.24
			c1.39-0.93,2.78-1.54,4.19-1.84c1.41-0.3,2.75-0.45,4.03-0.45c2.18,0,4.18,0.4,6.02,1.18c1.83,0.79,3.31,2.07,4.43,3.84
			c1.12,1.77,1.68,4.13,1.68,7.07v18.69c0,0.51,0.11,0.87,0.34,1.07c0.22,0.2,0.52,0.4,0.88,0.59l3.78,1.76v3.01h-20.35v-3.01
			l3.26-1.76c0.34-0.19,0.64-0.39,0.9-0.59c0.26-0.2,0.38-0.56,0.38-1.07v-14.4c0-2.13-0.17-3.89-0.51-5.26
			c-0.34-1.38-0.98-2.4-1.9-3.07s-2.27-1.01-4.02-1.01c-1,0-2.18,0.16-3.52,0.48c-1.34,0.32-2.41,1.12-3.2,2.4v21.02
			c0,0.43,0.11,0.72,0.34,0.9s0.53,0.37,0.91,0.61l3.04,1.76v3.01h-20.42V567.43z"/>
		<path d="M1322.85,571.27c-3.63,0-6.88-0.72-9.76-2.16c-2.88-1.44-5.16-3.56-6.83-6.35c-1.68-2.79-2.51-6.2-2.51-10.21
			c0-3.69,0.8-7,2.4-9.92c1.6-2.92,3.83-5.23,6.7-6.93c2.87-1.7,6.2-2.54,10-2.54c3.61,0,6.68,0.66,9.23,1.97
			c2.55,1.31,4.5,3.06,5.86,5.23c1.35,2.18,2.03,4.58,2.03,7.2c0,0.3-0.02,0.82-0.06,1.57c-0.04,0.75-0.09,1.48-0.13,2.21
			c-0.04,0.72-0.09,1.23-0.13,1.5h-25.41v-5.31h14.72c0-1.98-0.22-3.67-0.67-5.06c-0.45-1.39-1.16-2.45-2.14-3.18
			c-0.98-0.74-2.29-1.1-3.94-1.1c-1.13,0-2.16,0.23-3.09,0.69c-0.93,0.46-1.73,1.18-2.42,2.18c-0.68,0.99-1.21,2.26-1.58,3.81
			s-0.56,3.41-0.56,5.58c0,2.77,0.36,5.17,1.07,7.2s1.97,3.59,3.78,4.7c1.8,1.11,4.35,1.66,7.63,1.66c1.66,0,3.18-0.14,4.54-0.43
			c1.37-0.29,2.59-0.65,3.68-1.07s2.03-0.83,2.82-1.22h1.79v4.35c-1.94,1.34-4.41,2.62-7.41,3.82
			C1329.47,570.67,1326.27,571.27,1322.85,571.27z"/>
		<path d="M1345.67,570.44v-3.01l4.13-1.76c0.36-0.17,0.66-0.36,0.9-0.56c0.23-0.2,0.35-0.52,0.35-0.94v-21.02c0-1-0.06-1.67-0.18-2
			c-0.12-0.33-0.42-0.6-0.91-0.82l-4.61-2.05v-3.1l15.94-1.66v7.46h0.42c1.41-2.24,2.76-3.91,4.06-5.02
			c1.3-1.11,2.56-1.84,3.78-2.19c1.22-0.35,2.38-0.53,3.49-0.53c1.04,0,2.1,0.13,3.17,0.38c1.07,0.26,2.08,0.74,3.04,1.44v11.23
			h-7.94l-0.96-2.4c-0.15-0.36-0.49-0.78-1.01-1.26s-1.15-0.72-1.87-0.72c-0.68,0-1.33,0.09-1.94,0.27
			c-0.61,0.18-1.21,0.5-1.81,0.94c-0.6,0.45-1.24,1.06-1.92,1.82v19.23c0,0.72,0.42,1.23,1.25,1.5l5.6,1.76v3.01H1345.67z"/>
		<path d="M568.14,673.22v-2.97l4.32-1.86c0.38-0.17,0.69-0.34,0.91-0.51c0.22-0.17,0.34-0.48,0.34-0.93v-39.01
			c0-0.45-0.13-0.78-0.38-0.99c-0.26-0.21-0.54-0.38-0.86-0.51l-4.1-1.76v-3.1l15.42-1.66v6.02h0.58c1-1.49,2.15-2.71,3.46-3.63
			c1.3-0.93,2.7-1.6,4.19-2.03c1.49-0.43,3.03-0.64,4.61-0.64c3.03,0,5.62,0.76,7.78,2.29c2.15,1.53,3.81,3.61,4.96,6.24
			c1.15,2.63,1.73,5.62,1.73,8.94c0,3.69-0.68,7.06-2.05,10.11c-1.37,3.05-3.33,5.48-5.9,7.28c-2.57,1.8-5.68,2.7-9.33,2.7
			c-2.13,0-4.06-0.39-5.79-1.18s-3.01-1.71-3.84-2.75l0.32,2.62v11.01c0,0.45,0.12,0.76,0.35,0.95c0.23,0.18,0.54,0.35,0.93,0.5
			l5.22,1.92v2.97H568.14z M584.5,629.61v20.16c0.55,0.38,1.26,0.68,2.11,0.9c0.85,0.21,1.7,0.37,2.53,0.46
			c0.83,0.1,1.49,0.14,1.98,0.14c2.05,0,3.71-0.54,4.99-1.63c1.28-1.09,2.22-2.53,2.82-4.34c0.6-1.8,0.9-3.79,0.9-5.97
			c0-2.5-0.29-4.74-0.88-6.74c-0.59-1.99-1.51-3.57-2.78-4.74c-1.27-1.16-2.94-1.74-5.01-1.74c-1.62,0-3.02,0.4-4.19,1.2
			C585.79,628.12,584.96,628.88,584.5,629.61z"/>
		<path d="M617.1,656.84v-3.01l4.13-1.76c0.36-0.17,0.66-0.36,0.9-0.56c0.23-0.2,0.35-0.52,0.35-0.94v-21.02c0-1-0.06-1.67-0.18-2
			c-0.12-0.33-0.42-0.6-0.91-0.82l-4.61-2.05v-3.1l15.94-1.66v7.46h0.42c1.41-2.24,2.76-3.91,4.06-5.02s2.56-1.84,3.78-2.19
			c1.22-0.35,2.38-0.53,3.49-0.53c1.04,0,2.1,0.13,3.17,0.38c1.07,0.26,2.08,0.74,3.04,1.44v11.23h-7.94l-0.96-2.4
			c-0.15-0.36-0.49-0.78-1.01-1.26c-0.52-0.48-1.15-0.72-1.87-0.72c-0.68,0-1.33,0.09-1.94,0.27c-0.61,0.18-1.21,0.5-1.81,0.94
			c-0.6,0.45-1.24,1.06-1.92,1.82v19.23c0,0.73,0.42,1.23,1.25,1.5l5.6,1.76v3.01H617.1z"/>
		<path d="M674.9,657.74c-3.88,0-7.3-0.74-10.24-2.21c-2.94-1.47-5.24-3.63-6.88-6.46c-1.64-2.84-2.46-6.29-2.46-10.37
			c0-3.75,0.82-7.07,2.45-9.95c1.63-2.88,3.94-5.13,6.93-6.75c2.99-1.62,6.52-2.43,10.59-2.43c4.42,0,8.07,0.85,10.96,2.56
			c2.89,1.71,5.05,4,6.48,6.88c1.43,2.88,2.14,6.07,2.14,9.57c0,3.71-0.81,7.01-2.43,9.9c-1.62,2.89-3.93,5.16-6.91,6.8
			C682.53,656.91,678.99,657.74,674.9,657.74z M675.34,652.58c1.56,0,2.85-0.39,3.87-1.17c1.02-0.78,1.83-1.82,2.43-3.12
			c0.6-1.3,1.02-2.74,1.26-4.3c0.25-1.57,0.37-3.15,0.37-4.75c0-2.58-0.27-4.97-0.82-7.17c-0.54-2.2-1.44-3.97-2.67-5.33
			c-1.24-1.35-2.89-2.03-4.96-2.03c-1.56,0-2.85,0.38-3.87,1.15s-1.83,1.79-2.43,3.07c-0.6,1.28-1.02,2.7-1.26,4.26
			c-0.25,1.56-0.37,3.12-0.37,4.7c0,1.75,0.13,3.49,0.4,5.22c0.27,1.73,0.71,3.31,1.34,4.74c0.63,1.43,1.49,2.58,2.59,3.44
			C672.33,652.15,673.7,652.58,675.34,652.58z"/>
		<path d="M721.49,657.74c-3.35,0-6.4-0.34-9.14-1.01c-2.74-0.67-5.3-1.53-7.66-2.58v-41.28c0-0.43-0.13-0.74-0.4-0.93
			s-0.55-0.38-0.85-0.58l-4.51-2.4v-3.1h16.51v17.15l-0.32,3.52c1.22-2.13,2.62-3.68,4.21-4.66c1.59-0.97,3.11-1.59,4.58-1.86
			c1.46-0.27,2.6-0.4,3.41-0.4c3.03,0,5.62,0.76,7.78,2.29c2.15,1.53,3.8,3.61,4.94,6.26c1.14,2.64,1.71,5.65,1.71,9.02
			c0,3.71-0.78,7.12-2.34,10.24c-1.56,3.12-3.84,5.61-6.85,7.49C729.55,656.8,725.86,657.74,721.49,657.74z M721.68,652.55
			c2.07,0,3.75-0.59,5.04-1.78c1.29-1.18,2.25-2.77,2.86-4.75c0.62-1.98,0.93-4.17,0.93-6.56c0-2.52-0.29-4.78-0.88-6.8
			c-0.59-2.02-1.52-3.61-2.78-4.79c-1.27-1.17-2.94-1.76-5.01-1.76c-0.92,0-2.01,0.24-3.26,0.72c-1.26,0.48-2.3,1.4-3.14,2.77v20.45
			c0.55,0.62,1.24,1.11,2.05,1.47c0.81,0.36,1.6,0.62,2.37,0.78C720.62,652.47,721.23,652.55,721.68,652.55z"/>
		<path d="M746.67,656.84v-3.01l5.34-1.92c0.41-0.15,0.72-0.33,0.94-0.54c0.22-0.21,0.34-0.53,0.34-0.96v-37.54
			c0-0.43-0.14-0.75-0.42-0.98c-0.28-0.22-0.57-0.4-0.86-0.53l-5.66-2.4v-3.1h17.7v44.54c0,0.43,0.14,0.76,0.42,0.99
			c0.28,0.24,0.56,0.41,0.86,0.51l5.28,1.92v3.01H746.67z"/>
		<path d="M794.41,657.67c-3.63,0-6.88-0.72-9.76-2.16c-2.88-1.44-5.16-3.56-6.83-6.35c-1.67-2.79-2.51-6.2-2.51-10.21
			c0-3.69,0.8-7,2.4-9.92c1.6-2.92,3.83-5.23,6.7-6.93c2.87-1.7,6.2-2.54,10-2.54c3.6,0,6.68,0.66,9.23,1.97
			c2.55,1.31,4.5,3.06,5.86,5.23c1.35,2.18,2.03,4.58,2.03,7.2c0,0.3-0.02,0.82-0.06,1.57c-0.04,0.75-0.09,1.48-0.13,2.21
			c-0.04,0.73-0.09,1.23-0.13,1.5h-25.41v-5.31h14.72c0-1.98-0.22-3.67-0.67-5.06c-0.45-1.39-1.16-2.45-2.14-3.18
			c-0.98-0.74-2.29-1.1-3.94-1.1c-1.13,0-2.16,0.23-3.09,0.69c-0.93,0.46-1.73,1.18-2.42,2.18c-0.68,0.99-1.21,2.26-1.58,3.81
			c-0.37,1.55-0.56,3.41-0.56,5.58c0,2.77,0.36,5.17,1.07,7.2c0.71,2.03,1.97,3.6,3.78,4.7c1.8,1.11,4.35,1.66,7.63,1.66
			c1.66,0,3.18-0.14,4.54-0.43s2.59-0.65,3.68-1.07s2.03-0.83,2.82-1.22h1.79v4.35c-1.94,1.34-4.41,2.62-7.41,3.82
			S797.83,657.67,794.41,657.67z"/>
		<path d="M841.33,656.84v-3.01l3.17-1.76c0.36-0.21,0.67-0.42,0.91-0.61c0.25-0.19,0.37-0.54,0.37-1.06v-14.4
			c0-2.01-0.15-3.7-0.45-5.09s-0.87-2.44-1.71-3.17c-0.84-0.73-2.1-1.09-3.76-1.09c-1.15,0-2.36,0.16-3.62,0.48
			c-1.26,0.32-2.28,1.12-3.07,2.4v21.02c0,0.43,0.12,0.73,0.37,0.91s0.54,0.38,0.88,0.59l3.01,1.76v3.01h-20.38v-3.01l4.13-1.76
			c0.32-0.17,0.61-0.36,0.86-0.56s0.38-0.52,0.38-0.94v-22.62c0-0.45-0.13-0.78-0.4-0.99c-0.27-0.21-0.55-0.38-0.85-0.51l-4.13-1.76
			v-3.1l15.42-1.66v5.66h0.51c2.03-2.6,4.03-4.25,6.02-4.93s3.85-1.02,5.6-1.02c1.49,0,2.96,0.22,4.4,0.66s2.74,1.21,3.89,2.32
			s2.03,2.67,2.62,4.67l0.45,0.93v22.21c0,0.51,0.11,0.86,0.34,1.04c0.22,0.18,0.53,0.39,0.91,0.62l2.91,1.76v3.01H841.33z
			 M863.95,656.84v-3.01l3.33-1.76c0.36-0.21,0.67-0.42,0.91-0.61c0.25-0.19,0.37-0.54,0.37-1.06v-14.4c0-2.01-0.15-3.7-0.45-5.09
			c-0.3-1.39-0.88-2.44-1.74-3.17c-0.86-0.73-2.15-1.09-3.86-1.09c-1.09,0-2.3,0.19-3.63,0.56c-1.33,0.37-2.41,1.35-3.22,2.93
			l-0.96-3.07c1.79-2.35,3.43-4.04,4.91-5.09c1.48-1.04,2.87-1.7,4.18-1.97c1.3-0.27,2.56-0.4,3.78-0.4c2.13,0,4.09,0.42,5.87,1.25
			c1.78,0.83,3.22,2.14,4.3,3.92c1.09,1.78,1.63,4.09,1.63,6.93v18.69c0,0.51,0.12,0.87,0.35,1.07c0.23,0.2,0.53,0.4,0.9,0.59
			l3.68,1.76v3.01H863.95z"/>
		<path d="M892.14,650.89c0-1.9,0.66-3.51,1.97-4.83c1.31-1.32,2.93-1.98,4.85-1.98c1.9,0,3.51,0.66,4.85,1.98
			c1.33,1.32,2,2.95,2,4.87s-0.67,3.53-2,4.82c-1.33,1.29-2.95,1.94-4.85,1.94c-1.92,0-3.54-0.65-4.85-1.94
			S892.14,652.83,892.14,650.89z"/>
		<path d="M609.36,818.66h2.66v4.86c-1.28,1.05-2.86,2.12-4.75,3.22c-1.89,1.1-3.97,2.03-6.24,2.78s-4.66,1.14-7.15,1.14
			c-4.93,0-9.24-0.99-12.94-2.96c-3.7-1.97-6.58-4.8-8.64-8.48c-2.06-3.68-3.09-8.09-3.09-13.23c0-5.08,1.07-9.48,3.2-13.2
			c2.13-3.72,5.07-6.6,8.82-8.64c3.74-2.04,8.03-3.06,12.85-3.06c1.75,0,3.7,0.14,5.86,0.42s4.23,0.6,6.24,0.98
			c2,0.37,3.66,0.71,4.96,1.01v13.41h-4.93l-1.66-6.34c-0.06-0.26-0.27-0.53-0.62-0.82c-0.35-0.29-0.65-0.5-0.88-0.62
			c-1.11-0.62-2.24-1.14-3.39-1.57c-1.15-0.43-2.47-0.64-3.97-0.64c-4.33,0-7.8,1.43-10.4,4.3c-2.6,2.87-3.9,7.26-3.9,13.17
			c0,6.17,1.42,10.85,4.27,14.05c2.85,3.2,6.71,4.8,11.6,4.8c1.92,0,3.65-0.26,5.2-0.78c1.55-0.52,2.9-1.14,4.06-1.86
			C607.66,819.88,608.61,819.24,609.36,818.66z"/>
		<path d="M637.65,830.54c-3.88,0-7.3-0.74-10.24-2.21c-2.94-1.47-5.24-3.63-6.88-6.46c-1.64-2.84-2.46-6.29-2.46-10.37
			c0-3.75,0.82-7.07,2.45-9.95c1.63-2.88,3.94-5.13,6.93-6.75c2.99-1.62,6.52-2.43,10.59-2.43c4.42,0,8.07,0.85,10.96,2.56
			c2.89,1.71,5.05,4,6.48,6.88c1.43,2.88,2.14,6.07,2.14,9.57c0,3.71-0.81,7.01-2.43,9.9c-1.62,2.89-3.93,5.16-6.91,6.8
			C645.28,829.71,641.74,830.54,637.65,830.54z M638.1,825.38c1.56,0,2.85-0.39,3.87-1.17c1.02-0.78,1.83-1.82,2.43-3.12
			c0.6-1.3,1.02-2.74,1.26-4.3c0.25-1.57,0.37-3.15,0.37-4.75c0-2.58-0.27-4.97-0.82-7.17s-1.44-3.97-2.67-5.33
			c-1.24-1.35-2.89-2.03-4.96-2.03c-1.56,0-2.85,0.38-3.87,1.15c-1.02,0.77-1.83,1.79-2.43,3.07c-0.6,1.28-1.02,2.7-1.26,4.26
			c-0.25,1.56-0.37,3.13-0.37,4.7c0,1.75,0.13,3.49,0.4,5.22c0.27,1.73,0.71,3.31,1.34,4.74c0.63,1.43,1.49,2.58,2.59,3.44
			C635.08,824.95,636.45,825.38,638.1,825.38z"/>
		<path d="M663.41,829.64v-3.01l4.16-1.76c0.36-0.19,0.66-0.38,0.9-0.58c0.23-0.19,0.35-0.5,0.35-0.93v-22.62
			c0-0.45-0.13-0.77-0.38-0.98c-0.26-0.2-0.54-0.38-0.86-0.53l-4.1-1.76v-3.1l15.39-1.66v5.66h0.51c1.41-1.79,2.81-3.11,4.19-3.95
			c1.39-0.84,2.75-1.39,4.1-1.63c1.34-0.24,2.65-0.37,3.9-0.37c2.22,0,4.23,0.42,6.05,1.25c1.81,0.83,3.26,2.14,4.34,3.92
			c1.08,1.78,1.62,4.09,1.62,6.93v18.69c0,0.51,0.11,0.87,0.34,1.07c0.22,0.2,0.53,0.4,0.91,0.59l3.65,1.76v3.01h-20.35v-3.01
			l3.26-1.76c0.38-0.21,0.7-0.42,0.96-0.61c0.26-0.19,0.38-0.54,0.38-1.06v-14.4c0-2-0.15-3.7-0.46-5.09
			c-0.31-1.39-0.91-2.44-1.79-3.17c-0.89-0.73-2.21-1.09-3.98-1.09c-1.17,0-2.41,0.17-3.71,0.5s-2.37,1.12-3.2,2.38v21.02
			c0,0.43,0.12,0.73,0.35,0.9c0.23,0.17,0.54,0.37,0.93,0.61l3.04,1.76v3.01H663.41z"/>
		<path d="M741.42,793.38v5.73h-12.8v19.42c0,1.04,0.38,1.96,1.14,2.75s1.65,1.4,2.67,1.84c1.02,0.44,1.91,0.66,2.66,0.66
			c0.68,0,1.57-0.03,2.66-0.1c1.09-0.06,1.9-0.14,2.43-0.22h1.57v3.3c-0.53,0.3-1.42,0.73-2.67,1.28s-2.69,1.06-4.34,1.5
			c-1.64,0.45-3.33,0.67-5.06,0.67c-2.09,0-4.04-0.3-5.84-0.91s-3.25-1.47-4.35-2.59s-1.65-2.44-1.65-3.95v-23.65h-5.86v-5.09
			c1.3-0.17,2.43-0.36,3.38-0.56s1.7-0.62,2.26-1.26c0.55-0.64,0.87-1.7,0.96-3.17l0.32-5.09l9.73-1.38v10.82H741.42z"/>
		<path d="M756.97,830.31c-2.26,0-4.2-0.51-5.81-1.52c-1.61-1.01-2.84-2.32-3.7-3.92c-0.85-1.6-1.28-3.29-1.28-5.06
			c0-2.3,0.55-4.28,1.66-5.94c1.11-1.65,2.54-3,4.29-4.03c1.75-1.03,3.62-1.8,5.6-2.29c1.98-0.49,3.84-0.74,5.57-0.74
			c0.34,0,0.93,0.04,1.78,0.11c0.84,0.08,1.69,0.16,2.54,0.26c0.85,0.1,1.43,0.17,1.73,0.21v-2.72c0-2.35-0.4-4.14-1.2-5.38
			c-0.8-1.24-2.22-1.86-4.27-1.86c-0.92,0-1.96,0.26-3.12,0.78c-1.16,0.52-2.34,1.16-3.52,1.9c-1.18,0.75-2.28,1.48-3.3,2.21
			s-1.84,1.28-2.48,1.66h-2.5v-8.74c1.62-0.47,3.22-0.93,4.78-1.38s3.27-0.82,5.12-1.1c1.84-0.29,3.98-0.43,6.42-0.43
			c2.54,0,4.94,0.31,7.2,0.93c2.26,0.62,4.11,1.77,5.54,3.44s2.14,4.1,2.14,7.28v17.5c0,0.88,0.27,1.58,0.82,2.13
			s1.14,0.82,1.78,0.82c0.49,0,1.02-0.05,1.6-0.14c0.58-0.1,1.12-0.21,1.63-0.34h1.25v3.42c-0.6,0.38-1.42,0.81-2.46,1.26
			c-1.05,0.46-2.13,0.85-3.26,1.17c-1.13,0.32-2.16,0.48-3.07,0.48c-2.84,0-4.94-0.5-6.3-1.5c-1.37-1-2.05-2.55-2.05-4.64h-0.51
			c-1.17,1.77-2.5,3.1-3.97,3.98c-1.47,0.89-2.96,1.47-4.46,1.74S758.25,830.31,756.97,830.31z M762.67,823.94
			c1.09,0,2.28-0.26,3.57-0.77c1.29-0.51,2.33-1.38,3.12-2.59v-8.8c-2.37,0-4.45,0.19-6.26,0.58c-1.8,0.38-3.21,1.06-4.21,2.03
			c-1,0.97-1.5,2.34-1.5,4.11c0,1.43,0.28,2.54,0.85,3.33c0.56,0.79,1.26,1.34,2.08,1.65C761.14,823.79,761.92,823.94,762.67,823.94
			z"/>
		<path d="M821.32,820.23h1.79v4.67c-1.83,1.34-3.93,2.61-6.29,3.79c-2.36,1.18-5.19,1.78-8.5,1.78c-3.75,0-6.98-0.79-9.66-2.37
			c-2.69-1.58-4.74-3.76-6.16-6.56c-1.42-2.79-2.13-6.02-2.13-9.66c0-2.92,0.59-5.57,1.76-7.95c1.17-2.38,2.75-4.43,4.72-6.14
			c1.97-1.72,4.17-3.04,6.59-3.97c2.42-0.93,4.87-1.39,7.34-1.39c1.88,0,3.53,0.17,4.94,0.51c1.42,0.34,2.63,0.73,3.63,1.17
			c1,0.44,1.8,0.78,2.4,1.04v9.12h-2.5c-1.15-0.75-2.44-1.58-3.87-2.5c-1.43-0.92-2.9-1.71-4.4-2.38c-1.5-0.67-2.97-1.01-4.4-1.01
			c-0.51,0-0.98,0.11-1.39,0.32c-0.42,0.21-0.81,0.57-1.17,1.06c-0.36,0.49-0.74,1.24-1.14,2.26c-0.4,1.01-0.73,2.25-0.99,3.71
			c-0.27,1.46-0.4,3.12-0.4,4.98c0,4.03,0.94,7.13,2.82,9.28c1.88,2.16,4.56,3.23,8.06,3.23c1.11,0,2.2-0.14,3.26-0.42
			c1.07-0.28,2.08-0.64,3.04-1.09C819.66,821.26,820.54,820.77,821.32,820.23z"/>
		<path d="M855.63,793.38v5.73h-12.8v19.42c0,1.04,0.38,1.96,1.14,2.75s1.65,1.4,2.67,1.84c1.02,0.44,1.91,0.66,2.66,0.66
			c0.68,0,1.57-0.03,2.66-0.1c1.09-0.06,1.9-0.14,2.43-0.22h1.57v3.3c-0.53,0.3-1.42,0.73-2.67,1.28s-2.69,1.06-4.34,1.5
			c-1.64,0.45-3.33,0.67-5.06,0.67c-2.09,0-4.04-0.3-5.84-0.91s-3.25-1.47-4.35-2.59s-1.65-2.44-1.65-3.95v-23.65h-5.86v-5.09
			c1.3-0.17,2.43-0.36,3.38-0.56s1.7-0.62,2.26-1.26c0.55-0.64,0.87-1.7,0.96-3.17l0.32-5.09l9.73-1.38v10.82H855.63z"/>
		<path d="M908.2,830.79c-4.4,0-8.07-0.69-11.02-2.06c-2.96-1.38-5.17-3.22-6.66-5.54c-1.48-2.31-2.22-4.89-2.22-7.73v-26.66
			c0-0.45-0.12-0.76-0.37-0.94c-0.25-0.18-0.54-0.35-0.88-0.5l-5.18-2.18v-3.04h24.19v3.04l-5.28,2.18
			c-0.26,0.11-0.51,0.26-0.77,0.46s-0.38,0.53-0.38,0.98v23.52c0,1.3,0.13,2.63,0.4,4c0.27,1.37,0.77,2.62,1.5,3.78
			s1.8,2.08,3.2,2.78s3.23,1.06,5.49,1.06c2.24,0,4.08-0.35,5.54-1.06c1.45-0.7,2.6-1.64,3.44-2.8c0.84-1.16,1.43-2.44,1.78-3.84
			c0.34-1.4,0.51-2.78,0.51-4.14V789c0-0.45-0.11-0.76-0.34-0.93c-0.22-0.17-0.49-0.33-0.78-0.48l-5.25-2.4v-3.04h19.46v3.04
			l-5.25,2.4c-0.32,0.15-0.59,0.31-0.82,0.48c-0.22,0.17-0.34,0.48-0.34,0.93v25.02c0,3.03-0.66,5.61-1.97,7.73s-3,3.85-5.06,5.18
			c-2.06,1.33-4.24,2.31-6.54,2.93C912.3,830.48,910.17,830.79,908.2,830.79z"/>
		<path d="M941.35,828.07v-9.89h5.54l0.96,2.94c0.11,0.34,0.28,0.67,0.53,0.98c0.25,0.31,0.48,0.55,0.72,0.72
			c0.9,0.66,2.05,1.28,3.46,1.84c1.41,0.57,3.04,0.85,4.9,0.85c1.11,0,2.11-0.19,3.01-0.58s1.62-0.92,2.16-1.6
			c0.54-0.68,0.82-1.48,0.82-2.4c0-1.3-0.44-2.28-1.33-2.94c-0.89-0.66-2.25-1.25-4.08-1.76c-1.05-0.3-2.2-0.6-3.47-0.91
			c-1.27-0.31-2.41-0.6-3.41-0.88c-3.16-0.87-5.49-2.2-7.01-3.97c-1.52-1.77-2.27-3.76-2.27-5.98c0-2.5,0.8-4.65,2.42-6.46
			c1.61-1.81,3.73-3.21,6.37-4.19c2.63-0.98,5.49-1.47,8.56-1.47c2.75,0,5.17,0.16,7.25,0.48s3.96,0.71,5.65,1.18v10.02h-5.5
			l-0.96-3.2c-0.13-0.3-0.32-0.58-0.58-0.83s-0.5-0.46-0.74-0.61c-0.72-0.49-1.72-0.95-2.98-1.38c-1.26-0.43-2.58-0.64-3.97-0.64
			c-1.62,0-2.87,0.37-3.74,1.1c-0.88,0.74-1.31,1.64-1.31,2.7c0,1.24,0.52,2.27,1.55,3.1s2.52,1.51,4.46,2.05
			c1.11,0.3,2.26,0.6,3.46,0.91c1.19,0.31,2.28,0.61,3.26,0.91c2.99,0.9,5.22,2.17,6.7,3.82c1.48,1.65,2.22,3.7,2.22,6.13
			c0,2.88-0.84,5.24-2.53,7.07c-1.69,1.83-3.87,3.18-6.56,4.05c-2.69,0.86-5.55,1.3-8.58,1.3c-2.9,0-5.69-0.27-8.37-0.82
			S943.08,828.63,941.35,828.07z"/>
		<path d="M1030.15,793.38v5.73h-12.8v19.42c0,1.04,0.38,1.96,1.14,2.75s1.65,1.4,2.67,1.84c1.02,0.44,1.91,0.66,2.66,0.66
			c0.68,0,1.57-0.03,2.66-0.1c1.09-0.06,1.9-0.14,2.43-0.22h1.57v3.3c-0.53,0.3-1.42,0.73-2.67,1.28s-2.69,1.06-4.34,1.5
			c-1.64,0.45-3.33,0.67-5.05,0.67c-2.09,0-4.04-0.3-5.84-0.91s-3.25-1.47-4.35-2.59c-1.1-1.12-1.65-2.44-1.65-3.95v-23.65h-5.86
			v-5.09c1.3-0.17,2.43-0.36,3.38-0.56s1.7-0.62,2.26-1.26c0.55-0.64,0.87-1.7,0.96-3.17l0.32-5.09l9.73-1.38v10.82H1030.15z"/>
		<path d="M1054.15,830.54c-3.88,0-7.3-0.74-10.24-2.21c-2.94-1.47-5.24-3.63-6.88-6.46c-1.64-2.84-2.46-6.29-2.46-10.37
			c0-3.75,0.82-7.07,2.45-9.95c1.63-2.88,3.94-5.13,6.93-6.75c2.99-1.62,6.52-2.43,10.59-2.43c4.42,0,8.07,0.85,10.96,2.56
			s5.05,4,6.48,6.88c1.43,2.88,2.14,6.07,2.14,9.57c0,3.71-0.81,7.01-2.43,9.9c-1.62,2.89-3.93,5.16-6.91,6.8
			C1061.79,829.71,1058.25,830.54,1054.15,830.54z M1054.6,825.38c1.56,0,2.85-0.39,3.87-1.17c1.02-0.78,1.83-1.82,2.43-3.12
			c0.6-1.3,1.02-2.74,1.26-4.3c0.25-1.57,0.37-3.15,0.37-4.75c0-2.58-0.27-4.97-0.82-7.17c-0.54-2.2-1.44-3.97-2.67-5.33
			c-1.24-1.35-2.89-2.03-4.96-2.03c-1.56,0-2.85,0.38-3.87,1.15c-1.02,0.77-1.84,1.79-2.43,3.07c-0.6,1.28-1.02,2.7-1.26,4.26
			c-0.25,1.56-0.37,3.13-0.37,4.7c0,1.75,0.13,3.49,0.4,5.22c0.27,1.73,0.71,3.31,1.34,4.74c0.63,1.43,1.49,2.58,2.59,3.44
			C1051.59,824.95,1052.96,825.38,1054.6,825.38z"/>
		<path d="M1103.11,829.64v-3.04l5.28-2.18c0.36-0.15,0.65-0.33,0.85-0.54s0.3-0.55,0.3-1.02v-34.05c0-0.45-0.11-0.77-0.34-0.96
			c-0.22-0.19-0.5-0.35-0.82-0.48l-5.28-2.18v-3.04h24.19v3.04l-5.25,2.18c-0.32,0.13-0.6,0.29-0.85,0.48s-0.37,0.51-0.37,0.96
			v17.79l17.86-19.42l-2.91-1.98v-3.04h17.89v3.04l-5.6,1.76c-0.45,0.15-0.89,0.34-1.31,0.58c-0.43,0.24-0.85,0.57-1.28,0.99
			l-12.93,13.41l15.87,21.15c0.23,0.28,0.56,0.63,0.99,1.07c0.43,0.44,0.8,0.72,1.12,0.85l4.86,1.76v2.88h-20.96v-2.88l1.95-1.7
			l-12.29-16.45l-3.26,1.31v12.93c0,0.47,0.12,0.82,0.37,1.04c0.25,0.22,0.53,0.4,0.85,0.53l5.25,2.18v3.04H1103.11z"/>
		<path d="M1157.61,829.64v-3.01l4.16-1.76c0.36-0.19,0.66-0.38,0.9-0.58c0.23-0.19,0.35-0.5,0.35-0.93v-22.62
			c0-0.45-0.13-0.77-0.38-0.98c-0.26-0.2-0.54-0.38-0.86-0.53l-4.1-1.76v-3.1l15.39-1.66v5.66h0.51c1.41-1.79,2.81-3.11,4.19-3.95
			c1.39-0.84,2.75-1.39,4.1-1.63c1.34-0.24,2.64-0.37,3.9-0.37c2.22,0,4.23,0.42,6.05,1.25c1.81,0.83,3.26,2.14,4.34,3.92
			c1.08,1.78,1.62,4.09,1.62,6.93v18.69c0,0.51,0.11,0.87,0.34,1.07c0.22,0.2,0.53,0.4,0.91,0.59l3.65,1.76v3.01h-20.35v-3.01
			l3.26-1.76c0.38-0.21,0.71-0.42,0.96-0.61s0.38-0.54,0.38-1.06v-14.4c0-2-0.16-3.7-0.46-5.09c-0.31-1.39-0.91-2.44-1.79-3.17
			c-0.89-0.73-2.21-1.09-3.98-1.09c-1.17,0-2.41,0.17-3.71,0.5s-2.37,1.12-3.2,2.38v21.02c0,0.43,0.12,0.73,0.35,0.9
			c0.23,0.17,0.54,0.37,0.93,0.61l3.04,1.76v3.01H1157.61z"/>
		<path d="M1227.43,830.54c-3.88,0-7.29-0.74-10.24-2.21c-2.94-1.47-5.24-3.63-6.88-6.46c-1.64-2.84-2.46-6.29-2.46-10.37
			c0-3.75,0.82-7.07,2.45-9.95s3.94-5.13,6.93-6.75c2.99-1.62,6.52-2.43,10.59-2.43c4.42,0,8.07,0.85,10.96,2.56
			c2.89,1.71,5.05,4,6.48,6.88s2.14,6.07,2.14,9.57c0,3.71-0.81,7.01-2.43,9.9c-1.62,2.89-3.93,5.16-6.91,6.8
			C1235.07,829.71,1231.53,830.54,1227.43,830.54z M1227.88,825.38c1.56,0,2.85-0.39,3.87-1.17c1.02-0.78,1.83-1.82,2.43-3.12
			c0.6-1.3,1.02-2.74,1.26-4.3c0.25-1.57,0.37-3.15,0.37-4.75c0-2.58-0.27-4.97-0.82-7.17s-1.44-3.97-2.67-5.33
			c-1.24-1.35-2.89-2.03-4.96-2.03c-1.56,0-2.85,0.38-3.87,1.15c-1.02,0.77-1.83,1.79-2.43,3.07c-0.6,1.28-1.02,2.7-1.26,4.26
			c-0.25,1.56-0.37,3.13-0.37,4.7c0,1.75,0.13,3.49,0.4,5.22c0.27,1.73,0.71,3.31,1.34,4.74c0.63,1.43,1.49,2.58,2.59,3.44
			C1224.87,824.95,1226.24,825.38,1227.88,825.38z"/>
		<path d="M1267.17,829.96l-11.39-30.72c-0.13-0.36-0.32-0.68-0.58-0.94c-0.26-0.27-0.58-0.48-0.96-0.66l-2.75-1.31v-2.94h19.68
			v2.94l-4.93,1.76l5.5,15.68l1.31,5.44h0.7l6.05-18.43l3.04-7.39h6.3l7.42,20.19l1.5,5.63h0.74l6.4-19.9l-4.58-2.98v-2.94h14.98
			v2.94l-2.91,2.27c-0.32,0.24-0.64,0.49-0.96,0.77c-0.32,0.28-0.53,0.59-0.64,0.93l-7.62,22.27l-3.52,7.39h-7.62l-6.98-18.18
			l-1.15-5.15h-0.58l-5.25,15.94l-3.42,7.39H1267.17z"/>
		<path d="M1342.31,829.64v-3.04l5.28-2.43c0.32-0.15,0.59-0.32,0.82-0.51c0.22-0.19,0.34-0.52,0.34-0.99v-33.86
			c0-0.45-0.11-0.77-0.32-0.96s-0.49-0.35-0.83-0.48l-5.28-2.18v-3.04h22.14l9.28,27.1l1.41,5.41h0.7l10.78-32.51h21.79v3.04
			l-5.22,2.18c-0.32,0.13-0.61,0.29-0.86,0.48s-0.38,0.51-0.38,0.96v34.05c0,0.47,0.12,0.82,0.37,1.04c0.25,0.22,0.54,0.4,0.88,0.53
			l5.22,2.18v3.04h-24.03v-3.04l5.18-2.18c0.36-0.15,0.66-0.33,0.9-0.54c0.23-0.21,0.35-0.55,0.35-1.02v-32.45h-0.77l-1.5,4.8
			l-9.44,27.23l-3.01,7.2h-6.75l-11.81-34.43l-1.41-4.8h-0.74v32.26c0,0.47,0.11,0.8,0.34,0.99c0.22,0.19,0.48,0.36,0.78,0.51
			l5.22,2.43v3.04H1342.31z"/>
		<path d="M1434.76,830.54c-3.88,0-7.3-0.74-10.24-2.21c-2.94-1.47-5.24-3.63-6.88-6.46c-1.64-2.84-2.46-6.29-2.46-10.37
			c0-3.75,0.82-7.07,2.45-9.95c1.63-2.88,3.94-5.13,6.93-6.75c2.99-1.62,6.52-2.43,10.59-2.43c4.42,0,8.07,0.85,10.96,2.56
			s5.05,4,6.48,6.88c1.43,2.88,2.14,6.07,2.14,9.57c0,3.71-0.81,7.01-2.43,9.9c-1.62,2.89-3.93,5.16-6.91,6.8
			S1438.85,830.54,1434.76,830.54z M1435.2,825.38c1.56,0,2.85-0.39,3.87-1.17c1.02-0.78,1.83-1.82,2.43-3.12
			c0.6-1.3,1.02-2.74,1.26-4.3c0.25-1.57,0.37-3.15,0.37-4.75c0-2.58-0.27-4.97-0.82-7.17s-1.43-3.97-2.67-5.33
			s-2.89-2.03-4.96-2.03c-1.56,0-2.85,0.38-3.87,1.15c-1.02,0.77-1.83,1.79-2.43,3.07c-0.6,1.28-1.02,2.7-1.26,4.26
			c-0.25,1.56-0.37,3.13-0.37,4.7c0,1.75,0.13,3.49,0.4,5.22c0.27,1.73,0.71,3.31,1.34,4.74c0.63,1.43,1.49,2.58,2.59,3.44
			C1432.19,824.95,1433.56,825.38,1435.2,825.38z"/>
		<path d="M1460.74,829.64v-3.01l4.13-1.76c0.36-0.17,0.66-0.36,0.9-0.56c0.24-0.2,0.35-0.52,0.35-0.94v-21.02c0-1-0.06-1.67-0.18-2
			c-0.12-0.33-0.42-0.6-0.91-0.82l-4.61-2.05v-3.1l15.94-1.66v7.46h0.42c1.41-2.24,2.76-3.92,4.06-5.02
			c1.3-1.11,2.56-1.84,3.78-2.19c1.22-0.35,2.38-0.53,3.49-0.53c1.04,0,2.1,0.13,3.17,0.38c1.07,0.26,2.08,0.74,3.04,1.44v11.23
			h-7.94l-0.96-2.4c-0.15-0.36-0.49-0.78-1.01-1.26c-0.52-0.48-1.15-0.72-1.87-0.72c-0.68,0-1.33,0.09-1.94,0.27
			c-0.61,0.18-1.21,0.5-1.81,0.94c-0.6,0.45-1.24,1.06-1.92,1.82v19.23c0,0.73,0.42,1.23,1.25,1.5l5.6,1.76v3.01H1460.74z"/>
		<path d="M1517.92,830.47c-3.63,0-6.88-0.72-9.76-2.16c-2.88-1.44-5.16-3.56-6.83-6.35c-1.67-2.79-2.51-6.2-2.51-10.21
			c0-3.69,0.8-7,2.4-9.92s3.83-5.23,6.7-6.93c2.87-1.7,6.2-2.54,10-2.54c3.6,0,6.68,0.66,9.23,1.97c2.55,1.31,4.5,3.06,5.86,5.23
			s2.03,4.58,2.03,7.2c0,0.3-0.02,0.82-0.06,1.57c-0.04,0.75-0.08,1.48-0.13,2.21c-0.04,0.72-0.08,1.23-0.13,1.5h-25.41v-5.31h14.72
			c0-1.98-0.22-3.67-0.67-5.06c-0.45-1.39-1.16-2.45-2.14-3.18c-0.98-0.74-2.29-1.1-3.94-1.1c-1.13,0-2.16,0.23-3.09,0.69
			c-0.93,0.46-1.73,1.18-2.42,2.18c-0.68,0.99-1.21,2.26-1.58,3.81s-0.56,3.41-0.56,5.58c0,2.77,0.36,5.17,1.07,7.2
			c0.71,2.03,1.97,3.59,3.78,4.7s4.35,1.66,7.63,1.66c1.66,0,3.18-0.14,4.54-0.43c1.36-0.29,2.59-0.64,3.68-1.07
			s2.03-0.83,2.82-1.22h1.79v4.35c-1.94,1.34-4.41,2.62-7.41,3.82C1524.54,829.87,1521.33,830.47,1517.92,830.47z"/>
	</g>
</g>
</svg>
