<?xml version="1.0" encoding="utf-8"?>
<!-- Generator: Adobe Illustrator 27.8.1, SVG Export Plug-In . SVG Version: 6.00 Build 0)  -->
<svg version="1.1" id="Layer_1" xmlns="http://www.w3.org/2000/svg" xmlns:xlink="http://www.w3.org/1999/xlink" x="0px" y="0px"
	 viewBox="0 0 1920 1080" style="enable-background:new 0 0 1920 1080;" xml:space="preserve">
<style type="text/css">
	.st0{opacity:0.6;fill:#D2E4FF;}
	.st1{fill:#2E3552;}
	.st2{fill:#FFFFFF;}
	.st3{fill:#00D5FF;}
	.st4{fill:#87EBFF;}
	.st5{fill:#000615;}
	.st6{fill:#FFAE9D;}
	.st7{fill:#2743AB;}
	.st8{fill:none;}
	.st9{fill:#0541AF;}
</style>
<g>
	<path class="st0" d="M94.64,1061.68c-38.12-91.51-67.5-198.04-64.65-300.44c3.39-121.59,53.84-230.57,125.94-315.68
		c65.28-77.06,146.14-135.8,238.94-146.69c48.39-5.68,96.64,1.74,144.06,13.22c40.09,9.71,91.17,32.68,130.48,9.79
		c40.02-23.31,68.24-75.04,97.88-112.95c29.5-37.76,61.72-72.38,97.95-100.7c79.91-62.47,173.6-90.7,267.65-102.33
		c155.12-19.17,316.53,4.59,439.93,126.18c60.9,60.01,108.92,144.49,100.73,242.86c-4.27,51.29-22.18,98.76-20.94,151.16
		c0.77,32.4,8.88,62.99,25.38,88.85c16.56,25.95,38.6,46.22,59.68,66.6c30.41,29.42,59.87,59.84,84.38,96.53
		c42.73,63.97,81.03,157.58,50.63,238.43c-10.97,29.17-26.61,47.46-26.61,47.46L94.64,1061.68z"/>
	<path class="st1" d="M1927.1,1065.25H14.73c-1.59,0-2.9-1.3-2.9-2.9v-0.18c0-1.59,1.3-2.9,2.9-2.9H1927.1c1.59,0,2.9,1.3,2.9,2.9
		v0.18C1930,1063.94,1928.7,1065.25,1927.1,1065.25z"/>
</g>
<g>
	<g>
		<g>
			<path class="st2" d="M1370.63,1018.66c-14.84-1.47-26.31-13.14-26.31-13.14h-14.05c4.82-19.11,3.96-25.01,3.96-25.01l61.61,15.81
				l-0.8,10.15l0,0c-4.84-0.19-9.33,2.06-11.01,5.64C1382.35,1015.71,1378.66,1019.45,1370.63,1018.66z"/>
		</g>
		<g>
			<path class="st3" d="M1277.28,1032.66c17.09-7.41,46.98-4.07,52.44-24.96c0.2-0.76,0.37-1.47,0.56-2.19h14.05
				c0,0,11.47,11.68,26.31,13.14c8.03,0.79,11.71-2.95,13.4-6.56c1.68-3.58,6.17-5.83,11.01-5.64l0,0l-3.19,40.44h-133.63
				C1258.23,1046.9,1260.19,1040.07,1277.28,1032.66z"/>
		</g>
		<g>
			<g>
				<path class="st4" d="M1368.93,1029.74c7.13-4.38,15.89-6.92,24.86-7.35l-0.21,2.67c-8.15,0.46-16.07,2.81-22.56,6.79
					c-6.3,3.87-11.02,9.16-13.62,15.05h-3.57C1356.55,1040.17,1361.81,1034.11,1368.93,1029.74z"/>
			</g>
			<g>
				<path class="st4" d="M1344.33,1005.51c0,0,0.5,0.5,1.38,1.28c-3.36,13.93-12.16,23.01-26.97,27.64c-3.24,1.02-6.62,1.5-9.96,1.5
					c-7.41,0-14.61-2.42-19.89-6.73c1.25-0.27,2.52-0.53,3.8-0.79c6.7,4.68,16.28,6.2,24.8,3.53c13.92-4.35,22.13-13.01,25.11-26.44
					H1344.33L1344.33,1005.51z"/>
			</g>
		</g>
		<g>
			<polygon class="st2" points="1391.86,1046.9 1391.01,1055 1257.36,1055 1258.23,1046.9 			"/>
		</g>
	</g>
	<g>
		<path class="st2" d="M1630.64,1010.02L1618,990.33l-54.51,9.79l3.67,12.05c0,0,11.47,5.45,35.95,6.48
			C1627.58,1019.69,1630.64,1010.02,1630.64,1010.02z"/>
	</g>
	<g>
		<path class="st3" d="M1621.17,1010.07c0,0-9.87-5.48-22.47-5.07c-12.6,0.41-19.1,7.25-19.1,7.25h-12.44l12.76,34.61h72.9
			l-22.18-36.8H1621.17z"/>
	</g>
	<g>
		<polygon class="st2" points="1652.83,1046.87 1658,1055 1582.55,1055 1579.92,1046.87 		"/>
	</g>
	<g>
		<path class="st4" d="M1650.74,1046.48l-0.45,0.39h-4.32c-9.31-5.76-21.78-8.88-34.15-8.34c-10.44,0.44-20.56,3.48-28.45,8.34
			h-3.45l-0.36-0.98c8.66-5.84,20.17-9.53,32.07-10.03C1625.99,1035.24,1640.59,1039.22,1650.74,1046.48z"/>
	</g>
	<g>
		<path class="st4" d="M1579.6,1012.26c0,0,0.21-0.22,0.62-0.57c2.03,4.94,10.19,21.42,28.47,21.42c0.21,0,0.43,0,0.64-0.01
			c4.98-0.1,8.51-1.38,10.81-3.91c5.04-5.53,2.59-15.44,1.43-19.12h3.5c1.33,4.43,3.46,14.49-2.16,20.67
			c-2.92,3.21-7.46,4.9-13.48,5.03c-0.25,0.01-0.5,0.01-0.74,0.01c-20.75,0-29.7-18.4-31.79-23.52H1579.6z"/>
	</g>
	<g>
		<g>
			<path class="st5" d="M1432.95,501.12c0,0,16.47,17.81,10.13,87.34c-2.7,29.6-20.33,125.49-24.67,185.53l-88.05-4.37l16.25-250.21
				L1432.95,501.12z"/>
		</g>
	</g>
	<polygon class="st5" points="1418.41,773.99 1399.56,998.8 1323.53,998.8 1330.36,769.62 	"/>
	<path class="st5" d="M1330.36,769.62c-1.53,19.13,16.94,35.62,41.25,36.83c24.31,1.21,45.27-13.33,46.8-32.46
		c1.53-19.13-16.94-35.62-41.25-36.83C1352.85,735.95,1331.9,750.49,1330.36,769.62z"/>
	<path class="st5" d="M1330.36,769.62c-1.53,19.13,16.94,35.62,41.25,36.83c24.31,1.21,45.27-13.33,46.8-32.46
		c1.53-19.13-16.94-35.62-41.25-36.83C1352.85,735.95,1331.9,750.49,1330.36,769.62z"/>
	<polygon class="st5" points="1579.14,767.86 1633.9,989 1560.39,1004.28 1492.59,781.33 	"/>
	<path class="st5" d="M1492.59,781.33c4.73,18.81,27.94,31.03,51.84,27.31c23.9-3.72,39.44-21.98,34.71-40.79
		c-4.73-18.81-27.94-31.03-51.84-27.31C1503.4,744.27,1487.86,762.53,1492.59,781.33z"/>
	<g>
		<g>
			<g>
				<path class="st5" d="M1505.14,518.45c0,0,18.46,15.07,34.98,78.79c7.54,29.08,23.71,111.7,39.01,170.62l-86.55,13.48l-80.42-264
					L1505.14,518.45z"/>
			</g>
		</g>
		<path class="st5" d="M1492.59,781.33c4.73,18.81,27.94,31.03,51.84,27.31c23.9-3.72,39.44-21.98,34.71-40.79
			c-4.73-18.81-27.94-31.03-51.84-27.31C1503.4,744.27,1487.86,762.53,1492.59,781.33z"/>
	</g>
	<g>
		<g>
			<polygon class="st6" points="1239.09,359.93 1247.86,244.77 1199.86,240.17 1173.25,353.62 			"/>
			<path class="st6" d="M1202.16,382.68c18.18,1.74,34.72-8.44,36.93-22.75c2.21-14.31-10.73-27.32-28.91-29.06
				c-18.18-1.74-34.72,8.44-36.93,22.75C1171.03,367.93,1183.98,380.94,1202.16,382.68z"/>
			<path class="st6" d="M1220.94,261.35c13.25,1.27,25.31-6.15,26.92-16.58c1.61-10.43-7.82-19.91-21.08-21.18
				c-13.25-1.27-25.31,6.16-26.92,16.58C1198.25,250.6,1207.68,260.08,1220.94,261.35z"/>
		</g>
	</g>
	<g>
		<path class="st6" d="M1173.33,360.45c2.58,14.27,19.36,24.2,37.5,22.17c18.14-2.03,30.75-15.24,28.17-29.51
			c-2.57-14.27-19.36-24.2-37.5-22.17C1183.37,332.97,1170.76,346.18,1173.33,360.45z"/>
		<polygon class="st6" points="1210.83,382.62 1359.14,366.04 1349.81,314.37 1201.51,330.94 		"/>
		<g>
			<polygon class="st7" points="1269.38,391.98 1366.9,376.07 1349.81,314.37 1254.51,325.02 			"/>
			<path class="st7" d="M1321.64,343.88c2.57,14.27,19.36,24.2,37.5,22.17c18.13-2.03,30.75-15.24,28.17-29.51
				c-2.58-14.27-19.36-24.2-37.5-22.17C1331.68,316.39,1319.06,329.61,1321.64,343.88z"/>
		</g>
	</g>
	<g>
		<path class="st8" d="M1515.84,421.37c0,0,0.07,0.05,0.17,0.16l-0.29,0.44C1515.8,421.61,1515.84,421.37,1515.84,421.37z"/>
	</g>
	<path class="st7" d="M1505.14,518.45l17.59-137.66l-12.27-66.68h-155.94c0,0-38.71,59.89-8.54,136.33l0.64,68.97L1505.14,518.45z"
		/>
	<path class="st7" d="M1354.41,366.3c18.32,0.03,33.19-11.64,33.22-26.05c0.03-14.41-14.79-26.12-33.11-26.14
		c-18.32-0.03-33.19,11.64-33.22,26.05C1321.27,354.57,1336.09,366.28,1354.41,366.3z"/>
	<g>
		<polygon class="st6" points="1454.89,257.81 1452.22,312.22 1394.52,312.22 1398.83,290.57 		"/>
	</g>
	<path class="st5" d="M1402.14,295.14c-1.62,0.12-2.99,0.09-4.21-0.01l-1.73,8.71c28.09-1.42,37.06-24.02,37.06-24.02l-0.01,0
		C1427.02,285.29,1409.52,294.59,1402.14,295.14z"/>
	<g>
		<path class="st6" d="M1442.62,264.77c0,0-3.62,9.98-7.95,15.08c-4.17,4.91-29.87,21.32-43.78,14.12
			c-10.65-5.51-12.76-19.51-13.3-29.23c-0.62-11.26-0.84-24.13,1.19-34.33l48.02-7.49l17.71,30.82L1442.62,264.77z"/>
	</g>
	<g>
		<path class="st5" d="M1394.29,253.7c-0.04,2.27-1.67,4.1-3.65,4.08c-1.98-0.02-3.55-1.88-3.52-4.15c0.04-2.27,1.67-4.1,3.65-4.08
			C1392.75,249.57,1394.33,251.43,1394.29,253.7z"/>
	</g>
	<g>
		<path class="st5" d="M1414.95,253.02c-0.04,2.27-1.67,4.1-3.65,4.08s-3.55-1.88-3.52-4.15c0.04-2.27,1.67-4.1,3.65-4.08
			C1413.41,248.89,1414.99,250.75,1414.95,253.02z"/>
	</g>
	<g>
		<path class="st5" d="M1385.01,241.33c-0.4,0-0.78-0.16-1.01-0.44c-0.35-0.44-0.19-1.01,0.37-1.29c3.06-1.53,7.03-1.6,10.33-0.19
			c0.58,0.25,0.79,0.81,0.48,1.27c-0.32,0.45-1.04,0.62-1.61,0.38c-2.55-1.09-5.58-1.03-7.92,0.12
			C1385.45,241.28,1385.23,241.33,1385.01,241.33z"/>
	</g>
	<g>
		<path class="st5" d="M1404.33,241.67c-0.36,0-0.73-0.13-0.96-0.38c-0.38-0.42-0.27-1,0.26-1.31c3.33-1.91,8.11-2.07,11.63-0.38
			c0.56,0.27,0.74,0.84,0.4,1.29c-0.35,0.44-1.07,0.58-1.64,0.31c-2.72-1.31-6.41-1.18-8.99,0.29
			C1404.82,241.61,1404.57,241.67,1404.33,241.67z"/>
	</g>
	<g>
		<path class="st5" d="M1397.24,276.9c-0.39,0-0.79-0.02-1.19-0.05c-0.65-0.05-1.12-0.52-1.05-1.03c0.07-0.51,0.63-0.89,1.31-0.83
			c4.75,0.41,9.61-2.27,11.23-6.2c0.2-0.49,0.87-0.76,1.5-0.6c0.62,0.16,0.97,0.69,0.76,1.18
			C1407.96,273.8,1402.7,276.9,1397.24,276.9z"/>
	</g>
	<g>
		<path class="st5" d="M1396.63,269.5c-0.79,0-1.94-0.11-2.88-0.66c-0.79-0.46-1.29-1.14-1.43-1.98c-0.4-2.32,3.61-14.1,4.42-16.44
			c0.18-0.5,0.84-0.79,1.46-0.66c0.63,0.14,1.01,0.65,0.84,1.15c-1.82,5.27-4.61,14.2-4.36,15.7c0.08,0.44,0.31,0.62,0.48,0.72
			c0.6,0.35,1.66,0.31,2,0.27c0.63-0.08,1.26,0.26,1.36,0.77c0.11,0.51-0.33,0.99-0.97,1.07
			C1397.46,269.46,1397.11,269.5,1396.63,269.5z"/>
	</g>
	<g>
		<path class="st5" d="M1454.87,224.1c0,0,31.99-7.66,2.11,34.43l-3.12,20.26l-10.57-11.61l-7.28-10.49l-4.7,9.63h-2.71l0.74-22.97
			c0,0-10.56-2.78-9.98-13.75c0,0-47.21,10.76-54.43-2.25l8.39-9.31l5.74,2.43c0,0-7.73-6.08-8.39-15.64l11.04,7.65
			c0,0-7.95-7.82,0-17.9l13.97-0.52c0,0,3.39,5.73,15.16,9.9C1424.93,208.96,1462.22,204.61,1454.87,224.1z"/>
	</g>
	<g>
		<path class="st6" d="M1435.22,260c0,5.01,5.16,9.07,11.53,9.07s11.53-4.06,11.53-9.07c0-5.01-5.16-9.07-11.53-9.07
			S1435.22,254.99,1435.22,260z"/>
	</g>
	<g>
		<path class="st2" d="M1418.59,332.41l-12.44-18.18l-14.97,17.19c0,0-4.83-13.66-4.8-17.31l10.64-14.38l9.48,10.38l46.65-16.6
			l3.83,20.59L1418.59,332.41z"/>
	</g>
	<path class="st9" d="M1426.69,206.7c-1.6-0.17-3.16-0.35-4.69-0.54c2.39,5.45,5.56,10.69,10.09,15.18
		c5.99,5.94,13.87,10.77,22.89,13.45c4.45,1.32,9.07,2.05,13.76,2.45c0.77-2.49,1.03-4.52,0.95-6.21
		c-6.59-1.32-12.94-3.35-18.81-6.06C1441.16,220.48,1432.84,214.14,1426.69,206.7z"/>
	<g>
		<g>
			<g>
				<path class="st6" d="M1590.38,408.22c-16.5,6.26-23.42,21.86-15.46,34.84c7.96,12.98,27.78,18.43,44.28,12.17
					c16.5-6.26,23.42-21.86,15.46-34.84C1626.7,407.41,1606.88,401.96,1590.38,408.22z"/>
			</g>
		</g>
		<polygon class="st6" points="1630.54,415.28 1577.93,364.27 1545.3,415.46 1579.04,448.17 		"/>
		<g>
			<polygon class="st7" points="1610.62,370.96 1530.38,319.36 1484.65,356.65 1545.3,415.46 			"/>
			<path class="st7" d="M1531.3,360.47c14.22-9.08,16.4-25.52,4.85-36.71c-11.54-11.19-32.43-12.9-46.65-3.82
				c-14.22,9.08-16.4,25.52-4.85,36.71C1496.19,367.84,1517.08,369.55,1531.3,360.47z"/>
		</g>
	</g>
	<g>
		<g>
			<path class="st6" d="M1247.86,244.77c7.5-11.46,16.58-40.63,13.08-42.43c-3.49-1.8-17.13,21.73-17.13,21.73L1247.86,244.77z"/>
		</g>
		<g>
			<path class="st6" d="M1247.86,244.77c5.59-21.88,3.9-66.68-0.27-68.08c-4.16-1.41-8.09,28.89-8.09,28.89s0.6-28-5.83-29
				c-6.43-0.99-3.82,28.39-3.82,28.39s-7.54-29.89-12.38-28.95c-4.84,0.94,3.52,30,3.52,30s-13.36-23.82-17.34-22.07
				c-3.98,1.75,7.29,21.19,8.6,25.53c1.32,4.34-15.69,9.36-12.41,30.7L1247.86,244.77z"/>
		</g>
		<g>
			<path class="st6" d="M1213.67,259.72c-12.11-4.43-17.36-15.74-11.73-25.27c5.63-9.53,20.01-13.66,32.11-9.23
				c12.11,4.43,17.36,15.74,11.73,25.27C1240.15,260.02,1225.78,264.15,1213.67,259.72z"/>
		</g>
	</g>
	<g>
		<g>
			<polygon class="st6" points="1579.64,414.72 1491.07,506.66 1527.74,531.46 1629.94,448.74 			"/>
			<path class="st6" d="M1626.41,411.94c-13.89-9.39-34.83-8.15-46.77,2.78c-11.94,10.93-10.36,27.41,3.53,36.8
				c13.89,9.39,34.83,8.15,46.77-2.78C1641.88,437.81,1640.3,421.33,1626.41,411.94z"/>
			<path class="st6" d="M1525.16,504.63c-10.13-6.85-25.39-5.94-34.09,2.03c-8.7,7.97-7.55,19.98,2.58,26.83
				c10.13,6.85,25.39,5.94,34.09-2.03C1536.44,523.49,1535.29,511.48,1525.16,504.63z"/>
		</g>
	</g>
	<g>
		<g>
			<path class="st6" d="M1491.07,506.66c-14.32,6.25-42.46,26.54-40.83,29.57c1.64,3.02,29.58-10.58,29.58-10.58L1491.07,506.66z"/>
		</g>
		<g>
			<path class="st6" d="M1491.07,506.66c-20.09,15.75-50.3,53.75-47.83,56.73c2.47,2.99,27.12-20.49,27.12-20.49
				s-20.27,23.02-15.62,26.66c4.65,3.63,23.21-21.94,23.21-21.94s-14.83,28.15-10.14,29.48c4.69,1.33,18.24-26.48,18.24-26.48
				s-5.7,25.64-1.16,25.93c4.54,0.29,8.89-20.8,10.86-24.99c1.97-4.18,19.66-0.93,31.98-20.11L1491.07,506.66z"/>
		</g>
		<g>
			<path class="st6" d="M1530.05,509.16c6.94,8.97,3.33,20.68-8.08,26.14c-11.41,5.46-26.28,2.62-33.22-6.36
				c-6.94-8.97-3.33-20.68,8.08-26.14C1508.24,497.34,1523.11,500.19,1530.05,509.16z"/>
		</g>
	</g>
</g>
<g>
	<g>
		<path d="M183.03,227.04V224l5.28-2.18c0.34-0.13,0.62-0.3,0.83-0.53c0.21-0.22,0.32-0.57,0.32-1.04v-34.05
			c0-0.45-0.11-0.77-0.34-0.96c-0.22-0.19-0.5-0.35-0.82-0.48l-5.28-2.18v-3.04h24.19v3.04l-5.25,2.18
			c-0.34,0.15-0.63,0.31-0.86,0.5c-0.23,0.18-0.35,0.5-0.35,0.94v13.28h19.52v-13.28c0-0.45-0.12-0.77-0.37-0.96
			s-0.53-0.35-0.85-0.48l-5.25-2.18v-3.04h24.26v3.04l-5.25,2.18c-0.32,0.13-0.61,0.29-0.86,0.48c-0.26,0.19-0.38,0.51-0.38,0.96
			v34.05c0,0.47,0.12,0.81,0.37,1.02c0.25,0.21,0.54,0.39,0.88,0.54l5.25,2.18v3.04h-24.26V224l5.25-2.18
			c0.36-0.17,0.66-0.36,0.88-0.56s0.34-0.54,0.34-1.01v-15.01h-19.52v15.01c0,0.47,0.11,0.81,0.32,1.02s0.51,0.39,0.9,0.54
			l5.25,2.18v3.04H183.03z"/>
		<path d="M263.42,227.87c-3.63,0-6.88-0.72-9.76-2.16c-2.88-1.44-5.16-3.56-6.83-6.35c-1.67-2.79-2.51-6.2-2.51-10.21
			c0-3.69,0.8-7,2.4-9.92c1.6-2.92,3.83-5.23,6.7-6.93c2.87-1.7,6.2-2.54,10-2.54c3.6,0,6.68,0.66,9.23,1.97
			c2.55,1.31,4.5,3.06,5.86,5.23c1.35,2.18,2.03,4.58,2.03,7.2c0,0.3-0.02,0.82-0.06,1.57c-0.04,0.75-0.09,1.48-0.13,2.21
			c-0.04,0.73-0.09,1.23-0.13,1.5h-25.41v-5.31h14.72c0-1.98-0.22-3.67-0.67-5.06c-0.45-1.39-1.16-2.45-2.14-3.18
			c-0.98-0.74-2.29-1.1-3.94-1.1c-1.13,0-2.16,0.23-3.09,0.69c-0.93,0.46-1.73,1.18-2.42,2.18c-0.68,0.99-1.21,2.26-1.58,3.81
			c-0.37,1.55-0.56,3.41-0.56,5.58c0,2.77,0.36,5.17,1.07,7.2s1.97,3.59,3.78,4.7c1.8,1.11,4.35,1.66,7.63,1.66
			c1.66,0,3.18-0.14,4.54-0.43c1.37-0.29,2.59-0.65,3.68-1.07c1.09-0.43,2.03-0.83,2.82-1.22h1.79v4.35
			c-1.94,1.34-4.41,2.62-7.41,3.82S266.83,227.87,263.42,227.87z"/>
		<path d="M286.01,242.43v-8.9h2.72c0.51,0.15,1.24,0.31,2.19,0.5c0.95,0.18,1.94,0.36,2.96,0.53c1.02,0.17,1.94,0.3,2.74,0.4
			c0.8,0.1,1.31,0.14,1.52,0.14c0.3,0,0.67-0.02,1.12-0.06c0.45-0.04,0.74-0.13,0.86-0.26c0.32-0.32,0.67-0.74,1.06-1.26
			c0.38-0.52,0.81-1.24,1.26-2.14c0.46-0.91,0.98-2.1,1.55-3.57l-3.94-5.7l-11.49-25.6c-0.17-0.41-0.39-0.71-0.66-0.93
			c-0.27-0.21-0.56-0.39-0.88-0.54l-3.04-1.31v-2.94h20.42v2.94l-4.9,1.76l7.1,15.68l1.6,4.61h0.77l7.68-19.07l-4.7-2.98v-2.94
			h15.23v2.94l-3.04,2.27c-0.3,0.21-0.6,0.45-0.9,0.7c-0.3,0.26-0.51,0.54-0.64,0.86l-14.21,35.1c-1.24,3.03-2.67,5.32-4.3,6.86
			c-1.63,1.55-3.36,2.58-5.18,3.1c-1.82,0.52-3.63,0.78-5.42,0.78c-0.3,0-0.98-0.05-2.03-0.16c-1.06-0.11-2.13-0.24-3.22-0.4
			C287.16,242.7,286.41,242.56,286.01,242.43z"/>
		<path d="M381.14,190.78v5.73h-12.8v19.42c0,1.05,0.38,1.96,1.14,2.75c0.76,0.79,1.65,1.4,2.67,1.84c1.02,0.44,1.91,0.66,2.66,0.66
			c0.68,0,1.57-0.03,2.66-0.1c1.09-0.06,1.9-0.14,2.43-0.22h1.57v3.3c-0.53,0.3-1.42,0.73-2.67,1.28c-1.25,0.56-2.69,1.06-4.34,1.5
			c-1.64,0.45-3.33,0.67-5.06,0.67c-2.09,0-4.04-0.3-5.84-0.91s-3.25-1.47-4.35-2.59c-1.1-1.12-1.65-2.44-1.65-3.95v-23.65h-5.86
			v-5.09c1.3-0.17,2.43-0.36,3.38-0.56s1.7-0.62,2.26-1.26s0.87-1.7,0.96-3.17l0.32-5.09l9.73-1.38v10.82H381.14z"/>
		<path d="M384.6,224.03l4.1-1.76c0.45-0.19,0.77-0.38,0.96-0.58c0.19-0.19,0.29-0.5,0.29-0.93v-37.7c0-0.43-0.12-0.74-0.37-0.94
			c-0.25-0.2-0.54-0.39-0.88-0.56l-4.51-2.4v-3.1h16.54v17.22l-0.35,3.07c1.26-1.9,2.58-3.31,3.97-4.24
			c1.39-0.93,2.78-1.54,4.19-1.84c1.41-0.3,2.75-0.45,4.03-0.45c2.18,0,4.18,0.4,6.02,1.18c1.83,0.79,3.31,2.07,4.43,3.84
			c1.12,1.77,1.68,4.13,1.68,7.07v18.69c0,0.51,0.11,0.87,0.34,1.07c0.22,0.2,0.52,0.4,0.88,0.59l3.78,1.76v3.01h-20.35v-3.01
			l3.26-1.76c0.34-0.19,0.64-0.39,0.9-0.59s0.38-0.56,0.38-1.07v-14.4c0-2.13-0.17-3.89-0.51-5.26c-0.34-1.38-0.98-2.4-1.9-3.07
			c-0.93-0.67-2.27-1.01-4.02-1.01c-1,0-2.18,0.16-3.52,0.48c-1.34,0.32-2.41,1.12-3.2,2.4v21.02c0,0.43,0.11,0.73,0.34,0.9
			c0.22,0.17,0.53,0.37,0.91,0.61l3.04,1.76v3.01H384.6V224.03z"/>
		<path d="M453.75,227.87c-3.63,0-6.88-0.72-9.76-2.16c-2.88-1.44-5.16-3.56-6.83-6.35c-1.67-2.79-2.51-6.2-2.51-10.21
			c0-3.69,0.8-7,2.4-9.92c1.6-2.92,3.83-5.23,6.7-6.93c2.87-1.7,6.2-2.54,10-2.54c3.6,0,6.68,0.66,9.23,1.97
			c2.55,1.31,4.5,3.06,5.86,5.23c1.35,2.18,2.03,4.58,2.03,7.2c0,0.3-0.02,0.82-0.06,1.57c-0.04,0.75-0.09,1.48-0.13,2.21
			c-0.04,0.73-0.09,1.23-0.13,1.5h-25.41v-5.31h14.72c0-1.98-0.22-3.67-0.67-5.06c-0.45-1.39-1.16-2.45-2.14-3.18
			c-0.98-0.74-2.29-1.1-3.94-1.1c-1.13,0-2.16,0.23-3.09,0.69c-0.93,0.46-1.73,1.18-2.42,2.18c-0.68,0.99-1.21,2.26-1.58,3.81
			c-0.37,1.55-0.56,3.41-0.56,5.58c0,2.77,0.36,5.17,1.07,7.2s1.97,3.59,3.78,4.7c1.8,1.11,4.35,1.66,7.63,1.66
			c1.66,0,3.18-0.14,4.54-0.43c1.37-0.29,2.59-0.65,3.68-1.07c1.09-0.43,2.03-0.83,2.82-1.22h1.79v4.35
			c-1.94,1.34-4.41,2.62-7.41,3.82S457.16,227.87,453.75,227.87z"/>
		<path d="M476.56,227.04v-3.01l4.13-1.76c0.36-0.17,0.66-0.36,0.9-0.56c0.23-0.2,0.35-0.52,0.35-0.94v-21.02c0-1-0.06-1.67-0.18-2
			c-0.12-0.33-0.42-0.6-0.91-0.82l-4.61-2.05v-3.1l15.94-1.66v7.46h0.42c1.41-2.24,2.76-3.91,4.06-5.02
			c1.3-1.11,2.56-1.84,3.78-2.19c1.22-0.35,2.38-0.53,3.49-0.53c1.04,0,2.1,0.13,3.17,0.38c1.07,0.26,2.08,0.74,3.04,1.44v11.23
			h-7.94l-0.96-2.4c-0.15-0.36-0.49-0.78-1.01-1.26c-0.52-0.48-1.15-0.72-1.87-0.72c-0.68,0-1.33,0.09-1.94,0.27
			c-0.61,0.18-1.21,0.5-1.81,0.94c-0.6,0.45-1.24,1.06-1.92,1.82v19.23c0,0.73,0.42,1.23,1.25,1.5l5.6,1.76v3.01H476.56z"/>
		<path d="M533.75,227.87c-3.63,0-6.88-0.72-9.76-2.16c-2.88-1.44-5.16-3.56-6.83-6.35c-1.67-2.79-2.51-6.2-2.51-10.21
			c0-3.69,0.8-7,2.4-9.92c1.6-2.92,3.83-5.23,6.7-6.93c2.87-1.7,6.2-2.54,10-2.54c3.6,0,6.68,0.66,9.23,1.97
			c2.55,1.31,4.5,3.06,5.86,5.23c1.35,2.18,2.03,4.58,2.03,7.2c0,0.3-0.02,0.82-0.06,1.57c-0.04,0.75-0.09,1.48-0.13,2.21
			c-0.04,0.73-0.09,1.23-0.13,1.5h-25.41v-5.31h14.72c0-1.98-0.22-3.67-0.67-5.06c-0.45-1.39-1.16-2.45-2.14-3.18
			c-0.98-0.74-2.29-1.1-3.94-1.1c-1.13,0-2.16,0.23-3.09,0.69c-0.93,0.46-1.73,1.18-2.42,2.18c-0.68,0.99-1.21,2.26-1.58,3.81
			c-0.37,1.55-0.56,3.41-0.56,5.58c0,2.77,0.36,5.17,1.07,7.2s1.97,3.59,3.78,4.7c1.8,1.11,4.35,1.66,7.63,1.66
			c1.66,0,3.18-0.14,4.54-0.43c1.37-0.29,2.59-0.65,3.68-1.07c1.09-0.43,2.03-0.83,2.82-1.22h1.79v4.35
			c-1.94,1.34-4.41,2.62-7.41,3.82S537.16,227.87,533.75,227.87z"/>
		<path d="M561.36,240.32l-3.14-3.81c2.05-1.58,3.59-3.25,4.62-5.01c1.03-1.76,1.82-3.26,2.35-4.5c-1.22-0.79-2.24-1.5-3.07-2.14
			c-0.83-0.64-1.47-1.32-1.9-2.03c-0.44-0.71-0.66-1.59-0.66-2.64c0-0.79,0.23-1.63,0.7-2.51c0.47-0.89,1.15-1.64,2.05-2.27
			s1.99-0.94,3.3-0.94c2.73,0,4.69,0.84,5.89,2.51c1.19,1.67,1.79,3.93,1.79,6.77c0,1.79-0.4,3.5-1.18,5.14
			c-0.79,1.63-1.8,3.15-3.02,4.54c-1.23,1.4-2.53,2.68-3.9,3.84C563.81,238.43,562.53,239.44,561.36,240.32z"/>
		<path d="M604.75,227.04V224l5.6-2.18c0.38-0.15,0.67-0.33,0.86-0.54c0.19-0.21,0.29-0.55,0.29-1.02v-34.05
			c0-0.45-0.11-0.77-0.34-0.98c-0.22-0.2-0.5-0.36-0.82-0.46l-5.6-2.18v-3.04h24.86v3.04l-5.6,2.18c-0.34,0.13-0.63,0.29-0.86,0.48
			s-0.35,0.51-0.35,0.96v34.05c0,0.47,0.12,0.82,0.35,1.04c0.23,0.22,0.52,0.4,0.86,0.53l5.6,2.18v3.04H604.75z"/>
		<path d="M639.66,199.71l-2.37-3.55c2.09-1.39,3.58-2.79,4.48-4.21c0.9-1.42,1.58-2.69,2.05-3.82c-1.17-0.79-2.16-1.48-2.96-2.08
			c-0.8-0.6-1.4-1.24-1.81-1.92c-0.41-0.68-0.61-1.52-0.61-2.53c0-0.79,0.23-1.61,0.69-2.46c0.46-0.85,1.13-1.58,2.02-2.18
			c0.88-0.6,1.96-0.9,3.22-0.9c2.56,0,4.44,0.78,5.63,2.34c1.19,1.56,1.79,3.68,1.79,6.37c0,1.75-0.36,3.37-1.09,4.86
			c-0.73,1.49-1.69,2.86-2.88,4.1c-1.19,1.24-2.5,2.35-3.92,3.34C642.49,198.06,641.07,198.94,639.66,199.71z"/>
		<path d="M683.54,227.04v-3.01l3.17-1.76c0.36-0.21,0.67-0.42,0.91-0.61c0.25-0.19,0.37-0.54,0.37-1.06v-14.4
			c0-2-0.15-3.7-0.45-5.09s-0.87-2.44-1.71-3.17c-0.84-0.73-2.1-1.09-3.76-1.09c-1.15,0-2.36,0.16-3.62,0.48
			c-1.26,0.32-2.28,1.12-3.07,2.4v21.02c0,0.43,0.12,0.73,0.37,0.91s0.54,0.38,0.88,0.59l3.01,1.76v3.01h-20.38v-3.01l4.13-1.76
			c0.32-0.17,0.61-0.36,0.86-0.56c0.26-0.2,0.38-0.52,0.38-0.94v-22.62c0-0.45-0.13-0.78-0.4-0.99c-0.27-0.21-0.55-0.38-0.85-0.51
			l-4.13-1.76v-3.1l15.42-1.66v5.66h0.51c2.03-2.6,4.03-4.24,6.02-4.93c1.98-0.68,3.85-1.02,5.6-1.02c1.49,0,2.96,0.22,4.4,0.66
			c1.44,0.44,2.74,1.21,3.89,2.32c1.15,1.11,2.03,2.67,2.62,4.67l0.45,0.93v22.21c0,0.51,0.11,0.86,0.34,1.04
			c0.22,0.18,0.53,0.39,0.91,0.62l2.91,1.76v3.01H683.54z M706.16,227.04v-3.01l3.33-1.76c0.36-0.21,0.67-0.42,0.91-0.61
			c0.25-0.19,0.37-0.54,0.37-1.06v-14.4c0-2-0.15-3.7-0.45-5.09c-0.3-1.39-0.88-2.44-1.74-3.17c-0.86-0.73-2.15-1.09-3.86-1.09
			c-1.09,0-2.3,0.19-3.63,0.56c-1.33,0.37-2.41,1.35-3.22,2.93l-0.96-3.07c1.79-2.35,3.43-4.04,4.91-5.09
			c1.48-1.04,2.87-1.7,4.18-1.97c1.3-0.27,2.56-0.4,3.78-0.4c2.13,0,4.09,0.42,5.87,1.25c1.78,0.83,3.22,2.14,4.3,3.92
			c1.09,1.78,1.63,4.09,1.63,6.93v18.69c0,0.51,0.12,0.87,0.35,1.07c0.23,0.2,0.53,0.4,0.9,0.59l3.68,1.76v3.01H706.16z"/>
		<path d="M754.48,227.04V224l5.28-2.43c0.32-0.15,0.59-0.32,0.82-0.51c0.22-0.19,0.34-0.52,0.34-0.99v-33.86
			c0-0.45-0.11-0.77-0.32-0.96s-0.49-0.35-0.83-0.48l-5.28-2.18v-3.04h22.14l9.28,27.1l1.41,5.41h0.7l10.78-32.51h21.79v3.04
			l-5.22,2.18c-0.32,0.13-0.61,0.29-0.86,0.48c-0.26,0.19-0.38,0.51-0.38,0.96v34.05c0,0.47,0.12,0.82,0.37,1.04
			c0.25,0.22,0.54,0.4,0.88,0.53l5.22,2.18v3.04h-24.03V224l5.18-2.18c0.36-0.15,0.66-0.33,0.9-0.54c0.23-0.21,0.35-0.55,0.35-1.02
			v-32.45h-0.77l-1.5,4.8l-9.44,27.23l-3.01,7.2h-6.75l-11.81-34.43l-1.41-4.8h-0.74v32.26c0,0.47,0.11,0.8,0.34,0.99
			c0.22,0.19,0.49,0.36,0.78,0.51l5.22,2.43v3.04H754.48z"/>
		<path d="M838.48,227.71c-2.26,0-4.2-0.51-5.81-1.52c-1.61-1.01-2.84-2.32-3.7-3.92c-0.85-1.6-1.28-3.29-1.28-5.06
			c0-2.3,0.55-4.28,1.66-5.94c1.11-1.65,2.54-3,4.29-4.03c1.75-1.03,3.62-1.8,5.6-2.29c1.98-0.49,3.84-0.74,5.57-0.74
			c0.34,0,0.93,0.04,1.78,0.11c0.84,0.08,1.69,0.16,2.54,0.26c0.85,0.1,1.43,0.17,1.73,0.21v-2.72c0-2.35-0.4-4.14-1.2-5.38
			c-0.8-1.24-2.22-1.86-4.27-1.86c-0.92,0-1.96,0.26-3.12,0.78c-1.16,0.52-2.34,1.16-3.52,1.9c-1.18,0.75-2.28,1.48-3.3,2.21
			c-1.01,0.73-1.84,1.28-2.48,1.66h-2.5v-8.74c1.62-0.47,3.22-0.93,4.78-1.38c1.57-0.45,3.27-0.82,5.12-1.1
			c1.84-0.29,3.98-0.43,6.42-0.43c2.54,0,4.94,0.31,7.2,0.93c2.26,0.62,4.11,1.77,5.54,3.44c1.43,1.68,2.14,4.1,2.14,7.28v17.5
			c0,0.88,0.27,1.58,0.82,2.13s1.14,0.82,1.78,0.82c0.49,0,1.02-0.05,1.6-0.14c0.58-0.1,1.12-0.21,1.63-0.34h1.25v3.42
			c-0.6,0.38-1.42,0.81-2.46,1.26c-1.05,0.46-2.13,0.85-3.26,1.17c-1.13,0.32-2.16,0.48-3.07,0.48c-2.84,0-4.94-0.5-6.3-1.5
			c-1.37-1-2.05-2.55-2.05-4.64h-0.51c-1.17,1.77-2.5,3.1-3.97,3.98c-1.47,0.89-2.96,1.47-4.46,1.74
			C841.15,227.57,839.76,227.71,838.48,227.71z M844.17,221.34c1.09,0,2.28-0.26,3.57-0.77c1.29-0.51,2.33-1.38,3.12-2.59v-8.8
			c-2.37,0-4.45,0.19-6.26,0.58c-1.8,0.38-3.21,1.06-4.21,2.03c-1,0.97-1.5,2.34-1.5,4.11c0,1.43,0.28,2.54,0.85,3.33
			c0.56,0.79,1.26,1.34,2.08,1.65C842.64,221.19,843.43,221.34,844.17,221.34z"/>
		<path d="M870.64,227.04v-3.01l3.3-1.57c0.34-0.17,0.69-0.42,1.06-0.74s0.68-0.64,0.96-0.96l9.86-11.42l-9.54-12.64
			c-0.28-0.36-0.57-0.69-0.86-0.99c-0.3-0.3-0.64-0.52-1.02-0.67l-3.46-1.31v-2.94h19.2v2.94l-2.72,1.63l4.32,5.5l1.76,3.46h0.45
			l6.91-8.45l-2.02-2.14v-2.94h13.25v2.94l-3.26,1.63c-0.32,0.15-0.64,0.37-0.96,0.67s-0.65,0.63-0.99,0.99l-9.54,10.94l9.86,13.12
			c0.3,0.41,0.61,0.76,0.94,1.06c0.33,0.3,0.67,0.51,1.01,0.64l3.33,1.25v3.01h-19.17v-3.01l2.78-1.57l-4.74-6.05l-1.76-3.46h-0.45
			l-7.2,8.93l2.08,2.14v3.01H870.64z"/>
		<path d="M920.08,221.09c0-1.9,0.66-3.51,1.97-4.83c1.31-1.32,2.93-1.98,4.85-1.98c1.9,0,3.51,0.66,4.85,1.98
			c1.33,1.32,2,2.94,2,4.86s-0.67,3.53-2,4.82c-1.33,1.29-2.95,1.94-4.85,1.94c-1.92,0-3.54-0.65-4.85-1.94
			S920.08,223.03,920.08,221.09z"/>
		<path d="M183.03,399.84v-3.04l5.6-2.18c0.38-0.15,0.67-0.33,0.86-0.54c0.19-0.21,0.29-0.55,0.29-1.02v-34.05
			c0-0.45-0.11-0.77-0.34-0.98c-0.22-0.2-0.5-0.36-0.82-0.46l-5.6-2.18v-3.04h24.86v3.04l-5.6,2.18c-0.34,0.13-0.63,0.29-0.86,0.48
			s-0.35,0.51-0.35,0.96v34.05c0,0.47,0.12,0.82,0.35,1.04c0.23,0.22,0.52,0.4,0.86,0.53l5.6,2.18v3.04H183.03z"/>
		<path d="M250.39,400.16L239,369.44c-0.13-0.36-0.32-0.68-0.58-0.94c-0.26-0.27-0.58-0.48-0.96-0.66l-2.75-1.31v-2.94h19.68v2.94
			l-4.93,1.76l5.5,15.68l1.31,5.44h0.7l6.05-18.43l3.04-7.39h6.3l7.42,20.19l1.5,5.63h0.74l6.4-19.9l-4.58-2.98v-2.94h14.98v2.94
			l-2.91,2.27c-0.32,0.23-0.64,0.49-0.96,0.77c-0.32,0.28-0.53,0.59-0.64,0.93l-7.62,22.27l-3.52,7.39h-7.62l-6.98-18.18l-1.15-5.15
			h-0.58l-5.25,15.94l-3.42,7.39H250.39z"/>
		<path d="M322.33,400.74c-3.88,0-7.3-0.74-10.24-2.21c-2.94-1.47-5.24-3.63-6.88-6.46c-1.64-2.84-2.46-6.29-2.46-10.37
			c0-3.75,0.82-7.07,2.45-9.95c1.63-2.88,3.94-5.13,6.93-6.75c2.99-1.62,6.52-2.43,10.59-2.43c4.42,0,8.07,0.85,10.96,2.56
			c2.89,1.71,5.05,4,6.48,6.88c1.43,2.88,2.14,6.07,2.14,9.57c0,3.71-0.81,7.01-2.43,9.9c-1.62,2.89-3.93,5.16-6.91,6.8
			C329.96,399.91,326.42,400.74,322.33,400.74z M322.77,395.58c1.56,0,2.85-0.39,3.87-1.17c1.02-0.78,1.83-1.82,2.43-3.12
			c0.6-1.3,1.02-2.74,1.26-4.3c0.25-1.57,0.37-3.15,0.37-4.75c0-2.58-0.27-4.97-0.82-7.17c-0.54-2.2-1.44-3.97-2.67-5.33
			c-1.24-1.35-2.89-2.03-4.96-2.03c-1.56,0-2.85,0.38-3.87,1.15s-1.83,1.79-2.43,3.07c-0.6,1.28-1.02,2.7-1.26,4.26
			c-0.25,1.56-0.37,3.13-0.37,4.7c0,1.75,0.13,3.49,0.4,5.22c0.27,1.73,0.71,3.31,1.34,4.74c0.63,1.43,1.49,2.58,2.59,3.44
			C319.76,395.15,321.13,395.58,322.77,395.58z"/>
		<path d="M364.15,400.51c-2.18,0-4.15-0.41-5.94-1.23c-1.78-0.82-3.21-2.12-4.27-3.9c-1.07-1.78-1.6-4.09-1.6-6.93v-17.5
			c0-0.45-0.13-0.78-0.38-0.99c-0.26-0.21-0.53-0.38-0.83-0.51l-4.13-1.76v-3.1l16.16-1.66v21.28c0,1.96,0.14,3.64,0.43,5.04
			c0.29,1.4,0.87,2.46,1.74,3.18c0.87,0.73,2.19,1.09,3.94,1.09c1.86,0,3.32-0.25,4.38-0.74c1.07-0.49,1.9-1.19,2.5-2.11v-19.71
			c0-0.45-0.12-0.77-0.37-0.98c-0.25-0.2-0.55-0.38-0.91-0.53l-4.06-1.76v-3.1l16.13-1.66v29.57c0,0.45,0.12,0.77,0.37,0.98
			s0.54,0.38,0.88,0.53l4.1,1.76v3.1l-15.39,1.63v-5.95h-0.48c-1.41,1.75-3.01,3.18-4.82,4.3
			C369.79,399.95,367.31,400.51,364.15,400.51z"/>
		<path d="M396.18,399.84v-3.01l5.34-1.92c0.41-0.15,0.72-0.33,0.94-0.54c0.22-0.21,0.34-0.53,0.34-0.96v-37.54
			c0-0.43-0.14-0.75-0.42-0.98c-0.28-0.22-0.57-0.4-0.86-0.53l-5.66-2.4v-3.1h17.7v44.54c0,0.43,0.14,0.76,0.42,0.99
			c0.28,0.23,0.56,0.41,0.86,0.51l5.28,1.92v3.01H396.18z"/>
		<path d="M439.44,400.51c-3.01,0-5.6-0.76-7.76-2.29c-2.17-1.52-3.83-3.61-4.99-6.26c-1.16-2.65-1.74-5.64-1.74-8.99
			c0-3.73,0.7-7.14,2.11-10.21c1.41-3.07,3.42-5.53,6.05-7.38c2.62-1.84,5.74-2.77,9.34-2.77c2.15,0,4.03,0.39,5.62,1.17
			c1.59,0.78,2.84,1.7,3.76,2.77l-0.32-2.62v-8.06c0-0.43-0.12-0.75-0.35-0.96c-0.23-0.21-0.52-0.39-0.86-0.54l-5.44-2.4v-3.1h17.41
			v43.62c0,0.43,0.14,0.75,0.42,0.98c0.28,0.22,0.56,0.4,0.86,0.53l4.13,1.76v3.1l-15.46,1.63v-6.11h-0.54
			c-1.32,1.94-2.77,3.34-4.34,4.21c-1.57,0.86-3.06,1.4-4.48,1.62C441.43,400.4,440.3,400.51,439.44,400.51z M444.98,394.08
			c0.64,0,1.38-0.11,2.21-0.34c0.83-0.22,1.64-0.58,2.43-1.07c0.79-0.49,1.42-1.12,1.89-1.89v-20.77c-0.47-0.36-1.11-0.65-1.92-0.85
			c-0.81-0.2-1.63-0.35-2.45-0.45c-0.82-0.1-1.49-0.14-2-0.14c-2.05,0-3.73,0.55-5.04,1.65c-1.31,1.1-2.28,2.57-2.91,4.4
			c-0.63,1.83-0.94,3.86-0.94,6.08c0,2.52,0.3,4.79,0.9,6.82s1.54,3.63,2.82,4.8C441.24,393.49,442.91,394.08,444.98,394.08z"/>
		<path d="M493.81,399.84v-3.01l5.34-1.92c0.41-0.15,0.72-0.33,0.94-0.54c0.22-0.21,0.34-0.53,0.34-0.96v-37.54
			c0-0.43-0.14-0.75-0.42-0.98c-0.28-0.22-0.57-0.4-0.86-0.53l-5.66-2.4v-3.1h17.7v44.54c0,0.43,0.14,0.76,0.42,0.99
			c0.28,0.23,0.56,0.41,0.86,0.51l5.28,1.92v3.01H493.81z"/>
		<path d="M522,399.84v-3.01l5.31-1.92c0.41-0.15,0.73-0.33,0.96-0.54c0.23-0.21,0.35-0.53,0.35-0.96v-21.76
			c0-0.43-0.12-0.75-0.37-0.96c-0.25-0.21-0.55-0.39-0.91-0.54l-5.28-2.08v-3.1l17.34-0.67v29.12c0,0.43,0.13,0.76,0.38,0.99
			c0.26,0.23,0.54,0.41,0.86,0.51l5.31,1.92v3.01H522z M533.36,359.52c-1.09,0-2.16-0.26-3.22-0.78c-1.06-0.52-1.94-1.23-2.64-2.11
			c-0.7-0.89-1.06-1.87-1.06-2.96c0-1.77,0.7-3.11,2.1-4.02s3-1.36,4.82-1.36c2.13,0,3.86,0.41,5.18,1.23s1.98,2.06,1.98,3.73
			c0,1.17-0.34,2.23-1.02,3.18c-0.68,0.95-1.57,1.7-2.67,2.26S534.58,359.52,533.36,359.52z"/>
		<path d="M549.75,399.84v-3.01l4.1-1.76c0.4-0.17,0.72-0.36,0.94-0.56c0.22-0.2,0.34-0.52,0.34-0.94v-37.54
			c0-0.45-0.12-0.79-0.37-1.04c-0.25-0.24-0.54-0.45-0.88-0.62l-4.48-2.4v-3.1h16.51v32.83l12.8-12.77l-3.74-2.4v-2.94h17.02v2.94
			l-4.22,1.89c-0.45,0.19-0.87,0.41-1.26,0.66c-0.39,0.25-0.82,0.56-1.26,0.94l-7.74,6.82l11.36,17.06
			c0.23,0.34,0.57,0.65,1.01,0.91c0.44,0.27,0.82,0.48,1.14,0.62l3.33,1.41v3.01h-18.69v-3.01l1.76-1.57l-7.78-11.71l-3.84,1.34
			v8.67c0,0.43,0.12,0.74,0.35,0.94c0.23,0.2,0.52,0.39,0.86,0.56l3.42,1.76v3.01H549.75z"/>
		<path d="M616.43,400.67c-3.63,0-6.88-0.72-9.76-2.16c-2.88-1.44-5.16-3.56-6.83-6.35c-1.67-2.79-2.51-6.2-2.51-10.21
			c0-3.69,0.8-7,2.4-9.92c1.6-2.92,3.83-5.23,6.7-6.93c2.87-1.7,6.2-2.54,10-2.54c3.6,0,6.68,0.66,9.23,1.97
			c2.55,1.31,4.5,3.06,5.86,5.23c1.35,2.18,2.03,4.58,2.03,7.2c0,0.3-0.02,0.82-0.06,1.57c-0.04,0.75-0.09,1.48-0.13,2.21
			c-0.04,0.73-0.09,1.23-0.13,1.5h-25.41v-5.31h14.72c0-1.98-0.22-3.67-0.67-5.06c-0.45-1.39-1.16-2.45-2.14-3.18
			c-0.98-0.74-2.29-1.1-3.94-1.1c-1.13,0-2.16,0.23-3.09,0.69c-0.93,0.46-1.73,1.18-2.42,2.18c-0.68,0.99-1.21,2.26-1.58,3.81
			c-0.37,1.55-0.56,3.41-0.56,5.58c0,2.77,0.36,5.17,1.07,7.2s1.97,3.59,3.78,4.7c1.8,1.11,4.35,1.66,7.63,1.66
			c1.66,0,3.18-0.14,4.54-0.43c1.37-0.29,2.59-0.65,3.68-1.07c1.09-0.43,2.03-0.83,2.82-1.22h1.79v4.35
			c-1.94,1.34-4.41,2.62-7.41,3.82S619.85,400.67,616.43,400.67z"/>
		<path d="M689.46,363.58v5.73h-12.8v19.42c0,1.05,0.38,1.96,1.14,2.75c0.76,0.79,1.65,1.4,2.67,1.84c1.02,0.44,1.91,0.66,2.66,0.66
			c0.68,0,1.57-0.03,2.66-0.1c1.09-0.06,1.9-0.14,2.43-0.22h1.57v3.3c-0.53,0.3-1.42,0.73-2.67,1.28c-1.25,0.56-2.69,1.06-4.34,1.5
			c-1.64,0.45-3.33,0.67-5.06,0.67c-2.09,0-4.04-0.3-5.84-0.91s-3.25-1.47-4.35-2.59c-1.1-1.12-1.65-2.44-1.65-3.95v-23.65h-5.86
			v-5.09c1.3-0.17,2.43-0.36,3.38-0.56s1.7-0.62,2.26-1.26s0.87-1.7,0.96-3.17l0.32-5.09l9.73-1.38v10.82H689.46z"/>
		<path d="M713.46,400.74c-3.88,0-7.3-0.74-10.24-2.21c-2.94-1.47-5.24-3.63-6.88-6.46c-1.64-2.84-2.46-6.29-2.46-10.37
			c0-3.75,0.82-7.07,2.45-9.95c1.63-2.88,3.94-5.13,6.93-6.75c2.99-1.62,6.52-2.43,10.59-2.43c4.42,0,8.07,0.85,10.96,2.56
			c2.89,1.71,5.05,4,6.48,6.88c1.43,2.88,2.14,6.07,2.14,9.57c0,3.71-0.81,7.01-2.43,9.9c-1.62,2.89-3.93,5.16-6.91,6.8
			C721.09,399.91,717.55,400.74,713.46,400.74z M713.9,395.58c1.56,0,2.85-0.39,3.87-1.17c1.02-0.78,1.83-1.82,2.43-3.12
			c0.6-1.3,1.02-2.74,1.26-4.3c0.25-1.57,0.37-3.15,0.37-4.75c0-2.58-0.27-4.97-0.82-7.17c-0.54-2.2-1.44-3.97-2.67-5.33
			c-1.24-1.35-2.89-2.03-4.96-2.03c-1.56,0-2.85,0.38-3.87,1.15s-1.83,1.79-2.43,3.07c-0.6,1.28-1.02,2.7-1.26,4.26
			c-0.25,1.56-0.37,3.13-0.37,4.7c0,1.75,0.13,3.49,0.4,5.22c0.27,1.73,0.71,3.31,1.34,4.74c0.63,1.43,1.49,2.58,2.59,3.44
			C710.89,395.15,712.26,395.58,713.9,395.58z"/>
		<path d="M761.29,399.84v-3.01l5.31-1.92c0.41-0.15,0.73-0.33,0.96-0.54c0.23-0.21,0.35-0.53,0.35-0.96v-21.76
			c0-0.43-0.12-0.75-0.37-0.96c-0.25-0.21-0.55-0.39-0.91-0.54l-5.28-2.08v-3.1l17.34-0.67v29.12c0,0.43,0.13,0.76,0.38,0.99
			c0.26,0.23,0.54,0.41,0.86,0.51l5.31,1.92v3.01H761.29z M772.65,359.52c-1.09,0-2.16-0.26-3.22-0.78
			c-1.06-0.52-1.94-1.23-2.64-2.11c-0.7-0.89-1.06-1.87-1.06-2.96c0-1.77,0.7-3.11,2.1-4.02s3-1.36,4.82-1.36
			c2.13,0,3.86,0.41,5.18,1.23s1.98,2.06,1.98,3.73c0,1.17-0.34,2.23-1.02,3.18c-0.68,0.95-1.57,1.7-2.67,2.26
			S773.87,359.52,772.65,359.52z"/>
		<path d="M789.61,399.84v-3.01l4.16-1.76c0.36-0.19,0.66-0.38,0.9-0.58c0.23-0.19,0.35-0.5,0.35-0.93v-22.62
			c0-0.45-0.13-0.77-0.38-0.98c-0.26-0.2-0.54-0.38-0.86-0.53l-4.1-1.76v-3.1l15.39-1.66v5.66h0.51c1.41-1.79,2.81-3.11,4.19-3.95
			c1.39-0.84,2.75-1.39,4.1-1.63c1.34-0.24,2.65-0.37,3.9-0.37c2.22,0,4.23,0.42,6.05,1.25c1.81,0.83,3.26,2.14,4.34,3.92
			c1.08,1.78,1.62,4.09,1.62,6.93v18.69c0,0.51,0.11,0.87,0.34,1.07s0.53,0.4,0.91,0.59l3.65,1.76v3.01h-20.35v-3.01l3.26-1.76
			c0.38-0.21,0.7-0.42,0.96-0.61c0.26-0.19,0.38-0.54,0.38-1.06v-14.4c0-2-0.15-3.7-0.46-5.09c-0.31-1.39-0.91-2.44-1.79-3.17
			c-0.89-0.73-2.21-1.09-3.98-1.09c-1.17,0-2.41,0.17-3.71,0.5c-1.3,0.33-2.37,1.13-3.2,2.38v21.02c0,0.43,0.12,0.73,0.35,0.9
			c0.23,0.17,0.54,0.37,0.93,0.61l3.04,1.76v3.01H789.61z"/>
		<path d="M855.15,400.16l-13.12-30.72c-0.17-0.43-0.41-0.77-0.7-1.02c-0.3-0.26-0.58-0.45-0.83-0.58l-2.75-1.31v-2.94h19.97v2.94
			l-4.96,1.76l7.04,15.94l1.44,5.25h0.67l8.06-19.97l-4.51-2.98v-2.94h14.94v2.94l-2.94,2.27c-0.28,0.21-0.58,0.47-0.91,0.77
			c-0.33,0.3-0.56,0.61-0.69,0.93l-9.38,22.27l-3.58,7.39H855.15z"/>
		<path d="M883.72,399.84v-3.01l5.31-1.92c0.41-0.15,0.73-0.33,0.96-0.54c0.23-0.21,0.35-0.53,0.35-0.96v-21.76
			c0-0.43-0.12-0.75-0.37-0.96c-0.25-0.21-0.55-0.39-0.91-0.54l-5.28-2.08v-3.1l17.34-0.67v29.12c0,0.43,0.13,0.76,0.38,0.99
			c0.26,0.23,0.54,0.41,0.86,0.51l5.31,1.92v3.01H883.72z M895.08,359.52c-1.09,0-2.16-0.26-3.22-0.78
			c-1.06-0.52-1.94-1.23-2.64-2.11c-0.7-0.89-1.06-1.87-1.06-2.96c0-1.77,0.7-3.11,2.1-4.02s3-1.36,4.82-1.36
			c2.13,0,3.86,0.41,5.18,1.23s1.98,2.06,1.98,3.73c0,1.17-0.34,2.23-1.02,3.18c-0.68,0.95-1.57,1.7-2.67,2.26
			S896.3,359.52,895.08,359.52z"/>
		<path d="M940.24,363.58v5.73h-12.8v19.42c0,1.05,0.38,1.96,1.14,2.75c0.76,0.79,1.65,1.4,2.67,1.84c1.02,0.44,1.91,0.66,2.66,0.66
			c0.68,0,1.57-0.03,2.66-0.1c1.09-0.06,1.9-0.14,2.43-0.22h1.57v3.3c-0.53,0.3-1.42,0.73-2.67,1.28c-1.25,0.56-2.69,1.06-4.34,1.5
			c-1.64,0.45-3.33,0.67-5.06,0.67c-2.09,0-4.04-0.3-5.84-0.91s-3.25-1.47-4.35-2.59c-1.1-1.12-1.65-2.44-1.65-3.95v-23.65h-5.86
			v-5.09c1.3-0.17,2.43-0.36,3.38-0.56s1.7-0.62,2.26-1.26s0.87-1.7,0.96-3.17l0.32-5.09l9.73-1.38v10.82H940.24z"/>
		<path d="M963.63,400.67c-3.63,0-6.88-0.72-9.76-2.16c-2.88-1.44-5.16-3.56-6.83-6.35c-1.67-2.79-2.51-6.2-2.51-10.21
			c0-3.69,0.8-7,2.4-9.92c1.6-2.92,3.83-5.23,6.7-6.93c2.87-1.7,6.2-2.54,10-2.54c3.6,0,6.68,0.66,9.23,1.97
			c2.55,1.31,4.5,3.06,5.86,5.23c1.35,2.18,2.03,4.58,2.03,7.2c0,0.3-0.02,0.82-0.06,1.57c-0.04,0.75-0.08,1.48-0.13,2.21
			c-0.04,0.73-0.09,1.23-0.13,1.5h-25.41v-5.31h14.72c0-1.98-0.22-3.67-0.67-5.06s-1.16-2.45-2.14-3.18
			c-0.98-0.74-2.29-1.1-3.94-1.1c-1.13,0-2.16,0.23-3.09,0.69c-0.93,0.46-1.73,1.18-2.42,2.18c-0.68,0.99-1.21,2.26-1.58,3.81
			c-0.37,1.55-0.56,3.41-0.56,5.58c0,2.77,0.36,5.17,1.07,7.2s1.97,3.59,3.78,4.7c1.8,1.11,4.35,1.66,7.63,1.66
			c1.66,0,3.18-0.14,4.54-0.43c1.36-0.29,2.59-0.65,3.68-1.07c1.09-0.43,2.03-0.83,2.81-1.22h1.79v4.35
			c-1.94,1.34-4.41,2.62-7.41,3.82S967.04,400.67,963.63,400.67z"/>
		<path d="M182.07,501.63v-8.9h2.72c0.51,0.15,1.24,0.31,2.19,0.5c0.95,0.18,1.94,0.36,2.96,0.53c1.02,0.17,1.94,0.3,2.74,0.4
			c0.8,0.1,1.31,0.14,1.52,0.14c0.3,0,0.67-0.02,1.12-0.06c0.45-0.04,0.74-0.13,0.86-0.26c0.32-0.32,0.67-0.74,1.06-1.26
			c0.38-0.52,0.81-1.24,1.26-2.14c0.46-0.91,0.98-2.1,1.55-3.57l-3.94-5.7l-11.49-25.6c-0.17-0.41-0.39-0.71-0.66-0.93
			c-0.27-0.21-0.56-0.39-0.88-0.54l-3.04-1.31v-2.94h20.42v2.94l-4.9,1.76l7.1,15.68l1.6,4.61h0.77l7.68-19.07l-4.7-2.98v-2.94
			h15.23v2.94l-3.04,2.27c-0.3,0.21-0.6,0.45-0.9,0.7c-0.3,0.26-0.51,0.54-0.64,0.86l-14.21,35.1c-1.24,3.03-2.67,5.32-4.3,6.86
			c-1.63,1.55-3.36,2.58-5.18,3.1c-1.82,0.52-3.63,0.78-5.42,0.78c-0.3,0-0.98-0.05-2.03-0.16c-1.06-0.11-2.13-0.24-3.22-0.4
			C183.22,501.9,182.48,501.76,182.07,501.63z"/>
		<path d="M246.77,487.14c-3.88,0-7.3-0.74-10.24-2.21c-2.94-1.47-5.24-3.63-6.88-6.46c-1.64-2.84-2.46-6.29-2.46-10.37
			c0-3.75,0.82-7.07,2.45-9.95c1.63-2.88,3.94-5.13,6.93-6.75c2.99-1.62,6.52-2.43,10.59-2.43c4.42,0,8.07,0.85,10.96,2.56
			c2.89,1.71,5.05,4,6.48,6.88c1.43,2.88,2.14,6.07,2.14,9.57c0,3.71-0.81,7.01-2.43,9.9c-1.62,2.89-3.93,5.16-6.91,6.8
			C254.41,486.31,250.87,487.14,246.77,487.14z M247.22,481.98c1.56,0,2.85-0.39,3.87-1.17c1.02-0.78,1.83-1.82,2.43-3.12
			c0.6-1.3,1.02-2.74,1.26-4.3c0.25-1.57,0.37-3.15,0.37-4.75c0-2.58-0.27-4.97-0.82-7.17c-0.54-2.2-1.44-3.97-2.67-5.33
			c-1.24-1.35-2.89-2.03-4.96-2.03c-1.56,0-2.85,0.38-3.87,1.15s-1.83,1.79-2.43,3.07c-0.6,1.28-1.02,2.7-1.26,4.26
			c-0.25,1.56-0.37,3.13-0.37,4.7c0,1.75,0.13,3.49,0.4,5.22c0.27,1.73,0.71,3.31,1.34,4.74c0.63,1.43,1.49,2.58,2.59,3.44
			C244.21,481.55,245.58,481.98,247.22,481.98z"/>
		<path d="M288.6,486.91c-2.18,0-4.15-0.41-5.94-1.23c-1.78-0.82-3.21-2.12-4.27-3.9c-1.07-1.78-1.6-4.09-1.6-6.93v-17.5
			c0-0.45-0.13-0.78-0.38-0.99c-0.26-0.21-0.53-0.38-0.83-0.51l-4.13-1.76v-3.1l16.16-1.66v21.28c0,1.96,0.14,3.64,0.43,5.04
			c0.29,1.4,0.87,2.46,1.74,3.18c0.87,0.73,2.19,1.09,3.94,1.09c1.86,0,3.32-0.25,4.38-0.74c1.07-0.49,1.9-1.19,2.5-2.11v-19.71
			c0-0.45-0.12-0.77-0.37-0.98c-0.25-0.2-0.55-0.38-0.91-0.53l-4.06-1.76v-3.1l16.13-1.66v29.57c0,0.45,0.12,0.77,0.37,0.98
			s0.54,0.38,0.88,0.53l4.1,1.76v3.1l-15.39,1.63v-5.95h-0.48c-1.41,1.75-3.01,3.18-4.82,4.3
			C294.23,486.35,291.75,486.91,288.6,486.91z"/>
		<path d="M371.92,449.98v5.73h-12.8v19.42c0,1.05,0.38,1.96,1.14,2.75c0.76,0.79,1.65,1.4,2.67,1.84c1.02,0.44,1.91,0.66,2.66,0.66
			c0.68,0,1.57-0.03,2.66-0.1c1.09-0.06,1.9-0.14,2.43-0.22h1.57v3.3c-0.53,0.3-1.42,0.73-2.67,1.28c-1.25,0.56-2.69,1.06-4.34,1.5
			c-1.64,0.45-3.33,0.67-5.06,0.67c-2.09,0-4.04-0.3-5.84-0.91s-3.25-1.47-4.35-2.59c-1.1-1.12-1.65-2.44-1.65-3.95v-23.65h-5.86
			v-5.09c1.3-0.17,2.43-0.36,3.38-0.56s1.7-0.62,2.26-1.26s0.87-1.7,0.96-3.17l0.32-5.09l9.73-1.38v10.82H371.92z"/>
		<path d="M395.92,487.14c-3.88,0-7.3-0.74-10.24-2.21c-2.94-1.47-5.24-3.63-6.88-6.46c-1.64-2.84-2.46-6.29-2.46-10.37
			c0-3.75,0.82-7.07,2.45-9.95c1.63-2.88,3.94-5.13,6.93-6.75c2.99-1.62,6.52-2.43,10.59-2.43c4.42,0,8.07,0.85,10.96,2.56
			c2.89,1.71,5.05,4,6.48,6.88c1.43,2.88,2.14,6.07,2.14,9.57c0,3.71-0.81,7.01-2.43,9.9c-1.62,2.89-3.93,5.16-6.91,6.8
			C403.56,486.31,400.02,487.14,395.92,487.14z M396.37,481.98c1.56,0,2.85-0.39,3.87-1.17c1.02-0.78,1.83-1.82,2.43-3.12
			c0.6-1.3,1.02-2.74,1.26-4.3c0.25-1.57,0.37-3.15,0.37-4.75c0-2.58-0.27-4.97-0.82-7.17c-0.54-2.2-1.44-3.97-2.67-5.33
			c-1.24-1.35-2.89-2.03-4.96-2.03c-1.56,0-2.85,0.38-3.87,1.15s-1.83,1.79-2.43,3.07c-0.6,1.28-1.02,2.7-1.26,4.26
			c-0.25,1.56-0.37,3.13-0.37,4.7c0,1.75,0.13,3.49,0.4,5.22c0.27,1.73,0.71,3.31,1.34,4.74c0.63,1.43,1.49,2.58,2.59,3.44
			C393.36,481.55,394.73,481.98,396.37,481.98z"/>
		<path d="M444.79,502.62c-0.6,0-1.39-0.04-2.37-0.13c-0.98-0.09-1.97-0.2-2.98-0.34c-1-0.14-1.85-0.26-2.53-0.37v-8.8h2.5
			c0.73,0.28,1.71,0.6,2.94,0.98c1.24,0.37,2.47,0.7,3.71,0.99c1.24,0.29,2.2,0.43,2.88,0.43c0.58,0,1.05-0.07,1.42-0.22
			c0.37-0.15,0.67-0.41,0.88-0.77c0.3-0.47,0.49-1.89,0.58-4.27c0.08-2.38,0.13-5.18,0.13-8.4V458.3c0-0.45-0.11-0.77-0.32-0.98
			c-0.21-0.2-0.52-0.38-0.93-0.53l-6.24-2.34v-3.1l18.27-0.67v31.62c0,4.54-0.82,8.32-2.45,11.33c-1.63,3.01-3.81,5.26-6.53,6.75
			C451.04,501.88,448.05,502.62,444.79,502.62z M456.59,445.92c-1.09,0-2.16-0.26-3.22-0.78c-1.06-0.52-1.94-1.23-2.64-2.11
			s-1.06-1.87-1.06-2.96c0-1.77,0.7-3.11,2.1-4.02c1.4-0.91,3-1.36,4.82-1.36c2.13,0,3.86,0.41,5.18,1.23s1.98,2.06,1.98,3.73
			c0,1.17-0.34,2.23-1.02,3.18c-0.68,0.95-1.57,1.7-2.67,2.26C458.97,445.64,457.81,445.92,456.59,445.92z"/>
		<path d="M492.27,487.14c-3.88,0-7.3-0.74-10.24-2.21c-2.94-1.47-5.24-3.63-6.88-6.46c-1.64-2.84-2.46-6.29-2.46-10.37
			c0-3.75,0.82-7.07,2.45-9.95c1.63-2.88,3.94-5.13,6.93-6.75c2.99-1.62,6.52-2.43,10.59-2.43c4.42,0,8.07,0.85,10.96,2.56
			c2.89,1.71,5.05,4,6.48,6.88c1.43,2.88,2.14,6.07,2.14,9.57c0,3.71-0.81,7.01-2.43,9.9c-1.62,2.89-3.93,5.16-6.91,6.8
			C499.91,486.31,496.37,487.14,492.27,487.14z M492.72,481.98c1.56,0,2.85-0.39,3.87-1.17c1.02-0.78,1.83-1.82,2.43-3.12
			c0.6-1.3,1.02-2.74,1.26-4.3c0.25-1.57,0.37-3.15,0.37-4.75c0-2.58-0.27-4.97-0.82-7.17c-0.54-2.2-1.44-3.97-2.67-5.33
			c-1.24-1.35-2.89-2.03-4.96-2.03c-1.56,0-2.85,0.38-3.87,1.15s-1.83,1.79-2.43,3.07c-0.6,1.28-1.02,2.7-1.26,4.26
			c-0.25,1.56-0.37,3.13-0.37,4.7c0,1.75,0.13,3.49,0.4,5.22c0.27,1.73,0.71,3.31,1.34,4.74c0.63,1.43,1.49,2.58,2.59,3.44
			C489.71,481.55,491.08,481.98,492.72,481.98z"/>
		<path d="M517.87,486.24v-3.01l5.31-1.92c0.41-0.15,0.73-0.33,0.96-0.54c0.23-0.21,0.35-0.53,0.35-0.96v-21.76
			c0-0.43-0.12-0.75-0.37-0.96c-0.25-0.21-0.55-0.39-0.91-0.54l-5.28-2.08v-3.1l17.34-0.67v29.12c0,0.43,0.13,0.76,0.38,0.99
			c0.26,0.23,0.54,0.41,0.86,0.51l5.31,1.92v3.01H517.87z M529.23,445.92c-1.09,0-2.16-0.26-3.22-0.78
			c-1.06-0.52-1.94-1.23-2.64-2.11c-0.7-0.89-1.06-1.87-1.06-2.96c0-1.77,0.7-3.11,2.1-4.02s3-1.36,4.82-1.36
			c2.13,0,3.86,0.41,5.18,1.23s1.98,2.06,1.98,3.73c0,1.17-0.34,2.23-1.02,3.18c-0.68,0.95-1.57,1.7-2.67,2.26
			S530.45,445.92,529.23,445.92z"/>
		<path d="M546.19,486.24v-3.01l4.16-1.76c0.36-0.19,0.66-0.38,0.9-0.58c0.23-0.19,0.35-0.5,0.35-0.93v-22.62
			c0-0.45-0.13-0.77-0.38-0.98c-0.26-0.2-0.54-0.38-0.86-0.53l-4.1-1.76v-3.1l15.39-1.66v5.66h0.51c1.41-1.79,2.81-3.11,4.19-3.95
			c1.39-0.84,2.75-1.39,4.1-1.63c1.34-0.24,2.65-0.37,3.9-0.37c2.22,0,4.23,0.42,6.05,1.25c1.81,0.83,3.26,2.14,4.34,3.92
			c1.08,1.78,1.62,4.09,1.62,6.93v18.69c0,0.51,0.11,0.87,0.34,1.07s0.53,0.4,0.91,0.59l3.65,1.76v3.01H570.9v-3.01l3.26-1.76
			c0.38-0.21,0.7-0.42,0.96-0.61c0.26-0.19,0.38-0.54,0.38-1.06v-14.4c0-2-0.15-3.7-0.46-5.09c-0.31-1.39-0.91-2.44-1.79-3.17
			c-0.89-0.73-2.21-1.09-3.98-1.09c-1.17,0-2.41,0.17-3.71,0.5c-1.3,0.33-2.37,1.13-3.2,2.38v21.02c0,0.43,0.12,0.73,0.35,0.9
			c0.23,0.17,0.54,0.37,0.93,0.61l3.04,1.76v3.01H546.19z"/>
		<path d="M642.57,486.24v-3.01l3.17-1.76c0.36-0.21,0.67-0.42,0.91-0.61c0.25-0.19,0.37-0.54,0.37-1.06v-14.4
			c0-2-0.15-3.7-0.45-5.09s-0.87-2.44-1.71-3.17c-0.84-0.73-2.1-1.09-3.76-1.09c-1.15,0-2.36,0.16-3.62,0.48
			c-1.26,0.32-2.28,1.12-3.07,2.4v21.02c0,0.43,0.12,0.73,0.37,0.91s0.54,0.38,0.88,0.59l3.01,1.76v3.01h-20.38v-3.01l4.13-1.76
			c0.32-0.17,0.61-0.36,0.86-0.56c0.26-0.2,0.38-0.52,0.38-0.94v-22.62c0-0.45-0.13-0.78-0.4-0.99c-0.27-0.21-0.55-0.38-0.85-0.51
			l-4.13-1.76v-3.1l15.42-1.66v5.66h0.51c2.03-2.6,4.03-4.24,6.02-4.93c1.98-0.68,3.85-1.02,5.6-1.02c1.49,0,2.96,0.22,4.4,0.66
			c1.44,0.44,2.74,1.21,3.89,2.32c1.15,1.11,2.03,2.67,2.62,4.67l0.45,0.93v22.21c0,0.51,0.11,0.86,0.34,1.04
			c0.22,0.18,0.53,0.39,0.91,0.62l2.91,1.76v3.01H642.57z M665.2,486.24v-3.01l3.33-1.76c0.36-0.21,0.67-0.42,0.91-0.61
			c0.25-0.19,0.37-0.54,0.37-1.06v-14.4c0-2-0.15-3.7-0.45-5.09c-0.3-1.39-0.88-2.44-1.74-3.17c-0.86-0.73-2.15-1.09-3.86-1.09
			c-1.09,0-2.3,0.19-3.63,0.56c-1.33,0.37-2.41,1.35-3.22,2.93l-0.96-3.07c1.79-2.35,3.43-4.04,4.91-5.09
			c1.48-1.04,2.87-1.7,4.18-1.97c1.3-0.27,2.56-0.4,3.78-0.4c2.13,0,4.09,0.42,5.87,1.25c1.78,0.83,3.22,2.14,4.3,3.92
			c1.09,1.78,1.63,4.09,1.63,6.93v18.69c0,0.51,0.12,0.87,0.35,1.07c0.23,0.2,0.53,0.4,0.9,0.59l3.68,1.76v3.01H665.2z"/>
		<path d="M709.71,487.07c-3.63,0-6.88-0.72-9.76-2.16c-2.88-1.44-5.16-3.56-6.83-6.35c-1.67-2.79-2.51-6.2-2.51-10.21
			c0-3.69,0.8-7,2.4-9.92c1.6-2.92,3.83-5.23,6.7-6.93c2.87-1.7,6.2-2.54,10-2.54c3.6,0,6.68,0.66,9.23,1.97
			c2.55,1.31,4.5,3.06,5.86,5.23c1.35,2.18,2.03,4.58,2.03,7.2c0,0.3-0.02,0.82-0.06,1.57c-0.04,0.75-0.09,1.48-0.13,2.21
			c-0.04,0.73-0.09,1.23-0.13,1.5H701.1v-5.31h14.72c0-1.98-0.22-3.67-0.67-5.06c-0.45-1.39-1.16-2.45-2.14-3.18
			c-0.98-0.74-2.29-1.1-3.94-1.1c-1.13,0-2.16,0.23-3.09,0.69c-0.93,0.46-1.73,1.18-2.42,2.18c-0.68,0.99-1.21,2.26-1.58,3.81
			c-0.37,1.55-0.56,3.41-0.56,5.58c0,2.77,0.36,5.17,1.07,7.2s1.97,3.59,3.78,4.7c1.8,1.11,4.35,1.66,7.63,1.66
			c1.66,0,3.18-0.14,4.54-0.43c1.37-0.29,2.59-0.65,3.68-1.07c1.09-0.43,2.03-0.83,2.82-1.22h1.79v4.35
			c-1.94,1.34-4.41,2.62-7.41,3.82S713.12,487.07,709.71,487.07z"/>
		<path d="M766.09,486.91c-2.26,0-4.2-0.51-5.81-1.52c-1.61-1.01-2.84-2.32-3.7-3.92c-0.85-1.6-1.28-3.29-1.28-5.06
			c0-2.3,0.55-4.28,1.66-5.94c1.11-1.65,2.54-3,4.29-4.03c1.75-1.03,3.62-1.8,5.6-2.29c1.98-0.49,3.84-0.74,5.57-0.74
			c0.34,0,0.93,0.04,1.78,0.11c0.84,0.08,1.69,0.16,2.54,0.26c0.85,0.1,1.43,0.17,1.73,0.21v-2.72c0-2.35-0.4-4.14-1.2-5.38
			c-0.8-1.24-2.22-1.86-4.27-1.86c-0.92,0-1.96,0.26-3.12,0.78c-1.16,0.52-2.34,1.16-3.52,1.9c-1.18,0.75-2.28,1.48-3.3,2.21
			c-1.01,0.73-1.84,1.28-2.48,1.66h-2.5v-8.74c1.62-0.47,3.22-0.93,4.78-1.38c1.57-0.45,3.27-0.82,5.12-1.1
			c1.84-0.29,3.98-0.43,6.42-0.43c2.54,0,4.94,0.31,7.2,0.93c2.26,0.62,4.11,1.77,5.54,3.44c1.43,1.68,2.14,4.1,2.14,7.28v17.5
			c0,0.88,0.27,1.58,0.82,2.13s1.14,0.82,1.78,0.82c0.49,0,1.02-0.05,1.6-0.14c0.58-0.1,1.12-0.21,1.63-0.34h1.25V484
			c-0.6,0.38-1.42,0.81-2.46,1.26c-1.05,0.46-2.13,0.85-3.26,1.17c-1.13,0.32-2.16,0.48-3.07,0.48c-2.84,0-4.94-0.5-6.3-1.5
			c-1.37-1-2.05-2.55-2.05-4.64h-0.51c-1.17,1.77-2.5,3.1-3.97,3.98c-1.47,0.89-2.96,1.47-4.46,1.74
			C768.77,486.77,767.37,486.91,766.09,486.91z M771.79,480.54c1.09,0,2.28-0.26,3.57-0.77c1.29-0.51,2.33-1.38,3.12-2.59v-8.8
			c-2.37,0-4.45,0.19-6.26,0.58c-1.8,0.38-3.21,1.06-4.21,2.03c-1,0.97-1.5,2.34-1.5,4.11c0,1.43,0.28,2.54,0.85,3.33
			c0.56,0.79,1.26,1.34,2.08,1.65C770.26,480.39,771.04,480.54,771.79,480.54z"/>
		<path d="M800.43,484.67v-9.89h5.54l0.96,2.94c0.11,0.34,0.28,0.67,0.53,0.98c0.25,0.31,0.48,0.55,0.72,0.72
			c0.9,0.66,2.05,1.27,3.46,1.84c1.41,0.57,3.04,0.85,4.9,0.85c1.11,0,2.11-0.19,3.01-0.58c0.9-0.38,1.62-0.92,2.16-1.6
			c0.54-0.68,0.82-1.48,0.82-2.4c0-1.3-0.44-2.28-1.33-2.94c-0.89-0.66-2.25-1.25-4.08-1.76c-1.05-0.3-2.2-0.6-3.47-0.91
			c-1.27-0.31-2.41-0.6-3.41-0.88c-3.16-0.87-5.49-2.2-7.01-3.97c-1.52-1.77-2.27-3.77-2.27-5.98c0-2.5,0.8-4.65,2.42-6.46
			c1.61-1.81,3.73-3.21,6.37-4.19c2.63-0.98,5.49-1.47,8.56-1.47c2.75,0,5.17,0.16,7.25,0.48c2.08,0.32,3.96,0.71,5.65,1.18v10.02
			h-5.5l-0.96-3.2c-0.13-0.3-0.32-0.58-0.58-0.83c-0.26-0.26-0.5-0.46-0.74-0.61c-0.73-0.49-1.72-0.95-2.98-1.38
			c-1.26-0.43-2.58-0.64-3.97-0.64c-1.62,0-2.87,0.37-3.74,1.1c-0.88,0.74-1.31,1.64-1.31,2.7c0,1.24,0.52,2.27,1.55,3.1
			c1.03,0.83,2.52,1.52,4.46,2.05c1.11,0.3,2.26,0.6,3.46,0.91c1.19,0.31,2.28,0.61,3.26,0.91c2.99,0.9,5.22,2.17,6.7,3.82
			c1.48,1.65,2.22,3.7,2.22,6.13c0,2.88-0.84,5.24-2.53,7.07c-1.69,1.84-3.87,3.18-6.56,4.05c-2.69,0.86-5.55,1.3-8.58,1.3
			c-2.9,0-5.69-0.27-8.37-0.82S802.16,485.23,800.43,484.67z"/>
		<path d="M862,486.24v-3.04l5.6-2.18c0.38-0.15,0.67-0.33,0.86-0.54c0.19-0.21,0.29-0.55,0.29-1.02v-34.05
			c0-0.45-0.11-0.77-0.34-0.98c-0.22-0.2-0.5-0.36-0.82-0.46l-5.6-2.18v-3.04h24.86v3.04l-5.6,2.18c-0.34,0.13-0.63,0.29-0.86,0.48
			s-0.35,0.51-0.35,0.96v34.05c0,0.47,0.12,0.82,0.35,1.04c0.23,0.22,0.52,0.4,0.86,0.53l5.6,2.18v3.04H862z"/>
		<path d="M201.46,573.47c-3.63,0-6.88-0.72-9.76-2.16c-2.88-1.44-5.16-3.56-6.83-6.35s-2.51-6.2-2.51-10.21c0-3.69,0.8-7,2.4-9.92
			s3.83-5.23,6.7-6.93c2.87-1.7,6.2-2.54,10-2.54c3.6,0,6.68,0.66,9.23,1.97c2.55,1.31,4.5,3.06,5.86,5.23
			c1.35,2.18,2.03,4.58,2.03,7.2c0,0.3-0.02,0.82-0.06,1.57c-0.04,0.75-0.09,1.48-0.13,2.21c-0.04,0.72-0.09,1.23-0.13,1.5h-25.41
			v-5.31h14.72c0-1.98-0.22-3.67-0.67-5.06c-0.45-1.39-1.16-2.45-2.14-3.18c-0.98-0.74-2.29-1.1-3.94-1.1
			c-1.13,0-2.16,0.23-3.09,0.69c-0.93,0.46-1.73,1.18-2.42,2.18c-0.68,0.99-1.21,2.26-1.58,3.81c-0.37,1.55-0.56,3.41-0.56,5.58
			c0,2.77,0.36,5.17,1.07,7.2s1.97,3.59,3.78,4.7c1.8,1.11,4.35,1.66,7.63,1.66c1.66,0,3.18-0.14,4.54-0.43s2.59-0.64,3.68-1.07
			s2.03-0.83,2.82-1.22h1.79v4.35c-1.94,1.34-4.41,2.62-7.41,3.82C208.08,572.87,204.88,573.47,201.46,573.47z"/>
		<path d="M223.19,572.64v-3.01l3.3-1.57c0.34-0.17,0.69-0.42,1.06-0.74c0.36-0.32,0.68-0.64,0.96-0.96l9.86-11.42l-9.54-12.64
			c-0.28-0.36-0.57-0.69-0.86-0.99c-0.3-0.3-0.64-0.52-1.02-0.67l-3.46-1.31v-2.94h19.2v2.94l-2.72,1.63l4.32,5.5l1.76,3.46h0.45
			l6.91-8.45l-2.02-2.14v-2.94h13.25v2.94l-3.26,1.63c-0.32,0.15-0.64,0.37-0.96,0.67s-0.65,0.63-0.99,0.99l-9.54,10.94l9.86,13.12
			c0.3,0.41,0.61,0.76,0.94,1.06c0.33,0.3,0.67,0.51,1.01,0.64l3.33,1.25v3.01h-19.17v-3.01l2.78-1.57l-4.74-6.05l-1.76-3.46h-0.45
			l-7.2,8.93l2.08,2.14v3.01H223.19z"/>
		<path d="M269.01,589.02v-2.98l4.32-1.86c0.38-0.17,0.69-0.34,0.91-0.51s0.34-0.48,0.34-0.93v-39.01c0-0.45-0.13-0.78-0.38-0.99
			c-0.26-0.21-0.54-0.38-0.86-0.51l-4.1-1.76v-3.1l15.42-1.66v6.02h0.58c1-1.49,2.15-2.7,3.46-3.63c1.3-0.93,2.7-1.6,4.19-2.03
			c1.49-0.43,3.03-0.64,4.61-0.64c3.03,0,5.62,0.76,7.78,2.29c2.15,1.53,3.81,3.61,4.96,6.24c1.15,2.64,1.73,5.62,1.73,8.94
			c0,3.69-0.68,7.06-2.05,10.11c-1.37,3.05-3.33,5.48-5.9,7.28c-2.57,1.8-5.68,2.7-9.33,2.7c-2.13,0-4.06-0.39-5.79-1.18
			s-3.01-1.71-3.84-2.75l0.32,2.62v11.01c0,0.45,0.12,0.76,0.35,0.94c0.23,0.18,0.54,0.35,0.93,0.5l5.22,1.92v2.98H269.01z
			 M285.37,545.41v20.16c0.55,0.38,1.26,0.68,2.11,0.9c0.85,0.21,1.7,0.37,2.53,0.46c0.83,0.1,1.49,0.14,1.98,0.14
			c2.05,0,3.71-0.54,4.99-1.63c1.28-1.09,2.22-2.53,2.82-4.34c0.6-1.8,0.9-3.79,0.9-5.97c0-2.5-0.29-4.74-0.88-6.74
			c-0.59-1.99-1.51-3.57-2.78-4.74c-1.27-1.16-2.94-1.74-5.01-1.74c-1.62,0-3.02,0.4-4.19,1.2
			C286.66,543.92,285.83,544.68,285.37,545.41z"/>
		<path d="M316.88,572.64v-3.01l5.34-1.92c0.41-0.15,0.72-0.33,0.94-0.54c0.22-0.21,0.34-0.53,0.34-0.96v-37.54
			c0-0.43-0.14-0.75-0.42-0.98c-0.28-0.22-0.57-0.4-0.86-0.53l-5.66-2.4v-3.1h17.7v44.54c0,0.43,0.14,0.76,0.42,0.99
			c0.28,0.24,0.56,0.41,0.86,0.51l5.28,1.92v3.01H316.88z"/>
		<path d="M365.24,573.54c-3.88,0-7.3-0.74-10.24-2.21c-2.94-1.47-5.24-3.63-6.88-6.46c-1.64-2.84-2.46-6.29-2.46-10.37
			c0-3.75,0.82-7.07,2.45-9.95c1.63-2.88,3.94-5.13,6.93-6.75c2.99-1.62,6.52-2.43,10.59-2.43c4.42,0,8.07,0.85,10.96,2.56
			c2.89,1.71,5.05,4,6.48,6.88c1.43,2.88,2.14,6.07,2.14,9.57c0,3.71-0.81,7.01-2.43,9.9c-1.62,2.89-3.93,5.16-6.91,6.8
			C372.87,572.71,369.33,573.54,365.24,573.54z M365.68,568.38c1.56,0,2.85-0.39,3.87-1.17c1.02-0.78,1.83-1.82,2.43-3.12
			c0.6-1.3,1.02-2.74,1.26-4.3c0.25-1.57,0.37-3.15,0.37-4.75c0-2.58-0.27-4.97-0.82-7.17s-1.44-3.97-2.67-5.33
			c-1.24-1.35-2.89-2.03-4.96-2.03c-1.56,0-2.85,0.38-3.87,1.15c-1.02,0.77-1.83,1.79-2.43,3.07c-0.6,1.28-1.02,2.7-1.26,4.26
			c-0.25,1.56-0.37,3.13-0.37,4.7c0,1.75,0.13,3.49,0.4,5.22c0.27,1.73,0.71,3.31,1.34,4.74c0.63,1.43,1.49,2.58,2.59,3.44
			C362.67,567.95,364.04,568.38,365.68,568.38z"/>
		<path d="M391.22,572.64v-3.01l4.13-1.76c0.36-0.17,0.66-0.36,0.9-0.56c0.23-0.2,0.35-0.52,0.35-0.94v-21.02c0-1-0.06-1.67-0.18-2
			s-0.42-0.6-0.91-0.82l-4.61-2.05v-3.1l15.94-1.66v7.46h0.42c1.41-2.24,2.76-3.92,4.06-5.02c1.3-1.11,2.56-1.84,3.78-2.19
			c1.22-0.35,2.38-0.53,3.49-0.53c1.04,0,2.1,0.13,3.17,0.38c1.07,0.26,2.08,0.74,3.04,1.44v11.23h-7.94l-0.96-2.4
			c-0.15-0.36-0.49-0.78-1.01-1.26c-0.52-0.48-1.15-0.72-1.87-0.72c-0.68,0-1.33,0.09-1.94,0.27c-0.61,0.18-1.21,0.5-1.81,0.94
			c-0.6,0.45-1.24,1.06-1.92,1.82v19.23c0,0.73,0.42,1.23,1.25,1.5l5.6,1.76v3.01H391.22z"/>
		<path d="M448.4,573.47c-3.63,0-6.88-0.72-9.76-2.16c-2.88-1.44-5.16-3.56-6.83-6.35s-2.51-6.2-2.51-10.21c0-3.69,0.8-7,2.4-9.92
			s3.83-5.23,6.7-6.93c2.87-1.7,6.2-2.54,10-2.54c3.6,0,6.68,0.66,9.23,1.97c2.55,1.31,4.5,3.06,5.86,5.23
			c1.35,2.18,2.03,4.58,2.03,7.2c0,0.3-0.02,0.82-0.06,1.57c-0.04,0.75-0.09,1.48-0.13,2.21c-0.04,0.72-0.09,1.23-0.13,1.5H439.8
			v-5.31h14.72c0-1.98-0.22-3.67-0.67-5.06c-0.45-1.39-1.16-2.45-2.14-3.18c-0.98-0.74-2.29-1.1-3.94-1.1
			c-1.13,0-2.16,0.23-3.09,0.69c-0.93,0.46-1.73,1.18-2.42,2.18c-0.68,0.99-1.21,2.26-1.58,3.81c-0.37,1.55-0.56,3.41-0.56,5.58
			c0,2.77,0.36,5.17,1.07,7.2s1.97,3.59,3.78,4.7c1.8,1.11,4.35,1.66,7.63,1.66c1.66,0,3.18-0.14,4.54-0.43s2.59-0.64,3.68-1.07
			s2.03-0.83,2.82-1.22h1.79v4.35c-1.94,1.34-4.41,2.62-7.41,3.82C455.02,572.87,451.82,573.47,448.4,573.47z"/>
		<path d="M521.43,536.38v5.73h-12.8v19.42c0,1.04,0.38,1.96,1.14,2.75s1.65,1.4,2.67,1.84c1.02,0.44,1.91,0.66,2.66,0.66
			c0.68,0,1.57-0.03,2.66-0.1c1.09-0.06,1.9-0.14,2.43-0.22h1.57v3.3c-0.53,0.3-1.42,0.73-2.67,1.28s-2.69,1.06-4.34,1.5
			c-1.64,0.45-3.33,0.67-5.06,0.67c-2.09,0-4.04-0.3-5.84-0.91s-3.25-1.47-4.35-2.59s-1.65-2.44-1.65-3.95v-23.65h-5.86v-5.09
			c1.3-0.17,2.43-0.36,3.38-0.56s1.7-0.62,2.26-1.26s0.87-1.7,0.96-3.17l0.32-5.09l9.73-1.38v10.82H521.43z"/>
		<path d="M524.88,569.63l4.1-1.76c0.45-0.19,0.77-0.38,0.96-0.58c0.19-0.19,0.29-0.5,0.29-0.93v-37.7c0-0.43-0.12-0.74-0.37-0.94
			c-0.25-0.2-0.54-0.39-0.88-0.56l-4.51-2.4v-3.1h16.54v17.22l-0.35,3.07c1.26-1.9,2.58-3.31,3.97-4.24
			c1.39-0.93,2.78-1.54,4.19-1.84c1.41-0.3,2.75-0.45,4.03-0.45c2.18,0,4.18,0.4,6.02,1.18c1.83,0.79,3.31,2.07,4.43,3.84
			c1.12,1.77,1.68,4.13,1.68,7.07v18.69c0,0.51,0.11,0.87,0.34,1.07c0.22,0.2,0.52,0.4,0.88,0.59l3.78,1.76v3.01h-20.35v-3.01
			l3.26-1.76c0.34-0.19,0.64-0.39,0.9-0.59c0.26-0.2,0.38-0.56,0.38-1.07v-14.4c0-2.13-0.17-3.89-0.51-5.26
			c-0.34-1.38-0.98-2.4-1.9-3.07c-0.93-0.67-2.27-1.01-4.02-1.01c-1,0-2.18,0.16-3.52,0.48c-1.34,0.32-2.41,1.12-3.2,2.4v21.02
			c0,0.43,0.11,0.73,0.34,0.9s0.53,0.37,0.91,0.61l3.04,1.76v3.01h-20.42V569.63z"/>
		<path d="M594.03,573.47c-3.63,0-6.88-0.72-9.76-2.16c-2.88-1.44-5.16-3.56-6.83-6.35s-2.51-6.2-2.51-10.21c0-3.69,0.8-7,2.4-9.92
			s3.83-5.23,6.7-6.93c2.87-1.7,6.2-2.54,10-2.54c3.6,0,6.68,0.66,9.23,1.97c2.55,1.31,4.5,3.06,5.86,5.23
			c1.35,2.18,2.03,4.58,2.03,7.2c0,0.3-0.02,0.82-0.06,1.57c-0.04,0.75-0.09,1.48-0.13,2.21c-0.04,0.72-0.09,1.23-0.13,1.5h-25.41
			v-5.31h14.72c0-1.98-0.22-3.67-0.67-5.06c-0.45-1.39-1.16-2.45-2.14-3.18c-0.98-0.74-2.29-1.1-3.94-1.1
			c-1.13,0-2.16,0.23-3.09,0.69c-0.93,0.46-1.73,1.18-2.42,2.18c-0.68,0.99-1.21,2.26-1.58,3.81c-0.37,1.55-0.56,3.41-0.56,5.58
			c0,2.77,0.36,5.17,1.07,7.2s1.97,3.59,3.78,4.7c1.8,1.11,4.35,1.66,7.63,1.66c1.66,0,3.18-0.14,4.54-0.43s2.59-0.64,3.68-1.07
			s2.03-0.83,2.82-1.22h1.79v4.35c-1.94,1.34-4.41,2.62-7.41,3.82C600.65,572.87,597.45,573.47,594.03,573.47z"/>
		<path d="M638.86,572.64v-3.01l4.16-1.76c0.36-0.19,0.66-0.38,0.9-0.58c0.23-0.19,0.35-0.5,0.35-0.93v-22.62
			c0-0.45-0.13-0.77-0.38-0.98c-0.26-0.2-0.54-0.38-0.86-0.53l-4.1-1.76v-3.1l15.39-1.66v5.66h0.51c1.41-1.79,2.81-3.11,4.19-3.95
			c1.39-0.84,2.75-1.39,4.1-1.63c1.34-0.24,2.65-0.37,3.9-0.37c2.22,0,4.23,0.42,6.05,1.25c1.81,0.83,3.26,2.14,4.34,3.92
			c1.08,1.78,1.62,4.09,1.62,6.93v18.69c0,0.51,0.11,0.87,0.34,1.07c0.22,0.2,0.53,0.4,0.91,0.59l3.65,1.76v3.01h-20.35v-3.01
			l3.26-1.76c0.38-0.21,0.7-0.42,0.96-0.61c0.26-0.19,0.38-0.54,0.38-1.06v-14.4c0-2-0.15-3.7-0.46-5.09
			c-0.31-1.39-0.91-2.44-1.79-3.17c-0.89-0.73-2.21-1.09-3.98-1.09c-1.17,0-2.41,0.17-3.71,0.5s-2.37,1.12-3.2,2.38v21.02
			c0,0.43,0.12,0.73,0.35,0.9c0.23,0.17,0.54,0.37,0.93,0.61l3.04,1.76v3.01H638.86z"/>
		<path d="M708.08,573.47c-3.63,0-6.88-0.72-9.76-2.16c-2.88-1.44-5.16-3.56-6.83-6.35s-2.51-6.2-2.51-10.21c0-3.69,0.8-7,2.4-9.92
			s3.83-5.23,6.7-6.93c2.87-1.7,6.2-2.54,10-2.54c3.6,0,6.68,0.66,9.23,1.97c2.55,1.31,4.5,3.06,5.86,5.23
			c1.35,2.18,2.03,4.58,2.03,7.2c0,0.3-0.02,0.82-0.06,1.57c-0.04,0.75-0.09,1.48-0.13,2.21c-0.04,0.72-0.09,1.23-0.13,1.5h-25.41
			v-5.31h14.72c0-1.98-0.22-3.67-0.67-5.06c-0.45-1.39-1.16-2.45-2.14-3.18c-0.98-0.74-2.29-1.1-3.94-1.1
			c-1.13,0-2.16,0.23-3.09,0.69c-0.93,0.46-1.73,1.18-2.42,2.18c-0.68,0.99-1.21,2.26-1.58,3.81c-0.37,1.55-0.56,3.41-0.56,5.58
			c0,2.77,0.36,5.17,1.07,7.2s1.97,3.59,3.78,4.7c1.8,1.11,4.35,1.66,7.63,1.66c1.66,0,3.18-0.14,4.54-0.43s2.59-0.64,3.68-1.07
			s2.03-0.83,2.82-1.22h1.79v4.35c-1.94,1.34-4.41,2.62-7.41,3.82C714.7,572.87,711.49,573.47,708.08,573.47z"/>
		<path d="M744.65,572.96l-11.39-30.72c-0.13-0.36-0.32-0.68-0.58-0.94c-0.26-0.27-0.58-0.48-0.96-0.66l-2.75-1.31v-2.94h19.68v2.94
			l-4.93,1.76l5.5,15.68l1.31,5.44h0.7l6.05-18.43l3.04-7.39h6.3l7.42,20.19l1.5,5.63h0.74l6.4-19.9l-4.58-2.98v-2.94h14.98v2.94
			l-2.91,2.27c-0.32,0.24-0.64,0.49-0.96,0.77c-0.32,0.28-0.53,0.59-0.64,0.93l-7.62,22.27l-3.52,7.39h-7.62l-6.98-18.18l-1.15-5.15
			h-0.58l-5.25,15.94l-3.42,7.39H744.65z"/>
		<path d="M183.38,657.18v-14.11h4.99l1.6,6.05c0.11,0.41,0.34,0.77,0.69,1.09c0.35,0.32,0.75,0.62,1.2,0.9
			c0.55,0.32,1.37,0.72,2.43,1.22c1.07,0.49,2.22,0.93,3.47,1.33c1.25,0.39,2.39,0.59,3.44,0.59c2.88,0,5.25-0.58,7.12-1.74
			c1.87-1.16,2.8-2.76,2.8-4.78c0-1.9-0.58-3.24-1.74-4.03c-1.16-0.79-2.73-1.58-4.69-2.37c-1.92-0.75-3.81-1.38-5.68-1.89
			c-1.87-0.51-3.69-1.1-5.46-1.76c-2.71-1.04-4.92-2.58-6.64-4.59c-1.72-2.02-2.58-4.67-2.58-7.95c0-3.01,0.9-5.61,2.7-7.81
			c1.8-2.2,4.15-3.89,7.04-5.09c2.89-1.19,5.97-1.79,9.23-1.79c1.86,0,3.78,0.11,5.78,0.34c1.99,0.22,3.91,0.5,5.74,0.83
			c1.83,0.33,3.43,0.65,4.8,0.94v13.73h-4.99l-1.63-5.86c-0.11-0.32-0.31-0.63-0.62-0.93s-0.6-0.53-0.88-0.7
			c-0.32-0.19-0.92-0.48-1.79-0.86c-0.88-0.38-1.87-0.73-2.98-1.04c-1.11-0.31-2.19-0.46-3.23-0.46c-2.79,0-4.89,0.59-6.29,1.76
			c-1.4,1.17-2.1,2.45-2.1,3.84c0,1.49,0.48,2.75,1.46,3.78c0.97,1.02,2.79,1.97,5.46,2.85c1.77,0.6,3.52,1.15,5.25,1.65
			s3.62,1.16,5.66,1.97c1.71,0.66,3.27,1.49,4.69,2.5c1.42,1,2.56,2.28,3.42,3.82c0.86,1.55,1.3,3.48,1.3,5.81
			c0,2.82-0.78,5.42-2.34,7.82c-1.56,2.4-3.92,4.33-7.07,5.79s-7.16,2.19-12,2.19c-1.58,0-3.4-0.16-5.46-0.46
			c-2.06-0.31-4.15-0.69-6.27-1.15C187.1,658.12,185.15,657.65,183.38,657.18z"/>
		<path d="M247.86,659.87c-3.63,0-6.88-0.72-9.76-2.16c-2.88-1.44-5.16-3.56-6.83-6.35s-2.51-6.2-2.51-10.21c0-3.69,0.8-7,2.4-9.92
			s3.83-5.23,6.7-6.93c2.87-1.7,6.2-2.54,10-2.54c3.6,0,6.68,0.66,9.23,1.97c2.55,1.31,4.5,3.06,5.86,5.23
			c1.35,2.18,2.03,4.58,2.03,7.2c0,0.3-0.02,0.82-0.06,1.57c-0.04,0.75-0.09,1.48-0.13,2.21c-0.04,0.72-0.09,1.23-0.13,1.5h-25.41
			v-5.31h14.72c0-1.98-0.22-3.67-0.67-5.06c-0.45-1.39-1.16-2.45-2.14-3.18c-0.98-0.74-2.29-1.1-3.94-1.1
			c-1.13,0-2.16,0.23-3.09,0.69c-0.93,0.46-1.73,1.18-2.42,2.18c-0.68,0.99-1.21,2.26-1.58,3.81c-0.37,1.55-0.56,3.41-0.56,5.58
			c0,2.77,0.36,5.17,1.07,7.2s1.97,3.59,3.78,4.7c1.8,1.11,4.35,1.66,7.63,1.66c1.66,0,3.18-0.14,4.54-0.43s2.59-0.64,3.68-1.07
			s2.03-0.83,2.82-1.22h1.79v4.35c-1.94,1.34-4.41,2.62-7.41,3.82C254.48,659.27,251.28,659.87,247.86,659.87z"/>
		<path d="M269.59,659.04v-3.01l5.34-1.92c0.41-0.15,0.72-0.33,0.94-0.54c0.22-0.21,0.34-0.53,0.34-0.96v-37.54
			c0-0.43-0.14-0.75-0.42-0.98c-0.28-0.22-0.57-0.4-0.86-0.53l-5.66-2.4v-3.1h17.7v44.54c0,0.43,0.14,0.76,0.42,0.99
			c0.28,0.24,0.56,0.41,0.86,0.51l5.28,1.92v3.01H269.59z"/>
		<path d="M297.97,659.04v-3.01l4.77-1.92c0.38-0.17,0.69-0.36,0.93-0.56c0.23-0.2,0.35-0.52,0.35-0.94V630.5h-6.75v-5.73h6.88
			c0.38-3.84,1.44-7.04,3.18-9.6c1.74-2.56,3.91-4.48,6.51-5.76c2.6-1.28,5.41-1.92,8.42-1.92c0.94,0,2.17,0.07,3.7,0.21
			c1.52,0.14,2.81,0.3,3.86,0.5v8.8h-2.5c-0.7-0.3-1.66-0.62-2.86-0.98c-1.21-0.35-2.41-0.66-3.6-0.91
			c-1.2-0.26-2.14-0.38-2.85-0.38c-0.58,0-1.05,0.08-1.41,0.22c-0.36,0.15-0.66,0.42-0.9,0.8c-0.32,0.51-0.55,1.55-0.69,3.12
			c-0.14,1.57-0.22,3.54-0.24,5.9h10.3v5.73h-10.27v22.11c0,0.43,0.12,0.75,0.37,0.98c0.25,0.22,0.54,0.4,0.88,0.53l5.6,1.92v3.01
			H297.97z"/>
		<path d="M331.22,644.19v-9.18h21.47v9.18H331.22z"/>
		<path d="M400.05,648.06h2.66v4.86c-1.28,1.05-2.86,2.12-4.75,3.22c-1.89,1.1-3.97,2.03-6.24,2.78s-4.66,1.14-7.15,1.14
			c-4.93,0-9.24-0.99-12.94-2.96c-3.7-1.97-6.58-4.8-8.64-8.48c-2.06-3.68-3.09-8.09-3.09-13.23c0-5.08,1.07-9.48,3.2-13.2
			s5.07-6.6,8.82-8.64c3.74-2.04,8.03-3.06,12.85-3.06c1.75,0,3.7,0.14,5.86,0.42s4.23,0.6,6.24,0.98c2,0.37,3.66,0.71,4.96,1.01
			v13.41h-4.93l-1.66-6.34c-0.06-0.26-0.27-0.53-0.62-0.82s-0.65-0.5-0.88-0.62c-1.11-0.62-2.24-1.14-3.39-1.57
			c-1.15-0.43-2.47-0.64-3.97-0.64c-4.33,0-7.8,1.43-10.4,4.3c-2.6,2.87-3.9,7.26-3.9,13.17c0,6.17,1.42,10.85,4.27,14.05
			c2.85,3.2,6.71,4.8,11.6,4.8c1.92,0,3.65-0.26,5.2-0.78c1.55-0.52,2.9-1.14,4.06-1.86C398.35,649.28,399.31,648.64,400.05,648.06z
			"/>
		<path d="M407.8,656.03l4.1-1.76c0.45-0.19,0.77-0.38,0.96-0.58c0.19-0.19,0.29-0.5,0.29-0.93v-37.7c0-0.43-0.12-0.74-0.37-0.94
			c-0.25-0.2-0.54-0.39-0.88-0.56l-4.51-2.4v-3.1h16.54v17.22l-0.35,3.07c1.26-1.9,2.58-3.31,3.97-4.24
			c1.39-0.93,2.78-1.54,4.19-1.84c1.41-0.3,2.75-0.45,4.03-0.45c2.18,0,4.18,0.39,6.02,1.18c1.83,0.79,3.31,2.07,4.43,3.84
			c1.12,1.77,1.68,4.13,1.68,7.07v18.69c0,0.51,0.11,0.87,0.34,1.07c0.22,0.2,0.52,0.4,0.88,0.59l3.78,1.76v3.01h-20.35v-3.01
			l3.26-1.76c0.34-0.19,0.64-0.39,0.9-0.59c0.26-0.2,0.38-0.56,0.38-1.07v-14.4c0-2.13-0.17-3.89-0.51-5.26
			c-0.34-1.38-0.98-2.4-1.9-3.07c-0.93-0.67-2.27-1.01-4.02-1.01c-1,0-2.18,0.16-3.52,0.48c-1.34,0.32-2.41,1.12-3.2,2.4v21.02
			c0,0.43,0.11,0.73,0.34,0.9s0.53,0.37,0.91,0.61l3.04,1.76v3.01H407.8V656.03z"/>
		<path d="M476.95,659.87c-3.63,0-6.88-0.72-9.76-2.16c-2.88-1.44-5.16-3.56-6.83-6.35s-2.51-6.2-2.51-10.21c0-3.69,0.8-7,2.4-9.92
			s3.83-5.23,6.7-6.93c2.87-1.7,6.2-2.54,10-2.54c3.6,0,6.68,0.66,9.23,1.97c2.55,1.31,4.5,3.06,5.86,5.23
			c1.35,2.18,2.03,4.58,2.03,7.2c0,0.3-0.02,0.82-0.06,1.57c-0.04,0.75-0.09,1.48-0.13,2.21c-0.04,0.72-0.09,1.23-0.13,1.5h-25.41
			v-5.31h14.72c0-1.98-0.22-3.67-0.67-5.06c-0.45-1.39-1.16-2.45-2.14-3.18c-0.98-0.74-2.29-1.1-3.94-1.1
			c-1.13,0-2.16,0.23-3.09,0.69c-0.93,0.46-1.73,1.18-2.42,2.18c-0.68,0.99-1.21,2.26-1.58,3.81c-0.37,1.55-0.56,3.41-0.56,5.58
			c0,2.77,0.36,5.17,1.07,7.2s1.97,3.59,3.78,4.7c1.8,1.11,4.35,1.66,7.63,1.66c1.66,0,3.18-0.14,4.54-0.43s2.59-0.64,3.68-1.07
			s2.03-0.83,2.82-1.22h1.79v4.35c-1.94,1.34-4.41,2.62-7.41,3.82C483.57,659.27,480.36,659.87,476.95,659.87z"/>
		<path d="M530.87,649.63h1.79v4.67c-1.83,1.34-3.93,2.61-6.29,3.79c-2.36,1.18-5.19,1.78-8.5,1.78c-3.75,0-6.98-0.79-9.66-2.37
			c-2.69-1.58-4.74-3.76-6.16-6.56c-1.42-2.79-2.13-6.02-2.13-9.66c0-2.92,0.59-5.57,1.76-7.95c1.17-2.38,2.75-4.43,4.72-6.14
			c1.97-1.72,4.17-3.04,6.59-3.97c2.42-0.93,4.87-1.39,7.34-1.39c1.88,0,3.53,0.17,4.94,0.51c1.42,0.34,2.63,0.73,3.63,1.17
			c1,0.44,1.8,0.78,2.4,1.04v9.12h-2.5c-1.15-0.75-2.44-1.58-3.87-2.5c-1.43-0.92-2.9-1.71-4.4-2.38c-1.5-0.67-2.97-1.01-4.4-1.01
			c-0.51,0-0.98,0.11-1.39,0.32c-0.42,0.21-0.81,0.57-1.17,1.06c-0.36,0.49-0.74,1.24-1.14,2.26c-0.4,1.01-0.73,2.25-0.99,3.71
			c-0.27,1.46-0.4,3.12-0.4,4.98c0,4.03,0.94,7.13,2.82,9.28c1.88,2.16,4.56,3.23,8.06,3.23c1.11,0,2.2-0.14,3.26-0.42
			c1.07-0.28,2.08-0.64,3.04-1.09C529.2,650.66,530.08,650.17,530.87,649.63z"/>
		<path d="M536.4,659.04v-3.01l4.1-1.76c0.4-0.17,0.72-0.36,0.94-0.56c0.22-0.2,0.34-0.52,0.34-0.94v-37.54
			c0-0.45-0.12-0.79-0.37-1.04c-0.25-0.25-0.54-0.45-0.88-0.62l-4.48-2.4v-3.1h16.51v32.83l12.8-12.77l-3.74-2.4v-2.94h17.02v2.94
			l-4.22,1.89c-0.45,0.19-0.87,0.41-1.26,0.66s-0.82,0.56-1.26,0.94l-7.74,6.82l11.36,17.06c0.23,0.34,0.57,0.65,1.01,0.91
			c0.44,0.27,0.82,0.47,1.14,0.62l3.33,1.41v3.01h-18.69v-3.01l1.76-1.57l-7.78-11.71l-3.84,1.34v8.67c0,0.43,0.12,0.74,0.35,0.94
			c0.23,0.2,0.52,0.39,0.86,0.56l3.42,1.76v3.01H536.4z"/>
		<path d="M603.7,659.94c-3.88,0-7.3-0.74-10.24-2.21c-2.94-1.47-5.24-3.63-6.88-6.46c-1.64-2.84-2.46-6.29-2.46-10.37
			c0-3.75,0.82-7.07,2.45-9.95c1.63-2.88,3.94-5.13,6.93-6.75c2.99-1.62,6.52-2.43,10.59-2.43c4.42,0,8.07,0.85,10.96,2.56
			c2.89,1.71,5.05,4,6.48,6.88c1.43,2.88,2.14,6.07,2.14,9.57c0,3.71-0.81,7.01-2.43,9.9c-1.62,2.89-3.93,5.16-6.91,6.8
			C611.33,659.11,607.79,659.94,603.7,659.94z M604.15,654.78c1.56,0,2.85-0.39,3.87-1.17c1.02-0.78,1.83-1.82,2.43-3.12
			c0.6-1.3,1.02-2.74,1.26-4.3c0.25-1.57,0.37-3.15,0.37-4.75c0-2.58-0.27-4.97-0.82-7.17s-1.44-3.97-2.67-5.33
			c-1.24-1.35-2.89-2.03-4.96-2.03c-1.56,0-2.85,0.38-3.87,1.15c-1.02,0.77-1.83,1.79-2.43,3.07c-0.6,1.28-1.02,2.7-1.26,4.26
			c-0.25,1.56-0.37,3.13-0.37,4.7c0,1.75,0.13,3.49,0.4,5.22c0.27,1.73,0.71,3.31,1.34,4.74c0.63,1.43,1.49,2.58,2.59,3.44
			C601.13,654.35,602.5,654.78,604.15,654.78z"/>
		<path d="M645.52,659.71c-2.18,0-4.15-0.41-5.94-1.23c-1.78-0.82-3.21-2.12-4.27-3.9c-1.07-1.78-1.6-4.09-1.6-6.93v-17.5
			c0-0.45-0.13-0.78-0.38-0.99s-0.53-0.38-0.83-0.51l-4.13-1.76v-3.1l16.16-1.66v21.28c0,1.96,0.14,3.64,0.43,5.04
			c0.29,1.4,0.87,2.46,1.74,3.18c0.87,0.73,2.19,1.09,3.94,1.09c1.86,0,3.32-0.25,4.38-0.74c1.07-0.49,1.9-1.19,2.5-2.11v-19.71
			c0-0.45-0.12-0.77-0.37-0.98c-0.25-0.2-0.55-0.38-0.91-0.53l-4.06-1.76v-3.1l16.13-1.66v29.57c0,0.45,0.12,0.77,0.37,0.98
			s0.54,0.38,0.88,0.53l4.1,1.76v3.1l-15.39,1.63v-5.95h-0.48c-1.41,1.75-3.01,3.18-4.82,4.3S648.68,659.71,645.52,659.71z"/>
		<path d="M706.61,622.78v5.73h-12.8v19.42c0,1.04,0.38,1.96,1.14,2.75s1.65,1.4,2.67,1.84c1.02,0.44,1.91,0.66,2.66,0.66
			c0.68,0,1.57-0.03,2.66-0.1c1.09-0.06,1.9-0.14,2.43-0.22h1.57v3.3c-0.53,0.3-1.42,0.73-2.67,1.28s-2.69,1.06-4.34,1.5
			c-1.64,0.45-3.33,0.67-5.06,0.67c-2.09,0-4.04-0.3-5.84-0.91s-3.25-1.47-4.35-2.59s-1.65-2.44-1.65-3.95v-23.65h-5.86v-5.09
			c1.3-0.17,2.43-0.36,3.38-0.56s1.7-0.62,2.26-1.26c0.55-0.64,0.87-1.7,0.96-3.17l0.32-5.09l9.73-1.38v10.82H706.61z"/>
		<path d="M183.38,743.58v-14.11h4.99l1.6,6.05c0.11,0.41,0.34,0.77,0.69,1.09c0.35,0.32,0.75,0.62,1.2,0.9
			c0.55,0.32,1.37,0.72,2.43,1.22c1.07,0.49,2.22,0.93,3.47,1.33c1.25,0.39,2.39,0.59,3.44,0.59c2.88,0,5.25-0.58,7.12-1.74
			c1.87-1.16,2.8-2.76,2.8-4.78c0-1.9-0.58-3.24-1.74-4.03c-1.16-0.79-2.73-1.58-4.69-2.37c-1.92-0.75-3.81-1.38-5.68-1.89
			c-1.87-0.51-3.69-1.1-5.46-1.76c-2.71-1.04-4.92-2.58-6.64-4.59c-1.72-2.02-2.58-4.67-2.58-7.95c0-3.01,0.9-5.61,2.7-7.81
			c1.8-2.2,4.15-3.89,7.04-5.09c2.89-1.19,5.97-1.79,9.23-1.79c1.86,0,3.78,0.11,5.78,0.34c1.99,0.22,3.91,0.5,5.74,0.83
			c1.83,0.33,3.43,0.65,4.8,0.94v13.73h-4.99l-1.63-5.86c-0.11-0.32-0.31-0.63-0.62-0.93s-0.6-0.53-0.88-0.7
			c-0.32-0.19-0.92-0.48-1.79-0.86c-0.88-0.38-1.87-0.73-2.98-1.04c-1.11-0.31-2.19-0.46-3.23-0.46c-2.79,0-4.89,0.59-6.29,1.76
			c-1.4,1.17-2.1,2.45-2.1,3.84c0,1.49,0.48,2.75,1.46,3.78c0.97,1.02,2.79,1.97,5.46,2.85c1.77,0.6,3.52,1.15,5.25,1.65
			s3.62,1.16,5.66,1.97c1.71,0.66,3.27,1.49,4.69,2.5c1.42,1,2.56,2.28,3.42,3.82c0.86,1.55,1.3,3.48,1.3,5.81
			c0,2.82-0.78,5.42-2.34,7.82c-1.56,2.4-3.92,4.33-7.07,5.79s-7.16,2.19-12,2.19c-1.58,0-3.4-0.16-5.46-0.46
			c-2.06-0.31-4.15-0.69-6.27-1.15C187.1,744.52,185.15,744.05,183.38,743.58z"/>
		<path d="M228.47,760.83v-8.9h2.72c0.51,0.15,1.24,0.31,2.19,0.5c0.95,0.18,1.94,0.36,2.96,0.53s1.94,0.3,2.74,0.4
			c0.8,0.1,1.31,0.14,1.52,0.14c0.3,0,0.67-0.02,1.12-0.06c0.45-0.04,0.74-0.13,0.86-0.26c0.32-0.32,0.67-0.74,1.06-1.26
			c0.38-0.52,0.81-1.24,1.26-2.14c0.46-0.91,0.98-2.1,1.55-3.57l-3.94-5.7l-11.49-25.6c-0.17-0.4-0.39-0.71-0.66-0.93
			c-0.27-0.21-0.56-0.39-0.88-0.54l-3.04-1.31v-2.94h20.42v2.94l-4.9,1.76l7.1,15.68l1.6,4.61h0.77l7.68-19.07l-4.7-2.98v-2.94
			h15.23v2.94l-3.04,2.27c-0.3,0.21-0.6,0.45-0.9,0.7c-0.3,0.26-0.51,0.54-0.64,0.86l-14.21,35.1c-1.24,3.03-2.67,5.32-4.3,6.86
			c-1.63,1.55-3.36,2.58-5.18,3.1c-1.82,0.52-3.63,0.78-5.42,0.78c-0.3,0-0.98-0.05-2.03-0.16s-2.13-0.24-3.22-0.4
			C229.62,761.1,228.88,760.96,228.47,760.83z"/>
		<path d="M274.49,743.87v-9.89h5.54l0.96,2.94c0.11,0.34,0.28,0.67,0.53,0.98c0.25,0.31,0.48,0.55,0.72,0.72
			c0.9,0.66,2.05,1.28,3.46,1.84c1.41,0.57,3.04,0.85,4.9,0.85c1.11,0,2.11-0.19,3.01-0.58s1.62-0.92,2.16-1.6s0.82-1.48,0.82-2.4
			c0-1.3-0.44-2.28-1.33-2.94c-0.89-0.66-2.25-1.25-4.08-1.76c-1.05-0.3-2.2-0.6-3.47-0.91c-1.27-0.31-2.41-0.6-3.41-0.88
			c-3.16-0.87-5.49-2.2-7.01-3.97c-1.52-1.77-2.27-3.76-2.27-5.98c0-2.5,0.8-4.65,2.42-6.46c1.61-1.81,3.73-3.21,6.37-4.19
			s5.49-1.47,8.56-1.47c2.75,0,5.17,0.16,7.25,0.48c2.08,0.32,3.96,0.71,5.65,1.18v10.02h-5.5l-0.96-3.2
			c-0.13-0.3-0.32-0.58-0.58-0.83s-0.5-0.46-0.74-0.61c-0.73-0.49-1.72-0.95-2.98-1.38c-1.26-0.43-2.58-0.64-3.97-0.64
			c-1.62,0-2.87,0.37-3.74,1.1c-0.88,0.74-1.31,1.64-1.31,2.7c0,1.24,0.52,2.27,1.55,3.1s2.52,1.51,4.46,2.05
			c1.11,0.3,2.26,0.6,3.46,0.91c1.19,0.31,2.28,0.61,3.26,0.91c2.99,0.9,5.22,2.17,6.7,3.82c1.48,1.65,2.22,3.7,2.22,6.13
			c0,2.88-0.84,5.24-2.53,7.07c-1.69,1.83-3.87,3.18-6.56,4.05c-2.69,0.86-5.55,1.3-8.58,1.3c-2.9,0-5.69-0.27-8.37-0.82
			S276.21,744.43,274.49,743.87z"/>
		<path d="M341.04,709.18v5.73h-12.8v19.42c0,1.04,0.38,1.96,1.14,2.75s1.65,1.4,2.67,1.84c1.02,0.44,1.91,0.66,2.66,0.66
			c0.68,0,1.57-0.03,2.66-0.1c1.09-0.06,1.9-0.14,2.43-0.22h1.57v3.3c-0.53,0.3-1.42,0.73-2.67,1.28s-2.69,1.06-4.34,1.5
			c-1.64,0.45-3.33,0.67-5.06,0.67c-2.09,0-4.04-0.3-5.84-0.91s-3.25-1.47-4.35-2.59s-1.65-2.44-1.65-3.95v-23.65h-5.86v-5.09
			c1.3-0.17,2.43-0.36,3.38-0.56s1.7-0.62,2.26-1.26c0.55-0.64,0.87-1.7,0.96-3.17l0.32-5.09l9.73-1.38v10.82H341.04z"/>
		<path d="M364.44,746.27c-3.63,0-6.88-0.72-9.76-2.16c-2.88-1.44-5.16-3.56-6.83-6.35s-2.51-6.2-2.51-10.21c0-3.69,0.8-7,2.4-9.92
			s3.83-5.23,6.7-6.93c2.87-1.7,6.2-2.54,10-2.54c3.6,0,6.68,0.66,9.23,1.97c2.55,1.31,4.5,3.06,5.86,5.23
			c1.35,2.18,2.03,4.58,2.03,7.2c0,0.3-0.02,0.82-0.06,1.57c-0.04,0.75-0.09,1.48-0.13,2.21c-0.04,0.72-0.09,1.23-0.13,1.5h-25.41
			v-5.31h14.72c0-1.98-0.22-3.67-0.67-5.06c-0.45-1.39-1.16-2.45-2.14-3.18c-0.98-0.74-2.29-1.1-3.94-1.1
			c-1.13,0-2.16,0.23-3.09,0.69c-0.93,0.46-1.73,1.18-2.42,2.18c-0.68,0.99-1.21,2.26-1.58,3.81c-0.37,1.55-0.56,3.41-0.56,5.58
			c0,2.77,0.36,5.17,1.07,7.2s1.97,3.59,3.78,4.7c1.8,1.11,4.35,1.66,7.63,1.66c1.66,0,3.18-0.14,4.54-0.43s2.59-0.64,3.68-1.07
			s2.03-0.83,2.82-1.22h1.79v4.35c-1.94,1.34-4.41,2.62-7.41,3.82C371.05,745.67,367.85,746.27,364.44,746.27z"/>
		<path d="M411.35,745.44v-3.01l3.17-1.76c0.36-0.21,0.67-0.42,0.91-0.61c0.25-0.19,0.37-0.54,0.37-1.06v-14.4
			c0-2-0.15-3.7-0.45-5.09s-0.87-2.44-1.71-3.17s-2.1-1.09-3.76-1.09c-1.15,0-2.36,0.16-3.62,0.48c-1.26,0.32-2.28,1.12-3.07,2.4
			v21.02c0,0.43,0.12,0.73,0.37,0.91c0.25,0.18,0.54,0.38,0.88,0.59l3.01,1.76v3.01h-20.38v-3.01l4.13-1.76
			c0.32-0.17,0.61-0.36,0.86-0.56c0.26-0.2,0.38-0.52,0.38-0.94v-22.62c0-0.45-0.13-0.78-0.4-0.99s-0.55-0.38-0.85-0.51l-4.13-1.76
			v-3.1l15.42-1.66v5.66h0.51c2.03-2.6,4.03-4.25,6.02-4.93c1.98-0.68,3.85-1.02,5.6-1.02c1.49,0,2.96,0.22,4.4,0.66
			s2.74,1.21,3.89,2.32c1.15,1.11,2.03,2.67,2.62,4.67l0.45,0.93v22.21c0,0.51,0.11,0.86,0.34,1.04c0.22,0.18,0.53,0.39,0.91,0.62
			l2.91,1.76v3.01H411.35z M433.97,745.44v-3.01l3.33-1.76c0.36-0.21,0.67-0.42,0.91-0.61c0.25-0.19,0.37-0.54,0.37-1.06v-14.4
			c0-2-0.15-3.7-0.45-5.09c-0.3-1.39-0.88-2.44-1.74-3.17c-0.86-0.73-2.15-1.09-3.86-1.09c-1.09,0-2.3,0.19-3.63,0.56
			c-1.33,0.37-2.41,1.35-3.22,2.93l-0.96-3.07c1.79-2.35,3.43-4.04,4.91-5.09c1.48-1.04,2.87-1.7,4.18-1.97
			c1.3-0.27,2.56-0.4,3.78-0.4c2.13,0,4.09,0.42,5.87,1.25c1.78,0.83,3.22,2.14,4.3,3.92c1.09,1.78,1.63,4.09,1.63,6.93v18.69
			c0,0.51,0.12,0.87,0.35,1.07c0.23,0.2,0.53,0.4,0.9,0.59l3.68,1.76v3.01H433.97z"/>
		<path d="M492.88,746.11c-2.26,0-4.2-0.51-5.81-1.52c-1.61-1.01-2.84-2.32-3.7-3.92c-0.85-1.6-1.28-3.29-1.28-5.06
			c0-2.3,0.55-4.28,1.66-5.94c1.11-1.65,2.54-3,4.29-4.03c1.75-1.03,3.62-1.8,5.6-2.29c1.98-0.49,3.84-0.74,5.57-0.74
			c0.34,0,0.93,0.04,1.78,0.11c0.84,0.08,1.69,0.16,2.54,0.26c0.85,0.1,1.43,0.17,1.73,0.21v-2.72c0-2.35-0.4-4.14-1.2-5.38
			c-0.8-1.24-2.22-1.86-4.27-1.86c-0.92,0-1.96,0.26-3.12,0.78c-1.16,0.52-2.34,1.16-3.52,1.9c-1.18,0.75-2.28,1.48-3.3,2.21
			s-1.84,1.28-2.48,1.66h-2.5v-8.74c1.62-0.47,3.22-0.93,4.78-1.38s3.27-0.82,5.12-1.1c1.84-0.29,3.98-0.43,6.42-0.43
			c2.54,0,4.94,0.31,7.2,0.93c2.26,0.62,4.11,1.76,5.54,3.44s2.14,4.1,2.14,7.28v17.5c0,0.88,0.27,1.58,0.82,2.13
			s1.14,0.82,1.78,0.82c0.49,0,1.02-0.05,1.6-0.14c0.58-0.1,1.12-0.21,1.63-0.34h1.25v3.42c-0.6,0.38-1.42,0.81-2.46,1.26
			c-1.05,0.46-2.13,0.85-3.26,1.17c-1.13,0.32-2.16,0.48-3.07,0.48c-2.84,0-4.94-0.5-6.3-1.5c-1.37-1-2.05-2.55-2.05-4.64h-0.51
			c-1.17,1.77-2.5,3.1-3.97,3.98c-1.47,0.89-2.96,1.47-4.46,1.74S494.16,746.11,492.88,746.11z M498.58,739.74
			c1.09,0,2.28-0.26,3.57-0.77c1.29-0.51,2.33-1.38,3.12-2.59v-8.8c-2.37,0-4.45,0.19-6.26,0.58c-1.8,0.38-3.21,1.06-4.21,2.03
			c-1,0.97-1.5,2.34-1.5,4.11c0,1.43,0.28,2.54,0.85,3.33c0.56,0.79,1.26,1.34,2.08,1.65C497.05,739.59,497.83,739.74,498.58,739.74
			z"/>
		<path d="M554.1,709.18v5.73h-12.8v19.42c0,1.04,0.38,1.96,1.14,2.75s1.65,1.4,2.67,1.84c1.02,0.44,1.91,0.66,2.66,0.66
			c0.68,0,1.57-0.03,2.66-0.1c1.09-0.06,1.9-0.14,2.43-0.22h1.57v3.3c-0.53,0.3-1.42,0.73-2.67,1.28s-2.69,1.06-4.34,1.5
			c-1.64,0.45-3.33,0.67-5.06,0.67c-2.09,0-4.04-0.3-5.84-0.91s-3.25-1.47-4.35-2.59s-1.65-2.44-1.65-3.95v-23.65h-5.86v-5.09
			c1.3-0.17,2.43-0.36,3.38-0.56s1.7-0.62,2.26-1.26c0.55-0.64,0.87-1.7,0.96-3.17l0.32-5.09l9.73-1.38v10.82H554.1z"/>
		<path d="M604.66,745.44v-3.01l3.17-1.76c0.36-0.21,0.67-0.42,0.91-0.61c0.25-0.19,0.37-0.54,0.37-1.06v-14.4
			c0-2-0.15-3.7-0.45-5.09s-0.87-2.44-1.71-3.17s-2.1-1.09-3.76-1.09c-1.15,0-2.36,0.16-3.62,0.48c-1.26,0.32-2.28,1.12-3.07,2.4
			v21.02c0,0.43,0.12,0.73,0.37,0.91c0.25,0.18,0.54,0.38,0.88,0.59l3.01,1.76v3.01h-20.38v-3.01l4.13-1.76
			c0.32-0.17,0.61-0.36,0.86-0.56c0.26-0.2,0.38-0.52,0.38-0.94v-22.62c0-0.45-0.13-0.78-0.4-0.99s-0.55-0.38-0.85-0.51l-4.13-1.76
			v-3.1l15.42-1.66v5.66h0.51c2.03-2.6,4.03-4.25,6.02-4.93c1.98-0.68,3.85-1.02,5.6-1.02c1.49,0,2.96,0.22,4.4,0.66
			s2.74,1.21,3.89,2.32c1.15,1.11,2.03,2.67,2.62,4.67l0.45,0.93v22.21c0,0.51,0.11,0.86,0.34,1.04c0.22,0.18,0.53,0.39,0.91,0.62
			l2.91,1.76v3.01H604.66z M627.28,745.44v-3.01l3.33-1.76c0.36-0.21,0.67-0.42,0.91-0.61c0.25-0.19,0.37-0.54,0.37-1.06v-14.4
			c0-2-0.15-3.7-0.45-5.09c-0.3-1.39-0.88-2.44-1.74-3.17c-0.86-0.73-2.15-1.09-3.86-1.09c-1.09,0-2.3,0.19-3.63,0.56
			c-1.33,0.37-2.41,1.35-3.22,2.93l-0.96-3.07c1.79-2.35,3.43-4.04,4.91-5.09c1.48-1.04,2.87-1.7,4.18-1.97
			c1.3-0.27,2.56-0.4,3.78-0.4c2.13,0,4.09,0.42,5.87,1.25c1.78,0.83,3.22,2.14,4.3,3.92c1.09,1.78,1.63,4.09,1.63,6.93v18.69
			c0,0.51,0.12,0.87,0.35,1.07c0.23,0.2,0.53,0.4,0.9,0.59l3.68,1.76v3.01H627.28z"/>
		<path d="M652.4,760.83v-8.9h2.72c0.51,0.15,1.24,0.31,2.19,0.5c0.95,0.18,1.94,0.36,2.96,0.53s1.94,0.3,2.74,0.4
			c0.8,0.1,1.31,0.14,1.52,0.14c0.3,0,0.67-0.02,1.12-0.06c0.45-0.04,0.74-0.13,0.86-0.26c0.32-0.32,0.67-0.74,1.06-1.26
			c0.38-0.52,0.81-1.24,1.26-2.14c0.46-0.91,0.98-2.1,1.55-3.57l-3.94-5.7l-11.49-25.6c-0.17-0.4-0.39-0.71-0.66-0.93
			c-0.27-0.21-0.56-0.39-0.88-0.54l-3.04-1.31v-2.94h20.42v2.94l-4.9,1.76l7.1,15.68l1.6,4.61h0.77l7.68-19.07l-4.7-2.98v-2.94
			h15.23v2.94l-3.04,2.27c-0.3,0.21-0.6,0.45-0.9,0.7c-0.3,0.26-0.51,0.54-0.64,0.86l-14.21,35.1c-1.24,3.03-2.67,5.32-4.3,6.86
			c-1.63,1.55-3.36,2.58-5.18,3.1c-1.82,0.52-3.63,0.78-5.42,0.78c-0.3,0-0.98-0.05-2.03-0.16s-2.13-0.24-3.22-0.4
			C653.55,761.1,652.8,760.96,652.4,760.83z"/>
		<path d="M719.34,745.44v-3.01l4.16-1.76c0.36-0.19,0.66-0.38,0.9-0.58c0.23-0.19,0.35-0.5,0.35-0.93v-22.62
			c0-0.45-0.13-0.77-0.38-0.98c-0.26-0.2-0.54-0.38-0.86-0.53l-4.1-1.76v-3.1l15.39-1.66v5.66h0.51c1.41-1.79,2.81-3.11,4.19-3.95
			c1.39-0.84,2.75-1.39,4.1-1.63c1.34-0.25,2.65-0.37,3.9-0.37c2.22,0,4.23,0.42,6.05,1.25c1.81,0.83,3.26,2.14,4.34,3.92
			c1.08,1.78,1.62,4.09,1.62,6.93v18.69c0,0.51,0.11,0.87,0.34,1.07c0.22,0.2,0.53,0.4,0.91,0.59l3.65,1.76v3.01h-20.35v-3.01
			l3.26-1.76c0.38-0.21,0.7-0.42,0.96-0.61c0.26-0.19,0.38-0.54,0.38-1.06v-14.4c0-2-0.15-3.7-0.46-5.09
			c-0.31-1.39-0.91-2.44-1.79-3.17c-0.89-0.73-2.21-1.09-3.98-1.09c-1.17,0-2.41,0.17-3.71,0.5s-2.37,1.12-3.2,2.38v21.02
			c0,0.43,0.12,0.73,0.35,0.9c0.23,0.17,0.54,0.37,0.93,0.61l3.04,1.76v3.01H719.34z"/>
		<path d="M788.56,746.27c-3.63,0-6.88-0.72-9.76-2.16c-2.88-1.44-5.16-3.56-6.83-6.35s-2.51-6.2-2.51-10.21c0-3.69,0.8-7,2.4-9.92
			s3.83-5.23,6.7-6.93c2.87-1.7,6.2-2.54,10-2.54c3.6,0,6.68,0.66,9.23,1.97c2.55,1.31,4.5,3.06,5.86,5.23
			c1.35,2.18,2.03,4.58,2.03,7.2c0,0.3-0.02,0.82-0.06,1.57c-0.04,0.75-0.09,1.48-0.13,2.21c-0.04,0.72-0.09,1.23-0.13,1.5h-25.41
			v-5.31h14.72c0-1.98-0.22-3.67-0.67-5.06c-0.45-1.39-1.16-2.45-2.14-3.18c-0.98-0.74-2.29-1.1-3.94-1.1
			c-1.13,0-2.16,0.23-3.09,0.69c-0.93,0.46-1.73,1.18-2.42,2.18c-0.68,0.99-1.21,2.26-1.58,3.81c-0.37,1.55-0.56,3.41-0.56,5.58
			c0,2.77,0.36,5.17,1.07,7.2s1.97,3.59,3.78,4.7c1.8,1.11,4.35,1.66,7.63,1.66c1.66,0,3.18-0.14,4.54-0.43s2.59-0.64,3.68-1.07
			s2.03-0.83,2.82-1.22h1.79v4.35c-1.94,1.34-4.41,2.62-7.41,3.82C795.18,745.67,791.97,746.27,788.56,746.27z"/>
		<path d="M822.7,746.11c-2.26,0-4.2-0.51-5.81-1.52c-1.61-1.01-2.84-2.32-3.7-3.92c-0.85-1.6-1.28-3.29-1.28-5.06
			c0-2.3,0.55-4.28,1.66-5.94c1.11-1.65,2.54-3,4.29-4.03c1.75-1.03,3.62-1.8,5.6-2.29c1.98-0.49,3.84-0.74,5.57-0.74
			c0.34,0,0.93,0.04,1.78,0.11c0.84,0.08,1.69,0.16,2.54,0.26c0.85,0.1,1.43,0.17,1.73,0.21v-2.72c0-2.35-0.4-4.14-1.2-5.38
			c-0.8-1.24-2.22-1.86-4.27-1.86c-0.92,0-1.96,0.26-3.12,0.78c-1.16,0.52-2.34,1.16-3.52,1.9c-1.18,0.75-2.28,1.48-3.3,2.21
			s-1.84,1.28-2.48,1.66h-2.5v-8.74c1.62-0.47,3.22-0.93,4.78-1.38s3.27-0.82,5.12-1.1c1.84-0.29,3.98-0.43,6.42-0.43
			c2.54,0,4.94,0.31,7.2,0.93c2.26,0.62,4.11,1.76,5.54,3.44s2.14,4.1,2.14,7.28v17.5c0,0.88,0.27,1.58,0.82,2.13
			s1.14,0.82,1.78,0.82c0.49,0,1.02-0.05,1.6-0.14c0.58-0.1,1.12-0.21,1.63-0.34h1.25v3.42c-0.6,0.38-1.42,0.81-2.46,1.26
			c-1.05,0.46-2.13,0.85-3.26,1.17c-1.13,0.32-2.16,0.48-3.07,0.48c-2.84,0-4.94-0.5-6.3-1.5c-1.37-1-2.05-2.55-2.05-4.64h-0.51
			c-1.17,1.77-2.5,3.1-3.97,3.98c-1.47,0.89-2.96,1.47-4.46,1.74S823.98,746.11,822.7,746.11z M828.4,739.74
			c1.09,0,2.28-0.26,3.57-0.77c1.29-0.51,2.33-1.38,3.12-2.59v-8.8c-2.37,0-4.45,0.19-6.26,0.58c-1.8,0.38-3.21,1.06-4.21,2.03
			c-1,0.97-1.5,2.34-1.5,4.11c0,1.43,0.28,2.54,0.85,3.33c0.56,0.79,1.26,1.34,2.08,1.65C826.87,739.59,827.65,739.74,828.4,739.74z
			"/>
		<path d="M855.95,745.44v-3.01l4.13-1.76c0.36-0.17,0.66-0.36,0.9-0.56c0.23-0.2,0.35-0.52,0.35-0.94v-21.02c0-1-0.06-1.67-0.18-2
			s-0.42-0.6-0.91-0.82l-4.61-2.05v-3.1l15.94-1.66v7.46h0.42c1.41-2.24,2.76-3.92,4.06-5.02s2.56-1.84,3.78-2.19
			c1.22-0.35,2.38-0.53,3.49-0.53c1.04,0,2.1,0.13,3.17,0.38c1.07,0.26,2.08,0.74,3.04,1.44v11.23h-7.94l-0.96-2.4
			c-0.15-0.36-0.49-0.78-1.01-1.26c-0.52-0.48-1.15-0.72-1.87-0.72c-0.68,0-1.33,0.09-1.94,0.27c-0.61,0.18-1.21,0.5-1.81,0.94
			c-0.6,0.45-1.24,1.06-1.92,1.82v19.23c0,0.73,0.42,1.23,1.25,1.5l5.6,1.76v3.01H855.95z"/>
		<path d="M914.57,746.34c-3.35,0-6.4-0.34-9.14-1.01s-5.3-1.53-7.66-2.58v-41.28c0-0.43-0.13-0.74-0.4-0.93
			c-0.27-0.19-0.55-0.38-0.85-0.58l-4.51-2.4v-3.1h16.51v17.15l-0.32,3.52c1.22-2.13,2.62-3.69,4.21-4.66s3.11-1.59,4.58-1.86
			c1.46-0.27,2.6-0.4,3.41-0.4c3.03,0,5.62,0.76,7.78,2.29c2.15,1.53,3.8,3.61,4.94,6.26c1.14,2.65,1.71,5.65,1.71,9.02
			c0,3.71-0.78,7.13-2.34,10.24c-1.56,3.12-3.84,5.61-6.85,7.49C922.64,745.4,918.95,746.34,914.57,746.34z M914.77,741.15
			c2.07,0,3.75-0.59,5.04-1.78c1.29-1.18,2.25-2.77,2.86-4.75c0.62-1.98,0.93-4.17,0.93-6.56c0-2.52-0.29-4.78-0.88-6.8
			c-0.59-2.02-1.52-3.61-2.78-4.78c-1.27-1.17-2.94-1.76-5.01-1.76c-0.92,0-2.01,0.24-3.26,0.72s-2.3,1.4-3.14,2.77v20.45
			c0.55,0.62,1.24,1.11,2.05,1.47c0.81,0.36,1.6,0.62,2.37,0.78C913.71,741.07,914.32,741.15,914.77,741.15z"/>
		<path d="M940.62,760.83v-8.9h2.72c0.51,0.15,1.24,0.31,2.19,0.5c0.95,0.18,1.94,0.36,2.96,0.53s1.94,0.3,2.74,0.4
			c0.8,0.1,1.31,0.14,1.52,0.14c0.3,0,0.67-0.02,1.12-0.06c0.45-0.04,0.74-0.13,0.86-0.26c0.32-0.32,0.67-0.74,1.06-1.26
			c0.38-0.52,0.81-1.24,1.26-2.14c0.46-0.91,0.98-2.1,1.55-3.57l-3.94-5.7l-11.49-25.6c-0.17-0.4-0.39-0.71-0.66-0.93
			c-0.27-0.21-0.56-0.39-0.88-0.54l-3.04-1.31v-2.94h20.42v2.94l-4.9,1.76l7.1,15.68l1.6,4.61h0.77l7.68-19.07l-4.71-2.98v-2.94
			h15.23v2.94l-3.04,2.27c-0.3,0.21-0.6,0.45-0.9,0.7s-0.51,0.54-0.64,0.86l-14.21,35.1c-1.24,3.03-2.67,5.32-4.3,6.86
			c-1.63,1.55-3.36,2.58-5.18,3.1c-1.82,0.52-3.63,0.78-5.42,0.78c-0.3,0-0.98-0.05-2.03-0.16s-2.13-0.24-3.22-0.4
			C941.77,761.1,941.03,760.96,940.62,760.83z"/>
		<path d="M183.38,830.27v-9.89h5.54l0.96,2.94c0.11,0.34,0.28,0.67,0.53,0.98c0.25,0.31,0.48,0.55,0.72,0.72
			c0.9,0.66,2.05,1.28,3.46,1.84c1.41,0.57,3.04,0.85,4.9,0.85c1.11,0,2.11-0.19,3.01-0.58s1.62-0.92,2.16-1.6s0.82-1.48,0.82-2.4
			c0-1.3-0.44-2.28-1.33-2.94c-0.89-0.66-2.25-1.25-4.08-1.76c-1.05-0.3-2.2-0.6-3.47-0.91c-1.27-0.31-2.41-0.6-3.41-0.88
			c-3.16-0.87-5.49-2.2-7.01-3.97c-1.52-1.77-2.27-3.76-2.27-5.98c0-2.5,0.8-4.65,2.42-6.46c1.61-1.81,3.73-3.21,6.37-4.19
			s5.49-1.47,8.56-1.47c2.75,0,5.17,0.16,7.25,0.48c2.08,0.32,3.96,0.71,5.65,1.18v10.02h-5.5l-0.96-3.2
			c-0.13-0.3-0.32-0.58-0.58-0.83s-0.5-0.46-0.74-0.61c-0.73-0.49-1.72-0.95-2.98-1.38c-1.26-0.43-2.58-0.64-3.97-0.64
			c-1.62,0-2.87,0.37-3.74,1.1c-0.88,0.74-1.31,1.64-1.31,2.7c0,1.24,0.52,2.27,1.55,3.1s2.52,1.51,4.46,2.05
			c1.11,0.3,2.26,0.6,3.46,0.91c1.19,0.31,2.28,0.61,3.26,0.91c2.99,0.9,5.22,2.17,6.7,3.82c1.48,1.65,2.22,3.7,2.22,6.13
			c0,2.88-0.84,5.24-2.53,7.07c-1.69,1.83-3.87,3.18-6.56,4.05c-2.69,0.86-5.55,1.3-8.58,1.3c-2.9,0-5.69-0.27-8.37-0.82
			S185.11,830.83,183.38,830.27z"/>
		<path d="M249.94,795.58v5.73h-12.8v19.42c0,1.04,0.38,1.96,1.14,2.75s1.65,1.4,2.67,1.84c1.02,0.44,1.91,0.66,2.66,0.66
			c0.68,0,1.57-0.03,2.66-0.1c1.09-0.06,1.9-0.14,2.43-0.22h1.57v3.3c-0.53,0.3-1.42,0.73-2.67,1.28s-2.69,1.06-4.34,1.5
			c-1.64,0.45-3.33,0.67-5.06,0.67c-2.09,0-4.04-0.3-5.84-0.91s-3.25-1.47-4.35-2.59s-1.65-2.44-1.65-3.95v-23.65h-5.86v-5.09
			c1.3-0.17,2.43-0.36,3.38-0.56s1.7-0.62,2.26-1.26c0.55-0.64,0.87-1.7,0.96-3.17l0.32-5.09l9.73-1.38v10.82H249.94z"/>
		<path d="M273.94,832.74c-3.88,0-7.3-0.74-10.24-2.21c-2.94-1.47-5.24-3.63-6.88-6.46c-1.64-2.84-2.46-6.29-2.46-10.37
			c0-3.75,0.82-7.07,2.45-9.95c1.63-2.88,3.94-5.13,6.93-6.75c2.99-1.62,6.52-2.43,10.59-2.43c4.42,0,8.07,0.85,10.96,2.56
			c2.89,1.71,5.05,4,6.48,6.88c1.43,2.88,2.14,6.07,2.14,9.57c0,3.71-0.81,7.01-2.43,9.9c-1.62,2.89-3.93,5.16-6.91,6.8
			C281.58,831.91,278.04,832.74,273.94,832.74z M274.39,827.58c1.56,0,2.85-0.39,3.87-1.17c1.02-0.78,1.83-1.82,2.43-3.12
			c0.6-1.3,1.02-2.74,1.26-4.3c0.25-1.57,0.37-3.15,0.37-4.75c0-2.58-0.27-4.97-0.82-7.17s-1.44-3.97-2.67-5.33
			c-1.24-1.35-2.89-2.03-4.96-2.03c-1.56,0-2.85,0.38-3.87,1.15c-1.02,0.77-1.83,1.79-2.43,3.07c-0.6,1.28-1.02,2.7-1.26,4.26
			c-0.25,1.56-0.37,3.13-0.37,4.7c0,1.75,0.13,3.49,0.4,5.22c0.27,1.73,0.71,3.31,1.34,4.74c0.63,1.43,1.49,2.58,2.59,3.44
			C271.38,827.15,272.75,827.58,274.39,827.58z"/>
		<path d="M299.92,831.84v-3.01l4.13-1.76c0.36-0.17,0.66-0.36,0.9-0.56c0.23-0.2,0.35-0.52,0.35-0.94v-21.02c0-1-0.06-1.67-0.18-2
			s-0.42-0.6-0.91-0.82l-4.61-2.05v-3.1l15.94-1.66v7.46h0.42c1.41-2.24,2.76-3.92,4.06-5.02s2.56-1.84,3.78-2.19
			c1.22-0.35,2.38-0.53,3.49-0.53c1.04,0,2.1,0.13,3.17,0.38c1.07,0.26,2.08,0.74,3.04,1.44v11.23h-7.94l-0.96-2.4
			c-0.15-0.36-0.49-0.78-1.01-1.26c-0.52-0.48-1.15-0.72-1.87-0.72c-0.68,0-1.33,0.09-1.94,0.27c-0.61,0.18-1.21,0.5-1.81,0.94
			c-0.6,0.45-1.24,1.06-1.92,1.82v19.23c0,0.73,0.42,1.23,1.25,1.5l5.6,1.76v3.01H299.92z"/>
		<path d="M357.11,832.67c-3.63,0-6.88-0.72-9.76-2.16c-2.88-1.44-5.16-3.56-6.83-6.35s-2.51-6.2-2.51-10.21c0-3.69,0.8-7,2.4-9.92
			s3.83-5.23,6.7-6.93c2.87-1.7,6.2-2.54,10-2.54c3.6,0,6.68,0.66,9.23,1.97c2.55,1.31,4.5,3.06,5.86,5.23
			c1.35,2.18,2.03,4.58,2.03,7.2c0,0.3-0.02,0.82-0.06,1.57c-0.04,0.75-0.09,1.48-0.13,2.21c-0.04,0.72-0.09,1.23-0.13,1.5H348.5
			v-5.31h14.72c0-1.98-0.22-3.67-0.67-5.06c-0.45-1.39-1.16-2.45-2.14-3.18c-0.98-0.74-2.29-1.1-3.94-1.1
			c-1.13,0-2.16,0.23-3.09,0.69c-0.93,0.46-1.73,1.18-2.42,2.18c-0.68,0.99-1.21,2.26-1.58,3.81c-0.37,1.55-0.56,3.41-0.56,5.58
			c0,2.77,0.36,5.17,1.07,7.2s1.97,3.59,3.78,4.7c1.8,1.11,4.35,1.66,7.63,1.66c1.66,0,3.18-0.14,4.54-0.43s2.59-0.64,3.68-1.07
			s2.03-0.83,2.82-1.22h1.79v4.35c-1.94,1.34-4.41,2.62-7.41,3.82C363.73,832.07,360.52,832.67,357.11,832.67z"/>
		<path d="M382.77,825.89c0-1.9,0.66-3.51,1.97-4.83c1.31-1.32,2.93-1.98,4.85-1.98c1.9,0,3.51,0.66,4.85,1.98
			c1.33,1.32,2,2.94,2,4.86s-0.67,3.53-2,4.82c-1.33,1.29-2.95,1.94-4.85,1.94c-1.92,0-3.54-0.65-4.85-1.94
			C383.43,829.45,382.77,827.83,382.77,825.89z"/>
	</g>
</g>
</svg>
