<?xml version="1.0" encoding="utf-8"?>
<!-- Generator: Adobe Illustrator 27.8.1, SVG Export Plug-In . SVG Version: 6.00 Build 0)  -->
<svg version="1.1" id="Layer_1" xmlns="http://www.w3.org/2000/svg" xmlns:xlink="http://www.w3.org/1999/xlink" x="0px" y="0px"
	 viewBox="0 0 1920 1080" style="enable-background:new 0 0 1920 1080;" xml:space="preserve">
<style type="text/css">
	.st0{opacity:0.6;fill:#D2E4FF;}
	.st1{fill:#2E3552;}
	.st2{fill:#000E1B;}
	.st3{fill:#B46226;}
	.st4{fill:#FFAC9C;}
	.st5{fill:#2743AB;}
	.st6{fill:#FFFFFF;}
	.st7{fill:#70D4FF;}
	.st8{fill:#BCEBFF;}
	.st9{fill:none;}
	.st10{fill:#F1ECE8;}
	.st11{fill:none;stroke:#000E1B;stroke-width:0.4695;stroke-linecap:round;stroke-linejoin:round;stroke-miterlimit:10;}
</style>
<g>
	<path class="st0" d="M94.64,1061.68c-38.12-91.51-67.5-198.04-64.65-300.44c3.39-121.59,53.84-230.57,125.94-315.68
		c65.28-77.06,146.14-135.8,238.94-146.69c48.39-5.68,96.64,1.74,144.06,13.22c40.09,9.71,91.17,32.68,130.48,9.79
		c40.02-23.31,68.24-75.04,97.88-112.95c29.5-37.76,61.72-72.38,97.95-100.7c79.91-62.47,173.6-90.7,267.65-102.33
		c155.12-19.17,316.53,4.59,439.93,126.18c60.9,60.01,108.92,144.49,100.73,242.86c-4.27,51.29-22.18,98.76-20.94,151.16
		c0.77,32.4,8.88,62.99,25.38,88.85c16.56,25.95,38.6,46.22,59.68,66.6c30.41,29.42,59.87,59.84,84.38,96.53
		c42.73,63.97,81.03,157.58,50.63,238.43c-10.97,29.17-26.61,47.46-26.61,47.46L94.64,1061.68z"/>
	<path class="st1" d="M1927.1,1065.25H14.73c-1.59,0-2.9-1.3-2.9-2.9v-0.18c0-1.59,1.3-2.9,2.9-2.9H1927.1c1.59,0,2.9,1.3,2.9,2.9
		v0.18C1930,1063.94,1928.7,1065.25,1927.1,1065.25z"/>
</g>
<g>
	<g>
		<path d="M81.15,295.04V292l5.57-2.18c0.36-0.15,0.65-0.33,0.86-0.54c0.21-0.21,0.32-0.55,0.32-1.02V253.5h-9.57
			c-0.38,0-0.69,0.1-0.91,0.3c-0.22,0.2-0.39,0.52-0.5,0.94l-1.63,7.07h-4.96v-14.27h46.43v14.27h-4.99l-1.63-7.07
			c-0.09-0.4-0.26-0.71-0.53-0.93c-0.27-0.21-0.55-0.32-0.85-0.32H99.2v34.75c0,0.47,0.12,0.82,0.37,1.06
			c0.25,0.23,0.52,0.41,0.82,0.51l5.57,2.18v3.04H81.15z"/>
		<path d="M120.83,292.03l4.1-1.76c0.45-0.19,0.77-0.38,0.96-0.58c0.19-0.19,0.29-0.5,0.29-0.93v-37.7c0-0.43-0.12-0.74-0.37-0.94
			c-0.25-0.2-0.54-0.39-0.88-0.56l-4.51-2.4v-3.1h16.54v17.22l-0.35,3.07c1.26-1.9,2.58-3.31,3.97-4.24
			c1.39-0.93,2.78-1.54,4.19-1.84c1.41-0.3,2.75-0.45,4.03-0.45c2.18,0,4.18,0.4,6.02,1.18c1.83,0.79,3.31,2.07,4.43,3.84
			c1.12,1.77,1.68,4.13,1.68,7.07v18.69c0,0.51,0.11,0.87,0.34,1.07c0.22,0.2,0.52,0.4,0.88,0.59l3.78,1.76v3.01h-20.35v-3.01
			l3.26-1.76c0.34-0.19,0.64-0.39,0.9-0.59s0.38-0.56,0.38-1.07v-14.4c0-2.13-0.17-3.89-0.51-5.26c-0.34-1.38-0.98-2.4-1.9-3.07
			c-0.93-0.67-2.27-1.01-4.02-1.01c-1,0-2.18,0.16-3.52,0.48c-1.34,0.32-2.41,1.12-3.2,2.4v21.02c0,0.43,0.11,0.73,0.34,0.9
			c0.22,0.17,0.53,0.37,0.91,0.61l3.04,1.76v3.01h-20.42V292.03z"/>
		<path d="M189.98,295.87c-3.63,0-6.88-0.72-9.76-2.16c-2.88-1.44-5.16-3.56-6.83-6.35c-1.67-2.79-2.51-6.2-2.51-10.21
			c0-3.69,0.8-7,2.4-9.92c1.6-2.92,3.83-5.23,6.7-6.93c2.87-1.7,6.2-2.54,10-2.54c3.6,0,6.68,0.66,9.23,1.97
			c2.55,1.31,4.5,3.06,5.86,5.23c1.35,2.18,2.03,4.58,2.03,7.2c0,0.3-0.02,0.82-0.06,1.57c-0.04,0.75-0.09,1.48-0.13,2.21
			c-0.04,0.73-0.09,1.23-0.13,1.5h-25.41v-5.31h14.72c0-1.98-0.22-3.67-0.67-5.06c-0.45-1.39-1.16-2.45-2.14-3.18
			c-0.98-0.74-2.29-1.1-3.94-1.1c-1.13,0-2.16,0.23-3.09,0.69c-0.93,0.46-1.73,1.18-2.42,2.18c-0.68,0.99-1.21,2.26-1.58,3.81
			c-0.37,1.55-0.56,3.41-0.56,5.58c0,2.77,0.36,5.17,1.07,7.2s1.97,3.59,3.78,4.7c1.8,1.11,4.35,1.66,7.63,1.66
			c1.66,0,3.18-0.14,4.54-0.43c1.37-0.29,2.59-0.65,3.68-1.07c1.09-0.43,2.03-0.83,2.82-1.22h1.79v4.35
			c-1.94,1.34-4.41,2.62-7.41,3.82S193.39,295.87,189.98,295.87z"/>
		<path d="M236.12,293.18v-14.11h4.99l1.6,6.05c0.11,0.41,0.34,0.77,0.69,1.09c0.35,0.32,0.75,0.62,1.2,0.9
			c0.55,0.32,1.37,0.73,2.43,1.22c1.07,0.49,2.22,0.93,3.47,1.33c1.25,0.4,2.39,0.59,3.44,0.59c2.88,0,5.25-0.58,7.12-1.74
			c1.87-1.16,2.8-2.76,2.8-4.78c0-1.9-0.58-3.24-1.74-4.03c-1.16-0.79-2.73-1.58-4.69-2.37c-1.92-0.75-3.81-1.38-5.68-1.89
			c-1.87-0.51-3.69-1.1-5.46-1.76c-2.71-1.04-4.92-2.58-6.64-4.59c-1.72-2.02-2.58-4.67-2.58-7.95c0-3.01,0.9-5.61,2.7-7.81
			c1.8-2.2,4.15-3.89,7.04-5.09c2.89-1.19,5.97-1.79,9.23-1.79c1.86,0,3.78,0.11,5.78,0.34c1.99,0.22,3.91,0.5,5.74,0.83
			c1.83,0.33,3.43,0.65,4.8,0.94v13.73h-4.99l-1.63-5.86c-0.11-0.32-0.31-0.63-0.62-0.93s-0.6-0.53-0.88-0.7
			c-0.32-0.19-0.92-0.48-1.79-0.86c-0.88-0.38-1.87-0.73-2.98-1.04c-1.11-0.31-2.19-0.46-3.23-0.46c-2.79,0-4.89,0.59-6.29,1.76
			c-1.4,1.17-2.1,2.45-2.1,3.84c0,1.49,0.48,2.75,1.46,3.78c0.97,1.02,2.79,1.97,5.46,2.85c1.77,0.6,3.52,1.15,5.25,1.65
			c1.73,0.5,3.62,1.16,5.66,1.97c1.71,0.66,3.27,1.49,4.69,2.5c1.42,1,2.56,2.28,3.42,3.82c0.86,1.55,1.3,3.48,1.3,5.81
			c0,2.82-0.78,5.42-2.34,7.82c-1.56,2.4-3.92,4.33-7.07,5.79s-7.16,2.19-12,2.19c-1.58,0-3.4-0.15-5.46-0.46
			c-2.06-0.31-4.15-0.69-6.27-1.15C239.84,294.12,237.9,293.65,236.12,293.18z"/>
		<path d="M300.6,295.87c-3.63,0-6.88-0.72-9.76-2.16c-2.88-1.44-5.16-3.56-6.83-6.35c-1.67-2.79-2.51-6.2-2.51-10.21
			c0-3.69,0.8-7,2.4-9.92c1.6-2.92,3.83-5.23,6.7-6.93c2.87-1.7,6.2-2.54,10-2.54c3.6,0,6.68,0.66,9.23,1.97
			c2.55,1.31,4.5,3.06,5.86,5.23c1.35,2.18,2.03,4.58,2.03,7.2c0,0.3-0.02,0.82-0.06,1.57c-0.04,0.75-0.09,1.48-0.13,2.21
			c-0.04,0.73-0.09,1.23-0.13,1.5H292v-5.31h14.72c0-1.98-0.22-3.67-0.67-5.06c-0.45-1.39-1.16-2.45-2.14-3.18
			c-0.98-0.74-2.29-1.1-3.94-1.1c-1.13,0-2.16,0.23-3.09,0.69c-0.93,0.46-1.73,1.18-2.42,2.18c-0.68,0.99-1.21,2.26-1.58,3.81
			c-0.37,1.55-0.56,3.41-0.56,5.58c0,2.77,0.36,5.17,1.07,7.2s1.97,3.59,3.78,4.7c1.8,1.11,4.35,1.66,7.63,1.66
			c1.66,0,3.18-0.14,4.54-0.43c1.37-0.29,2.59-0.65,3.68-1.07c1.09-0.43,2.03-0.83,2.82-1.22h1.79v4.35
			c-1.94,1.34-4.41,2.62-7.41,3.82S304.02,295.87,300.6,295.87z"/>
		<path d="M322.33,295.04v-3.01l5.34-1.92c0.41-0.15,0.72-0.33,0.94-0.54c0.22-0.21,0.34-0.53,0.34-0.96v-37.54
			c0-0.43-0.14-0.75-0.42-0.98c-0.28-0.22-0.57-0.4-0.86-0.53l-5.66-2.4v-3.1h17.7v44.54c0,0.43,0.14,0.76,0.42,0.99
			c0.28,0.23,0.56,0.41,0.86,0.51l5.28,1.92v3.01H322.33z"/>
		<path d="M350.72,295.04v-3.01l4.77-1.92c0.38-0.17,0.69-0.36,0.93-0.56c0.23-0.2,0.35-0.52,0.35-0.94V266.5h-6.75v-5.73h6.88
			c0.38-3.84,1.44-7.04,3.18-9.6c1.74-2.56,3.91-4.48,6.51-5.76c2.6-1.28,5.41-1.92,8.42-1.92c0.94,0,2.17,0.07,3.7,0.21
			c1.52,0.14,2.81,0.3,3.86,0.5v8.8h-2.5c-0.7-0.3-1.66-0.62-2.86-0.98c-1.21-0.35-2.41-0.66-3.6-0.91
			c-1.2-0.26-2.14-0.38-2.85-0.38c-0.58,0-1.05,0.07-1.41,0.22c-0.36,0.15-0.66,0.42-0.9,0.8c-0.32,0.51-0.55,1.55-0.69,3.12
			c-0.14,1.57-0.22,3.54-0.24,5.9h10.3v5.73h-10.27v22.11c0,0.43,0.12,0.75,0.37,0.98c0.25,0.22,0.54,0.4,0.88,0.53l5.6,1.92v3.01
			H350.72z"/>
		<path d="M445.47,284.06h2.66v4.86c-1.28,1.05-2.86,2.12-4.75,3.22c-1.89,1.1-3.97,2.03-6.24,2.78c-2.27,0.76-4.66,1.14-7.15,1.14
			c-4.93,0-9.24-0.99-12.94-2.96c-3.7-1.97-6.58-4.8-8.64-8.48c-2.06-3.68-3.09-8.09-3.09-13.23c0-5.08,1.07-9.48,3.2-13.2
			c2.13-3.72,5.07-6.6,8.82-8.64c3.74-2.04,8.03-3.06,12.85-3.06c1.75,0,3.7,0.14,5.86,0.42c2.15,0.28,4.23,0.6,6.24,0.98
			c2,0.37,3.66,0.71,4.96,1.01v13.41h-4.93l-1.66-6.34c-0.06-0.26-0.27-0.53-0.62-0.82c-0.35-0.29-0.65-0.5-0.88-0.62
			c-1.11-0.62-2.24-1.14-3.39-1.57c-1.15-0.43-2.47-0.64-3.97-0.64c-4.33,0-7.8,1.44-10.4,4.3c-2.6,2.87-3.9,7.26-3.9,13.17
			c0,6.17,1.42,10.85,4.27,14.05c2.85,3.2,6.71,4.8,11.6,4.8c1.92,0,3.65-0.26,5.2-0.78c1.55-0.52,2.9-1.14,4.06-1.86
			C443.77,285.29,444.72,284.64,445.47,284.06z"/>
		<path d="M453.21,292.03l4.1-1.76c0.45-0.19,0.77-0.38,0.96-0.58c0.19-0.19,0.29-0.5,0.29-0.93v-37.7c0-0.43-0.12-0.74-0.37-0.94
			c-0.25-0.2-0.54-0.39-0.88-0.56l-4.51-2.4v-3.1h16.54v17.22l-0.35,3.07c1.26-1.9,2.58-3.31,3.97-4.24
			c1.39-0.93,2.78-1.54,4.19-1.84c1.41-0.3,2.75-0.45,4.03-0.45c2.18,0,4.18,0.4,6.02,1.18c1.83,0.79,3.31,2.07,4.43,3.84
			c1.12,1.77,1.68,4.13,1.68,7.07v18.69c0,0.51,0.11,0.87,0.34,1.07c0.22,0.2,0.52,0.4,0.88,0.59l3.78,1.76v3.01h-20.35v-3.01
			l3.26-1.76c0.34-0.19,0.64-0.39,0.9-0.59s0.38-0.56,0.38-1.07v-14.4c0-2.13-0.17-3.89-0.51-5.26c-0.34-1.38-0.98-2.4-1.9-3.07
			c-0.93-0.67-2.27-1.01-4.02-1.01c-1,0-2.18,0.16-3.52,0.48c-1.34,0.32-2.41,1.12-3.2,2.4v21.02c0,0.43,0.11,0.73,0.34,0.9
			c0.22,0.17,0.53,0.37,0.91,0.61l3.04,1.76v3.01h-20.42V292.03z"/>
		<path d="M522.36,295.87c-3.63,0-6.88-0.72-9.76-2.16c-2.88-1.44-5.16-3.56-6.83-6.35c-1.67-2.79-2.51-6.2-2.51-10.21
			c0-3.69,0.8-7,2.4-9.92c1.6-2.92,3.83-5.23,6.7-6.93c2.87-1.7,6.2-2.54,10-2.54c3.6,0,6.68,0.66,9.23,1.97
			c2.55,1.31,4.5,3.06,5.86,5.23c1.35,2.18,2.03,4.58,2.03,7.2c0,0.3-0.02,0.82-0.06,1.57c-0.04,0.75-0.09,1.48-0.13,2.21
			c-0.04,0.73-0.09,1.23-0.13,1.5h-25.41v-5.31h14.72c0-1.98-0.22-3.67-0.67-5.06c-0.45-1.39-1.16-2.45-2.14-3.18
			c-0.98-0.74-2.29-1.1-3.94-1.1c-1.13,0-2.16,0.23-3.09,0.69c-0.93,0.46-1.73,1.18-2.42,2.18c-0.68,0.99-1.21,2.26-1.58,3.81
			c-0.37,1.55-0.56,3.41-0.56,5.58c0,2.77,0.36,5.17,1.07,7.2s1.97,3.59,3.78,4.7c1.8,1.11,4.35,1.66,7.63,1.66
			c1.66,0,3.18-0.14,4.54-0.43c1.37-0.29,2.59-0.65,3.68-1.07c1.09-0.43,2.03-0.83,2.82-1.22h1.79v4.35
			c-1.94,1.34-4.41,2.62-7.41,3.82S525.77,295.87,522.36,295.87z"/>
		<path d="M576.28,285.63h1.79v4.67c-1.83,1.34-3.93,2.61-6.29,3.79c-2.36,1.18-5.19,1.78-8.5,1.78c-3.75,0-6.98-0.79-9.66-2.37
			c-2.69-1.58-4.74-3.76-6.16-6.56c-1.42-2.79-2.13-6.02-2.13-9.66c0-2.92,0.59-5.57,1.76-7.95c1.17-2.38,2.75-4.43,4.72-6.14
			s4.17-3.04,6.59-3.97c2.42-0.93,4.87-1.39,7.34-1.39c1.88,0,3.53,0.17,4.94,0.51c1.42,0.34,2.63,0.73,3.63,1.17
			c1,0.44,1.8,0.78,2.4,1.04v9.12h-2.5c-1.15-0.75-2.44-1.58-3.87-2.5c-1.43-0.92-2.9-1.71-4.4-2.38c-1.5-0.67-2.97-1.01-4.4-1.01
			c-0.51,0-0.98,0.11-1.39,0.32s-0.81,0.57-1.17,1.06c-0.36,0.49-0.74,1.24-1.14,2.26c-0.4,1.01-0.73,2.25-0.99,3.71
			c-0.27,1.46-0.4,3.12-0.4,4.98c0,4.03,0.94,7.13,2.82,9.28c1.88,2.16,4.56,3.23,8.06,3.23c1.11,0,2.2-0.14,3.26-0.42
			c1.07-0.28,2.08-0.64,3.04-1.09C574.62,286.66,575.49,286.17,576.28,285.63z"/>
		<path d="M581.82,295.04v-3.01l4.1-1.76c0.4-0.17,0.72-0.36,0.94-0.56c0.22-0.2,0.34-0.52,0.34-0.94v-37.54
			c0-0.45-0.12-0.79-0.37-1.04c-0.25-0.24-0.54-0.45-0.88-0.62l-4.48-2.4v-3.1h16.51v32.83l12.8-12.77l-3.74-2.4v-2.94h17.02v2.94
			l-4.22,1.89c-0.45,0.19-0.87,0.41-1.26,0.66c-0.39,0.25-0.82,0.56-1.26,0.94l-7.74,6.82l11.36,17.06
			c0.23,0.34,0.57,0.65,1.01,0.91c0.44,0.27,0.82,0.48,1.14,0.62l3.33,1.41v3.01H607.7v-3.01l1.76-1.57l-7.78-11.71l-3.84,1.34v8.67
			c0,0.43,0.12,0.74,0.35,0.94c0.23,0.2,0.52,0.39,0.86,0.56l3.42,1.76v3.01H581.82z"/>
		<path d="M649.11,295.94c-3.88,0-7.3-0.74-10.24-2.21c-2.94-1.47-5.24-3.63-6.88-6.46c-1.64-2.84-2.46-6.29-2.46-10.37
			c0-3.75,0.82-7.07,2.45-9.95c1.63-2.88,3.94-5.13,6.93-6.75c2.99-1.62,6.52-2.43,10.59-2.43c4.42,0,8.07,0.85,10.96,2.56
			c2.89,1.71,5.05,4,6.48,6.88c1.43,2.88,2.14,6.07,2.14,9.57c0,3.71-0.81,7.01-2.43,9.9c-1.62,2.89-3.93,5.16-6.91,6.8
			C656.75,295.11,653.21,295.94,649.11,295.94z M649.56,290.78c1.56,0,2.85-0.39,3.87-1.17c1.02-0.78,1.83-1.82,2.43-3.12
			c0.6-1.3,1.02-2.74,1.26-4.3c0.25-1.57,0.37-3.15,0.37-4.75c0-2.58-0.27-4.97-0.82-7.17c-0.54-2.2-1.44-3.97-2.67-5.33
			c-1.24-1.35-2.89-2.03-4.96-2.03c-1.56,0-2.85,0.38-3.87,1.15s-1.83,1.79-2.43,3.07c-0.6,1.28-1.02,2.7-1.26,4.26
			c-0.25,1.56-0.37,3.13-0.37,4.7c0,1.75,0.13,3.49,0.4,5.22c0.27,1.73,0.71,3.31,1.34,4.74c0.63,1.43,1.49,2.58,2.59,3.44
			C646.55,290.35,647.92,290.78,649.56,290.78z"/>
		<path d="M690.93,295.71c-2.18,0-4.15-0.41-5.94-1.23c-1.78-0.82-3.21-2.12-4.27-3.9c-1.07-1.78-1.6-4.09-1.6-6.93v-17.5
			c0-0.45-0.13-0.78-0.38-0.99c-0.26-0.21-0.53-0.38-0.83-0.51l-4.13-1.76v-3.1l16.16-1.66v21.28c0,1.96,0.14,3.64,0.43,5.04
			c0.29,1.4,0.87,2.46,1.74,3.18c0.87,0.73,2.19,1.09,3.94,1.09c1.86,0,3.32-0.25,4.38-0.74c1.07-0.49,1.9-1.19,2.5-2.11v-19.71
			c0-0.45-0.12-0.77-0.37-0.98c-0.25-0.2-0.55-0.38-0.91-0.53l-4.06-1.76v-3.1l16.13-1.66v29.57c0,0.45,0.12,0.77,0.37,0.98
			s0.54,0.38,0.88,0.53l4.1,1.76v3.1l-15.39,1.63v-5.95h-0.48c-1.41,1.75-3.01,3.18-4.82,4.3
			C696.57,295.15,694.09,295.71,690.93,295.71z"/>
		<path d="M752.02,258.78v5.73h-12.8v19.42c0,1.05,0.38,1.96,1.14,2.75c0.76,0.79,1.65,1.4,2.67,1.84c1.02,0.44,1.91,0.66,2.66,0.66
			c0.68,0,1.57-0.03,2.66-0.1c1.09-0.06,1.9-0.14,2.43-0.22h1.57v3.3c-0.53,0.3-1.42,0.73-2.67,1.28c-1.25,0.56-2.69,1.06-4.34,1.5
			c-1.64,0.45-3.33,0.67-5.06,0.67c-2.09,0-4.04-0.3-5.84-0.91s-3.25-1.47-4.35-2.59c-1.1-1.12-1.65-2.44-1.65-3.95v-23.65h-5.86
			v-5.09c1.3-0.17,2.43-0.36,3.38-0.56s1.7-0.62,2.26-1.26s0.87-1.7,0.96-3.17l0.32-5.09l9.73-1.38v10.82H752.02z"/>
		<path d="M85.05,381.76l-11.39-30.72c-0.13-0.36-0.32-0.68-0.58-0.94c-0.26-0.27-0.58-0.48-0.96-0.66l-2.75-1.31v-2.94h19.68v2.94
			l-4.93,1.76l5.5,15.68l1.31,5.44h0.7l6.05-18.43l3.04-7.39h6.3l7.42,20.19l1.5,5.63h0.74l6.4-19.9l-4.58-2.98v-2.94h14.98v2.94
			l-2.91,2.27c-0.32,0.23-0.64,0.49-0.96,0.77c-0.32,0.28-0.53,0.59-0.64,0.93l-7.62,22.27l-3.52,7.39h-7.62l-6.98-18.18l-1.15-5.15
			h-0.58l-5.25,15.94l-3.42,7.39H85.05z"/>
		<path d="M148.54,382.11c-2.26,0-4.2-0.51-5.81-1.52c-1.61-1.01-2.84-2.32-3.7-3.92c-0.85-1.6-1.28-3.29-1.28-5.06
			c0-2.3,0.55-4.28,1.66-5.94c1.11-1.65,2.54-3,4.29-4.03c1.75-1.03,3.62-1.8,5.6-2.29c1.98-0.49,3.84-0.74,5.57-0.74
			c0.34,0,0.93,0.04,1.78,0.11c0.84,0.08,1.69,0.16,2.54,0.26c0.85,0.1,1.43,0.17,1.73,0.21v-2.72c0-2.35-0.4-4.14-1.2-5.38
			c-0.8-1.24-2.22-1.86-4.27-1.86c-0.92,0-1.96,0.26-3.12,0.78c-1.16,0.52-2.34,1.16-3.52,1.9c-1.18,0.75-2.28,1.48-3.3,2.21
			c-1.01,0.73-1.84,1.28-2.48,1.66h-2.5v-8.74c1.62-0.47,3.22-0.93,4.78-1.38c1.57-0.45,3.27-0.82,5.12-1.1
			c1.84-0.29,3.98-0.43,6.42-0.43c2.54,0,4.94,0.31,7.2,0.93c2.26,0.62,4.11,1.77,5.54,3.44c1.43,1.68,2.14,4.1,2.14,7.28v17.5
			c0,0.88,0.27,1.58,0.82,2.13s1.14,0.82,1.78,0.82c0.49,0,1.02-0.05,1.6-0.14c0.58-0.1,1.12-0.21,1.63-0.34h1.25v3.42
			c-0.6,0.38-1.42,0.81-2.46,1.26c-1.05,0.46-2.13,0.85-3.26,1.17c-1.13,0.32-2.16,0.48-3.07,0.48c-2.84,0-4.94-0.5-6.3-1.5
			c-1.37-1-2.05-2.55-2.05-4.64h-0.51c-1.17,1.77-2.5,3.1-3.97,3.98c-1.47,0.89-2.96,1.47-4.46,1.74
			C151.21,381.97,149.82,382.11,148.54,382.11z M154.24,375.74c1.09,0,2.28-0.26,3.57-0.77c1.29-0.51,2.33-1.38,3.12-2.59v-8.8
			c-2.37,0-4.45,0.19-6.26,0.58c-1.8,0.38-3.21,1.06-4.21,2.03c-1,0.97-1.5,2.34-1.5,4.11c0,1.43,0.28,2.54,0.85,3.33
			c0.56,0.79,1.26,1.34,2.08,1.65C152.71,375.59,153.49,375.74,154.24,375.74z"/>
		<path d="M182.88,379.87v-9.89h5.54l0.96,2.94c0.11,0.34,0.28,0.67,0.53,0.98c0.25,0.31,0.48,0.55,0.72,0.72
			c0.9,0.66,2.05,1.27,3.46,1.84c1.41,0.57,3.04,0.85,4.9,0.85c1.11,0,2.11-0.19,3.01-0.58c0.9-0.38,1.62-0.92,2.16-1.6
			c0.54-0.68,0.82-1.48,0.82-2.4c0-1.3-0.44-2.28-1.33-2.94c-0.89-0.66-2.25-1.25-4.08-1.76c-1.05-0.3-2.2-0.6-3.47-0.91
			c-1.27-0.31-2.41-0.6-3.41-0.88c-3.16-0.87-5.49-2.2-7.01-3.97c-1.52-1.77-2.27-3.77-2.27-5.98c0-2.5,0.8-4.65,2.42-6.46
			c1.61-1.81,3.73-3.21,6.37-4.19c2.63-0.98,5.49-1.47,8.56-1.47c2.75,0,5.17,0.16,7.25,0.48c2.08,0.32,3.96,0.71,5.65,1.18v10.02
			h-5.5l-0.96-3.2c-0.13-0.3-0.32-0.58-0.58-0.83c-0.26-0.26-0.5-0.46-0.74-0.61c-0.73-0.49-1.72-0.95-2.98-1.38
			c-1.26-0.43-2.58-0.64-3.97-0.64c-1.62,0-2.87,0.37-3.74,1.1c-0.88,0.74-1.31,1.64-1.31,2.7c0,1.24,0.52,2.27,1.55,3.1
			c1.03,0.83,2.52,1.52,4.46,2.05c1.11,0.3,2.26,0.6,3.46,0.91c1.19,0.31,2.28,0.61,3.26,0.91c2.99,0.9,5.22,2.17,6.7,3.82
			c1.48,1.65,2.22,3.7,2.22,6.13c0,2.88-0.84,5.24-2.53,7.07c-1.69,1.84-3.87,3.18-6.56,4.05c-2.69,0.86-5.55,1.3-8.58,1.3
			c-2.9,0-5.69-0.27-8.37-0.82S184.61,380.43,182.88,379.87z"/>
		<path d="M259.2,381.76l-13.12-30.72c-0.17-0.43-0.41-0.77-0.7-1.02c-0.3-0.26-0.58-0.45-0.83-0.58l-2.75-1.31v-2.94h19.97v2.94
			l-4.96,1.76l7.04,15.94l1.44,5.25h0.67l8.06-19.97l-4.51-2.98v-2.94h14.94v2.94l-2.94,2.27c-0.28,0.21-0.58,0.47-0.91,0.77
			c-0.33,0.3-0.56,0.61-0.69,0.93l-9.38,22.27l-3.58,7.39H259.2z"/>
		<path d="M307.32,382.27c-3.63,0-6.88-0.72-9.76-2.16c-2.88-1.44-5.16-3.56-6.83-6.35c-1.67-2.79-2.51-6.2-2.51-10.21
			c0-3.69,0.8-7,2.4-9.92c1.6-2.92,3.83-5.23,6.7-6.93c2.87-1.7,6.2-2.54,10-2.54c3.6,0,6.68,0.66,9.23,1.97
			c2.55,1.31,4.5,3.06,5.86,5.23c1.35,2.18,2.03,4.58,2.03,7.2c0,0.3-0.02,0.82-0.06,1.57c-0.04,0.75-0.09,1.48-0.13,2.21
			c-0.04,0.73-0.09,1.23-0.13,1.5h-25.41v-5.31h14.72c0-1.98-0.22-3.67-0.67-5.06c-0.45-1.39-1.16-2.45-2.14-3.18
			c-0.98-0.74-2.29-1.1-3.94-1.1c-1.13,0-2.16,0.23-3.09,0.69c-0.93,0.46-1.73,1.18-2.42,2.18c-0.68,0.99-1.21,2.26-1.58,3.81
			c-0.37,1.55-0.56,3.41-0.56,5.58c0,2.77,0.36,5.17,1.07,7.2s1.97,3.59,3.78,4.7c1.8,1.11,4.35,1.66,7.63,1.66
			c1.66,0,3.18-0.14,4.54-0.43c1.37-0.29,2.59-0.65,3.68-1.07c1.09-0.43,2.03-0.83,2.82-1.22h1.79v4.35
			c-1.94,1.34-4.41,2.62-7.41,3.82S310.74,382.27,307.32,382.27z"/>
		<path d="M330.14,381.44v-3.01l4.13-1.76c0.36-0.17,0.66-0.36,0.9-0.56c0.23-0.2,0.35-0.52,0.35-0.94v-21.02c0-1-0.06-1.67-0.18-2
			c-0.12-0.33-0.42-0.6-0.91-0.82l-4.61-2.05v-3.1l15.94-1.66v7.46h0.42c1.41-2.24,2.76-3.91,4.06-5.02
			c1.3-1.11,2.56-1.84,3.78-2.19c1.22-0.35,2.38-0.53,3.49-0.53c1.04,0,2.1,0.13,3.17,0.38c1.07,0.26,2.08,0.74,3.04,1.44v11.23
			h-7.94l-0.96-2.4c-0.15-0.36-0.49-0.78-1.01-1.26c-0.52-0.48-1.15-0.72-1.87-0.72c-0.68,0-1.33,0.09-1.94,0.27
			c-0.61,0.18-1.21,0.5-1.81,0.94c-0.6,0.45-1.24,1.06-1.92,1.82v19.23c0,0.73,0.42,1.23,1.25,1.5l5.6,1.76v3.01H330.14z"/>
		<path d="M367.93,396.83v-8.9h2.72c0.51,0.15,1.24,0.31,2.19,0.5c0.95,0.18,1.94,0.36,2.96,0.53c1.02,0.17,1.94,0.3,2.74,0.4
			c0.8,0.1,1.31,0.14,1.52,0.14c0.3,0,0.67-0.02,1.12-0.06c0.45-0.04,0.74-0.13,0.86-0.26c0.32-0.32,0.67-0.74,1.06-1.26
			c0.38-0.52,0.81-1.24,1.26-2.14c0.46-0.91,0.98-2.1,1.55-3.57l-3.94-5.7l-11.49-25.6c-0.17-0.41-0.39-0.71-0.66-0.93
			c-0.27-0.21-0.56-0.39-0.88-0.54l-3.04-1.31v-2.94h20.42v2.94l-4.9,1.76l7.1,15.68l1.6,4.61h0.77l7.68-19.07l-4.7-2.98v-2.94
			h15.23v2.94l-3.04,2.27c-0.3,0.21-0.6,0.45-0.9,0.7c-0.3,0.26-0.51,0.54-0.64,0.86l-14.21,35.1c-1.24,3.03-2.67,5.32-4.3,6.86
			c-1.63,1.55-3.36,2.58-5.18,3.1c-1.82,0.52-3.63,0.78-5.42,0.78c-0.3,0-0.98-0.05-2.03-0.16c-1.06-0.11-2.13-0.24-3.22-0.4
			C369.08,397.1,368.34,396.96,367.93,396.83z"/>
		<path d="M455.04,397.82v-2.98l5.38-1.92c0.36-0.13,0.66-0.29,0.88-0.48c0.22-0.19,0.34-0.51,0.34-0.96V378.4l0.35-2.94
			c-1.34,2.11-2.8,3.61-4.37,4.5c-1.57,0.89-3.05,1.41-4.45,1.58c-1.4,0.17-2.51,0.26-3.34,0.26c-3.03,0-5.63-0.75-7.79-2.26
			c-2.17-1.5-3.83-3.56-4.99-6.18c-1.16-2.61-1.74-5.57-1.74-8.88c0-3.75,0.82-7.17,2.45-10.24c1.63-3.07,4-5.52,7.1-7.34
			c3.1-1.82,6.86-2.74,11.28-2.74c3.43,0,6.48,0.35,9.14,1.06c2.66,0.7,5.04,1.55,7.15,2.53v43.81c0,0.45,0.12,0.76,0.37,0.93
			c0.25,0.17,0.56,0.34,0.94,0.51l4.29,1.86v2.98H455.04z M455.23,375.36c0.6,0,1.3-0.1,2.11-0.3c0.81-0.2,1.6-0.53,2.38-0.98
			c0.78-0.45,1.41-1.06,1.9-1.82v-20.03c-0.83-0.98-1.82-1.66-2.96-2.03c-1.14-0.37-2.21-0.56-3.22-0.56
			c-2.05,0-3.73,0.58-5.04,1.74c-1.31,1.16-2.28,2.71-2.9,4.66c-0.62,1.94-0.93,4.06-0.93,6.37c0,2.45,0.29,4.66,0.86,6.61
			c0.58,1.95,1.5,3.5,2.77,4.64C451.49,374.79,453.16,375.36,455.23,375.36z"/>
		<path d="M497.88,382.11c-2.18,0-4.15-0.41-5.94-1.23c-1.78-0.82-3.21-2.12-4.27-3.9c-1.07-1.78-1.6-4.09-1.6-6.93v-17.5
			c0-0.45-0.13-0.78-0.38-0.99c-0.26-0.21-0.53-0.38-0.83-0.51l-4.13-1.76v-3.1l16.16-1.66v21.28c0,1.96,0.14,3.64,0.43,5.04
			c0.29,1.4,0.87,2.46,1.74,3.18c0.87,0.73,2.19,1.09,3.94,1.09c1.86,0,3.32-0.25,4.38-0.74c1.07-0.49,1.9-1.19,2.5-2.11v-19.71
			c0-0.45-0.12-0.77-0.37-0.98c-0.25-0.2-0.55-0.38-0.91-0.53l-4.06-1.76v-3.1l16.13-1.66v29.57c0,0.45,0.12,0.77,0.37,0.98
			s0.54,0.38,0.88,0.53l4.1,1.76v3.1l-15.39,1.63v-5.95h-0.48c-1.41,1.75-3.01,3.18-4.82,4.3
			C503.52,381.55,501.04,382.11,497.88,382.11z"/>
		<path d="M530.62,381.44v-3.01l5.31-1.92c0.41-0.15,0.73-0.33,0.96-0.54c0.23-0.21,0.35-0.53,0.35-0.96v-21.76
			c0-0.43-0.12-0.75-0.37-0.96c-0.25-0.21-0.55-0.39-0.91-0.54l-5.28-2.08v-3.1l17.34-0.67v29.12c0,0.43,0.13,0.76,0.38,0.99
			c0.26,0.23,0.54,0.41,0.86,0.51l5.31,1.92v3.01H530.62z M541.98,341.12c-1.09,0-2.16-0.26-3.22-0.78
			c-1.06-0.52-1.94-1.23-2.64-2.11c-0.7-0.89-1.06-1.87-1.06-2.96c0-1.77,0.7-3.11,2.1-4.02s3-1.36,4.82-1.36
			c2.13,0,3.86,0.41,5.18,1.23s1.98,2.06,1.98,3.73c0,1.17-0.34,2.23-1.02,3.18c-0.68,0.95-1.57,1.7-2.67,2.26
			S543.19,341.12,541.98,341.12z"/>
		<path d="M590.27,372.03h1.79v4.67c-1.83,1.34-3.93,2.61-6.29,3.79c-2.36,1.18-5.19,1.78-8.5,1.78c-3.75,0-6.98-0.79-9.66-2.37
			c-2.69-1.58-4.74-3.76-6.16-6.56c-1.42-2.79-2.13-6.02-2.13-9.66c0-2.92,0.59-5.57,1.76-7.95c1.17-2.38,2.75-4.43,4.72-6.14
			s4.17-3.04,6.59-3.97c2.42-0.93,4.87-1.39,7.34-1.39c1.88,0,3.53,0.17,4.94,0.51c1.42,0.34,2.63,0.73,3.63,1.17
			c1,0.44,1.8,0.78,2.4,1.04v9.12h-2.5c-1.15-0.75-2.44-1.58-3.87-2.5c-1.43-0.92-2.9-1.71-4.4-2.38c-1.5-0.67-2.97-1.01-4.4-1.01
			c-0.51,0-0.98,0.11-1.39,0.32s-0.81,0.57-1.17,1.06c-0.36,0.49-0.74,1.24-1.14,2.26c-0.4,1.01-0.73,2.25-0.99,3.71
			c-0.27,1.46-0.4,3.12-0.4,4.98c0,4.03,0.94,7.13,2.82,9.28c1.88,2.16,4.56,3.23,8.06,3.23c1.11,0,2.2-0.14,3.26-0.42
			c1.07-0.28,2.08-0.64,3.04-1.09C588.6,373.06,589.48,372.56,590.27,372.03z"/>
		<path d="M595.8,381.44v-3.01l4.1-1.76c0.4-0.17,0.72-0.36,0.94-0.56c0.22-0.2,0.34-0.52,0.34-0.94v-37.54
			c0-0.45-0.12-0.79-0.37-1.04c-0.25-0.24-0.54-0.45-0.88-0.62l-4.48-2.4v-3.1h16.51v32.83l12.8-12.77l-3.74-2.4v-2.94h17.02v2.94
			l-4.22,1.89c-0.45,0.19-0.87,0.41-1.26,0.66c-0.39,0.25-0.82,0.56-1.26,0.94l-7.74,6.82l11.36,17.06
			c0.23,0.34,0.57,0.65,1.01,0.91c0.44,0.27,0.82,0.48,1.14,0.62l3.33,1.41v3.01h-18.69v-3.01l1.76-1.57l-7.78-11.71l-3.84,1.34
			v8.67c0,0.43,0.12,0.74,0.35,0.94c0.23,0.2,0.52,0.39,0.86,0.56l3.42,1.76v3.01H595.8z"/>
		<path d="M686.17,382.34c-3.35,0-6.4-0.34-9.14-1.01c-2.74-0.67-5.3-1.53-7.66-2.58v-41.28c0-0.43-0.13-0.74-0.4-0.93
			s-0.55-0.38-0.85-0.58l-4.51-2.4v-3.1h16.51v17.15l-0.32,3.52c1.22-2.13,2.62-3.68,4.21-4.66c1.59-0.97,3.11-1.59,4.58-1.86
			c1.46-0.27,2.6-0.4,3.41-0.4c3.03,0,5.62,0.76,7.78,2.29c2.15,1.53,3.8,3.61,4.94,6.26c1.14,2.65,1.71,5.65,1.71,9.02
			c0,3.71-0.78,7.13-2.34,10.24c-1.56,3.12-3.84,5.61-6.85,7.49C694.23,381.4,690.54,382.34,686.17,382.34z M686.36,377.15
			c2.07,0,3.75-0.59,5.04-1.78c1.29-1.18,2.25-2.77,2.86-4.75c0.62-1.98,0.93-4.17,0.93-6.56c0-2.52-0.29-4.78-0.88-6.8
			c-0.59-2.02-1.52-3.61-2.78-4.78c-1.27-1.17-2.94-1.76-5.01-1.76c-0.92,0-2.01,0.24-3.26,0.72s-2.3,1.4-3.14,2.77v20.45
			c0.55,0.62,1.24,1.11,2.05,1.47c0.81,0.36,1.6,0.62,2.37,0.78C685.3,377.07,685.91,377.15,686.36,377.15z"/>
		<path d="M728.28,382.11c-2.18,0-4.15-0.41-5.94-1.23c-1.78-0.82-3.21-2.12-4.27-3.9c-1.07-1.78-1.6-4.09-1.6-6.93v-17.5
			c0-0.45-0.13-0.78-0.38-0.99c-0.26-0.21-0.53-0.38-0.83-0.51l-4.13-1.76v-3.1l16.16-1.66v21.28c0,1.96,0.14,3.64,0.43,5.04
			c0.29,1.4,0.87,2.46,1.74,3.18c0.87,0.73,2.19,1.09,3.94,1.09c1.86,0,3.32-0.25,4.38-0.74c1.07-0.49,1.9-1.19,2.5-2.11v-19.71
			c0-0.45-0.12-0.77-0.37-0.98c-0.25-0.2-0.55-0.38-0.91-0.53l-4.06-1.76v-3.1l16.13-1.66v29.57c0,0.45,0.12,0.77,0.37,0.98
			s0.54,0.38,0.88,0.53l4.1,1.76v3.1l-15.39,1.63v-5.95h-0.48c-1.41,1.75-3.01,3.18-4.82,4.3
			C733.92,381.55,731.44,382.11,728.28,382.11z"/>
		<path d="M789.37,345.18v5.73h-12.8v19.42c0,1.05,0.38,1.96,1.14,2.75c0.76,0.79,1.65,1.4,2.67,1.84c1.02,0.44,1.91,0.66,2.66,0.66
			c0.68,0,1.57-0.03,2.66-0.1c1.09-0.06,1.9-0.14,2.43-0.22h1.57v3.3c-0.53,0.3-1.42,0.73-2.67,1.28c-1.25,0.56-2.69,1.06-4.34,1.5
			c-1.64,0.45-3.33,0.67-5.06,0.67c-2.09,0-4.04-0.3-5.84-0.91s-3.25-1.47-4.35-2.59c-1.1-1.12-1.65-2.44-1.65-3.95v-23.65h-5.86
			v-5.09c1.3-0.17,2.43-0.36,3.38-0.56s1.7-0.62,2.26-1.26s0.87-1.7,0.96-3.17l0.32-5.09l9.73-1.38v10.82H789.37z"/>
		<path d="M99.26,431.58v5.73h-12.8v19.42c0,1.05,0.38,1.96,1.14,2.75c0.76,0.79,1.65,1.4,2.67,1.84c1.02,0.44,1.91,0.66,2.66,0.66
			c0.68,0,1.57-0.03,2.66-0.1c1.09-0.06,1.9-0.14,2.43-0.22h1.57v3.3c-0.53,0.3-1.42,0.73-2.67,1.28c-1.25,0.56-2.69,1.06-4.34,1.5
			c-1.64,0.45-3.33,0.67-5.06,0.67c-2.09,0-4.04-0.3-5.84-0.91s-3.25-1.47-4.35-2.59c-1.1-1.12-1.65-2.44-1.65-3.95v-23.65h-5.86
			v-5.09c1.3-0.17,2.43-0.36,3.38-0.56s1.7-0.62,2.26-1.26s0.87-1.7,0.96-3.17l0.32-5.09l9.73-1.38v10.82H99.26z"/>
		<path d="M102.72,464.83l4.1-1.76c0.45-0.19,0.77-0.38,0.96-0.58c0.19-0.19,0.29-0.5,0.29-0.93v-37.7c0-0.43-0.12-0.74-0.37-0.94
			c-0.25-0.2-0.54-0.39-0.88-0.56l-4.51-2.4v-3.1h16.54v17.22l-0.35,3.07c1.26-1.9,2.58-3.31,3.97-4.24
			c1.39-0.93,2.78-1.54,4.19-1.84c1.41-0.3,2.75-0.45,4.03-0.45c2.18,0,4.18,0.4,6.02,1.18c1.83,0.79,3.31,2.07,4.43,3.84
			c1.12,1.77,1.68,4.13,1.68,7.07v18.69c0,0.51,0.11,0.87,0.34,1.07c0.22,0.2,0.52,0.4,0.88,0.59l3.78,1.76v3.01h-20.35v-3.01
			l3.26-1.76c0.34-0.19,0.64-0.39,0.9-0.59s0.38-0.56,0.38-1.07v-14.4c0-2.13-0.17-3.89-0.51-5.26c-0.34-1.38-0.98-2.4-1.9-3.07
			c-0.93-0.67-2.27-1.01-4.02-1.01c-1,0-2.18,0.16-3.52,0.48c-1.34,0.32-2.41,1.12-3.2,2.4v21.02c0,0.43,0.11,0.73,0.34,0.9
			c0.22,0.17,0.53,0.37,0.91,0.61l3.04,1.76v3.01h-20.42V464.83z"/>
		<path d="M171.87,468.67c-3.63,0-6.88-0.72-9.76-2.16c-2.88-1.44-5.16-3.56-6.83-6.35c-1.67-2.79-2.51-6.2-2.51-10.21
			c0-3.69,0.8-7,2.4-9.92c1.6-2.92,3.83-5.23,6.7-6.93c2.87-1.7,6.2-2.54,10-2.54c3.6,0,6.68,0.66,9.23,1.97
			c2.55,1.31,4.5,3.06,5.86,5.23c1.35,2.18,2.03,4.58,2.03,7.2c0,0.3-0.02,0.82-0.06,1.57c-0.04,0.75-0.09,1.48-0.13,2.21
			c-0.04,0.73-0.09,1.23-0.13,1.5h-25.41v-5.31h14.72c0-1.98-0.22-3.67-0.67-5.06c-0.45-1.39-1.16-2.45-2.14-3.18
			c-0.98-0.74-2.29-1.1-3.94-1.1c-1.13,0-2.16,0.23-3.09,0.69c-0.93,0.46-1.73,1.18-2.42,2.18c-0.68,0.99-1.21,2.26-1.58,3.81
			c-0.37,1.55-0.56,3.41-0.56,5.58c0,2.77,0.36,5.17,1.07,7.2s1.97,3.59,3.78,4.7c1.8,1.11,4.35,1.66,7.63,1.66
			c1.66,0,3.18-0.14,4.54-0.43c1.37-0.29,2.59-0.65,3.68-1.07c1.09-0.43,2.03-0.83,2.82-1.22h1.79v4.35
			c-1.94,1.34-4.41,2.62-7.41,3.82S175.28,468.67,171.87,468.67z"/>
		<path d="M241.02,467.84v-3.01l3.17-1.76c0.36-0.21,0.67-0.42,0.91-0.61c0.25-0.19,0.37-0.54,0.37-1.06v-14.4
			c0-2-0.15-3.7-0.45-5.09s-0.87-2.44-1.71-3.17c-0.84-0.73-2.1-1.09-3.76-1.09c-1.15,0-2.36,0.16-3.62,0.48
			c-1.26,0.32-2.28,1.12-3.07,2.4v21.02c0,0.43,0.12,0.73,0.37,0.91s0.54,0.38,0.88,0.59l3.01,1.76v3.01h-20.38v-3.01l4.13-1.76
			c0.32-0.17,0.61-0.36,0.86-0.56c0.26-0.2,0.38-0.52,0.38-0.94v-22.62c0-0.45-0.13-0.78-0.4-0.99c-0.27-0.21-0.55-0.38-0.85-0.51
			l-4.13-1.76v-3.1l15.42-1.66v5.66h0.51c2.03-2.6,4.03-4.24,6.02-4.93c1.98-0.68,3.85-1.02,5.6-1.02c1.49,0,2.96,0.22,4.4,0.66
			c1.44,0.44,2.74,1.21,3.89,2.32c1.15,1.11,2.03,2.67,2.62,4.67l0.45,0.93v22.21c0,0.51,0.11,0.86,0.34,1.04
			c0.22,0.18,0.53,0.39,0.91,0.62l2.91,1.76v3.01H241.02z M263.64,467.84v-3.01l3.33-1.76c0.36-0.21,0.67-0.42,0.91-0.61
			c0.25-0.19,0.37-0.54,0.37-1.06v-14.4c0-2-0.15-3.7-0.45-5.09c-0.3-1.39-0.88-2.44-1.74-3.17c-0.86-0.73-2.15-1.09-3.86-1.09
			c-1.09,0-2.3,0.19-3.63,0.56c-1.33,0.37-2.41,1.35-3.22,2.93l-0.96-3.07c1.79-2.35,3.43-4.04,4.91-5.09
			c1.48-1.04,2.87-1.7,4.18-1.97c1.3-0.27,2.56-0.4,3.78-0.4c2.13,0,4.09,0.42,5.87,1.25c1.78,0.83,3.22,2.14,4.3,3.92
			c1.09,1.78,1.63,4.09,1.63,6.93v18.69c0,0.51,0.12,0.87,0.35,1.07c0.23,0.2,0.53,0.4,0.9,0.59l3.68,1.76v3.01H263.64z"/>
		<path d="M300.32,468.51c-2.26,0-4.2-0.51-5.81-1.52c-1.61-1.01-2.84-2.32-3.7-3.92c-0.85-1.6-1.28-3.29-1.28-5.06
			c0-2.3,0.55-4.28,1.66-5.94c1.11-1.65,2.54-3,4.29-4.03c1.75-1.03,3.62-1.8,5.6-2.29c1.98-0.49,3.84-0.74,5.57-0.74
			c0.34,0,0.93,0.04,1.78,0.11c0.84,0.08,1.69,0.16,2.54,0.26c0.85,0.1,1.43,0.17,1.73,0.21v-2.72c0-2.35-0.4-4.14-1.2-5.38
			c-0.8-1.24-2.22-1.86-4.27-1.86c-0.92,0-1.96,0.26-3.12,0.78c-1.16,0.52-2.34,1.16-3.52,1.9c-1.18,0.75-2.28,1.48-3.3,2.21
			c-1.01,0.73-1.84,1.28-2.48,1.66h-2.5v-8.74c1.62-0.47,3.22-0.93,4.78-1.38c1.57-0.45,3.27-0.82,5.12-1.1
			c1.84-0.29,3.98-0.43,6.42-0.43c2.54,0,4.94,0.31,7.2,0.93c2.26,0.62,4.11,1.77,5.54,3.44c1.43,1.68,2.14,4.1,2.14,7.28v17.5
			c0,0.88,0.27,1.58,0.82,2.13s1.14,0.82,1.78,0.82c0.49,0,1.02-0.05,1.6-0.14c0.58-0.1,1.12-0.21,1.63-0.34h1.25v3.42
			c-0.6,0.38-1.42,0.81-2.46,1.26c-1.05,0.46-2.13,0.85-3.26,1.17c-1.13,0.32-2.16,0.48-3.07,0.48c-2.84,0-4.94-0.5-6.3-1.5
			c-1.37-1-2.05-2.55-2.05-4.64h-0.51c-1.17,1.77-2.5,3.1-3.97,3.98c-1.47,0.89-2.96,1.47-4.46,1.74
			C302.99,468.37,301.6,468.51,300.32,468.51z M306.01,462.14c1.09,0,2.28-0.26,3.57-0.77c1.29-0.51,2.33-1.38,3.12-2.59v-8.8
			c-2.37,0-4.45,0.19-6.26,0.58c-1.8,0.38-3.21,1.06-4.21,2.03c-1,0.97-1.5,2.34-1.5,4.11c0,1.43,0.28,2.54,0.85,3.33
			c0.56,0.79,1.26,1.34,2.08,1.65C304.48,461.99,305.27,462.14,306.01,462.14z"/>
		<path d="M334.2,484.22c-0.6,0-1.39-0.04-2.37-0.13c-0.98-0.09-1.97-0.2-2.98-0.34c-1-0.14-1.85-0.26-2.53-0.37v-8.8h2.5
			c0.73,0.28,1.71,0.6,2.94,0.98c1.24,0.37,2.47,0.7,3.71,0.99c1.24,0.29,2.2,0.43,2.88,0.43c0.58,0,1.05-0.07,1.42-0.22
			c0.37-0.15,0.67-0.41,0.88-0.77c0.3-0.47,0.49-1.89,0.58-4.27c0.08-2.38,0.13-5.18,0.13-8.4V439.9c0-0.45-0.11-0.77-0.32-0.98
			c-0.21-0.2-0.52-0.38-0.93-0.53l-6.24-2.34v-3.1l18.27-0.67v31.62c0,4.54-0.82,8.32-2.45,11.33c-1.63,3.01-3.81,5.26-6.53,6.75
			C340.46,483.48,337.47,484.22,334.2,484.22z M346.01,427.52c-1.09,0-2.16-0.26-3.22-0.78c-1.06-0.52-1.94-1.23-2.64-2.11
			s-1.06-1.87-1.06-2.96c0-1.77,0.7-3.11,2.1-4.02c1.4-0.91,3-1.36,4.82-1.36c2.13,0,3.86,0.41,5.18,1.23s1.98,2.06,1.98,3.73
			c0,1.17-0.34,2.23-1.02,3.18c-0.68,0.95-1.57,1.7-2.67,2.26C348.39,427.24,347.23,427.52,346.01,427.52z"/>
		<path d="M381.69,468.74c-3.88,0-7.3-0.74-10.24-2.21c-2.94-1.47-5.24-3.63-6.88-6.46c-1.64-2.84-2.46-6.29-2.46-10.37
			c0-3.75,0.82-7.07,2.45-9.95c1.63-2.88,3.94-5.13,6.93-6.75c2.99-1.62,6.52-2.43,10.59-2.43c4.42,0,8.07,0.85,10.96,2.56
			c2.89,1.71,5.05,4,6.48,6.88c1.43,2.88,2.14,6.07,2.14,9.57c0,3.71-0.81,7.01-2.43,9.9c-1.62,2.89-3.93,5.16-6.91,6.8
			C389.33,467.91,385.79,468.74,381.69,468.74z M382.14,463.58c1.56,0,2.85-0.39,3.87-1.17c1.02-0.78,1.83-1.82,2.43-3.12
			c0.6-1.3,1.02-2.74,1.26-4.3c0.25-1.57,0.37-3.15,0.37-4.75c0-2.58-0.27-4.97-0.82-7.17c-0.54-2.2-1.44-3.97-2.67-5.33
			c-1.24-1.35-2.89-2.03-4.96-2.03c-1.56,0-2.85,0.38-3.87,1.15s-1.83,1.79-2.43,3.07c-0.6,1.28-1.02,2.7-1.26,4.26
			c-0.25,1.56-0.37,3.13-0.37,4.7c0,1.75,0.13,3.49,0.4,5.22c0.27,1.73,0.71,3.31,1.34,4.74c0.63,1.43,1.49,2.58,2.59,3.44
			C379.13,463.15,380.5,463.58,382.14,463.58z"/>
		<path d="M407.68,467.84v-3.01l4.13-1.76c0.36-0.17,0.66-0.36,0.9-0.56c0.23-0.2,0.35-0.52,0.35-0.94v-21.02c0-1-0.06-1.67-0.18-2
			c-0.12-0.33-0.42-0.6-0.91-0.82l-4.61-2.05v-3.1l15.94-1.66v7.46h0.42c1.41-2.24,2.76-3.91,4.06-5.02
			c1.3-1.11,2.56-1.84,3.78-2.19c1.22-0.35,2.38-0.53,3.49-0.53c1.04,0,2.1,0.13,3.17,0.38c1.07,0.26,2.08,0.74,3.04,1.44v11.23
			h-7.94l-0.96-2.4c-0.15-0.36-0.49-0.78-1.01-1.26c-0.52-0.48-1.15-0.72-1.87-0.72c-0.68,0-1.33,0.09-1.94,0.27
			c-0.61,0.18-1.21,0.5-1.81,0.94c-0.6,0.45-1.24,1.06-1.92,1.82v19.23c0,0.73,0.42,1.23,1.25,1.5l5.6,1.76v3.01H407.68z"/>
		<path d="M467.16,484.22v-2.98l4.32-1.86c0.38-0.17,0.69-0.34,0.91-0.51c0.22-0.17,0.34-0.48,0.34-0.93v-39.01
			c0-0.45-0.13-0.78-0.38-0.99c-0.26-0.21-0.54-0.38-0.86-0.51l-4.1-1.76v-3.1l15.42-1.66v6.02h0.58c1-1.49,2.15-2.7,3.46-3.63
			c1.3-0.93,2.7-1.6,4.19-2.03c1.49-0.43,3.03-0.64,4.61-0.64c3.03,0,5.62,0.76,7.78,2.29c2.15,1.53,3.81,3.61,4.96,6.24
			c1.15,2.63,1.73,5.62,1.73,8.94c0,3.69-0.68,7.06-2.05,10.11c-1.37,3.05-3.33,5.48-5.9,7.28c-2.57,1.8-5.68,2.7-9.33,2.7
			c-2.13,0-4.06-0.39-5.79-1.18c-1.73-0.79-3.01-1.71-3.84-2.75l0.32,2.62v11.01c0,0.45,0.12,0.76,0.35,0.94
			c0.23,0.18,0.54,0.35,0.93,0.5l5.22,1.92v2.98H467.16z M483.52,440.61v20.16c0.55,0.38,1.26,0.68,2.11,0.9
			c0.85,0.21,1.7,0.37,2.53,0.46c0.83,0.1,1.49,0.14,1.98,0.14c2.05,0,3.71-0.54,4.99-1.63c1.28-1.09,2.22-2.53,2.82-4.34
			c0.6-1.8,0.9-3.79,0.9-5.97c0-2.5-0.29-4.74-0.88-6.74c-0.59-1.99-1.51-3.57-2.78-4.74c-1.27-1.16-2.94-1.74-5.01-1.74
			c-1.62,0-3.02,0.4-4.19,1.2C484.81,439.12,483.98,439.88,483.52,440.61z"/>
		<path d="M516.12,467.84v-3.01l4.13-1.76c0.36-0.17,0.66-0.36,0.9-0.56c0.23-0.2,0.35-0.52,0.35-0.94v-21.02c0-1-0.06-1.67-0.18-2
			c-0.12-0.33-0.42-0.6-0.91-0.82l-4.61-2.05v-3.1l15.94-1.66v7.46h0.42c1.41-2.24,2.76-3.91,4.06-5.02
			c1.3-1.11,2.56-1.84,3.78-2.19c1.22-0.35,2.38-0.53,3.49-0.53c1.04,0,2.1,0.13,3.17,0.38c1.07,0.26,2.08,0.74,3.04,1.44v11.23
			h-7.94l-0.96-2.4c-0.15-0.36-0.49-0.78-1.01-1.26c-0.52-0.48-1.15-0.72-1.87-0.72c-0.68,0-1.33,0.09-1.94,0.27
			c-0.61,0.18-1.21,0.5-1.81,0.94c-0.6,0.45-1.24,1.06-1.92,1.82v19.23c0,0.73,0.42,1.23,1.25,1.5l5.6,1.76v3.01H516.12z"/>
		<path d="M573.91,468.74c-3.88,0-7.3-0.74-10.24-2.21c-2.94-1.47-5.24-3.63-6.88-6.46c-1.64-2.84-2.46-6.29-2.46-10.37
			c0-3.75,0.82-7.07,2.45-9.95c1.63-2.88,3.94-5.13,6.93-6.75c2.99-1.62,6.52-2.43,10.59-2.43c4.42,0,8.07,0.85,10.96,2.56
			c2.89,1.71,5.05,4,6.48,6.88c1.43,2.88,2.14,6.07,2.14,9.57c0,3.71-0.81,7.01-2.43,9.9c-1.62,2.89-3.93,5.16-6.91,6.8
			C581.55,467.91,578.01,468.74,573.91,468.74z M574.36,463.58c1.56,0,2.85-0.39,3.87-1.17c1.02-0.78,1.83-1.82,2.43-3.12
			c0.6-1.3,1.02-2.74,1.26-4.3c0.25-1.57,0.37-3.15,0.37-4.75c0-2.58-0.27-4.97-0.82-7.17c-0.54-2.2-1.44-3.97-2.67-5.33
			c-1.24-1.35-2.89-2.03-4.96-2.03c-1.56,0-2.85,0.38-3.87,1.15s-1.83,1.79-2.43,3.07c-0.6,1.28-1.02,2.7-1.26,4.26
			c-0.25,1.56-0.37,3.13-0.37,4.7c0,1.75,0.13,3.49,0.4,5.22c0.27,1.73,0.71,3.31,1.34,4.74c0.63,1.43,1.49,2.58,2.59,3.44
			C571.35,463.15,572.72,463.58,574.36,463.58z"/>
		<path d="M620.51,468.74c-3.35,0-6.4-0.34-9.14-1.01c-2.74-0.67-5.3-1.53-7.66-2.58v-41.28c0-0.43-0.13-0.74-0.4-0.93
			s-0.55-0.38-0.85-0.58l-4.51-2.4v-3.1h16.51v17.15l-0.32,3.52c1.22-2.13,2.62-3.68,4.21-4.66c1.59-0.97,3.11-1.59,4.58-1.86
			c1.46-0.27,2.6-0.4,3.41-0.4c3.03,0,5.62,0.76,7.78,2.29c2.15,1.53,3.8,3.61,4.94,6.26c1.14,2.65,1.71,5.65,1.71,9.02
			c0,3.71-0.78,7.13-2.34,10.24c-1.56,3.12-3.84,5.61-6.85,7.49C628.57,467.8,624.88,468.74,620.51,468.74z M620.7,463.55
			c2.07,0,3.75-0.59,5.04-1.78c1.29-1.18,2.25-2.77,2.86-4.75c0.62-1.98,0.93-4.17,0.93-6.56c0-2.52-0.29-4.78-0.88-6.8
			c-0.59-2.02-1.52-3.61-2.78-4.78c-1.27-1.17-2.94-1.76-5.01-1.76c-0.92,0-2.01,0.24-3.26,0.72s-2.3,1.4-3.14,2.77v20.45
			c0.55,0.62,1.24,1.11,2.05,1.47c0.81,0.36,1.6,0.62,2.37,0.78C619.64,463.47,620.25,463.55,620.7,463.55z"/>
		<path d="M645.69,467.84v-3.01l5.34-1.92c0.41-0.15,0.72-0.33,0.94-0.54c0.22-0.21,0.34-0.53,0.34-0.96v-37.54
			c0-0.43-0.14-0.75-0.42-0.98c-0.28-0.22-0.57-0.4-0.86-0.53l-5.66-2.4v-3.1h17.7v44.54c0,0.43,0.14,0.76,0.42,0.99
			c0.28,0.23,0.56,0.41,0.86,0.51l5.28,1.92v3.01H645.69z"/>
		<path d="M693.43,468.67c-3.63,0-6.88-0.72-9.76-2.16c-2.88-1.44-5.16-3.56-6.83-6.35c-1.67-2.79-2.51-6.2-2.51-10.21
			c0-3.69,0.8-7,2.4-9.92c1.6-2.92,3.83-5.23,6.7-6.93c2.87-1.7,6.2-2.54,10-2.54c3.6,0,6.68,0.66,9.23,1.97
			c2.55,1.31,4.5,3.06,5.86,5.23c1.35,2.18,2.03,4.58,2.03,7.2c0,0.3-0.02,0.82-0.06,1.57c-0.04,0.75-0.09,1.48-0.13,2.21
			c-0.04,0.73-0.09,1.23-0.13,1.5h-25.41v-5.31h14.72c0-1.98-0.22-3.67-0.67-5.06c-0.45-1.39-1.16-2.45-2.14-3.18
			c-0.98-0.74-2.29-1.1-3.94-1.1c-1.13,0-2.16,0.23-3.09,0.69c-0.93,0.46-1.73,1.18-2.42,2.18c-0.68,0.99-1.21,2.26-1.58,3.81
			c-0.37,1.55-0.56,3.41-0.56,5.58c0,2.77,0.36,5.17,1.07,7.2s1.97,3.59,3.78,4.7c1.8,1.11,4.35,1.66,7.63,1.66
			c1.66,0,3.18-0.14,4.54-0.43c1.37-0.29,2.59-0.65,3.68-1.07c1.09-0.43,2.03-0.83,2.82-1.22h1.79v4.35
			c-1.94,1.34-4.41,2.62-7.41,3.82S696.85,468.67,693.43,468.67z"/>
		<path d="M740.34,467.84v-3.01l3.17-1.76c0.36-0.21,0.67-0.42,0.91-0.61c0.25-0.19,0.37-0.54,0.37-1.06v-14.4
			c0-2-0.15-3.7-0.45-5.09s-0.87-2.44-1.71-3.17c-0.84-0.73-2.1-1.09-3.76-1.09c-1.15,0-2.36,0.16-3.62,0.48
			c-1.26,0.32-2.28,1.12-3.07,2.4v21.02c0,0.43,0.12,0.73,0.37,0.91s0.54,0.38,0.88,0.59l3.01,1.76v3.01h-20.38v-3.01l4.13-1.76
			c0.32-0.17,0.61-0.36,0.86-0.56c0.26-0.2,0.38-0.52,0.38-0.94v-22.62c0-0.45-0.13-0.78-0.4-0.99c-0.27-0.21-0.55-0.38-0.85-0.51
			l-4.13-1.76v-3.1l15.42-1.66v5.66h0.51c2.03-2.6,4.03-4.24,6.02-4.93c1.98-0.68,3.85-1.02,5.6-1.02c1.49,0,2.96,0.22,4.4,0.66
			c1.44,0.44,2.74,1.21,3.89,2.32c1.15,1.11,2.03,2.67,2.62,4.67l0.45,0.93v22.21c0,0.51,0.11,0.86,0.34,1.04
			c0.22,0.18,0.53,0.39,0.91,0.62l2.91,1.76v3.01H740.34z M762.97,467.84v-3.01l3.33-1.76c0.36-0.21,0.67-0.42,0.91-0.61
			c0.25-0.19,0.37-0.54,0.37-1.06v-14.4c0-2-0.15-3.7-0.45-5.09c-0.3-1.39-0.88-2.44-1.74-3.17c-0.86-0.73-2.15-1.09-3.86-1.09
			c-1.09,0-2.3,0.19-3.63,0.56c-1.33,0.37-2.41,1.35-3.22,2.93l-0.96-3.07c1.79-2.35,3.43-4.04,4.91-5.09
			c1.48-1.04,2.87-1.7,4.18-1.97c1.3-0.27,2.56-0.4,3.78-0.4c2.13,0,4.09,0.42,5.87,1.25c1.78,0.83,3.22,2.14,4.3,3.92
			c1.09,1.78,1.63,4.09,1.63,6.93v18.69c0,0.51,0.12,0.87,0.35,1.07c0.23,0.2,0.53,0.4,0.9,0.59l3.68,1.76v3.01H762.97z"/>
		<path d="M810.17,467.84v-3.01l5.31-1.92c0.41-0.15,0.73-0.33,0.96-0.54c0.23-0.21,0.35-0.53,0.35-0.96v-21.76
			c0-0.43-0.12-0.75-0.37-0.96c-0.25-0.21-0.55-0.39-0.91-0.54l-5.28-2.08v-3.1l17.34-0.67v29.12c0,0.43,0.13,0.76,0.38,0.99
			c0.26,0.23,0.54,0.41,0.86,0.51l5.31,1.92v3.01H810.17z M821.53,427.52c-1.09,0-2.16-0.26-3.22-0.78
			c-1.06-0.52-1.94-1.23-2.64-2.11c-0.7-0.89-1.06-1.87-1.06-2.96c0-1.77,0.7-3.11,2.1-4.02s3-1.36,4.82-1.36
			c2.13,0,3.86,0.41,5.18,1.23s1.98,2.06,1.98,3.73c0,1.17-0.34,2.23-1.02,3.18c-0.68,0.95-1.57,1.7-2.67,2.26
			S822.74,427.52,821.53,427.52z"/>
		<path d="M839.8,466.27v-9.89h5.54l0.96,2.94c0.11,0.34,0.28,0.67,0.53,0.98c0.25,0.31,0.48,0.55,0.72,0.72
			c0.9,0.66,2.05,1.27,3.46,1.84c1.41,0.57,3.04,0.85,4.89,0.85c1.11,0,2.11-0.19,3.01-0.58c0.9-0.38,1.62-0.92,2.16-1.6
			c0.54-0.68,0.82-1.48,0.82-2.4c0-1.3-0.44-2.28-1.33-2.94c-0.88-0.66-2.24-1.25-4.08-1.76c-1.04-0.3-2.2-0.6-3.47-0.91
			c-1.27-0.31-2.41-0.6-3.41-0.88c-3.16-0.87-5.49-2.2-7.01-3.97c-1.52-1.77-2.27-3.77-2.27-5.98c0-2.5,0.8-4.65,2.42-6.46
			c1.61-1.81,3.73-3.21,6.37-4.19c2.64-0.98,5.49-1.47,8.56-1.47c2.75,0,5.17,0.16,7.25,0.48c2.08,0.32,3.96,0.71,5.65,1.18v10.02
			h-5.5l-0.96-3.2c-0.13-0.3-0.32-0.58-0.58-0.83c-0.26-0.26-0.5-0.46-0.74-0.61c-0.72-0.49-1.72-0.95-2.98-1.38
			c-1.26-0.43-2.58-0.64-3.97-0.64c-1.62,0-2.87,0.37-3.74,1.1c-0.88,0.74-1.31,1.64-1.31,2.7c0,1.24,0.52,2.27,1.55,3.1
			c1.03,0.83,2.52,1.52,4.46,2.05c1.11,0.3,2.26,0.6,3.46,0.91c1.19,0.31,2.28,0.61,3.26,0.91c2.99,0.9,5.22,2.17,6.7,3.82
			c1.48,1.65,2.22,3.7,2.22,6.13c0,2.88-0.84,5.24-2.53,7.07c-1.69,1.84-3.87,3.18-6.56,4.05c-2.69,0.86-5.55,1.3-8.58,1.3
			c-2.9,0-5.69-0.27-8.37-0.82S841.53,466.83,839.8,466.27z"/>
		<path d="M99.26,517.98v5.73h-12.8v19.42c0,1.05,0.38,1.96,1.14,2.75c0.76,0.79,1.65,1.4,2.67,1.84c1.02,0.44,1.91,0.66,2.66,0.66
			c0.68,0,1.57-0.03,2.66-0.1c1.09-0.06,1.9-0.14,2.43-0.22h1.57v3.3c-0.53,0.3-1.42,0.73-2.67,1.28c-1.25,0.56-2.69,1.06-4.34,1.5
			c-1.64,0.45-3.33,0.67-5.06,0.67c-2.09,0-4.04-0.3-5.84-0.91s-3.25-1.47-4.35-2.59c-1.1-1.12-1.65-2.44-1.65-3.95v-23.65h-5.86
			v-5.09c1.3-0.17,2.43-0.36,3.38-0.56s1.7-0.62,2.26-1.26s0.87-1.7,0.96-3.17l0.32-5.09l9.73-1.38v10.82H99.26z"/>
		<path d="M102.72,551.23l4.1-1.76c0.45-0.19,0.77-0.38,0.96-0.58c0.19-0.19,0.29-0.5,0.29-0.93v-37.7c0-0.43-0.12-0.74-0.37-0.94
			c-0.25-0.2-0.54-0.39-0.88-0.56l-4.51-2.4v-3.1h16.54v17.22l-0.35,3.07c1.26-1.9,2.58-3.31,3.97-4.24
			c1.39-0.93,2.78-1.54,4.19-1.84c1.41-0.3,2.75-0.45,4.03-0.45c2.18,0,4.18,0.4,6.02,1.18c1.83,0.79,3.31,2.07,4.43,3.84
			c1.12,1.77,1.68,4.13,1.68,7.07v18.69c0,0.51,0.11,0.87,0.34,1.07c0.22,0.2,0.52,0.4,0.88,0.59l3.78,1.76v3.01h-20.35v-3.01
			l3.26-1.76c0.34-0.19,0.64-0.39,0.9-0.59c0.26-0.2,0.38-0.56,0.38-1.07v-14.4c0-2.13-0.17-3.89-0.51-5.26
			c-0.34-1.38-0.98-2.4-1.9-3.07c-0.93-0.67-2.27-1.01-4.02-1.01c-1,0-2.18,0.16-3.52,0.48c-1.34,0.32-2.41,1.12-3.2,2.4v21.02
			c0,0.43,0.11,0.73,0.34,0.9c0.22,0.17,0.53,0.37,0.91,0.61l3.04,1.76v3.01h-20.42V551.23z"/>
		<path d="M171.87,555.07c-3.63,0-6.88-0.72-9.76-2.16c-2.88-1.44-5.16-3.56-6.83-6.35c-1.67-2.79-2.51-6.2-2.51-10.21
			c0-3.69,0.8-7,2.4-9.92c1.6-2.92,3.83-5.23,6.7-6.93c2.87-1.7,6.2-2.54,10-2.54c3.6,0,6.68,0.66,9.23,1.97
			c2.55,1.31,4.5,3.06,5.86,5.23c1.35,2.18,2.03,4.58,2.03,7.2c0,0.3-0.02,0.82-0.06,1.57c-0.04,0.75-0.09,1.48-0.13,2.21
			c-0.04,0.73-0.09,1.23-0.13,1.5h-25.41v-5.31h14.72c0-1.98-0.22-3.67-0.67-5.06c-0.45-1.39-1.16-2.45-2.14-3.18
			c-0.98-0.74-2.29-1.1-3.94-1.1c-1.13,0-2.16,0.23-3.09,0.69c-0.93,0.46-1.73,1.18-2.42,2.18c-0.68,0.99-1.21,2.26-1.58,3.81
			c-0.37,1.55-0.56,3.41-0.56,5.58c0,2.77,0.36,5.17,1.07,7.2c0.71,2.03,1.97,3.59,3.78,4.7c1.8,1.11,4.35,1.66,7.63,1.66
			c1.66,0,3.18-0.14,4.54-0.43c1.37-0.29,2.59-0.64,3.68-1.07c1.09-0.43,2.03-0.83,2.82-1.21h1.79v4.35
			c-1.94,1.34-4.41,2.62-7.41,3.82S175.28,555.07,171.87,555.07z"/>
		<path d="M194.49,554.24v-3.01l4.77-1.92c0.38-0.17,0.69-0.36,0.93-0.56c0.23-0.2,0.35-0.52,0.35-0.95V525.7h-6.75v-5.73h6.88
			c0.38-3.84,1.44-7.04,3.18-9.6c1.74-2.56,3.91-4.48,6.51-5.76c2.6-1.28,5.41-1.92,8.42-1.92c0.94,0,2.17,0.07,3.7,0.21
			c1.52,0.14,2.81,0.3,3.86,0.5v8.8h-2.5c-0.7-0.3-1.66-0.62-2.86-0.98c-1.21-0.35-2.41-0.66-3.6-0.91
			c-1.2-0.26-2.14-0.38-2.85-0.38c-0.58,0-1.05,0.07-1.41,0.22c-0.36,0.15-0.66,0.42-0.9,0.8c-0.32,0.51-0.55,1.55-0.69,3.12
			c-0.14,1.57-0.22,3.54-0.24,5.9h10.3v5.73h-10.27v22.11c0,0.43,0.12,0.75,0.37,0.98c0.25,0.22,0.54,0.4,0.88,0.53l5.6,1.92v3.01
			H194.49z"/>
		<path d="M254.52,517.98v5.73h-12.8v19.42c0,1.05,0.38,1.96,1.14,2.75c0.76,0.79,1.65,1.4,2.67,1.84c1.02,0.44,1.91,0.66,2.66,0.66
			c0.68,0,1.57-0.03,2.66-0.1c1.09-0.06,1.9-0.14,2.43-0.22h1.57v3.3c-0.53,0.3-1.42,0.73-2.67,1.28c-1.25,0.56-2.69,1.06-4.34,1.5
			c-1.64,0.45-3.33,0.67-5.06,0.67c-2.09,0-4.04-0.3-5.84-0.91s-3.25-1.47-4.35-2.59c-1.1-1.12-1.65-2.44-1.65-3.95v-23.65h-5.86
			v-5.09c1.3-0.17,2.43-0.36,3.38-0.56s1.7-0.62,2.26-1.26s0.87-1.7,0.96-3.17l0.32-5.09l9.73-1.38v10.82H254.52z"/>
		<path d="M261.59,548.29c0-1.9,0.66-3.51,1.97-4.83c1.31-1.32,2.93-1.98,4.85-1.98c1.9,0,3.51,0.66,4.85,1.98
			c1.33,1.32,2,2.94,2,4.86s-0.67,3.53-2,4.82c-1.33,1.29-2.95,1.94-4.85,1.94c-1.92,0-3.54-0.65-4.85-1.94
			C262.25,551.84,261.59,550.23,261.59,548.29z"/>
		<path d="M306.94,554.24v-3.04l5.28-2.18c0.34-0.13,0.62-0.3,0.83-0.53s0.32-0.57,0.32-1.04v-34.05c0-0.45-0.11-0.77-0.34-0.96
			c-0.22-0.19-0.5-0.35-0.82-0.48l-5.28-2.18v-3.04h24.19v3.04l-5.25,2.18c-0.34,0.15-0.63,0.31-0.86,0.5
			c-0.23,0.18-0.35,0.5-0.35,0.94v13.28h19.52v-13.28c0-0.45-0.12-0.77-0.37-0.96s-0.53-0.35-0.85-0.48l-5.25-2.18v-3.04h24.26v3.04
			l-5.25,2.18c-0.32,0.13-0.61,0.29-0.86,0.48c-0.26,0.19-0.38,0.51-0.38,0.96v34.05c0,0.47,0.12,0.81,0.37,1.02
			c0.25,0.21,0.54,0.39,0.88,0.54l5.25,2.18v3.04h-24.26v-3.04l5.25-2.18c0.36-0.17,0.66-0.36,0.88-0.56
			c0.22-0.2,0.34-0.54,0.34-1.01v-15.01h-19.52v15.01c0,0.47,0.11,0.81,0.32,1.02s0.51,0.39,0.9,0.54l5.25,2.18v3.04H306.94z"/>
		<path d="M387.93,555.13c-3.88,0-7.3-0.74-10.24-2.21c-2.94-1.47-5.24-3.63-6.88-6.46c-1.64-2.84-2.46-6.29-2.46-10.37
			c0-3.75,0.82-7.07,2.45-9.95c1.63-2.88,3.94-5.13,6.93-6.75c2.99-1.62,6.52-2.43,10.59-2.43c4.42,0,8.07,0.85,10.96,2.56
			c2.89,1.71,5.05,4,6.48,6.88c1.43,2.88,2.14,6.07,2.14,9.57c0,3.71-0.81,7.01-2.43,9.9c-1.62,2.89-3.93,5.16-6.91,6.8
			C395.57,554.31,392.03,555.13,387.93,555.13z M388.38,549.98c1.56,0,2.85-0.39,3.87-1.17c1.02-0.78,1.83-1.82,2.43-3.12
			c0.6-1.3,1.02-2.74,1.26-4.3c0.25-1.57,0.37-3.15,0.37-4.75c0-2.58-0.27-4.97-0.82-7.17c-0.54-2.2-1.44-3.97-2.67-5.33
			c-1.24-1.35-2.89-2.03-4.96-2.03c-1.56,0-2.85,0.38-3.87,1.15s-1.83,1.79-2.43,3.07c-0.6,1.28-1.02,2.7-1.26,4.26
			c-0.25,1.56-0.37,3.13-0.37,4.7c0,1.75,0.13,3.49,0.4,5.22c0.27,1.73,0.71,3.31,1.34,4.74c0.63,1.43,1.49,2.58,2.59,3.44
			C385.36,549.55,386.74,549.98,388.38,549.98z"/>
		<path d="M427.67,554.56l-11.39-30.72c-0.13-0.36-0.32-0.68-0.58-0.94c-0.26-0.27-0.58-0.48-0.96-0.66l-2.75-1.31v-2.94h19.68v2.94
			l-4.93,1.76l5.5,15.68l1.31,5.44h0.7l6.05-18.43l3.04-7.39h6.3l7.42,20.19l1.5,5.63h0.74l6.4-19.9l-4.58-2.98v-2.94h14.98v2.94
			l-2.91,2.27c-0.32,0.23-0.64,0.49-0.96,0.77c-0.32,0.28-0.53,0.59-0.64,0.93l-7.62,22.27l-3.52,7.39h-7.62l-6.98-18.18l-1.15-5.15
			h-0.58l-5.25,15.94l-3.42,7.39H427.67z"/>
		<path d="M515.83,554.56l-11.39-30.72c-0.13-0.36-0.32-0.68-0.58-0.94c-0.26-0.27-0.58-0.48-0.96-0.66l-2.75-1.31v-2.94h19.68v2.94
			l-4.93,1.76l5.5,15.68l1.31,5.44h0.7l6.05-18.43l3.04-7.39h6.3l7.42,20.19l1.5,5.63h0.74l6.4-19.9l-4.58-2.98v-2.94h14.98v2.94
			l-2.91,2.27c-0.32,0.23-0.64,0.49-0.96,0.77c-0.32,0.28-0.53,0.59-0.64,0.93l-7.62,22.27l-3.52,7.39h-7.62l-6.98-18.18l-1.15-5.15
			h-0.58l-5.25,15.94l-3.42,7.39H515.83z"/>
		<path d="M567.61,554.24v-3.01l5.31-1.92c0.41-0.15,0.73-0.33,0.96-0.54s0.35-0.53,0.35-0.96v-21.76c0-0.43-0.12-0.75-0.37-0.96
			c-0.25-0.21-0.55-0.39-0.91-0.54l-5.28-2.08v-3.1l17.34-0.67v29.12c0,0.43,0.13,0.76,0.38,0.99c0.26,0.24,0.54,0.41,0.86,0.51
			l5.31,1.92v3.01H567.61z M578.97,513.92c-1.09,0-2.16-0.26-3.22-0.78c-1.06-0.52-1.94-1.23-2.64-2.11
			c-0.7-0.89-1.06-1.87-1.06-2.96c0-1.77,0.7-3.11,2.1-4.02s3-1.36,4.82-1.36c2.13,0,3.86,0.41,5.18,1.23s1.98,2.06,1.98,3.73
			c0,1.17-0.34,2.23-1.02,3.18c-0.68,0.95-1.57,1.7-2.67,2.26S580.18,513.92,578.97,513.92z"/>
		<path d="M595.06,554.24v-3.01l5.34-1.92c0.41-0.15,0.72-0.33,0.94-0.54c0.22-0.21,0.34-0.53,0.34-0.96v-37.54
			c0-0.43-0.14-0.75-0.42-0.98c-0.28-0.22-0.57-0.4-0.86-0.53l-5.66-2.4v-3.1h17.7v44.54c0,0.43,0.14,0.76,0.42,0.99
			c0.28,0.24,0.56,0.41,0.86,0.51l5.28,1.92v3.01H595.06z"/>
		<path d="M622.55,554.24v-3.01l5.34-1.92c0.41-0.15,0.72-0.33,0.94-0.54c0.22-0.21,0.34-0.53,0.34-0.96v-37.54
			c0-0.43-0.14-0.75-0.42-0.98c-0.28-0.22-0.57-0.4-0.86-0.53l-5.66-2.4v-3.1h17.7v44.54c0,0.43,0.14,0.76,0.42,0.99
			c0.28,0.24,0.56,0.41,0.86,0.51l5.28,1.92v3.01H622.55z"/>
		<path d="M701.33,517.98v5.73h-12.8v19.42c0,1.05,0.38,1.96,1.14,2.75c0.76,0.79,1.65,1.4,2.67,1.84c1.02,0.44,1.91,0.66,2.66,0.66
			c0.68,0,1.57-0.03,2.66-0.1c1.09-0.06,1.9-0.14,2.43-0.22h1.57v3.3c-0.53,0.3-1.42,0.73-2.67,1.28c-1.25,0.56-2.69,1.06-4.34,1.5
			c-1.64,0.45-3.33,0.67-5.06,0.67c-2.09,0-4.04-0.3-5.84-0.91s-3.25-1.47-4.35-2.59c-1.1-1.12-1.65-2.44-1.65-3.95v-23.65h-5.86
			v-5.09c1.3-0.17,2.43-0.36,3.38-0.56s1.7-0.62,2.26-1.26s0.87-1.7,0.96-3.17l0.32-5.09l9.73-1.38v10.82H701.33z"/>
		<path d="M704.79,551.23l4.1-1.76c0.45-0.19,0.77-0.38,0.96-0.58c0.19-0.19,0.29-0.5,0.29-0.93v-37.7c0-0.43-0.12-0.74-0.37-0.94
			c-0.25-0.2-0.54-0.39-0.88-0.56l-4.51-2.4v-3.1h16.54v17.22l-0.35,3.07c1.26-1.9,2.58-3.31,3.97-4.24
			c1.39-0.93,2.78-1.54,4.19-1.84c1.41-0.3,2.75-0.45,4.03-0.45c2.18,0,4.18,0.4,6.02,1.18c1.83,0.79,3.31,2.07,4.43,3.84
			c1.12,1.77,1.68,4.13,1.68,7.07v18.69c0,0.51,0.11,0.87,0.34,1.07c0.22,0.2,0.52,0.4,0.88,0.59l3.78,1.76v3.01h-20.35v-3.01
			l3.26-1.76c0.34-0.19,0.64-0.39,0.9-0.59c0.26-0.2,0.38-0.56,0.38-1.07v-14.4c0-2.13-0.17-3.89-0.51-5.26
			c-0.34-1.38-0.98-2.4-1.9-3.07c-0.93-0.67-2.27-1.01-4.02-1.01c-1,0-2.18,0.16-3.52,0.48c-1.34,0.32-2.41,1.12-3.2,2.4v21.02
			c0,0.43,0.11,0.73,0.34,0.9c0.22,0.17,0.53,0.37,0.91,0.61l3.04,1.76v3.01h-20.42V551.23z"/>
		<path d="M773.94,555.07c-3.63,0-6.88-0.72-9.76-2.16c-2.88-1.44-5.16-3.56-6.83-6.35c-1.67-2.79-2.51-6.2-2.51-10.21
			c0-3.69,0.8-7,2.4-9.92c1.6-2.92,3.83-5.23,6.7-6.93c2.87-1.7,6.2-2.54,10-2.54c3.6,0,6.68,0.66,9.23,1.97
			c2.55,1.31,4.5,3.06,5.86,5.23c1.35,2.18,2.03,4.58,2.03,7.2c0,0.3-0.02,0.82-0.06,1.57c-0.04,0.75-0.09,1.48-0.13,2.21
			c-0.04,0.73-0.09,1.23-0.13,1.5h-25.41v-5.31h14.72c0-1.98-0.22-3.67-0.67-5.06c-0.45-1.39-1.16-2.45-2.14-3.18
			c-0.98-0.74-2.29-1.1-3.94-1.1c-1.13,0-2.16,0.23-3.09,0.69c-0.93,0.46-1.73,1.18-2.42,2.18c-0.68,0.99-1.21,2.26-1.58,3.81
			c-0.37,1.55-0.56,3.41-0.56,5.58c0,2.77,0.36,5.17,1.07,7.2c0.71,2.03,1.97,3.59,3.78,4.7c1.8,1.11,4.35,1.66,7.63,1.66
			c1.66,0,3.18-0.14,4.54-0.43c1.37-0.29,2.59-0.64,3.68-1.07c1.09-0.43,2.03-0.83,2.82-1.21h1.79v4.35
			c-1.94,1.34-4.41,2.62-7.41,3.82S777.35,555.07,773.94,555.07z"/>
		<path d="M796.53,569.63v-8.9h2.72c0.51,0.15,1.24,0.31,2.19,0.5c0.95,0.18,1.94,0.36,2.96,0.53c1.02,0.17,1.94,0.3,2.74,0.4
			c0.8,0.1,1.31,0.14,1.52,0.14c0.3,0,0.67-0.02,1.12-0.06c0.45-0.04,0.74-0.13,0.86-0.26c0.32-0.32,0.67-0.74,1.06-1.26
			c0.38-0.52,0.81-1.24,1.26-2.14c0.46-0.91,0.98-2.1,1.55-3.57l-3.94-5.7l-11.49-25.6c-0.17-0.41-0.39-0.71-0.66-0.93
			c-0.27-0.21-0.56-0.39-0.88-0.54l-3.04-1.31v-2.94h20.42v2.94l-4.9,1.76l7.1,15.68l1.6,4.61h0.77l7.68-19.07l-4.7-2.98v-2.94
			h15.23v2.94l-3.04,2.27c-0.3,0.21-0.6,0.45-0.9,0.7c-0.3,0.26-0.51,0.54-0.64,0.86l-14.21,35.1c-1.24,3.03-2.67,5.32-4.3,6.86
			c-1.63,1.55-3.36,2.58-5.18,3.1c-1.82,0.52-3.63,0.78-5.42,0.78c-0.3,0-0.98-0.05-2.03-0.16c-1.06-0.11-2.13-0.24-3.22-0.4
			C797.68,569.9,796.94,569.76,796.53,569.63z"/>
		<path d="M91.07,641.54c-3.88,0-7.3-0.74-10.24-2.21c-2.94-1.47-5.24-3.63-6.88-6.46c-1.64-2.84-2.46-6.29-2.46-10.37
			c0-3.75,0.82-7.07,2.45-9.95c1.63-2.88,3.94-5.13,6.93-6.75c2.99-1.62,6.52-2.43,10.59-2.43c4.42,0,8.07,0.85,10.96,2.56
			c2.89,1.71,5.05,4,6.48,6.88c1.43,2.88,2.14,6.07,2.14,9.57c0,3.71-0.81,7.01-2.43,9.9c-1.62,2.89-3.93,5.16-6.91,6.8
			C98.71,640.71,95.17,641.54,91.07,641.54z M91.52,636.38c1.56,0,2.85-0.39,3.87-1.17c1.02-0.78,1.83-1.82,2.43-3.12
			c0.6-1.3,1.02-2.74,1.26-4.3c0.25-1.57,0.37-3.15,0.37-4.75c0-2.58-0.27-4.97-0.82-7.17s-1.44-3.97-2.67-5.33
			c-1.24-1.35-2.89-2.03-4.96-2.03c-1.56,0-2.85,0.38-3.87,1.15c-1.02,0.77-1.83,1.79-2.43,3.07c-0.6,1.28-1.02,2.7-1.26,4.26
			c-0.25,1.56-0.37,3.13-0.37,4.7c0,1.75,0.13,3.49,0.4,5.22c0.27,1.73,0.71,3.31,1.34,4.74c0.63,1.43,1.49,2.58,2.59,3.44
			C88.51,635.95,89.88,636.38,91.52,636.38z"/>
		<path d="M132.54,640.96l-13.12-30.72c-0.17-0.43-0.41-0.77-0.7-1.02c-0.3-0.26-0.58-0.45-0.83-0.58l-2.75-1.31v-2.94h19.97v2.94
			l-4.96,1.76l7.04,15.94l1.44,5.25h0.67l8.06-19.97l-4.51-2.98v-2.94h14.94v2.94l-2.94,2.27c-0.28,0.21-0.58,0.47-0.91,0.77
			c-0.33,0.3-0.56,0.61-0.69,0.93l-9.38,22.27l-3.58,7.39H132.54z"/>
		<path d="M180.67,641.47c-3.63,0-6.88-0.72-9.76-2.16c-2.88-1.44-5.16-3.56-6.83-6.35s-2.51-6.2-2.51-10.21c0-3.69,0.8-7,2.4-9.92
			s3.83-5.23,6.7-6.93c2.87-1.7,6.2-2.54,10-2.54c3.6,0,6.68,0.66,9.23,1.97c2.55,1.31,4.5,3.06,5.86,5.23
			c1.35,2.18,2.03,4.58,2.03,7.2c0,0.3-0.02,0.82-0.06,1.57c-0.04,0.75-0.09,1.48-0.13,2.21c-0.04,0.72-0.09,1.23-0.13,1.5h-25.41
			v-5.31h14.72c0-1.98-0.22-3.67-0.67-5.06c-0.45-1.39-1.16-2.45-2.14-3.18c-0.98-0.74-2.29-1.1-3.94-1.1
			c-1.13,0-2.16,0.23-3.09,0.69c-0.93,0.46-1.73,1.18-2.42,2.18c-0.68,0.99-1.21,2.26-1.58,3.81c-0.37,1.55-0.56,3.41-0.56,5.58
			c0,2.77,0.36,5.17,1.07,7.2s1.97,3.59,3.78,4.7c1.8,1.11,4.35,1.66,7.63,1.66c1.66,0,3.18-0.14,4.54-0.43s2.59-0.64,3.68-1.07
			s2.03-0.83,2.82-1.22h1.79v4.35c-1.94,1.34-4.41,2.62-7.41,3.82C187.29,640.87,184.08,641.47,180.67,641.47z"/>
		<path d="M203.48,640.64v-3.01l4.13-1.76c0.36-0.17,0.66-0.36,0.9-0.56c0.23-0.2,0.35-0.52,0.35-0.94v-21.02c0-1-0.06-1.67-0.18-2
			s-0.42-0.6-0.91-0.82l-4.61-2.05v-3.1l15.94-1.66v7.46h0.42c1.41-2.24,2.76-3.92,4.06-5.02c1.3-1.11,2.56-1.84,3.78-2.19
			c1.22-0.35,2.38-0.53,3.49-0.53c1.04,0,2.1,0.13,3.17,0.38c1.07,0.26,2.08,0.74,3.04,1.44v11.23h-7.94l-0.96-2.4
			c-0.15-0.36-0.49-0.78-1.01-1.26c-0.52-0.48-1.15-0.72-1.87-0.72c-0.68,0-1.33,0.09-1.94,0.27c-0.61,0.18-1.21,0.5-1.81,0.94
			c-0.6,0.45-1.24,1.06-1.92,1.82v19.23c0,0.73,0.42,1.23,1.25,1.5l5.6,1.76v3.01H203.48z"/>
		<path d="M272.6,631.23h1.79v4.67c-1.83,1.34-3.93,2.61-6.29,3.79c-2.36,1.18-5.19,1.78-8.5,1.78c-3.75,0-6.98-0.79-9.66-2.37
			c-2.69-1.58-4.74-3.76-6.16-6.56c-1.42-2.79-2.13-6.02-2.13-9.66c0-2.92,0.59-5.57,1.76-7.95c1.17-2.38,2.75-4.43,4.72-6.14
			c1.97-1.72,4.17-3.04,6.59-3.97c2.42-0.93,4.87-1.39,7.34-1.39c1.88,0,3.53,0.17,4.94,0.51c1.42,0.34,2.63,0.73,3.63,1.17
			c1,0.44,1.8,0.78,2.4,1.04v9.12h-2.5c-1.15-0.75-2.44-1.58-3.87-2.5c-1.43-0.92-2.9-1.71-4.4-2.38c-1.5-0.67-2.97-1.01-4.4-1.01
			c-0.51,0-0.98,0.11-1.39,0.32c-0.42,0.21-0.81,0.57-1.17,1.06c-0.36,0.49-0.74,1.24-1.14,2.26c-0.4,1.01-0.73,2.25-0.99,3.71
			c-0.27,1.46-0.4,3.12-0.4,4.98c0,4.03,0.94,7.13,2.82,9.28c1.88,2.16,4.56,3.23,8.06,3.23c1.11,0,2.2-0.14,3.26-0.42
			c1.07-0.28,2.08-0.64,3.04-1.09C270.94,632.26,271.81,631.77,272.6,631.23z"/>
		<path d="M298.72,641.54c-3.88,0-7.3-0.74-10.24-2.21c-2.94-1.47-5.24-3.63-6.88-6.46c-1.64-2.84-2.46-6.29-2.46-10.37
			c0-3.75,0.82-7.07,2.45-9.95c1.63-2.88,3.94-5.13,6.93-6.75c2.99-1.62,6.52-2.43,10.59-2.43c4.42,0,8.07,0.85,10.96,2.56
			c2.89,1.71,5.05,4,6.48,6.88c1.43,2.88,2.14,6.07,2.14,9.57c0,3.71-0.81,7.01-2.43,9.9c-1.62,2.89-3.93,5.16-6.91,6.8
			C306.35,640.71,302.81,641.54,298.72,641.54z M299.16,636.38c1.56,0,2.85-0.39,3.87-1.17c1.02-0.78,1.83-1.82,2.43-3.12
			c0.6-1.3,1.02-2.74,1.26-4.3c0.25-1.57,0.37-3.15,0.37-4.75c0-2.58-0.27-4.97-0.82-7.17s-1.44-3.97-2.67-5.33
			c-1.24-1.35-2.89-2.03-4.96-2.03c-1.56,0-2.85,0.38-3.87,1.15c-1.02,0.77-1.83,1.79-2.43,3.07c-0.6,1.28-1.02,2.7-1.26,4.26
			c-0.25,1.56-0.37,3.13-0.37,4.7c0,1.75,0.13,3.49,0.4,5.22c0.27,1.73,0.71,3.31,1.34,4.74c0.63,1.43,1.49,2.58,2.59,3.44
			C296.15,635.95,297.52,636.38,299.16,636.38z"/>
		<path d="M348.79,640.64v-3.01l3.17-1.76c0.36-0.21,0.67-0.42,0.91-0.61c0.25-0.19,0.37-0.54,0.37-1.06v-14.4
			c0-2-0.15-3.7-0.45-5.09s-0.87-2.44-1.71-3.17s-2.1-1.09-3.76-1.09c-1.15,0-2.36,0.16-3.62,0.48c-1.26,0.32-2.28,1.12-3.07,2.4
			v21.02c0,0.43,0.12,0.73,0.37,0.91c0.25,0.18,0.54,0.38,0.88,0.59l3.01,1.76v3.01h-20.38v-3.01l4.13-1.76
			c0.32-0.17,0.61-0.36,0.86-0.56c0.26-0.2,0.38-0.52,0.38-0.94v-22.62c0-0.45-0.13-0.78-0.4-0.99s-0.55-0.38-0.85-0.51l-4.13-1.76
			v-3.1l15.42-1.66v5.66h0.51c2.03-2.6,4.03-4.24,6.02-4.93c1.98-0.68,3.85-1.02,5.6-1.02c1.49,0,2.96,0.22,4.4,0.66
			s2.74,1.21,3.89,2.32c1.15,1.11,2.03,2.67,2.62,4.67l0.45,0.93v22.21c0,0.51,0.11,0.86,0.34,1.04c0.22,0.18,0.53,0.39,0.91,0.62
			l2.91,1.76v3.01H348.79z M371.42,640.64v-3.01l3.33-1.76c0.36-0.21,0.67-0.42,0.91-0.61c0.25-0.19,0.37-0.54,0.37-1.06v-14.4
			c0-2-0.15-3.7-0.45-5.09c-0.3-1.39-0.88-2.44-1.74-3.17c-0.86-0.73-2.15-1.09-3.86-1.09c-1.09,0-2.3,0.19-3.63,0.56
			c-1.33,0.37-2.41,1.35-3.22,2.93l-0.96-3.07c1.79-2.35,3.43-4.04,4.91-5.09c1.48-1.04,2.87-1.7,4.18-1.97
			c1.3-0.27,2.56-0.4,3.78-0.4c2.13,0,4.09,0.42,5.87,1.25c1.78,0.83,3.22,2.14,4.3,3.92c1.09,1.78,1.63,4.09,1.63,6.93v18.69
			c0,0.51,0.12,0.87,0.35,1.07c0.23,0.2,0.53,0.4,0.9,0.59l3.68,1.76v3.01H371.42z"/>
		<path d="M415.93,641.47c-3.63,0-6.88-0.72-9.76-2.16c-2.88-1.44-5.16-3.56-6.83-6.35s-2.51-6.2-2.51-10.21c0-3.69,0.8-7,2.4-9.92
			s3.83-5.23,6.7-6.93c2.87-1.7,6.2-2.54,10-2.54c3.6,0,6.68,0.66,9.23,1.97c2.55,1.31,4.5,3.06,5.86,5.23
			c1.35,2.18,2.03,4.58,2.03,7.2c0,0.3-0.02,0.82-0.06,1.57c-0.04,0.75-0.09,1.48-0.13,2.21c-0.04,0.72-0.09,1.23-0.13,1.5h-25.41
			v-5.31h14.72c0-1.98-0.22-3.67-0.67-5.06c-0.45-1.39-1.16-2.45-2.14-3.18c-0.98-0.74-2.29-1.1-3.94-1.1
			c-1.13,0-2.16,0.23-3.09,0.69c-0.93,0.46-1.73,1.18-2.42,2.18c-0.68,0.99-1.21,2.26-1.58,3.81c-0.37,1.55-0.56,3.41-0.56,5.58
			c0,2.77,0.36,5.17,1.07,7.2s1.97,3.59,3.78,4.7c1.8,1.11,4.35,1.66,7.63,1.66c1.66,0,3.18-0.14,4.54-0.43s2.59-0.64,3.68-1.07
			s2.03-0.83,2.82-1.22h1.79v4.35c-1.94,1.34-4.41,2.62-7.41,3.82C422.55,640.87,419.34,641.47,415.93,641.47z"/>
		<path d="M460.6,640.64v-3.01l5.31-1.92c0.41-0.15,0.73-0.33,0.96-0.54s0.35-0.53,0.35-0.96v-21.76c0-0.43-0.12-0.75-0.37-0.96
			c-0.25-0.21-0.55-0.39-0.91-0.54l-5.28-2.08v-3.1l17.34-0.67v29.12c0,0.43,0.13,0.76,0.38,0.99c0.26,0.24,0.54,0.41,0.86,0.51
			l5.31,1.92v3.01H460.6z M471.96,600.32c-1.09,0-2.16-0.26-3.22-0.79c-1.06-0.52-1.94-1.23-2.64-2.11
			c-0.7-0.88-1.06-1.87-1.06-2.96c0-1.77,0.7-3.11,2.1-4.02c1.4-0.91,3-1.36,4.82-1.36c2.13,0,3.86,0.41,5.18,1.23
			c1.32,0.82,1.98,2.06,1.98,3.73c0,1.17-0.34,2.24-1.02,3.18c-0.68,0.95-1.57,1.7-2.67,2.26S473.18,600.32,471.96,600.32z"/>
		<path d="M517.11,604.38v5.73h-12.8v19.42c0,1.04,0.38,1.96,1.14,2.75s1.65,1.4,2.67,1.84c1.02,0.44,1.91,0.66,2.66,0.66
			c0.68,0,1.57-0.03,2.66-0.1c1.09-0.06,1.9-0.14,2.43-0.22h1.57v3.3c-0.53,0.3-1.42,0.73-2.67,1.28s-2.69,1.06-4.34,1.5
			c-1.64,0.45-3.33,0.67-5.06,0.67c-2.09,0-4.04-0.3-5.84-0.91s-3.25-1.47-4.35-2.59s-1.65-2.44-1.65-3.95v-23.65h-5.86v-5.09
			c1.3-0.17,2.43-0.36,3.38-0.56s1.7-0.62,2.26-1.26c0.55-0.64,0.87-1.7,0.96-3.17l0.32-5.09l9.73-1.38v10.82H517.11z"/>
		<path d="M530.87,625.66v-11.55c1.22-0.17,2.51-0.4,3.89-0.7c1.38-0.3,2.67-0.77,3.87-1.42c1.21-0.65,2.19-1.56,2.94-2.74
			c0.76-1.17,1.14-2.72,1.14-4.64c0-1.11-0.12-2.18-0.35-3.22c-0.23-1.03-0.72-1.89-1.46-2.56s-1.84-1.01-3.31-1.01
			c-1.54,0-3.09,0.35-4.67,1.04c-1.58,0.69-3.01,1.47-4.29,2.32s-2.26,1.52-2.94,1.98h-2.05v-8.58c0.68-0.28,1.68-0.65,2.99-1.12
			s2.84-0.9,4.58-1.3c1.74-0.39,3.59-0.59,5.55-0.59c2.82,0,5.48,0.49,7.98,1.46c2.51,0.97,4.55,2.43,6.13,4.38
			c1.58,1.95,2.37,4.41,2.37,7.38c0,3.29-0.7,5.98-2.1,8.1c-1.4,2.11-3.24,3.79-5.54,5.02c-2.29,1.24-4.78,2.2-7.47,2.88l-0.67,4.86
			H530.87z M534.26,641.47c-1.83,0-3.4-0.53-4.7-1.58c-1.3-1.06-1.95-2.46-1.95-4.21s0.65-3.29,1.95-4.61
			c1.3-1.32,2.87-1.98,4.7-1.98c1.9,0,3.5,0.66,4.8,1.98c1.3,1.32,1.95,2.86,1.95,4.61s-0.65,3.15-1.95,4.21
			C537.76,640.94,536.16,641.47,534.26,641.47z"/>
	</g>
</g>
<g>
	<g>
		<g>
			<polygon class="st2" points="1551.49,550.59 1708.42,550.59 1627.63,779.93 1521.18,779.93 1473.28,779.93 			"/>
		</g>
		<g>
			<polygon class="st2" points="1644.79,811.12 1679.03,1055.01 1668.18,1055.01 1619.13,813.03 			"/>
		</g>
		<g>
			<polygon class="st2" points="1496.32,811.12 1462.07,1055.01 1472.93,1055.01 1521.97,813.03 			"/>
		</g>
		<g>
			<polygon class="st2" points="1375.39,811.12 1341.15,1055.01 1352,1055.01 1401.05,813.03 			"/>
		</g>
		<g>
			<path class="st2" d="M1370.26,779.93h103.02h47.9l-9.67,34.91c-0.94,3.39-4.47,5.78-5.19,5.78h-150.5L1370.26,779.93z"/>
		</g>
		<g>
			<path class="st3" d="M1490.69,779.93h136.94l80.79-229.34l12.81-0.64l-55.37,264.89c-0.94,3.39-4.47,5.78-8.53,5.78h-177.68
				L1490.69,779.93z"/>
		</g>
	</g>
	<g>
		<g>
			<g>
				<polygon class="st4" points="1351.16,588.98 1247.61,675.42 1278.72,706.38 1393.84,631.44 				"/>
				<path class="st4" d="M1397.28,591.92c-11.79-11.73-32.44-13.05-46.12-2.95c-13.69,10.1-15.22,27.79-3.44,39.52
					c11.79,11.73,32.44,13.05,46.12,2.95C1407.53,621.34,1409.07,603.65,1397.28,591.92z"/>
				<path class="st4" d="M1281.23,677.57c-8.59-8.55-23.64-9.51-33.62-2.15c-9.98,7.36-11.1,20.26-2.51,28.81
					c8.59,8.55,23.64,9.51,33.62,2.15C1288.7,699.02,1289.82,686.12,1281.23,677.57z"/>
			</g>
		</g>
		<g>
			<path class="st4" d="M1357.93,635.3c16.17,6.9,35.8,1.26,43.85-12.59c8.05-13.85,1.47-30.68-14.7-37.57
				c-16.17-6.9-35.8-1.26-43.85,12.59C1335.18,611.57,1341.76,628.4,1357.93,635.3z"/>
			<polygon class="st4" points="1401.78,622.7 1467.61,509.41 1409.06,484.43 1343.23,597.72 			"/>
			<g>
				<polygon class="st5" points="1444.19,587.67 1482.3,510.11 1409.06,484.43 1366.76,557.23 				"/>
				<ellipse class="st5" cx="1438.34" cy="496.92" rx="32.7" ry="28.02"/>
			</g>
		</g>
		<g>
			<path class="st4" d="M1278.72,706.38c0,0-5.57,3.02-8.26,10.88c-2.69,7.86-5.94,25.05-11.19,25.68
				c-5.25,0.63-3.45-23.65-3.45-23.65s-34.14,30.94-39.65,29.1c-6.53-2.18,16.48-22.91,16.48-22.91s-29.34,18.18-33.44,15.77
				c-4.1-2.41,23.33-21.34,23.33-21.34s-32.78,15.47-36.36,13.09c-3.58-2.38,26.13-19.4,26.13-19.4s-27.27,12.7-30.06,9.39
				c-2.79-3.31,64.07-46.56,64.07-46.56L1278.72,706.38z"/>
			<g>
				<g>
					<ellipse class="st4" cx="1263.16" cy="690.9" rx="23.84" ry="20.43"/>
				</g>
			</g>
		</g>
		<g>
			<g>
				<path class="st6" d="M1155.66,1015.91c-14.62-1.63-25.87-14.21-25.87-14.21l-13.85-0.05c4.86-20.5,4.05-26.84,4.05-26.84
					l60.66,17.21l-0.85,10.9l0,0c-4.77-0.22-9.21,2.18-10.89,6.01C1167.22,1012.79,1163.57,1016.79,1155.66,1015.91z"/>
			</g>
			<g>
				<path class="st7" d="M1063.52,1030.59c16.9-7.89,46.34-4.19,51.85-26.6c0.2-0.82,0.38-1.57,0.56-2.35l13.85,0.05
					c0,0,11.24,12.58,25.87,14.21c7.91,0.88,11.57-3.12,13.26-6.99c1.67-3.83,6.12-6.23,10.89-6.01l0,0l-3.37,43.41l-131.77-0.51
					C1044.66,1045.81,1046.63,1038.48,1063.52,1030.59z"/>
			</g>
			<g>
				<g>
					<path class="st8" d="M1153.92,1027.8c7.06-4.68,15.71-7.37,24.55-7.8l-0.22,2.87c-8.04,0.46-15.87,2.95-22.28,7.2
						c-6.24,4.13-10.92,9.79-13.52,16.11l-3.52-0.01C1141.65,1038.95,1146.86,1032.47,1153.92,1027.8z"/>
				</g>
				<g>
					<path class="st8" d="M1129.79,1001.7c0,0,0.49,0.54,1.35,1.38c-3.39,14.95-12.12,24.65-26.75,29.57
						c-3.2,1.08-6.54,1.59-9.83,1.57c-7.3-0.03-14.39-2.66-19.57-7.3c1.23-0.29,2.48-0.56,3.75-0.83
						c6.58,5.05,16.01,6.72,24.44,3.88c13.75-4.62,21.89-13.88,24.91-28.29L1129.79,1001.7L1129.79,1001.7z"/>
				</g>
			</g>
			<g>
				<polygon class="st6" points="1176.43,1046.32 1175.54,1055.01 1043.76,1054.5 1044.66,1045.81 				"/>
			</g>
		</g>
		<g>
			<g>
				<g>
					<path class="st2" d="M1528.63,754.8c0,0-19.53,16.71-106.57,23c-37.06,2.68-158.46,3.93-233.45,10.31l-8.06-74.22l250.04-24.56
						l62.19-3.55L1528.63,754.8z"/>
				</g>
			</g>
			<path class="st2" d="M1180.55,713.89c-23.92,1.91-41.51,20.07-39.28,40.56c2.23,20.5,23.42,35.56,47.34,33.66
				c23.92-1.91,41.5-20.07,39.28-40.56C1225.66,727.05,1204.47,711.99,1180.55,713.89z"/>
		</g>
		<g>
			<polygon class="st2" points="1227.62,756.4 1185.94,995.66 1111.23,990.39 1141.54,745.61 			"/>
			<path class="st2" d="M1141.54,745.61c-3.48,20.37,12.97,39.29,36.75,42.27c23.77,2.98,45.86-11.12,49.33-31.49
				c3.48-20.37-12.98-39.29-36.75-42.27C1167.1,711.15,1145.02,725.24,1141.54,745.61z"/>
		</g>
		<g>
			<g>
				<path class="st6" d="M1256.89,1015.91c-14.62-1.63-25.87-14.21-25.87-14.21l-13.85-0.05c4.86-20.5,4.05-26.84,4.05-26.84
					l60.66,17.21l-0.85,10.9l0,0c-4.77-0.22-9.21,2.18-10.89,6.01C1268.45,1012.79,1264.8,1016.79,1256.89,1015.91z"/>
			</g>
			<g>
				<path class="st7" d="M1164.76,1030.59c16.9-7.89,46.34-4.19,51.85-26.6c0.2-0.82,0.38-1.57,0.56-2.35l13.85,0.05
					c0,0,11.24,12.58,25.87,14.21c7.91,0.88,11.57-3.12,13.26-6.99c1.67-3.83,6.12-6.23,10.89-6.01l0,0l-3.37,43.41l-131.77-0.51
					C1145.89,1045.81,1147.86,1038.48,1164.76,1030.59z"/>
			</g>
			<g>
				<g>
					<path class="st8" d="M1255.15,1027.8c7.06-4.68,15.71-7.37,24.55-7.8l-0.22,2.87c-8.04,0.46-15.87,2.95-22.28,7.2
						c-6.24,4.13-10.92,9.79-13.52,16.11l-3.52-0.01C1242.88,1038.95,1248.1,1032.47,1255.15,1027.8z"/>
				</g>
				<g>
					<path class="st8" d="M1231.02,1001.7c0,0,0.49,0.54,1.35,1.38c-3.39,14.95-12.12,24.65-26.75,29.57
						c-3.2,1.08-6.54,1.59-9.83,1.57c-7.3-0.03-14.39-2.66-19.57-7.3c1.23-0.29,2.48-0.56,3.75-0.83
						c6.58,5.05,16.01,6.72,24.44,3.88c13.75-4.62,21.89-13.88,24.91-28.29L1231.02,1001.7L1231.02,1001.7z"/>
				</g>
			</g>
			<g>
				<polygon class="st6" points="1277.66,1046.32 1276.77,1055.01 1144.99,1054.5 1145.89,1045.81 				"/>
			</g>
		</g>
		<g>
			<g>
				<g>
					<path class="st2" d="M1586.91,688.3c24.33,37.67-4.14,84.47-54.14,88.75c-3.07,0.26-6.23,0.51-9.48,0.75
						c-37.06,2.68-158.46,3.93-233.45,10.31l-8.06-74.22l211.01-28.11L1586.91,688.3L1586.91,688.3z"/>
				</g>
			</g>
			<ellipse class="st2" cx="1285.81" cy="751" rx="43.5" ry="37.27"/>
		</g>
		<g>
			<polygon class="st2" points="1328.85,756.4 1287.17,995.66 1212.46,990.39 1242.77,745.61 			"/>
			<path class="st2" d="M1242.77,745.61c-3.48,20.37,12.98,39.29,36.75,42.27c23.77,2.98,45.86-11.12,49.33-31.49
				c3.48-20.37-12.98-39.29-36.75-42.27C1268.33,711.15,1246.25,725.24,1242.77,745.61z"/>
		</g>
		<g>
			<path class="st9" d="M1597.46,584.06c0,0,0.07,0.06,0.17,0.17l-0.28,0.48C1597.41,584.32,1597.46,584.06,1597.46,584.06z"/>
		</g>
		<path class="st5" d="M1586.91,688.3l17.34-147.81l-12.1-71.6h-153.76c0,0-38.17,64.31-8.42,146.39l0.63,74.05L1586.91,688.3z"/>
		<path class="st5" d="M1438.27,524.94c18.06,0.03,32.73-12.5,32.76-27.97c0.03-15.48-14.58-28.04-32.65-28.07
			c-18.06-0.03-32.73,12.5-32.76,27.97C1405.6,512.34,1420.21,524.91,1438.27,524.94z"/>
		<g>
			<path class="st6" d="M1501.56,488.55l-12.27-19.53l-14.76,18.46c0,0-4.76-14.67-4.74-18.59l10.49-15.44l9.35,11.15l46-17.82
				l3.78,22.11L1501.56,488.55z"/>
		</g>
		<g>
			<g>
				<g>
					<path class="st4" d="M1549.01,589.31c-14.08-9.7-34.66-7.78-45.98,4.28c-11.32,12.06-9.08,29.7,5,39.4
						c14.08,9.7,34.66,7.78,45.98-4.28C1565.32,616.65,1563.09,599.01,1549.01,589.31z"/>
				</g>
			</g>
			<polygon class="st4" points="1558.04,623.21 1593.48,559.53 1521.72,558.26 1499,599.09 			"/>
			<g>
				<polygon class="st5" points="1599.75,587.56 1624.14,502.54 1562.57,484.85 1521.72,558.26 				"/>
				<path class="st5" d="M1578.02,522.21c16.3,6.66,35.82,0.74,43.59-13.23c7.77-13.97,0.86-30.69-15.44-37.35
					c-16.3-6.66-35.82-0.74-43.59,13.23C1554.8,498.82,1561.71,515.55,1578.02,522.21z"/>
			</g>
		</g>
		<g>
			<path class="st4" d="M1393.63,665.54c0,0-4.26,4.31-13.72,5.5c-9.46,1.19-29.78,1.56-31.24,5.93
				c-1.46,4.37,26.85,6.21,26.85,6.21s-40.5,24.68-39.14,29.61c1.62,5.85,28.77-10.81,28.77-10.81s-25.08,22.37-22.87,26.19
				c2.21,3.81,27.9-16.84,27.9-16.84s-22.43,25.67-20.17,29.04c2.26,3.37,26.05-19.48,26.05-19.48s-18.46,21.38-15.03,24.2
				c3.44,2.82,62.71-47.9,62.71-47.9L1393.63,665.54z"/>
			<g>
				<g>
					<path class="st4" d="M1421.54,663.33c-11.32-5.76-25.95-2.58-32.67,7.12c-6.73,9.7-3.01,22.23,8.31,28
						c11.32,5.76,25.95,2.58,32.67-7.12C1436.58,681.63,1432.86,669.09,1421.54,663.33z"/>
				</g>
			</g>
		</g>
		<g>
			<g>
				<polygon class="st4" points="1510.08,588.01 1395.92,664.02 1422.81,697.76 1546.96,634.29 				"/>
				<path class="st4" d="M1555.52,595.35c-10.19-12.78-30.54-16.06-45.45-7.34c-14.91,8.73-18.75,26.16-8.56,38.94
					c10.19,12.78,30.54,16.06,45.45,7.33C1561.88,625.56,1565.71,608.13,1555.52,595.35z"/>
				<path class="st4" d="M1429.05,669.37c-7.43-9.32-22.26-11.71-33.13-5.35c-10.87,6.36-13.67,19.07-6.24,28.39
					s22.26,11.71,33.13,5.35C1433.68,691.39,1436.47,678.68,1429.05,669.37z"/>
			</g>
		</g>
	</g>
	<g>
		<path class="st10" d="M1016.34,613.67h145.89l4.99-6.41h-158.36l0,0C1008.85,610.8,1012.2,613.67,1016.34,613.67z"/>
		<polygon class="st6" points="1149.13,613.67 1302.5,613.67 1307.48,607.26 1149.13,607.26 		"/>
		<path class="st6" d="M956.88,474.36l56.81,132.9h140.27l-56.37-131.89c-1.44-3.37-5.18-5.61-9.37-5.61H960.63
			C957.86,469.77,955.93,472.13,956.88,474.36z"/>
		<path class="st10" d="M952.05,474.36l56.81,132.9h140.27l-56.37-131.89c-1.44-3.37-5.18-5.61-9.37-5.61H955.79
			C953.02,469.77,951.09,472.13,952.05,474.36z"/>
	</g>
	<g>
		<polygon class="st2" points="968.21,622.54 920,1055.06 932.17,1055.06 993.54,626.21 		"/>
		<polygon class="st2" points="1443.92,622.54 1492.13,1055.06 1479.97,1055.06 1418.6,626.21 		"/>
		<rect x="932.49" y="613.67" class="st3" width="547.15" height="15.18"/>
	</g>
	<g>
		<rect x="1355.3" y="610.84" class="st6" width="48.11" height="2.83"/>
		<path class="st6" d="M1337.11,589.35c0,5.44,5.14,9.84,11.49,9.84c2.29,0,4.41-0.59,6.2-1.58c0.71,7.4,7.93,13.23,16.76,13.23
			h15.6c9.29,0,16.83-6.45,16.83-14.42v-24.71h-49.25v9.34c-1.78-0.97-3.87-1.55-6.13-1.55
			C1342.26,579.51,1337.11,583.91,1337.11,589.35z M1342.92,589.35c0-2.69,2.54-4.87,5.68-4.87c3.14,0,5.68,2.18,5.68,4.87
			c0,2.69-2.54,4.86-5.68,4.86C1345.47,594.22,1342.92,592.04,1342.92,589.35z"/>
	</g>
</g>
<g>
	<g>
		<polygon class="st4" points="1536.64,408.19 1534.05,466.4 1478.2,466.4 1482.38,443.24 		"/>
	</g>
	<path class="st2" d="M1485.58,448.13c-1.57,0.13-2.89,0.1-4.08-0.01l-1.68,9.32c27.19-1.52,35.86-25.7,35.86-25.7l-0.01,0
		C1509.66,437.59,1492.72,447.54,1485.58,448.13z"/>
	<g>
		<path class="st4" d="M1524.76,415.64c0,0-3.5,10.68-7.69,16.13c-4.04,5.26-28.91,22.8-42.37,15.11
			c-10.31-5.89-12.35-20.88-12.87-31.27c-0.6-12.05-0.81-25.82,1.15-36.73l46.48-8.01l17.14,32.98L1524.76,415.64z"/>
	</g>
	<path class="st11" d="M1491.29,421.07c-4.09,0.56-7.88,2.63-10.23,5.59"/>
	<g>
		<path class="st2" d="M1477.98,403.8c-0.03,2.43-1.61,4.38-3.53,4.36c-1.92-0.02-3.44-2.01-3.4-4.44c0.03-2.43,1.61-4.38,3.53-4.36
			C1476.49,399.38,1478.02,401.37,1477.98,403.8z"/>
	</g>
	<g>
		<path class="st2" d="M1497.98,403.07c-0.03,2.43-1.62,4.38-3.53,4.36c-1.92-0.02-3.44-2.01-3.4-4.44
			c0.03-2.43,1.61-4.38,3.53-4.36C1496.49,398.65,1498.01,400.64,1497.98,403.07z"/>
	</g>
	<g>
		<path class="st2" d="M1479.01,392.73c0.34,0.15,0.58,0.45,0.61,0.81c0.05,0.55-0.42,1.03-1.05,1.08c-3.5,0.25-6.94-1.23-8.96-3.86
			c-0.35-0.46-0.21-1.08,0.31-1.39c0.53-0.31,1.25-0.18,1.6,0.27c1.56,2.03,4.2,3.16,6.86,2.98
			C1478.6,392.6,1478.82,392.64,1479.01,392.73z"/>
	</g>
	<g>
		<path class="st2" d="M1487.7,390.93c-0.35,0-0.7-0.14-0.93-0.41c-0.37-0.45-0.26-1.07,0.25-1.4c3.22-2.04,7.85-2.21,11.25-0.4
			c0.54,0.29,0.71,0.9,0.38,1.38c-0.33,0.47-1.04,0.62-1.58,0.33c-2.63-1.4-6.21-1.27-8.7,0.31
			C1488.17,390.87,1487.93,390.93,1487.7,390.93z"/>
	</g>
	<g>
		<path class="st2" d="M1480.25,420.7c-0.76,0-1.88-0.12-2.79-0.7c-0.77-0.49-1.25-1.22-1.39-2.12c-0.39-2.48,3.49-15.08,4.27-17.59
			c0.17-0.53,0.81-0.85,1.41-0.7c0.61,0.15,0.98,0.7,0.81,1.23c-1.76,5.64-4.47,15.19-4.22,16.79c0.07,0.47,0.3,0.67,0.47,0.77
			c0.58,0.37,1.6,0.33,1.94,0.29c0.61-0.09,1.22,0.28,1.32,0.83c0.1,0.54-0.32,1.06-0.94,1.15
			C1481.05,420.66,1480.71,420.7,1480.25,420.7z"/>
	</g>
	<g>
		<path class="st2" d="M1536.61,372.13c0,0,30.97-8.19,2.04,36.84l-3.02,21.68l-10.23-12.42l-7.04-11.23l-4.55,10.3h-2.62
			l0.71-24.57c0,0-10.23-2.98-9.66-14.71c0,0-45.69,11.52-52.69-2.4l8.12-9.96l5.56,2.6c0,0-7.48-6.51-8.12-16.73l10.69,8.18
			c0,0-7.69-8.36,0-19.15l13.52-0.56c0,0,3.28,6.13,14.67,10.6C1507.63,355.93,1543.73,351.28,1536.61,372.13z"/>
	</g>
	<g>
		<ellipse class="st4" cx="1528.76" cy="410.54" rx="11.16" ry="9.71"/>
	</g>
	<g>
		<path class="st6" d="M1501.5,488l-12.04-19.45l-14.49,18.39c0,0-4.67-14.62-4.65-18.52l10.3-15.38l9.18,11.11l45.15-17.75
			l3.71,22.02L1501.5,488z"/>
	</g>
	<path class="st5" d="M1509.34,353.51c-1.55-0.19-3.06-0.38-4.54-0.58c2.31,5.83,5.39,11.44,9.77,16.24
		c5.8,6.35,13.42,11.53,22.15,14.38c4.31,1.41,8.78,2.19,13.32,2.62c0.74-2.66,1-4.84,0.92-6.64c-6.37-1.42-12.53-3.59-18.2-6.48
		C1523.34,368.25,1515.29,361.48,1509.34,353.51z"/>
</g>
</svg>
