<?xml version="1.0" encoding="utf-8"?>
<!-- Generator: Adobe Illustrator 27.8.1, SVG Export Plug-In . SVG Version: 6.00 Build 0)  -->
<svg version="1.1" id="Ñëîé_1" xmlns="http://www.w3.org/2000/svg" xmlns:xlink="http://www.w3.org/1999/xlink" x="0px" y="0px"
	 viewBox="0 0 867.55 450" style="enable-background:new 0 0 867.55 450;" xml:space="preserve">
<style type="text/css">
	.st0{fill:#DCE9F4;}
	.st1{fill:#C8D9ED;}
	.st2{fill:#3E5177;}
	.st3{fill:#B0C9E2;}
	.st4{fill:#FFFFFF;}
	.st5{fill:#8CA3C4;}
	.st6{fill:#1F2A51;}
	.st7{fill:#B9B40D;}
	.st8{fill:#B73037;}
	.st9{opacity:0.23;}
	.st10{fill:#5A6E7F;}
	.st11{fill:#97D5C9;}
	.st12{fill:#5CBFAB;}
	.st13{fill:#FFAC9C;}
	.st14{fill:#2743AB;}
	.st15{fill:#70D4FF;}
	.st16{fill:#BCEBFF;}
	.st17{fill:#000E1B;}
	.st18{fill:none;}
	.st19{fill:#1A7DFB;}
	.st20{fill:#2E3944;}
</style>
<g>
	<rect y="1" class="st0" width="867.55" height="321.89"/>
	<g>
		<g>
			
				<rect x="302.15" y="154.95" transform="matrix(-1.836970e-16 1 -1 -1.836970e-16 617.3154 -301.1496)" class="st1" width="314.17" height="6.27"/>
			
				<rect x="436.29" y="154.95" transform="matrix(-1.836970e-16 1 -1 -1.836970e-16 751.4571 -435.2913)" class="st1" width="314.17" height="6.27"/>
			
				<rect x="570.43" y="154.95" transform="matrix(-1.836970e-16 1 -1 -1.836970e-16 885.5988 -569.4329)" class="st1" width="314.17" height="6.27"/>
			
				<rect x="-99.33" y="154.95" transform="matrix(-1.836970e-16 1 -1 -1.836970e-16 215.8382 100.3276)" class="st1" width="314.17" height="6.27"/>
			
				<rect x="34.81" y="154.95" transform="matrix(-1.836970e-16 1 -1 -1.836970e-16 349.9799 -33.814)" class="st1" width="314.17" height="6.27"/>
			
				<rect x="168.96" y="154.95" transform="matrix(-1.836970e-16 1 -1 -1.836970e-16 484.1215 -167.9557)" class="st1" width="314.17" height="6.27"/>
		</g>
	</g>
	<rect y="290.56" class="st2" width="867.55" height="3.23"/>
	<rect y="314.63" class="st3" width="867.55" height="136.37"/>
	<g>
		<g>
			<g>
				<rect x="286.46" y="61.3" class="st2" width="105.23" height="32.61"/>
				<path class="st4" d="M329.79,76.26c-4.25,0-8.5,0-12.76,0c-4.23,0-8.46,0-12.69,0c-1.69,0-3.38,0-5.07,0l7.22-8.13l-1.5-1.33
					l-9.61,10.81l9.61,10.81l1.5-1.33l-7.62-8.57c3.69,0,7.37,0,11.06,0c4.23,0,8.46,0,12.69,0c2.39,0,4.77,0,7.16,0
					c0.59,0,1.15-0.52,1.13-1.13C330.89,76.77,330.43,76.26,329.79,76.26z"/>
			</g>
			<g>
				<rect x="306.47" y="1" class="st2" width="2.96" height="60.85"/>
				<rect x="368.71" y="1" class="st2" width="2.96" height="60.85"/>
			</g>
		</g>
		<g>
			<g>
				
					<rect x="414.56" y="61.3" transform="matrix(-1 -1.224647e-16 1.224647e-16 -1 934.3524 155.2127)" class="st2" width="105.23" height="32.61"/>
				<path class="st4" d="M476.46,76.26c4.25,0,8.5,0,12.76,0c4.23,0,8.46,0,12.69,0c1.69,0,3.38,0,5.07,0l-7.22-8.13l1.5-1.33
					l9.61,10.81l-9.61,10.81l-1.5-1.33l7.62-8.57c-3.69,0-7.37,0-11.06,0c-4.23,0-8.46,0-12.69,0c-2.39,0-4.77,0-7.16,0
					c-0.59,0-1.15-0.52-1.13-1.13C475.36,76.77,475.82,76.26,476.46,76.26z"/>
			</g>
			<g>
				
					<rect x="496.82" y="1" transform="matrix(-1 -1.224647e-16 1.224647e-16 -1 996.6 62.8544)" class="st2" width="2.96" height="60.85"/>
				
					<rect x="434.57" y="1" transform="matrix(-1 -1.224647e-16 1.224647e-16 -1 872.1048 62.8544)" class="st2" width="2.96" height="60.85"/>
			</g>
		</g>
	</g>
	<g>
		
			<ellipse transform="matrix(0.1602 -0.9871 0.9871 0.1602 4.7371 192.5904)" class="st5" cx="115.55" cy="93.51" rx="17.39" ry="17.39"/>
		<g>
			<path class="st2" d="M115.55,120.97c-7.33,0-14.23-2.86-19.41-8.04c-5.19-5.19-8.04-12.08-8.04-19.41s2.86-14.23,8.04-19.41
				c5.19-5.19,12.08-8.04,19.41-8.04s14.23,2.86,19.41,8.04c5.19,5.19,8.04,12.08,8.04,19.41s-2.86,14.23-8.04,19.41
				C129.78,118.11,122.88,120.97,115.55,120.97z M115.55,70.54c-12.67,0-22.97,10.31-22.97,22.97c0,12.67,10.31,22.97,22.97,22.97
				s22.97-10.31,22.97-22.97C138.52,80.84,128.22,70.54,115.55,70.54z"/>
		</g>
		<g>
			<path class="st6" d="M115.11,97.71c-0.6,0-1.08-0.49-1.08-1.08V85.24c0-0.6,0.49-1.08,1.08-1.08c0.6,0,1.08,0.49,1.08,1.08v11.38
				C116.2,97.22,115.71,97.71,115.11,97.71z"/>
			<path class="st6" d="M114.97,97.39c-0.42-0.42-0.42-1.11,0-1.53l8.05-8.05c0.42-0.42,1.11-0.42,1.53,0
				c0.42,0.42,0.42,1.11,0,1.53l-8.05,8.05C116.08,97.81,115.39,97.81,114.97,97.39z"/>
		</g>
		<g>
			<path class="st7" d="M98.27,89.9c-0.01-0.01-0.02-0.02-0.03-0.03C98.26,89.89,98.27,89.9,98.27,89.9z"/>
			<path class="st8" d="M96.41,91.34C96.41,91.41,96.41,91.36,96.41,91.34L96.41,91.34z M96.63,92.24
				C96.56,92.2,96.61,92.22,96.63,92.24L96.63,92.24z"/>
		</g>
	</g>
	<g>
		<path class="st2" d="M489.99,279.19v44.89h6.21v-44.89c0-2.12-1.39-3.83-3.11-3.83l0,0C491.38,275.36,489.99,277.07,489.99,279.19
			z"/>
		<rect x="488.01" y="322.3" class="st2" width="10.16" height="2.56"/>
	</g>
	<g>
		<path class="st2" d="M825.72,279.19v44.89h6.21v-44.89c0-2.12-1.39-3.83-3.11-3.83l0,0C827.11,275.36,825.72,277.07,825.72,279.19
			z"/>
		<rect x="823.74" y="322.3" class="st2" width="10.16" height="2.56"/>
	</g>
	<g>
		<path class="st2" d="M45.22,274.7v44.89h6.21V274.7c0-2.12-1.39-3.83-3.11-3.83l0,0C46.61,270.87,45.22,272.58,45.22,274.7z"/>
		<rect x="43.25" y="317.81" class="st2" width="10.16" height="2.56"/>
	</g>
	<g class="st9">
		<path class="st2" d="M432.27,341.78c9.9,0,19.81,0,29.71,0c9.85,0,19.71,0,29.56,0c5.56,0,11.12,0,16.68,0
			c0.35,0,0.35-0.54,0-0.54c-9.9,0-19.81,0-29.71,0c-9.85,0-19.71,0-29.56,0c-5.56,0-11.12,0-16.68,0
			C431.93,341.24,431.93,341.78,432.27,341.78L432.27,341.78z"/>
	</g>
	<g class="st9">
		<path class="st2" d="M420.17,367.1c8.76,0,17.51,0,26.27,0c8.71,0,17.42,0,26.13,0c4.91,0,9.83,0,14.74,0c0.35,0,0.35-0.54,0-0.54
			c-8.76,0-17.51,0-26.27,0c-8.71,0-17.42,0-26.13,0c-4.91,0-9.83,0-14.74,0C419.82,366.56,419.82,367.1,420.17,367.1L420.17,367.1z
			"/>
	</g>
	<g class="st9">
		<path class="st2" d="M449.89,394.62c7.3,0,14.6,0,21.89,0s14.6,0,21.89,0c4.12,0,8.23,0,12.35,0c0.35,0,0.35-0.54,0-0.54
			c-7.3,0-14.6,0-21.89,0c-7.3,0-14.6,0-21.89,0c-4.12,0-8.23,0-12.35,0C449.54,394.08,449.54,394.62,449.89,394.62L449.89,394.62z"
			/>
	</g>
	<g class="st9">
		<path class="st2" d="M459.79,429.84c24.61,0,49.22,0,73.84,0c24.61,0,49.22,0,73.84,0c13.88,0,27.77,0,41.65,0
			c0.35,0,0.35-0.54,0-0.54c-24.61,0-49.22,0-73.84,0c-24.61,0-49.22,0-73.84,0c-13.88,0-27.77,0-41.65,0
			C459.45,429.3,459.44,429.84,459.79,429.84L459.79,429.84z"/>
	</g>
	<g class="st9">
		<path class="st2" d="M698.65,418.83c11.59,0,23.18,0,34.77,0c11.59,0,23.18,0,34.77,0c6.54,0,13.08,0,19.61,0
			c0.35,0,0.35-0.54,0-0.54c-11.59,0-23.18,0-34.77,0c-11.59,0-23.18,0-34.77,0c-6.54,0-13.08,0-19.61,0
			C698.3,418.29,698.3,418.83,698.65,418.83L698.65,418.83z"/>
	</g>
	<g class="st9">
		<path class="st2" d="M791.11,364.9c8.47,0,16.94,0,25.41,0c8.43,0,16.85,0,25.28,0c4.75,0,9.51,0,14.26,0c0.35,0,0.35-0.54,0-0.54
			c-8.47,0-16.94,0-25.41,0c-8.43,0-16.85,0-25.28,0c-4.75,0-9.51,0-14.26,0C790.76,364.36,790.76,364.9,791.11,364.9L791.11,364.9z
			"/>
	</g>
	<g class="st9">
		<path class="st2" d="M804.32,393.52c5.45,0,10.89,0,16.34,0c5.45,0,10.89,0,16.34,0c3.05,0,6.1,0,9.16,0c0.35,0,0.35-0.54,0-0.54
			c-5.45,0-10.89,0-16.34,0c-5.45,0-10.89,0-16.34,0c-3.05,0-6.1,0-9.16,0C803.97,392.98,803.97,393.52,804.32,393.52L804.32,393.52
			z"/>
	</g>
	<g class="st9">
		<path class="st2" d="M777.9,331.88c5.17,0,10.34,0,15.51,0c5.14,0,10.28,0,15.42,0c2.9,0,5.8,0,8.7,0c0.35,0,0.35-0.54,0-0.54
			c-5.17,0-10.34,0-15.51,0c-5.14,0-10.28,0-15.42,0c-2.9,0-5.8,0-8.7,0C777.55,331.34,777.55,331.88,777.9,331.88L777.9,331.88z"/>
	</g>
	<g class="st9">
		<path class="st2" d="M653.52,343.98c2.94,0,5.87,0,8.81,0c0.35,0,0.35-0.54,0-0.54c-2.94,0-5.87,0-8.81,0
			C653.17,343.45,653.17,343.98,653.52,343.98L653.52,343.98z"/>
	</g>
	<g class="st9">
		<path class="st2" d="M654.62,332.98c2.2,0,4.4,0,6.6,0c0.35,0,0.35-0.54,0-0.54c-2.2,0-4.4,0-6.6,0
			C654.27,332.44,654.27,332.98,654.62,332.98L654.62,332.98z"/>
	</g>
	<g class="st9">
		<path class="st2" d="M613.89,347.29c3.67,0,7.34,0,11.01,0c0.35,0,0.35-0.54,0-0.54c-3.67,0-7.34,0-11.01,0
			C613.55,346.75,613.54,347.29,613.89,347.29L613.89,347.29z"/>
	</g>
	<g class="st9">
		<path class="st2" d="M272.67,430.94c18.03,0,36.06,0,54.09,0c18.03,0,36.06,0,54.09,0c10.17,0,20.34,0,30.51,0
			c0.35,0,0.35-0.54,0-0.54c-18.03,0-36.06,0-54.09,0c-18.03,0-36.06,0-54.09,0c-10.17,0-20.34,0-30.51,0
			C272.32,430.4,272.32,430.94,272.67,430.94L272.67,430.94z"/>
	</g>
	<g class="st9">
		<path class="st2" d="M167,418.83c5.17,0,10.34,0,15.51,0c5.14,0,10.28,0,15.42,0c2.9,0,5.8,0,8.7,0c0.35,0,0.35-0.54,0-0.54
			c-5.17,0-10.34,0-15.51,0c-5.14,0-10.28,0-15.42,0c-2.9,0-5.8,0-8.7,0C166.65,418.29,166.65,418.83,167,418.83L167,418.83z"/>
	</g>
	<g class="st9">
		<path class="st2" d="M171.4,400.12c3.29,0,6.58,0,9.88,0c3.29,0,6.58,0,9.88,0c1.86,0,3.71,0,5.57,0c0.35,0,0.35-0.54,0-0.54
			c-3.29,0-6.58,0-9.88,0c-3.29,0-6.58,0-9.88,0c-1.86,0-3.71,0-5.57,0C171.06,399.58,171.06,400.12,171.4,400.12L171.4,400.12z"/>
	</g>
	<g class="st9">
		<path class="st2" d="M249.55,354.99c3.14,0,6.28,0,9.42,0c0.9,0,1.79,0,2.69,0c0.35,0,0.35-0.54,0-0.54c-3.14,0-6.28,0-9.42,0
			c-0.9,0-1.79,0-2.69,0C249.21,354.45,249.21,354.99,249.55,354.99L249.55,354.99z"/>
	</g>
	<g class="st9">
		<path class="st2" d="M246.25,339.58c5.45,0,10.89,0,16.34,0c1.53,0,3.05,0,4.58,0c0.35,0,0.35-0.54,0-0.54
			c-5.45,0-10.89,0-16.34,0c-1.53,0-3.05,0-4.58,0C245.91,339.04,245.91,339.58,246.25,339.58L246.25,339.58z"/>
	</g>
	<g class="st9">
		<path class="st2" d="M183.51,438.65c5.87,0,11.73,0,17.6,0c5.87,0,11.73,0,17.6,0c3.31,0,6.62,0,9.93,0c0.35,0,0.35-0.54,0-0.54
			c-5.87,0-11.73,0-17.6,0c-5.87,0-11.73,0-17.6,0c-3.31,0-6.62,0-9.93,0C183.17,438.11,183.16,438.65,183.51,438.65L183.51,438.65z
			"/>
	</g>
	<g class="st9">
		<path class="st2" d="M55.83,426.54c12.34,0,24.69,0,37.03,0c12.28,0,24.56,0,36.84,0c6.93,0,13.86,0,20.78,0
			c0.35,0,0.35-0.54,0-0.54c-12.34,0-24.69,0-37.03,0c-12.28,0-24.56,0-36.84,0c-6.93,0-13.86,0-20.78,0
			C55.48,426,55.48,426.54,55.83,426.54L55.83,426.54z"/>
	</g>
	<g class="st9">
		<path class="st2" d="M18.4,444.15c7.03,0,14.07,0,21.1,0c7,0,14,0,20.99,0c3.95,0,7.89,0,11.84,0c0.35,0,0.35-0.54,0-0.54
			c-7.03,0-14.07,0-21.1,0c-7,0-14,0-20.99,0c-3.95,0-7.89,0-11.84,0C18.06,443.61,18.06,444.15,18.4,444.15L18.4,444.15z"/>
	</g>
	<g class="st9">
		<path class="st2" d="M29.41,406.73c4.15,0,8.31,0,12.46,0s8.31,0,12.46,0c2.33,0,4.66,0,6.99,0c0.35,0,0.35-0.54,0-0.54
			c-4.15,0-8.31,0-12.46,0c-4.15,0-8.31,0-12.46,0c-2.33,0-4.66,0-6.99,0C29.07,406.19,29.06,406.73,29.41,406.73L29.41,406.73z"/>
	</g>
	<g class="st9">
		<path class="st2" d="M14,370.4c6.46,0,12.92,0,19.38,0c6.43,0,12.85,0,19.28,0c3.63,0,7.25,0,10.88,0c0.35,0,0.35-0.54,0-0.54
			c-6.46,0-12.92,0-19.38,0c-6.43,0-12.85,0-19.28,0c-3.63,0-7.25,0-10.88,0C13.65,369.86,13.65,370.4,14,370.4L14,370.4z"/>
	</g>
	<g class="st9">
		<path class="st2" d="M15.1,341.78c6.03,0,12.06,0,18.09,0c6,0,12,0,17.99,0c3.38,0,6.77,0,10.15,0c0.35,0,0.35-0.54,0-0.54
			c-6.03,0-12.06,0-18.09,0c-6,0-12,0-17.99,0c-3.38,0-6.77,0-10.15,0C14.76,341.24,14.76,341.78,15.1,341.78L15.1,341.78z"/>
	</g>
	<g class="st9">
		<path class="st2" d="M326.61,327.47c3.42,0,6.84,0,10.26,0c0.98,0,1.96,0,2.95,0c0.35,0,0.35-0.54,0-0.54c-3.42,0-6.84,0-10.26,0
			c-0.98,0-1.96,0-2.95,0C326.26,326.94,326.26,327.47,326.61,327.47L326.61,327.47z"/>
	</g>
	<g class="st9">
		<path class="st2" d="M328.81,350.59c2.2,0,4.4,0,6.6,0c0.35,0,0.35-0.54,0-0.54c-2.2,0-4.4,0-6.6,0
			C328.46,350.05,328.46,350.59,328.81,350.59L328.81,350.59z"/>
	</g>
	<g>
		<g>
			<path class="st4" d="M470.85,363.18c-1.73-1.23-3.8-1.77-5.87-1.77c-2.07,0-4.14,0.54-5.87,1.77c-3.28,2.04-5.7,5.72-6.56,10.07
				c-0.35,1.36-0.35,2.59-0.35,3.95c0,8.71,5.7,15.79,12.78,15.79c7.08,0,12.95-7.08,12.95-15.79c0-1.36-0.17-2.59-0.52-3.95
				C476.55,368.9,474.13,365.23,470.85,363.18L470.85,363.18z M464.98,390.41c-5.87,0-10.71-5.99-10.71-13.21
				c0-7.35,4.84-13.21,10.71-13.21c6.04,0,10.71,5.85,10.71,13.21C475.68,384.42,471.02,390.41,464.98,390.41L464.98,390.41z"/>
			<path class="st4" d="M378.28,363.18c-1.9-1.23-3.8-1.77-5.87-1.77c-0.86,0-1.73,0-2.59,0.27c-2.94,0.68-5.7,2.72-7.6,5.58
				c-1.73,2.72-2.76,6.13-2.76,9.94c0,8.71,5.7,15.79,12.95,15.79c7.08,0,12.78-7.08,12.78-15.79c0-1.36-0.17-2.59-0.35-3.95
				C383.81,368.9,381.39,365.23,378.28,363.18L378.28,363.18z M372.41,390.41c-6.04,0-10.88-5.99-10.88-13.21
				c0-7.35,4.84-13.21,10.88-13.21c5.87,0,10.71,5.85,10.71,13.21C383.11,384.42,378.28,390.41,372.41,390.41L372.41,390.41z"/>
		</g>
		<g>
			<path class="st10" d="M366.54,338.13c-13.13-89.99-13.13-89.99-13.13-89.99c-1.38-10.21-1.38-10.21-1.38-10.21
				c-0.86-5.72-0.86-5.72-0.86-5.72c-0.35-2.31-1.9-3.95-3.63-4.22c-14.16-1.63-14.16-1.63-14.16-1.63
				c-2.25-0.27-4.32,1.77-4.49,4.63c-0.17,2.72,1.55,5.31,3.8,5.58c10.88,1.23,10.88,1.23,10.88,1.23
				c18.65,129.47,18.65,129.47,18.65,129.47c1.9-2.86,4.66-4.9,7.6-5.58c-1.9-13.61-1.9-13.61-1.9-13.61L366.54,338.13z"/>
			<g>
				<polygon class="st11" points="366.88,338 479.48,312.67 479.48,257.67 353.58,248.14 366.88,338 				"/>
				<g>
					<path class="st12" d="M366.88,338L366.88,338c-0.17,0-0.35,0.14-0.35,0.14c1.38,9.94,1.38,9.94,1.38,9.94c0.17,0,0.35,0,0.35,0
						c116.06-26.14,116.06-26.14,116.06-26.14c2.07-0.41,3.45-2.59,3.45-5.04c0-64.12,0-64.12,0-64.12c0-2.59-1.73-4.9-3.97-5.04
						c-130.74-9.8-130.74-9.8-130.74-9.8c-0.35,0-0.69,0-1.04,0c1.38,10.21,1.38,10.21,1.38,10.21c0.17,0,0.17,0,0.17,0
						c125.9,9.53,125.9,9.53,125.9,9.53c0,55,0,55,0,55L366.88,338z"/>
					<path class="st10" d="M384.84,373.26c67.7,0,67.7,0,67.7,0c0.86-4.36,3.28-8.03,6.56-10.07c-80.83,0-80.83,0-80.83,0
						C381.39,365.23,383.81,368.9,384.84,373.26L384.84,373.26z"/>
					<path class="st12" d="M459.8,377.21c0,3.54,2.42,6.4,5.18,6.4c2.94,0,5.18-2.86,5.18-6.4s-2.25-6.4-5.18-6.4
						C462.21,370.81,459.8,373.67,459.8,377.21L459.8,377.21z"/>
					<path class="st12" d="M367.23,377.21c0,3.54,2.25,6.4,5.18,6.4c2.76,0,5.01-2.86,5.01-6.4s-2.25-6.4-5.01-6.4
						C369.47,370.81,367.23,373.67,367.23,377.21L367.23,377.21z"/>
				</g>
			</g>
		</g>
	</g>
	<path class="st10" d="M361.64,376.94c0,6.86,4.62,12.56,10.4,12.56c5.61,0,10.23-5.7,10.23-12.56c0-6.99-4.62-12.56-10.23-12.56
		C366.26,364.38,361.64,369.95,361.64,376.94L361.64,376.94z M376.83,376.94c0,3.37-2.15,6.09-4.79,6.09
		c-2.81,0-4.95-2.72-4.95-6.09s2.15-6.09,4.95-6.09C374.68,370.85,376.83,373.57,376.83,376.94L376.83,376.94z"/>
	<path class="st10" d="M454.89,377.32c0,6.38,4.45,11.68,10.02,11.68c5.41,0,9.86-5.3,9.86-11.68c0-6.5-4.45-11.68-9.86-11.68
		C459.34,365.64,454.89,370.82,454.89,377.32L454.89,377.32z M469.52,377.32c0,3.13-2.07,5.66-4.61,5.66c-2.7,0-4.77-2.53-4.77-5.66
		s2.07-5.66,4.77-5.66C467.46,371.66,469.52,374.19,469.52,377.32L469.52,377.32z"/>
	<g>
		<g>
			<g>
				<polygon class="st13" points="283.19,205.6 258.61,178.89 271.2,168.66 295.77,195.37 				"/>
				<g>
					<polygon class="st14" points="270.15,198.65 255.05,179.95 271.2,168.66 286.99,185.83 					"/>
					<path class="st14" d="M270.35,179.69c-3.48,2.82-8.73,2.46-11.73-0.8c-3-3.27-2.62-8.2,0.85-11.03
						c3.48-2.82,8.73-2.47,11.73,0.8C274.2,171.93,273.82,176.87,270.35,179.69z"/>
				</g>
				<path class="st14" d="M294.92,206.4c-3.48,2.82-8.73,2.47-11.73-0.8c-3-3.27-2.62-8.2,0.85-11.03c3.48-2.82,8.73-2.46,11.73,0.8
					C298.78,198.64,298.39,203.57,294.92,206.4z"/>
			</g>
			<g>
				<g>
					<path class="st4" d="M260.85,377c3.72-0.44,6.6-3.94,6.6-3.94h3.52c-1.21-5.72-0.99-7.49-0.99-7.49l-15.45,4.74l0.2,3.04l0,0
						c1.21-0.06,2.34,0.62,2.76,1.69C257.91,376.12,258.84,377.24,260.85,377z"/>
				</g>
				<g>
					<path class="st15" d="M284.27,381.2c-4.29-2.22-11.78-1.22-13.15-7.48c-0.05-0.23-0.09-0.44-0.14-0.66h-3.52
						c0,0-2.88,3.5-6.6,3.94c-2.01,0.24-2.94-0.88-3.36-1.96c-0.42-1.07-1.55-1.75-2.76-1.69l0,0l0.8,12.11h33.52
						C289.05,385.46,288.56,383.42,284.27,381.2z"/>
				</g>
				<g>
					<g>
						<path class="st16" d="M261.28,380.32c-1.79-1.31-3.99-2.07-6.24-2.2l0.05,0.8c2.05,0.14,4.03,0.84,5.66,2.03
							c1.58,1.16,2.76,2.74,3.42,4.51h0.9C264.39,383.45,263.07,381.63,261.28,380.32z"/>
					</g>
					<g>
						<path class="st16" d="M267.45,373.06c0,0-0.12,0.15-0.35,0.38c0.84,4.17,3.05,6.89,6.77,8.28c0.81,0.3,1.66,0.45,2.5,0.45
							c1.86,0,3.67-0.73,4.99-2.02c-0.31-0.08-0.63-0.16-0.95-0.24c-1.68,1.4-4.08,1.86-6.22,1.06c-3.49-1.3-5.55-3.9-6.3-7.92
							L267.45,373.06L267.45,373.06z"/>
					</g>
				</g>
				<g>
					<polygon class="st4" points="255.53,385.46 255.74,387.89 289.26,387.89 289.05,385.46 					"/>
				</g>
			</g>
			<g>
				<path class="st4" d="M195.64,374.41l3.17-5.9l13.67,2.93l-0.92,3.61c0,0-2.88,1.63-9.02,1.94
					C196.4,377.31,195.64,374.41,195.64,374.41z"/>
			</g>
			<g>
				<path class="st15" d="M198.01,374.43c0,0,2.47-1.64,5.64-1.52c3.16,0.12,4.79,2.17,4.79,2.17h3.12l-3.2,10.37h-18.29l5.56-11.02
					H198.01z"/>
			</g>
			<g>
				<polygon class="st4" points="190.07,385.45 188.77,387.89 207.7,387.89 208.36,385.45 				"/>
			</g>
			<g>
				<path class="st16" d="M190.6,385.34l0.11,0.12h1.08c2.33-1.72,5.46-2.66,8.57-2.5c2.62,0.13,5.16,1.04,7.14,2.5h0.86l0.09-0.29
					c-2.17-1.75-5.06-2.85-8.04-3C196.8,381.97,193.14,383.16,190.6,385.34z"/>
			</g>
			<g>
				<path class="st16" d="M208.44,375.08c0,0-0.05-0.07-0.15-0.17c-0.51,1.48-2.55,6.42-7.14,6.42c-0.05,0-0.11,0-0.16,0
					c-1.25-0.03-2.14-0.41-2.71-1.17c-1.26-1.66-0.65-4.63-0.36-5.73h-0.88c-0.33,1.33-0.87,4.34,0.54,6.19
					c0.73,0.96,1.87,1.47,3.38,1.51c0.06,0,0.12,0,0.19,0c5.21,0,7.45-5.51,7.97-7.05H208.44z"/>
			</g>
			<g>
				<g>
					<path class="st17" d="M245.22,221.98c0,0-4.13,5.34-2.54,26.16c0.68,8.87,5.1,37.59,6.19,55.57l22.09-1.31l-4.08-74.95
						L245.22,221.98z"/>
				</g>
			</g>
			<polygon class="st17" points="248.87,303.71 253.6,371.05 272.67,371.05 270.95,302.4 			"/>
			<path class="st17" d="M270.95,302.4c0.38,5.73-4.25,10.67-10.35,11.03c-6.1,0.36-11.35-3.99-11.74-9.72
				c-0.38-5.73,4.25-10.67,10.35-11.03S270.57,296.67,270.95,302.4z"/>
			<path class="st17" d="M270.95,302.4c0.38,5.73-4.25,10.67-10.35,11.03c-6.1,0.36-11.35-3.99-11.74-9.72
				c-0.38-5.73,4.25-10.67,10.35-11.03S270.57,296.67,270.95,302.4z"/>
			<polygon class="st17" points="208.56,301.88 194.82,368.12 213.26,372.7 230.26,305.91 			"/>
			<path class="st17" d="M230.26,305.91c-1.19,5.63-7.01,9.3-13,8.18c-5.99-1.11-9.89-6.59-8.71-12.22c1.19-5.63,7.01-9.3,13-8.18
				C227.55,294.81,231.45,300.28,230.26,305.91z"/>
			<g>
				<g>
					<g>
						<path class="st17" d="M227.11,227.17c0,0-4.63,4.51-8.77,23.6c-1.89,8.71-5.95,33.46-9.78,51.11l21.71,4.04l20.17-79.08
							L227.11,227.17z"/>
					</g>
				</g>
				<path class="st17" d="M230.26,305.91c-1.19,5.63-7.01,9.3-13,8.18c-5.99-1.11-9.89-6.59-8.71-12.22c1.19-5.63,7.01-9.3,13-8.18
					C227.55,294.81,231.45,300.28,230.26,305.91z"/>
			</g>
			<g>
				<path class="st18" d="M224.43,198.09c0,0-0.02,0.02-0.04,0.05l0.07,0.13C224.44,198.16,224.43,198.09,224.43,198.09z"/>
			</g>
			<path class="st14" d="M227.11,227.17l-4.41-41.23l3.08-19.97h39.11c0,0,9.71,17.94,2.14,40.84l-0.16,20.66L227.11,227.17z"/>
			<path class="st14" d="M264.92,181.59c-4.59,0.01-8.33-3.49-8.33-7.8c-0.01-4.32,3.71-7.82,8.3-7.83c4.59-0.01,8.33,3.49,8.33,7.8
				C273.23,178.08,269.52,181.58,264.92,181.59z"/>
			<g>
				<polygon class="st13" points="239.72,149.09 240.39,165.39 254.86,165.39 253.78,158.91 				"/>
			</g>
			<path class="st17" d="M252.95,160.28c0.41,0.04,0.75,0.03,1.06,0l0.44,2.61c-7.05-0.43-9.29-7.2-9.29-7.2l0,0
				C246.71,157.33,251.1,160.11,252.95,160.28z"/>
			<g>
				<path class="st13" d="M242.8,151.18c0,0,0.91,2.99,1.99,4.52c1.05,1.47,7.49,6.39,10.98,4.23c2.67-1.65,3.2-5.85,3.34-8.75
					c0.16-3.37,0.21-7.23-0.3-10.28l-12.04-2.24l-4.44,9.23L242.8,151.18z"/>
			</g>
			<g>
				<path class="st17" d="M254.92,147.86c0.01,0.68,0.42,1.23,0.91,1.22s0.89-0.56,0.88-1.24c-0.01-0.68-0.42-1.23-0.91-1.22
					C255.3,146.63,254.91,147.18,254.92,147.86z"/>
			</g>
			<g>
				<path class="st17" d="M249.74,147.66c0.01,0.68,0.42,1.23,0.91,1.22c0.5-0.01,0.89-0.56,0.88-1.24
					c-0.01-0.68-0.42-1.23-0.91-1.22S249.73,146.98,249.74,147.66z"/>
			</g>
			<g>
				<path class="st17" d="M257.25,144.16c0.1,0,0.2-0.05,0.25-0.13c0.09-0.13,0.05-0.3-0.09-0.39c-0.77-0.46-1.76-0.48-2.59-0.06
					c-0.14,0.07-0.2,0.24-0.12,0.38c0.08,0.14,0.26,0.19,0.4,0.11c0.64-0.33,1.4-0.31,1.99,0.04
					C257.14,144.14,257.19,144.16,257.25,144.16z"/>
			</g>
			<g>
				<path class="st17" d="M252.4,144.26c0.09,0,0.18-0.04,0.24-0.12c0.1-0.13,0.07-0.3-0.07-0.39c-0.83-0.57-2.03-0.62-2.92-0.11
					c-0.14,0.08-0.18,0.25-0.1,0.39c0.09,0.13,0.27,0.17,0.41,0.09c0.68-0.39,1.61-0.35,2.25,0.09
					C252.28,144.24,252.34,144.26,252.4,144.26z"/>
			</g>
			<g>
				<path class="st17" d="M254.18,154.81c0.1,0,0.2-0.01,0.3-0.01c0.16-0.02,0.28-0.15,0.26-0.31c-0.02-0.15-0.16-0.27-0.33-0.25
					c-1.19,0.12-2.41-0.68-2.82-1.86c-0.05-0.15-0.22-0.23-0.38-0.18c-0.16,0.05-0.24,0.21-0.19,0.35
					C251.49,153.88,252.81,154.81,254.18,154.81z"/>
			</g>
			<g>
				<path class="st17" d="M254.33,152.6c0.2,0,0.49-0.03,0.72-0.2c0.2-0.14,0.32-0.34,0.36-0.59c0.1-0.69-0.91-4.22-1.11-4.92
					c-0.04-0.15-0.21-0.24-0.37-0.2c-0.16,0.04-0.25,0.19-0.21,0.34c0.46,1.58,1.16,4.25,1.09,4.7c-0.02,0.13-0.08,0.19-0.12,0.22
					c-0.15,0.1-0.42,0.09-0.5,0.08c-0.16-0.02-0.32,0.08-0.34,0.23c-0.03,0.15,0.08,0.3,0.24,0.32
					C254.12,152.58,254.21,152.6,254.33,152.6z"/>
			</g>
			<g>
				<path class="st17" d="M239.73,139c0,0-8.03-2.29-0.53,10.31l0.78,6.07l2.65-3.48l1.83-3.14l1.18,2.88h0.68l-0.18-6.88
					c0,0,2.65-0.83,2.5-4.12c0,0,11.84,3.22,13.65-0.67l-2.1-2.79l-1.44,0.73c0,0,1.94-1.82,2.1-4.68l-2.77,2.29
					c0,0,1.99-2.34,0-5.36l-3.5-0.16c0,0-0.85,1.72-3.8,2.97C247.24,134.46,237.88,133.16,239.73,139z"/>
			</g>
			<g>
				<ellipse class="st13" cx="241.76" cy="149.75" rx="2.89" ry="2.72"/>
			</g>
			<g>
				<path class="st4" d="M248.83,171.44l3.12-5.45l3.75,5.15c0,0,1.21-4.09,1.21-5.19l-2.67-4.31l-2.38,3.11l-11.7-4.97l-0.96,6.17
					L248.83,171.44z"/>
			</g>
			<path class="st14" d="M246.79,133.78c0.4-0.05,0.79-0.11,1.18-0.16c-0.6,1.63-1.4,3.2-2.53,4.55c-1.5,1.78-3.48,3.23-5.74,4.03
				c-1.12,0.39-2.28,0.61-3.45,0.74c-0.19-0.75-0.26-1.35-0.24-1.86c1.65-0.4,3.25-1,4.72-1.81
				C243.16,137.91,245.25,136.01,246.79,133.78z"/>
			<g>
				<g>
					<g>
						<path class="st13" d="M205.73,194.15c4.14,1.88,5.87,6.55,3.88,10.44c-2,3.89-6.97,5.52-11.11,3.64s-5.87-6.55-3.88-10.44
							C196.62,193.91,201.6,192.27,205.73,194.15z"/>
					</g>
				</g>
				<polygon class="st13" points="195.66,196.26 208.86,180.98 217.04,196.32 208.58,206.12 				"/>
				<g>
					<polygon class="st14" points="200.66,182.99 220.78,167.53 232.25,178.7 217.04,196.32 					"/>
					<path class="st14" d="M220.55,179.84c-3.57-2.72-4.11-7.64-1.22-11c2.9-3.35,8.13-3.86,11.7-1.14c3.57,2.72,4.11,7.64,1.22,11
						C229.36,182.05,224.12,182.57,220.55,179.84z"/>
				</g>
			</g>
			<g>
				<g>
					<polygon class="st13" points="208.43,196.09 230.64,223.63 221.45,231.06 195.81,206.29 					"/>
					<path class="st13" d="M196.7,195.26c3.48-2.81,8.74-2.44,11.73,0.83c2.99,3.27,2.6,8.21-0.89,11.02
						c-3.48,2.81-8.74,2.44-11.73-0.83C192.82,203.01,193.21,198.08,196.7,195.26z"/>
					<path class="st13" d="M222.09,223.03c2.54-2.05,6.37-1.78,8.55,0.61c2.18,2.39,1.89,5.98-0.65,8.04
						c-2.54,2.05-6.37,1.78-8.55-0.61C219.26,228.68,219.55,225.08,222.09,223.03z"/>
				</g>
			</g>
			<g>
				<g>
					<path class="st13" d="M230.64,223.63c3.59,1.87,10.65,7.95,10.24,8.86c-0.41,0.91-7.42-3.17-7.42-3.17L230.64,223.63z"/>
				</g>
				<g>
					<path class="st13" d="M230.64,223.63c5.04,4.72,12.62,16.1,12,16.99c-0.62,0.9-6.8-6.14-6.8-6.14s5.08,6.9,3.92,7.99
						c-1.17,1.09-5.82-6.57-5.82-6.57s3.72,8.43,2.54,8.83c-1.18,0.4-4.58-7.93-4.58-7.93s1.43,7.68,0.29,7.77
						c-1.14,0.09-2.23-6.23-2.72-7.48c-0.49-1.25-4.93-0.28-8.02-6.02L230.64,223.63z"/>
				</g>
				<g>
					<path class="st13" d="M220.87,224.39c-1.74,2.69-0.83,6.19,2.03,7.83c2.86,1.64,6.59,0.78,8.33-1.9
						c1.74-2.69,0.83-6.19-2.03-7.83C226.34,220.85,222.61,221.7,220.87,224.39z"/>
				</g>
			</g>
			<g>
				<g>
					<g>
						<polygon class="st13" points="283.73,194.83 310.43,172.32 318.96,180.15 295.43,205.95 						"/>
						<path class="st13" d="M283.66,206.08c-3.29-3.02-3.35-7.97-0.14-11.05c3.21-3.09,8.48-3.14,11.76-0.13
							c3.29,3.02,3.35,7.97,0.14,11.05C292.22,209.04,286.95,209.09,283.66,206.08z"/>
						<path class="st13" d="M310.9,179.89c-2.4-2.2-2.44-5.81-0.1-8.06c2.34-2.25,6.18-2.29,8.58-0.09c2.4,2.2,2.44,5.81,0.1,8.06
							C317.13,182.05,313.29,182.09,310.9,179.89z"/>
					</g>
					<g>
						<path class="st13" d="M312.44,180.92c3,1.4,6.64,0.24,8.13-2.58c1.49-2.82,0.26-6.24-2.74-7.64c-3-1.4-6.64-0.24-8.13,2.58
							C308.21,176.11,309.44,179.53,312.44,180.92z"/>
					</g>
				</g>
				<g>
					<g>
						<path class="st13" d="M317.89,180.89c2.98-1.43,4.16-4.86,2.64-7.67c-1.52-2.8-5.18-3.91-8.16-2.48
							c-2.98,1.43-4.16,4.87-2.64,7.67C311.26,181.21,314.91,182.32,317.89,180.89z"/>
					</g>
					<g>
						<path class="st13" d="M310.96,167.24c1.9-2.41,6.36-3.77,6.36-3.77s8.32-3.15,11.71-2.57c2.46,0.42-2.76,2.29-4.5,2.96
							c2.37,0.24,6.75,0.01,6.89,0.58c0.35,1.43-7.97,1.86-7.97,1.86s7.73,0.39,7.61,1.29c-0.12,0.9-7.99,1.1-7.99,1.1
							s6.95,0.59,6.5,1.52c-0.45,0.93-9.46-0.31-8.96,0.94c1.56,3.88-0.77,6.56-0.77,6.56l-5.15-0.81L310.96,167.24z"/>
					</g>
					<g>
						<path class="st13" d="M308.74,176.25c0,0-1.11-7.64-0.05-9.92c1.87-4.02,7.83-4.15,8.64-2.85c0.8,1.3-4.12,2.17-4.39,3.5
							c-0.55,2.65,5.89,5.78,3.67,10.23L308.74,176.25z"/>
					</g>
				</g>
			</g>
		</g>
		<g>
			<path class="st17" d="M321.81,176.59L310.26,173c-1.33-0.41-2.05-1.76-1.61-3.01l8.23-23.4c0.44-1.25,1.88-1.93,3.21-1.52
				l11.55,3.59c1.33,0.41,2.05,1.76,1.61,3.01l-8.23,23.4C324.58,176.33,323.14,177,321.81,176.59z"/>
			<path class="st19" d="M310.86,171.3c-1-0.31-1.54-1.32-1.21-2.26l7.84-22.27c0.33-0.94,1.41-1.45,2.4-1.14l11.55,3.59
				c1,0.31,1.54,1.32,1.21,2.26l-7.84,22.27c-0.33,0.94-1.41,1.45-2.4,1.14L310.86,171.3z"/>
			<g>
				<polygon class="st20" points="317.38,174.43 315.19,173.75 315.31,173.39 317.51,174.08 				"/>
			</g>
		</g>
	</g>
</g>
</svg>
