<?xml version="1.0" encoding="utf-8"?>
<!-- Generator: Adobe Illustrator 27.8.1, SVG Export Plug-In . SVG Version: 6.00 Build 0)  -->
<svg version="1.1" id="Ñëîé_1" xmlns="http://www.w3.org/2000/svg" xmlns:xlink="http://www.w3.org/1999/xlink" x="0px" y="0px"
	 viewBox="0 0 867.55 450" style="enable-background:new 0 0 867.55 450;" xml:space="preserve">
<style type="text/css">
	.st0{fill:#DCE9F4;}
	.st1{fill:#C8D9ED;}
	.st2{fill:#3E5177;}
	.st3{fill:#B0C9E2;}
	.st4{fill:#FFFFFF;}
	.st5{fill:#8CA3C4;}
	.st6{fill:#1F2A51;}
	.st7{fill:#B9B40D;}
	.st8{fill:#B73037;}
	.st9{opacity:0.23;}
	.st10{fill:#5A6E7F;}
	.st11{fill:#97D5C9;}
	.st12{fill:#5CBFAB;}
	.st13{fill:#70D4FF;}
	.st14{fill:#BCEBFF;}
	.st15{fill:#000E1B;}
	.st16{fill:#FFAC9C;}
	.st17{fill:#2743AB;}
</style>
<rect x="0" y="1" class="st0" width="867.55" height="321.89"/>
<g>
	<g>
		
			<rect x="302.15" y="154.95" transform="matrix(-1.836970e-16 1 -1 -1.836970e-16 617.3154 -301.1496)" class="st1" width="314.17" height="6.27"/>
		
			<rect x="436.29" y="154.95" transform="matrix(-1.836970e-16 1 -1 -1.836970e-16 751.4571 -435.2913)" class="st1" width="314.17" height="6.27"/>
		
			<rect x="570.43" y="154.95" transform="matrix(-1.836970e-16 1 -1 -1.836970e-16 885.5988 -569.4329)" class="st1" width="314.17" height="6.27"/>
		
			<rect x="-99.33" y="154.95" transform="matrix(-1.836970e-16 1 -1 -1.836970e-16 215.8382 100.3276)" class="st1" width="314.17" height="6.27"/>
		
			<rect x="34.81" y="154.95" transform="matrix(-1.836970e-16 1 -1 -1.836970e-16 349.9799 -33.814)" class="st1" width="314.17" height="6.27"/>
		
			<rect x="168.96" y="154.95" transform="matrix(-1.836970e-16 1 -1 -1.836970e-16 484.1215 -167.9557)" class="st1" width="314.17" height="6.27"/>
	</g>
</g>
<rect x="0" y="290.56" class="st2" width="867.55" height="3.23"/>
<rect x="0" y="314.63" class="st3" width="867.55" height="136.37"/>
<g>
	<g>
		<g>
			<rect x="286.46" y="61.3" class="st2" width="105.23" height="32.61"/>
			<path class="st4" d="M329.79,76.26c-4.25,0-8.5,0-12.76,0c-4.23,0-8.46,0-12.69,0c-1.69,0-3.38,0-5.07,0l7.22-8.13l-1.5-1.33
				l-9.61,10.81l9.61,10.81l1.5-1.33l-7.62-8.57c3.69,0,7.37,0,11.06,0c4.23,0,8.46,0,12.69,0c2.39,0,4.77,0,7.16,0
				c0.59,0,1.15-0.52,1.13-1.13C330.89,76.77,330.43,76.26,329.79,76.26z"/>
		</g>
		<g>
			<rect x="306.47" y="1" class="st2" width="2.96" height="60.85"/>
			<rect x="368.71" y="1" class="st2" width="2.96" height="60.85"/>
		</g>
	</g>
	<g>
		<g>
			
				<rect x="414.56" y="61.3" transform="matrix(-1 -1.224647e-16 1.224647e-16 -1 934.3524 155.2127)" class="st2" width="105.23" height="32.61"/>
			<path class="st4" d="M476.46,76.26c4.25,0,8.5,0,12.76,0c4.23,0,8.46,0,12.69,0c1.69,0,3.38,0,5.07,0l-7.22-8.13l1.5-1.33
				l9.61,10.81l-9.61,10.81l-1.5-1.33l7.62-8.57c-3.69,0-7.37,0-11.06,0c-4.23,0-8.46,0-12.69,0c-2.39,0-4.77,0-7.16,0
				c-0.59,0-1.15-0.52-1.13-1.13C475.36,76.77,475.82,76.26,476.46,76.26z"/>
		</g>
		<g>
			
				<rect x="496.82" y="1" transform="matrix(-1 -1.224647e-16 1.224647e-16 -1 996.6 62.8544)" class="st2" width="2.96" height="60.85"/>
			
				<rect x="434.57" y="1" transform="matrix(-1 -1.224647e-16 1.224647e-16 -1 872.1048 62.8544)" class="st2" width="2.96" height="60.85"/>
		</g>
	</g>
</g>
<g>
	
		<ellipse transform="matrix(0.1602 -0.9871 0.9871 0.1602 4.7371 192.5904)" class="st5" cx="115.55" cy="93.51" rx="17.39" ry="17.39"/>
	<g>
		<path class="st2" d="M115.55,120.97c-7.33,0-14.23-2.86-19.41-8.04c-5.19-5.19-8.04-12.08-8.04-19.41s2.86-14.23,8.04-19.41
			c5.19-5.19,12.08-8.04,19.41-8.04s14.23,2.86,19.41,8.04c5.19,5.19,8.04,12.08,8.04,19.41s-2.86,14.23-8.04,19.41
			C129.78,118.11,122.88,120.97,115.55,120.97z M115.55,70.54c-12.67,0-22.97,10.31-22.97,22.97c0,12.67,10.31,22.97,22.97,22.97
			s22.97-10.31,22.97-22.97C138.52,80.84,128.22,70.54,115.55,70.54z"/>
	</g>
	<g>
		<path class="st6" d="M115.11,97.71c-0.6,0-1.08-0.49-1.08-1.08V85.24c0-0.6,0.49-1.08,1.08-1.08c0.6,0,1.08,0.49,1.08,1.08v11.38
			C116.2,97.22,115.71,97.71,115.11,97.71z"/>
		<path class="st6" d="M114.97,97.39c-0.42-0.42-0.42-1.11,0-1.53l8.05-8.05c0.42-0.42,1.11-0.42,1.53,0c0.42,0.42,0.42,1.11,0,1.53
			l-8.05,8.05C116.08,97.81,115.39,97.81,114.97,97.39z"/>
	</g>
	<g>
		<path class="st7" d="M98.27,89.9c-0.01-0.01-0.02-0.02-0.03-0.03C98.26,89.89,98.27,89.9,98.27,89.9z"/>
		<path class="st8" d="M96.41,91.34C96.41,91.41,96.41,91.36,96.41,91.34L96.41,91.34z M96.63,92.24
			C96.56,92.2,96.61,92.22,96.63,92.24L96.63,92.24z"/>
	</g>
</g>
<g>
	<path class="st2" d="M489.99,279.19v44.89h6.21v-44.89c0-2.12-1.39-3.83-3.11-3.83l0,0C491.38,275.36,489.99,277.07,489.99,279.19z
		"/>
	<rect x="488.01" y="322.3" class="st2" width="10.16" height="2.56"/>
</g>
<g>
	<path class="st2" d="M825.72,279.19v44.89h6.21v-44.89c0-2.12-1.39-3.83-3.11-3.83l0,0C827.11,275.36,825.72,277.07,825.72,279.19z
		"/>
	<rect x="823.74" y="322.3" class="st2" width="10.16" height="2.56"/>
</g>
<g>
	<path class="st2" d="M45.22,274.7v44.89h6.21V274.7c0-2.12-1.39-3.83-3.11-3.83l0,0C46.61,270.87,45.22,272.58,45.22,274.7z"/>
	<rect x="43.25" y="317.81" class="st2" width="10.16" height="2.56"/>
</g>
<g class="st9">
	<path class="st2" d="M432.27,341.78c9.9,0,19.81,0,29.71,0c9.85,0,19.71,0,29.56,0c5.56,0,11.12,0,16.68,0c0.35,0,0.35-0.54,0-0.54
		c-9.9,0-19.81,0-29.71,0c-9.85,0-19.71,0-29.56,0c-5.56,0-11.12,0-16.68,0C431.93,341.24,431.93,341.78,432.27,341.78
		L432.27,341.78z"/>
</g>
<g class="st9">
	<path class="st2" d="M420.17,367.1c8.76,0,17.51,0,26.27,0c8.71,0,17.42,0,26.13,0c4.91,0,9.83,0,14.74,0c0.35,0,0.35-0.54,0-0.54
		c-8.76,0-17.51,0-26.27,0c-8.71,0-17.42,0-26.13,0c-4.91,0-9.83,0-14.74,0C419.82,366.56,419.82,367.1,420.17,367.1L420.17,367.1z"
		/>
</g>
<g class="st9">
	<path class="st2" d="M449.89,394.62c7.3,0,14.6,0,21.89,0s14.6,0,21.89,0c4.12,0,8.23,0,12.35,0c0.35,0,0.35-0.54,0-0.54
		c-7.3,0-14.6,0-21.89,0c-7.3,0-14.6,0-21.89,0c-4.12,0-8.23,0-12.35,0C449.54,394.08,449.54,394.62,449.89,394.62L449.89,394.62z"
		/>
</g>
<g class="st9">
	<path class="st2" d="M459.79,429.84c24.61,0,49.22,0,73.84,0c24.61,0,49.22,0,73.84,0c13.88,0,27.77,0,41.65,0
		c0.35,0,0.35-0.54,0-0.54c-24.61,0-49.22,0-73.84,0c-24.61,0-49.22,0-73.84,0c-13.88,0-27.77,0-41.65,0
		C459.45,429.3,459.44,429.84,459.79,429.84L459.79,429.84z"/>
</g>
<g class="st9">
	<path class="st2" d="M698.65,418.83c11.59,0,23.18,0,34.77,0c11.59,0,23.18,0,34.77,0c6.54,0,13.08,0,19.61,0
		c0.35,0,0.35-0.54,0-0.54c-11.59,0-23.18,0-34.77,0c-11.59,0-23.18,0-34.77,0c-6.54,0-13.08,0-19.61,0
		C698.3,418.29,698.3,418.83,698.65,418.83L698.65,418.83z"/>
</g>
<g class="st9">
	<path class="st2" d="M791.11,364.9c8.47,0,16.94,0,25.41,0c8.43,0,16.85,0,25.28,0c4.75,0,9.51,0,14.26,0c0.35,0,0.35-0.54,0-0.54
		c-8.47,0-16.94,0-25.41,0c-8.43,0-16.85,0-25.28,0c-4.75,0-9.51,0-14.26,0C790.76,364.36,790.76,364.9,791.11,364.9L791.11,364.9z"
		/>
</g>
<g class="st9">
	<path class="st2" d="M804.32,393.52c5.45,0,10.89,0,16.34,0c5.45,0,10.89,0,16.34,0c3.05,0,6.1,0,9.16,0c0.35,0,0.35-0.54,0-0.54
		c-5.45,0-10.89,0-16.34,0c-5.45,0-10.89,0-16.34,0c-3.05,0-6.1,0-9.16,0C803.97,392.98,803.97,393.52,804.32,393.52L804.32,393.52z
		"/>
</g>
<g class="st9">
	<path class="st2" d="M777.9,331.88c5.17,0,10.34,0,15.51,0c5.14,0,10.28,0,15.42,0c2.9,0,5.8,0,8.7,0c0.35,0,0.35-0.54,0-0.54
		c-5.17,0-10.34,0-15.51,0c-5.14,0-10.28,0-15.42,0c-2.9,0-5.8,0-8.7,0C777.55,331.34,777.55,331.88,777.9,331.88L777.9,331.88z"/>
</g>
<g class="st9">
	<path class="st2" d="M653.52,343.98c2.94,0,5.87,0,8.81,0c0.35,0,0.35-0.54,0-0.54c-2.94,0-5.87,0-8.81,0
		C653.17,343.45,653.17,343.98,653.52,343.98L653.52,343.98z"/>
</g>
<g class="st9">
	<path class="st2" d="M654.62,332.98c2.2,0,4.4,0,6.6,0c0.35,0,0.35-0.54,0-0.54c-2.2,0-4.4,0-6.6,0
		C654.27,332.44,654.27,332.98,654.62,332.98L654.62,332.98z"/>
</g>
<g class="st9">
	<path class="st2" d="M613.89,347.29c3.67,0,7.34,0,11.01,0c0.35,0,0.35-0.54,0-0.54c-3.67,0-7.34,0-11.01,0
		C613.55,346.75,613.54,347.29,613.89,347.29L613.89,347.29z"/>
</g>
<g class="st9">
	<path class="st2" d="M272.67,430.94c18.03,0,36.06,0,54.09,0c18.03,0,36.06,0,54.09,0c10.17,0,20.34,0,30.51,0
		c0.35,0,0.35-0.54,0-0.54c-18.03,0-36.06,0-54.09,0c-18.03,0-36.06,0-54.09,0c-10.17,0-20.34,0-30.51,0
		C272.32,430.4,272.32,430.94,272.67,430.94L272.67,430.94z"/>
</g>
<g class="st9">
	<path class="st2" d="M167,418.83c5.17,0,10.34,0,15.51,0c5.14,0,10.28,0,15.42,0c2.9,0,5.8,0,8.7,0c0.35,0,0.35-0.54,0-0.54
		c-5.17,0-10.34,0-15.51,0c-5.14,0-10.28,0-15.42,0c-2.9,0-5.8,0-8.7,0C166.65,418.29,166.65,418.83,167,418.83L167,418.83z"/>
</g>
<g class="st9">
	<path class="st2" d="M171.4,400.12c3.29,0,6.58,0,9.88,0c3.29,0,6.58,0,9.88,0c1.86,0,3.71,0,5.57,0c0.35,0,0.35-0.54,0-0.54
		c-3.29,0-6.58,0-9.88,0c-3.29,0-6.58,0-9.88,0c-1.86,0-3.71,0-5.57,0C171.06,399.58,171.06,400.12,171.4,400.12L171.4,400.12z"/>
</g>
<g class="st9">
	<path class="st2" d="M249.55,354.99c3.14,0,6.28,0,9.42,0c0.9,0,1.79,0,2.69,0c0.35,0,0.35-0.54,0-0.54c-3.14,0-6.28,0-9.42,0
		c-0.9,0-1.79,0-2.69,0C249.21,354.45,249.21,354.99,249.55,354.99L249.55,354.99z"/>
</g>
<g class="st9">
	<path class="st2" d="M246.25,339.58c5.45,0,10.89,0,16.34,0c1.53,0,3.05,0,4.58,0c0.35,0,0.35-0.54,0-0.54c-5.45,0-10.89,0-16.34,0
		c-1.53,0-3.05,0-4.58,0C245.91,339.04,245.91,339.58,246.25,339.58L246.25,339.58z"/>
</g>
<g class="st9">
	<path class="st2" d="M183.51,438.65c5.87,0,11.73,0,17.6,0c5.87,0,11.73,0,17.6,0c3.31,0,6.62,0,9.93,0c0.35,0,0.35-0.54,0-0.54
		c-5.87,0-11.73,0-17.6,0c-5.87,0-11.73,0-17.6,0c-3.31,0-6.62,0-9.93,0C183.17,438.11,183.16,438.65,183.51,438.65L183.51,438.65z"
		/>
</g>
<g class="st9">
	<path class="st2" d="M55.83,426.54c12.34,0,24.69,0,37.03,0c12.28,0,24.56,0,36.84,0c6.93,0,13.86,0,20.78,0
		c0.35,0,0.35-0.54,0-0.54c-12.34,0-24.69,0-37.03,0c-12.28,0-24.56,0-36.84,0c-6.93,0-13.86,0-20.78,0
		C55.48,426,55.48,426.54,55.83,426.54L55.83,426.54z"/>
</g>
<g class="st9">
	<path class="st2" d="M18.4,444.15c7.03,0,14.07,0,21.1,0c7,0,14,0,20.99,0c3.95,0,7.89,0,11.84,0c0.35,0,0.35-0.54,0-0.54
		c-7.03,0-14.07,0-21.1,0c-7,0-14,0-20.99,0c-3.95,0-7.89,0-11.84,0C18.06,443.61,18.06,444.15,18.4,444.15L18.4,444.15z"/>
</g>
<g class="st9">
	<path class="st2" d="M29.41,406.73c4.15,0,8.31,0,12.46,0s8.31,0,12.46,0c2.33,0,4.66,0,6.99,0c0.35,0,0.35-0.54,0-0.54
		c-4.15,0-8.31,0-12.46,0c-4.15,0-8.31,0-12.46,0c-2.33,0-4.66,0-6.99,0C29.07,406.19,29.06,406.73,29.41,406.73L29.41,406.73z"/>
</g>
<g class="st9">
	<path class="st2" d="M14,370.4c6.46,0,12.92,0,19.38,0c6.43,0,12.85,0,19.28,0c3.63,0,7.25,0,10.88,0c0.35,0,0.35-0.54,0-0.54
		c-6.46,0-12.92,0-19.38,0c-6.43,0-12.85,0-19.28,0c-3.63,0-7.25,0-10.88,0C13.65,369.86,13.65,370.4,14,370.4L14,370.4z"/>
</g>
<g class="st9">
	<path class="st2" d="M15.1,341.78c6.03,0,12.06,0,18.09,0c6,0,12,0,17.99,0c3.38,0,6.77,0,10.15,0c0.35,0,0.35-0.54,0-0.54
		c-6.03,0-12.06,0-18.09,0c-6,0-12,0-17.99,0c-3.38,0-6.77,0-10.15,0C14.76,341.24,14.76,341.78,15.1,341.78L15.1,341.78z"/>
</g>
<g class="st9">
	<path class="st2" d="M326.61,327.47c3.42,0,6.84,0,10.26,0c0.98,0,1.96,0,2.95,0c0.35,0,0.35-0.54,0-0.54c-3.42,0-6.84,0-10.26,0
		c-0.98,0-1.96,0-2.95,0C326.26,326.94,326.26,327.47,326.61,327.47L326.61,327.47z"/>
</g>
<g class="st9">
	<path class="st2" d="M328.81,350.59c2.2,0,4.4,0,6.6,0c0.35,0,0.35-0.54,0-0.54c-2.2,0-4.4,0-6.6,0
		C328.46,350.05,328.46,350.59,328.81,350.59L328.81,350.59z"/>
</g>
<g>
	<g>
		<path class="st4" d="M470.85,363.18c-1.73-1.23-3.8-1.77-5.87-1.77c-2.07,0-4.14,0.54-5.87,1.77c-3.28,2.04-5.7,5.72-6.56,10.07
			c-0.35,1.36-0.35,2.59-0.35,3.95c0,8.71,5.7,15.79,12.78,15.79c7.08,0,12.95-7.08,12.95-15.79c0-1.36-0.17-2.59-0.52-3.95
			C476.55,368.9,474.13,365.23,470.85,363.18L470.85,363.18z M464.98,390.41c-5.87,0-10.71-5.99-10.71-13.21
			c0-7.35,4.84-13.21,10.71-13.21c6.04,0,10.71,5.85,10.71,13.21C475.68,384.42,471.02,390.41,464.98,390.41L464.98,390.41z"/>
		<path class="st4" d="M378.28,363.18c-1.9-1.23-3.8-1.77-5.87-1.77c-0.86,0-1.73,0-2.59,0.27c-2.94,0.68-5.7,2.72-7.6,5.58
			c-1.73,2.72-2.76,6.13-2.76,9.94c0,8.71,5.7,15.79,12.95,15.79c7.08,0,12.78-7.08,12.78-15.79c0-1.36-0.17-2.59-0.35-3.95
			C383.81,368.9,381.39,365.23,378.28,363.18L378.28,363.18z M372.41,390.41c-6.04,0-10.88-5.99-10.88-13.21
			c0-7.35,4.84-13.21,10.88-13.21c5.87,0,10.71,5.85,10.71,13.21C383.11,384.42,378.28,390.41,372.41,390.41L372.41,390.41z"/>
	</g>
	<g>
		<path class="st10" d="M366.54,338.13c-13.13-89.99-13.13-89.99-13.13-89.99c-1.38-10.21-1.38-10.21-1.38-10.21
			c-0.86-5.72-0.86-5.72-0.86-5.72c-0.35-2.31-1.9-3.95-3.63-4.22c-14.16-1.63-14.16-1.63-14.16-1.63
			c-2.25-0.27-4.32,1.77-4.49,4.63c-0.17,2.72,1.55,5.31,3.8,5.58c10.88,1.23,10.88,1.23,10.88,1.23
			c18.65,129.47,18.65,129.47,18.65,129.47c1.9-2.86,4.66-4.9,7.6-5.58c-1.9-13.61-1.9-13.61-1.9-13.61L366.54,338.13z"/>
		<g>
			<polygon class="st11" points="366.88,338 479.48,312.67 479.48,257.67 353.58,248.14 366.88,338 			"/>
			<g>
				<path class="st12" d="M366.88,338L366.88,338c-0.17,0-0.35,0.14-0.35,0.14c1.38,9.94,1.38,9.94,1.38,9.94c0.17,0,0.35,0,0.35,0
					c116.06-26.14,116.06-26.14,116.06-26.14c2.07-0.41,3.45-2.59,3.45-5.04c0-64.12,0-64.12,0-64.12c0-2.59-1.73-4.9-3.97-5.04
					c-130.74-9.8-130.74-9.8-130.74-9.8c-0.35,0-0.69,0-1.04,0c1.38,10.21,1.38,10.21,1.38,10.21c0.17,0,0.17,0,0.17,0
					c125.9,9.53,125.9,9.53,125.9,9.53c0,55,0,55,0,55L366.88,338z"/>
				<path class="st10" d="M384.84,373.26c67.7,0,67.7,0,67.7,0c0.86-4.36,3.28-8.03,6.56-10.07c-80.83,0-80.83,0-80.83,0
					C381.39,365.23,383.81,368.9,384.84,373.26L384.84,373.26z"/>
				<path class="st12" d="M459.8,377.21c0,3.54,2.42,6.4,5.18,6.4c2.94,0,5.18-2.86,5.18-6.4s-2.25-6.4-5.18-6.4
					C462.21,370.81,459.8,373.67,459.8,377.21L459.8,377.21z"/>
				<path class="st12" d="M367.23,377.21c0,3.54,2.25,6.4,5.18,6.4c2.76,0,5.01-2.86,5.01-6.4s-2.25-6.4-5.01-6.4
					C369.47,370.81,367.23,373.67,367.23,377.21L367.23,377.21z"/>
			</g>
		</g>
	</g>
</g>
<path class="st10" d="M361.64,376.94c0,6.86,4.62,12.56,10.4,12.56c5.61,0,10.23-5.7,10.23-12.56c0-6.99-4.62-12.56-10.23-12.56
	C366.26,364.38,361.64,369.95,361.64,376.94L361.64,376.94z M376.83,376.94c0,3.37-2.15,6.09-4.79,6.09c-2.81,0-4.95-2.72-4.95-6.09
	s2.15-6.09,4.95-6.09C374.68,370.85,376.83,373.57,376.83,376.94L376.83,376.94z"/>
<path class="st10" d="M454.89,377.32c0,6.38,4.45,11.68,10.02,11.68c5.41,0,9.86-5.3,9.86-11.68c0-6.5-4.45-11.68-9.86-11.68
	C459.34,365.64,454.89,370.82,454.89,377.32L454.89,377.32z M469.52,377.32c0,3.13-2.07,5.66-4.61,5.66c-2.7,0-4.77-2.53-4.77-5.66
	s2.07-5.66,4.77-5.66C467.46,371.66,469.52,374.19,469.52,377.32L469.52,377.32z"/>
<g>
	<path class="st4" d="M265.15,382.22c4.39-0.33,8.39-4.26,8.39-4.26c4.39,0,4.39,0,4.39,0c-1.2-6.23-1.2-8.19-1.2-8.19
		c-19.57,4.92-19.57,4.92-19.57,4.92c0.4,3.28,0.4,3.28,0.4,3.28l0,0c1.6,0,2.8,0.66,3.2,1.97
		C261.16,380.91,262.36,382.22,265.15,382.22L265.15,382.22z"/>
	<path class="st13" d="M294.31,387.46c-5.19-2.62-14.78-1.64-16.38-8.52c0-0.33,0-0.66,0-0.98c-4.39,0-4.39,0-4.39,0
		s-3.99,3.93-8.39,4.26c-2.8,0-3.99-1.31-4.39-2.29c-0.4-1.31-1.6-1.97-3.2-1.97l0,0c0.4,13.44,0.4,13.44,0.4,13.44
		c42.34,0.98,42.34,0.98,42.34,0.98S299.5,390.08,294.31,387.46L294.31,387.46z"/>
	<path class="st14" d="M265.55,385.82c-2.4-1.64-5.19-2.29-7.99-2.62c0,0.98,0,0.98,0,0.98c2.8,0,5.19,0.98,7.19,2.29
		c2,1.31,3.2,2.95,3.99,4.92c1.2,0,1.2,0,1.2,0C269.15,389.43,267.55,387.13,265.55,385.82L265.55,385.82z"/>
	<path class="st14" d="M273.54,377.96l-0.4,0.33c0.8,4.59,3.59,7.87,7.99,9.51c1.2,0.33,2,0.33,3.2,0.33
		c2.4,0.33,4.79-0.66,6.39-1.97c-0.4,0-0.8,0-1.2-0.33c-2,1.64-5.19,1.97-7.99,0.98c-4.39-1.31-6.79-4.26-7.59-8.85
		C273.54,377.96,273.54,377.96,273.54,377.96L273.54,377.96z"/>
	<polygon class="st4" points="257.96,391.39 257.96,394.02 300.3,395 300.3,392.38 257.96,391.39 	"/>
	<path class="st4" d="M194.86,382.22c4.79-0.33,9.19-4.26,9.19-4.26c4.39,0,4.39,0,4.39,0c0.4-6.23,1.2-8.19,1.2-8.19
		c-20.77,4.92-20.77,4.92-20.77,4.92c-0.8,3.28-0.8,3.28-0.8,3.28l0,0c1.6,0,2.8,0.66,3.2,1.97
		C191.26,380.91,192.06,382.22,194.86,382.22L194.86,382.22z"/>
	<path class="st13" d="M222.82,387.46c-4.79-2.62-14.38-1.64-14.38-8.52c0-0.33,0-0.66,0-0.98c-4.39,0-4.39,0-4.39,0
		s-4.39,3.93-9.19,4.26c-2.8,0-3.59-1.31-3.59-2.29c-0.4-1.31-1.6-1.97-3.2-1.97l0,0c-2.4,13.44-2.4,13.44-2.4,13.44
		c41.94,0.98,41.94,0.98,41.94,0.98S227.61,390.08,222.82,387.46L222.82,387.46z"/>
	<path class="st14" d="M194.46,385.82c-2-1.64-4.39-2.29-7.19-2.62c-0.4,0.98-0.4,0.98-0.4,0.98c2.8,0,4.79,0.98,6.39,2.29
		c2,1.31,2.8,2.95,3.2,4.92c1.2,0,1.2,0,1.2,0C197.26,389.43,196.06,387.13,194.46,385.82L194.46,385.82z"/>
	<path class="st14" d="M204.05,377.96c0,0,0,0.33-0.4,0.33c-0.4,4.59,1.6,7.87,5.99,9.51c0.8,0.33,2,0.33,2.8,0.33
		c2.4,0.33,4.79-0.66,7.19-1.97c-0.4,0-0.8,0-1.2-0.33c-2.8,1.64-5.59,1.97-7.99,0.98c-3.99-1.31-5.99-4.26-5.59-8.85
		C204.05,377.96,204.05,377.96,204.05,377.96L204.05,377.96z"/>
	<polygon class="st4" points="185.67,391.39 185.27,394.02 227.21,395 227.61,392.38 185.67,391.39 	"/>
	<path class="st15" d="M232.4,214.73c0,0-4.39,6.56,2,28.84c2.4,9.83,13.58,40.32,18.77,59.65c27.16-4.92,27.16-4.92,27.16-4.92
		c-19.97-80.63-19.97-80.63-19.97-80.63L232.4,214.73z"/>
	<polygon class="st15" points="252.77,301.26 255.97,375.33 279.93,375.99 280.73,300.28 252.77,301.26 	"/>
	<path class="st15" d="M280.73,300.28c0,6.56-5.99,11.8-13.58,11.8c-7.59,0.33-13.98-4.59-14.38-10.82
		c-0.4-6.23,5.59-11.8,13.58-11.8C273.94,289.13,280.33,294.05,280.73,300.28L280.73,300.28z"/>
	<path class="st15" d="M280.73,300.28c0,6.56-5.99,11.8-13.58,11.8c-7.59,0.33-13.98-4.59-14.38-10.82
		c-0.4-6.23,5.59-11.8,13.58-11.8C273.94,289.13,280.33,294.05,280.73,300.28L280.73,300.28z"/>
	<polygon class="st15" points="196.06,300.93 187.27,374.68 210.84,377.96 224.02,303.23 196.06,300.93 	"/>
	<path class="st15" d="M224.02,303.23c-0.8,6.23-7.59,10.82-15.58,10.16c-7.59-0.66-13.18-6.23-12.38-12.46
		c0.8-6.56,7.59-11.14,15.58-10.49C219.22,291.1,224.81,297,224.02,303.23L224.02,303.23z"/>
	<path class="st15" d="M210.04,217.35c0,0-5.19,5.24-7.99,26.55c-1.2,9.83-3.2,37.04-5.99,57.03c27.96,2.29,27.96,2.29,27.96,2.29
		c15.58-88.5,15.58-88.5,15.58-88.5L210.04,217.35z"/>
	<path class="st15" d="M224.02,303.23c-0.8,6.23-7.59,10.82-15.58,10.16c-7.59-0.66-13.18-6.23-12.38-12.46
		c0.8-6.56,7.59-11.14,15.58-10.49C219.22,291.1,224.81,297,224.02,303.23L224.02,303.23z"/>
	<path class="st16" d="M265.95,205.55c-5.99,0.66-11.18-2.62-11.98-7.54c-0.8-4.59,3.2-8.85,8.79-9.51
		c5.99-0.66,11.18,2.62,11.98,7.21C275.54,200.31,271.54,204.9,265.95,205.55L265.95,205.55z"/>
	<polygon class="st16" points="253.97,198.01 247.58,159.66 268.35,157.37 274.74,195.72 253.97,198.01 	"/>
	<polygon class="st17" points="245.18,184.57 247.58,157.7 268.35,157.37 272.34,181.95 245.18,184.57 	"/>
	<path class="st17" d="M259.16,166.88c-5.59,0.66-10.78-2.62-11.58-7.21s3.2-9.18,8.79-9.83c5.59-0.66,11.18,2.62,11.98,7.54
		C269.15,161.96,265.15,166.22,259.16,166.88L259.16,166.88z"/>
	<path class="st17" d="M210.04,217.35c-3.2-36.38-3.2-36.38-3.2-36.38c1.6-31.14,1.6-31.14,1.6-31.14c49.53,0,49.53,0,49.53,0
		s11.98,19.67,2.4,44.9c0,22.94,0,22.94,0,22.94L210.04,217.35z"/>
	<path class="st17" d="M257.96,167.2c-5.99,0-10.78-3.93-10.78-8.85c0-4.59,4.79-8.52,10.78-8.52c5.59,0,10.38,3.93,10.38,8.52
		C268.35,163.27,263.56,167.2,257.96,167.2L257.96,167.2z"/>
	<polygon class="st16" points="226.01,131.48 226.81,149.18 245.18,149.18 243.99,142.29 226.01,131.48 	"/>
	<path class="st15" d="M242.79,143.6c0.4,0,0.8,0,1.2,0c0.8,2.95,0.8,2.95,0.8,2.95c-9.19-0.66-11.98-7.87-11.98-7.87l0,0
		C234.8,140.33,240.39,143.6,242.79,143.6L242.79,143.6z"/>
	<path class="st16" d="M230.01,133.77c0,0,1.2,3.28,2.4,4.92c1.6,1.64,9.59,6.88,13.98,4.59c3.2-1.97,3.99-6.56,3.99-9.51
		c0.4-3.93,0.4-8.19-0.4-11.47c-15.18-2.29-15.18-2.29-15.18-2.29c-5.59,10.16-5.59,10.16-5.59,10.16L230.01,133.77z"/>
	<path class="st15" d="M245.18,130.17c0,0.66,0.4,1.31,1.2,1.31c0.8,0,1.2-0.66,1.2-1.64c0-0.66-0.8-1.31-1.2-1.31
		C245.58,128.53,245.18,129.18,245.18,130.17L245.18,130.17z"/>
	<path class="st15" d="M238.79,129.84c0,0.66,0.4,1.31,1.2,1.31c0.4,0,0.8-0.66,0.8-1.31c0-0.98-0.4-1.31-0.8-1.31
		C239.19,128.53,238.79,129.18,238.79,129.84L238.79,129.84z"/>
	<path class="st15" d="M247.98,125.9c0.4,0,0.4,0,0.4,0c0.4-0.33,0-0.33,0-0.66c-0.8-0.33-2.4-0.33-3.2,0c-0.4,0-0.4,0.33-0.4,0.33
		c0.4,0.33,0.4,0.33,0.8,0.33C246.38,125.58,247.18,125.58,247.98,125.9L247.98,125.9L247.98,125.9z"/>
	<path class="st15" d="M241.99,125.9h0.4v-0.33c-1.2-0.66-2.8-0.66-3.59-0.33c-0.4,0.33-0.4,0.33-0.4,0.66c0.4,0,0.4,0,0.8,0
		C239.99,125.58,241.19,125.58,241.99,125.9L241.99,125.9L241.99,125.9z"/>
	<path class="st15" d="M244.38,137.7c0,0,0,0,0.4,0l0.4-0.33c0-0.33-0.4-0.33-0.4-0.33c-1.6,0-3.2-0.66-3.59-1.97
		c0-0.33-0.4-0.33-0.8-0.33v0.33C240.79,136.72,242.39,137.7,244.38,137.7L244.38,137.7z"/>
	<path class="st15" d="M244.38,135.08c0.4,0,0.8,0,1.2,0c0-0.33,0.4-0.33,0.4-0.66c0-0.98-1.2-4.59-1.6-5.57c0,0,0-0.33-0.4,0
		c0,0-0.4,0-0.4,0.33c0.8,1.64,1.6,4.59,1.6,4.92c0,0.33,0,0.33-0.4,0.33c0,0.33-0.4,0.33-0.4,0c-0.4,0-0.4,0.33-0.4,0.33
		C243.99,135.08,243.99,135.08,244.38,135.08L244.38,135.08L244.38,135.08z"/>
	<path class="st15" d="M226.01,120.33c0,0-9.98-2.62-0.4,11.14c0.8,6.88,0.8,6.88,0.8,6.88c3.2-3.93,3.2-3.93,3.2-3.93
		c2.4-3.28,2.4-3.28,2.4-3.28c1.6,2.95,1.6,2.95,1.6,2.95c0.8,0,0.8,0,0.8,0c-0.4-7.54-0.4-7.54-0.4-7.54s3.59-0.98,3.2-4.59
		c0,0,15.18,3.61,17.17-0.66c-2.4-2.95-2.4-2.95-2.4-2.95c-2,0.66-2,0.66-2,0.66s2.4-1.97,2.8-5.24c-3.59,2.62-3.59,2.62-3.59,2.62
		s2.4-2.62,0-5.9c-4.39,0-4.39,0-4.39,0s-1.2,1.64-4.79,3.28C235.6,115.42,223.62,113.78,226.01,120.33L226.01,120.33z"/>
	<path class="st16" d="M232.4,132.13c0,1.64-1.6,2.95-3.59,2.95c-2,0-3.59-1.31-3.59-2.95s1.6-2.95,3.59-2.95
		C230.81,129.18,232.4,130.49,232.4,132.13L232.4,132.13z"/>
	<path class="st4" d="M237.6,156.06c3.99-6.23,3.99-6.23,3.99-6.23c4.79,5.9,4.79,5.9,4.79,5.9s1.2-4.59,1.2-5.9
		c-3.2-4.59-3.2-4.59-3.2-4.59c-3.2,3.28-3.2,3.28-3.2,3.28c-14.38-5.24-14.38-5.24-14.38-5.24c-1.2,6.56-1.2,6.56-1.2,6.56
		L237.6,156.06z"/>
	<path class="st17" d="M235.2,114.43c0.4,0,0.8,0,1.2,0c-0.8,1.64-1.6,3.28-3.2,4.92c-1.6,1.97-4.39,3.61-7.19,4.26
		c-1.2,0.66-2.8,0.98-4.39,0.98c0-0.98-0.4-1.64,0-1.97c2-0.66,3.99-1.31,5.59-1.97C230.41,119.02,233.2,117.06,235.2,114.43
		L235.2,114.43z"/>
	<polygon class="st16" points="208.04,198.34 202.45,177.04 225.21,181.3 228.41,194.74 208.04,198.34 	"/>
	<polygon class="st17" points="198.05,184.9 198.05,158.35 218.82,156.71 225.21,181.3 198.05,184.9 	"/>
	<path class="st17" d="M210.84,166.88c-5.59,0.98-11.18-1.97-12.38-6.56c-1.2-4.59,2.4-9.18,7.99-10.16
		c5.59-0.98,11.18,1.97,12.38,6.56C220.02,161.3,216.43,165.89,210.84,166.88L210.84,166.88z"/>
	<polygon class="st16" points="214.83,188.51 259.56,178.35 264.35,190.15 221.62,204.57 214.83,188.51 	"/>
	<path class="st16" d="M208.44,199.32c-2-4.59,1.2-9.51,6.39-10.82c5.59-1.64,11.58,0.66,13.58,5.24c1.6,4.59-1.2,9.51-6.79,10.82
		C216.03,206.21,210.44,203.91,208.44,199.32L208.44,199.32z"/>
	<path class="st16" d="M254.77,186.21c-1.2-3.28,0.8-6.88,4.79-7.87c3.99-0.98,8.39,0.66,9.59,3.93c1.6,3.28-0.8,6.88-4.79,7.87
		C260.36,191.46,256.37,189.49,254.77,186.21L254.77,186.21z"/>
	<path class="st16" d="M257.17,179.66c2.4-3.93,10.78-11.14,11.98-10.82c1.2,0.66-4.39,7.87-4.39,7.87L257.17,179.66z"/>
	<path class="st16" d="M257.17,179.66c6.39-5.24,21.57-13.11,22.77-12.46c1.2,0.66-8.39,6.88-8.39,6.88s9.19-5.24,10.78-3.93
		c1.6,1.31-8.79,5.9-8.79,5.9s11.18-3.61,11.98-2.62c0.4,1.31-10.78,4.92-10.78,4.92s10.38-1.64,10.38-0.33
		c0,0.98-8.39,2.29-9.98,2.62c-1.6,0.66-0.4,5.24-7.99,8.52L257.17,179.66z"/>
	<path class="st16" d="M257.96,189.49c3.59,1.97,8.39,0.98,10.78-1.97c2-2.95,0.8-6.88-2.8-8.52c-3.59-1.97-8.39-0.98-10.38,1.97
		C253.17,183.92,254.37,187.85,257.96,189.49L257.96,189.49z"/>
	<polygon class="st16" points="257.96,190.15 296.31,168.84 305.49,178.68 270.74,203.59 257.96,190.15 	"/>
	<path class="st16" d="M255.97,202.27c-3.59-3.93-2.4-9.18,2-12.13c4.39-2.95,11.18-2.29,14.78,1.64c3.59,3.61,2.8,9.18-2,11.8
		C266.35,206.54,259.56,205.88,255.97,202.27L255.97,202.27z"/>
	<path class="st16" d="M295.11,177.69c-2.8-2.95-2-6.88,1.2-8.85c3.2-2.29,7.99-1.64,10.78,0.98c2.4,2.95,2,6.88-1.6,8.85
		C302.3,180.64,297.5,180.31,295.11,177.69L295.11,177.69z"/>
	<path class="st16" d="M295.91,178.35c-3.2-1.97-3.59-6.23-0.8-8.85s7.59-2.95,10.78-0.66s3.59,6.23,0.8,8.85
		C303.89,180.64,299.1,180.64,295.91,178.35L295.91,178.35z"/>
	<path class="st16" d="M306.29,164.25c0,0-5.59-5.24-5.19-6.23c0-2.62,6.79,0.98,6.79,0.98L306.29,164.25z"/>
	<path class="st15" d="M317.47,154.75c-23.96,16.06-23.96,16.06-23.96,16.06c-0.8,0.33-1.2,0.33-1.6,0c-1.2-0.98-1.2-0.98-1.2-0.98
		c-0.4-0.66-0.4-0.98,0-1.31c24.36-16.39,24.36-16.39,24.36-16.39c0.4-0.33,1.2,0,1.6,0.33c0.8,0.98,0.8,0.98,0.8,0.98
		C317.87,153.76,317.87,154.42,317.47,154.75L317.47,154.75z"/>
	<path class="st16" d="M295.51,175.07c11.18,2.95,11.18,2.95,11.18,2.95s3.2-2.29,6.39-7.54c2.8-5.24,0.8-11.8,0.8-11.8
		c-2-4.26-2.8-4.59-3.59-4.26c-0.8,0.66-1.2,1.97-0.4,5.24c0,0-2-3.93-3.2-2.95c-1.2,0.66-0.4,5.57-0.4,5.57s-2-3.93-3.2-3.28
		c-1.2,0.98-1.6,5.24-1.6,5.24s-1.2-3.93-2.4-3.61c-2,0.66-1.6,7.21-1.6,7.21L295.51,175.07z"/>
	<path class="st16" d="M301.9,179.99c4.39-0.33,7.19-3.61,6.79-7.21c-0.8-3.61-4.79-5.9-8.79-5.57c-4.39,0.66-7.19,3.93-6.79,7.21
		C293.91,178.02,297.9,180.31,301.9,179.99L301.9,179.99z"/>
	<path class="st16" d="M298.3,164.25c0,0-4.39,2.29-2.8,6.23c1.6,3.61,5.19,1.97,5.19,1.97L298.3,164.25z"/>
</g>
</svg>
