<?xml version="1.0" encoding="utf-8"?>
<!-- Generator: Adobe Illustrator 27.8.1, SVG Export Plug-In . SVG Version: 6.00 Build 0)  -->
<svg version="1.1" id="Layer_1" xmlns="http://www.w3.org/2000/svg" xmlns:xlink="http://www.w3.org/1999/xlink" x="0px" y="0px"
	 viewBox="0 0 3460.01 2000" style="enable-background:new 0 0 3460.01 2000;" xml:space="preserve">
<style type="text/css">
	.st0{fill:#D5E9FD;}
	.st1{fill:#B2D5FB;}
	.st2{fill:#0B3E89;}
	.st3{fill:#20599E;}
	.st4{fill:#072B56;}
	.st5{fill:#FFFFFF;}
	.st6{opacity:0.2;}
	.st7{fill:#1D1D1B;}
	.st8{fill:#383838;}
	.st9{fill:#E8E8E8;}
	.st10{opacity:0.3;}
	.st11{fill:#2672B2;}
	.st12{fill:#1769A0;}
	.st13{fill:#6AA2E5;}
	.st14{fill:#5094D8;}
	.st15{fill:#BAD1F1;}
	.st16{fill:#0A324C;}
	.st17{fill:#F9B498;}
	.st18{fill:#DCF4FF;}
	.st19{fill:#3AA1C9;}
	.st20{fill:#FC4F68;}
	.st21{fill:#49263E;}
	.st22{fill:#FE9F73;}
	.st23{fill:#35182E;}
	.st24{fill:#F07162;}
	.st25{fill:#F9B59D;}
	.st26{fill:#133671;}
	.st27{fill:#FD7583;}
	.st28{fill:#3DABC4;}
	.st29{fill:#74CFE8;}
	.st30{fill:#7FD8EF;}
	.st31{fill:#EF3A4C;}
	.st32{fill:#B1E8FC;}
	.st33{opacity:0.5;}
	.st34{fill:#FDEACF;}
	.st35{fill:#7FC6A6;}
	.st36{opacity:0.1;}
	.st37{opacity:0.9;}
	.st38{fill:#9FCED5;}
	.st39{fill:#CAF2F9;}
	.st40{fill:#F0F8FA;}
	.st41{fill:#4CB7D8;}
	.st42{fill:#EF6A83;}
	.st43{fill:#FF97A6;}
	.st44{fill:#3E5177;}
	.st45{fill:#BCEBFF;}
	.st46{fill:#FFAC9C;}
	.st47{fill:#70D4FF;}
	.st48{fill:#000E1B;}
	.st49{fill:#2743AB;}
	.st50{fill:#96ADC9;}
	.st51{fill:#9FC7E0;}
	.st52{fill:#D2D7E0;}
	.st53{fill:#64B6E0;}
	.st54{fill:#97D5C9;}
	.st55{fill:#5CBFAB;}
	.st56{fill:#5A6E7F;}
</style>
<g>
	<g>
		<g>
			<rect x="0" class="st0" width="3460.01" height="1997.49"/>
		</g>
		<g>
			<rect x="0.01" class="st1" width="3460" height="114.48"/>
		</g>
		<g>
			<rect x="0" y="1635.21" class="st1" width="3460.01" height="364.79"/>
		</g>
	</g>
	<g>
		<rect x="2337.28" y="290.4" class="st2" width="1017.91" height="1465.15"/>
	</g>
	<g>
		<rect x="2337.28" y="475.94" class="st3" width="1017.91" height="1279.61"/>
	</g>
	<g>
		<g>
			<rect x="2375.86" y="509.13" class="st4" width="451.84" height="1197.71"/>
		</g>
		<g>
			<rect x="2864.77" y="509.13" class="st4" width="451.84" height="1197.71"/>
		</g>
	</g>
	<g>
		<g>
			<path class="st5" d="M2788.57,388.73h-29.45v43.87h32.83v13.18h-42.6V324.09h40.92v13.18h-31.14v38.46h29.45V388.73z"/>
		</g>
		<g>
			<path class="st5" d="M2846.12,445.78l-9.67-26.9c-3.94-10.29-6.41-16.97-8.77-24.01h-0.22c-2.14,7.04-4.27,13.54-8.21,24.19
				l-9.1,26.72h-11.24l23.16-61.56l-22.26-60.12h11.35l10,28.52c2.81,7.94,4.95,14.08,6.97,20.58h0.34
				c2.14-7.22,4.05-12.82,6.86-20.58l10.34-28.52h11.24l-23.05,59.22l23.61,62.47H2846.12z"/>
		</g>
		<g>
			<path class="st5" d="M2878.61,324.09v121.69h-9.78V324.09H2878.61z"/>
		</g>
		<g>
			<path class="st5" d="M2910.09,337.45h-23.05v-13.36h56.1v13.36h-23.16v108.33h-9.89V337.45z"/>
		</g>
	</g>
	<g>
		<g>
			<g>
				<rect x="227.99" y="324.44" class="st3" width="590.57" height="244.31"/>
			</g>
		</g>
		<g>
			<g>
				<rect x="300.34" class="st2" width="14.86" height="324.44"/>
			</g>
		</g>
		<g>
			<g>
				<rect x="731.37" class="st2" width="14.86" height="324.44"/>
			</g>
		</g>
		<g>
			<g class="st6">
				<g>
					<rect x="262.52" y="358.35" class="st5" width="201.88" height="88.24"/>
				</g>
			</g>
			<g class="st6">
				<g>
					<rect x="698" y="358.35" class="st5" width="96.35" height="88.24"/>
				</g>
			</g>
			<g class="st6">
				<g>
					<rect x="262.52" y="467.13" class="st5" width="340.86" height="13.38"/>
				</g>
			</g>
			<g class="st6">
				<g>
					<rect x="262.52" y="496.49" class="st5" width="303.7" height="13.38"/>
				</g>
			</g>
			<g class="st6">
				<g>
					<rect x="262.52" y="525.85" class="st5" width="212.91" height="13.38"/>
				</g>
			</g>
			<g class="st6">
				<g>
					<rect x="698" y="464.4" class="st5" width="96.35" height="5.45"/>
				</g>
			</g>
			<g class="st6">
				<g>
					<rect x="698" y="487.67" class="st5" width="96.35" height="5.45"/>
				</g>
			</g>
			<g class="st6">
				<g>
					<rect x="698" y="510.93" class="st5" width="96.35" height="5.45"/>
				</g>
			</g>
			<g class="st6">
				<g>
					<rect x="698" y="534.19" class="st5" width="96.35" height="5.45"/>
				</g>
			</g>
		</g>
	</g>
	<g>
		<g>
			<g>
				<rect x="1592.84" y="324.44" class="st3" width="590.57" height="244.31"/>
			</g>
		</g>
		<g>
			<g>
				<rect x="1665.18" class="st2" width="14.86" height="324.44"/>
			</g>
		</g>
		<g>
			<g>
				<rect x="2096.21" class="st2" width="14.86" height="324.44"/>
			</g>
		</g>
		<g>
			<g class="st6">
				<g>
					<rect x="1627.36" y="358.35" class="st5" width="201.88" height="88.24"/>
				</g>
			</g>
			<g class="st6">
				<g>
					<rect x="2062.85" y="358.35" class="st5" width="96.35" height="88.24"/>
				</g>
			</g>
			<g class="st6">
				<g>
					<rect x="1627.36" y="467.13" class="st5" width="340.86" height="13.38"/>
				</g>
			</g>
			<g class="st6">
				<g>
					<rect x="1627.36" y="496.49" class="st5" width="303.7" height="13.38"/>
				</g>
			</g>
			<g class="st6">
				<g>
					<rect x="1627.36" y="525.85" class="st5" width="212.91" height="13.38"/>
				</g>
			</g>
			<g class="st6">
				<g>
					<rect x="2062.85" y="464.4" class="st5" width="96.35" height="5.45"/>
				</g>
			</g>
			<g class="st6">
				<g>
					<rect x="2062.85" y="487.67" class="st5" width="96.35" height="5.45"/>
				</g>
			</g>
			<g class="st6">
				<g>
					<rect x="2062.85" y="510.93" class="st5" width="96.35" height="5.45"/>
				</g>
			</g>
			<g class="st6">
				<g>
					<rect x="2062.85" y="534.19" class="st5" width="96.35" height="5.45"/>
				</g>
			</g>
		</g>
	</g>
	<g>
		<g>
			<path class="st2" d="M1342.23,25.14c0,66.91-54.23,121.16-121.13,121.16c-66.91,0-121.14-54.25-121.14-121.16
				c0-7.37,0.66-14.6,1.92-21.6h238.43C1341.57,10.54,1342.23,17.76,1342.23,25.14z"/>
		</g>
		<g>
			<ellipse class="st7" cx="1221.1" cy="79.31" rx="32.79" ry="32.68"/>
		</g>
		<g>
			<ellipse class="st8" cx="1221.1" cy="79.31" rx="23.6" ry="23.51"/>
		</g>
		<g>
			
				<ellipse transform="matrix(4.031241e-03 -1 1 4.031241e-03 1136.8688 1300.0879)" class="st7" cx="1221.1" cy="79.31" rx="10.63" ry="10.62"/>
		</g>
		<g>
			<path class="st9" d="M1234.26,72.48c0,2.77-2.25,5.02-5.02,5.02c-2.77,0-5.02-2.25-5.02-5.02c0-2.77,2.25-5.02,5.02-5.02
				C1232.01,67.46,1234.26,69.71,1234.26,72.48z"/>
		</g>
		<g class="st10">
			<path class="st2" d="M1251.45,115.94c-63.96,0-116.3-49.58-120.79-112.4h-28.78c-1.26,7-1.92,14.23-1.92,21.6
				c0,66.91,54.23,121.16,121.14,121.16c41.2,0,77.57-20.6,99.46-52.04C1300.96,107.91,1277.15,115.94,1251.45,115.94z"/>
		</g>
		<g>
			<path class="st4" d="M1367.12,0L1367.12,0c0,11.93-9.67,21.6-21.59,21.6h-248.86c-11.93,0-21.59-9.67-21.59-21.6v0H1367.12z"/>
		</g>
	</g>
	<g>
		<g>
			<path class="st2" d="M2949.32,25.14c0,66.91-54.23,121.16-121.13,121.16c-66.91,0-121.14-54.25-121.14-121.16
				c0-7.37,0.66-14.6,1.92-21.6h238.43C2948.66,10.54,2949.32,17.76,2949.32,25.14z"/>
		</g>
		<g>
			<ellipse class="st7" cx="2828.19" cy="79.31" rx="32.79" ry="32.68"/>
		</g>
		<g>
			<ellipse class="st8" cx="2828.19" cy="79.31" rx="23.6" ry="23.51"/>
		</g>
		<g>
			
				<ellipse transform="matrix(3.967553e-03 -1 1 3.967553e-03 2737.6602 2907.1704)" class="st7" cx="2828.19" cy="79.31" rx="10.63" ry="10.62"/>
		</g>
		<g>
			<path class="st9" d="M2841.35,72.48c0,2.77-2.25,5.02-5.02,5.02s-5.02-2.25-5.02-5.02c0-2.77,2.25-5.02,5.02-5.02
				S2841.35,69.71,2841.35,72.48z"/>
		</g>
		<g class="st10">
			<path class="st2" d="M2858.54,115.94c-63.96,0-116.3-49.58-120.79-112.4h-28.78c-1.26,7-1.92,14.23-1.92,21.6
				c0,66.91,54.23,121.16,121.14,121.16c41.2,0,77.57-20.6,99.46-52.04C2908.05,107.91,2884.24,115.94,2858.54,115.94z"/>
		</g>
		<g>
			<path class="st4" d="M2974.21,0L2974.21,0c0,11.93-9.67,21.6-21.59,21.6h-248.86c-11.93,0-21.59-9.67-21.59-21.6v0H2974.21z"/>
		</g>
	</g>
	<g>
		<g>
			<g>
				<g>
					<g>
						<rect x="894.08" y="984.51" class="st11" width="480.49" height="634.79"/>
					</g>
				</g>
				<g>
					<g>
						<rect x="894.08" y="852.9" class="st12" width="108.67" height="766.4"/>
					</g>
				</g>
				<g>
					<g>
						<rect x="1002.75" y="984.51" class="st13" width="371.82" height="364.81"/>
					</g>
				</g>
				<g>
					<g>
						<rect x="1002.75" y="852.9" class="st14" width="280.15" height="131.61"/>
					</g>
				</g>
				<g>
					<g>
						<rect x="1025.12" y="1011.36" class="st14" width="233.32" height="192.33"/>
					</g>
				</g>
				<g>
					<g>
						<polygon class="st15" points="1204.11,1053.45 1258.44,1203.68 1025.12,1203.68 1025.12,1053.45 						"/>
					</g>
				</g>
				<g class="st10">
					<g>
						<polygon class="st14" points="1258.44,1011.36 1204.11,1053.45 1025.12,1053.45 1025.12,1011.36 						"/>
					</g>
				</g>
				<g>
					<g>
						<rect x="1053.09" y="1216.02" class="st11" width="138.8" height="60.24"/>
					</g>
				</g>
				<g>
					<g>
						<rect x="1031.59" y="874.92" class="st16" width="222.47" height="87.57"/>
					</g>
				</g>
				<g>
					<g>
						<g>
							<polygon class="st16" points="1258.44,1203.68 1025.12,1203.68 1025.12,1195.53 1247.17,1196.27 1201.15,1057.16 
								1025.12,1057.16 1025.12,1049.75 1207.06,1049.75 							"/>
						</g>
					</g>
				</g>
				<g>
					<g>
						<rect x="1066.85" y="1234.52" class="st16" width="54.71" height="4.12"/>
					</g>
				</g>
				<g>
					<g>
						<g>
							<rect x="1141.78" y="1225.59" class="st15" width="8.09" height="7.34"/>
						</g>
					</g>
					<g>
						<g>
							<rect x="1157.05" y="1225.59" class="st15" width="8.09" height="7.34"/>
						</g>
					</g>
					<g>
						<g>
							<rect x="1172.31" y="1225.59" class="st15" width="8.09" height="7.34"/>
						</g>
					</g>
					<g>
						<g>
							<rect x="1141.78" y="1237.67" class="st15" width="8.09" height="7.34"/>
						</g>
					</g>
					<g>
						<g>
							<rect x="1157.05" y="1237.67" class="st15" width="8.09" height="7.34"/>
						</g>
					</g>
					<g>
						<g>
							<rect x="1172.31" y="1237.67" class="st15" width="8.09" height="7.34"/>
						</g>
					</g>
					<g>
						<g>
							<rect x="1141.78" y="1249.75" class="st15" width="8.09" height="7.34"/>
						</g>
					</g>
					<g>
						<g>
							<rect x="1157.05" y="1249.75" class="st15" width="8.09" height="7.34"/>
						</g>
					</g>
					<g>
						<g>
							<rect x="1172.31" y="1249.75" class="st15" width="8.09" height="7.34"/>
						</g>
					</g>
					<g>
						<g>
							<rect x="1141.78" y="1261.83" class="st15" width="8.09" height="7.34"/>
						</g>
					</g>
					<g>
						<g>
							<rect x="1157.05" y="1261.83" class="st15" width="8.09" height="7.34"/>
						</g>
					</g>
					<g>
						<g>
							<rect x="1172.31" y="1261.83" class="st15" width="8.09" height="7.34"/>
						</g>
					</g>
				</g>
				<g>
					<g class="st10">
						<g>
							<rect x="1289.02" y="1011.36" class="st15" width="61.66" height="96.16"/>
						</g>
					</g>
					<g class="st10">
						<g>
							<rect x="1293.78" y="1018.45" class="st15" width="31.51" height="35"/>
						</g>
					</g>
					<g class="st10">
						<g>
							<rect x="1328.21" y="1018.45" class="st15" width="19.5" height="1.56"/>
						</g>
					</g>
					<g class="st10">
						<g>
							<rect x="1328.21" y="1023.53" class="st15" width="19.5" height="1.56"/>
						</g>
					</g>
					<g class="st10">
						<g>
							<rect x="1328.21" y="1028.61" class="st15" width="19.5" height="1.56"/>
						</g>
					</g>
					<g class="st10">
						<g>
							<rect x="1328.21" y="1033.69" class="st15" width="19.5" height="1.56"/>
						</g>
					</g>
					<g class="st10">
						<g>
							<rect x="1328.21" y="1038.77" class="st15" width="19.5" height="1.56"/>
						</g>
					</g>
					<g class="st10">
						<g>
							<rect x="1328.21" y="1043.85" class="st15" width="19.5" height="1.56"/>
						</g>
					</g>
					<g class="st10">
						<g>
							<rect x="1328.21" y="1048.93" class="st15" width="19.5" height="1.56"/>
						</g>
					</g>
					<g class="st10">
						<g>
							<rect x="1328.21" y="1054.01" class="st15" width="19.5" height="1.56"/>
						</g>
					</g>
					<g class="st10">
						<g>
							<rect x="1293.78" y="1059.08" class="st15" width="53.93" height="1.56"/>
						</g>
					</g>
					<g class="st10">
						<g>
							<rect x="1293.78" y="1064.16" class="st15" width="53.93" height="1.56"/>
						</g>
					</g>
					<g class="st10">
						<g>
							<rect x="1293.78" y="1069.24" class="st15" width="53.93" height="1.56"/>
						</g>
					</g>
					<g class="st10">
						<g>
							<rect x="1293.78" y="1074.32" class="st15" width="53.93" height="1.56"/>
						</g>
					</g>
					<g class="st10">
						<g>
							<rect x="1293.78" y="1079.4" class="st15" width="53.93" height="1.56"/>
						</g>
					</g>
					<g class="st10">
						<g>
							<rect x="1293.78" y="1084.48" class="st15" width="53.93" height="1.56"/>
						</g>
					</g>
					<g class="st10">
						<g>
							<rect x="1293.78" y="1089.56" class="st15" width="53.93" height="1.56"/>
						</g>
					</g>
					<g class="st10">
						<g>
							<rect x="1293.78" y="1094.64" class="st15" width="53.93" height="1.56"/>
						</g>
					</g>
					<g class="st10">
						<g>
							<rect x="1293.78" y="1099.72" class="st15" width="53.93" height="1.56"/>
						</g>
					</g>
				</g>
				<g>
					<g>
						<path class="st5" d="M1188.66,1088.2h-152.74c-1.31,0-2.38-0.97-2.38-2.16c0-1.19,1.07-2.16,2.38-2.16h152.74
							c1.31,0,2.38,0.97,2.38,2.16C1191.04,1087.23,1189.97,1088.2,1188.66,1088.2z"/>
					</g>
				</g>
				<g>
					<g>
						<path class="st5" d="M1193.09,1103.43h-152.74c-1.31,0-2.38-0.97-2.38-2.16s1.07-2.16,2.38-2.16h152.74
							c1.31,0,2.38,0.97,2.38,2.16S1194.41,1103.43,1193.09,1103.43z"/>
					</g>
				</g>
				<g>
					<g>
						<path class="st5" d="M1198.33,1118.67H1045.6c-1.31,0-2.38-0.97-2.38-2.16c0-1.19,1.07-2.16,2.38-2.16h152.74
							c1.31,0,2.38,0.97,2.38,2.16C1200.71,1117.7,1199.65,1118.67,1198.33,1118.67z"/>
					</g>
				</g>
				<g>
					<g>
						<path class="st5" d="M1198.99,1163.04h-47.56c-2.56,0-5.2-1.82-5.9-4.06l-3.52-11.29c-0.7-2.24,0.81-4.06,3.37-4.06h47.56
							c2.56,0,5.2,1.82,5.9,4.06l3.52,11.29C1203.05,1161.23,1201.55,1163.04,1198.99,1163.04z"/>
					</g>
				</g>
				<g>
					<g>
						<rect x="1074.92" y="1441.29" class="st12" width="218.86" height="178.01"/>
					</g>
				</g>
				<g>
					<g>
						<ellipse class="st16" cx="1090.43" cy="1455.11" rx="3.85" ry="3.5"/>
					</g>
				</g>
				<g>
					<g>
						<path class="st16" d="M1280.18,1455.11c0,1.93-1.73,3.5-3.85,3.5c-2.13,0-3.85-1.57-3.85-3.5s1.73-3.5,3.85-3.5
							C1278.45,1451.61,1280.18,1453.18,1280.18,1455.11z"/>
					</g>
				</g>
				<g>
					<g>
						<ellipse class="st16" cx="1090.43" cy="1602.46" rx="3.85" ry="3.5"/>
					</g>
				</g>
				<g>
					<g>
						<path class="st16" d="M1280.18,1602.46c0,1.93-1.73,3.5-3.85,3.5c-2.13,0-3.85-1.57-3.85-3.5s1.73-3.5,3.85-3.5
							C1278.45,1598.95,1280.18,1600.52,1280.18,1602.46z"/>
					</g>
				</g>
				<g>
					<g>
						<polygon class="st7" points="894.56,1619.3 891.84,1619.3 891.84,851.66 1283.38,851.66 1283.38,984.51 1280.66,984.51 
							1280.66,854.14 894.56,854.14 						"/>
					</g>
				</g>
				<g>
					<g>
						<rect x="1001.39" y="852.9" class="st7" width="2.72" height="662.75"/>
					</g>
				</g>
				<g>
					<g>
						<polygon class="st7" points="1375.93,1397.04 1373.21,1397.04 1373.21,985.74 1002.75,985.74 1002.75,983.27 1375.93,983.27 
													"/>
					</g>
				</g>
				<g>
					<g>
						<rect x="1002.75" y="1348.08" class="st7" width="173.61" height="2.47"/>
					</g>
				</g>
				<g>
					<g>
						<polygon class="st7" points="1193.25,1277.49 1053.09,1277.49 1053.09,1275.02 1190.53,1275.02 1190.53,1216.02 
							1193.25,1216.02 						"/>
					</g>
				</g>
			</g>
			<g>
				<g>
					<g>
						<g>
							<g>
								<g>
									<g>
										<g>
											<g>
												<path class="st17" d="M1134.64,1165.98c0.04,0.35-0.18,0.68-0.53,0.82l-11.27,4.58c-1.81,0.74-2.78,2.62-2.09,4.31
													c0.76,1.85,3.06,2.71,5.01,1.92l1.55-0.63c6.19-2.51,12.83-3.98,19.6-4.33l23.46-1.22c-0.45-5.39-0.83-8.45-4.5-28.14
													c0.31-2,0.06-4.42-0.97-5.2l-20.09-11.9c-1.58-1.2-3.93-1-5.25,0.43c-1.32,1.44-1.1,3.57,0.48,4.77l6.85,7.55
													c-4.6,0.4-34.04,0.78-34.04,0.78c-2.14-0.08-3.93,1.5-3.87,3.47c0.05,1.8,1.72,3.22,3.7,3.29l19.27,0.69
													c0.45,0.02,0.82,0.34,0.87,0.75l0.09,0.88c0.05,0.45-0.32,0.85-0.82,0.89l-20.67,1.71c-2.13,0.18-3.68,1.95-3.34,3.9
													c0.31,1.78,2.17,2.99,4.15,2.83l20.54-1.7c0.5-0.04,0.94,0.29,0.98,0.74l0.03,0.28c0.04,0.39-0.23,0.75-0.64,0.86
													l-17.83,4.79c-2,0.54-3.49,2.52-3.3,4.41c0.19,1.89,1.98,3,3.99,2.46l17.49-4.69
													C1134.03,1165.12,1134.59,1165.47,1134.64,1165.98z"/>
											</g>
										</g>
									</g>
								</g>
							</g>
						</g>
					</g>
				</g>
				<g>
					<g>
						<g>
							<g>
								<g>
									<g>
										<g>
											<g>
												<g>
													<g>
														<polygon class="st18" points="1501.43,1633.21 1542.21,1621.95 1529.35,1583.4 1487.15,1590.11 														"/>
													</g>
												</g>
											</g>
										</g>
									</g>
								</g>
							</g>
						</g>
					</g>
					<g>
						<g>
							<g>
								<g>
									<path class="st19" d="M1544.45,1624.18l-34.04,12.23l-19.75-8.7l-19.3,22.72l-6,2.16c-1.03,0.37-1.86,1.15-2.1,2.13
										c-0.87,3.59,3.1,6.61,5.58,4.75l79.16-28.43c0.58-0.21,0.87-0.81,0.64-1.33l-2.04-4.68
										C1546.26,1624.25,1545.3,1623.87,1544.45,1624.18z"/>
								</g>
							</g>
						</g>
					</g>
					<g>
						<g>
							<g>
								<g>
									<path class="st20" d="M1544.16,1624.32l-5.53-12.69c0,0-8.79-4.95-15.96,1.76c0,0-9.5,13.25-25.62,7.14l-23.83,22.03
										c0,0-6.88,5.25-7.34,9.88L1544.16,1624.32z"/>
								</g>
							</g>
						</g>
					</g>
					<g>
						<g>
							<g>
								<g>
									<polygon points="1544.43,1624.16 1543.85,1624.36 1538.35,1611.73 1538.93,1611.53 									"/>
								</g>
							</g>
						</g>
					</g>
					<g>
						<g>
							<g>
								<g>
									<path d="M1512.4,1621.21c-1.11,0.4-1.81,0.55-1.83,0.56l-0.14-0.55c0.07-0.02,7.27-1.6,11.99-7.98l0.52,0.32
										C1519.55,1618.13,1514.93,1620.31,1512.4,1621.21z"/>
								</g>
							</g>
						</g>
					</g>
					<g>
						<g>
							<g>
								<g>
									<polygon points="1536.1,1624.48 1535.58,1624.16 1538.29,1620.57 1538.8,1620.89 									"/>
								</g>
							</g>
						</g>
					</g>
					<g>
						<g>
							<g>
								<g>
									<polygon points="1533.17,1624.79 1532.66,1624.47 1535.36,1620.88 1535.88,1621.2 									"/>
								</g>
							</g>
						</g>
					</g>
					<g>
						<g>
							<g>
								<g>
									<g>
										<g>
											<g>
												<path d="M1465.88,1659.83c-1.25-0.38-2.24-1.24-2.73-2.36c-0.91-2.09,0.22-4.45,2.52-5.28l78.27-28.11
													c1.23-0.44,2.63,0.11,3.12,1.23l1.53,3.51l-0.58,0.21l-1.53-3.51c-0.36-0.83-1.4-1.24-2.31-0.91l-78.27,28.11
													c-1.98,0.71-2.95,2.75-2.17,4.54c0.42,0.96,1.27,1.7,2.35,2.03L1465.88,1659.83z"/>
											</g>
										</g>
									</g>
								</g>
							</g>
						</g>
					</g>
					<g>
						<g>
							<g>
								<g>
									<path d="M1466.09,1652.48l-0.62-0.04c0.01-0.15,0.31-3.67,5.23-8.09c4.83-4.34,25.92-23.83,26.13-24.02l0.45,0.4
										c-0.21,0.2-21.3,19.69-26.14,24.03C1466.41,1649.01,1466.1,1652.44,1466.09,1652.48z"/>
								</g>
							</g>
						</g>
					</g>
				</g>
				<g>
					<g>
						<g>
							<g>
								<g>
									<g>
										<g>
											<g>
												<g>
													<g>
														<polygon class="st18" points="1331.27,1647 1372.81,1649.38 1373.03,1608.59 1332.09,1605.11 														"/>
													</g>
												</g>
											</g>
										</g>
									</g>
								</g>
							</g>
						</g>
					</g>
					<g>
						<g>
							<g>
								<g>
									<path class="st19" d="M1373.99,1652.2l-36.61-0.03l-14.83-14.7l-27.16,14.66l-6.45,0c-1.11,0-2.19,0.45-2.82,1.28
										c-2.27,3.04,0.19,7.18,3.26,6.29l85.13,0.07c0.63,0,1.13-0.46,1.13-1.03l0-5.04
										C1375.64,1652.88,1374.9,1652.2,1373.99,1652.2z"/>
								</g>
							</g>
						</g>
					</g>
					<g>
						<g>
							<g>
								<g>
									<path class="st20" d="M1373.66,1652.25l0.01-13.65c0,0-6.16-7.54-15.55-3.7c0,0-14.21,9.14-26.71-1.94l-31.09,12.5
										c0,0-8.53,2.58-10.84,6.73L1373.66,1652.25z"/>
								</g>
							</g>
						</g>
					</g>
					<g>
						<g>
							<g>
								<g>
									<rect x="1373.36" y="1638.6" width="0.62" height="13.58"/>
								</g>
							</g>
						</g>
					</g>
					<g>
						<g>
							<g>
								<g>
									<path d="M1345.4,1638.72c-1.19,0-1.91-0.09-1.93-0.1l0.09-0.56c0.07,0.01,7.41,0.95,14.39-3.41l0.35,0.47
										C1353.3,1638.25,1348.12,1638.72,1345.4,1638.72z"/>
								</g>
							</g>
						</g>
					</g>
					<g>
						<g>
							<g>
								<g>
									<polygon points="1366.1,1649.69 1365.75,1649.22 1369.73,1646.79 1370.07,1647.26 									"/>
								</g>
							</g>
						</g>
					</g>
					<g>
						<g>
							<g>
								<g>
									<polygon points="1363.25,1649 1362.91,1648.53 1366.88,1646.1 1367.23,1646.57 									"/>
								</g>
							</g>
						</g>
					</g>
					<g>
						<g>
							<g>
								<g>
									<g>
										<g>
											<g>
												<path d="M1286.48,1659.05c-1-0.78-1.58-1.91-1.58-3.1c0-2.24,2.01-4.07,4.48-4.06l84.17,0.07c1.32,0,2.4,0.98,2.4,2.18
													l0,3.77l-0.62,0l0-3.77c0-0.89-0.8-1.62-1.78-1.62l-84.17-0.07c-2.13,0-3.86,1.57-3.86,3.5c0,1.03,0.49,2,1.36,2.67
													L1286.48,1659.05z"/>
											</g>
										</g>
									</g>
								</g>
							</g>
						</g>
					</g>
					<g>
						<g>
							<g>
								<g>
									<path d="M1289.67,1652.28l-0.56-0.24c0.07-0.13,1.78-3.31,8.14-5.77c6.25-2.42,33.76-13.47,34.04-13.59l0.25,0.52
										c-0.28,0.11-27.79,11.17-34.05,13.59C1291.36,1649.16,1289.68,1652.25,1289.67,1652.28z"/>
								</g>
							</g>
						</g>
					</g>
				</g>
				<g>
					<g>
						<g>
							<path class="st21" d="M1477.35,1238.46c0,0,17.31,172.93,19.9,185.51c2.6,12.58,43.27,173.72,43.27,173.72
								s-32.31,14.94-55.1,14.15c0,0-52.52-160.35-60.31-182.36c-7.79-22.01-26.3-100.59-26.3-100.59l-19.94,300.98
								c0,0-35.48,2.36-51.93,0c0,0-18.37-302.15-11.37-390.61C1322.6,1150.79,1477.35,1238.46,1477.35,1238.46z"/>
						</g>
					</g>
				</g>
				<g>
					<g>
						<g>
							<path class="st16" d="M1434.32,998.75c0,0,48.22,52.28,54.38,88.26c6.15,35.98-41.92,72.32-41.92,72.32L1434.32,998.75z"/>
						</g>
					</g>
				</g>
				<g>
					<g>
						<g>
							<g>
								<g>
									<g>
										<g>
											<g>
												<g>
													<g>
														<g>
															<g>
																<path class="st22" d="M1331.61,927.74l1.57,39.76c0,0-0.09,13.46,12.93,14.72l-1.71,18.01
																	c-0.63,6.69,4.01,12.93,11.13,14.73c3.49,0.88,7.63,1.47,12.29,1.32c14.8-0.48,22.42-10.82,23.45-15.9
																	c1.03-5.08-3.62-29.04-3.62-29.04l-0.02-11.85l-3.5-45.79L1331.61,927.74z"/>
															</g>
														</g>
													</g>
												</g>
											</g>
										</g>
									</g>
								</g>
							</g>
						</g>
					</g>
				</g>
				<g>
					<g>
						<g>
							<g>
								<g>
									<g>
										<g>
											<g>
												<g>
													<g>
														<g>
															<g>
																<path class="st23" d="M1382.51,915.96l-9.8,13.61c0,0-30.84,12.05-47.39-0.49c-16.55-12.54-11.86-18.98-7.42-25.68
																	c2.19-3.3,12.99-10.23,26.77-5.2c7.52,2.74,12.65-6.34,21.46-2.15c8.81,4.2,19.3,11.62,18.28,14.73
																	C1383.39,913.9,1382.51,915.96,1382.51,915.96z"/>
															</g>
														</g>
													</g>
												</g>
											</g>
										</g>
									</g>
								</g>
							</g>
						</g>
					</g>
				</g>
				<g>
					<g>
						<g>
							<g>
								<g>
									<g>
										<g>
											<g>
												<g>
													<g>
														<g>
															<g>
																<path class="st23" d="M1381.67,910.38c0,0,14.21-1.09,18.68,11.23c4.47,12.31-0.62,19.01-0.61,22.72
																	s3.77,28.64-15.64,27.4l-6.86-41.15l6.08-16.67L1381.67,910.38z"/>
															</g>
														</g>
													</g>
												</g>
											</g>
										</g>
									</g>
								</g>
							</g>
						</g>
					</g>
				</g>
				<g>
					<g>
						<g>
							<g>
								<g>
									<g>
										<path class="st23" d="M1341.3,931.32c0,0-0.71,11.72,0.59,14.87c1.3,3.15,15.66,11.19,15.66,11.19s2.05,22.26,4.43,23.25
											c2.38,0.99,22.95-3.79,29.31-9.92c6.35-6.13-2.51-52.63-2.51-52.63s-6.1-6.18-11.99-7.05
											c-5.89-0.87-34.04-2.08-32.74,1.07C1345.35,915.24,1341.3,931.32,1341.3,931.32z"/>
									</g>
								</g>
							</g>
						</g>
					</g>
				</g>
				<g>
					<g>
						<g>
							<g>
								<g>
									<g>
										<g>
											<g>
												<g>
													<g>
														<g>
															<g>
																<g>
																	<path class="st22" d="M1345.61,951.58c0.22,5.57,5.26,9.92,11.27,9.73c6-0.2,10.69-4.87,10.47-10.43
																		c-0.22-5.57-5.26-9.92-11.27-9.73C1350.08,941.34,1345.39,946.01,1345.61,951.58z"/>
																</g>
															</g>
														</g>
													</g>
												</g>
											</g>
										</g>
									</g>
								</g>
							</g>
						</g>
					</g>
				</g>
				<g>
					<g>
						<g>
							<g>
								<g>
									<g>
										<g>
											<g>
												<g>
													<g>
														<g>
															<g>
																<g>
																	<path class="st24" d="M1357.53,957.38c2.26-0.07,3.7-1.7,4.14-3.29c0.51-1.88-0.23-3.67-1.9-4.55
																		c-2.46-1.31-4.61-0.35-5.7,0.37c0.42-1.16,1.13-2.02,2.1-2.55c2.1-1.16,4.79-0.45,4.81-0.45
																		c0.16,0.04,0.33-0.04,0.37-0.19c0.05-0.15-0.04-0.3-0.2-0.35c-0.12-0.03-2.96-0.79-5.29,0.5
																		c-1.34,0.74-2.23,2.01-2.63,3.76l-0.22,0.98l0.74-0.73c0.1-0.1,2.6-2.52,5.72-0.86c1.73,0.92,1.95,2.69,1.61,3.93
																		c-0.35,1.28-1.5,2.8-3.57,2.86c-0.02,0-0.04,0-0.06,0c-0.16,0.01-0.29,0.13-0.29,0.29c0,0.15,0.14,0.28,0.31,0.27
																		C1357.48,957.38,1357.51,957.38,1357.53,957.38z"/>
																</g>
															</g>
														</g>
													</g>
												</g>
											</g>
										</g>
									</g>
								</g>
							</g>
						</g>
					</g>
				</g>
				<g>
					<g>
						<g>
							<path class="st16" d="M1428.89,995.31c0,0-29.42-6.81-60-2.1c-30.58,4.72-53.66,14.15-69.23,29.87
								c-15.58,15.72-50.88,87.06-50.88,87.06l-89.59,19.01l4.93,47.88l99.66-12.24c21.06-6.01,33.15-11.05,39.11-30.36l5.71-11.1
								l6.39,125.21c0,0,66.52,8.87,162.37-10.08C1477.35,1238.46,1470.43,1011.55,1428.89,995.31z"/>
						</g>
					</g>
				</g>
				<g>
					<g>
						<g>
							<path class="st7" d="M1164.25,1177.91l86.6-10.64c13.38-1.64,35.77-4.4,46.55-21.24c5.47-8.55,15.83-29.66,23.56-45.86
								l-1.79-0.7c-11.05,23.17-19.16,38.96-23.46,45.68c-10.3,16.09-32.1,18.77-45.13,20.37l-86.6,10.64L1164.25,1177.91z"/>
						</g>
					</g>
				</g>
				<g>
					<g>
						<g>
							<path class="st7" d="M1471.4,1164.96l1.94-0.15c-9.16-100.82-30.99-158.88-31.26-159.43l-1.77,0.73
								C1440.58,1006.65,1462.27,1064.47,1471.4,1164.96z"/>
						</g>
					</g>
				</g>
				<g>
					<g>
						<g>
							<path class="st7" d="M1484.77,1612.79l0.81-0.08c1.69-0.17,41.45-4.22,55.59-14.33l-1.2-1.39
								c-12.64,9.03-48.01,13.24-53.8,13.88l-60.07-181.65l-25.66-98.15l-1.89,0.41l25.68,98.2L1484.77,1612.79z"/>
						</g>
					</g>
				</g>
			</g>
		</g>
		<g>
			<g>
				<g>
					<g>
						<rect x="1639.79" y="987.28" class="st11" width="463.61" height="648.04"/>
					</g>
				</g>
				<g>
					<g>
						<rect x="1639.79" y="852.93" class="st12" width="104.85" height="782.39"/>
					</g>
				</g>
				<g>
					<g>
						<rect x="1744.64" y="987.28" class="st13" width="358.76" height="372.42"/>
					</g>
				</g>
				<g>
					<g>
						<rect x="1744.64" y="852.93" class="st14" width="270.31" height="134.35"/>
					</g>
				</g>
				<g>
					<g>
						<rect x="1766.23" y="1014.69" class="st14" width="225.12" height="196.34"/>
					</g>
				</g>
				<g>
					<g>
						<polygon class="st15" points="1938.92,1057.66 1991.35,1211.03 1766.23,1211.03 1766.23,1057.66 						"/>
					</g>
				</g>
				<g class="st10">
					<g>
						<polygon class="st14" points="1991.35,1014.69 1938.92,1057.66 1766.23,1057.66 1766.23,1014.69 						"/>
					</g>
				</g>
				<g>
					<g>
						<polygon class="st11" points="1921.51,1285.12 1793.21,1285.12 1793.21,1223.62 1927.14,1223.62 						"/>
					</g>
				</g>
				<g>
					<g>
						<rect x="1772.47" y="875.4" class="st16" width="214.65" height="89.4"/>
					</g>
				</g>
				<g>
					<g>
						<g>
							<polygon class="st16" points="1991.35,1211.03 1766.23,1211.03 1766.23,1202.7 1980.47,1203.46 1936.07,1061.45 
								1766.23,1061.45 1766.23,1053.88 1941.77,1053.88 							"/>
						</g>
					</g>
				</g>
				<g>
					<g>
						<rect x="1806.49" y="1242.5" class="st16" width="52.79" height="4.2"/>
					</g>
				</g>
				<g>
					<g>
						<g>
							<rect x="1878.79" y="1233.39" class="st15" width="7.8" height="7.5"/>
						</g>
					</g>
					<g>
						<g>
							<rect x="1893.52" y="1233.39" class="st15" width="7.8" height="7.5"/>
						</g>
					</g>
					<g>
						<g>
							<rect x="1908.24" y="1233.39" class="st15" width="7.8" height="7.5"/>
						</g>
					</g>
					<g>
						<g>
							<rect x="1878.79" y="1245.73" class="st15" width="7.8" height="7.5"/>
						</g>
					</g>
					<g>
						<g>
							<rect x="1893.52" y="1245.73" class="st15" width="7.8" height="7.5"/>
						</g>
					</g>
					<g>
						<g>
							<rect x="1908.24" y="1245.73" class="st15" width="7.8" height="7.5"/>
						</g>
					</g>
					<g>
						<g>
							<rect x="1878.79" y="1258.06" class="st15" width="7.8" height="7.5"/>
						</g>
					</g>
					<g>
						<g>
							<rect x="1893.52" y="1258.06" class="st15" width="7.8" height="7.5"/>
						</g>
					</g>
					<g>
						<g>
							<rect x="1908.24" y="1258.06" class="st15" width="7.8" height="7.5"/>
						</g>
					</g>
					<g>
						<g>
							<rect x="1878.79" y="1270.39" class="st15" width="7.8" height="7.5"/>
						</g>
					</g>
					<g>
						<g>
							<rect x="1893.52" y="1270.39" class="st15" width="7.8" height="7.5"/>
						</g>
					</g>
					<g>
						<g>
							<rect x="1908.24" y="1270.39" class="st15" width="7.8" height="7.5"/>
						</g>
					</g>
				</g>
				<g>
					<g class="st10">
						<g>
							<rect x="2020.85" y="1014.69" class="st15" width="59.5" height="98.17"/>
						</g>
					</g>
					<g class="st10">
						<g>
							<rect x="2025.44" y="1021.93" class="st15" width="30.41" height="35.73"/>
						</g>
					</g>
					<g class="st10">
						<g>
							<rect x="2058.67" y="1021.93" class="st15" width="18.81" height="1.59"/>
						</g>
					</g>
					<g class="st10">
						<g>
							<rect x="2058.67" y="1027.12" class="st15" width="18.81" height="1.59"/>
						</g>
					</g>
					<g class="st10">
						<g>
							<rect x="2058.67" y="1032.3" class="st15" width="18.81" height="1.59"/>
						</g>
					</g>
					<g class="st10">
						<g>
							<rect x="2058.67" y="1037.49" class="st15" width="18.81" height="1.59"/>
						</g>
					</g>
					<g class="st10">
						<g>
							<rect x="2058.67" y="1042.67" class="st15" width="18.81" height="1.59"/>
						</g>
					</g>
					<g class="st10">
						<g>
							<rect x="2058.67" y="1047.86" class="st15" width="18.81" height="1.59"/>
						</g>
					</g>
					<g class="st10">
						<g>
							<rect x="2058.67" y="1053.04" class="st15" width="18.81" height="1.59"/>
						</g>
					</g>
					<g class="st10">
						<g>
							<rect x="2058.67" y="1058.23" class="st15" width="18.81" height="1.59"/>
						</g>
					</g>
					<g class="st10">
						<g>
							<rect x="2025.44" y="1063.41" class="st15" width="52.04" height="1.59"/>
						</g>
					</g>
					<g class="st10">
						<g>
							<rect x="2025.44" y="1068.6" class="st15" width="52.04" height="1.59"/>
						</g>
					</g>
					<g class="st10">
						<g>
							<rect x="2025.44" y="1073.78" class="st15" width="52.04" height="1.59"/>
						</g>
					</g>
					<g class="st10">
						<g>
							<rect x="2025.44" y="1078.97" class="st15" width="52.04" height="1.59"/>
						</g>
					</g>
					<g class="st10">
						<g>
							<rect x="2025.44" y="1084.15" class="st15" width="52.04" height="1.59"/>
						</g>
					</g>
					<g class="st10">
						<g>
							<rect x="2025.44" y="1089.34" class="st15" width="52.04" height="1.59"/>
						</g>
					</g>
					<g class="st10">
						<g>
							<rect x="2025.44" y="1094.52" class="st15" width="52.04" height="1.59"/>
						</g>
					</g>
					<g class="st10">
						<g>
							<rect x="2025.44" y="1099.71" class="st15" width="52.04" height="1.59"/>
						</g>
					</g>
					<g class="st10">
						<g>
							<rect x="2025.44" y="1104.89" class="st15" width="52.04" height="1.59"/>
						</g>
					</g>
				</g>
				<g>
					<g>
						<path class="st5" d="M1924.02,1093.13h-147.37c-1.27,0-2.3-0.99-2.3-2.21c0-1.22,1.03-2.21,2.3-2.21h147.37
							c1.27,0,2.3,0.99,2.3,2.21C1926.31,1092.14,1925.29,1093.13,1924.02,1093.13z"/>
					</g>
				</g>
				<g>
					<g>
						<path class="st5" d="M1928.3,1108.69h-147.37c-1.27,0-2.3-0.99-2.3-2.21s1.03-2.21,2.3-2.21h147.37c1.27,0,2.3,0.99,2.3,2.21
							S1929.56,1108.69,1928.3,1108.69z"/>
					</g>
				</g>
				<g>
					<g>
						<path class="st5" d="M1933.35,1124.24h-147.37c-1.27,0-2.3-0.99-2.3-2.21s1.03-2.21,2.3-2.21h147.37c1.27,0,2.3,0.99,2.3,2.21
							S1934.62,1124.24,1933.35,1124.24z"/>
					</g>
				</g>
				<g>
					<g>
						<path class="st5" d="M1857.34,1169.54h-45.89c-2.47,0-5.02-1.85-5.69-4.14l-3.39-11.52c-0.67-2.29,0.78-4.14,3.25-4.14h45.89
							c2.47,0,5.02,1.85,5.69,4.14l3.39,11.52C1861.26,1167.69,1859.81,1169.54,1857.34,1169.54z"/>
					</g>
				</g>
				<g>
					<g>
						<path class="st5" d="M1933.98,1169.54h-45.89c-2.47,0-5.02-1.85-5.69-4.14l-3.39-11.52c-0.67-2.29,0.78-4.14,3.25-4.14h45.89
							c2.47,0,5.02,1.85,5.69,4.14l3.39,11.52C1937.91,1167.69,1936.45,1169.54,1933.98,1169.54z"/>
					</g>
				</g>
				<g>
					<g>
						<rect x="1814.27" y="1453.59" class="st12" width="211.17" height="181.72"/>
					</g>
				</g>
				<g>
					<g>
						<path class="st16" d="M1832.96,1467.7c0,1.97-1.66,3.57-3.72,3.57c-2.05,0-3.72-1.6-3.72-3.57s1.66-3.57,3.72-3.57
							C1831.3,1464.13,1832.96,1465.73,1832.96,1467.7z"/>
					</g>
				</g>
				<g>
					<g>
						<ellipse class="st16" cx="2008.6" cy="1467.7" rx="3.72" ry="3.57"/>
					</g>
				</g>
				<g>
					<g>
						<path class="st16" d="M1832.96,1618.12c0,1.97-1.66,3.57-3.72,3.57c-2.05,0-3.72-1.6-3.72-3.57s1.66-3.57,3.72-3.57
							C1831.3,1614.54,1832.96,1616.14,1832.96,1618.12z"/>
					</g>
				</g>
				<g>
					<g>
						<ellipse class="st16" cx="2008.6" cy="1618.12" rx="3.72" ry="3.57"/>
					</g>
				</g>
				<g>
					<g>
						<polygon class="st7" points="1641.1,1635.31 1638.48,1635.31 1638.48,851.66 2016.26,851.66 2016.26,987.28 2013.63,987.28 
							2013.63,854.19 1641.1,854.19 						"/>
					</g>
				</g>
				<g>
					<g>
						<rect x="1743.33" y="852.93" class="st7" width="2.62" height="676.57"/>
					</g>
				</g>
				<g>
					<g>
						<polygon class="st7" points="2104.71,1408.42 2102.08,1408.42 2102.08,988.54 1744.64,988.54 1744.64,986.02 2104.71,986.02 
													"/>
					</g>
				</g>
				<g>
					<g>
						<rect x="1744.64" y="1358.44" class="st7" width="167.51" height="2.52"/>
					</g>
				</g>
			</g>
			<g>
				<g>
					<g>
						<g>
							<g>
								<g>
									<g>
										<polygon class="st25" points="2130.97,1360.12 2146.98,1646.02 2104.58,1647.49 2045.31,1349.11 										"/>
									</g>
								</g>
							</g>
						</g>
					</g>
				</g>
				<g>
					<g>
						<g>
							<g>
								<g>
									<polygon class="st25" points="1979.38,1352.81 2062.9,1363.69 2024.61,1643.51 1980.38,1647.72 									"/>
								</g>
							</g>
						</g>
					</g>
				</g>
				<g>
					<g>
						<g>
							<g>
								<g>
									<g>
										<g>
											<g>
												<g>
													<g>
														<path class="st26" d="M1949.53,1650.18l30.84-14.13c14.84,12.49,28.41,2.17,28.41,2.17
															c9.3-4.34,16.93,4.16,16.93,4.16l2.36,17.71h-89.23C1938.04,1654.08,1949.53,1650.18,1949.53,1650.18z"/>
													</g>
												</g>
											</g>
										</g>
									</g>
								</g>
							</g>
						</g>
					</g>
				</g>
				<g>
					<g>
						<g>
							<g>
								<g>
									<g>
										<g>
											<g>
												<g>
													<g>
														<path class="st5" d="M1940.17,1666.3c-1.07,0-4.18-1.25-4.32-2.29l-0.56-2.75c-0.14-1.04,0.9-3.12,1.97-3.12
															l91.62-0.37c0.53,0,1.02,0.42,1.09,0.94l0.89,6.65c0.07,0.52-0.31,0.94-0.84,0.94H1940.17z"/>
													</g>
												</g>
											</g>
										</g>
									</g>
								</g>
							</g>
						</g>
					</g>
				</g>
				<g>
					<g>
						<g>
							<g>
								<g>
									<g>
										<g>
											<g>
												<g>
													<g>
														<path d="M1937.39,1665.04l-0.36,0.49c-1.17-0.87-1.95-2.15-2.13-3.5c-0.34-2.53,1.5-4.59,4.1-4.59h88.6
															c1.39,0,2.67,1.1,2.85,2.46l0.57,4.26h-0.66l-0.57-4.26c-0.13-1-1.08-1.82-2.11-1.82h-88.6
															c-2.24,0-3.82,1.77-3.53,3.95C1935.71,1663.19,1936.38,1664.29,1937.39,1665.04z"/>
													</g>
												</g>
											</g>
										</g>
									</g>
								</g>
							</g>
						</g>
					</g>
				</g>
				<g>
					<g>
						<g>
							<g>
								<path d="M1939.36,1657.9l-0.63-0.27c0.05-0.15,1.37-3.73,7.7-6.51c6.22-2.73,33.5-15.23,33.77-15.35l0.34,0.58
									c-0.28,0.13-27.56,12.62-33.78,15.36C1940.67,1654.38,1939.37,1657.86,1939.36,1657.9z"/>
							</g>
						</g>
					</g>
				</g>
				<g>
					<g>
						<g>
							<g>
								<polygon points="2026.04,1642.39 2028.05,1657.43 2027.39,1657.43 2025.38,1642.39 								"/>
							</g>
						</g>
					</g>
				</g>
				<g>
					<g>
						<g>
							<g>
								<path d="M1993.93,1641.82c0.08,0.01,7.94,1.06,14.63-3.85l0.44,0.53c-4.79,3.52-10.18,4.07-13.04,4.07
									c-1.25,0-2.02-0.1-2.05-0.11L1993.93,1641.82z"/>
							</g>
						</g>
					</g>
				</g>
				<g>
					<g>
						<g>
							<g>
								<polygon points="2022.79,1651.63 2023.23,1652.16 2019.42,1654.91 2018.98,1654.38 								"/>
							</g>
						</g>
					</g>
				</g>
				<g>
					<g>
						<g>
							<g>
								<polygon points="2019.69,1650.86 2020.13,1651.39 2016.32,1654.13 2015.88,1653.6 								"/>
							</g>
						</g>
					</g>
				</g>
				<g>
					<g>
						<g>
							<g>
								<g>
									<g>
										<g>
											<g>
												<g>
													<g>
														<path class="st26" d="M2071.49,1650.18l30.84-14.13c14.84,12.49,28.41,2.17,28.41,2.17
															c9.3-4.34,16.93,4.16,16.93,4.16l2.36,17.71h-89.23C2060,1654.08,2071.49,1650.18,2071.49,1650.18z"/>
													</g>
												</g>
											</g>
										</g>
									</g>
								</g>
							</g>
						</g>
					</g>
				</g>
				<g>
					<g>
						<g>
							<g>
								<g>
									<g>
										<g>
											<g>
												<g>
													<g>
														<path class="st5" d="M2062.13,1666.3c-1.06,0-4.18-1.25-4.32-2.29l-0.56-2.75c-0.14-1.04,0.9-3.12,1.97-3.12
															l91.62-0.37c0.53,0,1.02,0.42,1.09,0.94l0.89,6.65c0.07,0.52-0.31,0.94-0.84,0.94H2062.13z"/>
													</g>
												</g>
											</g>
										</g>
									</g>
								</g>
							</g>
						</g>
					</g>
				</g>
				<g>
					<g>
						<g>
							<g>
								<g>
									<g>
										<g>
											<g>
												<g>
													<g>
														<path d="M2059.35,1665.04l-0.36,0.49c-1.17-0.87-1.95-2.15-2.13-3.5c-0.34-2.53,1.5-4.59,4.1-4.59h88.6
															c1.39,0,2.67,1.1,2.85,2.46l0.57,4.26h-0.66l-0.57-4.26c-0.13-1-1.08-1.82-2.11-1.82h-88.6
															c-2.24,0-3.82,1.77-3.53,3.95C2057.67,1663.19,2058.34,1664.29,2059.35,1665.04z"/>
													</g>
												</g>
											</g>
										</g>
									</g>
								</g>
							</g>
						</g>
					</g>
				</g>
				<g>
					<g>
						<g>
							<g>
								<path d="M2061.32,1657.9l-0.63-0.27c0.05-0.15,1.37-3.73,7.7-6.51c6.22-2.73,33.5-15.23,33.77-15.35l0.34,0.58
									c-0.28,0.13-27.56,12.62-33.78,15.36C2062.63,1654.38,2061.33,1657.86,2061.32,1657.9z"/>
							</g>
						</g>
					</g>
				</g>
				<g>
					<g>
						<g>
							<g>
								<path d="M2115.89,1641.82c0.08,0.01,7.94,1.06,14.63-3.85l0.44,0.53c-4.79,3.52-10.18,4.07-13.04,4.07
									c-1.25,0-2.02-0.1-2.05-0.11L2115.89,1641.82z"/>
							</g>
						</g>
					</g>
				</g>
				<g>
					<g>
						<g>
							<g>
								<polygon points="2144.76,1651.63 2145.19,1652.16 2141.38,1654.91 2140.94,1654.38 								"/>
							</g>
						</g>
					</g>
				</g>
				<g>
					<g>
						<g>
							<g>
								<polygon points="2141.65,1650.86 2142.09,1651.39 2138.28,1654.13 2137.84,1653.6 								"/>
							</g>
						</g>
					</g>
				</g>
				<g>
					<g>
						<path class="st25" d="M2119.8,1240.07c-23.08,15.77-5.64-157.71-5.64-159.69c0-1.97,17.44-17.25,17.44-17.25
							s17.44,5.15,22.31,31.16c4.87,26.01-3.33,106.84-3.33,106.84S2142.88,1224.3,2119.8,1240.07z"/>
					</g>
				</g>
				<g>
					<g>
						<path class="st27" d="M2153.9,1457.17c0,0-103.85,6.65-139.24,0l-9.23-53.97l-13.85,56.93h-33.85
							c0,0-12.24-167.97,44.17-253.92c0,0-16.47-54.81-8.78-102.86c7.69-48.05,138.47-40.22,138.47-40.22l3.85,62.1l-11.9,79.69
							c0,0,28.83,67.43,31.91,150.97C2158.52,1439.43,2153.9,1457.17,2153.9,1457.17z"/>
					</g>
				</g>
				<g>
					<g>
						<g>
							<g>
								<path class="st25" d="M1918.86,1287.35l-15.6-28.57c17.4-17.69,67.08-98.91,70.23-107.53c3.04-8.31,12.75-30.15,19.4-47.85
									c9.71,5.75,33.33,16.75,54.59,20.68c-9.03,19.6-31.42,63.47-36.54,72.01C1999.33,1215.43,1961.54,1261.23,1918.86,1287.35z"
									/>
							</g>
						</g>
					</g>
				</g>
				<g>
					<g>
						<path class="st25" d="M1987.52,1117.07c0,0,10.98-45.54,30.03-49.78c19.05-4.25,33.99,4.55,35.92,18.05
							c1.92,13.51-5.99,38.73-5.99,38.73l-49.4,12.48L1987.52,1117.07z"/>
					</g>
				</g>
				<g>
					<g>
						<g>
							<g>
								<g>
									<g>
										<g>
											<g>
												<g>
													<g>
														<g>
															<path class="st25" d="M2083.23,1066.74c-1.04,4.5-7.8,13.49-20.28,13.49c-3.94,0-7.41-0.65-10.31-1.53
																c-5.95-1.81-9.65-7.5-8.89-13.45l2.04-16c-10.92-1.5-10.4-13.49-10.4-13.49v-35.48l44.72-10.99l1.42,40.91
																l-0.38,10.56C2081.15,1040.75,2084.27,1062.24,2083.23,1066.74z"/>
														</g>
													</g>
												</g>
											</g>
										</g>
									</g>
								</g>
							</g>
						</g>
					</g>
				</g>
				<g>
					<g>
						<g>
							<path class="st7" d="M2037.2,1004.25c-14.8-7.27-10.52-22.12-10.52-22.12c3.95-30.02,45.38-15.49,62.15-12.01
								c16.77,3.48,24.99,23.39,25.32,41.08c0.33,17.7,35.91,43.38,42.35,78.54c2.85,15.57,17.11,86.83-68.55,94.14
								c-40.47,3.45-70.5-21.67-79.44-50.32c-19.5-62.55,42.49-105.3,44.46-111.12C2054.95,1016.61,2051.99,1011.52,2037.2,1004.25z
								"/>
						</g>
					</g>
				</g>
				<g>
					<g>
						<g>
							<g>
								<g>
									<g>
										<g>
											<g>
												<g>
													<g>
														<g>
															<g>
																<path class="st25" d="M2044.6,1021.92c0-4.97,4.1-9,9.17-9c5.06,0,9.17,4.03,9.17,9c0,4.97-4.1,9-9.17,9
																	C2048.71,1030.92,2044.6,1026.89,2044.6,1021.92z"/>
															</g>
														</g>
													</g>
												</g>
											</g>
										</g>
									</g>
								</g>
							</g>
						</g>
					</g>
					<g>
						<g>
							<g>
								<g>
									<g>
										<g>
											<g>
												<g>
													<g>
														<g>
															<g>
																<path class="st24" d="M2056.6,1020.52c1.37,0.84,1.94,2.45,1.45,4.11c-0.42,1.4-1.69,2.81-3.59,2.81
																	c-0.02,0-0.04,0-0.05,0c-0.14,0-0.25-0.12-0.25-0.25c0-0.14,0.12-0.25,0.25-0.25c0.02,0,0.04,0,0.05,0
																	c1.75,0,2.77-1.31,3.1-2.45c0.33-1.09,0.2-2.68-1.23-3.54c-2.58-1.57-4.76,0.51-4.85,0.6l-0.65,0.63l0.22-0.87
																	c0.4-1.55,1.18-2.65,2.34-3.28c2-1.08,4.37-0.33,4.47-0.29c0.13,0.04,0.21,0.18,0.16,0.32
																	c-0.04,0.13-0.19,0.2-0.32,0.16c-0.02-0.01-2.26-0.72-4.07,0.26c-0.83,0.45-1.45,1.19-1.85,2.21
																	C2052.73,1020.07,2054.57,1019.28,2056.6,1020.52z"/>
															</g>
														</g>
													</g>
												</g>
											</g>
										</g>
									</g>
								</g>
							</g>
						</g>
					</g>
				</g>
				<g>
					<g>
						<g>
							<g>
								<g>
									<path class="st25" d="M1852.01,1276.19c4.16-4.48,18.97-11.45,23.59-12.04c2.52-0.33,12.75-1.71,21.55-2.9
										c0.09-0.14,6.32-2.62,6.41-2.78l15.3,28.88l-10.01,3.08c-27.12,5.29-42.02,9.98-42.02,9.98l0,0
										c-4.6,2.51-9.01,4.83-11.03,5.88c-1.09,0.57-2.41,0.66-3.53,0.15c-1.53-0.69-2.68-2.46,0.65-6.95c0,0-8.45-0.11-1.42-7.79
										c0,0-8.67,1.49-1.66-7.67C1849.85,1284.04,1844.46,1284.33,1852.01,1276.19z"/>
								</g>
							</g>
						</g>
					</g>
					<g>
						<g>
							<g>
								<g>
									<g>
										<g>
											<g>
												<g>
													<g>
														<g>
															<g>
																<g>
																	<path class="st24" d="M1853.3,1299.89c-0.23,0.2-0.59,0.18-0.79-0.04c-0.21-0.22-0.19-0.56,0.05-0.76
																		c0.21-0.18,5.26-4.48,9.13-6.6c0.05-0.03,0.11-0.05,0.16-0.06c0.23-0.05,0.48,0.05,0.6,0.26
																		c0.15,0.26,0.06,0.59-0.21,0.73C1858.47,1295.49,1853.35,1299.85,1853.3,1299.89z"/>
																</g>
															</g>
														</g>
													</g>
												</g>
											</g>
										</g>
									</g>
								</g>
							</g>
						</g>
						<g>
							<g>
								<g>
									<g>
										<g>
											<g>
												<g>
													<g>
														<g>
															<g>
																<g>
																	<path class="st24" d="M1851.88,1292.1c-0.23,0.2-0.59,0.18-0.79-0.04c-0.21-0.22-0.19-0.56,0.04-0.76
																		c0.17-0.14,4.1-3.53,9.17-5.52c0.03-0.01,0.07-0.02,0.1-0.03c0.26-0.05,0.53,0.08,0.63,0.32
																		c0.12,0.28-0.02,0.59-0.31,0.7C1855.84,1288.7,1851.92,1292.07,1851.88,1292.1z"/>
																</g>
															</g>
														</g>
													</g>
												</g>
											</g>
										</g>
									</g>
								</g>
							</g>
						</g>
						<g>
							<g>
								<g>
									<g>
										<g>
											<g>
												<g>
													<g>
														<g>
															<g>
																<g>
																	<path class="st24" d="M1850.24,1284.42c-0.22,0.21-0.58,0.2-0.79-0.01c-0.22-0.21-0.21-0.55,0.01-0.76
																		c0.15-0.14,3.61-3.38,7.97-5.24c0.04-0.02,0.08-0.03,0.11-0.03c0.25-0.05,0.52,0.07,0.63,0.31
																		c0.13,0.27,0,0.59-0.28,0.71C1853.71,1281.17,1850.28,1284.39,1850.24,1284.42z"/>
																</g>
															</g>
														</g>
													</g>
												</g>
											</g>
										</g>
									</g>
								</g>
							</g>
						</g>
					</g>
				</g>
			</g>
		</g>
	</g>
	<g>
		<g>
			<g>
				<g>
					<g>
						<rect x="893.05" y="1309.83" class="st28" width="76.55" height="158.13"/>
					</g>
				</g>
				<g>
					<g>
						<polygon class="st29" points="898.7,1257.36 893.05,1309.83 969.6,1309.83 963.94,1257.36 						"/>
					</g>
				</g>
				<g>
					<g>
						<rect x="898.7" y="1244.42" class="st28" width="65.24" height="12.94"/>
					</g>
				</g>
				<g>
					<g>
						<g>
							<ellipse class="st30" cx="931.32" cy="1281.17" rx="14.15" ry="7.29"/>
						</g>
					</g>
					<g>
						<g>
							<path class="st31" d="M919.79,1280.27L919.79,1280.27c0,0.03,0,0.06,0,0.09c0,3.28,5.17,5.94,11.54,5.94
								s11.54-2.66,11.54-5.94c0-0.03,0-0.06,0-0.09h0v-6.38h-23.07V1280.27z"/>
						</g>
					</g>
					<g>
						<g>
							<ellipse class="st27" cx="931.32" cy="1274.33" rx="11.54" ry="5.94"/>
						</g>
					</g>
				</g>
				<g>
					<g>
						<rect x="893.05" y="1338.27" class="st29" width="76.55" height="47.77"/>
					</g>
				</g>
				<g>
					<g>
						<rect x="893.05" y="1461.43" class="st32" width="76.55" height="6.53"/>
					</g>
				</g>
				<g class="st33">
					<g>
						<rect x="919.45" y="1363.74" class="st5" width="46.37" height="0.69"/>
					</g>
				</g>
				<g class="st33">
					<g>
						<rect x="897.45" y="1367.73" class="st5" width="68.37" height="0.69"/>
					</g>
				</g>
				<g class="st33">
					<g>
						<rect x="897.45" y="1371.71" class="st5" width="68.37" height="0.69"/>
					</g>
				</g>
				<g class="st33">
					<g>
						<rect x="897.45" y="1375.69" class="st5" width="68.37" height="0.69"/>
					</g>
				</g>
				<g class="st33">
					<g>
						<rect x="897.45" y="1379.68" class="st5" width="68.37" height="0.69"/>
					</g>
				</g>
				<g>
					<g class="st6">
						<g>
							<rect x="899.72" y="1244.42" class="st32" width="1.1" height="12.94"/>
						</g>
					</g>
					<g class="st6">
						<g>
							<rect x="903.89" y="1244.42" class="st32" width="1.1" height="12.94"/>
						</g>
					</g>
					<g class="st6">
						<g>
							<rect x="908.05" y="1244.42" class="st32" width="1.1" height="12.94"/>
						</g>
					</g>
					<g class="st6">
						<g>
							<rect x="912.21" y="1244.42" class="st32" width="1.1" height="12.94"/>
						</g>
					</g>
					<g class="st6">
						<g>
							<rect x="916.38" y="1244.42" class="st32" width="1.1" height="12.94"/>
						</g>
					</g>
					<g class="st6">
						<g>
							<rect x="920.54" y="1244.42" class="st32" width="1.1" height="12.94"/>
						</g>
					</g>
					<g class="st6">
						<g>
							<rect x="924.71" y="1244.42" class="st32" width="1.1" height="12.94"/>
						</g>
					</g>
					<g class="st6">
						<g>
							<rect x="928.87" y="1244.42" class="st32" width="1.1" height="12.94"/>
						</g>
					</g>
					<g class="st6">
						<g>
							<rect x="933.04" y="1244.42" class="st32" width="1.1" height="12.94"/>
						</g>
					</g>
					<g class="st6">
						<g>
							<rect x="937.2" y="1244.42" class="st32" width="1.1" height="12.94"/>
						</g>
					</g>
					<g class="st6">
						<g>
							<rect x="941.36" y="1244.42" class="st32" width="1.1" height="12.94"/>
						</g>
					</g>
					<g class="st6">
						<g>
							<rect x="945.53" y="1244.42" class="st32" width="1.1" height="12.94"/>
						</g>
					</g>
					<g class="st6">
						<g>
							<rect x="949.69" y="1244.42" class="st32" width="1.1" height="12.94"/>
						</g>
					</g>
					<g class="st6">
						<g>
							<rect x="953.86" y="1244.42" class="st32" width="1.1" height="12.94"/>
						</g>
					</g>
					<g class="st6">
						<g>
							<rect x="958.02" y="1244.42" class="st32" width="1.1" height="12.94"/>
						</g>
					</g>
					<g class="st6">
						<g>
							<rect x="962.19" y="1244.42" class="st32" width="1.1" height="12.94"/>
						</g>
					</g>
				</g>
			</g>
			<g>
				<g>
					<polygon points="898.53,1257.34 892.88,1309.8 892.88,1309.81 892.88,1467.96 893.22,1467.96 893.22,1309.85 898.87,1257.39 
						898.87,1257.37 898.87,1244.64 943.33,1244.64 943.33,1244.19 898.53,1244.19 					"/>
				</g>
			</g>
			<g>
				<g>
					<polygon points="963.77,1257.13 898.7,1257.13 898.7,1257.58 964.11,1257.58 964.11,1244.42 963.77,1244.42 					"/>
				</g>
			</g>
			<g>
				<g>
					<polygon points="963.78,1257.39 969.43,1309.85 969.43,1372.4 969.77,1372.4 969.77,1309.81 964.11,1257.33 					"/>
				</g>
			</g>
			<g>
				<g>
					<rect x="969.43" y="1403.05" width="0.34" height="64.91"/>
				</g>
			</g>
			<g>
				<g>
					<rect x="893.05" y="1309.61" width="38.59" height="0.44"/>
				</g>
			</g>
			<g>
				<g>
					<rect x="893.05" y="1385.82" width="76.55" height="0.44"/>
				</g>
			</g>
			<g>
				<g>
					<rect x="929.47" y="1338.05" width="40.13" height="0.44"/>
				</g>
			</g>
			<g>
				<g>
					<path d="M941.35,1271.14c-2-2.02-5.31-3.03-9.84-2.97c-10.83,0.13-11.85,5.44-11.89,5.67l0,0.02l0.03,6.93l0.34,0l-0.03-6.87
						c0.08-0.35,1.33-5.18,11.56-5.3c5.51-0.07,8.26,1.51,9.59,2.84c1.37,1.37,1.57,2.76,1.58,2.89v6.79
						c-0.06,0.19-0.49,1.33-2.24,2.45c-1.77,1.13-5.29,2.44-11.98,2.31l0,0.44c0.31,0.01,0.62,0.01,0.92,0.01
						c12.25,0,13.59-4.89,13.64-5.1l0.01-0.03v-6.88l0-0.02C943.02,1274.24,942.87,1272.68,941.35,1271.14z"/>
				</g>
			</g>
			<g>
				<g>
					<path d="M942.69,1274.37c0,0.03,0.33,2.66-4.85,4.63c-5.34,2.02-11.93,0.35-12,0.33l-0.07,0.43c0.04,0.01,2.65,0.68,5.93,0.67
						c1.97,0,4.19-0.24,6.23-1.01c5.53-2.09,5.11-5.02,5.09-5.14L942.69,1274.37z"/>
				</g>
			</g>
			<g>
				<g>
					<polygon points="922.14,1272.8 922.25,1273.22 926.87,1271.11 926.76,1270.69 					"/>
				</g>
			</g>
			<g>
				<g>
					<polygon points="924.65,1273.68 924.76,1274.09 929.38,1271.98 929.27,1271.56 					"/>
				</g>
			</g>
			<g>
				<g>
					<polygon points="962.59,1293.71 965.25,1299.9 965.54,1299.68 962.89,1293.5 					"/>
				</g>
			</g>
			<g>
				<g>
					<polygon points="961.26,1296.81 963.92,1302.99 964.21,1302.77 961.56,1296.59 					"/>
				</g>
			</g>
			<g>
				<g>
					<polygon points="896.8,1319.81 896.97,1320.2 903.97,1315.07 903.8,1314.69 					"/>
				</g>
			</g>
			<g>
				<g>
					<polygon points="897.24,1324.94 897.41,1325.32 904.41,1320.2 904.24,1319.81 					"/>
				</g>
			</g>
			<g>
				<g>
					<polygon points="899.42,1453.23 904.22,1458.21 904.43,1457.86 899.63,1452.89 					"/>
				</g>
			</g>
			<g>
				<g>
					<polygon points="899.42,1448.77 904.22,1453.75 904.43,1453.41 899.63,1448.43 					"/>
				</g>
			</g>
		</g>
		<g>
			<g>
				<path class="st34" d="M844.84,1228.61l-43.85-21.65v-7.6h-22.02v6.52l-15.32,24.1c-2.59,4.08-4,9.09-4,14.24v164.68h93.01
					v-166.21C852.65,1236.51,849.57,1230.95,844.84,1228.61z M842.83,1293.21c0,7.41-4.97,13.41-11.1,13.41v-64.9h2.71
					c4.64,0,8.39,4.54,8.39,10.14V1293.21z"/>
			</g>
			<g>
				<path class="st35" d="M852.65,1253.35v155.54h-93.01v-155.54h72.08v53.27c6.13,0,11.1-6,11.1-13.41v-39.86H852.65z"/>
			</g>
			<g>
				<path class="st35" d="M798.96,1164.87h-8.59h-0.53h-8.59l-5.37,37.05c0,0,11.34,0,13.95,0c0.36,0,0.55,0,0.53,0
					c2.61,0,13.95,0,13.95,0L798.96,1164.87z"/>
			</g>
			<g class="st36">
				<g>
					<polygon class="st5" points="778.9,1181.05 801.3,1181.05 800.9,1178.32 779.3,1178.32 					"/>
				</g>
				<g>
					<polygon class="st5" points="778.23,1185.69 801.97,1185.69 801.58,1182.97 778.62,1182.97 					"/>
				</g>
				<g>
					<polygon class="st5" points="777.56,1190.34 802.64,1190.34 802.25,1187.61 777.95,1187.61 					"/>
				</g>
				<g>
					<polygon class="st5" points="776.88,1194.98 803.32,1194.98 802.92,1192.26 777.28,1192.26 					"/>
				</g>
				<g>
					<polygon class="st5" points="799.28,1167.11 798.96,1164.87 790.37,1164.87 789.83,1164.87 781.25,1164.87 780.92,1167.11 
											"/>
				</g>
				<g>
					<path class="st5" d="M803.59,1196.9h-26.99l-0.73,5.02c0,0,11.34,0,13.95,0c0.36,0,0.55,0,0.53,0c2.61,0,13.95,0,13.95,0
						L803.59,1196.9z"/>
				</g>
				<g>
					<polygon class="st5" points="780.25,1171.76 799.95,1171.76 799.56,1169.04 780.64,1169.04 					"/>
				</g>
				<g>
					<polygon class="st5" points="779.57,1176.4 800.63,1176.4 800.23,1173.68 779.97,1173.68 					"/>
				</g>
			</g>
			<g>
				<polygon class="st7" points="804.32,1202.47 775.34,1202.47 780.8,1164.77 781.69,1164.96 776.42,1201.37 804.32,1201.37 				
					"/>
			</g>
			<g>
				<path class="st7" d="M832.18,1306.62h-0.91v-65.39l0.4-0.05c3.44-0.45,6.22,0.38,8.27,2.48c3.07,3.15,3.33,7.97,3.34,8.18
					l0,19.78h-0.91v-19.75c0-0.01-0.25-4.54-3.02-7.38c-1.77-1.81-4.18-2.57-7.17-2.26V1306.62z"/>
			</g>
			<g>
				<path class="st7" d="M853.11,1377.64h-0.91v-134.96c0-10.85-9.41-14.5-9.51-14.54l-0.04-0.02l-35.85-17.7l0.34-1.01l35.83,17.69
					c0.53,0.21,10.13,4.18,10.13,15.57V1377.64z"/>
			</g>
			<g class="st37">
				<path class="st18" d="M803.06,1276.88v85.4c0,8.49-5.69,15.36-12.72,15.36h-30.7v-116.12h30.7
					C797.36,1261.52,803.06,1268.4,803.06,1276.88z"/>
			</g>
			<g class="st33">
				<path class="st5" d="M779.36,1319.58c0,28.06-8.27,50.81-18.47,50.81c-0.42,0-0.84-0.04-1.25-0.12v-101.38
					c0.41-0.08,0.83-0.12,1.25-0.12C771.1,1268.78,779.36,1291.52,779.36,1319.58z"/>
			</g>
			<g>
				<path class="st7" d="M759.19,1409.44v-156.09c-0.01-0.37-0.28-9.52,0.46-14.24c0.74-4.78,3.99-10.02,4.13-10.24l14.73-23.18
					l-0.06-3.77l0.91-0.02l0.06,4.15l-0.1,0.15l-14.83,23.33c-0.03,0.05-3.26,5.25-3.96,9.78c-0.71,4.59-0.44,13.92-0.44,14.02
					l0.05,155.93L759.19,1409.44z"/>
			</g>
		</g>
		<g>
			<g>
				<path class="st38" d="M750.3,1280.31c-5.49-8.18-12.31-36.92-12.31-36.92l-12-1.82l0-0.06l-0.19,0.03l-0.19-0.03l0,0.06
					l-12.01,1.75c0,0-6.95,28.7-12.47,36.85c-5.52,8.15-8.52,14.73-8.54,23.42c-0.02,8.69-0.23,104.85-0.23,104.85
					s1.1,23.98,20.82,27.19l12.01,0.03l0.38,0l12.01,0.03c19.74-3.11,20.94-27.08,20.94-27.08s0.21-96.16,0.23-104.85
					C758.76,1295.09,755.79,1288.5,750.3,1280.31z"/>
			</g>
			<g>
				<path class="st39" d="M745.38,1282.49c0,0-7.66-5.55-14.44,0.52c-6.78,6.07-14.7-0.16-14.7-0.16s1.13,13.23,2,13.94
					c0.87,0.7,7.23,7.63,12.75,4.02c5.52-3.61,7.94-3.37,10.07-6.18C743.2,1291.83,745.38,1282.49,745.38,1282.49z"/>
			</g>
			<g>
				<path class="st40" d="M747.5,1284.9c-0.02-0.04-0.05-0.07-0.07-0.11c-2.42-4-7.1-4.79-10.26-1.64c-2.25,2.24-4.18,4.83-6.25,5.6
					c-4.06,1.51-8.74-2.88-14.68-5.9c-11.3-5.74-19.9,15.7-19.92,23.83c-0.02,8.13-0.21,98.06-0.21,98.06s0.97,24.14,18.46,27.15
					l21.63,0.06c17.5-2.91,18.57-27.04,18.57-27.04s0.19-89.93,0.21-98.06C755,1298.72,752.37,1292.55,747.5,1284.9z"/>
			</g>
			<g>
				
					<rect x="708.17" y="1317.07" transform="matrix(2.847846e-03 -1 1 2.847846e-03 -626.6455 2071.8552)" class="st41" width="34.77" height="66.16"/>
			</g>
			<g>
				<path class="st7" d="M737.6,1436.1l-24.47-0.07c-10.34-1.69-15.53-9.1-18.07-15.02c-2.74-6.4-3.05-12.48-3.05-12.54l0-0.02
					l0.23-104.85c0.02-9.15,3.31-15.84,8.61-23.66c5.42-8,12.34-36.42,12.41-36.71l0.06-0.25l11.94-1.74l0-0.16l0.54,0.08l0.54-0.08
					l0,0.16l11.93,1.81l0.06,0.25c0.07,0.29,6.87,28.75,12.25,36.78c5.27,7.85,8.53,14.56,8.51,23.71l-0.23,104.86l0,0.01
					c0,0.06-0.34,6.15-3.1,12.53c-2.56,5.91-7.79,13.29-18.13,14.92L737.6,1436.1z M713.2,1435.25l24.35,0.07
					c8.05-1.27,13.96-6.14,17.58-14.46c2.66-6.12,3.03-11.95,3.04-12.23l0.23-104.84c0.02-8.93-3.19-15.51-8.37-23.23
					c-5.26-7.83-11.58-33.76-12.31-36.8l-11.92-1.81l-11.93,1.74c-0.74,3.04-7.18,28.93-12.47,36.73
					c-5.21,7.69-8.45,14.25-8.47,23.18l-0.23,104.84c0.01,0.28,0.36,6.12,2.99,12.25C699.27,1429.03,705.16,1433.93,713.2,1435.25z"
					/>
			</g>
			<g>
				<path class="st41" d="M743.96,1241.59c0.01-2.72-1.71-4.98-3.97-5.43l0-0.08l-27.53-0.08c-2.65-0.01-4.8,2.45-4.8,5.49
					s2.13,5.51,4.78,5.52l27.53,0.08l0-0.08C742.23,1246.56,743.96,1244.31,743.96,1241.59z"/>
			</g>
			<g>
				<path class="st7" d="M740.32,1247.48l-27.88-0.08c-2.83-0.01-5.13-2.66-5.12-5.91c0.01-3.25,2.32-5.89,5.15-5.88l0,0.79
					c-2.45-0.01-4.45,2.28-4.46,5.1c-0.01,2.82,1.98,5.11,4.44,5.12l27.19,0.08v-0.02l0.29-0.06c2.14-0.42,3.7-2.53,3.7-5.02l0.69,0
					c-0.01,2.77-1.67,5.13-3.99,5.73L740.32,1247.48z"/>
			</g>
			<g>
				<polygon class="st7" points="715.99,1258.81 715.56,1258.18 721.8,1252.58 722.22,1253.2 				"/>
			</g>
			<g>
				<polygon class="st7" points="720.63,1258.82 720.2,1258.2 726.43,1252.6 726.86,1253.22 				"/>
			</g>
			<g>
				
					<rect x="711.63" y="1347.91" transform="matrix(2.848463e-03 -1 1 2.848463e-03 -657.4925 2075.6172)" class="st7" width="0.79" height="39.16"/>
			</g>
			<g>
				
					<rect x="731.4" y="1305.89" transform="matrix(2.846957e-03 -1 1 2.846957e-03 -603.0605 2060.7686)" class="st7" width="0.79" height="53.77"/>
			</g>
			<g class="st33">
				<path class="st40" d="M739.61,1260.03c0.91,2.99,0.67,5.81-0.52,6.28s-2.9-1.56-3.81-4.55c-0.91-2.99-0.67-5.81,0.52-6.28
					C736.99,1255,738.7,1257.04,739.61,1260.03z"/>
			</g>
			<g class="st10">
				<path class="st41" d="M734.71,1360.43c10.6,0.83,18.42-4.33,23.92-10.58l0.04-17l-29.06-0.08c-4.24,5.27-10.49,9.89-19.22,9.21
					c-8.01-0.63-13.84,2.97-17.91,7.38l-0.04,18.07l21.47,0.06C719.03,1362.99,725.85,1359.74,734.71,1360.43z"/>
			</g>
		</g>
		<g>
			<g>
				<g>
					<g>
						<g>
							<rect x="770.65" y="1260.9" class="st42" width="26.14" height="174.7"/>
						</g>
					</g>
				</g>
				<g>
					<g>
						<g>
							<rect x="794.97" y="1260.9" class="st43" width="90.16" height="174.7"/>
						</g>
					</g>
				</g>
				<g>
					<g>
						<g>
							<path class="st42" d="M770.65,1260.9l10.63,21.45c0,0,14.84-21.45,13.69-21.45C793.82,1260.9,770.65,1260.9,770.65,1260.9z"
								/>
						</g>
					</g>
				</g>
				<g class="st33">
					<g>
						<g>
							<rect x="770.65" y="1332.29" class="st42" width="114.48" height="47.43"/>
						</g>
					</g>
				</g>
			</g>
			<g>
				<g>
					<g>
						<path d="M851.02,1436.1h-80.81v-175.72h114.92c0.24,0,0.44,0.23,0.44,0.51c0,0.28-0.2,0.51-0.44,0.51H771.09v173.68h79.93
							c0.24,0,0.44,0.23,0.44,0.51C851.46,1435.88,851.26,1436.1,851.02,1436.1z"/>
					</g>
				</g>
			</g>
			<g>
				<g>
					<g>
						<path d="M794.97,1320.42c-0.24,0-0.44-0.23-0.44-0.51v-59.01c0-0.28,0.2-0.51,0.44-0.51s0.44,0.23,0.44,0.51v59.01
							C795.41,1320.19,795.21,1320.42,794.97,1320.42z"/>
					</g>
				</g>
			</g>
		</g>
		<path class="st44" d="M368.14,1414.88c0,191.05,0,191.05,0,191.05c12.05,0,12.05,0,12.05,0c0-191.05,0-191.05,0-191.05
			c0-9.29-2.68-16.36-6.25-16.36C370.82,1398.52,368.14,1405.59,368.14,1414.88L368.14,1414.88z"/>
		<polygon class="st44" points="383.77,1609.47 364.57,1609.47 364.57,1598.41 383.77,1598.41 383.77,1609.47 		"/>
		<path class="st44" d="M839.44,1427.7c0,191.05,0,191.05,0,191.05c11.6,0,11.6,0,11.6,0c0-191.05,0-191.05,0-191.05
			c0-9.29-2.68-16.36-5.8-16.36S839.44,1418.42,839.44,1427.7L839.44,1427.7z"/>
		<polygon class="st44" points="855.06,1621.85 835.42,1621.85 835.42,1611.24 855.06,1611.24 855.06,1621.85 		"/>
		<path class="st45" d="M422.59,1810.25c0,0-0.89,0.88-0.89,2.21c4.46,15.48,12.05,25.21,23.21,28.75c2.68,1.33,4.46,1.33,7.59,0
			c5.36-1.33,10.26-4.86,13.84-10.61c-0.89,0-1.79,0-2.68,0c-4.91,5.75-11.16,9.29-17.85,7.08c-11.16-2.21-18.3-11.94-22.32-27.42
			C422.59,1810.25,422.59,1810.25,422.59,1810.25"/>
		<polygon class="st5" points="485.02,1888.9 486.8,1898.63 583.2,1879.17 581.42,1869.88 485.02,1888.9 		"/>
		<path class="st45" d="M227.56,1794.33c-0.89-8.4-3.57-16.81-8.03-22.55c-0.89,2.21-0.89,2.21-0.89,2.21
			c3.57,6.19,5.36,13.27,6.25,20.34c0.89,8.4-0.89,15.92-2.68,21.67c1.79,3.54,1.79,3.54,1.79,3.54
			C226.67,1811.14,227.56,1802.73,227.56,1794.33L227.56,1794.33z"/>
		<path class="st45" d="M256.57,1790.79c0,0-0.89,0-1.79,0c-7.59,14.59-9.37,27.86-4.91,42.01c0.89,2.65,2.23,6.19,4.02,8.4
			c3.57,4.86,8.93,7.08,14.73,7.08c-0.89-0.88-0.89-0.88-1.79-2.21c-6.69-1.33-12.05-6.19-14.73-14.59
			c-4.02-12.83-2.23-26.09,5.36-39.36C256.57,1790.79,256.57,1790.79,256.57,1790.79L256.57,1790.79z"/>
		<polygon class="st5" points="204.35,1793 199,1800.52 266.83,1891.62 272.19,1884.55 204.35,1793 		"/>
		<path class="st46" d="M565.41,1254.78c8.03-8.4,22.31-7.08,32.13,1.33c8.03,9.73,7.14,23.88-1.34,32.28
			c-9.37,9.73-23.65,8.4-32.13-0.88C554.7,1279.11,555.59,1264.51,565.41,1254.78L565.41,1254.78z"/>
		<path class="st46" d="M215.51,1119.01c15.62,7.08,22.76,26.54,15.62,42.01c-8.48,15.92-26.33,21.67-41.51,14.59
			c-16.96-7.08-22.76-26.54-15.62-42.01C182.48,1117.69,200.34,1111.94,215.51,1119.01L215.51,1119.01z"/>
		<polygon class="st46" points="178.91,1127.42 227.56,1066.39 258.36,1127.42 226.22,1167.22 178.91,1127.42 		"/>
		<path class="st5" d="M480.61,1830.59c13.39-4.86,22.76-20.34,22.76-20.34c12.94-1.33,12.94-1.33,12.94-1.33
			c-8.03-23-8.03-30.07-8.03-30.07c-54.89,27.42-54.89,27.42-54.89,27.42c2.68,12.38,2.68,12.38,2.68,12.38
			c4.46,0,9.37,0.88,11.6,5.75C469.01,1827.94,473.47,1831.48,480.61,1830.59L480.61,1830.59z"/>
		<path class="st47" d="M569.87,1832.81c-16.51-5.75-43.74,2.65-53.56-21.67c0-0.88,0-2.21,0-2.21
			c-12.94,1.33-12.94,1.33-12.94,1.33s-9.37,15.48-22.76,20.34c-7.14,0.88-11.6-2.65-12.94-6.19c-2.23-4.86-7.14-5.75-11.6-5.75
			c10.71,47.76,10.71,47.76,10.71,47.76c123.62-19.02,123.62-19.02,123.62-19.02S587.72,1839.88,569.87,1832.81"/>
		<path class="st45" d="M484.18,1842.53c-7.14-3.54-15.17-6.19-23.65-4.86c0,3.54,0,3.54,0,3.54c8.48-1.33,15.62,1.33,22.76,4.86
			c5.8,3.54,11.6,9.73,15.17,15.48c3.57,0,3.57,0,3.57,0C497.57,1853.15,491.32,1847.4,484.18,1842.53"/>
		<path class="st5" d="M261.93,1783.72c10.71,9.29,28.56,7.08,28.56,7.08c8.48,9.73,8.48,9.73,8.48,9.73
			c14.28-19.46,18.74-23,18.74-23c-53.11-30.07-53.11-30.07-53.11-30.07c-8.48,9.73-8.48,9.73-8.48,9.73
			c3.57,3.54,4.91,8.4,2.23,11.94C257.46,1773.99,256.12,1778.85,261.93,1783.72L261.93,1783.72z"/>
		<path class="st47" d="M310.57,1859.34c-4.46-18.13-27.22-34.94-12.94-56.61c1.34-1.33,1.34-1.33,1.34-2.21
			c-8.48-9.73-8.48-9.73-8.48-9.73s-17.85,2.21-28.56-7.08c-5.8-4.86-4.46-9.73-3.57-14.59c2.68-3.54,1.34-8.4-2.23-11.94
			C223.99,1793,223.99,1793,223.99,1793c86.58,91.55,86.58,91.55,86.58,91.55S315.48,1877.47,310.57,1859.34"/>
		<path class="st48" d="M361.9,1241.52c0,0-12.94,23,3.57,105.7c7.14,34.94,37.94,148.15,51.32,218.91
			c80.78-15.48,80.78-15.48,80.78-15.48c-52.22-297.19-52.22-297.19-52.22-297.19L361.9,1241.52z"/>
		<path class="st48" d="M497.57,1550.65c4.46,22.55-10.71,45.55-33.47,49.09c-22.31,4.86-43.74-10.61-47.31-33.61
			c-4.91-21.67,9.37-44.67,32.13-48.21C471.24,1513.06,494,1528.98,497.57,1550.65L497.57,1550.65z"/>
		<polygon class="st48" points="424.82,1532.52 258.36,1747.45 311.91,1795.66 489.09,1585.15 424.82,1532.52 		"/>
		<path class="st48" d="M489.09,1585.15c-14.28,18.13-40.17,20.79-58.02,6.19c-17.85-14.59-20.53-40.69-6.25-58.82
			c13.39-18.13,39.27-20.34,57.13-6.19C501.14,1539.59,503.37,1566.13,489.09,1585.15L489.09,1585.15z"/>
		<polygon class="st48" points="369.04,1552.86 447.59,1813.79 516.32,1796.98 448.93,1528.98 369.04,1552.86 		"/>
		<path class="st48" d="M448.93,1528.98c5.8,22.55-6.25,45.55-28.56,52.63c-21.42,6.19-45.52-5.75-51.32-28.75
			c-7.14-21.67,5.8-45.55,27.22-51.74C419.02,1494.04,441.78,1507.31,448.93,1528.98L448.93,1528.98z"/>
		<path class="st48" d="M296.29,1252.57c0,0-22.31,13.27-0.89,88.89c9.37,34.94,54.45,140.64,73.64,211.4
			c79.89-23,79.89-23,79.89-23c-74.98-319.3-74.98-319.3-74.98-319.3L296.29,1252.57z"/>
		<path class="st48" d="M448.93,1529.86c5.8,21.67-7.14,45.99-28.56,51.74c-22.76,6.19-45.52-7.08-51.32-28.75
			c-5.8-23,5.8-45.55,28.56-51.74C419.02,1494.04,442.68,1507.31,448.93,1529.86L448.93,1529.86z"/>
		<polygon class="st46" points="509.18,1149.09 597.54,1256.11 564.07,1287.51 463.21,1192.43 509.18,1149.09 		"/>
		<path class="st46" d="M465.44,1146.88c11.6-11.06,32.13-11.06,43.74,2.21c12.05,11.94,10.71,32.28-0.89,44.67
			c-13.39,11.94-33.47,10.61-45.08-1.33C452.5,1179.16,452.5,1158.82,465.44,1146.88L465.44,1146.88z"/>
		<path class="st46" d="M497.57,1199.5c-16.96,6.19-34.37-2.21-40.61-18.13c-5.8-16.81,2.68-34.5,19.19-40.69
			c15.17-5.75,33.03,2.65,39.27,19.46C521.23,1175.62,512.75,1193.75,497.57,1199.5L497.57,1199.5z"/>
		<polygon class="st46" points="456.96,1181.37 408.31,1046.93 466.78,1025.26 515.42,1160.14 456.96,1181.37 		"/>
		<polygon class="st49" points="421.25,1137.15 394.03,1046.93 466.78,1025.26 498.46,1111.94 421.25,1137.15 		"/>
		<path class="st49" d="M448.93,1066.39c-16.96,5.75-34.81-2.65-40.61-19.46c-5.8-15.48,2.23-33.61,19.19-39.8
			c15.17-5.75,33.03,2.65,39.27,18.13C472.58,1042.06,464.1,1060.19,448.93,1066.39L448.93,1066.39z"/>
		<path class="st49" d="M296.29,1252.57c-16.51-167.17-16.51-167.17-16.51-167.17c12.05-80.49,12.05-80.49,12.05-80.49
			c146.39,0,146.39,0,146.39,0s35.26,72.09,8.03,164.52c-0.89,84.03-0.89,84.03-0.89,84.03L296.29,1252.57z"/>
		<path class="st49" d="M438.21,1068.6c-17.85,0-31.24-14.59-31.24-32.28c0-16.81,13.39-31.4,31.24-31.4
			c16.51,0,30.79,14.59,30.79,31.4C469.01,1054,454.73,1068.6,438.21,1068.6L438.21,1068.6z"/>
		<polygon class="st46" points="342.71,937.69 346.28,1002.7 399.83,1002.7 396.26,977.49 342.71,937.69 		"/>
		<path class="st48" d="M392.69,981.92c1.34,0,3.57,0,3.57,0c2.68,11.06,2.68,11.06,2.68,11.06c-26.33-2.65-34.81-28.75-34.81-28.75
			C369.04,969.97,385.55,981.92,392.69,981.92L392.69,981.92z"/>
		<path class="st46" d="M354.76,946.09c0,0,3.57,11.94,7.14,18.13c4.91,5.75,28.56,25.21,41.51,16.81
			c9.82-7.52,12.05-24.32,13.39-34.94c0-14.59,0-30.07-1.34-42.01c-45.08-8.4-45.08-8.4-45.08-8.4
			c-16.96,37.15-16.96,37.15-16.96,37.15L354.76,946.09z"/>
		<path class="st48" d="M399.83,932.83c0,2.21,2.68,4.86,3.57,4.86c2.68,0,3.57-2.65,3.57-6.19c0-2.21-0.89-4.86-3.57-4.86
			C402.51,926.63,399.83,929.29,399.83,932.83L399.83,932.83z"/>
		<path class="st48" d="M381.09,931.5c0,2.65,0.89,4.86,3.57,4.86c0.89,0,3.57-2.21,3.57-4.86c0-3.54-2.68-4.86-3.57-4.86
			C381.98,926.63,381.09,929.29,381.09,931.5L381.09,931.5z"/>
		<path class="st48" d="M409.65,917.35c0,0,0,0,0.89,0c0-1.33,0-1.33-0.89-2.65c-2.68-0.88-6.25-0.88-9.82,0c0,0-0.89,1.33,0,1.33
			c0,1.33,0,1.33,1.34,1.33c2.23-1.33,4.91-1.33,7.14,0H409.65z"/>
		<path class="st48" d="M390.46,917.35c1.34,0,1.34,0,1.34,0c0-1.33,0-1.33,0-1.33c-3.57-2.21-7.14-2.21-10.71-1.33
			c-1.34,1.33-1.34,1.33-1.34,2.65c1.34,0,1.34,0,2.23,0C384.66,916.02,388.23,916.02,390.46,917.35L390.46,917.35z"/>
		<path class="st48" d="M397.6,960.69c1.34,0,1.34,0,1.34,0c0.89-1.33,0.89-1.33,0.89-1.33c0-1.33-0.89-1.33-0.89-1.33
			c-4.91,0-9.82-2.21-10.71-7.08c0-1.33-1.34-1.33-1.34-1.33c-1.34,0-1.34,1.33-1.34,1.33C388.23,956.71,392.69,960.69,397.6,960.69
			L397.6,960.69z"/>
		<path class="st48" d="M398.94,950.96c0,0,0.89,0,2.23,0c0-1.33,1.34-1.33,1.34-2.65c0-3.54-3.57-16.81-4.91-20.34
			c0,0,0-1.33-1.34,0c0,0-0.89,0,0,1.33c1.34,5.75,3.57,16.81,3.57,18.13c0,0.88,0,0.88,0,0.88c-0.89,1.33-2.23,1.33-2.23,0
			c-1.34,1.33-1.34,1.33-1.34,1.33c0,1.33,0,1.33,1.34,1.33C397.6,950.96,397.6,950.96,398.94,950.96L398.94,950.96z"/>
		<path class="st48" d="M342.71,897c0,0-29.46-9.73-0.89,40.69c2.23,25.21,2.23,25.21,2.23,25.21
			c10.71-14.59,10.71-14.59,10.71-14.59c5.8-11.94,5.8-11.94,5.8-11.94c4.91,11.06,4.91,11.06,4.91,11.06c2.23,0,2.23,0,2.23,0
			c0-27.86,0-27.86,0-27.86s9.82-3.54,9.82-16.81c0,0,43.74,13.27,50.88-2.21c-8.03-11.06-8.03-11.06-8.03-11.06
			c-6.25,2.65-6.25,2.65-6.25,2.65s8.48-7.52,8.48-19.46c-10.71,9.73-10.71,9.73-10.71,9.73s8.48-9.73,0-21.67
			c-12.94,0-12.94,0-12.94,0s-2.68,6.19-14.28,11.94C371.27,878.87,336.9,872.68,342.71,897L342.71,897z"/>
		<path class="st46" d="M361.9,939.9c0,6.19-4.91,11.06-10.71,11.06c-5.8,0-10.71-4.86-10.71-11.06c0-5.75,4.91-10.61,10.71-10.61
			C356.99,929.29,361.9,934.15,361.9,939.9L361.9,939.9z"/>
		<path class="st5" d="M377.52,1027.91c11.6-23,11.6-23,11.6-23c14.28,21.67,14.28,21.67,14.28,21.67s4.91-16.81,4.91-21.67
			c-10.71-16.81-10.71-16.81-10.71-16.81c-8.48,11.94-8.48,11.94-8.48,11.94c-43.74-19.02-43.74-19.02-43.74-19.02
			c-3.57,23.88-3.57,23.88-3.57,23.88L377.52,1027.91z"/>
		<polygon class="st49" points="196.77,1073.46 272.64,1011.1 315.48,1056.66 258.36,1127.42 196.77,1073.46 		"/>
		<path class="st49" d="M271.74,1061.52c-13.39-11.06-15.62-31.4-4.91-44.67c10.71-13.27,30.79-15.48,43.74-4.86
			c13.39,11.06,15.62,31.4,4.91,44.67C304.77,1069.92,284.69,1072.13,271.74,1061.52L271.74,1061.52z"/>
		<path class="st46" d="M564.07,1287.51c0,0,4.91,4.42,5.8,12.83c1.34,9.73,2.68,29.19,7.14,30.07c4.91,1.33,6.25-26.09,6.25-26.09
			s29.46,38.48,34.37,37.15c7.14-1.33-12.94-27.86-12.94-27.86s25.89,24.32,29.46,21.67c4.91-2.21-18.74-26.54-18.74-26.54
			s28.56,20.79,33.03,18.13c3.57-2.21-22.31-23.88-22.31-23.88s23.65,16.81,27.22,13.27c2.23-3.54-55.79-58.82-55.79-58.82
			L564.07,1287.51z"/>
		<path class="st46" d="M560.5,1260.98c-5.8,10.61-2.23,25.21,8.48,30.96c10.71,6.19,24.99,2.65,30.79-8.4
			c5.8-11.94,2.23-25.21-8.48-30.96C580.58,1245.05,566.3,1249.92,560.5,1260.98L560.5,1260.98z"/>
		<path class="st46" d="M202.57,1291.05c0,0-2.23,5.75,1.34,14.15c2.23,8.4,9.37,26.54,5.8,30.07
			c-3.57,3.54-16.51-20.34-16.51-20.34s-8.48,46.88-14.28,48.21c-6.25,2.21-1.34-30.07-1.34-30.07s-12.05,32.28-16.51,32.28
			c-4.91,0,5.8-32.28,5.8-32.28s-16.51,32.28-21.42,32.28c-3.57-1.33,9.37-32.28,9.37-32.28s-14.28,26.54-18.74,25.21
			c-3.57-2.65,22.31-78.28,22.31-78.28L202.57,1291.05z"/>
		<path class="st46" d="M194.09,1265.84c9.82,7.08,13.39,21.67,6.25,30.96c-7.14,11.06-21.42,14.59-32.13,7.52
			c-9.82-7.52-13.39-21.67-6.25-32.73C169.1,1260.98,183.38,1258.32,194.09,1265.84L194.09,1265.84z"/>
		<polygon class="st46" points="233.36,1151.74 203.91,1288.4 158.38,1281.32 171.77,1142.01 233.36,1151.74 		"/>
		<path class="st46" d="M207.48,1116.8c16.51,2.21,28.56,18.13,25.89,34.94c-2.23,17.69-18.74,29.63-35.7,26.09
			c-16.51-2.21-28.56-17.69-25.89-35.82C174,1125.2,190.52,1113.26,207.48,1116.8L207.48,1116.8z"/>
		<path class="st46" d="M184.72,1262.3c12.05,0.88,21.42,12.83,19.19,26.09c-2.68,11.94-13.39,20.34-26.33,19.46
			c-12.05-2.65-20.08-14.59-19.19-26.54C161.06,1268.05,172.67,1259.65,184.72,1262.3L184.72,1262.3z"/>
		<path class="st50" d="M253.45,1873.93c-0.45,1.33-0.45,2.21-0.45,3.1c0,3.98,4.02,7.96,11.6,11.5
			C253.45,1873.93,253.45,1873.93,253.45,1873.93 M459.19,1835.02c-6.25,0.44-12.05,0.88-17.85,1.33c1.34,0.44,3.12,0.88,4.46,1.33
			s2.68,0.88,4.02,0.88C453.39,1838.55,456.07,1837.23,459.19,1835.02"/>
		<path class="st51" d="M459.64,1835.02c-0.45,0-0.45,0-0.45,0c-3.12,2.21-5.8,3.54-9.37,3.54c-1.34,0-2.68-0.44-4.02-0.88
			s-3.12-0.88-4.46-1.33c-1.79,0-3.57,0-4.91,0.44c2.23,1.77,5.36,3.54,8.48,4.42c1.34,0.88,2.68,0.88,3.57,0.88
			c1.34,0,2.68,0,4.02-0.88c2.68-0.44,5.36-1.77,7.59-3.54C460.08,1836.79,459.64,1835.9,459.64,1835.02"/>
		<path class="st52" d="M260.14,1868.19c-3.12,1.77-5.36,3.98-6.69,5.75c11.16,14.59,11.16,14.59,11.16,14.59
			c0.89,0.88,2.23,1.33,3.12,1.77c4.46-5.75,4.46-5.75,4.46-5.75C260.14,1868.19,260.14,1868.19,260.14,1868.19"/>
		<path class="st53" d="M464.99,1840.77c-1.34,0-2.68,0.44-4.02,0.44c0.89,4.42,1.79,8.4,2.68,11.5c0.89,4.42,1.34,7.52,1.79,9.73
			c1.34,3.98,1.34,3.98,1.34,3.98c11.6-1.77,22.31-3.54,31.69-4.86c-3.57-5.75-9.37-11.94-15.17-15.48
			C477.49,1842.98,471.24,1840.77,464.99,1840.77 M555.14,1830.15c-33.92,1.33-66.05,2.65-95.51,4.86c0,0.88,0.45,1.77,0.45,2.65
			s0.45,1.33,0.45,2.21c0-0.44,0-1.33,0-2.21c1.34,0,3.12-0.44,4.46-0.44c6.69,0,13.39,2.21,19.19,5.31
			c7.14,4.42,12.94,10.61,17.85,18.57c88.37-13.71,88.37-13.71,88.37-13.71s-2.68-7.52-20.53-14.59
			C565.41,1831.48,560.5,1830.59,555.14,1830.15"/>
		<path class="st51" d="M464.99,1837.23c-1.34,0-3.12,0.44-4.46,0.44c0,0.88,0,1.77,0,2.21c0,1.33,0,1.33,0,1.33h0.45
			c1.34,0,2.68-0.44,4.02-0.44c6.25,0,12.5,2.21,18.3,5.31c5.8,3.54,11.6,9.73,15.17,15.48l0,0c3.57,0,3.57,0,3.57,0v-0.44
			c-4.91-7.96-10.71-14.15-17.85-18.57C478.38,1839.44,471.69,1837.23,464.99,1837.23"/>
		<path class="st53" d="M308.34,1852.71c-8.48,1.77-16.07,3.54-22.76,5.31c24.99,26.54,24.99,26.54,24.99,26.54s4.91-7.08,0-25.21
			C310.13,1857.13,309.23,1854.92,308.34,1852.71"/>
		<polygon class="st54" points="672.46,1691.48 1062.79,1604.68 1062.79,1416.15 626.37,1383.48 672.46,1691.48 		"/>
		<path class="st55" d="M667.71,1682.4L667.71,1682.4c-0.61,0-1.21,0.45-1.21,0.45c4.85,32.98,4.85,32.98,4.85,32.98
			c0.61,0,1.21,0,1.21,0c407.4-86.75,407.4-86.75,407.4-86.75c7.28-1.36,12.13-8.58,12.13-16.72c0-212.81,0-212.81,0-212.81
			c0-8.58-6.06-16.27-13.94-16.72c-458.93-32.53-458.93-32.53-458.93-32.53c-1.21,0-2.42,0-3.64,0c4.85,33.89,4.85,33.89,4.85,33.89
			c0.61,0,0.61,0,0.61,0c441.96,31.63,441.96,31.63,441.96,31.63c0,182.54,0,182.54,0,182.54L667.71,1682.4z"/>
		<path class="st56" d="M724.74,1789.91c174.95,0,174.95,0,174.95,0c2.23-14.15,8.48-26.09,16.96-32.73c-208.87,0-208.87,0-208.87,0
			C715.81,1763.81,722.06,1775.76,724.74,1789.91L724.74,1789.91z"/>
		<path class="st56" d="M947,1757.18c8.48,6.63,14.73,18.57,16.96,32.73c9.82,0,9.82,0,9.82,0c5.8,0,10.71-7.08,10.71-16.36
			s-4.91-16.36-10.71-16.36H947z"/>
		<path class="st56" d="M677.43,1675.81c-33.92-292.33-33.92-292.33-33.92-292.33c-3.57-33.17-3.57-33.17-3.57-33.17
			c-2.23-18.57-2.23-18.57-2.23-18.57c-0.89-7.52-4.91-12.83-9.37-13.71c-36.6-5.31-36.6-5.31-36.6-5.31
			c-5.8-0.88-11.16,5.75-11.6,15.04c-0.45,8.85,4.02,17.25,9.82,18.13c28.12,3.98,28.12,3.98,28.12,3.98
			c48.2,420.58,48.2,420.58,48.2,420.58c4.91-9.29,12.05-15.92,19.64-18.13c-4.91-44.22-4.91-44.22-4.91-44.22L677.43,1675.81z"/>
		<path class="st56" d="M904.15,1802.73c0,23.44,12.5,42.9,27.67,42.9c15.62,0,27.67-19.46,27.67-42.9
			c0-23.88-12.05-42.9-27.67-42.9C916.65,1759.83,904.15,1778.85,904.15,1802.73L904.15,1802.73z M945.21,1802.73
			c0,11.5-5.8,20.79-13.39,20.79c-7.14,0-13.39-9.29-13.39-20.79c0-11.5,6.25-20.79,13.39-20.79
			C939.41,1781.95,945.21,1791.23,945.21,1802.73L945.21,1802.73z"/>
		<path class="st5" d="M947,1757.18c-4.46-3.98-9.82-5.75-15.17-5.75s-10.71,1.77-15.17,5.75c-8.48,6.63-14.73,18.57-16.96,32.73
			c-0.89,4.42-0.89,8.4-0.89,12.83c0,28.3,14.73,51.3,33.03,51.3s33.47-23,33.47-51.3c0-4.42-0.45-8.4-1.34-12.83
			C961.72,1775.76,955.47,1763.81,947,1757.18L947,1757.18z M931.82,1845.63c-15.17,0-27.67-19.46-27.67-42.9
			c0-23.88,12.5-42.9,27.67-42.9c15.62,0,27.67,19.02,27.67,42.9C959.49,1826.17,947.44,1845.63,931.82,1845.63L931.82,1845.63z"/>
		<path class="st55" d="M918.43,1802.73c0,11.5,6.25,20.79,13.39,20.79c7.59,0,13.39-9.29,13.39-20.79c0-11.5-5.8-20.79-13.39-20.79
			C924.68,1781.95,918.43,1791.23,918.43,1802.73L918.43,1802.73z"/>
		<path class="st56" d="M664.49,1802.73c0,23.44,12.5,42.9,28.12,42.9c15.17,0,27.67-19.46,27.67-42.9c0-23.88-12.5-42.9-27.67-42.9
			C676.98,1759.83,664.49,1778.85,664.49,1802.73L664.49,1802.73z M705.55,1802.73c0,11.5-5.8,20.79-12.94,20.79
			c-7.59,0-13.39-9.29-13.39-20.79c0-11.5,5.8-20.79,13.39-20.79C699.75,1781.95,705.55,1791.23,705.55,1802.73L705.55,1802.73z"/>
		<path class="st5" d="M707.78,1757.18c-4.91-3.98-9.82-5.75-15.17-5.75c-2.23,0-4.46,0-6.69,0.88
			c-7.59,2.21-14.73,8.85-19.64,18.13c-4.46,8.84-7.14,19.9-7.14,32.28c0,28.3,14.73,51.3,33.47,51.3c18.3,0,33.03-23,33.03-51.3
			c0-4.42-0.45-8.4-0.89-12.83C722.06,1775.76,715.81,1763.81,707.78,1757.18L707.78,1757.18z M692.6,1845.63
			c-15.62,0-28.12-19.46-28.12-42.9c0-23.88,12.5-42.9,28.12-42.9c15.17,0,27.67,19.02,27.67,42.9
			C720.28,1826.17,707.78,1845.63,692.6,1845.63L692.6,1845.63z"/>
		<path class="st55" d="M679.22,1802.73c0,11.5,5.8,20.79,13.39,20.79c7.14,0,12.94-9.29,12.94-20.79c0-11.5-5.8-20.79-12.94-20.79
			C685.02,1781.95,679.22,1791.23,679.22,1802.73L679.22,1802.73z"/>
	</g>
</g>
</svg>
