<?xml version="1.0" encoding="utf-8"?>
<!-- Generator: Adobe Illustrator 27.8.1, SVG Export Plug-In . SVG Version: 6.00 Build 0)  -->
<svg version="1.1" id="Layer_1" xmlns="http://www.w3.org/2000/svg" xmlns:xlink="http://www.w3.org/1999/xlink" x="0px" y="0px"
	 viewBox="0 0 1920 1080" style="enable-background:new 0 0 1920 1080;" xml:space="preserve">
<style type="text/css">
	.st0{fill:#F6F0F8;}
	.st1{fill:#333343;}
	.st2{fill:#FFFFFF;}
	.st3{fill:#8282A8;}
	.st4{fill:#5A6E7F;}
	.st5{fill:#5CBFAB;}
	.st6{fill:#97D5C9;}
</style>
<g>
	<g>
		<rect x="-2" y="0" class="st0" width="1922" height="1081"/>
	</g>
	<g>
		<path class="st1" d="M1565.82,212.8h-0.87v-90.44c0-29.99-24.61-54.3-54.97-54.3h-333.22c-30.36,0-54.97,24.31-54.97,54.3v90.44
			h-0.87c-3.96,0-7.18,3.17-7.18,7.09v62.56c0,3.91,3.21,7.09,7.18,7.09h0.87v14.92h-0.87c-3.96,0-7.18,3.17-7.18,7.09v62.56
			c0,3.91,3.21,7.09,7.18,7.09h0.87v547.89c0,29.99,24.61,54.3,54.97,54.3h333.22c30.36,0,54.97-24.31,54.97-54.3V327.91h0.87
			c3.96,0,7.18-3.17,7.18-7.09V219.89C1572.99,215.97,1569.78,212.8,1565.82,212.8z"/>
		<path class="st2" d="M1503.97,971h-316.66c-27.63,0-50.03-22.4-50.03-50.03v-789.9c0-27.63,22.4-50.03,50.03-50.03h316.66
			c27.63,0,50.03,22.4,50.03,50.03v789.9C1554,948.6,1531.6,971,1503.97,971z"/>
	</g>
	<g>
		<g>
			<path class="st3" d="M1316.95,914.59c-3.64,0-6.59,2.92-6.59,6.51c0,3.59,2.96,6.51,6.59,6.51c3.64,0,6.59-2.92,6.59-6.51
				C1323.54,917.51,1320.59,914.59,1316.95,914.59z"/>
			<path class="st3" d="M1343.36,927.71c-3.64,0-6.59-2.92-6.59-6.51c0-3.59,2.96-6.51,6.59-6.51s6.59,2.92,6.59,6.51
				C1349.96,924.79,1347,927.71,1343.36,927.71z M1343.36,916.82c-2.45,0-4.44,1.97-4.44,4.38s1.99,4.38,4.44,4.38
				s4.44-1.97,4.44-4.38S1345.81,916.82,1343.36,916.82z"/>
			<path class="st3" d="M1369.77,927.81c-3.64,0-6.59-2.92-6.59-6.51c0-3.59,2.96-6.51,6.59-6.51c3.64,0,6.59,2.92,6.59,6.51
				C1376.37,924.88,1373.41,927.81,1369.77,927.81z M1369.77,916.91c-2.45,0-4.44,1.97-4.44,4.38s1.99,4.38,4.44,4.38
				c2.45,0,4.44-1.97,4.44-4.38S1372.22,916.91,1369.77,916.91z"/>
		</g>
	</g>
</g>
<g>
	<g>
		<path d="M174.88,326.44v-2.83l5.18-2.02c0.34-0.14,0.61-0.31,0.8-0.51c0.2-0.2,0.3-0.52,0.3-0.95v-32.34h-8.9
			c-0.36,0-0.64,0.09-0.85,0.28c-0.21,0.19-0.36,0.48-0.46,0.88l-1.52,6.58h-4.62v-13.28h43.21v13.28h-4.65l-1.52-6.58
			c-0.08-0.38-0.24-0.67-0.49-0.86c-0.25-0.2-0.51-0.3-0.79-0.3h-8.9v32.34c0,0.44,0.11,0.76,0.34,0.98
			c0.23,0.22,0.48,0.38,0.76,0.48l5.18,2.02v2.83H174.88z"/>
		<path d="M211.81,323.64l3.81-1.64c0.42-0.18,0.71-0.36,0.89-0.54c0.18-0.18,0.27-0.47,0.27-0.86v-35.08c0-0.4-0.11-0.69-0.34-0.88
			c-0.23-0.19-0.5-0.36-0.82-0.52l-4.2-2.23V279h15.4v16.02l-0.33,2.86c1.17-1.77,2.4-3.08,3.69-3.95c1.29-0.86,2.59-1.43,3.9-1.71
			c1.31-0.28,2.56-0.42,3.75-0.42c2.02,0,3.89,0.37,5.6,1.1c1.71,0.73,3.08,1.93,4.12,3.57c1.04,1.65,1.56,3.84,1.56,6.58v17.39
			c0,0.48,0.1,0.81,0.31,1c0.21,0.19,0.48,0.37,0.82,0.55l3.51,1.64v2.8h-18.94v-2.8l3.04-1.64c0.32-0.18,0.6-0.36,0.83-0.55
			c0.24-0.19,0.36-0.52,0.36-1v-13.4c0-1.98-0.16-3.62-0.48-4.9c-0.32-1.28-0.91-2.23-1.77-2.86c-0.86-0.62-2.11-0.94-3.74-0.94
			c-0.93,0-2.02,0.15-3.28,0.45c-1.25,0.3-2.24,1.04-2.98,2.23v19.56c0,0.4,0.1,0.68,0.31,0.83s0.49,0.35,0.85,0.57l2.83,1.64v2.8
			h-19V323.64z"/>
		<path d="M276.15,327.21c-3.38,0-6.4-0.67-9.08-2.01c-2.68-1.34-4.8-3.31-6.36-5.91c-1.56-2.6-2.34-5.77-2.34-9.5
			c0-3.43,0.74-6.51,2.23-9.23c1.49-2.72,3.57-4.87,6.24-6.45c2.67-1.58,5.77-2.37,9.31-2.37c3.35,0,6.22,0.61,8.59,1.83
			c2.37,1.22,4.19,2.84,5.45,4.87c1.26,2.02,1.89,4.26,1.89,6.7c0,0.28-0.02,0.76-0.06,1.46c-0.04,0.7-0.08,1.38-0.12,2.05
			c-0.04,0.68-0.08,1.14-0.12,1.4h-23.64v-4.94h13.7c0-1.85-0.21-3.41-0.63-4.71c-0.42-1.29-1.08-2.28-2-2.96
			c-0.91-0.68-2.13-1.03-3.66-1.03c-1.05,0-2.01,0.21-2.87,0.64c-0.86,0.43-1.61,1.1-2.25,2.02c-0.64,0.92-1.13,2.1-1.47,3.54
			c-0.35,1.44-0.52,3.17-0.52,5.2c0,2.58,0.33,4.81,1,6.7c0.67,1.89,1.84,3.35,3.51,4.38c1.68,1.03,4.04,1.55,7.1,1.55
			c1.55,0,2.96-0.13,4.23-0.4s2.41-0.6,3.42-1c1.01-0.4,1.89-0.77,2.62-1.13H292v4.05c-1.81,1.25-4.1,2.44-6.89,3.56
			C282.31,326.65,279.33,327.21,276.15,327.21z"/>
		<path d="M319.09,324.71v-13.13h4.65l1.49,5.63c0.1,0.38,0.31,0.71,0.64,1.01s0.7,0.58,1.12,0.83c0.52,0.3,1.27,0.67,2.26,1.13
			c0.99,0.46,2.07,0.87,3.23,1.24c1.16,0.37,2.23,0.55,3.2,0.55c2.68,0,4.89-0.54,6.63-1.62c1.74-1.08,2.61-2.57,2.61-4.45
			c0-1.77-0.54-3.02-1.62-3.75c-1.08-0.73-2.54-1.47-4.36-2.2c-1.79-0.69-3.55-1.28-5.29-1.76c-1.74-0.48-3.43-1.02-5.08-1.64
			c-2.52-0.97-4.58-2.4-6.18-4.27c-1.6-1.88-2.4-4.34-2.4-7.4c0-2.8,0.84-5.22,2.52-7.27c1.68-2.04,3.86-3.62,6.55-4.73
			c2.69-1.11,5.55-1.67,8.59-1.67c1.73,0,3.52,0.1,5.37,0.31s3.64,0.47,5.35,0.77c1.71,0.31,3.2,0.6,4.47,0.88v12.77h-4.65
			l-1.52-5.45c-0.1-0.3-0.29-0.59-0.58-0.86c-0.29-0.28-0.56-0.5-0.82-0.66c-0.3-0.18-0.85-0.45-1.67-0.8
			c-0.81-0.36-1.74-0.68-2.77-0.97c-1.03-0.29-2.04-0.43-3.01-0.43c-2.6,0-4.55,0.55-5.85,1.64c-1.3,1.09-1.95,2.28-1.95,3.57
			c0,1.39,0.45,2.56,1.35,3.51c0.9,0.95,2.6,1.84,5.08,2.65c1.65,0.56,3.28,1.07,4.88,1.53c1.61,0.47,3.36,1.08,5.27,1.83
			c1.59,0.62,3.04,1.39,4.36,2.32c1.32,0.93,2.38,2.12,3.19,3.56c0.8,1.44,1.21,3.24,1.21,5.4c0,2.62-0.73,5.05-2.17,7.28
			c-1.45,2.23-3.64,4.03-6.58,5.39s-6.66,2.04-11.17,2.04c-1.47,0-3.16-0.14-5.08-0.43c-1.92-0.29-3.86-0.65-5.84-1.07
			C322.55,325.58,320.74,325.15,319.09,324.71z"/>
		<path d="M360.54,323.64l3.81-1.64c0.42-0.18,0.71-0.36,0.89-0.54c0.18-0.18,0.27-0.47,0.27-0.86v-35.08c0-0.4-0.11-0.69-0.34-0.88
			c-0.23-0.19-0.5-0.36-0.82-0.52l-4.2-2.23V279h15.4v16.02l-0.33,2.86c1.17-1.77,2.4-3.08,3.69-3.95c1.29-0.86,2.59-1.43,3.9-1.71
			c1.31-0.28,2.56-0.42,3.75-0.42c2.02,0,3.89,0.37,5.6,1.1c1.71,0.73,3.08,1.93,4.12,3.57c1.04,1.65,1.56,3.84,1.56,6.58v17.39
			c0,0.48,0.1,0.81,0.31,1c0.21,0.19,0.48,0.37,0.82,0.55l3.51,1.64v2.8h-18.94v-2.8l3.04-1.64c0.32-0.18,0.6-0.36,0.83-0.55
			c0.24-0.19,0.36-0.52,0.36-1v-13.4c0-1.98-0.16-3.62-0.48-4.9c-0.32-1.28-0.91-2.23-1.77-2.86c-0.86-0.62-2.11-0.94-3.74-0.94
			c-0.93,0-2.02,0.15-3.28,0.45c-1.25,0.3-2.24,1.04-2.98,2.23v19.56c0,0.4,0.1,0.68,0.31,0.83s0.49,0.35,0.85,0.57l2.83,1.64v2.8
			h-19V323.64z"/>
		<path d="M425.46,327.27c-3.61,0-6.79-0.69-9.53-2.05c-2.74-1.37-4.87-3.38-6.4-6.02s-2.29-5.86-2.29-9.65
			c0-3.49,0.76-6.58,2.28-9.26c1.52-2.68,3.67-4.77,6.45-6.28c2.78-1.51,6.06-2.26,9.86-2.26c4.11,0,7.51,0.79,10.2,2.38
			c2.69,1.59,4.7,3.72,6.03,6.4c1.33,2.68,2,5.65,2,8.9c0,3.45-0.75,6.53-2.26,9.22c-1.51,2.69-3.65,4.8-6.43,6.33
			S429.27,327.27,425.46,327.27z M425.88,322.48c1.45,0,2.65-0.36,3.6-1.09c0.95-0.72,1.71-1.69,2.26-2.9
			c0.56-1.21,0.95-2.55,1.18-4c0.23-1.46,0.34-2.93,0.34-4.42c0-2.4-0.25-4.62-0.76-6.67c-0.51-2.04-1.34-3.7-2.49-4.96
			c-1.15-1.26-2.69-1.89-4.62-1.89c-1.45,0-2.65,0.36-3.6,1.07c-0.95,0.71-1.71,1.67-2.26,2.86c-0.56,1.19-0.95,2.51-1.18,3.96
			c-0.23,1.45-0.34,2.91-0.34,4.38c0,1.63,0.12,3.25,0.37,4.85c0.25,1.61,0.67,3.08,1.25,4.41c0.58,1.33,1.39,2.4,2.41,3.2
			C423.07,322.07,424.35,322.48,425.88,322.48z"/>
		<path d="M448.92,341.68v-2.77l4.02-1.73c0.36-0.16,0.64-0.32,0.85-0.48c0.21-0.16,0.31-0.45,0.31-0.86v-36.3
			c0-0.42-0.12-0.72-0.36-0.92c-0.24-0.2-0.51-0.36-0.8-0.48l-3.81-1.64v-2.89l14.35-1.55v5.6h0.54c0.93-1.39,2-2.52,3.22-3.38
			c1.21-0.86,2.51-1.49,3.9-1.89c1.39-0.4,2.82-0.6,4.29-0.6c2.82,0,5.23,0.71,7.24,2.13c2,1.42,3.54,3.35,4.62,5.81
			c1.07,2.45,1.61,5.23,1.61,8.32c0,3.44-0.64,6.57-1.91,9.41c-1.27,2.84-3.1,5.1-5.49,6.77c-2.39,1.68-5.29,2.52-8.68,2.52
			c-1.99,0-3.78-0.37-5.39-1.1c-1.61-0.73-2.8-1.59-3.57-2.56l0.3,2.44v10.24c0,0.42,0.11,0.71,0.33,0.88
			c0.22,0.17,0.51,0.32,0.86,0.46l4.85,1.79v2.77H448.92z M464.14,301.09v18.76c0.52,0.36,1.17,0.64,1.97,0.83
			c0.79,0.2,1.58,0.34,2.35,0.43s1.39,0.13,1.85,0.13c1.91,0,3.45-0.51,4.65-1.52c1.19-1.01,2.06-2.36,2.62-4.03
			c0.56-1.68,0.83-3.53,0.83-5.55c0-2.32-0.27-4.41-0.82-6.27c-0.55-1.86-1.41-3.32-2.59-4.41c-1.18-1.08-2.73-1.62-4.66-1.62
			c-1.51,0-2.81,0.37-3.9,1.12C465.34,299.71,464.58,300.42,464.14,301.09z"/>
		<path d="M493.77,341.68v-2.77l4.02-1.73c0.36-0.16,0.64-0.32,0.85-0.48c0.21-0.16,0.31-0.45,0.31-0.86v-36.3
			c0-0.42-0.12-0.72-0.36-0.92c-0.24-0.2-0.51-0.36-0.8-0.48l-3.81-1.64v-2.89l14.35-1.55v5.6h0.54c0.93-1.39,2-2.52,3.22-3.38
			c1.21-0.86,2.51-1.49,3.9-1.89c1.39-0.4,2.82-0.6,4.29-0.6c2.82,0,5.23,0.71,7.24,2.13c2,1.42,3.54,3.35,4.62,5.81
			c1.07,2.45,1.61,5.23,1.61,8.32c0,3.44-0.64,6.57-1.91,9.41s-3.1,5.1-5.49,6.77c-2.39,1.68-5.29,2.52-8.68,2.52
			c-1.99,0-3.78-0.37-5.39-1.1c-1.61-0.73-2.8-1.59-3.57-2.56l0.3,2.44v10.24c0,0.42,0.11,0.71,0.33,0.88
			c0.22,0.17,0.51,0.32,0.86,0.46l4.85,1.79v2.77H493.77z M508.98,301.09v18.76c0.52,0.36,1.17,0.64,1.96,0.83
			c0.79,0.2,1.58,0.34,2.35,0.43s1.39,0.13,1.85,0.13c1.91,0,3.45-0.51,4.64-1.52c1.19-1.01,2.06-2.36,2.62-4.03
			c0.56-1.68,0.83-3.53,0.83-5.55c0-2.32-0.27-4.41-0.82-6.27c-0.55-1.86-1.41-3.32-2.59-4.41c-1.18-1.08-2.73-1.62-4.66-1.62
			c-1.51,0-2.81,0.37-3.9,1.12C510.18,299.71,509.42,300.42,508.98,301.09z"/>
		<path d="M538.97,326.44v-2.8l4.94-1.79c0.38-0.14,0.67-0.31,0.89-0.51s0.33-0.5,0.33-0.89V300.2c0-0.4-0.11-0.69-0.34-0.89
			c-0.23-0.2-0.51-0.37-0.85-0.51l-4.91-1.94v-2.89l16.14-0.62v27.1c0,0.4,0.12,0.71,0.36,0.92s0.51,0.38,0.8,0.48l4.94,1.79v2.8
			H538.97z M549.54,288.92c-1.01,0-2.01-0.24-2.99-0.73c-0.98-0.49-1.8-1.14-2.46-1.97c-0.66-0.82-0.98-1.74-0.98-2.75
			c0-1.65,0.65-2.89,1.95-3.74c1.3-0.84,2.79-1.27,4.48-1.27c1.98,0,3.59,0.38,4.82,1.15c1.23,0.76,1.85,1.92,1.85,3.47
			c0,1.09-0.32,2.08-0.95,2.96c-0.64,0.88-1.46,1.58-2.49,2.1C551.75,288.66,550.67,288.92,549.54,288.92z"/>
		<path d="M565.32,326.44v-2.8l3.87-1.64c0.34-0.18,0.62-0.36,0.83-0.54c0.22-0.18,0.33-0.47,0.33-0.86v-21.05
			c0-0.42-0.12-0.72-0.36-0.91s-0.51-0.35-0.8-0.49l-3.81-1.64v-2.89l14.32-1.55v5.27h0.48c1.31-1.67,2.61-2.89,3.9-3.68
			c1.29-0.78,2.56-1.29,3.81-1.52c1.25-0.23,2.46-0.34,3.63-0.34c2.06,0,3.94,0.39,5.63,1.16c1.69,0.77,3.03,1.99,4.04,3.65
			c1,1.66,1.5,3.81,1.5,6.45v17.39c0,0.48,0.1,0.81,0.31,1c0.21,0.19,0.49,0.37,0.85,0.55l3.39,1.64v2.8h-18.94v-2.8l3.04-1.64
			c0.36-0.2,0.66-0.39,0.89-0.57c0.24-0.18,0.36-0.51,0.36-0.98v-13.4c0-1.87-0.14-3.44-0.43-4.73c-0.29-1.29-0.84-2.27-1.67-2.95
			c-0.82-0.67-2.06-1.01-3.71-1.01c-1.09,0-2.24,0.15-3.45,0.46s-2.2,1.05-2.98,2.22v19.56c0,0.4,0.11,0.68,0.33,0.83
			c0.22,0.16,0.51,0.35,0.86,0.57l2.83,1.64v2.8H565.32z"/>
		<path d="M628.66,314.76c-1.61,0-2.91-0.07-3.92-0.21c-1-0.14-1.77-0.31-2.31-0.51c-0.42,0.2-0.82,0.57-1.22,1.1
			c-0.4,0.54-0.6,1.17-0.6,1.91c0,0.65,0.22,1.17,0.66,1.53c0.44,0.37,0.96,0.68,1.58,0.94h12.51c3.28,0,5.82,0.48,7.64,1.43
			c1.82,0.95,3.09,2.16,3.81,3.62c0.72,1.46,1.09,2.93,1.09,4.42c0,2.52-0.84,4.73-2.53,6.64s-4,3.39-6.95,4.45
			c-2.95,1.06-6.32,1.59-10.11,1.59c-3.26,0-6.17-0.33-8.74-0.98c-2.57-0.66-4.6-1.62-6.09-2.89s-2.23-2.81-2.23-4.62
			c0-2.06,0.72-3.63,2.17-4.71s3.32-1.86,5.6-2.35v-0.54c-0.99-0.22-1.94-0.6-2.83-1.15c-0.89-0.55-1.62-1.24-2.17-2.08
			c-0.56-0.84-0.83-1.8-0.83-2.87c0-1.29,0.34-2.41,1.03-3.35s1.52-1.7,2.52-2.26c0.99-0.57,1.96-0.93,2.89-1.09v-0.42
			c-0.77-0.42-1.64-1.01-2.59-1.77c-0.95-0.76-1.78-1.73-2.47-2.89c-0.7-1.16-1.04-2.54-1.04-4.12c0-2.32,0.62-4.38,1.86-6.16
			s3.01-3.18,5.3-4.18c2.29-1,5.02-1.5,8.17-1.5c1.81,0,3.41,0.11,4.82,0.33c1.41,0.22,2.78,0.43,4.11,0.63h11.76v5.09h-7.38v0.39
			c0.56,0.62,1.05,1.37,1.47,2.25c0.43,0.88,0.64,2.02,0.64,3.41c0,3.18-1.37,5.79-4.11,7.85S633.58,314.76,628.66,314.76z
			 M630,337.22c1.35,0,2.7-0.18,4.04-0.54s2.46-0.98,3.37-1.86c0.9-0.88,1.35-2.13,1.35-3.74c0-1.03-0.43-1.99-1.29-2.87
			c-0.86-0.88-2.25-1.33-4.15-1.33h-10.48c-0.38,0.54-0.75,1.14-1.1,1.82c-0.36,0.67-0.54,1.54-0.54,2.59c0,1.17,0.31,2.14,0.92,2.9
			c0.62,0.76,1.39,1.37,2.34,1.82c0.94,0.45,1.91,0.76,2.9,0.94C628.34,337.13,629.22,337.22,630,337.22z M628.72,311.04
			c1.11,0,2.07-0.26,2.87-0.79c0.8-0.53,1.42-1.35,1.86-2.49c0.44-1.13,0.66-2.61,0.66-4.44c0-2.58-0.49-4.47-1.46-5.67
			c-0.97-1.2-2.25-1.8-3.84-1.8c-0.81,0-1.6,0.23-2.37,0.68c-0.76,0.46-1.38,1.23-1.86,2.31c-0.48,1.08-0.71,2.58-0.71,4.48
			c0,2.74,0.46,4.71,1.37,5.91C626.15,310.44,627.31,311.04,628.72,311.04z"/>
		<path d="M675.11,326.44v-2.83l4.91-2.02c0.32-0.12,0.58-0.28,0.77-0.49s0.3-0.53,0.3-0.97v-31.68c0-0.42-0.11-0.72-0.34-0.91
			c-0.23-0.19-0.47-0.33-0.73-0.43l-4.91-2.02v-2.83h22.81c4.35,0,7.68,0.47,10.01,1.41c2.32,0.94,3.92,2.16,4.79,3.65
			c0.87,1.49,1.31,3.07,1.31,4.73c0,2.82-0.84,5.13-2.52,6.92c-1.68,1.8-3.96,3.04-6.83,3.74v0.39c2.38,0.12,4.5,0.63,6.34,1.52
			c1.85,0.89,3.29,2.1,4.35,3.63c1.05,1.53,1.58,3.33,1.58,5.39c0,2.54-0.5,4.65-1.5,6.31c-1,1.67-2.36,2.97-4.08,3.92
			c-1.72,0.94-3.66,1.61-5.82,2s-4.41,0.58-6.73,0.58H675.11z M691.52,287.84v13.31h3.01c3.26,0,5.5-0.54,6.73-1.62
			c1.23-1.08,1.85-2.57,1.85-4.45c0-2.54-0.59-4.38-1.77-5.52c-1.18-1.14-3.11-1.71-5.79-1.71H691.52z M691.52,306.34v14.5h6.13
			c2.74,0,4.77-0.54,6.09-1.62c1.32-1.08,1.98-2.82,1.98-5.23c0-2.82-0.68-4.8-2.04-5.94c-1.36-1.14-3.73-1.71-7.1-1.71H691.52z"/>
		<path d="M722.43,326.44v-2.8l4.94-1.79c0.38-0.14,0.67-0.31,0.89-0.51s0.33-0.5,0.33-0.89V300.2c0-0.4-0.11-0.69-0.34-0.89
			c-0.23-0.2-0.51-0.37-0.85-0.51l-4.91-1.94v-2.89l16.14-0.62v27.1c0,0.4,0.12,0.71,0.36,0.92s0.51,0.38,0.8,0.48l4.94,1.79v2.8
			H722.43z M733,288.92c-1.01,0-2.01-0.24-2.99-0.73c-0.98-0.49-1.8-1.14-2.46-1.97c-0.66-0.82-0.98-1.74-0.98-2.75
			c0-1.65,0.65-2.89,1.95-3.74c1.3-0.84,2.79-1.27,4.48-1.27c1.98,0,3.59,0.38,4.82,1.15c1.23,0.76,1.85,1.92,1.85,3.47
			c0,1.09-0.32,2.08-0.95,2.96c-0.64,0.88-1.46,1.58-2.49,2.1C735.21,288.66,734.13,288.92,733,288.92z"/>
		<path d="M747.97,326.44v-2.8l4.97-1.79c0.38-0.14,0.67-0.31,0.88-0.51c0.21-0.2,0.31-0.5,0.31-0.89v-34.93
			c0-0.4-0.13-0.7-0.39-0.91c-0.26-0.21-0.53-0.37-0.8-0.49l-5.27-2.23V279h16.47v41.45c0,0.4,0.13,0.71,0.39,0.92
			c0.26,0.22,0.53,0.38,0.8,0.48l4.91,1.79v2.8H747.97z"/>
		<path d="M773.55,326.44v-2.8l4.97-1.79c0.38-0.14,0.67-0.31,0.88-0.51c0.21-0.2,0.31-0.5,0.31-0.89v-34.93
			c0-0.4-0.13-0.7-0.39-0.91c-0.26-0.21-0.53-0.37-0.8-0.49l-5.27-2.23V279h16.47v41.45c0,0.4,0.13,0.71,0.39,0.92
			c0.26,0.22,0.53,0.38,0.8,0.48l4.91,1.79v2.8H773.55z"/>
		<path d="M820.48,326.44v-2.8l4.94-1.79c0.38-0.14,0.67-0.31,0.89-0.51s0.33-0.5,0.33-0.89V300.2c0-0.4-0.11-0.69-0.34-0.89
			c-0.23-0.2-0.51-0.37-0.85-0.51l-4.91-1.94v-2.89l16.14-0.62v27.1c0,0.4,0.12,0.71,0.36,0.92s0.51,0.38,0.8,0.48l4.94,1.79v2.8
			H820.48z M831.05,288.92c-1.01,0-2.01-0.24-2.99-0.73c-0.98-0.49-1.8-1.14-2.46-1.97c-0.66-0.82-0.98-1.74-0.98-2.75
			c0-1.65,0.65-2.89,1.95-3.74c1.3-0.84,2.79-1.27,4.48-1.27c1.98,0,3.59,0.38,4.82,1.15c1.23,0.76,1.85,1.92,1.85,3.47
			c0,1.09-0.32,2.08-0.95,2.96c-0.64,0.88-1.46,1.58-2.49,2.1C833.26,288.66,832.19,288.92,831.05,288.92z"/>
		<path d="M848.06,324.98v-9.2h5.15l0.89,2.74c0.1,0.32,0.26,0.62,0.49,0.91c0.23,0.29,0.45,0.51,0.67,0.67
			c0.83,0.62,1.91,1.19,3.22,1.71c1.31,0.53,2.83,0.79,4.56,0.79c1.03,0,1.97-0.18,2.8-0.54c0.83-0.36,1.5-0.85,2.01-1.49
			c0.51-0.64,0.76-1.38,0.76-2.23c0-1.21-0.41-2.12-1.24-2.74c-0.82-0.62-2.09-1.16-3.8-1.64c-0.97-0.28-2.05-0.56-3.23-0.85
			c-1.18-0.29-2.24-0.56-3.17-0.82c-2.94-0.81-5.11-2.04-6.52-3.69c-1.41-1.65-2.11-3.5-2.11-5.57c0-2.32,0.75-4.33,2.25-6.02
			c1.5-1.69,3.47-2.99,5.93-3.9c2.45-0.91,5.11-1.37,7.96-1.37c2.56,0,4.81,0.15,6.75,0.45c1.94,0.3,3.69,0.67,5.26,1.1v9.32h-5.12
			l-0.89-2.98c-0.12-0.28-0.3-0.54-0.54-0.77c-0.24-0.24-0.47-0.43-0.68-0.57c-0.67-0.46-1.6-0.88-2.77-1.28
			c-1.17-0.4-2.4-0.6-3.69-0.6c-1.51,0-2.67,0.34-3.48,1.03c-0.81,0.69-1.22,1.52-1.22,2.52c0,1.15,0.48,2.11,1.44,2.89
			s2.35,1.41,4.15,1.91c1.03,0.28,2.1,0.56,3.22,0.85c1.11,0.29,2.12,0.57,3.04,0.85c2.78,0.83,4.86,2.02,6.24,3.56
			c1.38,1.54,2.07,3.44,2.07,5.7c0,2.68-0.78,4.87-2.35,6.58c-1.57,1.71-3.6,2.96-6.1,3.77c-2.5,0.8-5.16,1.21-7.98,1.21
			c-2.7,0-5.3-0.25-7.79-0.76C851.71,326,849.66,325.49,848.06,324.98z"/>
		<path d="M166.72,405.38v-9.2h5.15l0.89,2.74c0.1,0.32,0.26,0.62,0.49,0.91c0.23,0.29,0.45,0.51,0.67,0.67
			c0.83,0.62,1.91,1.19,3.22,1.71c1.31,0.53,2.83,0.79,4.56,0.79c1.03,0,1.97-0.18,2.8-0.54c0.83-0.36,1.5-0.85,2.01-1.49
			c0.51-0.64,0.76-1.38,0.76-2.23c0-1.21-0.41-2.12-1.24-2.74c-0.82-0.62-2.09-1.16-3.8-1.64c-0.97-0.28-2.05-0.56-3.23-0.85
			c-1.18-0.29-2.24-0.56-3.17-0.82c-2.94-0.81-5.11-2.04-6.52-3.69c-1.41-1.65-2.11-3.5-2.11-5.57c0-2.32,0.75-4.33,2.25-6.02
			c1.5-1.69,3.47-2.99,5.93-3.9c2.45-0.91,5.11-1.37,7.97-1.37c2.56,0,4.81,0.15,6.74,0.45c1.94,0.3,3.69,0.67,5.26,1.1v9.32h-5.12
			l-0.89-2.98c-0.12-0.28-0.3-0.54-0.54-0.77s-0.47-0.43-0.69-0.57c-0.67-0.46-1.6-0.88-2.77-1.28c-1.17-0.4-2.4-0.6-3.69-0.6
			c-1.51,0-2.67,0.34-3.48,1.03c-0.81,0.69-1.22,1.52-1.22,2.52c0,1.15,0.48,2.11,1.44,2.89c0.96,0.77,2.35,1.41,4.15,1.91
			c1.03,0.28,2.1,0.56,3.22,0.85c1.11,0.29,2.12,0.57,3.04,0.85c2.78,0.83,4.86,2.02,6.24,3.56c1.38,1.54,2.07,3.44,2.07,5.7
			c0,2.68-0.78,4.87-2.35,6.58c-1.57,1.71-3.6,2.96-6.1,3.77c-2.5,0.8-5.16,1.21-7.98,1.21c-2.7,0-5.3-0.25-7.79-0.76
			C170.38,406.4,168.33,405.89,166.72,405.38z"/>
		<path d="M220.47,407.61c-3.38,0-6.4-0.67-9.08-2.01c-2.68-1.34-4.8-3.31-6.36-5.91c-1.56-2.6-2.34-5.77-2.34-9.5
			c0-3.43,0.74-6.51,2.23-9.23c1.49-2.72,3.57-4.87,6.24-6.45c2.67-1.58,5.77-2.37,9.31-2.37c3.35,0,6.22,0.61,8.59,1.83
			c2.37,1.22,4.19,2.84,5.45,4.87c1.26,2.02,1.89,4.26,1.89,6.7c0,0.28-0.02,0.76-0.06,1.46c-0.04,0.7-0.08,1.38-0.12,2.05
			c-0.04,0.68-0.08,1.14-0.12,1.4h-23.64v-4.94h13.7c0-1.85-0.21-3.41-0.63-4.71c-0.42-1.29-1.08-2.28-2-2.96
			c-0.91-0.68-2.13-1.03-3.66-1.03c-1.05,0-2.01,0.21-2.87,0.64c-0.86,0.43-1.61,1.1-2.25,2.02c-0.64,0.92-1.13,2.1-1.47,3.54
			c-0.35,1.44-0.52,3.17-0.52,5.2c0,2.58,0.33,4.81,1,6.7c0.67,1.89,1.84,3.35,3.51,4.38c1.68,1.03,4.04,1.55,7.1,1.55
			c1.55,0,2.96-0.13,4.23-0.4s2.41-0.6,3.42-1c1.01-0.4,1.89-0.77,2.62-1.13h1.67v4.05c-1.81,1.25-4.1,2.44-6.89,3.56
			C226.63,407.05,223.65,407.61,220.47,407.61z"/>
		<path d="M241.49,406.84v-2.8l3.87-1.64c0.34-0.18,0.61-0.36,0.83-0.54c0.22-0.18,0.33-0.47,0.33-0.86v-21.05
			c0-0.42-0.12-0.72-0.36-0.91s-0.51-0.35-0.8-0.49l-3.81-1.64v-2.89l14.32-1.55v5.27h0.48c1.31-1.67,2.61-2.89,3.9-3.68
			c1.29-0.78,2.56-1.29,3.81-1.52c1.25-0.23,2.46-0.34,3.63-0.34c2.06,0,3.94,0.39,5.63,1.16c1.69,0.77,3.03,1.99,4.03,3.65
			s1.5,3.81,1.5,6.45v17.39c0,0.48,0.1,0.81,0.31,1c0.21,0.19,0.49,0.37,0.85,0.55l3.39,1.64v2.8h-18.94v-2.8l3.04-1.64
			c0.36-0.2,0.65-0.39,0.89-0.57c0.24-0.18,0.36-0.51,0.36-0.98v-13.4c0-1.87-0.14-3.44-0.43-4.73c-0.29-1.29-0.84-2.27-1.67-2.95
			s-2.06-1.01-3.71-1.01c-1.09,0-2.24,0.15-3.45,0.46c-1.21,0.31-2.2,1.05-2.98,2.22V401c0,0.4,0.11,0.68,0.33,0.83
			c0.22,0.16,0.51,0.35,0.86,0.57l2.83,1.64v2.8H241.49z"/>
		<path d="M314.09,373.1v5.33h-11.91v18.08c0,0.97,0.35,1.83,1.06,2.56c0.7,0.73,1.53,1.31,2.49,1.71c0.95,0.41,1.78,0.61,2.47,0.61
			c0.64,0,1.46-0.03,2.47-0.09c1.01-0.06,1.77-0.13,2.26-0.21h1.46v3.07c-0.5,0.28-1.33,0.68-2.49,1.19s-2.51,0.98-4.03,1.4
			c-1.53,0.42-3.1,0.63-4.71,0.63c-1.95,0-3.76-0.28-5.43-0.85c-1.68-0.57-3.03-1.37-4.05-2.41c-1.02-1.04-1.53-2.27-1.53-3.68
			v-22.01h-5.45v-4.73c1.21-0.16,2.26-0.33,3.14-0.52s1.58-0.58,2.1-1.18c0.52-0.6,0.81-1.58,0.89-2.95l0.3-4.73l9.05-1.28v10.06
			H314.09z"/>
		<path d="M352.38,407.46c-2.8,0-5.21-0.71-7.22-2.13c-2.02-1.42-3.56-3.36-4.65-5.82s-1.62-5.25-1.62-8.37
			c0-3.47,0.65-6.64,1.97-9.5c1.31-2.86,3.19-5.15,5.63-6.86c2.44-1.72,5.34-2.58,8.69-2.58c2,0,3.75,0.36,5.23,1.09
			c1.48,0.72,2.65,1.58,3.5,2.58l-0.3-2.44v-7.5c0-0.4-0.11-0.69-0.33-0.89c-0.22-0.2-0.49-0.37-0.8-0.51l-5.06-2.23v-2.89h16.2
			v40.59c0,0.4,0.13,0.7,0.39,0.91c0.26,0.21,0.53,0.37,0.8,0.49l3.84,1.64v2.89l-14.38,1.52v-5.69h-0.51
			c-1.23,1.81-2.58,3.11-4.04,3.92c-1.46,0.8-2.85,1.31-4.17,1.5C354.23,407.36,353.18,407.46,352.38,407.46z M357.54,401.48
			c0.6,0,1.28-0.1,2.05-0.31s1.53-0.54,2.26-1c0.73-0.46,1.32-1.04,1.76-1.76v-19.33c-0.44-0.34-1.03-0.6-1.79-0.79
			c-0.75-0.19-1.51-0.33-2.28-0.42c-0.76-0.09-1.38-0.13-1.86-0.13c-1.91,0-3.47,0.51-4.69,1.53c-1.22,1.02-2.12,2.39-2.71,4.09
			c-0.59,1.71-0.88,3.59-0.88,5.66c0,2.34,0.28,4.46,0.83,6.34c0.56,1.89,1.43,3.38,2.62,4.47
			C354.05,400.93,355.61,401.48,357.54,401.48z"/>
		<path d="M382.94,406.84v-2.8l4.94-1.79c0.38-0.14,0.67-0.31,0.89-0.51c0.22-0.2,0.33-0.5,0.33-0.89V380.6
			c0-0.4-0.11-0.69-0.34-0.89c-0.23-0.2-0.51-0.37-0.85-0.51l-4.91-1.94v-2.89l16.14-0.62v27.1c0,0.4,0.12,0.71,0.36,0.92
			c0.24,0.22,0.51,0.38,0.8,0.48l4.94,1.79v2.8H382.94z M393.51,369.32c-1.01,0-2.01-0.24-2.99-0.73c-0.98-0.49-1.8-1.14-2.46-1.97
			c-0.65-0.82-0.98-1.74-0.98-2.75c0-1.65,0.65-2.89,1.95-3.74c1.3-0.84,2.79-1.27,4.48-1.27c1.98,0,3.59,0.38,4.82,1.15
			c1.23,0.76,1.85,1.92,1.85,3.47c0,1.09-0.32,2.08-0.95,2.96c-0.64,0.88-1.46,1.58-2.49,2.1
			C395.71,369.06,394.64,369.32,393.51,369.32z"/>
		<path d="M409.5,406.84v-2.8l3.84-1.64c0.34-0.16,0.61-0.33,0.83-0.52c0.22-0.19,0.33-0.48,0.33-0.88v-19.56
			c0-0.93-0.05-1.55-0.16-1.86c-0.11-0.31-0.39-0.56-0.85-0.76l-4.29-1.91v-2.89l14.83-1.55v6.94h0.39
			c1.31-2.08,2.57-3.64,3.78-4.68c1.21-1.03,2.38-1.71,3.51-2.04c1.13-0.33,2.21-0.49,3.25-0.49c0.97,0,1.96,0.12,2.95,0.36
			c0.99,0.24,1.94,0.69,2.83,1.34v10.45h-7.38l-0.89-2.23c-0.14-0.34-0.45-0.73-0.94-1.18c-0.49-0.45-1.07-0.67-1.74-0.67
			c-0.64,0-1.24,0.08-1.8,0.25c-0.57,0.17-1.13,0.46-1.68,0.88c-0.56,0.42-1.15,0.98-1.79,1.7V401c0,0.68,0.39,1.14,1.16,1.4
			l5.21,1.64v2.8H409.5z"/>
		<path d="M462.71,407.61c-3.38,0-6.4-0.67-9.08-2.01c-2.68-1.34-4.8-3.31-6.36-5.91c-1.56-2.6-2.34-5.77-2.34-9.5
			c0-3.43,0.74-6.51,2.23-9.23c1.49-2.72,3.57-4.87,6.24-6.45c2.67-1.58,5.77-2.37,9.31-2.37c3.35,0,6.22,0.61,8.59,1.83
			c2.37,1.22,4.19,2.84,5.45,4.87c1.26,2.02,1.89,4.26,1.89,6.7c0,0.28-0.02,0.76-0.06,1.46c-0.04,0.7-0.08,1.38-0.12,2.05
			c-0.04,0.68-0.08,1.14-0.12,1.4H454.7v-4.94h13.7c0-1.85-0.21-3.41-0.63-4.71c-0.42-1.29-1.08-2.28-2-2.96
			c-0.91-0.68-2.13-1.03-3.66-1.03c-1.05,0-2.01,0.21-2.87,0.64c-0.86,0.43-1.61,1.1-2.25,2.02c-0.64,0.92-1.13,2.1-1.47,3.54
			c-0.35,1.44-0.52,3.17-0.52,5.2c0,2.58,0.33,4.81,1,6.7c0.67,1.89,1.84,3.35,3.51,4.38c1.68,1.03,4.04,1.55,7.1,1.55
			c1.55,0,2.96-0.13,4.23-0.4s2.41-0.6,3.42-1c1.01-0.4,1.89-0.77,2.62-1.13h1.67v4.05c-1.81,1.25-4.1,2.44-6.89,3.56
			C468.87,407.05,465.89,407.61,462.71,407.61z"/>
		<path d="M512.88,398.08h1.67v4.35c-1.71,1.25-3.66,2.43-5.85,3.53s-4.83,1.65-7.91,1.65c-3.5,0-6.49-0.73-8.99-2.2
			c-2.5-1.47-4.41-3.5-5.73-6.1c-1.32-2.6-1.98-5.6-1.98-8.99c0-2.72,0.55-5.19,1.64-7.4c1.09-2.21,2.56-4.12,4.39-5.72
			c1.84-1.6,3.88-2.83,6.13-3.69c2.25-0.86,4.53-1.29,6.83-1.29c1.75,0,3.28,0.16,4.6,0.48c1.32,0.32,2.45,0.68,3.38,1.09
			c0.93,0.41,1.68,0.73,2.23,0.97v8.49h-2.32c-1.07-0.69-2.27-1.47-3.6-2.32c-1.33-0.85-2.69-1.59-4.09-2.22
			c-1.4-0.63-2.76-0.94-4.09-0.94c-0.48,0-0.91,0.1-1.29,0.3c-0.39,0.2-0.75,0.53-1.09,0.98c-0.34,0.46-0.69,1.16-1.06,2.1
			c-0.37,0.94-0.68,2.09-0.92,3.45c-0.25,1.36-0.37,2.9-0.37,4.63c0,3.75,0.87,6.63,2.62,8.64c1.75,2.01,4.25,3.01,7.5,3.01
			c1.03,0,2.04-0.13,3.04-0.39c0.99-0.26,1.94-0.6,2.83-1.01S512.15,398.58,512.88,398.08z"/>
		<path d="M544.8,373.1v5.33h-11.91v18.08c0,0.97,0.35,1.83,1.06,2.56c0.7,0.73,1.53,1.31,2.49,1.71s1.78,0.61,2.47,0.61
			c0.63,0,1.46-0.03,2.47-0.09c1.01-0.06,1.77-0.13,2.26-0.21h1.46v3.07c-0.5,0.28-1.33,0.68-2.49,1.19s-2.51,0.98-4.04,1.4
			s-3.1,0.63-4.71,0.63c-1.95,0-3.76-0.28-5.43-0.85c-1.68-0.57-3.03-1.37-4.05-2.41c-1.02-1.04-1.53-2.27-1.53-3.68v-22.01h-5.45
			v-4.73c1.21-0.16,2.26-0.33,3.14-0.52c0.88-0.19,1.58-0.58,2.1-1.18c0.52-0.6,0.81-1.58,0.89-2.95l0.3-4.73l9.05-1.28v10.06H544.8
			z"/>
		<path d="M547.72,406.84v-2.8l4.97-1.79c0.38-0.14,0.67-0.31,0.88-0.51c0.21-0.2,0.31-0.5,0.31-0.89v-34.93
			c0-0.4-0.13-0.7-0.39-0.91c-0.26-0.21-0.53-0.37-0.8-0.49l-5.27-2.23v-2.89h16.47v41.45c0,0.4,0.13,0.71,0.39,0.92
			c0.26,0.22,0.53,0.38,0.8,0.48l4.91,1.79v2.8H547.72z"/>
		<path d="M574.1,421.16v-8.28h2.53c0.48,0.14,1.16,0.29,2.04,0.46c0.88,0.17,1.8,0.33,2.75,0.49c0.95,0.16,1.8,0.28,2.55,0.37
			c0.74,0.09,1.22,0.13,1.41,0.13c0.28,0,0.62-0.02,1.04-0.06c0.42-0.04,0.69-0.12,0.8-0.24c0.3-0.3,0.62-0.69,0.98-1.18
			s0.75-1.15,1.18-2s0.91-1.95,1.44-3.32l-3.66-5.3l-10.69-23.82c-0.16-0.38-0.36-0.66-0.61-0.86c-0.25-0.2-0.52-0.37-0.82-0.51
			l-2.83-1.22v-2.74h19v2.74l-4.56,1.64l6.61,14.59l1.49,4.29h0.71l7.15-17.75l-4.38-2.77v-2.74h14.17v2.74l-2.83,2.11
			c-0.28,0.2-0.56,0.42-0.83,0.65c-0.28,0.24-0.48,0.51-0.6,0.8l-13.22,32.67c-1.15,2.82-2.49,4.95-4,6.39
			c-1.52,1.44-3.13,2.4-4.82,2.89c-1.7,0.49-3.38,0.73-5.05,0.73c-0.28,0-0.91-0.05-1.89-0.15c-0.98-0.1-1.98-0.22-2.99-0.37
			S574.48,421.28,574.1,421.16z"/>
		<path d="M662.63,373.1v5.33h-11.91v18.08c0,0.97,0.35,1.83,1.06,2.56c0.7,0.73,1.53,1.31,2.49,1.71s1.78,0.61,2.47,0.61
			c0.63,0,1.46-0.03,2.47-0.09c1.01-0.06,1.77-0.13,2.26-0.21h1.46v3.07c-0.5,0.28-1.33,0.68-2.49,1.19s-2.51,0.98-4.04,1.4
			s-3.1,0.63-4.71,0.63c-1.95,0-3.76-0.28-5.43-0.85c-1.68-0.57-3.03-1.37-4.05-2.41c-1.02-1.04-1.53-2.27-1.53-3.68v-22.01h-5.45
			v-4.73c1.21-0.16,2.26-0.33,3.14-0.52c0.88-0.19,1.58-0.58,2.1-1.18c0.52-0.6,0.81-1.58,0.89-2.95l0.3-4.73l9.05-1.28v10.06
			H662.63z"/>
		<path d="M684.96,407.67c-3.61,0-6.79-0.69-9.53-2.05c-2.74-1.37-4.87-3.38-6.4-6.02c-1.53-2.64-2.29-5.86-2.29-9.65
			c0-3.49,0.76-6.58,2.28-9.26c1.52-2.68,3.67-4.77,6.45-6.28c2.78-1.51,6.06-2.26,9.86-2.26c4.11,0,7.51,0.79,10.2,2.38
			c2.69,1.59,4.7,3.72,6.03,6.4c1.33,2.68,2,5.65,2,8.9c0,3.45-0.75,6.53-2.26,9.22c-1.51,2.69-3.65,4.8-6.43,6.33
			C692.07,406.9,688.78,407.67,684.96,407.67z M685.38,402.88c1.45,0,2.65-0.36,3.6-1.09c0.95-0.72,1.71-1.69,2.26-2.9
			c0.56-1.21,0.95-2.55,1.18-4c0.23-1.46,0.34-2.93,0.34-4.42c0-2.4-0.25-4.62-0.76-6.67c-0.51-2.04-1.34-3.7-2.49-4.96
			s-2.69-1.89-4.62-1.89c-1.45,0-2.65,0.36-3.6,1.07c-0.95,0.71-1.71,1.67-2.26,2.86c-0.56,1.19-0.95,2.51-1.18,3.96
			c-0.23,1.45-0.34,2.91-0.34,4.38c0,1.63,0.12,3.25,0.37,4.85c0.25,1.61,0.67,3.08,1.25,4.41c0.58,1.33,1.39,2.4,2.41,3.2
			C682.58,402.47,683.85,402.88,685.38,402.88z"/>
		<path d="M729.63,421.16v-8.28h2.53c0.48,0.14,1.16,0.29,2.04,0.46c0.88,0.17,1.8,0.33,2.75,0.49c0.95,0.16,1.8,0.28,2.55,0.37
			c0.74,0.09,1.22,0.13,1.41,0.13c0.28,0,0.62-0.02,1.04-0.06c0.42-0.04,0.69-0.12,0.8-0.24c0.3-0.3,0.62-0.69,0.98-1.18
			s0.75-1.15,1.18-2s0.91-1.95,1.44-3.32l-3.66-5.3l-10.69-23.82c-0.16-0.38-0.36-0.66-0.61-0.86c-0.25-0.2-0.52-0.37-0.82-0.51
			l-2.83-1.22v-2.74h19v2.74l-4.56,1.64l6.61,14.59l1.49,4.29h0.71l7.15-17.75l-4.38-2.77v-2.74h14.17v2.74l-2.83,2.11
			c-0.28,0.2-0.56,0.42-0.83,0.65c-0.28,0.24-0.48,0.51-0.6,0.8l-13.22,32.67c-1.15,2.82-2.49,4.95-4,6.39
			c-1.52,1.44-3.13,2.4-4.82,2.89c-1.7,0.49-3.38,0.73-5.05,0.73c-0.28,0-0.91-0.05-1.89-0.15c-0.98-0.1-1.98-0.22-2.99-0.37
			S730.01,421.28,729.63,421.16z"/>
		<path d="M789.84,407.67c-3.61,0-6.79-0.69-9.53-2.05c-2.74-1.37-4.87-3.38-6.4-6.02c-1.53-2.64-2.29-5.86-2.29-9.65
			c0-3.49,0.76-6.58,2.28-9.26c1.52-2.68,3.67-4.77,6.45-6.28c2.78-1.51,6.06-2.26,9.86-2.26c4.11,0,7.51,0.79,10.2,2.38
			c2.69,1.59,4.7,3.72,6.03,6.4c1.33,2.68,2,5.65,2,8.9c0,3.45-0.75,6.53-2.26,9.22c-1.51,2.69-3.65,4.8-6.43,6.33
			C796.95,406.9,793.65,407.67,789.84,407.67z M790.26,402.88c1.45,0,2.65-0.36,3.6-1.09c0.95-0.72,1.71-1.69,2.26-2.9
			c0.56-1.21,0.95-2.55,1.18-4c0.23-1.46,0.34-2.93,0.34-4.42c0-2.4-0.25-4.62-0.76-6.67c-0.51-2.04-1.34-3.7-2.49-4.96
			s-2.69-1.89-4.62-1.89c-1.45,0-2.65,0.36-3.6,1.07c-0.95,0.71-1.71,1.67-2.26,2.86c-0.56,1.19-0.95,2.51-1.18,3.96
			c-0.23,1.45-0.34,2.91-0.34,4.38c0,1.63,0.12,3.25,0.37,4.85c0.25,1.61,0.67,3.08,1.25,4.41c0.58,1.33,1.39,2.4,2.41,3.2
			C787.45,402.47,788.73,402.88,790.26,402.88z"/>
		<path d="M828.76,407.46c-2.03,0-3.87-0.38-5.52-1.15c-1.66-0.76-2.98-1.98-3.98-3.63c-0.99-1.66-1.49-3.81-1.49-6.45v-16.29
			c0-0.42-0.12-0.72-0.36-0.92c-0.24-0.2-0.5-0.36-0.77-0.48l-3.84-1.64v-2.89l15.04-1.55v19.8c0,1.83,0.13,3.39,0.4,4.69
			s0.81,2.29,1.62,2.96c0.81,0.67,2.03,1.01,3.66,1.01c1.73,0,3.09-0.23,4.08-0.69c0.99-0.46,1.77-1.11,2.32-1.97v-18.34
			c0-0.42-0.11-0.72-0.34-0.91c-0.23-0.19-0.51-0.35-0.85-0.49l-3.78-1.64v-2.89l15.01-1.55v27.51c0,0.42,0.11,0.72,0.34,0.91
			c0.23,0.19,0.5,0.35,0.82,0.49l3.81,1.64v2.89l-14.32,1.52v-5.54h-0.45c-1.31,1.63-2.8,2.96-4.48,4S831.7,407.46,828.76,407.46z"
			/>
		<path d="M859.58,406.84v-2.8l3.84-1.64c0.34-0.16,0.62-0.33,0.83-0.52c0.22-0.19,0.33-0.48,0.33-0.88v-19.56
			c0-0.93-0.06-1.55-0.16-1.86c-0.11-0.31-0.39-0.56-0.85-0.76l-4.29-1.91v-2.89l14.83-1.55v6.94h0.39
			c1.31-2.08,2.57-3.64,3.78-4.68c1.21-1.03,2.38-1.71,3.51-2.04s2.21-0.49,3.25-0.49c0.97,0,1.96,0.12,2.95,0.36
			c0.99,0.24,1.94,0.69,2.83,1.34v10.45h-7.38l-0.89-2.23c-0.14-0.34-0.45-0.73-0.94-1.18c-0.49-0.45-1.07-0.67-1.74-0.67
			c-0.64,0-1.24,0.08-1.8,0.25c-0.57,0.17-1.13,0.46-1.68,0.88c-0.56,0.42-1.15,0.98-1.79,1.7V401c0,0.68,0.39,1.14,1.16,1.4
			l5.21,1.64v2.8H859.58z"/>
		<path d="M166.39,487.24v-2.83l4.91-2.02c0.36-0.16,0.62-0.33,0.8-0.52c0.18-0.19,0.27-0.5,0.27-0.94v-31.68
			c0-0.42-0.1-0.71-0.3-0.89s-0.46-0.33-0.77-0.45l-4.91-2.02v-2.83h22.51c3.18,0,6.05,0.44,8.64,1.33
			c2.58,0.88,4.64,2.27,6.18,4.17c1.54,1.9,2.31,4.37,2.31,7.43c0,3.22-0.67,5.99-2,8.31c-1.33,2.32-3.17,4.11-5.52,5.37
			c-2.35,1.26-5.05,1.89-8.08,1.89c-1.09,0-2.44-0.23-4.03-0.7c-1.6-0.47-2.86-1.04-3.8-1.71v-3.96c0.54,0.2,1.33,0.35,2.37,0.45
			c1.04,0.1,2.01,0.15,2.9,0.15c1.53,0,2.76-0.3,3.69-0.91c0.93-0.61,1.65-1.36,2.14-2.28s0.83-1.83,1.01-2.75
			c0.18-0.92,0.27-1.7,0.27-2.34c0-1.55-0.26-3-0.77-4.35c-0.52-1.35-1.4-2.44-2.65-3.26c-1.25-0.82-3-1.24-5.24-1.24h-3.42v32.28
			c0,0.44,0.11,0.76,0.34,0.97c0.23,0.21,0.49,0.37,0.79,0.49l5.15,2.02v2.83H166.39z"/>
		<path d="M210.5,484.44l3.81-1.64c0.42-0.18,0.71-0.36,0.89-0.54c0.18-0.18,0.27-0.47,0.27-0.86v-35.08c0-0.4-0.11-0.69-0.34-0.88
			c-0.23-0.19-0.5-0.36-0.82-0.52l-4.2-2.23v-2.89h15.4v16.02l-0.33,2.86c1.17-1.77,2.4-3.08,3.69-3.95
			c1.29-0.86,2.59-1.43,3.9-1.71c1.31-0.28,2.56-0.42,3.75-0.42c2.02,0,3.89,0.37,5.6,1.1c1.71,0.73,3.08,1.93,4.12,3.57
			c1.04,1.65,1.56,3.84,1.56,6.58v17.39c0,0.48,0.1,0.81,0.31,1c0.21,0.19,0.48,0.37,0.82,0.55l3.51,1.64v2.8h-18.94v-2.8l3.04-1.64
			c0.32-0.18,0.6-0.36,0.83-0.55c0.24-0.19,0.36-0.52,0.36-1v-13.4c0-1.98-0.16-3.62-0.48-4.9c-0.32-1.28-0.91-2.23-1.77-2.86
			c-0.86-0.62-2.11-0.94-3.74-0.94c-0.93,0-2.02,0.15-3.28,0.45c-1.25,0.3-2.24,1.04-2.98,2.23v19.56c0,0.4,0.1,0.68,0.31,0.83
			s0.49,0.35,0.85,0.57l2.83,1.64v2.8h-19V484.44z"/>
		<path d="M275.41,488.07c-3.61,0-6.79-0.69-9.53-2.05c-2.74-1.37-4.87-3.38-6.4-6.02s-2.29-5.86-2.29-9.65
			c0-3.49,0.76-6.58,2.28-9.26c1.52-2.68,3.67-4.77,6.45-6.28c2.78-1.51,6.06-2.26,9.86-2.26c4.11,0,7.51,0.79,10.2,2.38
			c2.69,1.59,4.7,3.72,6.03,6.4c1.33,2.68,2,5.65,2,8.9c0,3.45-0.75,6.53-2.26,9.22c-1.51,2.69-3.65,4.8-6.43,6.33
			S279.22,488.07,275.41,488.07z M275.83,483.27c1.45,0,2.65-0.36,3.6-1.09c0.95-0.72,1.71-1.69,2.26-2.9
			c0.56-1.21,0.95-2.55,1.18-4c0.23-1.46,0.34-2.93,0.34-4.42c0-2.4-0.25-4.62-0.76-6.67c-0.51-2.04-1.34-3.7-2.49-4.96
			c-1.15-1.26-2.69-1.89-4.62-1.89c-1.45,0-2.65,0.36-3.6,1.07c-0.95,0.71-1.71,1.67-2.26,2.86c-0.56,1.19-0.95,2.51-1.18,3.96
			c-0.23,1.45-0.34,2.91-0.34,4.38c0,1.63,0.12,3.25,0.37,4.85c0.25,1.61,0.67,3.08,1.25,4.41c0.58,1.33,1.39,2.4,2.41,3.2
			C273.02,482.87,274.3,483.27,275.83,483.27z"/>
		<path d="M299.38,487.24v-2.8l3.87-1.64c0.34-0.18,0.61-0.36,0.83-0.54c0.22-0.18,0.33-0.47,0.33-0.86v-21.05
			c0-0.42-0.12-0.72-0.36-0.91s-0.51-0.35-0.8-0.49l-3.81-1.64v-2.89l14.32-1.55v5.27h0.48c1.31-1.67,2.61-2.89,3.9-3.68
			c1.29-0.78,2.56-1.29,3.81-1.52c1.25-0.23,2.46-0.34,3.63-0.34c2.06,0,3.94,0.39,5.63,1.16c1.69,0.77,3.03,1.99,4.03,3.65
			s1.5,3.81,1.5,6.45v17.39c0,0.48,0.1,0.81,0.31,1c0.21,0.19,0.49,0.37,0.85,0.55l3.39,1.64v2.8h-18.94v-2.8l3.04-1.64
			c0.36-0.2,0.65-0.39,0.89-0.57c0.24-0.18,0.36-0.51,0.36-0.98v-13.4c0-1.87-0.14-3.44-0.43-4.73c-0.29-1.29-0.84-2.27-1.67-2.95
			s-2.06-1.01-3.71-1.01c-1.09,0-2.24,0.15-3.45,0.46c-1.21,0.31-2.2,1.05-2.98,2.22v19.56c0,0.4,0.11,0.68,0.33,0.83
			c0.22,0.16,0.51,0.35,0.86,0.57l2.83,1.64v2.8H299.38z"/>
		<path d="M363.79,488.01c-3.38,0-6.4-0.67-9.08-2.01c-2.68-1.34-4.8-3.31-6.36-5.91c-1.56-2.6-2.34-5.77-2.34-9.5
			c0-3.43,0.74-6.51,2.23-9.23c1.49-2.72,3.57-4.87,6.24-6.45c2.67-1.58,5.77-2.37,9.31-2.37c3.35,0,6.22,0.61,8.59,1.83
			c2.37,1.22,4.19,2.84,5.45,4.87c1.26,2.02,1.89,4.26,1.89,6.7c0,0.28-0.02,0.76-0.06,1.46c-0.04,0.7-0.08,1.38-0.12,2.05
			c-0.04,0.68-0.08,1.14-0.12,1.4h-23.64v-4.94h13.7c0-1.85-0.21-3.41-0.63-4.71c-0.42-1.29-1.08-2.28-2-2.96
			c-0.91-0.68-2.13-1.03-3.66-1.03c-1.05,0-2.01,0.21-2.87,0.64c-0.86,0.43-1.61,1.1-2.25,2.02c-0.64,0.92-1.13,2.1-1.47,3.54
			c-0.35,1.44-0.52,3.17-0.52,5.2c0,2.58,0.33,4.81,1,6.7c0.67,1.89,1.84,3.35,3.51,4.38c1.68,1.03,4.04,1.55,7.1,1.55
			c1.55,0,2.96-0.13,4.23-0.4s2.41-0.6,3.42-1c1.01-0.4,1.89-0.77,2.62-1.13h1.67v4.05c-1.81,1.25-4.1,2.44-6.89,3.56
			C369.95,487.45,366.97,488.01,363.79,488.01z"/>
		<path d="M387.67,481.7c0-1.77,0.61-3.27,1.83-4.5c1.22-1.23,2.72-1.85,4.51-1.85c1.77,0,3.27,0.62,4.51,1.85
			c1.24,1.23,1.86,2.74,1.86,4.53s-0.62,3.28-1.86,4.48s-2.74,1.8-4.51,1.8c-1.79,0-3.29-0.6-4.51-1.8
			C388.28,485.01,387.67,483.5,387.67,481.7z"/>
		<path d="M174.88,648.04v-2.83l5.18-2.02c0.34-0.14,0.61-0.31,0.8-0.51c0.2-0.2,0.3-0.52,0.3-0.95v-32.34h-8.9
			c-0.36,0-0.64,0.09-0.85,0.28s-0.36,0.48-0.46,0.88l-1.52,6.58h-4.62v-13.28h43.21v13.28h-4.65l-1.52-6.58
			c-0.08-0.38-0.24-0.67-0.49-0.86c-0.25-0.2-0.51-0.3-0.79-0.3h-8.9v32.34c0,0.44,0.11,0.76,0.34,0.98
			c0.23,0.22,0.48,0.38,0.76,0.48l5.18,2.02v2.83H174.88z"/>
		<path d="M211.81,645.24l3.81-1.64c0.42-0.18,0.71-0.36,0.89-0.54s0.27-0.47,0.27-0.86v-35.08c0-0.4-0.11-0.69-0.34-0.88
			c-0.23-0.19-0.5-0.36-0.82-0.52l-4.2-2.23v-2.89h15.4v16.02l-0.33,2.86c1.17-1.77,2.4-3.08,3.69-3.95
			c1.29-0.86,2.59-1.43,3.9-1.71c1.31-0.28,2.56-0.42,3.75-0.42c2.02,0,3.89,0.37,5.6,1.1c1.71,0.73,3.08,1.93,4.12,3.57
			c1.04,1.65,1.56,3.84,1.56,6.58v17.39c0,0.48,0.1,0.81,0.31,1c0.21,0.19,0.48,0.37,0.82,0.55l3.51,1.64v2.8h-18.94v-2.8l3.04-1.64
			c0.32-0.18,0.6-0.36,0.83-0.55s0.36-0.52,0.36-1v-13.4c0-1.99-0.16-3.62-0.48-4.9c-0.32-1.28-0.91-2.23-1.77-2.86
			c-0.86-0.62-2.11-0.94-3.74-0.94c-0.93,0-2.02,0.15-3.28,0.45c-1.25,0.3-2.24,1.04-2.98,2.23v19.56c0,0.4,0.1,0.67,0.31,0.83
			c0.21,0.16,0.49,0.35,0.85,0.57l2.83,1.64v2.8h-19V645.24z"/>
		<path d="M276.15,648.81c-3.38,0-6.4-0.67-9.08-2.01c-2.68-1.34-4.8-3.31-6.36-5.91c-1.56-2.6-2.34-5.77-2.34-9.5
			c0-3.43,0.74-6.51,2.23-9.23c1.49-2.72,3.57-4.87,6.24-6.45c2.67-1.58,5.77-2.37,9.31-2.37c3.35,0,6.22,0.61,8.59,1.83
			c2.37,1.22,4.19,2.84,5.45,4.87c1.26,2.03,1.89,4.26,1.89,6.7c0,0.28-0.02,0.76-0.06,1.46c-0.04,0.7-0.08,1.38-0.12,2.05
			c-0.04,0.68-0.08,1.14-0.12,1.4h-23.64v-4.94h13.7c0-1.85-0.21-3.41-0.63-4.71c-0.42-1.29-1.08-2.28-2-2.96
			c-0.91-0.68-2.13-1.03-3.66-1.03c-1.05,0-2.01,0.21-2.87,0.64c-0.86,0.43-1.61,1.1-2.25,2.03s-1.13,2.1-1.47,3.54
			c-0.35,1.44-0.52,3.17-0.52,5.2c0,2.58,0.33,4.81,1,6.7c0.67,1.89,1.84,3.35,3.51,4.38c1.68,1.03,4.04,1.55,7.1,1.55
			c1.55,0,2.96-0.13,4.23-0.4c1.27-0.27,2.41-0.6,3.42-1c1.01-0.4,1.89-0.77,2.62-1.13H292v4.05c-1.81,1.25-4.1,2.44-6.89,3.56
			C282.31,648.25,279.33,648.81,276.15,648.81z"/>
		<path d="M355.72,637.82h2.47v4.53c-1.19,0.97-2.67,1.97-4.42,2.99s-3.69,1.89-5.81,2.59c-2.11,0.7-4.33,1.06-6.66,1.06
			c-4.59,0-8.6-0.92-12.05-2.75c-3.44-1.84-6.12-4.47-8.04-7.89c-1.92-3.42-2.87-7.53-2.87-12.31c0-4.72,0.99-8.82,2.98-12.28
			c1.98-3.46,4.72-6.14,8.2-8.04c3.48-1.9,7.47-2.84,11.96-2.84c1.63,0,3.44,0.13,5.45,0.39c2,0.26,3.94,0.56,5.81,0.91
			c1.87,0.35,3.4,0.66,4.62,0.94v12.48h-4.59l-1.55-5.9c-0.06-0.24-0.25-0.49-0.58-0.76c-0.33-0.27-0.6-0.46-0.82-0.58
			c-1.03-0.58-2.08-1.06-3.16-1.46c-1.07-0.4-2.3-0.6-3.69-0.6c-4.03,0-7.26,1.33-9.68,4c-2.42,2.67-3.63,6.75-3.63,12.25
			c0,5.74,1.33,10.09,3.98,13.07c2.65,2.98,6.25,4.47,10.79,4.47c1.79,0,3.4-0.24,4.84-0.73s2.7-1.06,3.78-1.73
			S355.02,638.36,355.72,637.82z"/>
		<path d="M362.93,645.24l3.81-1.64c0.42-0.18,0.71-0.36,0.89-0.54s0.27-0.47,0.27-0.86v-35.08c0-0.4-0.11-0.69-0.34-0.88
			c-0.23-0.19-0.5-0.36-0.82-0.52l-4.2-2.23v-2.89h15.4v16.02l-0.33,2.86c1.17-1.77,2.4-3.08,3.69-3.95
			c1.29-0.86,2.59-1.43,3.9-1.71c1.31-0.28,2.56-0.42,3.75-0.42c2.02,0,3.89,0.37,5.6,1.1c1.71,0.73,3.08,1.93,4.12,3.57
			c1.04,1.65,1.56,3.84,1.56,6.58v17.39c0,0.48,0.1,0.81,0.31,1c0.21,0.19,0.48,0.37,0.82,0.55l3.51,1.64v2.8h-18.94v-2.8l3.04-1.64
			c0.32-0.18,0.6-0.36,0.83-0.55s0.36-0.52,0.36-1v-13.4c0-1.99-0.16-3.62-0.48-4.9c-0.32-1.28-0.91-2.23-1.77-2.86
			c-0.86-0.62-2.11-0.94-3.74-0.94c-0.93,0-2.02,0.15-3.28,0.45c-1.25,0.3-2.24,1.04-2.98,2.23v19.56c0,0.4,0.1,0.67,0.31,0.83
			c0.21,0.16,0.49,0.35,0.85,0.57l2.83,1.64v2.8h-19V645.24z"/>
		<path d="M427.28,648.81c-3.38,0-6.4-0.67-9.08-2.01c-2.68-1.34-4.8-3.31-6.36-5.91c-1.56-2.6-2.34-5.77-2.34-9.5
			c0-3.43,0.74-6.51,2.23-9.23c1.49-2.72,3.57-4.87,6.24-6.45c2.67-1.58,5.77-2.37,9.31-2.37c3.35,0,6.22,0.61,8.59,1.83
			c2.37,1.22,4.19,2.84,5.45,4.87c1.26,2.03,1.89,4.26,1.89,6.7c0,0.28-0.02,0.76-0.06,1.46c-0.04,0.7-0.08,1.38-0.12,2.05
			c-0.04,0.68-0.08,1.14-0.12,1.4h-23.64v-4.94h13.7c0-1.85-0.21-3.41-0.63-4.71c-0.42-1.29-1.08-2.28-2-2.96
			c-0.91-0.68-2.13-1.03-3.66-1.03c-1.05,0-2.01,0.21-2.87,0.64c-0.86,0.43-1.61,1.1-2.25,2.03s-1.13,2.1-1.47,3.54
			c-0.35,1.44-0.52,3.17-0.52,5.2c0,2.58,0.33,4.81,1,6.7c0.67,1.89,1.84,3.35,3.51,4.38c1.68,1.03,4.04,1.55,7.1,1.55
			c1.55,0,2.96-0.13,4.23-0.4c1.27-0.27,2.41-0.6,3.42-1c1.01-0.4,1.89-0.77,2.62-1.13h1.67v4.05c-1.81,1.25-4.1,2.44-6.89,3.56
			C433.43,648.25,430.45,648.81,427.28,648.81z"/>
		<path d="M477.45,639.28h1.67v4.35c-1.71,1.25-3.66,2.43-5.85,3.53c-2.19,1.1-4.83,1.65-7.91,1.65c-3.49,0-6.49-0.73-8.99-2.2
			c-2.5-1.47-4.41-3.5-5.73-6.1c-1.32-2.6-1.98-5.6-1.98-8.99c0-2.72,0.55-5.19,1.64-7.4c1.09-2.21,2.56-4.12,4.39-5.72
			c1.84-1.6,3.88-2.83,6.13-3.69c2.25-0.86,4.53-1.29,6.83-1.29c1.75,0,3.28,0.16,4.6,0.48c1.32,0.32,2.45,0.68,3.38,1.09
			c0.93,0.41,1.68,0.73,2.23,0.97v8.49h-2.32c-1.07-0.7-2.27-1.47-3.6-2.32c-1.33-0.85-2.69-1.59-4.09-2.22
			c-1.4-0.63-2.76-0.94-4.09-0.94c-0.48,0-0.91,0.1-1.3,0.3s-0.75,0.53-1.09,0.98c-0.34,0.46-0.69,1.16-1.06,2.1
			c-0.37,0.94-0.68,2.09-0.92,3.45c-0.25,1.36-0.37,2.9-0.37,4.63c0,3.75,0.87,6.63,2.62,8.64c1.75,2,4.25,3.01,7.5,3.01
			c1.03,0,2.04-0.13,3.04-0.39c0.99-0.26,1.94-0.6,2.83-1.01C475.9,640.23,476.72,639.78,477.45,639.28z"/>
		<path d="M482.6,648.04v-2.8l3.81-1.64c0.38-0.16,0.67-0.33,0.88-0.52c0.21-0.19,0.31-0.48,0.31-0.88v-34.93
			c0-0.42-0.11-0.74-0.34-0.97c-0.23-0.23-0.5-0.42-0.82-0.58l-4.17-2.23v-2.89h15.37v30.55l11.91-11.88l-3.48-2.23v-2.74h15.84
			v2.74l-3.93,1.76c-0.42,0.18-0.81,0.38-1.18,0.61s-0.76,0.52-1.18,0.88l-7.21,6.34l10.57,15.87c0.22,0.32,0.53,0.6,0.94,0.85
			c0.41,0.25,0.76,0.44,1.06,0.58l3.1,1.31v2.8h-17.39v-2.8l1.64-1.46l-7.24-10.9l-3.57,1.25v8.07c0,0.4,0.11,0.69,0.33,0.88
			c0.22,0.19,0.49,0.36,0.8,0.52l3.19,1.64v2.8H482.6z"/>
		<path d="M545.22,648.87c-3.61,0-6.79-0.68-9.53-2.05c-2.74-1.37-4.87-3.38-6.4-6.01c-1.53-2.64-2.29-5.86-2.29-9.65
			c0-3.49,0.76-6.58,2.28-9.26c1.52-2.68,3.67-4.77,6.45-6.28s6.06-2.26,9.86-2.26c4.11,0,7.51,0.79,10.2,2.38
			c2.69,1.59,4.7,3.72,6.03,6.4s2,5.65,2,8.9c0,3.45-0.75,6.53-2.26,9.22c-1.51,2.69-3.65,4.8-6.43,6.33
			C552.33,648.1,549.03,648.87,545.22,648.87z M545.64,644.08c1.45,0,2.65-0.36,3.6-1.09c0.95-0.72,1.71-1.69,2.26-2.9
			s0.95-2.55,1.18-4c0.23-1.46,0.34-2.93,0.34-4.42c0-2.4-0.25-4.62-0.76-6.67c-0.51-2.04-1.34-3.7-2.49-4.96s-2.69-1.89-4.62-1.89
			c-1.45,0-2.65,0.36-3.6,1.07c-0.95,0.71-1.71,1.67-2.26,2.86s-0.95,2.51-1.18,3.96c-0.23,1.45-0.34,2.91-0.34,4.38
			c0,1.63,0.12,3.25,0.37,4.85s0.67,3.08,1.25,4.41c0.58,1.33,1.39,2.4,2.41,3.2S544.11,644.08,545.64,644.08z"/>
		<path d="M584.14,648.66c-2.03,0-3.87-0.38-5.52-1.15c-1.66-0.76-2.98-1.98-3.98-3.63c-0.99-1.66-1.49-3.81-1.49-6.45v-16.29
			c0-0.42-0.12-0.72-0.36-0.92c-0.24-0.2-0.5-0.36-0.77-0.48l-3.84-1.64v-2.89l15.04-1.55v19.8c0,1.83,0.13,3.39,0.4,4.69
			c0.27,1.3,0.81,2.29,1.62,2.96c0.81,0.67,2.03,1.01,3.66,1.01c1.73,0,3.09-0.23,4.08-0.69c0.99-0.46,1.77-1.11,2.32-1.96v-18.34
			c0-0.42-0.11-0.72-0.34-0.91c-0.23-0.19-0.51-0.35-0.85-0.49l-3.78-1.64v-2.89l15.01-1.55v27.51c0,0.42,0.11,0.72,0.34,0.91
			c0.23,0.19,0.5,0.35,0.82,0.49l3.81,1.64v2.89l-14.32,1.52v-5.54h-0.45c-1.31,1.63-2.8,2.96-4.48,4S587.08,648.66,584.14,648.66z"
			/>
		<path d="M640.99,614.3v5.33h-11.91v18.08c0,0.97,0.35,1.83,1.06,2.56c0.7,0.73,1.53,1.31,2.49,1.71c0.95,0.41,1.78,0.61,2.47,0.61
			c0.63,0,1.46-0.03,2.47-0.09c1.01-0.06,1.77-0.13,2.26-0.21h1.46v3.07c-0.5,0.28-1.33,0.67-2.49,1.19
			c-1.16,0.52-2.51,0.98-4.04,1.4s-3.1,0.62-4.71,0.62c-1.95,0-3.76-0.28-5.43-0.85c-1.68-0.57-3.03-1.37-4.05-2.41
			c-1.02-1.04-1.53-2.27-1.53-3.68v-22.01h-5.45v-4.73c1.21-0.16,2.26-0.33,3.14-0.52c0.88-0.19,1.58-0.58,2.1-1.18
			c0.52-0.6,0.81-1.58,0.89-2.95l0.3-4.73l9.05-1.28v10.06H640.99z"/>
		<path d="M664.9,663.28v-2.77l4.02-1.73c0.36-0.16,0.64-0.32,0.85-0.48c0.21-0.16,0.31-0.45,0.31-0.86v-36.3
			c0-0.42-0.12-0.72-0.36-0.92c-0.24-0.2-0.51-0.36-0.8-0.48l-3.81-1.64v-2.89l14.35-1.55v5.6h0.54c0.93-1.39,2-2.52,3.22-3.38
			c1.21-0.86,2.51-1.49,3.9-1.89c1.39-0.4,2.82-0.59,4.29-0.59c2.82,0,5.23,0.71,7.24,2.13c2,1.42,3.54,3.35,4.62,5.81
			c1.07,2.45,1.61,5.23,1.61,8.32c0,3.44-0.64,6.57-1.91,9.41s-3.1,5.1-5.49,6.77c-2.39,1.68-5.29,2.52-8.68,2.52
			c-1.99,0-3.78-0.37-5.39-1.1c-1.61-0.73-2.8-1.59-3.57-2.56l0.3,2.44v10.24c0,0.42,0.11,0.71,0.33,0.88s0.51,0.32,0.86,0.46
			l4.85,1.79v2.77H664.9z M680.11,622.69v18.76c0.52,0.36,1.17,0.64,1.96,0.83c0.79,0.2,1.58,0.34,2.35,0.43
			c0.77,0.09,1.39,0.13,1.85,0.13c1.91,0,3.45-0.51,4.64-1.52c1.19-1.01,2.06-2.36,2.62-4.03c0.56-1.68,0.83-3.53,0.83-5.55
			c0-2.32-0.27-4.41-0.82-6.27c-0.55-1.86-1.41-3.32-2.59-4.41c-1.18-1.08-2.73-1.62-4.66-1.62c-1.51,0-2.81,0.37-3.9,1.12
			C681.31,621.31,680.55,622.02,680.11,622.69z"/>
		<path d="M710.46,648.04v-2.8l3.84-1.64c0.34-0.16,0.62-0.33,0.83-0.52c0.22-0.19,0.33-0.48,0.33-0.88v-19.56
			c0-0.93-0.06-1.55-0.16-1.86c-0.11-0.31-0.39-0.56-0.85-0.76l-4.29-1.91v-2.89l14.83-1.55v6.94h0.39
			c1.31-2.08,2.57-3.64,3.78-4.68c1.21-1.03,2.38-1.71,3.51-2.04c1.13-0.33,2.21-0.49,3.25-0.49c0.97,0,1.96,0.12,2.95,0.36
			c0.99,0.24,1.94,0.69,2.83,1.34v10.45h-7.38l-0.89-2.23c-0.14-0.34-0.45-0.73-0.94-1.18s-1.07-0.67-1.74-0.67
			c-0.64,0-1.24,0.08-1.8,0.25c-0.57,0.17-1.13,0.46-1.68,0.88c-0.56,0.42-1.15,0.98-1.79,1.7v17.9c0,0.67,0.39,1.14,1.16,1.4
			l5.21,1.64v2.8H710.46z"/>
		<path d="M764.23,648.87c-3.61,0-6.79-0.68-9.53-2.05c-2.74-1.37-4.87-3.38-6.4-6.01c-1.53-2.64-2.29-5.86-2.29-9.65
			c0-3.49,0.76-6.58,2.28-9.26c1.52-2.68,3.67-4.77,6.45-6.28s6.06-2.26,9.86-2.26c4.11,0,7.51,0.79,10.2,2.38
			c2.69,1.59,4.7,3.72,6.03,6.4s2,5.65,2,8.9c0,3.45-0.75,6.53-2.26,9.22c-1.51,2.69-3.65,4.8-6.43,6.33
			C771.34,648.1,768.05,648.87,764.23,648.87z M764.65,644.08c1.45,0,2.65-0.36,3.6-1.09c0.95-0.72,1.71-1.69,2.26-2.9
			s0.95-2.55,1.18-4c0.23-1.46,0.34-2.93,0.34-4.42c0-2.4-0.25-4.62-0.76-6.67c-0.51-2.04-1.34-3.7-2.49-4.96s-2.69-1.89-4.62-1.89
			c-1.45,0-2.65,0.36-3.6,1.07c-0.95,0.71-1.71,1.67-2.26,2.86s-0.95,2.51-1.18,3.96c-0.23,1.45-0.34,2.91-0.34,4.38
			c0,1.63,0.12,3.25,0.37,4.85s0.67,3.08,1.25,4.41c0.58,1.33,1.39,2.4,2.41,3.2S763.12,644.08,764.65,644.08z"/>
		<path d="M817.36,639.28h1.67v4.35c-1.71,1.25-3.66,2.43-5.85,3.53s-4.83,1.65-7.91,1.65c-3.5,0-6.49-0.73-8.99-2.2
			c-2.5-1.47-4.41-3.5-5.73-6.1s-1.98-5.6-1.98-8.99c0-2.72,0.55-5.19,1.64-7.4c1.09-2.21,2.56-4.12,4.39-5.72
			c1.84-1.6,3.88-2.83,6.13-3.69s4.53-1.29,6.83-1.29c1.75,0,3.28,0.16,4.6,0.48c1.32,0.32,2.45,0.68,3.38,1.09
			c0.93,0.41,1.68,0.73,2.23,0.97v8.49h-2.32c-1.07-0.7-2.27-1.47-3.6-2.32c-1.33-0.85-2.69-1.59-4.09-2.22
			c-1.4-0.63-2.76-0.94-4.09-0.94c-0.48,0-0.91,0.1-1.29,0.3c-0.39,0.2-0.75,0.53-1.09,0.98c-0.34,0.46-0.69,1.16-1.06,2.1
			c-0.37,0.94-0.67,2.09-0.92,3.45c-0.25,1.36-0.37,2.9-0.37,4.63c0,3.75,0.87,6.63,2.62,8.64s4.25,3.01,7.5,3.01
			c1.03,0,2.04-0.13,3.04-0.39c0.99-0.26,1.94-0.6,2.83-1.01S816.62,639.78,817.36,639.28z"/>
		<path d="M841.09,648.81c-3.38,0-6.4-0.67-9.08-2.01c-2.68-1.34-4.8-3.31-6.36-5.91s-2.34-5.77-2.34-9.5
			c0-3.43,0.74-6.51,2.23-9.23c1.49-2.72,3.57-4.87,6.24-6.45s5.77-2.37,9.31-2.37c3.35,0,6.22,0.61,8.59,1.83
			c2.37,1.22,4.19,2.84,5.45,4.87c1.26,2.03,1.89,4.26,1.89,6.7c0,0.28-0.02,0.76-0.06,1.46c-0.04,0.7-0.08,1.38-0.12,2.05
			c-0.04,0.68-0.08,1.14-0.12,1.4h-23.64v-4.94h13.7c0-1.85-0.21-3.41-0.62-4.71c-0.42-1.29-1.08-2.28-2-2.96
			c-0.91-0.68-2.13-1.03-3.66-1.03c-1.05,0-2.01,0.21-2.87,0.64c-0.86,0.43-1.61,1.1-2.25,2.03s-1.13,2.1-1.47,3.54
			c-0.35,1.44-0.52,3.17-0.52,5.2c0,2.58,0.33,4.81,1,6.7c0.67,1.89,1.84,3.35,3.51,4.38c1.68,1.03,4.04,1.55,7.1,1.55
			c1.55,0,2.96-0.13,4.23-0.4c1.27-0.27,2.41-0.6,3.42-1c1.01-0.4,1.89-0.77,2.62-1.13h1.67v4.05c-1.81,1.25-4.1,2.44-6.89,3.56
			C847.25,648.25,844.26,648.81,841.09,648.81z"/>
		<path d="M863.33,646.58v-9.2h5.15l0.89,2.74c0.1,0.32,0.26,0.62,0.49,0.91c0.23,0.29,0.45,0.51,0.67,0.67
			c0.83,0.62,1.91,1.19,3.22,1.71s2.83,0.79,4.56,0.79c1.03,0,1.97-0.18,2.8-0.54c0.83-0.36,1.5-0.85,2.01-1.49
			c0.51-0.63,0.76-1.38,0.76-2.23c0-1.21-0.41-2.12-1.24-2.74c-0.82-0.62-2.09-1.16-3.8-1.64c-0.97-0.28-2.05-0.56-3.23-0.85
			c-1.18-0.29-2.24-0.56-3.17-0.82c-2.94-0.81-5.11-2.04-6.52-3.69c-1.41-1.65-2.11-3.5-2.11-5.57c0-2.32,0.75-4.33,2.25-6.01
			c1.5-1.69,3.47-2.99,5.93-3.9c2.45-0.91,5.11-1.37,7.96-1.37c2.56,0,4.81,0.15,6.75,0.45s3.69,0.67,5.26,1.1v9.32h-5.12
			l-0.89-2.98c-0.12-0.28-0.3-0.54-0.54-0.77c-0.24-0.24-0.47-0.43-0.68-0.57c-0.67-0.46-1.6-0.88-2.77-1.28
			c-1.17-0.4-2.4-0.6-3.69-0.6c-1.51,0-2.67,0.34-3.48,1.03c-0.81,0.68-1.22,1.52-1.22,2.52c0,1.15,0.48,2.11,1.44,2.89
			s2.35,1.41,4.15,1.91c1.03,0.28,2.1,0.56,3.22,0.85s2.12,0.57,3.04,0.85c2.78,0.83,4.86,2.02,6.24,3.56
			c1.38,1.54,2.07,3.44,2.07,5.7c0,2.68-0.78,4.87-2.35,6.58s-3.6,2.96-6.1,3.77s-5.16,1.21-7.98,1.21c-2.7,0-5.3-0.25-7.79-0.76
			C866.99,647.6,864.94,647.09,863.33,646.58z"/>
		<path d="M900.26,646.58v-9.2h5.15l0.89,2.74c0.1,0.32,0.26,0.62,0.49,0.91c0.23,0.29,0.45,0.51,0.67,0.67
			c0.83,0.62,1.91,1.19,3.22,1.71s2.83,0.79,4.56,0.79c1.03,0,1.97-0.18,2.8-0.54c0.83-0.36,1.5-0.85,2.01-1.49
			c0.51-0.63,0.76-1.38,0.76-2.23c0-1.21-0.41-2.12-1.24-2.74c-0.82-0.62-2.09-1.16-3.8-1.64c-0.97-0.28-2.05-0.56-3.23-0.85
			c-1.18-0.29-2.24-0.56-3.17-0.82c-2.94-0.81-5.11-2.04-6.52-3.69c-1.41-1.65-2.11-3.5-2.11-5.57c0-2.32,0.75-4.33,2.25-6.01
			c1.5-1.69,3.47-2.99,5.93-3.9c2.45-0.91,5.11-1.37,7.96-1.37c2.56,0,4.81,0.15,6.75,0.45s3.69,0.67,5.26,1.1v9.32h-5.12
			l-0.89-2.98c-0.12-0.28-0.3-0.54-0.54-0.77c-0.24-0.24-0.47-0.43-0.68-0.57c-0.67-0.46-1.6-0.88-2.77-1.28
			c-1.17-0.4-2.4-0.6-3.69-0.6c-1.51,0-2.67,0.34-3.48,1.03c-0.81,0.68-1.22,1.52-1.22,2.52c0,1.15,0.48,2.11,1.44,2.89
			s2.35,1.41,4.15,1.91c1.03,0.28,2.1,0.56,3.22,0.85s2.12,0.57,3.04,0.85c2.78,0.83,4.86,2.02,6.24,3.56
			c1.38,1.54,2.07,3.44,2.07,5.7c0,2.68-0.78,4.87-2.35,6.58s-3.6,2.96-6.1,3.77s-5.16,1.21-7.98,1.21c-2.7,0-5.3-0.25-7.79-0.76
			C903.91,647.6,901.86,647.09,900.26,646.58z"/>
		<path d="M165.35,728.44v-2.8l4.94-1.79c0.38-0.14,0.67-0.31,0.89-0.51c0.22-0.2,0.33-0.5,0.33-0.89V702.2
			c0-0.4-0.11-0.69-0.34-0.89c-0.23-0.2-0.51-0.37-0.85-0.51l-4.91-1.94v-2.89l16.14-0.62v27.1c0,0.4,0.12,0.71,0.36,0.92
			c0.24,0.22,0.51,0.38,0.8,0.48l4.94,1.79v2.8H165.35z M175.92,690.92c-1.01,0-2.01-0.24-2.99-0.73c-0.98-0.49-1.8-1.14-2.46-1.96
			c-0.65-0.82-0.98-1.74-0.98-2.75c0-1.65,0.65-2.89,1.95-3.74c1.3-0.84,2.79-1.27,4.48-1.27c1.98,0,3.59,0.38,4.82,1.15
			c1.23,0.76,1.85,1.92,1.85,3.47c0,1.09-0.32,2.08-0.95,2.96c-0.64,0.88-1.46,1.58-2.49,2.1
			C178.13,690.66,177.06,690.92,175.92,690.92z"/>
		<path d="M192.93,726.98v-9.2h5.15l0.89,2.74c0.1,0.32,0.26,0.62,0.49,0.91c0.23,0.29,0.45,0.51,0.67,0.67
			c0.83,0.62,1.91,1.19,3.22,1.71c1.31,0.53,2.83,0.79,4.56,0.79c1.03,0,1.97-0.18,2.8-0.54c0.83-0.36,1.5-0.85,2.01-1.49
			c0.51-0.64,0.76-1.38,0.76-2.23c0-1.21-0.41-2.12-1.24-2.74c-0.82-0.62-2.09-1.16-3.8-1.64c-0.97-0.28-2.05-0.56-3.23-0.85
			c-1.18-0.29-2.24-0.56-3.17-0.82c-2.94-0.81-5.11-2.04-6.52-3.69c-1.41-1.65-2.11-3.5-2.11-5.57c0-2.32,0.75-4.33,2.25-6.02
			c1.5-1.69,3.47-2.99,5.93-3.9c2.45-0.91,5.11-1.37,7.97-1.37c2.56,0,4.81,0.15,6.74,0.45c1.94,0.3,3.69,0.67,5.26,1.1v9.32h-5.12
			l-0.89-2.98c-0.12-0.28-0.3-0.54-0.54-0.77s-0.47-0.43-0.69-0.57c-0.67-0.46-1.6-0.88-2.77-1.28c-1.17-0.4-2.4-0.6-3.69-0.6
			c-1.51,0-2.67,0.34-3.48,1.03c-0.81,0.69-1.22,1.52-1.22,2.52c0,1.15,0.48,2.11,1.44,2.89c0.96,0.77,2.35,1.41,4.15,1.91
			c1.03,0.28,2.1,0.56,3.22,0.85c1.11,0.29,2.12,0.57,3.04,0.85c2.78,0.83,4.86,2.02,6.24,3.56c1.38,1.54,2.07,3.44,2.07,5.7
			c0,2.68-0.78,4.87-2.35,6.58c-1.57,1.71-3.6,2.96-6.1,3.77c-2.5,0.8-5.16,1.21-7.98,1.21c-2.7,0-5.3-0.25-7.79-0.76
			S194.53,727.49,192.93,726.98z"/>
		<path d="M287.17,718.22h2.47v4.53c-1.19,0.97-2.67,1.97-4.42,2.99s-3.69,1.89-5.81,2.59s-4.33,1.06-6.66,1.06
			c-4.59,0-8.6-0.92-12.05-2.75s-6.12-4.47-8.04-7.89c-1.92-3.42-2.87-7.53-2.87-12.31c0-4.72,0.99-8.82,2.98-12.28
			c1.98-3.46,4.72-6.14,8.2-8.04c3.48-1.9,7.47-2.84,11.96-2.84c1.63,0,3.44,0.13,5.45,0.39c2,0.26,3.94,0.56,5.81,0.91
			c1.87,0.35,3.4,0.66,4.62,0.94v12.48h-4.59l-1.55-5.9c-0.06-0.24-0.25-0.49-0.58-0.76c-0.33-0.27-0.6-0.46-0.82-0.58
			c-1.03-0.58-2.08-1.06-3.16-1.46c-1.07-0.4-2.3-0.6-3.69-0.6c-4.03,0-7.26,1.34-9.68,4.01c-2.42,2.67-3.63,6.75-3.63,12.25
			c0,5.74,1.33,10.09,3.98,13.07c2.65,2.98,6.25,4.47,10.79,4.47c1.79,0,3.4-0.24,4.84-0.73c1.44-0.49,2.7-1.06,3.78-1.73
			S286.48,718.76,287.17,718.22z"/>
		<path d="M313.49,729.27c-3.61,0-6.79-0.69-9.53-2.05c-2.74-1.37-4.87-3.38-6.4-6.02c-1.53-2.64-2.29-5.86-2.29-9.65
			c0-3.49,0.76-6.58,2.28-9.26c1.52-2.68,3.67-4.77,6.45-6.28c2.78-1.51,6.06-2.26,9.86-2.26c4.11,0,7.51,0.79,10.2,2.38
			c2.69,1.59,4.7,3.72,6.03,6.4c1.33,2.68,2,5.65,2,8.9c0,3.45-0.75,6.53-2.26,9.22c-1.51,2.69-3.65,4.8-6.43,6.33
			S317.31,729.27,313.49,729.27z M313.91,724.47c1.45,0,2.65-0.36,3.6-1.09c0.95-0.72,1.71-1.69,2.26-2.9
			c0.56-1.21,0.95-2.55,1.18-4c0.23-1.46,0.34-2.93,0.34-4.42c0-2.4-0.25-4.62-0.76-6.67s-1.34-3.7-2.49-4.96
			c-1.15-1.26-2.69-1.89-4.62-1.89c-1.45,0-2.65,0.36-3.6,1.07c-0.95,0.71-1.71,1.67-2.26,2.86c-0.56,1.19-0.95,2.51-1.18,3.96
			s-0.34,2.91-0.34,4.38c0,1.63,0.12,3.25,0.37,4.85c0.25,1.61,0.67,3.08,1.25,4.41c0.58,1.33,1.39,2.4,2.41,3.2
			C311.11,724.07,312.38,724.47,313.91,724.47z"/>
		<path d="M360.1,728.44v-2.8l2.95-1.64c0.34-0.2,0.62-0.39,0.85-0.57c0.23-0.18,0.34-0.51,0.34-0.98v-13.4
			c0-1.87-0.14-3.44-0.42-4.73c-0.28-1.29-0.81-2.27-1.59-2.95c-0.78-0.67-1.95-1.01-3.5-1.01c-1.07,0-2.19,0.15-3.36,0.45
			c-1.17,0.3-2.12,1.04-2.86,2.23v19.56c0,0.4,0.11,0.68,0.34,0.85c0.23,0.17,0.5,0.35,0.82,0.55l2.8,1.64v2.8H337.5v-2.8l3.84-1.64
			c0.3-0.16,0.57-0.33,0.8-0.52s0.36-0.48,0.36-0.88v-21.05c0-0.42-0.12-0.72-0.37-0.92c-0.25-0.2-0.51-0.36-0.79-0.48l-3.84-1.64
			v-2.89l14.35-1.55v5.27h0.48c1.89-2.42,3.75-3.95,5.6-4.59s3.58-0.95,5.21-0.95c1.39,0,2.75,0.2,4.09,0.61
			c1.34,0.41,2.55,1.13,3.62,2.16c1.07,1.03,1.89,2.48,2.44,4.35l0.42,0.86v20.67c0,0.48,0.1,0.8,0.31,0.97s0.49,0.36,0.85,0.58
			l2.71,1.64v2.8H360.1z M381.15,728.44v-2.8l3.1-1.64c0.34-0.2,0.62-0.39,0.85-0.57c0.23-0.18,0.34-0.51,0.34-0.98v-13.4
			c0-1.87-0.14-3.44-0.42-4.73c-0.28-1.29-0.82-2.27-1.62-2.95s-2-1.01-3.59-1.01c-1.01,0-2.14,0.17-3.38,0.52
			c-1.24,0.35-2.24,1.26-2.99,2.72l-0.89-2.86c1.67-2.18,3.19-3.76,4.57-4.74c1.38-0.97,2.67-1.58,3.89-1.83
			c1.21-0.25,2.38-0.37,3.51-0.37c1.98,0,3.81,0.39,5.46,1.16c1.66,0.77,2.99,1.99,4,3.65c1.01,1.66,1.52,3.81,1.52,6.45v17.39
			c0,0.48,0.11,0.81,0.33,1c0.22,0.19,0.5,0.37,0.83,0.55l3.42,1.64v2.8H381.15z"/>
		<path d="M404.02,743.68v-2.77l4.02-1.73c0.36-0.16,0.64-0.32,0.85-0.48c0.21-0.16,0.31-0.45,0.31-0.86v-36.3
			c0-0.42-0.12-0.72-0.36-0.92c-0.24-0.2-0.51-0.36-0.8-0.48l-3.81-1.64v-2.89l14.35-1.55v5.6h0.54c0.93-1.39,2-2.52,3.22-3.38
			c1.21-0.86,2.51-1.49,3.9-1.89c1.39-0.4,2.82-0.6,4.29-0.6c2.82,0,5.23,0.71,7.24,2.13c2,1.42,3.54,3.36,4.62,5.81
			c1.07,2.45,1.61,5.23,1.61,8.32c0,3.43-0.64,6.57-1.91,9.41c-1.27,2.84-3.1,5.1-5.49,6.77c-2.39,1.68-5.29,2.52-8.68,2.52
			c-1.99,0-3.78-0.37-5.39-1.1c-1.61-0.73-2.8-1.59-3.57-2.56l0.3,2.44v10.24c0,0.42,0.11,0.71,0.33,0.88
			c0.22,0.17,0.51,0.32,0.86,0.46l4.85,1.79v2.77H404.02z M419.23,703.09v18.76c0.52,0.36,1.17,0.64,1.97,0.83s1.58,0.34,2.35,0.43
			c0.77,0.09,1.39,0.13,1.85,0.13c1.91,0,3.45-0.51,4.65-1.52c1.19-1.01,2.06-2.36,2.62-4.04c0.56-1.68,0.83-3.53,0.83-5.55
			c0-2.32-0.27-4.41-0.82-6.27c-0.55-1.86-1.41-3.33-2.59-4.41s-2.73-1.62-4.66-1.62c-1.51,0-2.81,0.37-3.9,1.12
			C420.44,701.71,419.67,702.42,419.23,703.09z"/>
		<path d="M448.56,728.44v-2.8l4.97-1.79c0.38-0.14,0.67-0.31,0.88-0.51s0.31-0.5,0.31-0.89v-34.93c0-0.4-0.13-0.7-0.39-0.91
			c-0.26-0.21-0.53-0.37-0.8-0.49l-5.27-2.23V681h16.47v41.45c0,0.4,0.13,0.71,0.39,0.92c0.26,0.22,0.53,0.38,0.8,0.48l4.91,1.79
			v2.8H448.56z"/>
		<path d="M492.99,729.21c-3.38,0-6.4-0.67-9.08-2.01c-2.68-1.34-4.8-3.31-6.36-5.91c-1.56-2.6-2.34-5.77-2.34-9.5
			c0-3.43,0.74-6.51,2.23-9.23c1.49-2.72,3.57-4.87,6.24-6.45c2.67-1.58,5.77-2.37,9.31-2.37c3.35,0,6.22,0.61,8.59,1.83
			c2.37,1.22,4.19,2.84,5.45,4.87c1.26,2.02,1.89,4.26,1.89,6.7c0,0.28-0.02,0.76-0.06,1.46c-0.04,0.7-0.08,1.38-0.12,2.05
			c-0.04,0.67-0.08,1.14-0.12,1.4h-23.64v-4.94h13.7c0-1.85-0.21-3.41-0.62-4.71c-0.42-1.29-1.08-2.28-2-2.96
			c-0.91-0.68-2.13-1.03-3.66-1.03c-1.05,0-2.01,0.21-2.87,0.64c-0.86,0.43-1.61,1.1-2.25,2.02c-0.64,0.92-1.13,2.1-1.47,3.54
			c-0.35,1.44-0.52,3.17-0.52,5.2c0,2.58,0.33,4.81,1,6.7s1.84,3.34,3.51,4.38c1.68,1.03,4.04,1.55,7.1,1.55
			c1.55,0,2.96-0.13,4.23-0.4c1.27-0.27,2.41-0.6,3.42-1c1.01-0.4,1.89-0.77,2.62-1.13h1.67v4.05c-1.81,1.25-4.11,2.44-6.89,3.56
			C499.15,728.65,496.17,729.21,492.99,729.21z"/>
		<path d="M540.25,694.7v5.33h-11.91v18.08c0,0.97,0.35,1.83,1.06,2.56c0.7,0.74,1.53,1.31,2.49,1.71c0.95,0.41,1.78,0.61,2.47,0.61
			c0.63,0,1.46-0.03,2.47-0.09c1.01-0.06,1.77-0.13,2.26-0.21h1.46v3.07c-0.5,0.28-1.33,0.68-2.49,1.19
			c-1.16,0.52-2.51,0.98-4.04,1.4s-3.1,0.63-4.71,0.63c-1.95,0-3.76-0.28-5.43-0.85c-1.68-0.57-3.03-1.37-4.05-2.41
			c-1.02-1.04-1.53-2.27-1.53-3.68v-22.01h-5.45v-4.73c1.21-0.16,2.26-0.33,3.14-0.52c0.88-0.19,1.58-0.58,2.1-1.18
			c0.52-0.6,0.81-1.58,0.89-2.95l0.3-4.73l9.05-1.28v10.07H540.25z"/>
		<path d="M562.02,729.21c-3.38,0-6.4-0.67-9.08-2.01c-2.68-1.34-4.8-3.31-6.36-5.91s-2.34-5.77-2.34-9.5
			c0-3.43,0.74-6.51,2.23-9.23c1.49-2.72,3.57-4.87,6.24-6.45s5.77-2.37,9.31-2.37c3.35,0,6.22,0.61,8.59,1.83
			c2.37,1.22,4.19,2.84,5.45,4.87c1.26,2.02,1.89,4.26,1.89,6.7c0,0.28-0.02,0.76-0.06,1.46s-0.08,1.38-0.12,2.05
			s-0.08,1.14-0.12,1.4h-23.64v-4.94h13.7c0-1.85-0.21-3.41-0.62-4.71c-0.42-1.29-1.08-2.28-2-2.96c-0.91-0.68-2.13-1.03-3.66-1.03
			c-1.05,0-2.01,0.21-2.87,0.64c-0.86,0.43-1.61,1.1-2.25,2.02c-0.64,0.92-1.13,2.1-1.47,3.54c-0.35,1.44-0.52,3.17-0.52,5.2
			c0,2.58,0.33,4.81,1,6.7c0.67,1.89,1.84,3.34,3.51,4.38c1.68,1.03,4.04,1.55,7.1,1.55c1.55,0,2.96-0.13,4.23-0.4
			c1.27-0.27,2.41-0.6,3.42-1s1.89-0.77,2.62-1.13h1.67v4.05c-1.81,1.25-4.1,2.44-6.89,3.56
			C568.17,728.65,565.19,729.21,562.02,729.21z"/>
		<path d="M594.18,729.21c-1.69,0-3.14-0.54-4.35-1.62c-1.21-1.08-1.82-2.45-1.82-4.09c0-1.61,0.6-2.98,1.82-4.11
			c1.21-1.13,2.66-1.7,4.35-1.7c1.77,0,3.25,0.57,4.47,1.7s1.82,2.5,1.82,4.11c0,1.63-0.61,2.99-1.82,4.08
			C597.43,728.66,595.94,729.21,594.18,729.21z M591.14,713.93l-2.95-27.87v-1.82h11.91v1.82l-2.98,27.87H591.14z"/>
	</g>
</g>
<g>
	<g>
		<path d="M1213.38,200.49v-1.52l2.78-1.09c0.18-0.07,0.33-0.17,0.43-0.27c0.11-0.11,0.16-0.28,0.16-0.51v-17.38h-4.78
			c-0.19,0-0.34,0.05-0.46,0.15c-0.11,0.1-0.19,0.26-0.25,0.47l-0.82,3.54h-2.48v-7.14h23.21v7.14h-2.5l-0.82-3.54
			c-0.04-0.2-0.13-0.36-0.26-0.46c-0.13-0.11-0.27-0.16-0.42-0.16h-4.78v17.38c0,0.23,0.06,0.41,0.18,0.53
			c0.12,0.12,0.26,0.2,0.41,0.26l2.78,1.09v1.52H1213.38z"/>
		<path d="M1233.22,198.98l2.05-0.88c0.22-0.1,0.38-0.19,0.48-0.29c0.1-0.1,0.14-0.25,0.14-0.46V178.5c0-0.21-0.06-0.37-0.18-0.47
			c-0.12-0.1-0.27-0.19-0.44-0.28l-2.26-1.2V175h8.27v8.61l-0.18,1.54c0.63-0.95,1.29-1.66,1.98-2.12c0.69-0.46,1.39-0.77,2.1-0.92
			s1.38-0.22,2.02-0.22c1.09,0,2.09,0.2,3.01,0.59c0.92,0.4,1.66,1.03,2.22,1.92c0.56,0.89,0.84,2.06,0.84,3.54v9.34
			c0,0.26,0.06,0.43,0.17,0.54c0.11,0.1,0.26,0.2,0.44,0.3l1.89,0.88v1.5h-10.18v-1.5l1.63-0.88c0.17-0.1,0.32-0.19,0.45-0.3
			c0.13-0.1,0.19-0.28,0.19-0.54v-7.2c0-1.07-0.09-1.94-0.26-2.63c-0.17-0.69-0.49-1.2-0.95-1.54s-1.13-0.5-2.01-0.5
			c-0.5,0-1.09,0.08-1.76,0.24c-0.67,0.16-1.21,0.56-1.6,1.2v10.51c0,0.21,0.06,0.36,0.17,0.45c0.11,0.09,0.26,0.19,0.46,0.3
			l1.52,0.88v1.5h-10.21V198.98z"/>
		<path d="M1263.88,200.82c-1.13,0-2.1-0.25-2.9-0.76c-0.8-0.51-1.42-1.16-1.85-1.96c-0.43-0.8-0.64-1.64-0.64-2.53
			c0-1.15,0.28-2.14,0.83-2.97c0.55-0.83,1.27-1.5,2.14-2.02c0.88-0.52,1.81-0.9,2.8-1.14c0.99-0.25,1.92-0.37,2.78-0.37
			c0.17,0,0.47,0.02,0.89,0.06c0.42,0.04,0.85,0.08,1.27,0.13c0.43,0.05,0.71,0.08,0.86,0.1v-1.36c0-1.17-0.2-2.07-0.6-2.69
			c-0.4-0.62-1.11-0.93-2.13-0.93c-0.46,0-0.98,0.13-1.56,0.39c-0.58,0.26-1.17,0.58-1.76,0.95s-1.14,0.74-1.65,1.1
			c-0.51,0.36-0.92,0.64-1.24,0.83h-1.25v-4.37c0.81-0.23,1.61-0.46,2.39-0.69c0.78-0.22,1.64-0.41,2.56-0.55s1.99-0.22,3.21-0.22
			c1.27,0,2.47,0.15,3.6,0.46c1.13,0.31,2.05,0.88,2.77,1.72c0.71,0.84,1.07,2.05,1.07,3.64v8.75c0,0.44,0.14,0.79,0.41,1.06
			c0.27,0.27,0.57,0.41,0.89,0.41c0.25,0,0.51-0.02,0.8-0.07s0.56-0.1,0.82-0.17h0.62v1.71c-0.3,0.19-0.71,0.4-1.23,0.63
			s-1.07,0.42-1.63,0.58c-0.57,0.16-1.08,0.24-1.54,0.24c-1.42,0-2.47-0.25-3.15-0.75c-0.68-0.5-1.02-1.27-1.02-2.32h-0.26
			c-0.59,0.89-1.25,1.55-1.98,1.99c-0.74,0.44-1.48,0.73-2.23,0.87S1264.52,200.82,1263.88,200.82z M1266.72,197.64
			c0.54,0,1.14-0.13,1.79-0.38c0.64-0.26,1.17-0.69,1.56-1.3v-4.4c-1.18,0-2.23,0.1-3.13,0.29s-1.6,0.53-2.1,1.02
			c-0.5,0.49-0.75,1.17-0.75,2.06c0,0.71,0.14,1.27,0.42,1.66c0.28,0.39,0.63,0.67,1.04,0.82
			C1265.96,197.56,1266.35,197.64,1266.72,197.64z"/>
		<path d="M1280.39,200.49v-1.5l2.08-0.88c0.18-0.1,0.33-0.19,0.45-0.29c0.12-0.1,0.18-0.25,0.18-0.46v-11.31
			c0-0.22-0.06-0.39-0.19-0.49c-0.13-0.1-0.27-0.19-0.43-0.26l-2.05-0.88v-1.55l7.7-0.83v2.83h0.26c0.71-0.9,1.4-1.55,2.1-1.98
			s1.38-0.69,2.05-0.82s1.32-0.18,1.95-0.18c1.11,0,2.12,0.21,3.03,0.62c0.91,0.42,1.63,1.07,2.17,1.96
			c0.54,0.89,0.81,2.05,0.81,3.46v9.34c0,0.26,0.06,0.43,0.17,0.54c0.11,0.1,0.26,0.2,0.46,0.3l1.82,0.88v1.5h-10.18v-1.5l1.63-0.88
			c0.19-0.11,0.35-0.21,0.48-0.3s0.19-0.27,0.19-0.53v-7.2c0-1-0.08-1.85-0.23-2.54c-0.16-0.69-0.45-1.22-0.9-1.58
			c-0.44-0.36-1.11-0.54-1.99-0.54c-0.59,0-1.21,0.08-1.86,0.25c-0.65,0.17-1.18,0.56-1.6,1.19v10.51c0,0.21,0.06,0.36,0.18,0.45
			c0.12,0.09,0.27,0.19,0.46,0.3l1.52,0.88v1.5H1280.39z"/>
		<path d="M1305.01,200.49v-1.5l2.05-0.88c0.2-0.09,0.36-0.18,0.47-0.28c0.11-0.1,0.17-0.26,0.17-0.47v-18.77
			c0-0.22-0.06-0.4-0.18-0.52c-0.12-0.12-0.27-0.23-0.44-0.31l-2.24-1.2V175h8.26v16.42l6.4-6.38l-1.87-1.2v-1.47h8.51v1.47
			l-2.11,0.94c-0.22,0.1-0.44,0.21-0.63,0.33s-0.41,0.28-0.63,0.47l-3.87,3.41l5.68,8.53c0.12,0.17,0.29,0.32,0.5,0.46
			s0.41,0.24,0.57,0.31l1.66,0.7v1.5h-9.34v-1.5l0.88-0.78l-3.89-5.86l-1.92,0.67v4.34c0,0.21,0.06,0.37,0.18,0.47
			c0.12,0.1,0.26,0.19,0.43,0.28l1.71,0.88v1.5H1305.01z"/>
		<path d="M1344.68,200.49v-1.52l2.77-1.09c0.18-0.07,0.33-0.17,0.44-0.27c0.11-0.11,0.17-0.28,0.17-0.51v-5.31l-6.8-11.92
			c-0.08-0.15-0.19-0.3-0.3-0.46c-0.12-0.16-0.27-0.28-0.46-0.35l-1.9-0.78v-1.52h10.93v1.52l-2.66,1.07l4.26,7.09l0.8,2.02h0.34
			l5.07-9.01l-2.66-1.17v-1.52h8.56v1.52l-1.86,0.85c-0.16,0.07-0.31,0.19-0.45,0.35c-0.14,0.16-0.25,0.31-0.34,0.46l-6.88,11.78
			v5.39c0,0.23,0.05,0.41,0.16,0.52c0.11,0.11,0.24,0.2,0.4,0.26l2.8,1.09v1.52H1344.68z"/>
		<path d="M1375.04,200.94c-1.94,0-3.65-0.37-5.12-1.1c-1.47-0.74-2.62-1.81-3.44-3.23c-0.82-1.42-1.23-3.15-1.23-5.18
			c0-1.88,0.41-3.54,1.22-4.98c0.82-1.44,1.97-2.57,3.46-3.38c1.49-0.81,3.26-1.22,5.3-1.22c2.21,0,4.03,0.43,5.48,1.28
			s2.53,2,3.24,3.44s1.07,3.03,1.07,4.78c0,1.86-0.41,3.51-1.22,4.95c-0.81,1.45-1.96,2.58-3.46,3.4
			C1378.86,200.52,1377.09,200.94,1375.04,200.94z M1375.27,198.36c0.78,0,1.42-0.19,1.94-0.58c0.51-0.39,0.92-0.91,1.22-1.56
			c0.3-0.65,0.51-1.37,0.63-2.15c0.12-0.78,0.18-1.58,0.18-2.38c0-1.29-0.14-2.49-0.41-3.58c-0.27-1.1-0.72-1.99-1.34-2.66
			c-0.62-0.68-1.45-1.02-2.48-1.02c-0.78,0-1.42,0.19-1.94,0.58c-0.51,0.38-0.92,0.9-1.22,1.54c-0.3,0.64-0.51,1.35-0.63,2.13
			c-0.12,0.78-0.18,1.56-0.18,2.35c0,0.88,0.07,1.74,0.2,2.61c0.13,0.86,0.36,1.65,0.67,2.37c0.31,0.71,0.75,1.29,1.3,1.72
			C1373.76,198.14,1374.45,198.36,1375.27,198.36z"/>
		<path d="M1395.96,200.82c-1.09,0-2.08-0.21-2.97-0.62c-0.89-0.41-1.6-1.06-2.14-1.95c-0.53-0.89-0.8-2.05-0.8-3.46v-8.75
			c0-0.22-0.06-0.39-0.19-0.5s-0.27-0.19-0.42-0.26l-2.06-0.88v-1.55l8.08-0.83v10.64c0,0.98,0.07,1.82,0.22,2.52
			c0.14,0.7,0.43,1.23,0.87,1.59s1.09,0.54,1.97,0.54c0.93,0,1.66-0.12,2.19-0.37c0.53-0.25,0.95-0.6,1.25-1.06v-9.86
			c0-0.22-0.06-0.39-0.18-0.49c-0.12-0.1-0.28-0.19-0.46-0.26l-2.03-0.88v-1.55l8.06-0.83v14.78c0,0.22,0.06,0.39,0.18,0.49
			c0.12,0.1,0.27,0.19,0.44,0.26l2.05,0.88v1.55l-7.7,0.82v-2.98h-0.24c-0.7,0.87-1.51,1.59-2.41,2.15
			S1397.53,200.82,1395.96,200.82z"/>
		<path d="M1423.54,200.49v-1.5l2.38-0.96c0.19-0.09,0.35-0.18,0.46-0.28c0.12-0.1,0.18-0.26,0.18-0.47v-11.06h-3.38v-2.86h3.44
			c0.19-1.92,0.72-3.52,1.59-4.8c0.87-1.28,1.95-2.24,3.26-2.88s2.7-0.96,4.21-0.96c0.47,0,1.08,0.03,1.85,0.1s1.41,0.15,1.93,0.25
			v4.4h-1.25c-0.35-0.15-0.83-0.31-1.43-0.49c-0.6-0.18-1.2-0.33-1.8-0.46c-0.6-0.13-1.07-0.19-1.42-0.19
			c-0.29,0-0.52,0.04-0.7,0.11s-0.33,0.21-0.45,0.4c-0.16,0.26-0.27,0.78-0.34,1.56c-0.07,0.78-0.11,1.77-0.12,2.95h5.15v2.86h-5.14
			v11.06c0,0.21,0.06,0.38,0.18,0.49c0.12,0.11,0.27,0.2,0.44,0.26l2.8,0.96v1.5H1423.54z"/>
		<path d="M1449.46,200.94c-1.94,0-3.65-0.37-5.12-1.1c-1.47-0.74-2.62-1.81-3.44-3.23c-0.82-1.42-1.23-3.15-1.23-5.18
			c0-1.88,0.41-3.54,1.22-4.98c0.82-1.44,1.97-2.57,3.46-3.38c1.49-0.81,3.26-1.22,5.3-1.22c2.21,0,4.03,0.43,5.48,1.28
			s2.53,2,3.24,3.44s1.07,3.03,1.07,4.78c0,1.86-0.41,3.51-1.22,4.95c-0.81,1.45-1.96,2.58-3.46,3.4
			C1453.28,200.52,1451.51,200.94,1449.46,200.94z M1449.68,198.36c0.78,0,1.42-0.19,1.94-0.58c0.51-0.39,0.92-0.91,1.22-1.56
			c0.3-0.65,0.51-1.37,0.63-2.15c0.12-0.78,0.18-1.58,0.18-2.38c0-1.29-0.14-2.49-0.41-3.58c-0.27-1.1-0.72-1.99-1.34-2.66
			c-0.62-0.68-1.45-1.02-2.48-1.02c-0.78,0-1.42,0.19-1.94,0.58c-0.51,0.38-0.92,0.9-1.22,1.54c-0.3,0.64-0.51,1.35-0.63,2.13
			c-0.12,0.78-0.18,1.56-0.18,2.35c0,0.88,0.07,1.74,0.2,2.61c0.13,0.86,0.36,1.65,0.67,2.37c0.31,0.71,0.75,1.29,1.3,1.72
			C1448.18,198.14,1448.86,198.36,1449.68,198.36z"/>
		<path d="M1462.45,200.49v-1.5l2.06-0.88c0.18-0.09,0.33-0.18,0.45-0.28c0.12-0.1,0.18-0.26,0.18-0.47v-10.51
			c0-0.5-0.03-0.83-0.09-1s-0.21-0.3-0.46-0.41l-2.3-1.02v-1.55l7.97-0.83v3.73h0.21c0.7-1.12,1.38-1.96,2.03-2.51
			s1.28-0.92,1.89-1.1c0.61-0.18,1.19-0.26,1.74-0.26c0.52,0,1.05,0.06,1.58,0.19s1.04,0.37,1.52,0.72v5.62h-3.97l-0.48-1.2
			c-0.08-0.18-0.24-0.39-0.5-0.63c-0.26-0.24-0.57-0.36-0.94-0.36c-0.34,0-0.66,0.05-0.97,0.14c-0.3,0.09-0.61,0.25-0.9,0.47
			c-0.3,0.22-0.62,0.53-0.96,0.91v9.62c0,0.36,0.21,0.61,0.62,0.75l2.8,0.88v1.5H1462.45z"/>
		<path d="M1173.55,242.9v-4.94h2.77l0.48,1.47c0.05,0.17,0.14,0.33,0.26,0.49c0.12,0.15,0.24,0.27,0.36,0.36
			c0.45,0.33,1.02,0.64,1.73,0.92c0.71,0.28,1.52,0.42,2.45,0.42c0.55,0,1.06-0.1,1.5-0.29s0.81-0.46,1.08-0.8s0.41-0.74,0.41-1.2
			c0-0.65-0.22-1.14-0.66-1.47c-0.44-0.33-1.12-0.62-2.04-0.88c-0.52-0.15-1.1-0.3-1.74-0.46c-0.63-0.15-1.2-0.3-1.7-0.44
			c-1.58-0.44-2.75-1.1-3.5-1.98c-0.76-0.89-1.14-1.88-1.14-2.99c0-1.25,0.4-2.33,1.21-3.23c0.81-0.91,1.87-1.6,3.18-2.1
			c1.32-0.49,2.74-0.74,4.28-0.74c1.38,0,2.58,0.08,3.62,0.24c1.04,0.16,1.98,0.36,2.82,0.59v5.01h-2.75l-0.48-1.6
			c-0.06-0.15-0.16-0.29-0.29-0.42c-0.13-0.13-0.25-0.23-0.37-0.3c-0.36-0.25-0.86-0.47-1.49-0.69s-1.29-0.32-1.98-0.32
			c-0.81,0-1.43,0.18-1.87,0.55c-0.44,0.37-0.66,0.82-0.66,1.35c0,0.62,0.26,1.14,0.78,1.55s1.26,0.76,2.23,1.02
			c0.55,0.15,1.13,0.3,1.73,0.46c0.6,0.15,1.14,0.31,1.63,0.46c1.49,0.45,2.61,1.09,3.35,1.91c0.74,0.83,1.11,1.85,1.11,3.06
			c0,1.44-0.42,2.62-1.26,3.54c-0.84,0.92-1.94,1.59-3.28,2.02c-1.34,0.43-2.77,0.65-4.29,0.65c-1.45,0-2.85-0.14-4.18-0.41
			C1175.52,243.46,1174.41,243.18,1173.55,242.9z"/>
		<path d="M1192.46,242.18l2.05-0.88c0.22-0.1,0.38-0.19,0.48-0.29c0.1-0.1,0.14-0.25,0.14-0.46V221.7c0-0.21-0.06-0.37-0.18-0.47
			c-0.12-0.1-0.27-0.19-0.44-0.28l-2.26-1.2v-1.55h8.27v8.61l-0.18,1.54c0.63-0.95,1.29-1.66,1.98-2.12
			c0.69-0.46,1.39-0.77,2.1-0.92s1.38-0.22,2.02-0.22c1.09,0,2.09,0.2,3.01,0.59c0.92,0.4,1.66,1.03,2.21,1.92
			c0.56,0.89,0.84,2.06,0.84,3.54v9.34c0,0.26,0.06,0.43,0.17,0.54c0.11,0.1,0.26,0.2,0.44,0.3l1.89,0.88v1.5h-10.18v-1.5l1.63-0.88
			c0.17-0.1,0.32-0.19,0.45-0.3c0.13-0.1,0.19-0.28,0.19-0.54v-7.2c0-1.07-0.08-1.94-0.26-2.63s-0.49-1.2-0.95-1.54
			s-1.13-0.5-2.01-0.5c-0.5,0-1.09,0.08-1.76,0.24c-0.67,0.16-1.21,0.56-1.6,1.2v10.51c0,0.21,0.05,0.36,0.17,0.45
			c0.11,0.09,0.26,0.19,0.46,0.3l1.52,0.88v1.5h-10.21V242.18z"/>
		<path d="M1227.34,244.14c-1.94,0-3.65-0.37-5.12-1.1c-1.47-0.74-2.62-1.81-3.44-3.23c-0.82-1.42-1.23-3.15-1.23-5.18
			c0-1.88,0.41-3.54,1.22-4.98s1.97-2.57,3.46-3.38c1.49-0.81,3.26-1.22,5.3-1.22c2.21,0,4.03,0.43,5.48,1.28
			c1.45,0.85,2.52,2,3.24,3.44s1.07,3.03,1.07,4.78c0,1.86-0.41,3.51-1.22,4.95c-0.81,1.45-1.96,2.58-3.46,3.4
			C1231.16,243.72,1229.39,244.14,1227.34,244.14z M1227.57,241.56c0.78,0,1.42-0.19,1.94-0.58c0.51-0.39,0.92-0.91,1.22-1.56
			c0.3-0.65,0.51-1.37,0.63-2.15c0.12-0.78,0.18-1.58,0.18-2.38c0-1.29-0.14-2.49-0.41-3.58c-0.27-1.1-0.72-1.99-1.34-2.66
			c-0.62-0.68-1.45-1.02-2.48-1.02c-0.78,0-1.42,0.19-1.94,0.58c-0.51,0.38-0.92,0.9-1.22,1.54c-0.3,0.64-0.51,1.35-0.63,2.13
			c-0.12,0.78-0.18,1.56-0.18,2.35c0,0.88,0.07,1.74,0.2,2.61c0.13,0.86,0.36,1.65,0.67,2.37c0.31,0.71,0.75,1.29,1.3,1.72
			C1226.06,241.34,1226.75,241.56,1227.57,241.56z"/>
		<path d="M1239.95,251.88v-1.49l2.16-0.93c0.19-0.09,0.34-0.17,0.46-0.26c0.11-0.09,0.17-0.24,0.17-0.46v-19.5
			c0-0.22-0.06-0.39-0.19-0.5s-0.27-0.19-0.43-0.26l-2.05-0.88v-1.55l7.71-0.83v3.01h0.29c0.5-0.75,1.08-1.35,1.73-1.82
			c0.65-0.46,1.35-0.8,2.1-1.02s1.51-0.32,2.3-0.32c1.52,0,2.81,0.38,3.89,1.14c1.08,0.76,1.9,1.8,2.48,3.12
			c0.58,1.32,0.86,2.81,0.86,4.47c0,1.85-0.34,3.53-1.02,5.06c-0.68,1.53-1.67,2.74-2.95,3.64s-2.84,1.35-4.66,1.35
			c-1.07,0-2.03-0.2-2.9-0.59s-1.5-0.85-1.92-1.38l0.16,1.31v5.5c0,0.22,0.06,0.38,0.18,0.47c0.12,0.09,0.27,0.17,0.46,0.25
			l2.61,0.96v1.49H1239.95z M1248.13,230.07v10.08c0.28,0.19,0.63,0.34,1.06,0.45c0.43,0.11,0.85,0.18,1.26,0.23
			s0.75,0.07,0.99,0.07c1.02,0,1.86-0.27,2.5-0.82c0.64-0.54,1.11-1.27,1.41-2.17s0.45-1.9,0.45-2.98c0-1.25-0.15-2.37-0.44-3.37
			c-0.29-1-0.76-1.79-1.39-2.37c-0.63-0.58-1.47-0.87-2.5-0.87c-0.81,0-1.51,0.2-2.1,0.6
			C1248.77,229.33,1248.36,229.71,1248.13,230.07z"/>
		<path d="M1264.04,251.88v-1.49l2.16-0.93c0.19-0.09,0.34-0.17,0.46-0.26c0.11-0.09,0.17-0.24,0.17-0.46v-19.5
			c0-0.22-0.06-0.39-0.19-0.5s-0.27-0.19-0.43-0.26l-2.05-0.88v-1.55l7.71-0.83v3.01h0.29c0.5-0.75,1.08-1.35,1.73-1.82
			c0.65-0.46,1.35-0.8,2.1-1.02s1.51-0.32,2.3-0.32c1.52,0,2.81,0.38,3.89,1.14c1.08,0.76,1.9,1.8,2.48,3.12
			c0.58,1.32,0.86,2.81,0.86,4.47c0,1.85-0.34,3.53-1.02,5.06c-0.68,1.53-1.67,2.74-2.95,3.64s-2.84,1.35-4.66,1.35
			c-1.07,0-2.03-0.2-2.9-0.59s-1.5-0.85-1.92-1.38l0.16,1.31v5.5c0,0.22,0.06,0.38,0.18,0.47c0.12,0.09,0.27,0.17,0.46,0.25
			l2.61,0.96v1.49H1264.04z M1272.22,230.07v10.08c0.28,0.19,0.63,0.34,1.06,0.45c0.43,0.11,0.85,0.18,1.26,0.23
			s0.75,0.07,0.99,0.07c1.02,0,1.86-0.27,2.5-0.82c0.64-0.54,1.11-1.27,1.41-2.17s0.45-1.9,0.45-2.98c0-1.25-0.15-2.37-0.44-3.37
			c-0.29-1-0.76-1.79-1.39-2.37c-0.63-0.58-1.47-0.87-2.5-0.87c-0.81,0-1.51,0.2-2.1,0.6
			C1272.87,229.33,1272.46,229.71,1272.22,230.07z"/>
		<path d="M1288.33,243.69v-1.5l2.66-0.96c0.2-0.07,0.36-0.17,0.48-0.27s0.18-0.27,0.18-0.48v-10.88c0-0.21-0.06-0.37-0.18-0.48
			c-0.12-0.11-0.27-0.2-0.46-0.27l-2.64-1.04v-1.55l8.67-0.34v14.56c0,0.21,0.06,0.38,0.19,0.5c0.13,0.12,0.27,0.2,0.43,0.26
			l2.66,0.96v1.5H1288.33z M1294.01,223.53c-0.54,0-1.08-0.13-1.61-0.39c-0.53-0.26-0.97-0.61-1.32-1.06
			c-0.35-0.44-0.53-0.94-0.53-1.48c0-0.89,0.35-1.55,1.05-2.01c0.7-0.45,1.5-0.68,2.41-0.68c1.07,0,1.93,0.21,2.59,0.62
			c0.66,0.41,0.99,1.03,0.99,1.86c0,0.59-0.17,1.12-0.51,1.59c-0.34,0.47-0.79,0.85-1.34,1.13
			C1295.2,223.39,1294.62,223.53,1294.01,223.53z"/>
		<path d="M1302.49,243.69v-1.5l2.08-0.88c0.18-0.1,0.33-0.19,0.45-0.29c0.12-0.1,0.18-0.25,0.18-0.46v-11.31
			c0-0.22-0.06-0.39-0.19-0.49c-0.13-0.1-0.27-0.19-0.43-0.26l-2.05-0.88v-1.55l7.7-0.83v2.83h0.26c0.71-0.9,1.4-1.55,2.1-1.98
			s1.38-0.69,2.05-0.82s1.32-0.18,1.95-0.18c1.11,0,2.12,0.21,3.03,0.62c0.91,0.42,1.63,1.07,2.17,1.96
			c0.54,0.89,0.81,2.05,0.81,3.46v9.34c0,0.26,0.06,0.43,0.17,0.54c0.11,0.1,0.26,0.2,0.46,0.3l1.82,0.88v1.5h-10.18v-1.5l1.63-0.88
			c0.19-0.11,0.35-0.21,0.48-0.3s0.19-0.27,0.19-0.53v-7.2c0-1-0.08-1.85-0.23-2.54c-0.16-0.69-0.45-1.22-0.9-1.58
			c-0.44-0.36-1.11-0.54-1.99-0.54c-0.59,0-1.21,0.08-1.86,0.25c-0.65,0.17-1.18,0.56-1.6,1.19v10.51c0,0.21,0.06,0.36,0.18,0.45
			c0.12,0.09,0.27,0.19,0.46,0.3l1.52,0.88v1.5H1302.49z"/>
		<path d="M1336.52,237.42c-0.86,0-1.57-0.04-2.1-0.11c-0.54-0.07-0.95-0.17-1.24-0.27c-0.22,0.11-0.44,0.3-0.66,0.59
			s-0.32,0.63-0.32,1.02c0,0.35,0.12,0.63,0.35,0.82s0.52,0.37,0.85,0.5h6.72c1.76,0,3.13,0.26,4.1,0.77
			c0.98,0.51,1.66,1.16,2.05,1.94s0.58,1.58,0.58,2.38c0,1.35-0.45,2.54-1.36,3.57c-0.91,1.02-2.15,1.82-3.74,2.39
			s-3.4,0.86-5.43,0.86c-1.75,0-3.31-0.18-4.7-0.53c-1.38-0.35-2.47-0.87-3.27-1.55c-0.8-0.68-1.2-1.51-1.2-2.48
			c0-1.11,0.39-1.95,1.17-2.53c0.78-0.58,1.78-1,3.01-1.26v-0.29c-0.53-0.12-1.04-0.32-1.52-0.62s-0.87-0.67-1.17-1.12
			c-0.3-0.45-0.45-0.97-0.45-1.54c0-0.69,0.18-1.29,0.55-1.8c0.37-0.51,0.82-0.91,1.35-1.22c0.53-0.3,1.05-0.5,1.55-0.58v-0.22
			c-0.42-0.22-0.88-0.54-1.39-0.95s-0.95-0.93-1.33-1.55s-0.56-1.36-0.56-2.22c0-1.25,0.33-2.35,1-3.31
			c0.67-0.96,1.62-1.71,2.85-2.25s2.7-0.81,4.39-0.81c0.97,0,1.83,0.06,2.59,0.18c0.76,0.12,1.49,0.23,2.21,0.34h6.32v2.74h-3.97
			v0.21c0.3,0.33,0.56,0.73,0.79,1.21s0.34,1.09,0.34,1.83c0,1.71-0.74,3.11-2.21,4.22
			C1341.23,236.86,1339.17,237.42,1336.52,237.42z M1337.24,249.48c0.73,0,1.45-0.1,2.17-0.29c0.72-0.19,1.32-0.53,1.81-1
			c0.48-0.47,0.73-1.14,0.73-2.01c0-0.55-0.23-1.07-0.7-1.54c-0.46-0.48-1.21-0.71-2.23-0.71h-5.63c-0.2,0.29-0.4,0.61-0.59,0.98
			c-0.19,0.36-0.29,0.83-0.29,1.39c0,0.63,0.17,1.15,0.5,1.56c0.33,0.41,0.75,0.74,1.26,0.98c0.51,0.24,1.03,0.41,1.56,0.5
			S1336.83,249.48,1337.24,249.48z M1336.56,235.42c0.6,0,1.11-0.14,1.54-0.42s0.76-0.73,1-1.34c0.23-0.61,0.35-1.4,0.35-2.38
			c0-1.39-0.26-2.4-0.79-3.05c-0.52-0.65-1.21-0.97-2.06-0.97c-0.44,0-0.86,0.12-1.27,0.37c-0.41,0.25-0.74,0.66-1,1.24
			c-0.26,0.58-0.38,1.38-0.38,2.41c0,1.47,0.24,2.53,0.74,3.18C1335.17,235.09,1335.8,235.42,1336.56,235.42z"/>
		<path d="M1368,243.85l-5.7-15.36c-0.06-0.18-0.16-0.34-0.29-0.47c-0.13-0.13-0.29-0.24-0.48-0.33l-1.38-0.66v-1.47h9.84v1.47
			l-2.46,0.88l2.75,7.84l0.66,2.72h0.35l3.02-9.22l1.52-3.7h3.15l3.71,10.1l0.75,2.82h0.37l3.2-9.95l-2.29-1.49v-1.47h7.49v1.47
			l-1.46,1.14c-0.16,0.12-0.32,0.25-0.48,0.38c-0.16,0.14-0.27,0.29-0.32,0.46l-3.81,11.14l-1.76,3.7h-3.81l-3.49-9.09l-0.58-2.58
			h-0.29l-2.62,7.97l-1.71,3.7H1368z"/>
		<path d="M1393.88,243.69v-1.5l2.66-0.96c0.2-0.07,0.36-0.17,0.48-0.27c0.12-0.11,0.18-0.27,0.18-0.48v-10.88
			c0-0.21-0.06-0.37-0.18-0.48c-0.12-0.11-0.27-0.2-0.46-0.27l-2.64-1.04v-1.55l8.67-0.34v14.56c0,0.21,0.06,0.38,0.19,0.5
			c0.13,0.12,0.27,0.2,0.43,0.26l2.66,0.96v1.5H1393.88z M1399.56,223.53c-0.54,0-1.08-0.13-1.61-0.39
			c-0.53-0.26-0.97-0.61-1.32-1.06c-0.35-0.44-0.53-0.94-0.53-1.48c0-0.89,0.35-1.55,1.05-2.01c0.7-0.45,1.5-0.68,2.41-0.68
			c1.07,0,1.93,0.21,2.59,0.62c0.66,0.41,0.99,1.03,0.99,1.86c0,0.59-0.17,1.12-0.51,1.59c-0.34,0.47-0.79,0.85-1.34,1.13
			C1400.75,223.39,1400.17,223.53,1399.56,223.53z"/>
		<path d="M1422.14,225.56v2.86h-6.4v9.71c0,0.52,0.19,0.98,0.57,1.38c0.38,0.39,0.82,0.7,1.34,0.92c0.51,0.22,0.95,0.33,1.33,0.33
			c0.34,0,0.78-0.02,1.33-0.05c0.54-0.03,0.95-0.07,1.22-0.11h0.78v1.65c-0.27,0.15-0.71,0.36-1.34,0.64s-1.35,0.53-2.17,0.75
			c-0.82,0.22-1.66,0.34-2.53,0.34c-1.05,0-2.02-0.15-2.92-0.46c-0.9-0.3-1.63-0.74-2.18-1.3c-0.55-0.56-0.82-1.22-0.82-1.98v-11.82
			h-2.93v-2.54c0.65-0.08,1.21-0.18,1.69-0.28s0.85-0.31,1.13-0.63c0.28-0.32,0.44-0.85,0.48-1.58l0.16-2.54l4.86-0.69v5.41H1422.14
			z"/>
		<path d="M1423.87,242.18l2.05-0.88c0.22-0.1,0.38-0.19,0.48-0.29c0.1-0.1,0.14-0.25,0.14-0.46V221.7c0-0.21-0.06-0.37-0.18-0.47
			c-0.12-0.1-0.27-0.19-0.44-0.28l-2.26-1.2v-1.55h8.27v8.61l-0.18,1.54c0.63-0.95,1.29-1.66,1.98-2.12
			c0.69-0.46,1.39-0.77,2.1-0.92s1.38-0.22,2.02-0.22c1.09,0,2.09,0.2,3.01,0.59c0.92,0.4,1.66,1.03,2.22,1.92
			c0.56,0.89,0.84,2.06,0.84,3.54v9.34c0,0.26,0.06,0.43,0.17,0.54c0.11,0.1,0.26,0.2,0.44,0.3l1.89,0.88v1.5h-10.18v-1.5l1.63-0.88
			c0.17-0.1,0.32-0.19,0.45-0.3c0.13-0.1,0.19-0.28,0.19-0.54v-7.2c0-1.07-0.08-1.94-0.26-2.63s-0.49-1.2-0.95-1.54
			s-1.13-0.5-2.01-0.5c-0.5,0-1.09,0.08-1.76,0.24c-0.67,0.16-1.21,0.56-1.6,1.2v10.51c0,0.21,0.06,0.36,0.17,0.45
			c0.11,0.09,0.26,0.19,0.46,0.3l1.52,0.88v1.5h-10.21V242.18z"/>
		<path d="M1467.9,244.02c-1.09,0-2.08-0.21-2.97-0.62c-0.89-0.41-1.6-1.06-2.14-1.95c-0.53-0.89-0.8-2.05-0.8-3.46v-8.75
			c0-0.22-0.06-0.39-0.19-0.5s-0.27-0.19-0.42-0.26l-2.06-0.88v-1.55l8.08-0.83v10.64c0,0.98,0.07,1.82,0.22,2.52
			c0.14,0.7,0.43,1.23,0.87,1.59s1.09,0.54,1.97,0.54c0.93,0,1.66-0.12,2.19-0.37c0.53-0.25,0.95-0.6,1.25-1.06v-9.86
			c0-0.22-0.06-0.39-0.18-0.49c-0.12-0.1-0.28-0.19-0.46-0.26l-2.03-0.88v-1.55l8.06-0.83v14.78c0,0.22,0.06,0.39,0.18,0.49
			c0.12,0.1,0.27,0.19,0.44,0.26l2.05,0.88v1.55l-7.7,0.82v-2.98h-0.24c-0.7,0.87-1.51,1.59-2.41,2.15S1469.48,244.02,1467.9,244.02
			z"/>
		<path d="M1485,242.9v-4.94h2.77l0.48,1.47c0.05,0.17,0.14,0.33,0.26,0.49c0.12,0.15,0.24,0.27,0.36,0.36
			c0.45,0.33,1.02,0.64,1.73,0.92c0.7,0.28,1.52,0.42,2.45,0.42c0.55,0,1.06-0.1,1.5-0.29s0.81-0.46,1.08-0.8
			c0.27-0.34,0.41-0.74,0.41-1.2c0-0.65-0.22-1.14-0.66-1.47c-0.44-0.33-1.12-0.62-2.04-0.88c-0.52-0.15-1.1-0.3-1.74-0.46
			c-0.63-0.15-1.2-0.3-1.7-0.44c-1.58-0.44-2.75-1.1-3.5-1.98c-0.76-0.89-1.14-1.88-1.14-2.99c0-1.25,0.4-2.33,1.21-3.23
			c0.81-0.91,1.87-1.6,3.18-2.1c1.32-0.49,2.74-0.74,4.28-0.74c1.38,0,2.58,0.08,3.62,0.24c1.04,0.16,1.98,0.36,2.82,0.59v5.01
			h-2.75l-0.48-1.6c-0.06-0.15-0.16-0.29-0.29-0.42c-0.13-0.13-0.25-0.23-0.37-0.3c-0.36-0.25-0.86-0.47-1.49-0.69
			c-0.63-0.21-1.29-0.32-1.98-0.32c-0.81,0-1.43,0.18-1.87,0.55c-0.44,0.37-0.66,0.82-0.66,1.35c0,0.62,0.26,1.14,0.78,1.55
			s1.26,0.76,2.23,1.02c0.55,0.15,1.13,0.3,1.73,0.46c0.6,0.15,1.14,0.31,1.63,0.46c1.49,0.45,2.61,1.09,3.35,1.91
			c0.74,0.83,1.11,1.85,1.11,3.06c0,1.44-0.42,2.62-1.26,3.54c-0.84,0.92-1.94,1.59-3.28,2.02c-1.34,0.43-2.77,0.65-4.29,0.65
			c-1.45,0-2.85-0.14-4.18-0.41S1485.87,243.18,1485,242.9z"/>
		<path d="M1505.72,240.71c0-0.95,0.33-1.75,0.98-2.42c0.66-0.66,1.46-0.99,2.42-0.99c0.95,0,1.76,0.33,2.42,0.99
			c0.67,0.66,1,1.47,1,2.43s-0.33,1.76-1,2.41c-0.67,0.65-1.47,0.97-2.42,0.97c-0.96,0-1.77-0.32-2.42-0.97
			C1506.05,242.49,1505.72,241.68,1505.72,240.71z"/>
		<path d="M1233.67,286.89v-1.52l2.64-1.09c0.17-0.06,0.31-0.15,0.42-0.26c0.11-0.11,0.16-0.29,0.16-0.52v-17.02
			c0-0.22-0.06-0.38-0.17-0.48c-0.11-0.1-0.25-0.18-0.41-0.24l-2.64-1.09v-1.52h12.1v1.52l-2.62,1.09
			c-0.17,0.08-0.31,0.16-0.43,0.25c-0.12,0.09-0.18,0.25-0.18,0.47v6.64h9.76v-6.64c0-0.22-0.06-0.38-0.18-0.48
			s-0.26-0.18-0.42-0.24l-2.62-1.09v-1.52h12.13v1.52l-2.62,1.09c-0.16,0.06-0.3,0.14-0.43,0.24c-0.13,0.1-0.19,0.26-0.19,0.48
			v17.02c0,0.23,0.06,0.41,0.18,0.51s0.27,0.2,0.44,0.27l2.62,1.09v1.52h-12.13v-1.52l2.62-1.09c0.18-0.09,0.33-0.18,0.44-0.28
			c0.11-0.1,0.17-0.27,0.17-0.5v-7.5h-9.76v7.5c0,0.23,0.05,0.41,0.16,0.51c0.11,0.11,0.26,0.2,0.45,0.27l2.62,1.09v1.52H1233.67z"
			/>
		<path d="M1273.86,287.3c-1.81,0-3.44-0.36-4.88-1.08c-1.44-0.72-2.58-1.78-3.42-3.18s-1.26-3.1-1.26-5.1c0-1.85,0.4-3.5,1.2-4.96
			c0.8-1.46,1.92-2.62,3.35-3.46c1.43-0.85,3.1-1.27,5-1.27c1.8,0,3.34,0.33,4.62,0.98c1.28,0.66,2.25,1.53,2.93,2.62
			s1.02,2.29,1.02,3.6c0,0.15-0.01,0.41-0.03,0.78c-0.02,0.37-0.04,0.74-0.06,1.1c-0.02,0.36-0.04,0.61-0.06,0.75h-12.71v-2.66h7.36
			c0-0.99-0.11-1.83-0.34-2.53s-0.58-1.22-1.07-1.59c-0.49-0.37-1.15-0.55-1.97-0.55c-0.57,0-1.08,0.11-1.54,0.34
			c-0.46,0.23-0.87,0.59-1.21,1.09c-0.34,0.5-0.61,1.13-0.79,1.9s-0.28,1.7-0.28,2.79c0,1.39,0.18,2.59,0.54,3.6
			c0.36,1.01,0.99,1.8,1.89,2.35c0.9,0.55,2.17,0.83,3.82,0.83c0.83,0,1.59-0.07,2.27-0.22s1.3-0.32,1.84-0.54s1.01-0.42,1.41-0.61
			h0.9v2.18c-0.97,0.67-2.21,1.31-3.7,1.91C1277.17,287,1275.57,287.3,1273.86,287.3z"/>
		<path d="M1285.27,286.89v-1.5l2.06-0.88c0.18-0.09,0.33-0.18,0.45-0.28c0.12-0.1,0.18-0.26,0.18-0.47v-10.51
			c0-0.5-0.03-0.83-0.09-1s-0.21-0.3-0.46-0.41l-2.3-1.02v-1.55l7.97-0.83v3.73h0.21c0.7-1.12,1.38-1.96,2.03-2.51
			s1.28-0.92,1.89-1.1c0.61-0.18,1.19-0.26,1.74-0.26c0.52,0,1.05,0.06,1.58,0.19s1.04,0.37,1.52,0.72v5.62h-3.97l-0.48-1.2
			c-0.08-0.18-0.24-0.39-0.5-0.63c-0.26-0.24-0.57-0.36-0.94-0.36c-0.34,0-0.66,0.05-0.97,0.14c-0.3,0.09-0.61,0.25-0.9,0.47
			s-0.62,0.53-0.96,0.91v9.62c0,0.36,0.21,0.61,0.62,0.75l2.8,0.88v1.5H1285.27z"/>
		<path d="M1313.86,287.3c-1.81,0-3.44-0.36-4.88-1.08c-1.44-0.72-2.58-1.78-3.42-3.18c-0.84-1.4-1.26-3.1-1.26-5.1
			c0-1.85,0.4-3.5,1.2-4.96s1.92-2.62,3.35-3.46c1.43-0.85,3.1-1.27,5-1.27c1.8,0,3.34,0.33,4.62,0.98
			c1.28,0.66,2.25,1.53,2.93,2.62c0.68,1.09,1.02,2.29,1.02,3.6c0,0.15-0.01,0.41-0.03,0.78c-0.02,0.37-0.04,0.74-0.06,1.1
			c-0.02,0.36-0.04,0.61-0.06,0.75h-12.7v-2.66h7.36c0-0.99-0.11-1.83-0.34-2.53c-0.22-0.69-0.58-1.22-1.07-1.59
			c-0.49-0.37-1.15-0.55-1.97-0.55c-0.57,0-1.08,0.11-1.54,0.34c-0.46,0.23-0.87,0.59-1.21,1.09c-0.34,0.5-0.61,1.13-0.79,1.9
			c-0.19,0.77-0.28,1.7-0.28,2.79c0,1.39,0.18,2.59,0.54,3.6c0.36,1.01,0.99,1.8,1.89,2.35s2.17,0.83,3.82,0.83
			c0.83,0,1.59-0.07,2.27-0.22s1.3-0.32,1.84-0.54c0.54-0.21,1.01-0.42,1.41-0.61h0.9v2.18c-0.97,0.67-2.21,1.31-3.7,1.91
			C1317.17,287,1315.57,287.3,1313.86,287.3z"/>
		<path d="M1327.04,273.22l-1.18-1.78c1.05-0.69,1.79-1.39,2.24-2.1s0.79-1.35,1.02-1.91c-0.59-0.39-1.08-0.74-1.48-1.04
			c-0.4-0.3-0.7-0.62-0.9-0.96c-0.2-0.34-0.3-0.76-0.3-1.26c0-0.39,0.11-0.81,0.34-1.23c0.23-0.43,0.57-0.79,1.01-1.09
			c0.44-0.3,0.98-0.45,1.61-0.45c1.28,0,2.22,0.39,2.82,1.17c0.6,0.78,0.9,1.84,0.9,3.18c0,0.88-0.18,1.69-0.54,2.43
			c-0.36,0.75-0.84,1.43-1.44,2.05c-0.6,0.62-1.25,1.18-1.96,1.67S1327.75,272.84,1327.04,273.22z"/>
		<path d="M1337.48,286.1v-4.94h2.77l0.48,1.47c0.05,0.17,0.14,0.33,0.26,0.49c0.12,0.15,0.24,0.27,0.36,0.36
			c0.45,0.33,1.02,0.64,1.73,0.92s1.52,0.42,2.45,0.42c0.55,0,1.06-0.1,1.5-0.29c0.45-0.19,0.81-0.46,1.08-0.8
			c0.27-0.34,0.41-0.74,0.41-1.2c0-0.65-0.22-1.14-0.66-1.47c-0.44-0.33-1.12-0.62-2.04-0.88c-0.52-0.15-1.1-0.3-1.74-0.46
			c-0.63-0.15-1.2-0.3-1.7-0.44c-1.58-0.44-2.75-1.1-3.5-1.98c-0.76-0.89-1.14-1.88-1.14-2.99c0-1.25,0.4-2.33,1.21-3.23
			c0.81-0.91,1.87-1.6,3.18-2.1s2.74-0.74,4.28-0.74c1.38,0,2.58,0.08,3.62,0.24c1.04,0.16,1.98,0.36,2.82,0.59v5.01h-2.75
			l-0.48-1.6c-0.06-0.15-0.16-0.29-0.29-0.42s-0.25-0.23-0.37-0.3c-0.36-0.25-0.86-0.47-1.49-0.69c-0.63-0.21-1.29-0.32-1.98-0.32
			c-0.81,0-1.44,0.18-1.87,0.55c-0.44,0.37-0.66,0.82-0.66,1.35c0,0.62,0.26,1.14,0.78,1.55s1.26,0.76,2.23,1.02
			c0.55,0.15,1.13,0.3,1.73,0.46c0.6,0.15,1.14,0.31,1.63,0.46c1.49,0.45,2.61,1.09,3.35,1.91c0.74,0.83,1.11,1.85,1.11,3.06
			c0,1.44-0.42,2.62-1.26,3.54c-0.84,0.92-1.94,1.59-3.28,2.02c-1.34,0.43-2.77,0.65-4.29,0.65c-1.45,0-2.84-0.14-4.18-0.41
			S1338.34,286.38,1337.48,286.1z"/>
		<path d="M1367.78,294.58v-4.45h1.36c0.26,0.07,0.62,0.16,1.1,0.25c0.47,0.09,0.97,0.18,1.48,0.26c0.51,0.09,0.97,0.15,1.37,0.2
			c0.4,0.05,0.65,0.07,0.76,0.07c0.15,0,0.34-0.01,0.56-0.03c0.22-0.02,0.37-0.06,0.43-0.13c0.16-0.16,0.34-0.37,0.53-0.63
			c0.19-0.26,0.4-0.62,0.63-1.07c0.23-0.45,0.49-1.05,0.78-1.78l-1.97-2.85l-5.74-12.8c-0.09-0.2-0.19-0.36-0.33-0.46
			c-0.13-0.11-0.28-0.2-0.44-0.27l-1.52-0.66v-1.47h10.21v1.47l-2.45,0.88l3.55,7.84l0.8,2.3h0.38l3.84-9.54l-2.35-1.49v-1.47h7.62
			v1.47l-1.52,1.14c-0.15,0.11-0.3,0.22-0.45,0.35s-0.26,0.27-0.32,0.43l-7.1,17.55c-0.62,1.51-1.34,2.66-2.15,3.43
			c-0.82,0.77-1.68,1.29-2.59,1.55s-1.82,0.39-2.71,0.39c-0.15,0-0.49-0.03-1.02-0.08c-0.53-0.05-1.06-0.12-1.61-0.2
			S1367.98,294.65,1367.78,294.58z"/>
		<path d="M1400.13,287.34c-1.94,0-3.65-0.37-5.12-1.1c-1.47-0.74-2.62-1.81-3.44-3.23c-0.82-1.42-1.23-3.15-1.23-5.18
			c0-1.88,0.41-3.54,1.22-4.98c0.82-1.44,1.97-2.57,3.46-3.38c1.49-0.81,3.26-1.22,5.3-1.22c2.21,0,4.03,0.43,5.48,1.28
			s2.53,2,3.24,3.44s1.07,3.03,1.07,4.78c0,1.86-0.41,3.51-1.22,4.95c-0.81,1.45-1.96,2.58-3.46,3.4
			C1403.95,286.92,1402.18,287.34,1400.13,287.34z M1400.36,284.76c0.78,0,1.42-0.19,1.94-0.58c0.51-0.39,0.92-0.91,1.22-1.56
			c0.3-0.65,0.51-1.37,0.63-2.15c0.12-0.78,0.18-1.58,0.18-2.38c0-1.29-0.14-2.49-0.41-3.58c-0.27-1.1-0.72-1.99-1.34-2.66
			c-0.62-0.68-1.45-1.02-2.48-1.02c-0.78,0-1.42,0.19-1.94,0.58c-0.51,0.38-0.92,0.9-1.22,1.54c-0.3,0.64-0.51,1.35-0.63,2.13
			c-0.12,0.78-0.18,1.56-0.18,2.35c0,0.88,0.07,1.74,0.2,2.61c0.13,0.86,0.36,1.65,0.67,2.37c0.31,0.71,0.75,1.29,1.3,1.72
			C1398.85,284.54,1399.53,284.76,1400.36,284.76z"/>
		<path d="M1421.04,287.22c-1.09,0-2.08-0.21-2.97-0.62c-0.89-0.41-1.6-1.06-2.14-1.95c-0.53-0.89-0.8-2.05-0.8-3.46v-8.75
			c0-0.22-0.06-0.39-0.19-0.5s-0.27-0.19-0.42-0.26l-2.06-0.88v-1.55l8.08-0.83v10.64c0,0.98,0.07,1.82,0.22,2.52
			c0.14,0.7,0.43,1.23,0.87,1.59s1.09,0.54,1.97,0.54c0.93,0,1.66-0.12,2.19-0.37c0.53-0.25,0.95-0.6,1.25-1.06v-9.86
			c0-0.22-0.06-0.39-0.18-0.49c-0.12-0.1-0.28-0.19-0.46-0.26l-2.03-0.88v-1.55l8.06-0.83v14.78c0,0.22,0.06,0.39,0.18,0.49
			c0.12,0.1,0.27,0.19,0.44,0.26l2.05,0.88v1.55l-7.7,0.82v-2.98h-0.24c-0.7,0.87-1.51,1.59-2.41,2.15
			S1422.62,287.22,1421.04,287.22z"/>
		<path d="M1437.6,286.89v-1.5l2.06-0.88c0.18-0.09,0.33-0.18,0.45-0.28c0.12-0.1,0.18-0.26,0.18-0.47v-10.51
			c0-0.5-0.03-0.83-0.09-1s-0.21-0.3-0.46-0.41l-2.3-1.02v-1.55l7.97-0.83v3.73h0.21c0.7-1.12,1.38-1.96,2.03-2.51
			s1.28-0.92,1.89-1.1c0.61-0.18,1.19-0.26,1.74-0.26c0.52,0,1.05,0.06,1.58,0.19s1.04,0.37,1.52,0.72v5.62h-3.97l-0.48-1.2
			c-0.08-0.18-0.24-0.39-0.5-0.63c-0.26-0.24-0.57-0.36-0.94-0.36c-0.34,0-0.66,0.05-0.97,0.14c-0.3,0.09-0.61,0.25-0.9,0.47
			c-0.3,0.22-0.62,0.53-0.96,0.91v9.62c0,0.36,0.21,0.61,0.62,0.75l2.8,0.88v1.5H1437.6z"/>
		<path d="M1209.69,329.16v-7.06h2.5l0.8,3.02c0.05,0.2,0.17,0.38,0.34,0.54s0.38,0.31,0.6,0.45c0.28,0.16,0.68,0.36,1.22,0.61
			c0.53,0.25,1.11,0.47,1.74,0.66s1.2,0.3,1.72,0.3c1.44,0,2.63-0.29,3.56-0.87c0.93-0.58,1.4-1.38,1.4-2.39
			c0-0.95-0.29-1.62-0.87-2.02c-0.58-0.39-1.36-0.79-2.34-1.18c-0.96-0.37-1.91-0.69-2.84-0.94c-0.93-0.26-1.84-0.55-2.73-0.88
			c-1.35-0.52-2.46-1.29-3.32-2.3c-0.86-1.01-1.29-2.33-1.29-3.98c0-1.5,0.45-2.81,1.35-3.9c0.9-1.1,2.08-1.95,3.52-2.54
			c1.45-0.6,2.98-0.9,4.62-0.9c0.93,0,1.89,0.06,2.89,0.17c1,0.11,1.95,0.25,2.87,0.42c0.92,0.17,1.72,0.32,2.4,0.47v6.86h-2.5
			l-0.82-2.93c-0.05-0.16-0.16-0.31-0.31-0.46c-0.15-0.15-0.3-0.27-0.44-0.35c-0.16-0.1-0.46-0.24-0.9-0.43s-0.93-0.37-1.49-0.52
			c-0.55-0.15-1.09-0.23-1.62-0.23c-1.4,0-2.45,0.29-3.14,0.88c-0.7,0.59-1.05,1.23-1.05,1.92c0,0.75,0.24,1.38,0.73,1.89
			s1.39,0.99,2.73,1.42c0.89,0.3,1.76,0.57,2.62,0.82c0.86,0.25,1.81,0.58,2.83,0.98c0.85,0.33,1.63,0.75,2.34,1.25
			c0.71,0.5,1.28,1.14,1.71,1.91c0.43,0.77,0.65,1.74,0.65,2.9c0,1.41-0.39,2.71-1.17,3.91s-1.96,2.17-3.54,2.9
			c-1.58,0.73-3.58,1.1-6,1.1c-0.79,0-1.7-0.08-2.73-0.23c-1.03-0.15-2.07-0.35-3.14-0.58
			C1211.54,329.63,1210.57,329.39,1209.69,329.16z"/>
		<path d="M1231.96,328.58l2.05-0.88c0.22-0.1,0.38-0.19,0.48-0.29c0.1-0.1,0.14-0.25,0.14-0.46V308.1c0-0.21-0.06-0.37-0.18-0.47
			c-0.12-0.1-0.27-0.19-0.44-0.28l-2.26-1.2v-1.55h8.27v8.61l-0.18,1.54c0.63-0.95,1.29-1.66,1.98-2.12
			c0.69-0.46,1.39-0.77,2.1-0.92s1.38-0.22,2.02-0.22c1.09,0,2.09,0.2,3.01,0.59c0.92,0.4,1.66,1.03,2.22,1.92
			c0.56,0.89,0.84,2.06,0.84,3.54v9.34c0,0.26,0.06,0.43,0.17,0.54c0.11,0.1,0.26,0.2,0.44,0.3l1.89,0.88v1.5h-10.18v-1.5l1.63-0.88
			c0.17-0.1,0.32-0.19,0.45-0.3c0.13-0.1,0.19-0.28,0.19-0.54v-7.2c0-1.07-0.09-1.94-0.26-2.63c-0.17-0.69-0.49-1.2-0.95-1.54
			s-1.13-0.5-2.01-0.5c-0.5,0-1.09,0.08-1.76,0.24c-0.67,0.16-1.21,0.56-1.6,1.2v10.51c0,0.21,0.06,0.36,0.17,0.45
			c0.11,0.09,0.26,0.19,0.46,0.3l1.52,0.88v1.5h-10.21V328.58z"/>
		<path d="M1266.84,330.54c-1.94,0-3.65-0.37-5.12-1.1c-1.47-0.74-2.62-1.81-3.44-3.23c-0.82-1.42-1.23-3.15-1.23-5.18
			c0-1.88,0.41-3.54,1.22-4.98s1.97-2.57,3.46-3.38c1.49-0.81,3.26-1.22,5.29-1.22c2.21,0,4.04,0.43,5.48,1.28s2.53,2,3.24,3.44
			s1.07,3.03,1.07,4.78c0,1.86-0.41,3.51-1.22,4.95c-0.81,1.45-1.96,2.58-3.46,3.4S1268.89,330.54,1266.84,330.54z M1267.06,327.96
			c0.78,0,1.42-0.19,1.94-0.58c0.51-0.39,0.92-0.91,1.22-1.56c0.3-0.65,0.51-1.37,0.63-2.15c0.12-0.78,0.18-1.58,0.18-2.38
			c0-1.29-0.14-2.49-0.41-3.58c-0.27-1.1-0.72-1.99-1.34-2.66c-0.62-0.68-1.45-1.02-2.48-1.02c-0.78,0-1.42,0.19-1.94,0.58
			c-0.51,0.38-0.92,0.9-1.21,1.54c-0.3,0.64-0.51,1.35-0.63,2.13c-0.12,0.78-0.18,1.56-0.18,2.35c0,0.88,0.07,1.74,0.2,2.61
			c0.13,0.86,0.36,1.65,0.67,2.37c0.31,0.71,0.75,1.29,1.3,1.72C1265.55,327.74,1266.24,327.96,1267.06,327.96z"/>
		<path d="M1279.45,338.28v-1.49l2.16-0.93c0.19-0.09,0.34-0.17,0.46-0.26c0.11-0.09,0.17-0.24,0.17-0.46v-19.5
			c0-0.22-0.06-0.39-0.19-0.5s-0.27-0.19-0.43-0.26l-2.05-0.88v-1.55l7.71-0.83v3.01h0.29c0.5-0.75,1.08-1.35,1.73-1.82
			s1.35-0.8,2.1-1.02s1.51-0.32,2.3-0.32c1.51,0,2.81,0.38,3.89,1.14s1.9,1.8,2.48,3.12c0.58,1.32,0.86,2.81,0.86,4.47
			c0,1.85-0.34,3.53-1.02,5.06c-0.68,1.53-1.67,2.74-2.95,3.64s-2.84,1.35-4.66,1.35c-1.07,0-2.03-0.2-2.9-0.59
			c-0.86-0.39-1.5-0.85-1.92-1.38l0.16,1.31v5.5c0,0.22,0.06,0.38,0.18,0.47c0.12,0.09,0.27,0.17,0.46,0.25l2.61,0.96v1.49H1279.45z
			 M1287.62,316.47v10.08c0.28,0.19,0.63,0.34,1.06,0.45c0.43,0.11,0.85,0.18,1.26,0.23s0.75,0.07,0.99,0.07
			c1.02,0,1.86-0.27,2.5-0.82c0.64-0.54,1.11-1.27,1.41-2.17s0.45-1.9,0.45-2.98c0-1.25-0.15-2.37-0.44-3.37
			c-0.29-1-0.76-1.79-1.39-2.37c-0.63-0.58-1.47-0.87-2.5-0.87c-0.81,0-1.51,0.2-2.1,0.6
			C1288.27,315.73,1287.86,316.11,1287.62,316.47z"/>
		<path d="M1303.54,338.28v-1.49l2.16-0.93c0.19-0.09,0.34-0.17,0.46-0.26c0.11-0.09,0.17-0.24,0.17-0.46v-19.5
			c0-0.22-0.06-0.39-0.19-0.5s-0.27-0.19-0.43-0.26l-2.05-0.88v-1.55l7.71-0.83v3.01h0.29c0.5-0.75,1.08-1.35,1.73-1.82
			s1.35-0.8,2.1-1.02s1.51-0.32,2.3-0.32c1.51,0,2.81,0.38,3.89,1.14s1.9,1.8,2.48,3.12c0.58,1.32,0.86,2.81,0.86,4.47
			c0,1.85-0.34,3.53-1.02,5.06c-0.68,1.53-1.67,2.74-2.95,3.64s-2.84,1.35-4.66,1.35c-1.07,0-2.03-0.2-2.9-0.59
			c-0.86-0.39-1.5-0.85-1.92-1.38l0.16,1.31v5.5c0,0.22,0.06,0.38,0.18,0.47c0.12,0.09,0.27,0.17,0.46,0.25l2.61,0.96v1.49H1303.54z
			 M1311.72,316.47v10.08c0.28,0.19,0.63,0.34,1.06,0.45c0.43,0.11,0.85,0.18,1.26,0.23s0.75,0.07,0.99,0.07
			c1.02,0,1.86-0.27,2.5-0.82c0.64-0.54,1.11-1.27,1.41-2.17s0.45-1.9,0.45-2.98c0-1.25-0.15-2.37-0.44-3.37
			c-0.29-1-0.76-1.79-1.39-2.37c-0.63-0.58-1.47-0.87-2.5-0.87c-0.81,0-1.51,0.2-2.1,0.6
			C1312.36,315.73,1311.95,316.11,1311.72,316.47z"/>
		<path d="M1327.83,330.09v-1.5l2.66-0.96c0.2-0.07,0.36-0.17,0.48-0.27s0.18-0.27,0.18-0.48v-10.88c0-0.21-0.06-0.37-0.18-0.48
			c-0.12-0.11-0.28-0.2-0.46-0.27l-2.64-1.04v-1.55l8.67-0.34v14.56c0,0.21,0.06,0.38,0.19,0.5c0.13,0.12,0.27,0.2,0.43,0.26
			l2.66,0.96v1.5H1327.83z M1333.51,309.93c-0.54,0-1.08-0.13-1.61-0.39c-0.53-0.26-0.97-0.61-1.32-1.06
			c-0.35-0.44-0.53-0.94-0.53-1.48c0-0.89,0.35-1.55,1.05-2.01c0.7-0.45,1.5-0.68,2.41-0.68c1.07,0,1.93,0.21,2.59,0.62
			c0.66,0.41,0.99,1.03,0.99,1.86c0,0.59-0.17,1.12-0.51,1.59s-0.79,0.85-1.34,1.13C1334.7,309.79,1334.12,309.93,1333.51,309.93z"
			/>
		<path d="M1341.99,330.09v-1.5l2.08-0.88c0.18-0.1,0.33-0.19,0.45-0.29c0.12-0.1,0.18-0.25,0.18-0.46v-11.31
			c0-0.22-0.06-0.39-0.19-0.49c-0.13-0.1-0.27-0.19-0.43-0.26l-2.05-0.88v-1.55l7.7-0.83v2.83h0.26c0.7-0.9,1.4-1.55,2.1-1.98
			s1.38-0.69,2.05-0.82s1.32-0.18,1.95-0.18c1.11,0,2.12,0.21,3.02,0.62s1.63,1.07,2.17,1.96s0.81,2.05,0.81,3.46v9.34
			c0,0.26,0.06,0.43,0.17,0.54c0.11,0.1,0.26,0.2,0.46,0.3l1.82,0.88v1.5h-10.18v-1.5l1.63-0.88c0.19-0.11,0.35-0.21,0.48-0.3
			c0.13-0.1,0.19-0.27,0.19-0.53v-7.2c0-1-0.08-1.85-0.23-2.54s-0.45-1.22-0.9-1.58c-0.44-0.36-1.11-0.54-1.99-0.54
			c-0.59,0-1.21,0.08-1.86,0.25s-1.18,0.56-1.6,1.19v10.51c0,0.21,0.06,0.36,0.18,0.45s0.27,0.19,0.46,0.3l1.52,0.88v1.5H1341.99z"
			/>
		<path d="M1376.02,323.82c-0.86,0-1.57-0.04-2.1-0.11c-0.54-0.07-0.95-0.17-1.24-0.27c-0.22,0.11-0.44,0.3-0.66,0.59
			c-0.21,0.29-0.32,0.63-0.32,1.02c0,0.35,0.12,0.63,0.35,0.82s0.52,0.37,0.85,0.5h6.72c1.76,0,3.13,0.26,4.1,0.77
			c0.98,0.51,1.66,1.16,2.05,1.94s0.58,1.58,0.58,2.38c0,1.35-0.45,2.54-1.36,3.57c-0.91,1.02-2.15,1.82-3.74,2.39
			s-3.39,0.86-5.43,0.86c-1.75,0-3.32-0.18-4.7-0.53c-1.38-0.35-2.47-0.87-3.27-1.55s-1.2-1.51-1.2-2.48c0-1.11,0.39-1.95,1.17-2.53
			c0.78-0.58,1.78-1,3.01-1.26v-0.29c-0.53-0.12-1.04-0.32-1.52-0.62c-0.48-0.29-0.87-0.67-1.17-1.12c-0.3-0.45-0.45-0.97-0.45-1.54
			c0-0.69,0.18-1.29,0.55-1.8c0.37-0.51,0.82-0.91,1.35-1.22c0.53-0.3,1.05-0.5,1.55-0.58v-0.22c-0.42-0.22-0.88-0.54-1.39-0.95
			s-0.96-0.93-1.33-1.55s-0.56-1.36-0.56-2.22c0-1.25,0.33-2.35,1-3.31c0.67-0.96,1.62-1.71,2.85-2.25s2.7-0.81,4.39-0.81
			c0.97,0,1.83,0.06,2.59,0.18c0.76,0.12,1.49,0.23,2.21,0.34h6.32v2.74h-3.97v0.21c0.3,0.33,0.56,0.73,0.79,1.21
			s0.34,1.09,0.34,1.83c0,1.71-0.74,3.11-2.21,4.22C1380.72,323.26,1378.67,323.82,1376.02,323.82z M1376.74,335.88
			c0.73,0,1.45-0.1,2.17-0.29c0.72-0.19,1.32-0.53,1.81-1s0.73-1.14,0.73-2.01c0-0.55-0.23-1.07-0.7-1.54
			c-0.46-0.48-1.21-0.71-2.23-0.71h-5.63c-0.2,0.29-0.4,0.61-0.59,0.98c-0.19,0.36-0.29,0.83-0.29,1.39c0,0.63,0.17,1.15,0.5,1.56
			c0.33,0.41,0.75,0.74,1.26,0.98c0.51,0.24,1.03,0.41,1.56,0.5S1376.32,335.88,1376.74,335.88z M1376.05,321.82
			c0.6,0,1.11-0.14,1.54-0.42s0.77-0.73,1-1.34c0.23-0.61,0.35-1.4,0.35-2.38c0-1.39-0.26-2.4-0.78-3.05
			c-0.52-0.65-1.21-0.97-2.06-0.97c-0.44,0-0.86,0.12-1.27,0.37c-0.41,0.25-0.74,0.66-1,1.24c-0.26,0.58-0.38,1.38-0.38,2.41
			c0,1.47,0.25,2.53,0.74,3.18C1374.67,321.49,1375.29,321.82,1376.05,321.82z"/>
		<path d="M1400.98,330.09v-1.52l2.64-1.09c0.17-0.06,0.31-0.15,0.42-0.26c0.11-0.11,0.16-0.29,0.16-0.52v-17.02
			c0-0.22-0.06-0.39-0.18-0.49c-0.12-0.1-0.25-0.18-0.39-0.23l-2.64-1.09v-1.52h12.26c2.34,0,4.13,0.25,5.38,0.76
			s2.11,1.16,2.58,1.96c0.47,0.8,0.7,1.65,0.7,2.54c0,1.51-0.45,2.75-1.35,3.72s-2.12,1.63-3.67,2.01v0.21
			c1.28,0.06,2.42,0.34,3.41,0.82s1.77,1.13,2.34,1.95s0.85,1.79,0.85,2.9c0,1.37-0.27,2.5-0.81,3.39c-0.54,0.9-1.27,1.6-2.19,2.1
			c-0.92,0.51-1.96,0.86-3.13,1.07c-1.16,0.21-2.37,0.31-3.62,0.31H1400.98z M1409.79,309.35v7.15h1.62c1.75,0,2.96-0.29,3.62-0.87
			c0.66-0.58,0.99-1.38,0.99-2.39c0-1.37-0.32-2.35-0.95-2.97s-1.67-0.92-3.11-0.92H1409.79z M1409.79,319.29v7.79h3.3
			c1.47,0,2.56-0.29,3.27-0.87c0.71-0.58,1.06-1.52,1.06-2.81c0-1.51-0.37-2.58-1.1-3.19s-2-0.92-3.82-0.92H1409.79z"/>
		<path d="M1426.4,330.09v-1.5l2.66-0.96c0.2-0.07,0.36-0.17,0.48-0.27c0.12-0.11,0.18-0.27,0.18-0.48v-10.88
			c0-0.21-0.06-0.37-0.18-0.48c-0.12-0.11-0.27-0.2-0.46-0.27l-2.64-1.04v-1.55l8.67-0.34v14.56c0,0.21,0.06,0.38,0.19,0.5
			c0.13,0.12,0.27,0.2,0.43,0.26l2.66,0.96v1.5H1426.4z M1432.08,309.93c-0.54,0-1.08-0.13-1.61-0.39
			c-0.53-0.26-0.97-0.61-1.32-1.06c-0.35-0.44-0.53-0.94-0.53-1.48c0-0.89,0.35-1.55,1.05-2.01c0.7-0.45,1.5-0.68,2.41-0.68
			c1.07,0,1.93,0.21,2.59,0.62c0.66,0.41,0.99,1.03,0.99,1.86c0,0.59-0.17,1.12-0.51,1.59c-0.34,0.47-0.79,0.85-1.34,1.13
			C1433.27,309.79,1432.69,309.93,1432.08,309.93z"/>
		<path d="M1440.13,330.09v-1.5l2.67-0.96c0.2-0.07,0.36-0.17,0.47-0.27c0.11-0.11,0.17-0.27,0.17-0.48V308.1
			c0-0.21-0.07-0.38-0.21-0.49c-0.14-0.11-0.28-0.2-0.43-0.26l-2.83-1.2v-1.55h8.85v22.27c0,0.21,0.07,0.38,0.21,0.5
			c0.14,0.12,0.28,0.2,0.43,0.26l2.64,0.96v1.5H1440.13z"/>
		<path d="M1453.87,330.09v-1.5l2.67-0.96c0.2-0.07,0.36-0.17,0.47-0.27c0.11-0.11,0.17-0.27,0.17-0.48V308.1
			c0-0.21-0.07-0.38-0.21-0.49c-0.14-0.11-0.28-0.2-0.43-0.26l-2.83-1.2v-1.55h8.85v22.27c0,0.21,0.07,0.38,0.21,0.5
			c0.14,0.12,0.28,0.2,0.43,0.26l2.64,0.96v1.5H1453.87z"/>
		<path d="M1469.59,327.11c0-0.95,0.33-1.75,0.98-2.42c0.66-0.66,1.46-0.99,2.42-0.99c0.95,0,1.76,0.33,2.42,0.99
			c0.67,0.66,1,1.47,1,2.43s-0.33,1.76-1,2.41c-0.67,0.65-1.47,0.97-2.42,0.97c-0.96,0-1.77-0.32-2.42-0.97
			C1469.91,328.89,1469.59,328.08,1469.59,327.11z"/>
	</g>
</g>
<g>
	<polygon class="st2" points="1390.8,660.45 1395.35,655.14 1386.06,655.14 	"/>
	<path class="st2" d="M1219.42,424.57v354.86h195.12v-50.58c0-2.18,0.87-4.31,2.37-5.86c1.5-1.54,3.57-2.43,5.7-2.43h51.31V608.71
		l-71.96,84.02c-2.73,3.19-6.66,5.03-10.94,5.08c-4.07,0-7.99-1.77-10.74-4.85l-33.78-37.82h-97.49v-24.6h166.99v0.47l14.26-16.65
		h-181.25v-24.6h194.65v8.95l30.25-35.32V424.57H1219.42z M1443.68,573.58h-194.65v-24.6h194.65V573.58z M1443.68,532.79h-166.29
		v-24.6h166.29V532.79z"/>
	<path class="st4" d="M1473.93,720.57h-51.31c-2.13,0-4.2,0.88-5.7,2.43c-1.5,1.54-2.37,3.68-2.37,5.86v50.58h-195.12V424.57h254.51
		v138.83l16.13-18.83V416.29c0-2.18-0.86-4.31-2.36-5.86c-1.5-1.54-3.58-2.43-5.71-2.43h-270.63c-2.13,0-4.2,0.88-5.71,2.43
		c-1.5,1.54-2.36,3.68-2.36,5.86v371.43c0,2.18,0.86,4.31,2.36,5.86c1.5,1.54,3.57,2.43,5.71,2.43h221.34
		c2.12,0,4.18-0.87,5.68-2.41l24.87-25.38l0.03-0.03l24.43-25.2c1.5-1.55,2.35-3.67,2.35-5.85V589.88l-16.13,18.83V720.57z
		 M1430.68,779.73v-42.59h42.96L1430.68,779.73z"/>
	<polygon class="st2" points="1430.68,779.73 1473.64,737.13 1430.68,737.13 	"/>
	<rect x="1277.39" y="508.2" class="st5" width="166.29" height="24.6"/>
	<rect x="1249.03" y="548.98" class="st5" width="194.65" height="24.6"/>
	<polygon class="st5" points="1249.03,589.76 1249.03,614.36 1430.28,614.36 1443.68,598.71 1443.68,589.76 	"/>
	<path class="st5" d="M1249.03,630.54v24.6h97.49l-5.8-6.49l-7.14-7.99c-1.19-1.34-1.39-3.33-0.49-4.89
		c0.73-1.27,2.06-2.02,3.45-2.02l0.96,0.12l37.02,9.36c0.77,0.2,1.46,0.62,1.99,1.22l9.56,10.69h9.29l20.67-24.13v-0.47H1249.03z"/>
	<path class="st6" d="M1531.63,535.1l-15.85-14.33c-0.73-0.67-1.67-1.03-2.65-1.03l-0.26,0.01c-1.07,0.07-2.06,0.57-2.76,1.39
		l-20.06,23.42l-16.13,18.83l-30.25,35.32l-13.4,15.65l-14.26,16.65l-20.67,24.13l-4.55,5.31l-4.74-5.31l-9.56-10.69
		c-0.54-0.6-1.23-1.02-1.99-1.22l-37.02-9.36l-0.96-0.12c-1.39,0-2.72,0.75-3.45,2.02c-0.9,1.57-0.7,3.55,0.49,4.89l7.14,7.99
		l5.8,6.49l33.78,37.82c2.75,3.08,6.67,4.85,10.74,4.85c4.28-0.04,8.2-1.89,10.94-5.08l71.96-84.02l16.13-18.83l41.93-48.96
		C1533.47,539.21,1533.3,536.6,1531.63,535.1z"/>
</g>
</svg>
