<?xml version="1.0" encoding="utf-8"?>
<!-- Generator: Adobe Illustrator 27.8.1, SVG Export Plug-In . SVG Version: 6.00 Build 0)  -->
<svg version="1.1" id="Layer_1" xmlns="http://www.w3.org/2000/svg" xmlns:xlink="http://www.w3.org/1999/xlink" x="0px" y="0px"
	 viewBox="0 0 1920 1080" style="enable-background:new 0 0 1920 1080;" xml:space="preserve">
<style type="text/css">
	.st0{fill:#F6F0F8;}
	.st1{fill:#333343;}
	.st2{fill:#FFFFFF;}
	.st3{fill:#8282A8;}
	.st4{fill:#FAFAFA;}
	.st5{fill:#1A2E35;}
	.st6{fill:#375A64;}
	.st7{fill:#E1E1E1;}
</style>
<g>
	<g>
		<rect x="-2" y="0" class="st0" width="1922" height="1081"/>
	</g>
	<g>
		<path class="st1" d="M1565.82,212.8h-0.87v-90.44c0-29.99-24.61-54.3-54.97-54.3h-333.22c-30.36,0-54.97,24.31-54.97,54.3v90.44
			h-0.87c-3.96,0-7.18,3.17-7.18,7.09v62.56c0,3.91,3.21,7.09,7.18,7.09h0.87v14.92h-0.87c-3.96,0-7.18,3.17-7.18,7.09v62.56
			c0,3.91,3.21,7.09,7.18,7.09h0.87v547.89c0,29.99,24.61,54.3,54.97,54.3h333.22c30.36,0,54.97-24.31,54.97-54.3V327.91h0.87
			c3.96,0,7.18-3.17,7.18-7.09V219.89C1572.99,215.97,1569.78,212.8,1565.82,212.8z"/>
		<path class="st2" d="M1503.97,971h-316.66c-27.63,0-50.03-22.4-50.03-50.03v-789.9c0-27.63,22.4-50.03,50.03-50.03h316.66
			c27.63,0,50.03,22.4,50.03,50.03v789.9C1554,948.6,1531.6,971,1503.97,971z"/>
	</g>
	<g>
		<g>
			<path class="st3" d="M1316.95,914.59c-3.64,0-6.59,2.92-6.59,6.51c0,3.59,2.96,6.51,6.59,6.51c3.64,0,6.59-2.92,6.59-6.51
				C1323.54,917.51,1320.59,914.59,1316.95,914.59z"/>
			<path class="st3" d="M1343.36,927.71c-3.64,0-6.59-2.92-6.59-6.51c0-3.59,2.96-6.51,6.59-6.51s6.59,2.92,6.59,6.51
				C1349.96,924.79,1347,927.71,1343.36,927.71z M1343.36,916.82c-2.45,0-4.44,1.97-4.44,4.38s1.99,4.38,4.44,4.38
				s4.44-1.97,4.44-4.38S1345.81,916.82,1343.36,916.82z"/>
			<path class="st3" d="M1369.77,927.81c-3.64,0-6.59-2.92-6.59-6.51c0-3.59,2.96-6.51,6.59-6.51c3.64,0,6.59,2.92,6.59,6.51
				C1376.37,924.88,1373.41,927.81,1369.77,927.81z M1369.77,916.91c-2.45,0-4.44,1.97-4.44,4.38s1.99,4.38,4.44,4.38
				c2.45,0,4.44-1.97,4.44-4.38S1372.22,916.91,1369.77,916.91z"/>
		</g>
	</g>
</g>
<g>
	<g>
		<g>
			<g>
				<g>
					<g>
						<g>
							<g>
								<path class="st4" d="M1506.25,90.46l-60.96-0.28c-8.17-0.04-14.83,6.91-14.87,15.52l-0.05,11.14
									c-0.03,8.61-6.69,15.56-14.87,15.52l-118.83-0.55c-8.17-0.04-14.77-7.05-14.74-15.65l0.05-11.14
									c0.04-8.61-6.56-15.62-14.74-15.65l-21.44-0.1L1192.44,89c-26.5-0.12-48.08,21.42-48.19,48.11L1141,912.02
									c-0.11,26.68,21.26,48.39,47.75,48.52l313.81,1.46c26.5,0.12,48.08-21.42,48.19-48.11l3.25-774.92
									C1554.11,112.3,1532.74,90.58,1506.25,90.46z"/>
							</g>
						</g>
					</g>
				</g>
			</g>
		</g>
		<g>
			<path class="st5" d="M1184.9,172.83c-0.33,0-0.66-0.13-0.9-0.39l-4.78-5.03c-0.23-0.24-0.35-0.56-0.35-0.9
				c0.01-0.33,0.15-0.65,0.39-0.88l4.78-4.6c0.5-0.48,1.29-0.46,1.77,0.04c0.48,0.5,0.46,1.3-0.04,1.78l-3.88,3.73l3.92,4.12
				c0.48,0.5,0.46,1.3-0.04,1.78C1185.52,172.71,1185.21,172.83,1184.9,172.83z"/>
		</g>
		<g>
			<g>
				<path class="st6" d="M1505.39,916.12h-307.76c-8.9,0-16.12-7.22-16.12-16.12v-56.17c0-8.9,7.22-16.12,16.12-16.12h307.76
					c8.9,0,16.12,7.22,16.12,16.12v56.17C1521.51,908.9,1514.3,916.12,1505.39,916.12z"/>
			</g>
			<g>
				<path class="st4" d="M1311.08,861.66h7.9c6.21,0,10.39,4.02,10.39,9.77c0,5.75-4.19,9.77-10.39,9.77h-7.9V861.66z
					 M1318.86,879.42c5.16,0,8.48-3.29,8.48-7.98c0-4.69-3.33-7.99-8.48-7.99h-5.74v15.97H1318.86z"/>
				<path class="st4" d="M1332.24,871.43c0-5.69,4.32-9.94,10.2-9.94c5.82,0,10.17,4.22,10.17,9.94c0,5.72-4.35,9.94-10.17,9.94
					C1336.57,881.37,1332.24,877.13,1332.24,871.43z M1350.57,871.43c0-4.66-3.47-8.1-8.12-8.1c-4.69,0-8.18,3.43-8.18,8.1
					c0,4.66,3.49,8.1,8.18,8.1C1347.1,879.53,1350.57,876.09,1350.57,871.43z"/>
				<path class="st4" d="M1373.42,861.66v19.54h-1.69l-12.47-15.86v15.86h-2.05v-19.54h1.69l12.5,15.86v-15.86H1373.42z"/>
				<path class="st4" d="M1393.46,879.42v1.79h-13.72v-19.54h13.3v1.79h-11.25v6.95h10.03v1.76h-10.03v7.26H1393.46z"/>
			</g>
		</g>
		<g>
			<path class="st5" d="M1222.32,561.86c0,3.57-2.56,5.72-6.79,5.72h-4.47v5.29h-1.76v-16.75h6.22
				C1219.75,556.12,1222.32,558.27,1222.32,561.86z M1220.56,561.86c0-2.68-1.76-4.21-5.08-4.21h-4.42v8.37h4.42
				C1218.8,566.02,1220.56,564.49,1220.56,561.86z"/>
			<path class="st5" d="M1237.26,560.28v12.58h-1.62v-2.3c-0.88,1.53-2.49,2.42-4.49,2.42c-3.18,0-5.27-1.79-5.27-5.41v-7.3h1.69
				v7.13c0,2.68,1.38,4.04,3.75,4.04c2.61,0,4.25-1.7,4.25-4.57v-6.6H1237.26z"/>
			<path class="st5" d="M1248.29,560.19v1.65c-0.14,0-0.29-0.02-0.4-0.02c-2.61,0-4.2,1.67-4.2,4.64v6.41h-1.69v-12.58h1.62v2.46
				C1244.39,561.07,1245.99,560.19,1248.29,560.19z"/>
			<path class="st5" d="M1249.95,566.57c0-3.76,2.71-6.39,6.44-6.39c2.11,0,3.89,0.84,4.89,2.49l-1.26,0.86
				c-0.86-1.27-2.19-1.87-3.63-1.87c-2.73,0-4.73,1.96-4.73,4.91c0,2.97,2,4.9,4.73,4.9c1.45,0,2.78-0.57,3.63-1.84l1.26,0.86
				c-1,1.63-2.78,2.49-4.89,2.49C1252.66,572.99,1249.95,570.33,1249.95,566.57z"/>
			<path class="st5" d="M1275.9,565.57v7.3h-1.69v-7.13c0-2.65-1.38-4.02-3.75-4.02c-2.68,0-4.37,1.67-4.37,4.54v6.6h-1.69v-17.75
				h1.69v7.37c0.93-1.46,2.56-2.3,4.68-2.3C1273.81,560.19,1275.9,561.96,1275.9,565.57z"/>
			<path class="st5" d="M1289.92,565.07v7.8h-1.61v-1.96c-0.76,1.29-2.23,2.08-4.3,2.08c-2.83,0-4.56-1.48-4.56-3.66
				c0-1.94,1.23-3.56,4.82-3.56h3.97v-0.77c0-2.15-1.21-3.33-3.54-3.33c-1.61,0-3.13,0.58-4.16,1.48l-0.76-1.27
				c1.26-1.08,3.11-1.7,5.08-1.7C1288.09,560.19,1289.92,561.81,1289.92,565.07z M1288.23,569.09v-2.06h-3.92
				c-2.42,0-3.21,0.96-3.21,2.25c0,1.46,1.16,2.37,3.16,2.37C1286.16,571.65,1287.57,570.74,1288.23,569.09z"/>
			<path class="st5" d="M1292.77,571.43l0.76-1.34c1,0.79,2.68,1.41,4.44,1.41c2.38,0,3.35-0.81,3.35-2.06c0-3.28-8.1-0.69-8.1-5.67
				c0-2.06,1.76-3.59,4.94-3.59c1.61,0,3.37,0.45,4.42,1.17l-0.74,1.36c-1.09-0.77-2.4-1.08-3.68-1.08c-2.26,0-3.26,0.88-3.26,2.08
				c0,3.4,8.1,0.84,8.1,5.67c0,2.17-1.9,3.59-5.15,3.59C1295.79,572.99,1293.79,572.31,1292.77,571.43z"/>
			<path class="st5" d="M1317,567.1h-10.45c0.19,2.63,2.19,4.38,4.92,4.38c1.52,0,2.87-0.55,3.82-1.65l0.95,1.1
				c-1.12,1.34-2.85,2.06-4.82,2.06c-3.9,0-6.56-2.68-6.56-6.41c0-3.73,2.59-6.39,6.1-6.39c3.52,0,6.06,2.61,6.06,6.39
				C1317.03,566.72,1317,566.91,1317,567.1z M1306.55,565.83h8.86c-0.21-2.47-2-4.19-4.44-4.19
				C1308.55,561.65,1306.76,563.37,1306.55,565.83z"/>
			<path class="st5" d="M1345.04,560.28l-4.73,12.58h-1.59l-3.94-10.31l-3.94,10.31h-1.59l-4.7-12.58h1.62l3.92,10.69l4.01-10.69
				h1.45l3.99,10.69l3.97-10.69H1345.04z"/>
			<path class="st5" d="M1356.63,565.07v7.8h-1.62v-1.96c-0.76,1.29-2.23,2.08-4.3,2.08c-2.83,0-4.56-1.48-4.56-3.66
				c0-1.94,1.24-3.56,4.82-3.56h3.97v-0.77c0-2.15-1.21-3.33-3.54-3.33c-1.62,0-3.14,0.58-4.16,1.48l-0.76-1.27
				c1.26-1.08,3.11-1.7,5.08-1.7C1354.81,560.19,1356.63,561.81,1356.63,565.07z M1354.95,569.09v-2.06h-3.92
				c-2.42,0-3.21,0.96-3.21,2.25c0,1.46,1.16,2.37,3.16,2.37C1352.88,571.65,1354.28,570.74,1354.95,569.09z"/>
			<path class="st5" d="M1359.49,571.43l0.76-1.34c1,0.79,2.68,1.41,4.44,1.41c2.37,0,3.35-0.81,3.35-2.06c0-3.28-8.1-0.69-8.1-5.67
				c0-2.06,1.76-3.59,4.94-3.59c1.62,0,3.37,0.45,4.42,1.17l-0.73,1.36c-1.09-0.77-2.4-1.08-3.68-1.08c-2.26,0-3.26,0.88-3.26,2.08
				c0,3.4,8.1,0.84,8.1,5.67c0,2.17-1.9,3.59-5.16,3.59C1362.5,572.99,1360.51,572.31,1359.49,571.43z"/>
			<path class="st5" d="M1377.33,571.43l0.76-1.34c1,0.79,2.68,1.41,4.44,1.41c2.37,0,3.35-0.81,3.35-2.06c0-3.28-8.1-0.69-8.1-5.67
				c0-2.06,1.76-3.59,4.94-3.59c1.62,0,3.37,0.45,4.42,1.17l-0.73,1.36c-1.09-0.77-2.4-1.08-3.68-1.08c-2.26,0-3.26,0.88-3.26,2.08
				c0,3.4,8.1,0.84,8.1,5.67c0,2.17-1.9,3.59-5.16,3.59C1380.35,572.99,1378.36,572.31,1377.33,571.43z"/>
			<path class="st5" d="M1401.95,560.28v12.58h-1.62v-2.3c-0.88,1.53-2.49,2.42-4.49,2.42c-3.18,0-5.27-1.79-5.27-5.41v-7.3h1.69
				v7.13c0,2.68,1.38,4.04,3.75,4.04c2.61,0,4.25-1.7,4.25-4.57v-6.6H1401.95z"/>
			<path class="st5" d="M1405.42,566.57c0-3.76,2.71-6.39,6.44-6.39c2.11,0,3.89,0.84,4.89,2.49l-1.26,0.86
				c-0.85-1.27-2.18-1.87-3.63-1.87c-2.73,0-4.73,1.96-4.73,4.91c0,2.97,1.99,4.9,4.73,4.9c1.45,0,2.78-0.57,3.63-1.84l1.26,0.86
				c-1,1.63-2.78,2.49-4.89,2.49C1408.13,572.99,1405.42,570.33,1405.42,566.57z"/>
			<path class="st5" d="M1418.58,566.57c0-3.76,2.71-6.39,6.44-6.39c2.11,0,3.89,0.84,4.89,2.49l-1.26,0.86
				c-0.85-1.27-2.18-1.87-3.63-1.87c-2.73,0-4.73,1.96-4.73,4.91c0,2.97,1.99,4.9,4.73,4.9c1.45,0,2.78-0.57,3.63-1.84l1.26,0.86
				c-1,1.63-2.78,2.49-4.89,2.49C1421.29,572.99,1418.58,570.33,1418.58,566.57z"/>
			<path class="st5" d="M1443.88,567.1h-10.45c0.19,2.63,2.18,4.38,4.92,4.38c1.52,0,2.87-0.55,3.82-1.65l0.95,1.1
				c-1.12,1.34-2.85,2.06-4.82,2.06c-3.89,0-6.55-2.68-6.55-6.41c0-3.73,2.59-6.39,6.11-6.39c3.51,0,6.06,2.61,6.06,6.39
				C1443.9,566.72,1443.88,566.91,1443.88,567.1z M1433.43,565.83h8.86c-0.21-2.47-2-4.19-4.44-4.19
				C1435.42,561.65,1433.64,563.37,1433.43,565.83z"/>
			<path class="st5" d="M1445.62,571.43l0.76-1.34c1,0.79,2.68,1.41,4.44,1.41c2.37,0,3.35-0.81,3.35-2.06c0-3.28-8.1-0.69-8.1-5.67
				c0-2.06,1.76-3.59,4.94-3.59c1.62,0,3.37,0.45,4.42,1.17l-0.73,1.36c-1.09-0.77-2.4-1.08-3.68-1.08c-2.26,0-3.26,0.88-3.26,2.08
				c0,3.4,8.1,0.84,8.1,5.67c0,2.17-1.9,3.59-5.16,3.59C1448.63,572.99,1446.64,572.31,1445.62,571.43z"/>
			<path class="st5" d="M1457.24,571.43l0.76-1.34c1,0.79,2.68,1.41,4.44,1.41c2.37,0,3.35-0.81,3.35-2.06c0-3.28-8.1-0.69-8.1-5.67
				c0-2.06,1.76-3.59,4.94-3.59c1.62,0,3.37,0.45,4.42,1.17l-0.73,1.36c-1.09-0.77-2.4-1.08-3.68-1.08c-2.26,0-3.26,0.88-3.26,2.08
				c0,3.4,8.1,0.84,8.1,5.67c0,2.17-1.9,3.59-5.16,3.59C1460.25,572.99,1458.26,572.31,1457.24,571.43z"/>
			<path class="st5" d="M1472.51,558.8v1.48h3.85v1.44h-3.8v11.15h-1.69v-11.15h-2.24v-1.44h2.24v-1.56c0-2.25,1.33-3.73,3.78-3.73
				c0.93,0,1.88,0.27,2.49,0.79l-0.57,1.27c-0.48-0.41-1.14-0.62-1.85-0.62C1473.27,556.43,1472.51,557.24,1472.51,558.8z"/>
			<path class="st5" d="M1489.9,560.28v12.58h-1.62v-2.3c-0.88,1.53-2.49,2.42-4.49,2.42c-3.18,0-5.27-1.79-5.27-5.41v-7.3h1.69
				v7.13c0,2.68,1.38,4.04,3.75,4.04c2.61,0,4.25-1.7,4.25-4.57v-6.6H1489.9z"/>
			<path class="st5" d="M1494.64,555.11h1.69v17.75h-1.69V555.11z"/>
		</g>
		<g>
			<path class="st6" d="M1232.49,493.48h-10.55v-5.04h27.02v5.04h-10.55v27.03h-5.91V493.48z"/>
			<path class="st6" d="M1276.79,506.49v14.02h-5.69v-13.29c0-4.35-2.14-6.46-5.78-6.46c-4.05,0-6.78,2.47-6.78,7.38v12.37h-5.69
				v-33.99h5.69v12.37c1.87-2.02,4.73-3.12,8.1-3.12C1272.47,495.77,1276.79,499.11,1276.79,506.49z"/>
			<path class="st6" d="M1304.36,506.17v14.34h-5.37v-2.98c-1.37,2.11-4,3.3-7.64,3.3c-5.55,0-9.05-3.07-9.05-7.33
				c0-4.08,2.73-7.28,10.1-7.28h6.28v-0.37c0-3.34-2-5.31-6.05-5.31c-2.73,0-5.55,0.92-7.37,2.43l-2.23-4.17
				c2.59-2.02,6.37-3.02,10.28-3.02C1300.31,495.77,1304.36,499.11,1304.36,506.17z M1298.67,512.86v-2.84h-5.87
				c-3.87,0-4.91,1.47-4.91,3.25c0,2.06,1.73,3.39,4.64,3.39C1295.3,516.66,1297.71,515.38,1298.67,512.86z"/>
			<path class="st6" d="M1335.55,506.49v14.02h-5.69v-13.29c0-4.35-2.14-6.46-5.78-6.46c-4.05,0-6.78,2.47-6.78,7.38v12.37h-5.69
				v-24.46h5.41v3.16c1.86-2.24,4.82-3.44,8.37-3.44C1331.23,495.77,1335.55,499.11,1335.55,506.49z"/>
			<path class="st6" d="M1352.7,510.02l-4.23,4.03v6.46h-5.69v-33.99h5.69v20.52l11.78-11h6.82l-10.14,10.26l11.1,14.2h-6.91
				L1352.7,510.02z"/>
			<path class="st6" d="M1407,496.04l-11.37,26.43c-2.23,5.54-5.32,7.24-9.37,7.24c-2.41,0-4.96-0.83-6.51-2.25l2.27-4.21
				c1.09,1.05,2.64,1.7,4.19,1.7c2,0,3.18-0.96,4.28-3.39l0.41-0.96l-10.6-24.55h5.91l7.64,18.1l7.69-18.1H1407z"/>
			<path class="st6" d="M1407.86,508.27c0-7.33,5.46-12.51,12.92-12.51c7.55,0,12.97,5.18,12.97,12.51
				c0,7.33-5.41,12.55-12.97,12.55C1413.32,520.83,1407.86,515.6,1407.86,508.27z M1428.01,508.27c0-4.67-3.09-7.65-7.23-7.65
				c-4.09,0-7.19,2.98-7.19,7.65c0,4.67,3.09,7.65,7.19,7.65C1424.92,515.93,1428.01,512.95,1428.01,508.27z"/>
			<path class="st6" d="M1462.71,496.04v24.46h-5.41v-3.12c-1.82,2.25-4.69,3.44-7.83,3.44c-6.23,0-10.46-3.44-10.46-10.81v-13.97
				h5.69v13.19c0,4.45,2.09,6.55,5.69,6.55c3.96,0,6.64-2.47,6.64-7.38v-12.37H1462.71z"/>
			<path class="st6" d="M1469.12,517.26c0-1.97,1.55-3.53,3.68-3.53c2.09,0,3.59,1.56,3.59,3.53c0,1.97-1.5,3.57-3.59,3.57
				C1470.67,520.83,1469.12,519.22,1469.12,517.26z M1469.44,488.44h6.73l-1.14,21.44h-4.5L1469.44,488.44z"/>
		</g>
		<g>
			<g>
				<g>
					<ellipse class="st6" cx="1353.77" cy="374.55" rx="65.42" ry="65.89"/>
				</g>
				<g>
					<g>
						<path class="st2" d="M1385.98,346.75c0.84,0.68-11.38,17.24-27.29,36.97c-3.39,4.14-6.64,8.12-9.64,11.77l-1.32,1.61
							l-1.41-1.47c-12.42-12.89-20.91-22.47-20.31-23.07c0.6-0.61,10.11,7.94,22.91,20.45l-2.73,0.14c2.94-3.7,6.13-7.72,9.46-11.91
							C1371.57,361.51,1385.15,346.06,1385.98,346.75z"/>
					</g>
				</g>
			</g>
			<g>
				<path class="st6" d="M1446.7,348c-1.94-6.92-10.87-6.25-10.87-6.25l0.25,4.81c5.16-0.9,8.37,5.2,8.37,5.2L1446.7,348z"/>
			</g>
			<g>
				<path class="st7" d="M1257.2,362.51c-1.94-6.92-10.87-6.25-10.87-6.25l0.25,4.81c5.16-0.9,8.37,5.2,8.37,5.2L1257.2,362.51z"/>
			</g>
			<g>
				<path class="st7" d="M1361.58,266.77c10.36,3.16,16.81-8.87,16.81-8.87l-6.3-3.62c-3.08,7.37-13.43,6.52-13.43,6.52
					L1361.58,266.77z"/>
			</g>
			<g>
				<path class="st6" d="M1304.08,279.73c-4.82,0.52-5.4,6.61-5.4,6.61l3.23,0.39c-0.01-3.58,4.41-5.05,4.41-5.05L1304.08,279.73z"
					/>
			</g>
			<g>
				<path class="st7" d="M1502.83,324.31c0.7-4.83-5.02-6.91-5.02-6.91l-1.17,3.05c3.45,0.88,3.76,5.56,3.76,5.56L1502.83,324.31z"
					/>
			</g>
			<g>
				<path class="st6" d="M1332.21,216.12c0.7-4.83-5.02-6.91-5.02-6.91l-1.17,3.05c3.45,0.88,3.76,5.56,3.76,5.56L1332.21,216.12z"
					/>
			</g>
			<g>
				<path class="st6" d="M1213.07,294.06c-0.87,7.58,9.1,9.41,9.1,9.41l1.8-4.96c-5.98-0.54-6.84-7.64-6.84-7.64L1213.07,294.06z"/>
			</g>
			<g>
				<path class="st6" d="M1434.87,266.61c4.84,0.28,6.39-5.64,6.39-5.64l-3.12-0.91c-0.57,3.54-5.17,4.26-5.17,4.26L1434.87,266.61z
					"/>
			</g>
			<g>
				<g>
					<g>
						<g>
							<path class="st7" d="M1461.32,286.49c0,0.22-1.79,0.39-4,0.39c-2.21,0-4-0.18-4-0.39c0-0.22,1.79-0.39,4-0.39
								C1459.53,286.1,1461.32,286.27,1461.32,286.49z"/>
						</g>
					</g>
					<g>
						<g>
							<path class="st7" d="M1465.56,275.54c0.22,0,0.39,1.83,0.39,4.08c0,2.26-0.17,4.08-0.39,4.08c-0.22,0-0.39-1.83-0.39-4.08
								C1465.17,277.37,1465.35,275.54,1465.56,275.54z"/>
						</g>
					</g>
				</g>
				<g>
					<g>
						<g>
							<path class="st7" d="M1470.08,286.23c0-0.22,1.79-0.39,4-0.39c2.21,0,4,0.18,4,0.39c0,0.22-1.79,0.39-4,0.39
								C1471.87,286.62,1470.08,286.44,1470.08,286.23z"/>
						</g>
					</g>
					<g>
						<g>
							<path class="st7" d="M1465.84,297.18c-0.22,0-0.39-1.83-0.39-4.08c0-2.26,0.17-4.08,0.39-4.08c0.22,0,0.39,1.83,0.39,4.08
								C1466.23,295.35,1466.05,297.18,1465.84,297.18z"/>
						</g>
					</g>
				</g>
				<g>
					<g>
						<path class="st7" d="M1472.3,292.48c-0.17,0.14-0.94-0.52-1.72-1.46c-0.78-0.95-1.29-1.83-1.12-1.97
							c0.17-0.14,0.94,0.52,1.72,1.46C1471.96,291.46,1472.47,292.34,1472.3,292.48z"/>
					</g>
				</g>
				<g>
					<g>
						<path class="st7" d="M1471.93,280.06c0.15,0.15-0.38,0.95-1.2,1.78c-0.82,0.83-1.6,1.38-1.75,1.22
							c-0.15-0.15,0.38-0.95,1.2-1.78C1470.99,280.46,1471.77,279.91,1471.93,280.06z"/>
					</g>
				</g>
				<g>
					<g>
						<path class="st7" d="M1462.76,283.23c-0.14,0.17-0.88-0.22-1.65-0.87c-0.78-0.65-1.29-1.31-1.15-1.48
							c0.14-0.17,0.88,0.22,1.65,0.88C1462.39,282.4,1462.9,283.06,1462.76,283.23z"/>
					</g>
				</g>
				<g>
					<g>
						<path class="st7" d="M1462.4,288.7c0.16,0.15-0.31,0.93-1.05,1.75c-0.74,0.82-1.47,1.36-1.63,1.22
							c-0.16-0.15,0.31-0.93,1.05-1.75C1461.52,289.1,1462.25,288.55,1462.4,288.7z"/>
					</g>
				</g>
			</g>
			<g>
				<g>
					<g>
						<g>
							<path class="st6" d="M1243.63,264.06c0,0.22-1.79,0.39-4,0.39c-2.21,0-4-0.18-4-0.39c0-0.22,1.79-0.39,4-0.39
								C1241.84,263.66,1243.63,263.84,1243.63,264.06z"/>
						</g>
					</g>
					<g>
						<g>
							<path class="st6" d="M1247.87,253.11c0.22,0,0.39,1.83,0.39,4.08c0,2.26-0.17,4.08-0.39,4.08c-0.22,0-0.39-1.83-0.39-4.08
								C1247.48,254.93,1247.66,253.11,1247.87,253.11z"/>
						</g>
					</g>
				</g>
				<g>
					<g>
						<g>
							<path class="st6" d="M1252.39,263.79c0-0.22,1.79-0.39,4-0.39c2.21,0,4,0.18,4,0.39c0,0.22-1.79,0.39-4,0.39
								C1254.18,264.19,1252.39,264.01,1252.39,263.79z"/>
						</g>
					</g>
					<g>
						<g>
							<path class="st6" d="M1248.15,274.74c-0.22,0-0.39-1.83-0.39-4.08c0-2.26,0.17-4.08,0.39-4.08c0.22,0,0.39,1.83,0.39,4.08
								C1248.54,272.92,1248.36,274.74,1248.15,274.74z"/>
						</g>
					</g>
				</g>
				<g>
					<g>
						<path class="st6" d="M1254.61,270.05c-0.17,0.14-0.94-0.52-1.72-1.46c-0.78-0.95-1.29-1.83-1.12-1.97
							c0.17-0.14,0.94,0.52,1.72,1.46C1254.27,269.03,1254.77,269.91,1254.61,270.05z"/>
					</g>
				</g>
				<g>
					<g>
						<path class="st6" d="M1254.24,257.63c0.15,0.15-0.38,0.95-1.2,1.78c-0.82,0.83-1.6,1.38-1.75,1.22
							c-0.15-0.15,0.38-0.95,1.2-1.78C1253.3,258.02,1254.08,257.48,1254.24,257.63z"/>
					</g>
				</g>
				<g>
					<g>
						<path class="st6" d="M1245.07,260.79c-0.14,0.17-0.88-0.22-1.65-0.87c-0.78-0.65-1.29-1.31-1.15-1.48
							c0.14-0.17,0.88,0.22,1.65,0.88C1244.69,259.96,1245.21,260.63,1245.07,260.79z"/>
					</g>
				</g>
				<g>
					<g>
						<path class="st6" d="M1244.71,266.27c0.16,0.15-0.31,0.93-1.05,1.75c-0.74,0.82-1.47,1.36-1.63,1.22
							c-0.16-0.15,0.31-0.93,1.05-1.74C1243.83,266.66,1244.55,266.12,1244.71,266.27z"/>
					</g>
				</g>
			</g>
		</g>
		<g>
			<g>
				<g>
					<path class="st5" d="M1520.19,159.35c0,0.36-7.9,0.66-17.65,0.66c-9.75,0-17.65-0.29-17.65-0.66c0-0.36,7.9-0.66,17.65-0.66
						C1512.29,158.69,1520.19,158.99,1520.19,159.35z"/>
				</g>
			</g>
			<g>
				<g>
					<path class="st5" d="M1520.19,166.75c0,0.36-7.9,0.66-17.65,0.66c-9.75,0-17.65-0.29-17.65-0.66c0-0.36,7.9-0.66,17.65-0.66
						C1512.29,166.1,1520.19,166.39,1520.19,166.75z"/>
				</g>
			</g>
			<g>
				<g>
					<path class="st5" d="M1520.19,174.16c0,0.36-7.9,0.66-17.65,0.66c-9.75,0-17.65-0.29-17.65-0.66c0-0.36,7.9-0.66,17.65-0.66
						C1512.29,173.5,1520.19,173.8,1520.19,174.16z"/>
				</g>
			</g>
		</g>
	</g>
	<rect x="1260.89" y="89" class="st4" width="201.07" height="45.72"/>
</g>
<g>
	<g>
		<path d="M99.35,433.99h2.47v4.53c-1.19,0.97-2.67,1.97-4.42,2.99s-3.69,1.89-5.81,2.59c-2.11,0.7-4.33,1.06-6.66,1.06
			c-4.59,0-8.6-0.92-12.05-2.75c-3.44-1.84-6.12-4.47-8.04-7.89c-1.92-3.42-2.87-7.53-2.87-12.31c0-4.72,0.99-8.82,2.98-12.28
			c1.98-3.46,4.72-6.14,8.2-8.04c3.48-1.9,7.47-2.84,11.96-2.84c1.63,0,3.44,0.13,5.45,0.39c2,0.26,3.94,0.56,5.81,0.91
			c1.87,0.35,3.4,0.66,4.62,0.94v12.48H96.4l-1.55-5.9c-0.06-0.24-0.25-0.49-0.58-0.76c-0.33-0.27-0.6-0.46-0.82-0.58
			c-1.03-0.58-2.08-1.06-3.16-1.46c-1.07-0.4-2.3-0.6-3.69-0.6c-4.03,0-7.26,1.34-9.68,4.01c-2.42,2.67-3.63,6.75-3.63,12.25
			c0,5.74,1.33,10.09,3.98,13.07c2.65,2.98,6.25,4.47,10.79,4.47c1.79,0,3.4-0.24,4.84-0.73c1.44-0.49,2.7-1.06,3.78-1.73
			S98.65,434.53,99.35,433.99z"/>
		<path d="M125.67,445.04c-3.61,0-6.79-0.69-9.53-2.05c-2.74-1.37-4.87-3.38-6.4-6.02s-2.29-5.86-2.29-9.65
			c0-3.49,0.76-6.58,2.28-9.26c1.52-2.68,3.67-4.77,6.45-6.28c2.78-1.51,6.06-2.26,9.86-2.26c4.11,0,7.51,0.79,10.2,2.38
			c2.69,1.59,4.7,3.72,6.03,6.4c1.33,2.68,2,5.65,2,8.9c0,3.45-0.75,6.53-2.26,9.22c-1.51,2.69-3.65,4.8-6.43,6.33
			C132.78,444.28,129.48,445.04,125.67,445.04z M126.09,440.25c1.45,0,2.65-0.36,3.6-1.09c0.95-0.72,1.71-1.69,2.26-2.9
			c0.56-1.21,0.95-2.55,1.18-4c0.23-1.46,0.34-2.93,0.34-4.42c0-2.4-0.25-4.62-0.76-6.67c-0.51-2.04-1.34-3.7-2.49-4.96
			c-1.15-1.26-2.69-1.89-4.62-1.89c-1.45,0-2.65,0.36-3.6,1.07c-0.95,0.71-1.71,1.67-2.26,2.86c-0.56,1.19-0.95,2.51-1.18,3.96
			c-0.23,1.45-0.34,2.91-0.34,4.38c0,1.63,0.12,3.25,0.37,4.85c0.25,1.61,0.67,3.08,1.25,4.41c0.58,1.33,1.39,2.4,2.41,3.2
			C123.28,439.84,124.56,440.25,126.09,440.25z"/>
		<path d="M149.64,444.21v-2.8l3.87-1.64c0.34-0.18,0.62-0.36,0.83-0.54c0.22-0.18,0.33-0.47,0.33-0.86v-21.05
			c0-0.42-0.12-0.72-0.36-0.91s-0.51-0.35-0.8-0.49l-3.81-1.64v-2.89l14.32-1.55v5.27h0.48c1.31-1.67,2.61-2.89,3.9-3.68
			c1.29-0.78,2.56-1.29,3.81-1.52c1.25-0.23,2.46-0.34,3.63-0.34c2.06,0,3.94,0.39,5.63,1.16c1.69,0.77,3.03,1.99,4.04,3.65
			c1,1.66,1.5,3.81,1.5,6.45v17.39c0,0.48,0.1,0.81,0.31,1c0.21,0.19,0.49,0.37,0.85,0.55l3.39,1.64v2.8h-18.94v-2.8l3.04-1.64
			c0.36-0.2,0.66-0.39,0.89-0.57c0.24-0.18,0.36-0.51,0.36-0.98v-13.4c0-1.87-0.14-3.44-0.43-4.73c-0.29-1.29-0.84-2.27-1.67-2.95
			c-0.82-0.67-2.06-1.01-3.71-1.01c-1.09,0-2.24,0.15-3.45,0.46s-2.2,1.05-2.98,2.22v19.56c0,0.4,0.11,0.68,0.33,0.83
			c0.22,0.16,0.51,0.35,0.86,0.57l2.83,1.64v2.8H149.64z"/>
		<path d="M212.98,432.53c-1.61,0-2.91-0.07-3.92-0.21c-1-0.14-1.77-0.31-2.31-0.51c-0.42,0.2-0.82,0.57-1.22,1.1
			c-0.4,0.54-0.6,1.17-0.6,1.91c0,0.65,0.22,1.17,0.66,1.53c0.44,0.37,0.96,0.68,1.58,0.94h12.51c3.28,0,5.82,0.48,7.64,1.43
			c1.82,0.95,3.09,2.16,3.81,3.62c0.72,1.46,1.09,2.93,1.09,4.42c0,2.52-0.84,4.73-2.53,6.64s-4,3.39-6.95,4.45
			c-2.95,1.06-6.32,1.59-10.11,1.59c-3.26,0-6.17-0.33-8.74-0.98c-2.57-0.66-4.6-1.62-6.09-2.89s-2.23-2.81-2.23-4.62
			c0-2.06,0.72-3.63,2.17-4.71s3.32-1.86,5.6-2.35v-0.54c-0.99-0.22-1.94-0.6-2.83-1.15c-0.89-0.55-1.62-1.24-2.17-2.08
			c-0.56-0.84-0.83-1.8-0.83-2.87c0-1.29,0.34-2.41,1.03-3.35s1.52-1.7,2.52-2.26c0.99-0.57,1.96-0.93,2.89-1.09v-0.42
			c-0.77-0.42-1.64-1.01-2.59-1.77c-0.95-0.76-1.78-1.73-2.47-2.89c-0.7-1.16-1.04-2.54-1.04-4.12c0-2.32,0.62-4.38,1.86-6.16
			s3.01-3.18,5.3-4.18c2.29-1,5.02-1.5,8.17-1.5c1.81,0,3.41,0.11,4.82,0.33c1.41,0.22,2.78,0.43,4.11,0.63h11.76v5.09h-7.38v0.39
			c0.56,0.62,1.05,1.37,1.47,2.25c0.43,0.88,0.64,2.02,0.64,3.41c0,3.18-1.37,5.79-4.11,7.85S217.9,432.53,212.98,432.53z
			 M214.32,454.99c1.35,0,2.7-0.18,4.04-0.54s2.46-0.98,3.37-1.86c0.9-0.88,1.35-2.13,1.35-3.74c0-1.03-0.43-1.99-1.29-2.87
			c-0.86-0.88-2.25-1.33-4.15-1.33h-10.48c-0.38,0.54-0.75,1.14-1.1,1.82c-0.36,0.67-0.54,1.54-0.54,2.59c0,1.17,0.31,2.14,0.92,2.9
			c0.62,0.76,1.39,1.37,2.34,1.82c0.94,0.45,1.91,0.76,2.9,0.94C212.66,454.9,213.54,454.99,214.32,454.99z M213.04,428.81
			c1.11,0,2.07-0.26,2.87-0.79c0.8-0.53,1.42-1.35,1.86-2.49c0.44-1.13,0.66-2.61,0.66-4.44c0-2.58-0.49-4.47-1.46-5.67
			c-0.97-1.2-2.25-1.8-3.84-1.8c-0.81,0-1.6,0.23-2.37,0.68c-0.76,0.46-1.38,1.23-1.86,2.31c-0.48,1.08-0.71,2.58-0.71,4.48
			c0,2.74,0.46,4.71,1.37,5.91C210.47,428.21,211.63,428.81,213.04,428.81z"/>
		<path d="M238.05,444.21v-2.8l3.84-1.64c0.34-0.16,0.62-0.33,0.83-0.52c0.22-0.19,0.33-0.48,0.33-0.88v-19.56
			c0-0.93-0.06-1.55-0.16-1.86c-0.11-0.31-0.39-0.56-0.85-0.76l-4.29-1.91v-2.89l14.83-1.55v6.94h0.39
			c1.31-2.08,2.57-3.64,3.78-4.68c1.21-1.03,2.38-1.71,3.51-2.04s2.21-0.49,3.25-0.49c0.97,0,1.96,0.12,2.95,0.36
			c0.99,0.24,1.94,0.69,2.83,1.34v10.45h-7.38l-0.89-2.23c-0.14-0.34-0.45-0.73-0.94-1.18c-0.49-0.45-1.07-0.67-1.74-0.67
			c-0.64,0-1.24,0.08-1.8,0.25c-0.57,0.17-1.13,0.46-1.68,0.88c-0.56,0.42-1.15,0.98-1.79,1.7v17.9c0,0.68,0.39,1.14,1.16,1.4
			l5.21,1.64v2.8H238.05z"/>
		<path d="M283.97,444.83c-2.1,0-3.91-0.47-5.4-1.41c-1.5-0.94-2.65-2.16-3.44-3.65s-1.19-3.06-1.19-4.7c0-2.14,0.52-3.99,1.55-5.52
			c1.03-1.54,2.36-2.79,3.99-3.75c1.63-0.96,3.36-1.67,5.21-2.13c1.85-0.46,3.57-0.68,5.18-0.68c0.32,0,0.87,0.03,1.65,0.1
			c0.78,0.07,1.57,0.15,2.37,0.24s1.33,0.15,1.61,0.19v-2.53c0-2.18-0.37-3.85-1.12-5c-0.74-1.15-2.07-1.73-3.97-1.73
			c-0.85,0-1.82,0.24-2.9,0.73c-1.08,0.49-2.17,1.08-3.28,1.77c-1.1,0.7-2.12,1.38-3.07,2.05c-0.94,0.68-1.71,1.19-2.31,1.55h-2.32
			v-8.13c1.51-0.44,2.99-0.86,4.45-1.28s3.05-0.76,4.76-1.03c1.72-0.27,3.71-0.4,5.97-0.4c2.36,0,4.6,0.29,6.7,0.86
			c2.1,0.58,3.82,1.64,5.15,3.2c1.33,1.56,2,3.82,2,6.77v16.29c0,0.81,0.25,1.47,0.76,1.98c0.51,0.51,1.06,0.76,1.65,0.76
			c0.46,0,0.95-0.04,1.49-0.13s1.04-0.19,1.52-0.31h1.16v3.19c-0.56,0.36-1.32,0.75-2.29,1.18c-0.97,0.43-1.99,0.79-3.04,1.09
			c-1.05,0.3-2.01,0.45-2.86,0.45c-2.64,0-4.6-0.47-5.87-1.4c-1.27-0.93-1.91-2.37-1.91-4.32h-0.48c-1.09,1.65-2.32,2.88-3.69,3.71
			c-1.37,0.82-2.75,1.37-4.15,1.62C286.45,444.7,285.16,444.83,283.97,444.83z M289.27,438.91c1.01,0,2.12-0.24,3.32-0.71
			c1.2-0.48,2.17-1.28,2.9-2.41v-8.19c-2.2,0-4.14,0.18-5.82,0.54s-2.98,0.99-3.92,1.89c-0.93,0.9-1.4,2.18-1.4,3.83
			c0,1.33,0.26,2.36,0.79,3.1c0.53,0.73,1.17,1.25,1.94,1.53C287.84,438.76,288.57,438.91,289.27,438.91z"/>
		<path d="M340.93,410.47v5.33h-11.91v18.08c0,0.97,0.35,1.83,1.06,2.56c0.7,0.73,1.53,1.31,2.49,1.71s1.78,0.61,2.47,0.61
			c0.63,0,1.46-0.03,2.47-0.09c1.01-0.06,1.77-0.13,2.26-0.21h1.46v3.07c-0.5,0.28-1.33,0.68-2.49,1.19s-2.51,0.98-4.04,1.4
			s-3.1,0.63-4.71,0.63c-1.95,0-3.76-0.28-5.43-0.85c-1.68-0.57-3.03-1.37-4.05-2.41c-1.02-1.04-1.53-2.27-1.53-3.68V415.8h-5.45
			v-4.73c1.21-0.16,2.26-0.33,3.14-0.52c0.88-0.19,1.58-0.58,2.1-1.18c0.52-0.6,0.81-1.58,0.89-2.95l0.3-4.73l9.05-1.28v10.06
			H340.93z"/>
		<path d="M359.6,444.83c-2.03,0-3.87-0.38-5.52-1.15c-1.66-0.76-2.98-1.98-3.98-3.63c-0.99-1.66-1.49-3.81-1.49-6.45v-16.29
			c0-0.42-0.12-0.72-0.36-0.92c-0.24-0.2-0.5-0.36-0.77-0.48l-3.84-1.64v-2.89l15.04-1.55v19.8c0,1.83,0.13,3.39,0.4,4.69
			s0.81,2.29,1.62,2.96c0.81,0.67,2.03,1.01,3.66,1.01c1.73,0,3.09-0.23,4.08-0.69c0.99-0.46,1.77-1.11,2.32-1.97v-18.34
			c0-0.42-0.11-0.72-0.34-0.91c-0.23-0.19-0.51-0.35-0.85-0.49l-3.78-1.64v-2.89l15.01-1.55v27.51c0,0.42,0.11,0.72,0.34,0.91
			c0.23,0.19,0.5,0.35,0.82,0.49l3.81,1.64v2.89l-14.32,1.52v-5.54h-0.45c-1.31,1.63-2.8,2.96-4.48,4S362.54,444.83,359.6,444.83z"
			/>
		<path d="M389.41,444.21v-2.8l4.97-1.79c0.38-0.14,0.67-0.31,0.88-0.51c0.21-0.2,0.31-0.5,0.31-0.89v-34.93
			c0-0.4-0.13-0.7-0.39-0.91c-0.26-0.21-0.53-0.37-0.8-0.49l-5.27-2.23v-2.89h16.47v41.45c0,0.4,0.13,0.71,0.39,0.92
			c0.26,0.22,0.53,0.38,0.8,0.48l4.91,1.79v2.8H389.41z"/>
		<path d="M426.54,444.83c-2.1,0-3.91-0.47-5.4-1.41c-1.5-0.94-2.65-2.16-3.44-3.65s-1.19-3.06-1.19-4.7c0-2.14,0.52-3.99,1.55-5.52
			c1.03-1.54,2.36-2.79,3.99-3.75c1.63-0.96,3.36-1.67,5.21-2.13c1.85-0.46,3.57-0.68,5.18-0.68c0.32,0,0.87,0.03,1.65,0.1
			c0.78,0.07,1.57,0.15,2.37,0.24s1.33,0.15,1.61,0.19v-2.53c0-2.18-0.37-3.85-1.12-5c-0.74-1.15-2.07-1.73-3.97-1.73
			c-0.85,0-1.82,0.24-2.9,0.73c-1.08,0.49-2.17,1.08-3.28,1.77c-1.1,0.7-2.12,1.38-3.07,2.05c-0.94,0.68-1.71,1.19-2.31,1.55h-2.32
			v-8.13c1.51-0.44,2.99-0.86,4.45-1.28s3.05-0.76,4.76-1.03c1.72-0.27,3.71-0.4,5.97-0.4c2.36,0,4.6,0.29,6.7,0.86
			c2.1,0.58,3.82,1.64,5.15,3.2c1.33,1.56,2,3.82,2,6.77v16.29c0,0.81,0.25,1.47,0.76,1.98c0.51,0.51,1.06,0.76,1.65,0.76
			c0.46,0,0.95-0.04,1.49-0.13s1.04-0.19,1.52-0.31h1.16v3.19c-0.56,0.36-1.32,0.75-2.29,1.18c-0.97,0.43-1.99,0.79-3.04,1.09
			c-1.05,0.3-2.01,0.45-2.86,0.45c-2.64,0-4.6-0.47-5.87-1.4c-1.27-0.93-1.91-2.37-1.91-4.32h-0.48c-1.09,1.65-2.32,2.88-3.69,3.71
			c-1.37,0.82-2.75,1.37-4.15,1.62C429.03,444.7,427.73,444.83,426.54,444.83z M431.84,438.91c1.01,0,2.12-0.24,3.32-0.71
			c1.2-0.48,2.17-1.28,2.9-2.41v-8.19c-2.2,0-4.14,0.18-5.82,0.54s-2.98,0.99-3.92,1.89c-0.93,0.9-1.4,2.18-1.4,3.83
			c0,1.33,0.26,2.36,0.79,3.1c0.53,0.73,1.17,1.25,1.94,1.53C430.42,438.76,431.15,438.91,431.84,438.91z"/>
		<path d="M483.51,410.47v5.33H471.6v18.08c0,0.97,0.35,1.83,1.06,2.56c0.7,0.73,1.53,1.31,2.49,1.71s1.78,0.61,2.47,0.61
			c0.63,0,1.46-0.03,2.47-0.09c1.01-0.06,1.77-0.13,2.26-0.21h1.46v3.07c-0.5,0.28-1.33,0.68-2.49,1.19s-2.51,0.98-4.04,1.4
			s-3.1,0.63-4.71,0.63c-1.95,0-3.76-0.28-5.43-0.85c-1.68-0.57-3.03-1.37-4.05-2.41c-1.02-1.04-1.53-2.27-1.53-3.68V415.8h-5.45
			v-4.73c1.21-0.16,2.26-0.33,3.14-0.52c0.88-0.19,1.58-0.58,2.1-1.18c0.52-0.6,0.81-1.58,0.89-2.95l0.3-4.73l9.05-1.28v10.06
			H483.51z"/>
		<path d="M487.08,444.21v-2.8l4.94-1.79c0.38-0.14,0.67-0.31,0.89-0.51s0.33-0.5,0.33-0.89v-20.25c0-0.4-0.11-0.69-0.34-0.89
			c-0.23-0.2-0.51-0.37-0.85-0.51l-4.91-1.94v-2.89l16.14-0.62v27.1c0,0.4,0.12,0.71,0.36,0.92s0.51,0.38,0.8,0.48l4.94,1.79v2.8
			H487.08z M497.65,406.69c-1.01,0-2.01-0.24-2.99-0.73c-0.98-0.49-1.8-1.14-2.46-1.97c-0.66-0.82-0.98-1.74-0.98-2.75
			c0-1.65,0.65-2.89,1.95-3.74c1.3-0.84,2.79-1.27,4.48-1.27c1.98,0,3.59,0.38,4.82,1.15c1.23,0.76,1.85,1.92,1.85,3.47
			c0,1.09-0.32,2.08-0.95,2.96c-0.64,0.88-1.46,1.58-2.49,2.1C499.86,406.43,498.78,406.69,497.65,406.69z"/>
		<path d="M532.04,445.04c-3.61,0-6.79-0.69-9.53-2.05c-2.74-1.37-4.87-3.38-6.4-6.02c-1.53-2.64-2.29-5.86-2.29-9.65
			c0-3.49,0.76-6.58,2.28-9.26c1.52-2.68,3.67-4.77,6.45-6.28c2.78-1.51,6.06-2.26,9.86-2.26c4.11,0,7.51,0.79,10.2,2.38
			c2.69,1.59,4.7,3.72,6.03,6.4c1.33,2.68,2,5.65,2,8.9c0,3.45-0.75,6.53-2.26,9.22c-1.51,2.69-3.65,4.8-6.43,6.33
			C539.15,444.28,535.85,445.04,532.04,445.04z M532.46,440.25c1.45,0,2.65-0.36,3.6-1.09c0.95-0.72,1.71-1.69,2.26-2.9
			c0.56-1.21,0.95-2.55,1.18-4c0.23-1.46,0.34-2.93,0.34-4.42c0-2.4-0.25-4.62-0.76-6.67c-0.51-2.04-1.34-3.7-2.49-4.96
			s-2.69-1.89-4.62-1.89c-1.45,0-2.65,0.36-3.6,1.07c-0.95,0.71-1.71,1.67-2.26,2.86c-0.56,1.19-0.95,2.51-1.18,3.96
			c-0.23,1.45-0.34,2.91-0.34,4.38c0,1.63,0.12,3.25,0.37,4.85c0.25,1.61,0.67,3.08,1.25,4.41c0.58,1.33,1.39,2.4,2.41,3.2
			C529.66,439.84,530.93,440.25,532.46,440.25z"/>
		<path d="M556.01,444.21v-2.8l3.87-1.64c0.34-0.18,0.62-0.36,0.83-0.54c0.22-0.18,0.33-0.47,0.33-0.86v-21.05
			c0-0.42-0.12-0.72-0.36-0.91s-0.51-0.35-0.8-0.49l-3.81-1.64v-2.89l14.32-1.55v5.27h0.48c1.31-1.67,2.61-2.89,3.9-3.68
			c1.29-0.78,2.56-1.29,3.81-1.52c1.25-0.23,2.46-0.34,3.63-0.34c2.06,0,3.94,0.39,5.63,1.16c1.69,0.77,3.03,1.99,4.04,3.65
			c1,1.66,1.5,3.81,1.5,6.45v17.39c0,0.48,0.1,0.81,0.31,1c0.21,0.19,0.49,0.37,0.85,0.55l3.39,1.64v2.8H579v-2.8l3.04-1.64
			c0.36-0.2,0.66-0.39,0.89-0.57c0.24-0.18,0.36-0.51,0.36-0.98v-13.4c0-1.87-0.14-3.44-0.43-4.73c-0.29-1.29-0.84-2.27-1.67-2.95
			c-0.82-0.67-2.06-1.01-3.71-1.01c-1.09,0-2.24,0.15-3.45,0.46s-2.2,1.05-2.98,2.22v19.56c0,0.4,0.11,0.68,0.33,0.83
			c0.22,0.16,0.51,0.35,0.86,0.57l2.83,1.64v2.8H556.01z"/>
		<path d="M603.6,442.75v-9.2h5.15l0.89,2.74c0.1,0.32,0.26,0.62,0.49,0.91c0.23,0.29,0.45,0.51,0.67,0.67
			c0.83,0.62,1.91,1.19,3.22,1.71c1.31,0.53,2.83,0.79,4.56,0.79c1.03,0,1.97-0.18,2.8-0.54c0.83-0.36,1.5-0.85,2.01-1.49
			c0.51-0.64,0.76-1.38,0.76-2.23c0-1.21-0.41-2.12-1.24-2.74c-0.82-0.62-2.09-1.16-3.8-1.64c-0.97-0.28-2.05-0.56-3.23-0.85
			c-1.18-0.29-2.24-0.56-3.17-0.82c-2.94-0.81-5.11-2.04-6.52-3.69c-1.41-1.65-2.11-3.5-2.11-5.57c0-2.32,0.75-4.33,2.25-6.02
			c1.5-1.69,3.47-2.99,5.93-3.9c2.45-0.91,5.11-1.37,7.96-1.37c2.56,0,4.81,0.15,6.75,0.45c1.94,0.3,3.69,0.67,5.26,1.1v9.32h-5.12
			l-0.89-2.98c-0.12-0.28-0.3-0.54-0.54-0.77c-0.24-0.24-0.47-0.43-0.68-0.57c-0.67-0.46-1.6-0.88-2.77-1.28
			c-1.17-0.4-2.4-0.6-3.69-0.6c-1.51,0-2.67,0.34-3.48,1.03c-0.81,0.69-1.22,1.52-1.22,2.52c0,1.15,0.48,2.11,1.44,2.89
			s2.35,1.41,4.15,1.91c1.03,0.28,2.1,0.56,3.22,0.85c1.11,0.29,2.12,0.57,3.04,0.85c2.78,0.83,4.86,2.02,6.24,3.56
			c1.38,1.54,2.07,3.44,2.07,5.7c0,2.68-0.78,4.87-2.35,6.58c-1.57,1.71-3.6,2.96-6.1,3.77c-2.5,0.8-5.16,1.21-7.98,1.21
			c-2.7,0-5.3-0.25-7.79-0.76C607.25,443.78,605.2,443.26,603.6,442.75z"/>
		<path d="M643.97,456.56l-2.92-3.54c1.91-1.47,3.34-3.02,4.3-4.66c0.96-1.64,1.69-3.03,2.19-4.18c-1.13-0.73-2.08-1.4-2.86-2
			c-0.77-0.6-1.36-1.23-1.77-1.89c-0.41-0.66-0.61-1.48-0.61-2.46c0-0.73,0.22-1.51,0.66-2.34s1.07-1.53,1.91-2.11
			c0.83-0.59,1.86-0.88,3.07-0.88c2.54,0,4.37,0.78,5.48,2.34c1.11,1.56,1.67,3.66,1.67,6.3c0,1.67-0.37,3.26-1.1,4.78
			c-0.73,1.52-1.67,2.93-2.81,4.23c-1.14,1.3-2.35,2.49-3.63,3.57C646.25,454.8,645.07,455.75,643.97,456.56z"/>
		<path d="M683.46,458.53v-8.28h2.53c0.48,0.14,1.16,0.29,2.04,0.46c0.88,0.17,1.8,0.33,2.75,0.49c0.95,0.16,1.8,0.28,2.55,0.37
			c0.74,0.09,1.22,0.13,1.41,0.13c0.28,0,0.62-0.02,1.04-0.06c0.42-0.04,0.69-0.12,0.8-0.24c0.3-0.3,0.62-0.69,0.98-1.18
			s0.75-1.15,1.18-2s0.91-1.95,1.44-3.32l-3.66-5.3l-10.69-23.82c-0.16-0.38-0.36-0.66-0.61-0.86c-0.25-0.2-0.52-0.37-0.82-0.51
			l-2.83-1.22v-2.74h19v2.74l-4.56,1.64l6.61,14.59l1.49,4.29h0.71l7.15-17.75l-4.38-2.77v-2.74h14.17v2.74l-2.83,2.11
			c-0.28,0.2-0.56,0.42-0.83,0.65c-0.28,0.24-0.48,0.51-0.6,0.8l-13.22,32.67c-1.15,2.82-2.49,4.95-4,6.39
			c-1.52,1.44-3.13,2.4-4.82,2.89c-1.7,0.49-3.38,0.73-5.05,0.73c-0.28,0-0.91-0.05-1.89-0.15c-0.98-0.1-1.98-0.22-2.99-0.37
			S683.84,458.65,683.46,458.53z"/>
		<path d="M743.67,445.04c-3.61,0-6.79-0.69-9.53-2.05c-2.74-1.37-4.87-3.38-6.4-6.02c-1.53-2.64-2.29-5.86-2.29-9.65
			c0-3.49,0.76-6.58,2.28-9.26c1.52-2.68,3.67-4.77,6.45-6.28c2.78-1.51,6.06-2.26,9.86-2.26c4.11,0,7.51,0.79,10.2,2.38
			c2.69,1.59,4.7,3.72,6.03,6.4c1.33,2.68,2,5.65,2,8.9c0,3.45-0.75,6.53-2.26,9.22c-1.51,2.69-3.65,4.8-6.43,6.33
			C750.78,444.28,747.48,445.04,743.67,445.04z M744.09,440.25c1.45,0,2.65-0.36,3.6-1.09c0.95-0.72,1.71-1.69,2.26-2.9
			c0.56-1.21,0.95-2.55,1.18-4c0.23-1.46,0.34-2.93,0.34-4.42c0-2.4-0.25-4.62-0.76-6.67c-0.51-2.04-1.34-3.7-2.49-4.96
			s-2.69-1.89-4.62-1.89c-1.45,0-2.65,0.36-3.6,1.07c-0.95,0.71-1.71,1.67-2.26,2.86c-0.56,1.19-0.95,2.51-1.18,3.96
			c-0.23,1.45-0.34,2.91-0.34,4.38c0,1.63,0.12,3.25,0.37,4.85c0.25,1.61,0.67,3.08,1.25,4.41c0.58,1.33,1.39,2.4,2.41,3.2
			C741.28,439.84,742.56,440.25,744.09,440.25z"/>
		<path d="M782.59,444.83c-2.03,0-3.87-0.38-5.52-1.15c-1.66-0.76-2.98-1.98-3.98-3.63c-0.99-1.66-1.49-3.81-1.49-6.45v-16.29
			c0-0.42-0.12-0.72-0.36-0.92c-0.24-0.2-0.5-0.36-0.77-0.48l-3.84-1.64v-2.89l15.04-1.55v19.8c0,1.83,0.13,3.39,0.4,4.69
			s0.81,2.29,1.62,2.96c0.81,0.67,2.03,1.01,3.66,1.01c1.73,0,3.09-0.23,4.08-0.69c0.99-0.46,1.77-1.11,2.32-1.97v-18.34
			c0-0.42-0.11-0.72-0.34-0.91c-0.23-0.19-0.51-0.35-0.85-0.49l-3.78-1.64v-2.89l15.01-1.55v27.51c0,0.42,0.11,0.72,0.34,0.91
			c0.23,0.19,0.5,0.35,0.82,0.49l3.81,1.64v2.89l-14.32,1.52v-5.54h-0.45c-1.31,1.63-2.8,2.96-4.48,4S785.53,444.83,782.59,444.83z"
			/>
		<path d="M813.41,444.21v-2.8l3.84-1.64c0.34-0.16,0.62-0.33,0.83-0.52c0.22-0.19,0.33-0.48,0.33-0.88v-19.56
			c0-0.93-0.06-1.55-0.16-1.86c-0.11-0.31-0.39-0.56-0.85-0.76l-4.29-1.91v-2.89l14.83-1.55v6.94h0.39
			c1.31-2.08,2.57-3.64,3.78-4.68c1.21-1.03,2.38-1.71,3.51-2.04s2.21-0.49,3.25-0.49c0.97,0,1.96,0.12,2.95,0.36
			c0.99,0.24,1.94,0.69,2.83,1.34v10.45h-7.38l-0.89-2.23c-0.14-0.34-0.45-0.73-0.94-1.18c-0.49-0.45-1.07-0.67-1.74-0.67
			c-0.64,0-1.24,0.08-1.8,0.25c-0.57,0.17-1.13,0.46-1.68,0.88c-0.56,0.42-1.15,0.98-1.79,1.7v17.9c0,0.68,0.39,1.14,1.16,1.4
			l5.21,1.64v2.8H813.41z"/>
		<path d="M888.66,445.04c-3.12,0-5.95-0.31-8.5-0.94c-2.55-0.63-4.93-1.42-7.13-2.4v-38.41c0-0.4-0.12-0.69-0.37-0.86
			s-0.51-0.36-0.79-0.54l-4.2-2.23v-2.89h15.37v15.96l-0.3,3.28c1.13-1.98,2.44-3.43,3.92-4.33c1.48-0.9,2.9-1.48,4.26-1.73
			c1.36-0.25,2.42-0.37,3.17-0.37c2.82,0,5.23,0.71,7.24,2.13c2,1.42,3.54,3.36,4.6,5.82c1.06,2.46,1.59,5.26,1.59,8.4
			c0,3.45-0.73,6.63-2.17,9.53c-1.45,2.9-3.57,5.22-6.37,6.97C896.16,444.17,892.72,445.04,888.66,445.04z M888.83,440.22
			c1.92,0,3.49-0.55,4.69-1.65c1.2-1.1,2.09-2.58,2.67-4.42c0.58-1.85,0.86-3.88,0.86-6.1c0-2.34-0.27-4.45-0.82-6.33
			s-1.41-3.36-2.59-4.45c-1.18-1.09-2.73-1.64-4.66-1.64c-0.85,0-1.87,0.22-3.04,0.67c-1.17,0.45-2.14,1.31-2.92,2.58v19.03
			c0.52,0.58,1.15,1.03,1.91,1.37c0.75,0.34,1.49,0.58,2.2,0.73S888.42,440.22,888.83,440.22z"/>
		<path d="M912.75,444.21v-2.8l4.94-1.79c0.38-0.14,0.67-0.31,0.89-0.51s0.33-0.5,0.33-0.89v-20.25c0-0.4-0.11-0.69-0.34-0.89
			c-0.23-0.2-0.51-0.37-0.85-0.51l-4.91-1.94v-2.89l16.14-0.62v27.1c0,0.4,0.12,0.71,0.36,0.92s0.51,0.38,0.8,0.48l4.94,1.79v2.8
			H912.75z M923.32,406.69c-1.01,0-2.01-0.24-2.99-0.73c-0.98-0.49-1.8-1.14-2.46-1.97c-0.66-0.82-0.98-1.74-0.98-2.75
			c0-1.65,0.65-2.89,1.95-3.74c1.3-0.84,2.79-1.27,4.48-1.27c1.98,0,3.59,0.38,4.82,1.15c1.23,0.76,1.85,1.92,1.85,3.47
			c0,1.09-0.32,2.08-0.95,2.96c-0.64,0.88-1.46,1.58-2.49,2.1C925.52,406.43,924.45,406.69,923.32,406.69z"/>
		<path d="M938.29,444.21v-2.8l4.97-1.79c0.38-0.14,0.67-0.31,0.88-0.51c0.21-0.2,0.31-0.5,0.31-0.89v-34.93
			c0-0.4-0.13-0.7-0.39-0.91c-0.26-0.21-0.53-0.37-0.8-0.49l-5.27-2.23v-2.89h16.47v41.45c0,0.4,0.13,0.71,0.39,0.92
			c0.26,0.22,0.53,0.38,0.8,0.48l4.91,1.79v2.8H938.29z"/>
		<path d="M963.87,444.21v-2.8l4.97-1.79c0.38-0.14,0.67-0.31,0.88-0.51c0.21-0.2,0.31-0.5,0.31-0.89v-34.93
			c0-0.4-0.13-0.7-0.39-0.91c-0.26-0.21-0.53-0.37-0.8-0.49l-5.27-2.23v-2.89h16.47v41.45c0,0.4,0.13,0.71,0.39,0.92
			c0.26,0.22,0.53,0.38,0.8,0.48l4.91,1.79v2.8H963.87z"/>
		<path d="M61,521.81l3.81-1.64c0.42-0.18,0.71-0.36,0.89-0.54c0.18-0.18,0.27-0.47,0.27-0.86v-35.08c0-0.4-0.11-0.69-0.34-0.88
			c-0.23-0.19-0.5-0.36-0.82-0.52l-4.2-2.23v-2.89H76v16.02l-0.33,2.86c1.17-1.77,2.4-3.08,3.69-3.95c1.29-0.86,2.59-1.43,3.9-1.71
			c1.31-0.28,2.56-0.42,3.75-0.42c2.02,0,3.89,0.37,5.6,1.1c1.71,0.73,3.08,1.93,4.12,3.57c1.04,1.65,1.56,3.84,1.56,6.58v17.39
			c0,0.48,0.1,0.81,0.31,1c0.21,0.19,0.48,0.37,0.82,0.55l3.51,1.64v2.8H84.01v-2.8l3.04-1.64c0.32-0.18,0.6-0.36,0.83-0.55
			c0.24-0.19,0.36-0.52,0.36-1v-13.4c0-1.98-0.16-3.62-0.48-4.9c-0.32-1.28-0.91-2.23-1.77-2.86c-0.86-0.62-2.11-0.94-3.74-0.94
			c-0.93,0-2.02,0.15-3.28,0.45c-1.25,0.3-2.24,1.04-2.98,2.23v19.56c0,0.4,0.1,0.68,0.31,0.83s0.49,0.35,0.85,0.57l2.83,1.64v2.8
			H61V521.81z"/>
		<path d="M118.05,525.23c-2.1,0-3.91-0.47-5.4-1.41c-1.5-0.94-2.65-2.16-3.44-3.65c-0.79-1.49-1.19-3.06-1.19-4.7
			c0-2.14,0.52-3.99,1.55-5.52c1.03-1.54,2.36-2.79,3.99-3.75c1.63-0.96,3.36-1.67,5.21-2.13c1.85-0.46,3.57-0.68,5.18-0.68
			c0.32,0,0.87,0.03,1.65,0.1c0.78,0.07,1.57,0.15,2.37,0.24s1.33,0.15,1.61,0.19v-2.53c0-2.18-0.37-3.85-1.12-5
			c-0.74-1.15-2.07-1.73-3.98-1.73c-0.85,0-1.82,0.24-2.9,0.73c-1.08,0.49-2.17,1.08-3.28,1.77c-1.1,0.7-2.12,1.38-3.07,2.05
			c-0.94,0.68-1.71,1.19-2.31,1.55h-2.32v-8.13c1.51-0.44,2.99-0.86,4.45-1.28c1.46-0.42,3.05-0.76,4.76-1.03
			c1.72-0.27,3.71-0.4,5.97-0.4c2.36,0,4.6,0.29,6.7,0.86c2.1,0.58,3.82,1.64,5.15,3.2c1.33,1.56,2,3.82,2,6.77v16.29
			c0,0.81,0.25,1.47,0.76,1.98c0.51,0.51,1.06,0.76,1.65,0.76c0.46,0,0.95-0.04,1.49-0.13s1.04-0.19,1.52-0.31h1.16v3.19
			c-0.56,0.36-1.32,0.75-2.29,1.18c-0.97,0.43-1.99,0.79-3.04,1.09c-1.05,0.3-2.01,0.45-2.86,0.45c-2.64,0-4.6-0.47-5.87-1.4
			c-1.27-0.93-1.91-2.37-1.91-4.32h-0.48c-1.09,1.65-2.32,2.88-3.69,3.71c-1.37,0.82-2.75,1.37-4.15,1.62
			S119.24,525.23,118.05,525.23z M123.35,519.31c1.01,0,2.12-0.24,3.32-0.71s2.17-1.28,2.9-2.41v-8.19c-2.2,0-4.14,0.18-5.82,0.54
			c-1.68,0.36-2.98,0.99-3.92,1.89s-1.4,2.18-1.4,3.83c0,1.33,0.26,2.36,0.79,3.1c0.53,0.73,1.17,1.25,1.94,1.53
			C121.92,519.16,122.65,519.31,123.35,519.31z"/>
		<path d="M150,523.15v-9.2h5.15l0.89,2.74c0.1,0.32,0.26,0.62,0.49,0.91c0.23,0.29,0.45,0.51,0.67,0.67
			c0.83,0.62,1.91,1.19,3.22,1.71c1.31,0.53,2.83,0.79,4.56,0.79c1.03,0,1.97-0.18,2.8-0.54c0.83-0.36,1.5-0.85,2.01-1.49
			c0.51-0.64,0.76-1.38,0.76-2.23c0-1.21-0.41-2.12-1.24-2.74c-0.82-0.62-2.09-1.16-3.8-1.64c-0.97-0.28-2.05-0.56-3.23-0.85
			c-1.18-0.29-2.24-0.56-3.17-0.82c-2.94-0.81-5.11-2.04-6.52-3.69c-1.41-1.65-2.11-3.5-2.11-5.57c0-2.32,0.75-4.33,2.25-6.02
			c1.5-1.69,3.47-2.99,5.93-3.9c2.45-0.91,5.11-1.37,7.96-1.37c2.56,0,4.81,0.15,6.75,0.45c1.94,0.3,3.69,0.67,5.26,1.1v9.32h-5.12
			l-0.89-2.98c-0.12-0.28-0.3-0.54-0.54-0.77c-0.24-0.24-0.47-0.43-0.68-0.57c-0.67-0.46-1.6-0.88-2.77-1.28
			c-1.17-0.4-2.4-0.6-3.69-0.6c-1.51,0-2.67,0.34-3.48,1.03c-0.81,0.69-1.22,1.52-1.22,2.52c0,1.15,0.48,2.11,1.44,2.89
			s2.35,1.41,4.15,1.91c1.03,0.28,2.1,0.56,3.22,0.85c1.11,0.29,2.12,0.57,3.04,0.85c2.78,0.83,4.86,2.02,6.24,3.56
			c1.38,1.54,2.07,3.44,2.07,5.7c0,2.68-0.78,4.87-2.35,6.58c-1.57,1.71-3.6,2.96-6.1,3.77c-2.5,0.8-5.16,1.21-7.98,1.21
			c-2.7,0-5.3-0.25-7.79-0.76C153.66,524.18,151.61,523.66,150,523.15z"/>
		<path d="M225.78,525.44c-3.12,0-5.95-0.31-8.5-0.94c-2.55-0.63-4.93-1.42-7.13-2.4v-38.41c0-0.4-0.12-0.69-0.37-0.86
			s-0.51-0.36-0.79-0.54l-4.2-2.23v-2.89h15.37v15.96l-0.3,3.28c1.13-1.98,2.44-3.43,3.92-4.33c1.48-0.9,2.9-1.48,4.26-1.73
			c1.36-0.25,2.42-0.37,3.17-0.37c2.82,0,5.23,0.71,7.24,2.13c2,1.42,3.54,3.36,4.6,5.82c1.06,2.46,1.59,5.26,1.59,8.4
			c0,3.45-0.73,6.63-2.17,9.53c-1.45,2.9-3.57,5.22-6.37,6.97C233.29,524.57,229.85,525.44,225.78,525.44z M225.96,520.62
			c1.92,0,3.49-0.55,4.69-1.65c1.2-1.1,2.09-2.58,2.67-4.42c0.58-1.85,0.86-3.88,0.86-6.1c0-2.34-0.27-4.45-0.82-6.33
			s-1.41-3.36-2.59-4.45c-1.18-1.09-2.73-1.64-4.66-1.64c-0.85,0-1.87,0.22-3.04,0.67c-1.17,0.45-2.14,1.31-2.92,2.58v19.03
			c0.52,0.58,1.15,1.03,1.91,1.37c0.75,0.34,1.49,0.58,2.2,0.73S225.55,520.62,225.96,520.62z"/>
		<path d="M268.07,525.38c-3.38,0-6.4-0.67-9.08-2.01c-2.68-1.34-4.8-3.31-6.36-5.91s-2.34-5.77-2.34-9.5
			c0-3.43,0.74-6.51,2.23-9.23c1.49-2.72,3.57-4.87,6.24-6.45s5.77-2.37,9.31-2.37c3.35,0,6.22,0.61,8.59,1.83
			c2.37,1.22,4.19,2.84,5.45,4.87s1.89,4.26,1.89,6.7c0,0.28-0.02,0.76-0.06,1.46c-0.04,0.7-0.08,1.38-0.12,2.05
			c-0.04,0.68-0.08,1.14-0.12,1.4h-23.64v-4.94h13.7c0-1.85-0.21-3.41-0.62-4.71c-0.42-1.29-1.08-2.28-2-2.96
			c-0.91-0.68-2.13-1.03-3.66-1.03c-1.05,0-2.01,0.21-2.87,0.64c-0.86,0.43-1.61,1.1-2.25,2.02c-0.64,0.92-1.13,2.1-1.47,3.54
			c-0.35,1.44-0.52,3.17-0.52,5.2c0,2.58,0.33,4.81,1,6.7c0.67,1.89,1.84,3.35,3.51,4.38c1.68,1.03,4.04,1.55,7.1,1.55
			c1.55,0,2.96-0.13,4.23-0.4s2.41-0.6,3.42-1c1.01-0.4,1.89-0.77,2.62-1.13h1.67v4.05c-1.81,1.25-4.1,2.44-6.89,3.56
			C274.23,524.82,271.24,525.38,268.07,525.38z"/>
		<path d="M307.14,525.38c-3.38,0-6.4-0.67-9.08-2.01c-2.68-1.34-4.8-3.31-6.36-5.91s-2.34-5.77-2.34-9.5
			c0-3.43,0.74-6.51,2.23-9.23c1.49-2.72,3.57-4.87,6.24-6.45s5.77-2.37,9.31-2.37c3.35,0,6.22,0.61,8.59,1.83
			c2.37,1.22,4.19,2.84,5.45,4.87s1.89,4.26,1.89,6.7c0,0.28-0.02,0.76-0.06,1.46c-0.04,0.7-0.08,1.38-0.12,2.05
			c-0.04,0.68-0.08,1.14-0.12,1.4h-23.64v-4.94h13.7c0-1.85-0.21-3.41-0.62-4.71c-0.42-1.29-1.08-2.28-2-2.96
			c-0.91-0.68-2.13-1.03-3.66-1.03c-1.05,0-2.01,0.21-2.87,0.64c-0.86,0.43-1.61,1.1-2.25,2.02c-0.64,0.92-1.13,2.1-1.47,3.54
			c-0.35,1.44-0.52,3.17-0.52,5.2c0,2.58,0.33,4.81,1,6.7c0.67,1.89,1.84,3.35,3.51,4.38c1.68,1.03,4.04,1.55,7.1,1.55
			c1.55,0,2.96-0.13,4.23-0.4s2.41-0.6,3.42-1c1.01-0.4,1.89-0.77,2.62-1.13h1.67v4.05c-1.81,1.25-4.1,2.44-6.89,3.56
			C313.29,524.82,310.31,525.38,307.14,525.38z"/>
		<path d="M328.16,524.61v-2.8l3.87-1.64c0.34-0.18,0.62-0.36,0.83-0.54c0.22-0.18,0.33-0.47,0.33-0.86v-21.05
			c0-0.42-0.12-0.72-0.36-0.91s-0.51-0.35-0.8-0.49l-3.81-1.64v-2.89l14.32-1.55v5.27h0.48c1.31-1.67,2.61-2.89,3.9-3.68
			c1.29-0.78,2.56-1.29,3.81-1.52c1.25-0.23,2.46-0.34,3.63-0.34c2.06,0,3.94,0.39,5.63,1.16c1.69,0.77,3.03,1.99,4.04,3.65
			c1,1.66,1.5,3.81,1.5,6.45v17.39c0,0.48,0.1,0.81,0.31,1c0.21,0.19,0.49,0.37,0.85,0.55l3.39,1.64v2.8h-18.94v-2.8l3.04-1.64
			c0.36-0.2,0.66-0.39,0.89-0.57c0.24-0.18,0.36-0.51,0.36-0.98v-13.4c0-1.87-0.14-3.44-0.43-4.73c-0.29-1.29-0.84-2.27-1.67-2.95
			c-0.82-0.67-2.06-1.01-3.71-1.01c-1.09,0-2.24,0.15-3.45,0.46s-2.2,1.05-2.98,2.22v19.56c0,0.4,0.11,0.68,0.33,0.83
			c0.22,0.16,0.51,0.35,0.86,0.57l2.83,1.64v2.8H328.16z"/>
		<path d="M394.71,539.85v-2.77l4.02-1.73c0.36-0.16,0.64-0.32,0.85-0.48c0.21-0.16,0.31-0.45,0.31-0.86v-36.3
			c0-0.42-0.12-0.72-0.36-0.92c-0.24-0.2-0.51-0.36-0.8-0.48l-3.81-1.64v-2.89l14.35-1.55v5.6h0.54c0.93-1.39,2-2.52,3.22-3.38
			c1.21-0.86,2.51-1.49,3.9-1.89c1.39-0.4,2.82-0.6,4.29-0.6c2.82,0,5.23,0.71,7.24,2.13c2,1.42,3.54,3.35,4.62,5.81
			c1.07,2.45,1.61,5.23,1.61,8.32c0,3.44-0.64,6.57-1.91,9.41s-3.1,5.1-5.49,6.77c-2.39,1.68-5.29,2.52-8.68,2.52
			c-1.99,0-3.78-0.37-5.39-1.1c-1.61-0.73-2.8-1.59-3.57-2.56l0.3,2.44v10.24c0,0.42,0.11,0.71,0.33,0.88
			c0.22,0.17,0.51,0.32,0.86,0.46l4.85,1.79v2.77H394.71z M409.93,499.27v18.76c0.52,0.36,1.17,0.64,1.96,0.83
			c0.79,0.2,1.58,0.34,2.35,0.43s1.39,0.13,1.85,0.13c1.91,0,3.45-0.51,4.64-1.52c1.19-1.01,2.06-2.36,2.62-4.03
			c0.56-1.68,0.83-3.53,0.83-5.55c0-2.32-0.27-4.41-0.82-6.27c-0.55-1.86-1.41-3.32-2.59-4.41c-1.18-1.08-2.73-1.62-4.66-1.62
			c-1.51,0-2.81,0.37-3.9,1.12C411.13,497.88,410.36,498.59,409.93,499.27z"/>
		<path d="M450.81,525.23c-2.1,0-3.91-0.47-5.4-1.41c-1.5-0.94-2.65-2.16-3.44-3.65s-1.19-3.06-1.19-4.7c0-2.14,0.52-3.99,1.55-5.52
			c1.03-1.54,2.36-2.79,3.99-3.75c1.63-0.96,3.36-1.67,5.21-2.13c1.85-0.46,3.57-0.68,5.18-0.68c0.32,0,0.87,0.03,1.65,0.1
			c0.78,0.07,1.57,0.15,2.37,0.24s1.33,0.15,1.61,0.19v-2.53c0-2.18-0.37-3.85-1.12-5c-0.74-1.15-2.07-1.73-3.97-1.73
			c-0.85,0-1.82,0.24-2.9,0.73c-1.08,0.49-2.17,1.08-3.28,1.77c-1.1,0.7-2.12,1.38-3.07,2.05c-0.94,0.68-1.71,1.19-2.31,1.55h-2.32
			v-8.13c1.51-0.44,2.99-0.86,4.45-1.28s3.05-0.76,4.76-1.03c1.72-0.27,3.71-0.4,5.97-0.4c2.36,0,4.6,0.29,6.7,0.86
			c2.1,0.58,3.82,1.64,5.15,3.2c1.33,1.56,2,3.82,2,6.77v16.29c0,0.81,0.25,1.47,0.76,1.98c0.51,0.51,1.06,0.76,1.65,0.76
			c0.46,0,0.95-0.04,1.49-0.13s1.04-0.19,1.52-0.31h1.16v3.19c-0.56,0.36-1.32,0.75-2.29,1.18c-0.97,0.43-1.99,0.79-3.04,1.09
			c-1.05,0.3-2.01,0.45-2.86,0.45c-2.64,0-4.6-0.47-5.87-1.4c-1.27-0.93-1.91-2.37-1.91-4.32h-0.48c-1.09,1.65-2.32,2.88-3.69,3.71
			c-1.37,0.82-2.75,1.37-4.15,1.62C453.3,525.1,452,525.23,450.81,525.23z M456.11,519.31c1.01,0,2.12-0.24,3.32-0.71
			c1.2-0.48,2.17-1.28,2.9-2.41v-8.19c-2.2,0-4.14,0.18-5.82,0.54s-2.98,0.99-3.92,1.89c-0.93,0.9-1.4,2.18-1.4,3.83
			c0,1.33,0.26,2.36,0.79,3.1c0.53,0.73,1.17,1.25,1.94,1.53C454.69,519.16,455.42,519.31,456.11,519.31z"/>
		<path d="M481.39,524.61v-2.8l4.94-1.79c0.38-0.14,0.67-0.31,0.89-0.51s0.33-0.5,0.33-0.89v-20.25c0-0.4-0.11-0.69-0.34-0.89
			c-0.23-0.2-0.51-0.37-0.85-0.51l-4.91-1.94v-2.89l16.14-0.62v27.1c0,0.4,0.12,0.71,0.36,0.92s0.51,0.38,0.8,0.48l4.94,1.79v2.8
			H481.39z M491.96,487.09c-1.01,0-2.01-0.24-2.99-0.73c-0.98-0.49-1.8-1.14-2.46-1.97c-0.66-0.82-0.98-1.74-0.98-2.75
			c0-1.65,0.65-2.89,1.95-3.74c1.3-0.84,2.79-1.27,4.48-1.27c1.98,0,3.59,0.38,4.82,1.15c1.23,0.76,1.85,1.92,1.85,3.47
			c0,1.09-0.32,2.08-0.95,2.96c-0.64,0.88-1.46,1.58-2.49,2.1C494.17,486.83,493.09,487.09,491.96,487.09z"/>
		<path d="M521.62,525.23c-2.8,0-5.21-0.71-7.22-2.13c-2.01-1.42-3.56-3.36-4.64-5.82c-1.08-2.46-1.62-5.25-1.62-8.37
			c0-3.47,0.66-6.64,1.96-9.5c1.31-2.86,3.19-5.15,5.63-6.86c2.44-1.72,5.34-2.58,8.7-2.58c2,0,3.75,0.36,5.23,1.09
			c1.48,0.72,2.64,1.58,3.5,2.58l-0.3-2.44v-7.5c0-0.4-0.11-0.69-0.33-0.89c-0.22-0.2-0.49-0.37-0.8-0.51l-5.06-2.23v-2.89h16.2
			v40.59c0,0.4,0.13,0.7,0.39,0.91c0.26,0.21,0.53,0.37,0.8,0.49l3.84,1.64v2.89l-14.38,1.52v-5.69H533
			c-1.23,1.81-2.58,3.11-4.04,3.92c-1.46,0.8-2.85,1.31-4.17,1.5C523.47,525.13,522.42,525.23,521.62,525.23z M526.77,519.25
			c0.6,0,1.28-0.1,2.05-0.31s1.53-0.54,2.26-1c0.73-0.46,1.32-1.04,1.76-1.76v-19.33c-0.44-0.34-1.03-0.6-1.79-0.79
			c-0.75-0.19-1.51-0.33-2.28-0.42s-1.38-0.13-1.86-0.13c-1.91,0-3.47,0.51-4.69,1.53c-1.22,1.02-2.12,2.39-2.71,4.09
			c-0.59,1.71-0.88,3.59-0.88,5.66c0,2.34,0.28,4.46,0.83,6.34c0.56,1.89,1.43,3.38,2.62,4.47
			C523.29,518.7,524.85,519.25,526.77,519.25z"/>
		<path d="M555.18,519.07c0-1.77,0.61-3.27,1.83-4.5c1.22-1.23,2.72-1.85,4.51-1.85c1.77,0,3.27,0.62,4.51,1.85
			c1.24,1.23,1.86,2.74,1.86,4.53s-0.62,3.28-1.86,4.48c-1.24,1.2-2.74,1.8-4.51,1.8c-1.79,0-3.29-0.6-4.51-1.8
			S555.18,520.88,555.18,519.07z"/>
		<path d="M62.39,685.41v-2.83l4.91-2.03c0.36-0.16,0.62-0.33,0.8-0.52s0.27-0.5,0.27-0.94v-31.68c0-0.42-0.1-0.71-0.3-0.89
			s-0.46-0.33-0.77-0.45l-4.91-2.02v-2.83h22.51c3.18,0,6.05,0.44,8.64,1.33c2.58,0.88,4.64,2.27,6.18,4.17
			c1.54,1.9,2.31,4.37,2.31,7.43c0,3.22-0.67,5.99-2,8.31s-3.17,4.11-5.52,5.38c-2.35,1.26-5.05,1.89-8.08,1.89
			c-1.09,0-2.44-0.23-4.03-0.7c-1.6-0.47-2.86-1.04-3.8-1.71v-3.96c0.54,0.2,1.33,0.35,2.37,0.45c1.04,0.1,2.01,0.15,2.9,0.15
			c1.53,0,2.76-0.3,3.69-0.91c0.93-0.61,1.65-1.37,2.14-2.28s0.83-1.83,1.01-2.75c0.18-0.92,0.27-1.7,0.27-2.34
			c0-1.55-0.26-3-0.77-4.35c-0.52-1.35-1.4-2.44-2.65-3.26c-1.25-0.82-3-1.24-5.24-1.24h-3.42v32.28c0,0.44,0.11,0.76,0.34,0.97
			c0.23,0.21,0.49,0.37,0.79,0.49l5.15,2.03v2.83H62.39z"/>
		<path d="M107.21,685.41v-2.8l3.84-1.64c0.34-0.16,0.61-0.33,0.83-0.52c0.22-0.19,0.33-0.48,0.33-0.88v-19.56
			c0-0.93-0.05-1.55-0.16-1.86c-0.11-0.31-0.39-0.56-0.85-0.76l-4.29-1.91v-2.89l14.83-1.55v6.94h0.39
			c1.31-2.08,2.57-3.64,3.78-4.67s2.38-1.71,3.51-2.04c1.13-0.33,2.21-0.49,3.25-0.49c0.97,0,1.96,0.12,2.95,0.36
			c0.99,0.24,1.94,0.68,2.83,1.34v10.45h-7.38l-0.89-2.23c-0.14-0.34-0.45-0.73-0.94-1.18c-0.49-0.45-1.07-0.67-1.74-0.67
			c-0.64,0-1.24,0.08-1.8,0.25c-0.57,0.17-1.13,0.46-1.68,0.88c-0.56,0.42-1.15,0.98-1.79,1.7v17.9c0,0.68,0.39,1.14,1.16,1.4
			l5.21,1.64v2.8H107.21z"/>
		<path d="M160.42,686.18c-3.38,0-6.4-0.67-9.08-2.01c-2.68-1.34-4.8-3.31-6.36-5.91s-2.34-5.77-2.34-9.5
			c0-3.43,0.74-6.51,2.23-9.23c1.49-2.72,3.57-4.87,6.24-6.45s5.77-2.37,9.31-2.37c3.35,0,6.22,0.61,8.59,1.83
			c2.37,1.22,4.19,2.84,5.45,4.87c1.26,2.02,1.89,4.26,1.89,6.7c0,0.28-0.02,0.76-0.06,1.46s-0.08,1.38-0.12,2.05
			s-0.08,1.14-0.12,1.4h-23.64v-4.94h13.7c0-1.85-0.21-3.41-0.62-4.71c-0.42-1.29-1.08-2.28-2-2.96c-0.91-0.68-2.13-1.03-3.66-1.03
			c-1.05,0-2.01,0.21-2.87,0.64c-0.86,0.43-1.61,1.1-2.25,2.02c-0.64,0.92-1.13,2.1-1.47,3.54c-0.35,1.44-0.52,3.17-0.52,5.2
			c0,2.58,0.33,4.81,1,6.7c0.67,1.89,1.84,3.34,3.51,4.38c1.68,1.03,4.04,1.55,7.1,1.55c1.55,0,2.96-0.13,4.23-0.4
			c1.27-0.27,2.41-0.6,3.42-1s1.89-0.77,2.62-1.13h1.67v4.05c-1.81,1.25-4.1,2.44-6.89,3.56
			C166.58,685.62,163.6,686.18,160.42,686.18z"/>
		<path d="M182.67,683.95v-9.2h5.15l0.89,2.74c0.1,0.32,0.26,0.62,0.49,0.91c0.23,0.29,0.45,0.51,0.67,0.67
			c0.83,0.62,1.91,1.19,3.22,1.71c1.31,0.53,2.83,0.79,4.56,0.79c1.03,0,1.97-0.18,2.8-0.54c0.83-0.36,1.5-0.85,2.01-1.49
			c0.51-0.64,0.76-1.38,0.76-2.23c0-1.21-0.41-2.12-1.24-2.74c-0.82-0.62-2.09-1.16-3.8-1.64c-0.97-0.28-2.05-0.56-3.23-0.85
			c-1.18-0.29-2.24-0.56-3.17-0.82c-2.94-0.81-5.11-2.04-6.52-3.69c-1.41-1.65-2.11-3.5-2.11-5.57c0-2.32,0.75-4.33,2.25-6.02
			c1.5-1.69,3.47-2.99,5.93-3.9c2.45-0.91,5.11-1.37,7.96-1.37c2.56,0,4.81,0.15,6.75,0.45c1.94,0.3,3.69,0.67,5.26,1.1v9.32h-5.12
			l-0.89-2.98c-0.12-0.28-0.3-0.54-0.54-0.77c-0.24-0.24-0.47-0.43-0.68-0.57c-0.67-0.46-1.6-0.88-2.77-1.28
			c-1.17-0.4-2.4-0.6-3.69-0.6c-1.51,0-2.67,0.34-3.48,1.03c-0.81,0.69-1.22,1.52-1.22,2.52c0,1.15,0.48,2.11,1.44,2.89
			s2.35,1.41,4.15,1.91c1.03,0.28,2.1,0.56,3.22,0.85c1.11,0.29,2.12,0.57,3.04,0.85c2.78,0.83,4.86,2.02,6.24,3.56
			c1.38,1.54,2.07,3.44,2.07,5.7c0,2.68-0.78,4.87-2.35,6.58c-1.57,1.71-3.6,2.96-6.1,3.77c-2.5,0.8-5.16,1.21-7.98,1.21
			c-2.7,0-5.3-0.25-7.79-0.76S184.27,684.46,182.67,683.95z"/>
		<path d="M219.59,683.95v-9.2h5.15l0.89,2.74c0.1,0.32,0.26,0.62,0.49,0.91c0.23,0.29,0.45,0.51,0.67,0.67
			c0.83,0.62,1.91,1.19,3.22,1.71c1.31,0.53,2.83,0.79,4.56,0.79c1.03,0,1.97-0.18,2.8-0.54c0.83-0.36,1.5-0.85,2.01-1.49
			c0.51-0.64,0.76-1.38,0.76-2.23c0-1.21-0.41-2.12-1.24-2.74c-0.82-0.62-2.09-1.16-3.8-1.64c-0.97-0.28-2.05-0.56-3.23-0.85
			c-1.18-0.29-2.24-0.56-3.17-0.82c-2.94-0.81-5.11-2.04-6.52-3.69c-1.41-1.65-2.11-3.5-2.11-5.57c0-2.32,0.75-4.33,2.25-6.02
			c1.5-1.69,3.47-2.99,5.93-3.9c2.45-0.91,5.11-1.37,7.96-1.37c2.56,0,4.81,0.15,6.75,0.45c1.94,0.3,3.69,0.67,5.26,1.1v9.32h-5.12
			l-0.89-2.98c-0.12-0.28-0.3-0.54-0.54-0.77c-0.24-0.24-0.47-0.43-0.68-0.57c-0.67-0.46-1.6-0.88-2.77-1.28
			c-1.17-0.4-2.4-0.6-3.69-0.6c-1.51,0-2.67,0.34-3.48,1.03c-0.81,0.69-1.22,1.52-1.22,2.52c0,1.15,0.48,2.11,1.44,2.89
			s2.35,1.41,4.15,1.91c1.03,0.28,2.1,0.56,3.22,0.85c1.11,0.29,2.12,0.57,3.04,0.85c2.78,0.83,4.86,2.02,6.24,3.56
			c1.38,1.54,2.07,3.44,2.07,5.7c0,2.68-0.78,4.87-2.35,6.58c-1.57,1.71-3.6,2.96-6.1,3.77c-2.5,0.8-5.16,1.21-7.98,1.21
			c-2.7,0-5.3-0.25-7.79-0.76S221.2,684.46,219.59,683.95z"/>
		<path d="M284.8,659.95c-2.4,0-4.15-0.72-5.26-2.17s-1.65-3.42-1.65-5.93c0-2.18,0.58-4.15,1.74-5.9c1.16-1.75,2.61-3.29,4.35-4.62
			c1.74-1.33,3.47-2.46,5.2-3.39l2.2,3.3c-1.95,1.29-3.33,2.6-4.17,3.92c-0.83,1.32-1.47,2.51-1.91,3.56
			c1.09,0.73,2.01,1.38,2.75,1.94s1.31,1.14,1.7,1.76c0.39,0.62,0.58,1.4,0.58,2.35c0,0.73-0.21,1.5-0.64,2.31s-1.05,1.48-1.88,2.04
			C287,659.67,285.99,659.95,284.8,659.95z"/>
		<path d="M298.59,685.41v-2.83l4.91-2.03c0.3-0.12,0.55-0.28,0.76-0.49c0.21-0.21,0.31-0.53,0.31-0.97v-31.68
			c0-0.42-0.1-0.71-0.31-0.89s-0.46-0.33-0.76-0.45l-4.91-2.02v-2.83h22.48c1.95,0,4.01,0.2,6.19,0.61c2.18,0.41,4.32,1.1,6.4,2.07
			c2.08,0.97,3.97,2.3,5.66,3.99c1.69,1.69,3.04,3.81,4.05,6.36c1.01,2.55,1.52,5.6,1.52,9.16c0,5.02-1.08,9.16-3.23,12.4
			c-2.15,3.25-5.06,5.66-8.72,7.24c-3.66,1.58-7.77,2.37-12.31,2.37H298.59z M315.08,646.82v32.99h6.1c4.35,0,7.51-1.37,9.48-4.11
			c1.97-2.74,2.96-6.57,2.96-11.49c0-3.61-0.57-6.71-1.71-9.31s-2.76-4.59-4.85-5.99s-4.59-2.1-7.49-2.1H315.08z"/>
		<path d="M368.98,686.24c-3.61,0-6.79-0.69-9.53-2.05c-2.74-1.37-4.87-3.38-6.4-6.02c-1.53-2.64-2.29-5.86-2.29-9.65
			c0-3.49,0.76-6.58,2.28-9.26c1.52-2.68,3.67-4.77,6.45-6.28c2.78-1.51,6.06-2.26,9.86-2.26c4.11,0,7.51,0.79,10.2,2.38
			c2.69,1.59,4.7,3.72,6.03,6.4c1.33,2.68,2,5.65,2,8.9c0,3.45-0.75,6.53-2.26,9.22c-1.51,2.69-3.65,4.8-6.43,6.33
			C376.09,685.48,372.79,686.24,368.98,686.24z M369.4,681.45c1.45,0,2.65-0.36,3.6-1.09c0.95-0.72,1.71-1.69,2.26-2.9
			c0.56-1.21,0.95-2.55,1.18-4c0.23-1.46,0.34-2.93,0.34-4.42c0-2.4-0.25-4.62-0.76-6.67c-0.51-2.04-1.34-3.7-2.49-4.96
			s-2.69-1.89-4.62-1.89c-1.45,0-2.65,0.36-3.6,1.07c-0.95,0.71-1.71,1.67-2.26,2.86c-0.56,1.19-0.95,2.51-1.18,3.96
			c-0.23,1.45-0.34,2.91-0.34,4.38c0,1.63,0.12,3.25,0.37,4.85c0.25,1.61,0.67,3.08,1.25,4.41c0.58,1.33,1.39,2.4,2.41,3.2
			C366.59,681.04,367.87,681.45,369.4,681.45z"/>
		<path d="M392.95,685.41v-2.8l3.87-1.64c0.34-0.18,0.62-0.36,0.83-0.54c0.22-0.18,0.33-0.47,0.33-0.86v-21.05
			c0-0.42-0.12-0.72-0.36-0.91s-0.51-0.35-0.8-0.49l-3.81-1.64v-2.89l14.32-1.55v5.27h0.48c1.31-1.67,2.61-2.89,3.9-3.68
			c1.29-0.78,2.56-1.29,3.81-1.52c1.25-0.23,2.46-0.34,3.63-0.34c2.06,0,3.94,0.39,5.63,1.16c1.69,0.77,3.03,1.99,4.04,3.65
			c1,1.66,1.5,3.81,1.5,6.45v17.39c0,0.48,0.1,0.81,0.31,1c0.21,0.19,0.49,0.37,0.85,0.55l3.39,1.64v2.8h-18.94v-2.8l3.04-1.64
			c0.36-0.2,0.66-0.39,0.89-0.57c0.24-0.18,0.36-0.51,0.36-0.98v-13.4c0-1.87-0.14-3.44-0.43-4.73c-0.29-1.29-0.84-2.27-1.67-2.95
			c-0.82-0.67-2.06-1.01-3.71-1.01c-1.09,0-2.24,0.15-3.45,0.46s-2.2,1.05-2.98,2.22v19.56c0,0.4,0.11,0.68,0.33,0.83
			c0.22,0.16,0.51,0.35,0.86,0.57l2.83,1.64v2.8H392.95z"/>
		<path d="M457.36,686.18c-3.38,0-6.4-0.67-9.08-2.01c-2.68-1.34-4.8-3.31-6.36-5.91s-2.34-5.77-2.34-9.5
			c0-3.43,0.74-6.51,2.23-9.23c1.49-2.72,3.57-4.87,6.24-6.45s5.77-2.37,9.31-2.37c3.35,0,6.22,0.61,8.59,1.83
			c2.37,1.22,4.19,2.84,5.45,4.87c1.26,2.02,1.89,4.26,1.89,6.7c0,0.28-0.02,0.76-0.06,1.46s-0.08,1.38-0.12,2.05
			s-0.08,1.14-0.12,1.4h-23.64v-4.94h13.7c0-1.85-0.21-3.41-0.62-4.71c-0.42-1.29-1.08-2.28-2-2.96c-0.91-0.68-2.13-1.03-3.66-1.03
			c-1.05,0-2.01,0.21-2.87,0.64c-0.86,0.43-1.61,1.1-2.25,2.02c-0.64,0.92-1.13,2.1-1.47,3.54c-0.35,1.44-0.52,3.17-0.52,5.2
			c0,2.58,0.33,4.81,1,6.7c0.67,1.89,1.84,3.34,3.51,4.38c1.68,1.03,4.04,1.55,7.1,1.55c1.55,0,2.96-0.13,4.23-0.4
			c1.27-0.27,2.41-0.6,3.42-1s1.89-0.77,2.62-1.13h1.67v4.05c-1.81,1.25-4.1,2.44-6.89,3.56
			C463.52,685.62,460.54,686.18,457.36,686.18z"/>
		<path d="M481.9,659.98l-2.2-3.3c1.95-1.29,3.33-2.6,4.17-3.92s1.47-2.51,1.91-3.56c-1.09-0.73-2.01-1.38-2.75-1.94
			s-1.31-1.15-1.68-1.79c-0.38-0.63-0.57-1.42-0.57-2.35c0-0.73,0.21-1.5,0.64-2.29s1.05-1.47,1.88-2.03
			c0.82-0.56,1.82-0.83,2.99-0.83c2.38,0,4.13,0.73,5.24,2.17c1.11,1.45,1.67,3.42,1.67,5.93c0,1.63-0.34,3.14-1.01,4.53
			s-1.57,2.66-2.68,3.81c-1.11,1.15-2.33,2.19-3.65,3.11C484.52,658.44,483.21,659.26,481.9,659.98z"/>
	</g>
</g>
</svg>
