<?xml version="1.0" encoding="utf-8"?>
<!-- Generator: Adobe Illustrator 27.8.1, SVG Export Plug-In . SVG Version: 6.00 Build 0)  -->
<svg version="1.1" id="Layer_1" xmlns="http://www.w3.org/2000/svg" xmlns:xlink="http://www.w3.org/1999/xlink" x="0px" y="0px"
	 viewBox="0 0 1920 1080" style="enable-background:new 0 0 1920 1080;" xml:space="preserve">
<style type="text/css">
	.st0{fill:#F6F0F8;}
	.st1{fill:#333343;}
	.st2{fill:#FFFFFF;}
	.st3{fill:#8282A8;}
	.st4{fill:#375A64;}
	.st5{fill:#FF4F5B;}
</style>
<g>
	<g>
		<rect x="-2" y="0" class="st0" width="1922" height="1081"/>
	</g>
	<g>
		<path class="st1" d="M1565.82,212.8h-0.87v-90.44c0-29.99-24.61-54.3-54.97-54.3h-333.22c-30.36,0-54.97,24.31-54.97,54.3v90.44
			h-0.87c-3.96,0-7.18,3.17-7.18,7.09v62.56c0,3.91,3.21,7.09,7.18,7.09h0.87v14.92h-0.87c-3.96,0-7.18,3.17-7.18,7.09v62.56
			c0,3.91,3.21,7.09,7.18,7.09h0.87v547.89c0,29.99,24.61,54.3,54.97,54.3h333.22c30.36,0,54.97-24.31,54.97-54.3V327.91h0.87
			c3.96,0,7.18-3.17,7.18-7.09V219.89C1572.99,215.97,1569.78,212.8,1565.82,212.8z"/>
		<path class="st2" d="M1503.97,971h-316.66c-27.63,0-50.03-22.4-50.03-50.03v-789.9c0-27.63,22.4-50.03,50.03-50.03h316.66
			c27.63,0,50.03,22.4,50.03,50.03v789.9C1554,948.6,1531.6,971,1503.97,971z"/>
	</g>
	<g>
		<g>
			<path class="st3" d="M1316.95,914.59c-3.64,0-6.59,2.92-6.59,6.51c0,3.59,2.96,6.51,6.59,6.51c3.64,0,6.59-2.92,6.59-6.51
				C1323.54,917.51,1320.59,914.59,1316.95,914.59z"/>
			<path class="st3" d="M1343.36,927.71c-3.64,0-6.59-2.92-6.59-6.51c0-3.59,2.96-6.51,6.59-6.51s6.59,2.92,6.59,6.51
				C1349.96,924.79,1347,927.71,1343.36,927.71z M1343.36,916.82c-2.45,0-4.44,1.97-4.44,4.38s1.99,4.38,4.44,4.38
				s4.44-1.97,4.44-4.38S1345.81,916.82,1343.36,916.82z"/>
			<path class="st3" d="M1369.77,927.81c-3.64,0-6.59-2.92-6.59-6.51c0-3.59,2.96-6.51,6.59-6.51c3.64,0,6.59,2.92,6.59,6.51
				C1376.37,924.88,1373.41,927.81,1369.77,927.81z M1369.77,916.91c-2.45,0-4.44,1.97-4.44,4.38s1.99,4.38,4.44,4.38
				c2.45,0,4.44-1.97,4.44-4.38S1372.22,916.91,1369.77,916.91z"/>
		</g>
	</g>
	<g>
		<g>
			<path d="M99.39,367.84v-2.83l4.91-2.26c0.32-0.14,0.58-0.3,0.77-0.48s0.3-0.49,0.3-0.92v-31.5c0-0.42-0.1-0.71-0.31-0.89
				s-0.46-0.33-0.76-0.45l-5.09-2.02v-2.83h16.53l18.34,26.38l2.2,3.84h0.66v-23.85c0-0.32-0.07-0.56-0.21-0.73
				c-0.14-0.17-0.45-0.36-0.92-0.58l-4.88-2.23v-2.83h18.16v2.83l-4.91,2.23c-0.42,0.2-0.71,0.39-0.86,0.57
				c-0.16,0.18-0.24,0.43-0.24,0.74v31.12l-0.95,7h-7.21l-20.55-29.36l-2.11-3.81h-0.62v26.38c0,0.38,0.09,0.67,0.27,0.86
				c0.18,0.2,0.44,0.38,0.77,0.54l4.85,2.26v2.83H99.39z"/>
			<path d="M172.92,368.67c-3.61,0-6.79-0.69-9.53-2.05c-2.74-1.37-4.87-3.38-6.4-6.02c-1.53-2.64-2.29-5.86-2.29-9.65
				c0-3.49,0.76-6.58,2.28-9.26c1.52-2.68,3.67-4.77,6.45-6.28c2.78-1.51,6.06-2.26,9.86-2.26c4.11,0,7.51,0.79,10.2,2.38
				c2.69,1.59,4.7,3.72,6.03,6.4c1.33,2.68,2,5.65,2,8.9c0,3.45-0.75,6.53-2.26,9.22c-1.51,2.69-3.65,4.8-6.43,6.33
				C180.02,367.9,176.73,368.67,172.92,368.67z M173.33,363.88c1.45,0,2.65-0.36,3.6-1.09c0.95-0.72,1.71-1.69,2.26-2.9
				c0.56-1.21,0.95-2.55,1.18-4c0.23-1.46,0.34-2.93,0.34-4.42c0-2.4-0.25-4.62-0.76-6.67c-0.51-2.04-1.34-3.7-2.49-4.96
				s-2.69-1.89-4.62-1.89c-1.45,0-2.65,0.36-3.6,1.07c-0.95,0.71-1.71,1.67-2.26,2.86c-0.56,1.19-0.95,2.51-1.18,3.96
				c-0.23,1.45-0.34,2.91-0.34,4.38c0,1.63,0.12,3.25,0.37,4.85c0.25,1.61,0.67,3.08,1.25,4.41c0.58,1.33,1.39,2.4,2.41,3.2
				C170.53,363.47,171.8,363.88,173.33,363.88z"/>
			<path d="M209.9,368.13l-10.6-28.59c-0.12-0.34-0.3-0.63-0.54-0.88c-0.24-0.25-0.54-0.45-0.89-0.61l-2.56-1.22v-2.74h18.31v2.74
				l-4.59,1.64l5.12,14.59l1.22,5.06h0.66l5.63-17.15l2.83-6.88h5.87l6.91,18.79l1.4,5.24h0.69l5.96-18.52l-4.26-2.77v-2.74h13.94
				v2.74l-2.71,2.11c-0.3,0.22-0.6,0.46-0.89,0.71c-0.3,0.26-0.5,0.55-0.6,0.86l-7.09,20.73l-3.28,6.88h-7.09l-6.49-16.91
				l-1.07-4.79h-0.54l-4.88,14.83l-3.19,6.88H209.9z"/>
			<path d="M262.9,380.19l-2.92-3.54c1.91-1.47,3.34-3.02,4.3-4.66c0.96-1.64,1.69-3.03,2.19-4.18c-1.13-0.73-2.08-1.4-2.86-2
				c-0.77-0.6-1.36-1.23-1.77-1.89c-0.41-0.66-0.61-1.48-0.61-2.46c0-0.73,0.22-1.51,0.66-2.34s1.07-1.53,1.91-2.11
				c0.83-0.59,1.86-0.88,3.07-0.88c2.54,0,4.37,0.78,5.48,2.34c1.11,1.56,1.67,3.66,1.67,6.3c0,1.67-0.37,3.26-1.1,4.78
				c-0.73,1.52-1.67,2.93-2.81,4.23c-1.14,1.3-2.35,2.49-3.63,3.57C265.18,378.43,263.99,379.38,262.9,380.19z"/>
			<path d="M334.37,361.64v-8.99c0-0.42-0.11-0.72-0.33-0.91c-0.22-0.19-0.47-0.32-0.74-0.4l-6.58-2.11v-2.77h23.02v2.77l-3.87,2.11
				c-0.26,0.14-0.51,0.29-0.74,0.45c-0.24,0.16-0.36,0.45-0.36,0.86v4.76c0,1.99,0.01,3.66,0.03,5.03c0.02,1.37,0.09,2.45,0.21,3.25
				c-2.48,0.81-5.38,1.54-8.7,2.19c-3.32,0.65-6.66,0.97-10.04,0.97c-4.29,0-8.2-0.87-11.75-2.62s-6.37-4.32-8.49-7.73
				c-2.11-3.4-3.17-7.61-3.17-12.61c0-4.76,1.04-8.88,3.11-12.36c2.07-3.47,4.93-6.15,8.56-8.04c3.63-1.89,7.78-2.83,12.45-2.83
				c3,0,5.56,0.13,7.68,0.39c2.12,0.26,3.97,0.56,5.54,0.91c1.57,0.35,2.99,0.66,4.26,0.94v12.63h-4.62l-1.52-5.96
				c-0.08-0.32-0.27-0.58-0.57-0.77c-0.3-0.2-0.58-0.35-0.83-0.45c-1.41-0.62-3.07-1.12-4.99-1.52c-1.92-0.4-3.61-0.6-5.08-0.6
				c-2.44,0-4.63,0.6-6.57,1.79c-1.94,1.19-3.46,3-4.57,5.42c-1.11,2.42-1.67,5.49-1.67,9.2c0,3.67,0.51,6.91,1.53,9.72
				c1.02,2.81,2.52,5,4.5,6.58s4.39,2.37,7.25,2.37c0.87,0,1.69-0.06,2.46-0.19c0.76-0.13,1.52-0.32,2.26-0.58
				C332.81,362.28,333.58,361.98,334.37,361.64z"/>
			<path d="M372.66,368.67c-3.61,0-6.79-0.69-9.53-2.05c-2.74-1.37-4.87-3.38-6.4-6.02c-1.53-2.64-2.29-5.86-2.29-9.65
				c0-3.49,0.76-6.58,2.28-9.26c1.52-2.68,3.67-4.77,6.45-6.28c2.78-1.51,6.06-2.26,9.86-2.26c4.11,0,7.51,0.79,10.2,2.38
				c2.69,1.59,4.7,3.72,6.03,6.4c1.33,2.68,2,5.65,2,8.9c0,3.45-0.75,6.53-2.26,9.22c-1.51,2.69-3.65,4.8-6.43,6.33
				C379.77,367.9,376.47,368.67,372.66,368.67z M373.08,363.88c1.45,0,2.65-0.36,3.6-1.09c0.95-0.72,1.71-1.69,2.26-2.9
				c0.56-1.21,0.95-2.55,1.18-4c0.23-1.46,0.34-2.93,0.34-4.42c0-2.4-0.25-4.62-0.76-6.67c-0.51-2.04-1.34-3.7-2.49-4.96
				s-2.69-1.89-4.62-1.89c-1.45,0-2.65,0.36-3.6,1.07c-0.95,0.71-1.71,1.67-2.26,2.86c-0.56,1.19-0.95,2.51-1.18,3.96
				c-0.23,1.45-0.34,2.91-0.34,4.38c0,1.63,0.12,3.25,0.37,4.85c0.25,1.61,0.67,3.08,1.25,4.41c0.58,1.33,1.39,2.4,2.41,3.2
				C370.28,363.47,371.55,363.88,373.08,363.88z"/>
			<path d="M443.56,334.1v5.33h-11.91v18.08c0,0.97,0.35,1.83,1.06,2.56c0.7,0.73,1.53,1.31,2.49,1.71s1.78,0.61,2.47,0.61
				c0.63,0,1.46-0.03,2.47-0.09c1.01-0.06,1.77-0.13,2.26-0.21h1.46v3.07c-0.5,0.28-1.33,0.68-2.49,1.19s-2.51,0.98-4.04,1.4
				s-3.1,0.63-4.71,0.63c-1.95,0-3.76-0.28-5.43-0.85c-1.68-0.57-3.03-1.37-4.05-2.41c-1.02-1.04-1.53-2.27-1.53-3.68v-22.01h-5.45
				v-4.73c1.21-0.16,2.26-0.33,3.14-0.52c0.88-0.19,1.58-0.58,2.1-1.18c0.52-0.6,0.81-1.58,0.89-2.95l0.3-4.73l9.05-1.28v10.06
				H443.56z"/>
			<path d="M465.89,368.67c-3.61,0-6.79-0.69-9.53-2.05c-2.74-1.37-4.87-3.38-6.4-6.02c-1.53-2.64-2.29-5.86-2.29-9.65
				c0-3.49,0.76-6.58,2.28-9.26c1.52-2.68,3.67-4.77,6.45-6.28c2.78-1.51,6.06-2.26,9.86-2.26c4.11,0,7.51,0.79,10.2,2.38
				c2.69,1.59,4.7,3.72,6.03,6.4c1.33,2.68,2,5.65,2,8.9c0,3.45-0.75,6.53-2.26,9.22c-1.51,2.69-3.65,4.8-6.43,6.33
				C473,367.9,469.71,368.67,465.89,368.67z M466.31,363.88c1.45,0,2.65-0.36,3.6-1.09c0.95-0.72,1.71-1.69,2.26-2.9
				c0.56-1.21,0.95-2.55,1.18-4c0.23-1.46,0.34-2.93,0.34-4.42c0-2.4-0.25-4.62-0.76-6.67c-0.51-2.04-1.34-3.7-2.49-4.96
				s-2.69-1.89-4.62-1.89c-1.45,0-2.65,0.36-3.6,1.07c-0.95,0.71-1.71,1.67-2.26,2.86c-0.56,1.19-0.95,2.51-1.18,3.96
				c-0.23,1.45-0.34,2.91-0.34,4.38c0,1.63,0.12,3.25,0.37,4.85c0.25,1.61,0.67,3.08,1.25,4.41c0.58,1.33,1.39,2.4,2.41,3.2
				C463.51,363.47,464.78,363.88,466.31,363.88z"/>
			<path d="M521.31,368.46c-2.1,0-3.91-0.47-5.4-1.41c-1.5-0.94-2.65-2.16-3.44-3.65s-1.19-3.06-1.19-4.7
				c0-2.14,0.52-3.99,1.55-5.52c1.03-1.54,2.36-2.79,3.99-3.75c1.63-0.96,3.36-1.67,5.21-2.13c1.85-0.46,3.57-0.68,5.18-0.68
				c0.32,0,0.87,0.03,1.65,0.1c0.78,0.07,1.57,0.15,2.37,0.24s1.33,0.15,1.61,0.19v-2.53c0-2.18-0.37-3.85-1.12-5
				c-0.74-1.15-2.07-1.73-3.97-1.73c-0.85,0-1.82,0.24-2.9,0.73c-1.08,0.49-2.17,1.08-3.28,1.77c-1.1,0.7-2.12,1.38-3.07,2.05
				c-0.94,0.68-1.71,1.19-2.31,1.55h-2.32v-8.13c1.51-0.44,2.99-0.86,4.45-1.28s3.05-0.76,4.76-1.03c1.72-0.27,3.71-0.4,5.97-0.4
				c2.36,0,4.6,0.29,6.7,0.86c2.1,0.58,3.82,1.64,5.15,3.2c1.33,1.56,2,3.82,2,6.77v16.29c0,0.81,0.25,1.47,0.76,1.98
				c0.51,0.51,1.06,0.76,1.65,0.76c0.46,0,0.95-0.04,1.49-0.13s1.04-0.19,1.52-0.31h1.16v3.19c-0.56,0.36-1.32,0.75-2.29,1.18
				c-0.97,0.43-1.99,0.79-3.04,1.09c-1.05,0.3-2.01,0.45-2.86,0.45c-2.64,0-4.6-0.47-5.87-1.4c-1.27-0.93-1.91-2.37-1.91-4.32h-0.48
				c-1.09,1.65-2.32,2.88-3.69,3.71c-1.37,0.82-2.75,1.37-4.15,1.62C523.8,368.33,522.5,368.46,521.31,368.46z M526.61,362.54
				c1.01,0,2.12-0.24,3.32-0.71c1.2-0.48,2.17-1.28,2.9-2.41v-8.19c-2.2,0-4.14,0.18-5.82,0.54s-2.98,0.99-3.92,1.89
				c-0.93,0.9-1.4,2.18-1.4,3.83c0,1.33,0.26,2.36,0.79,3.1c0.53,0.73,1.17,1.25,1.94,1.53
				C525.19,362.39,525.92,362.54,526.61,362.54z"/>
			<path d="M573.96,366.11v-13.13h4.64l1.49,5.63c0.1,0.38,0.31,0.71,0.64,1.01c0.33,0.3,0.7,0.58,1.12,0.83
				c0.52,0.3,1.27,0.67,2.26,1.13c0.99,0.46,2.07,0.87,3.23,1.24c1.16,0.37,2.23,0.55,3.2,0.55c2.68,0,4.89-0.54,6.62-1.62
				s2.61-2.57,2.61-4.45c0-1.77-0.54-3.02-1.62-3.75c-1.08-0.73-2.54-1.47-4.36-2.2c-1.79-0.69-3.55-1.28-5.29-1.76
				c-1.74-0.48-3.43-1.02-5.08-1.64c-2.52-0.97-4.58-2.4-6.18-4.27c-1.6-1.88-2.4-4.34-2.4-7.4c0-2.8,0.84-5.22,2.52-7.27
				c1.68-2.04,3.86-3.62,6.55-4.73c2.69-1.11,5.55-1.67,8.59-1.67c1.73,0,3.52,0.1,5.38,0.31s3.64,0.47,5.35,0.77
				c1.71,0.31,3.2,0.6,4.47,0.88v12.77h-4.64l-1.52-5.45c-0.1-0.3-0.29-0.59-0.58-0.86c-0.29-0.28-0.56-0.5-0.82-0.66
				c-0.3-0.18-0.85-0.45-1.67-0.8c-0.81-0.36-1.74-0.68-2.77-0.97c-1.03-0.29-2.04-0.43-3.01-0.43c-2.6,0-4.55,0.55-5.85,1.64
				c-1.3,1.09-1.95,2.28-1.95,3.57c0,1.39,0.45,2.56,1.36,3.51c0.9,0.95,2.59,1.84,5.08,2.65c1.65,0.56,3.28,1.07,4.88,1.53
				c1.61,0.47,3.37,1.08,5.27,1.83c1.59,0.62,3.04,1.39,4.36,2.32c1.32,0.93,2.38,2.12,3.19,3.56c0.8,1.44,1.21,3.24,1.21,5.4
				c0,2.62-0.72,5.05-2.17,7.28s-3.64,4.03-6.58,5.39c-2.94,1.36-6.66,2.04-11.17,2.04c-1.47,0-3.16-0.14-5.08-0.43
				c-1.92-0.29-3.86-0.65-5.84-1.07S575.6,366.55,573.96,366.11z"/>
			<path d="M633.96,368.61c-3.38,0-6.4-0.67-9.08-2.01c-2.68-1.34-4.8-3.31-6.36-5.91s-2.34-5.77-2.34-9.5
				c0-3.43,0.74-6.51,2.23-9.23c1.49-2.72,3.57-4.87,6.24-6.45s5.77-2.37,9.31-2.37c3.35,0,6.22,0.61,8.59,1.83
				c2.37,1.22,4.19,2.84,5.45,4.87s1.89,4.26,1.89,6.7c0,0.28-0.02,0.76-0.06,1.46c-0.04,0.7-0.08,1.38-0.12,2.05
				c-0.04,0.68-0.08,1.14-0.12,1.4h-23.64v-4.94h13.7c0-1.85-0.21-3.41-0.62-4.71c-0.42-1.29-1.08-2.28-2-2.96
				c-0.91-0.68-2.13-1.03-3.66-1.03c-1.05,0-2.01,0.21-2.87,0.64c-0.86,0.43-1.61,1.1-2.25,2.02c-0.64,0.92-1.13,2.1-1.47,3.54
				c-0.35,1.44-0.52,3.17-0.52,5.2c0,2.58,0.33,4.81,1,6.7c0.67,1.89,1.84,3.35,3.51,4.38c1.68,1.03,4.04,1.55,7.1,1.55
				c1.55,0,2.96-0.13,4.23-0.4s2.41-0.6,3.42-1c1.01-0.4,1.89-0.77,2.62-1.13h1.67v4.05c-1.81,1.25-4.1,2.44-6.89,3.56
				C640.12,368.05,637.13,368.61,633.96,368.61z"/>
			<path d="M654.18,367.84v-2.8l4.97-1.79c0.38-0.14,0.67-0.31,0.88-0.51c0.21-0.2,0.31-0.5,0.31-0.89v-34.93
				c0-0.4-0.13-0.7-0.39-0.91c-0.26-0.21-0.53-0.37-0.8-0.49l-5.27-2.23v-2.89h16.47v41.45c0,0.4,0.13,0.71,0.39,0.92
				c0.26,0.22,0.53,0.38,0.8,0.48l4.91,1.79v2.8H654.18z"/>
			<path d="M680.59,367.84v-2.8l4.44-1.79c0.36-0.16,0.65-0.33,0.86-0.52c0.22-0.19,0.33-0.48,0.33-0.88v-20.58h-6.28v-5.33h6.4
				c0.36-3.57,1.34-6.55,2.96-8.93c1.62-2.38,3.64-4.17,6.06-5.36c2.42-1.19,5.03-1.79,7.83-1.79c0.87,0,2.02,0.06,3.44,0.19
				c1.42,0.13,2.62,0.28,3.59,0.46v8.19h-2.32c-0.65-0.28-1.54-0.58-2.67-0.91c-1.12-0.33-2.24-0.61-3.35-0.85
				c-1.11-0.24-2-0.36-2.65-0.36c-0.54,0-0.97,0.07-1.31,0.21c-0.34,0.14-0.62,0.39-0.83,0.74c-0.3,0.48-0.51,1.44-0.64,2.9
				c-0.13,1.46-0.2,3.29-0.22,5.49h9.59v5.33h-9.56v20.58c0,0.4,0.11,0.7,0.34,0.91c0.23,0.21,0.5,0.37,0.82,0.49l5.21,1.79v2.8
				H680.59z"/>
			<path d="M136.35,438.02h2.47v4.53c-1.19,0.97-2.67,1.97-4.42,2.99s-3.69,1.89-5.81,2.59c-2.11,0.7-4.33,1.06-6.66,1.06
				c-4.59,0-8.6-0.92-12.04-2.75c-3.44-1.84-6.12-4.47-8.04-7.89c-1.92-3.42-2.87-7.53-2.87-12.31c0-4.72,0.99-8.82,2.98-12.28
				c1.99-3.46,4.72-6.14,8.2-8.04c3.48-1.9,7.47-2.84,11.96-2.84c1.63,0,3.44,0.13,5.45,0.39c2,0.26,3.94,0.56,5.81,0.91
				c1.87,0.35,3.4,0.66,4.62,0.94v12.48h-4.58l-1.55-5.9c-0.06-0.24-0.25-0.49-0.58-0.76c-0.33-0.27-0.6-0.46-0.82-0.58
				c-1.03-0.58-2.08-1.06-3.16-1.46c-1.07-0.4-2.3-0.6-3.69-0.6c-4.03,0-7.26,1.34-9.68,4.01s-3.63,6.75-3.63,12.25
				c0,5.74,1.33,10.09,3.98,13.07c2.65,2.98,6.25,4.47,10.79,4.47c1.79,0,3.4-0.24,4.84-0.73c1.44-0.49,2.7-1.06,3.78-1.73
				S135.65,438.56,136.35,438.02z"/>
			<path d="M143.55,445.44l3.81-1.64c0.42-0.18,0.71-0.36,0.89-0.54c0.18-0.18,0.27-0.47,0.27-0.86v-35.08
				c0-0.4-0.11-0.69-0.34-0.88c-0.23-0.19-0.5-0.36-0.82-0.52l-4.2-2.23v-2.89h15.39v16.02l-0.33,2.86c1.17-1.77,2.4-3.08,3.69-3.95
				c1.29-0.86,2.59-1.43,3.9-1.71c1.31-0.28,2.56-0.42,3.75-0.42c2.03,0,3.89,0.37,5.6,1.1c1.71,0.73,3.08,1.93,4.12,3.57
				c1.04,1.65,1.56,3.84,1.56,6.58v17.39c0,0.48,0.1,0.81,0.31,1c0.21,0.19,0.48,0.37,0.82,0.55l3.51,1.64v2.8h-18.94v-2.8
				l3.04-1.64c0.32-0.18,0.6-0.36,0.83-0.55c0.24-0.19,0.36-0.52,0.36-1v-13.4c0-1.98-0.16-3.62-0.48-4.9
				c-0.32-1.28-0.91-2.23-1.77-2.86c-0.86-0.62-2.11-0.94-3.74-0.94c-0.93,0-2.03,0.15-3.28,0.45c-1.25,0.3-2.24,1.04-2.98,2.23
				v19.56c0,0.4,0.1,0.68,0.31,0.83c0.21,0.16,0.49,0.35,0.85,0.57l2.83,1.64v2.8h-19V445.44z"/>
			<path d="M207.9,449.01c-3.38,0-6.4-0.67-9.08-2.01c-2.68-1.34-4.8-3.31-6.36-5.91s-2.34-5.77-2.34-9.5
				c0-3.43,0.74-6.51,2.23-9.23c1.49-2.72,3.57-4.87,6.24-6.45s5.77-2.37,9.31-2.37c3.35,0,6.22,0.61,8.59,1.83
				c2.37,1.22,4.19,2.84,5.45,4.87s1.89,4.26,1.89,6.7c0,0.28-0.02,0.76-0.06,1.46c-0.04,0.7-0.08,1.38-0.12,2.05
				c-0.04,0.68-0.08,1.14-0.12,1.4h-23.64v-4.94h13.7c0-1.85-0.21-3.41-0.62-4.71c-0.42-1.29-1.08-2.28-2-2.96
				c-0.91-0.68-2.13-1.03-3.66-1.03c-1.05,0-2.01,0.21-2.87,0.64c-0.86,0.43-1.61,1.1-2.25,2.02c-0.64,0.92-1.13,2.1-1.47,3.54
				c-0.35,1.44-0.52,3.17-0.52,5.2c0,2.58,0.33,4.81,1,6.7c0.67,1.89,1.84,3.35,3.51,4.38c1.68,1.03,4.04,1.55,7.1,1.55
				c1.55,0,2.96-0.13,4.23-0.4s2.41-0.6,3.42-1c1.01-0.4,1.89-0.77,2.62-1.13h1.67v4.05c-1.81,1.25-4.1,2.44-6.89,3.56
				C214.06,448.45,211.08,449.01,207.9,449.01z"/>
			<path d="M258.08,439.48h1.67v4.35c-1.71,1.25-3.66,2.43-5.85,3.53s-4.83,1.65-7.91,1.65c-3.5,0-6.49-0.73-8.99-2.2
				c-2.5-1.47-4.41-3.5-5.73-6.1s-1.98-5.6-1.98-8.99c0-2.72,0.55-5.19,1.64-7.4s2.56-4.12,4.39-5.72c1.84-1.6,3.88-2.83,6.13-3.69
				c2.25-0.86,4.53-1.29,6.83-1.29c1.75,0,3.28,0.16,4.6,0.48c1.32,0.32,2.45,0.68,3.38,1.09c0.93,0.41,1.68,0.73,2.23,0.97v8.49
				h-2.32c-1.07-0.69-2.27-1.47-3.6-2.32c-1.33-0.85-2.69-1.59-4.09-2.22c-1.4-0.63-2.76-0.94-4.09-0.94c-0.48,0-0.91,0.1-1.29,0.3
				c-0.39,0.2-0.75,0.53-1.09,0.98c-0.34,0.46-0.69,1.16-1.06,2.1s-0.67,2.09-0.92,3.45c-0.25,1.36-0.37,2.9-0.37,4.63
				c0,3.75,0.87,6.63,2.62,8.64c1.75,2.01,4.25,3.01,7.5,3.01c1.03,0,2.04-0.13,3.04-0.39c0.99-0.26,1.94-0.6,2.83-1.01
				S257.34,439.98,258.08,439.48z"/>
			<path d="M263.23,448.24v-2.8l3.81-1.64c0.38-0.16,0.67-0.33,0.88-0.52c0.21-0.19,0.31-0.48,0.31-0.88v-34.93
				c0-0.42-0.11-0.74-0.34-0.97c-0.23-0.23-0.5-0.42-0.82-0.58l-4.17-2.23v-2.89h15.37v30.55l11.91-11.88l-3.48-2.23v-2.74h15.84
				v2.74l-3.93,1.76c-0.42,0.18-0.81,0.38-1.18,0.61c-0.37,0.23-0.76,0.52-1.18,0.88l-7.21,6.34l10.57,15.87
				c0.22,0.32,0.53,0.6,0.94,0.85c0.41,0.25,0.76,0.44,1.06,0.58l3.1,1.31v2.8h-17.39v-2.8l1.64-1.46l-7.24-10.9l-3.57,1.25v8.07
				c0,0.4,0.11,0.69,0.33,0.88c0.22,0.19,0.49,0.36,0.8,0.52l3.19,1.64v2.8H263.23z"/>
			<path d="M325.85,449.07c-3.61,0-6.79-0.69-9.53-2.05c-2.74-1.37-4.87-3.38-6.4-6.02c-1.53-2.64-2.29-5.86-2.29-9.65
				c0-3.49,0.76-6.58,2.28-9.26c1.52-2.68,3.67-4.77,6.45-6.28c2.78-1.51,6.06-2.26,9.86-2.26c4.11,0,7.51,0.79,10.2,2.38
				c2.69,1.59,4.7,3.72,6.03,6.4c1.33,2.68,2,5.65,2,8.9c0,3.45-0.75,6.53-2.26,9.22c-1.51,2.69-3.65,4.8-6.43,6.33
				C332.96,448.3,329.66,449.07,325.85,449.07z M326.27,444.27c1.45,0,2.65-0.36,3.6-1.09c0.95-0.72,1.71-1.69,2.26-2.9
				c0.56-1.21,0.95-2.55,1.18-4c0.23-1.46,0.34-2.93,0.34-4.42c0-2.4-0.25-4.62-0.76-6.67c-0.51-2.04-1.34-3.7-2.49-4.96
				s-2.69-1.89-4.62-1.89c-1.45,0-2.65,0.36-3.6,1.07c-0.95,0.71-1.71,1.67-2.26,2.86c-0.56,1.19-0.95,2.51-1.18,3.96
				c-0.23,1.45-0.34,2.91-0.34,4.38c0,1.63,0.12,3.25,0.37,4.85c0.25,1.61,0.67,3.08,1.25,4.41c0.58,1.33,1.39,2.4,2.41,3.2
				C323.46,443.87,324.74,444.27,326.27,444.27z"/>
			<path d="M364.77,448.86c-2.03,0-3.87-0.38-5.52-1.15c-1.66-0.76-2.98-1.98-3.98-3.63c-0.99-1.66-1.49-3.81-1.49-6.45v-16.29
				c0-0.42-0.12-0.72-0.36-0.92c-0.24-0.2-0.5-0.36-0.77-0.48l-3.84-1.64v-2.89l15.04-1.55v19.8c0,1.83,0.13,3.39,0.4,4.69
				s0.81,2.29,1.62,2.96c0.81,0.67,2.03,1.01,3.66,1.01c1.73,0,3.09-0.23,4.08-0.69c0.99-0.46,1.77-1.11,2.32-1.97v-18.34
				c0-0.42-0.11-0.72-0.34-0.91c-0.23-0.19-0.51-0.35-0.85-0.49l-3.78-1.64v-2.89l15.01-1.55v27.51c0,0.42,0.11,0.72,0.34,0.91
				c0.23,0.19,0.5,0.35,0.82,0.49l3.81,1.64v2.89l-14.32,1.52v-5.54h-0.45c-1.31,1.63-2.8,2.96-4.48,4S367.71,448.86,364.77,448.86z
				"/>
			<path d="M421.61,414.5v5.33H409.7v18.08c0,0.97,0.35,1.83,1.06,2.56c0.7,0.73,1.53,1.31,2.49,1.71s1.78,0.61,2.47,0.61
				c0.63,0,1.46-0.03,2.47-0.09c1.01-0.06,1.77-0.13,2.26-0.21h1.46v3.07c-0.5,0.28-1.33,0.68-2.49,1.19s-2.51,0.98-4.04,1.4
				s-3.1,0.63-4.71,0.63c-1.95,0-3.76-0.28-5.43-0.85c-1.68-0.57-3.03-1.37-4.05-2.41c-1.02-1.04-1.53-2.27-1.53-3.68v-22.01h-5.45
				v-4.73c1.21-0.16,2.26-0.33,3.14-0.52c0.88-0.19,1.58-0.58,2.1-1.18c0.52-0.6,0.81-1.58,0.89-2.95l0.3-4.73l9.05-1.28v10.06
				H421.61z"/>
			<path d="M483.88,438.02h2.47v4.53c-1.19,0.97-2.67,1.97-4.42,2.99s-3.69,1.89-5.81,2.59c-2.11,0.7-4.33,1.06-6.66,1.06
				c-4.59,0-8.6-0.92-12.04-2.75c-3.44-1.84-6.12-4.47-8.04-7.89c-1.92-3.42-2.87-7.53-2.87-12.31c0-4.72,0.99-8.82,2.98-12.28
				c1.99-3.46,4.72-6.14,8.2-8.04c3.48-1.9,7.47-2.84,11.96-2.84c1.63,0,3.44,0.13,5.45,0.39c2,0.26,3.94,0.56,5.81,0.91
				c1.87,0.35,3.4,0.66,4.62,0.94v12.48h-4.58l-1.55-5.9c-0.06-0.24-0.25-0.49-0.58-0.76c-0.33-0.27-0.6-0.46-0.82-0.58
				c-1.03-0.58-2.08-1.06-3.16-1.46c-1.07-0.4-2.3-0.6-3.69-0.6c-4.03,0-7.26,1.34-9.68,4.01s-3.63,6.75-3.63,12.25
				c0,5.74,1.33,10.09,3.98,13.07c2.65,2.98,6.25,4.47,10.79,4.47c1.79,0,3.4-0.24,4.84-0.73c1.44-0.49,2.7-1.06,3.78-1.73
				S483.18,438.56,483.88,438.02z"/>
			<path d="M510.2,449.07c-3.61,0-6.79-0.69-9.53-2.05c-2.74-1.37-4.87-3.38-6.4-6.02c-1.53-2.64-2.29-5.86-2.29-9.65
				c0-3.49,0.76-6.58,2.28-9.26c1.52-2.68,3.67-4.77,6.45-6.28c2.78-1.51,6.06-2.26,9.86-2.26c4.11,0,7.51,0.79,10.2,2.38
				c2.69,1.59,4.7,3.72,6.03,6.4c1.33,2.68,2,5.65,2,8.9c0,3.45-0.75,6.53-2.26,9.22c-1.51,2.69-3.65,4.8-6.43,6.33
				C517.31,448.3,514.01,449.07,510.2,449.07z M510.62,444.27c1.45,0,2.65-0.36,3.6-1.09c0.95-0.72,1.71-1.69,2.26-2.9
				c0.56-1.21,0.95-2.55,1.18-4c0.23-1.46,0.34-2.93,0.34-4.42c0-2.4-0.25-4.62-0.76-6.67c-0.51-2.04-1.34-3.7-2.49-4.96
				s-2.69-1.89-4.62-1.89c-1.45,0-2.65,0.36-3.6,1.07c-0.95,0.71-1.71,1.67-2.26,2.86c-0.56,1.19-0.95,2.51-1.18,3.96
				c-0.23,1.45-0.34,2.91-0.34,4.38c0,1.63,0.12,3.25,0.37,4.85c0.25,1.61,0.67,3.08,1.25,4.41c0.58,1.33,1.39,2.4,2.41,3.2
				C507.81,443.87,509.09,444.27,510.62,444.27z"/>
			<path d="M549.12,448.86c-2.03,0-3.87-0.38-5.52-1.15c-1.66-0.76-2.98-1.98-3.98-3.63c-0.99-1.66-1.49-3.81-1.49-6.45v-16.29
				c0-0.42-0.12-0.72-0.36-0.92c-0.24-0.2-0.5-0.36-0.77-0.48l-3.84-1.64v-2.89l15.04-1.55v19.8c0,1.83,0.13,3.39,0.4,4.69
				s0.81,2.29,1.62,2.96c0.81,0.67,2.03,1.01,3.66,1.01c1.73,0,3.09-0.23,4.08-0.69c0.99-0.46,1.77-1.11,2.32-1.97v-18.34
				c0-0.42-0.11-0.72-0.34-0.91c-0.23-0.19-0.51-0.35-0.85-0.49l-3.78-1.64v-2.89l15.01-1.55v27.51c0,0.42,0.11,0.72,0.34,0.91
				c0.23,0.19,0.5,0.35,0.82,0.49l3.81,1.64v2.89l-14.32,1.52v-5.54h-0.45c-1.31,1.63-2.8,2.96-4.48,4S552.06,448.86,549.12,448.86z
				"/>
			<path d="M579.73,448.24v-2.8l3.87-1.64c0.34-0.18,0.62-0.36,0.83-0.54c0.22-0.18,0.33-0.47,0.33-0.86v-21.05
				c0-0.42-0.12-0.72-0.36-0.91s-0.51-0.35-0.8-0.49l-3.81-1.64v-2.89l14.32-1.55v5.27h0.48c1.31-1.67,2.61-2.89,3.9-3.68
				c1.29-0.78,2.56-1.29,3.81-1.52c1.25-0.23,2.46-0.34,3.63-0.34c2.06,0,3.94,0.39,5.63,1.16c1.69,0.77,3.03,1.99,4.04,3.65
				c1,1.66,1.5,3.81,1.5,6.45v17.39c0,0.48,0.1,0.81,0.31,1c0.21,0.19,0.49,0.37,0.85,0.55l3.39,1.64v2.8h-18.94v-2.8l3.04-1.64
				c0.36-0.2,0.66-0.39,0.89-0.57c0.24-0.18,0.36-0.51,0.36-0.98v-13.4c0-1.87-0.14-3.44-0.43-4.73c-0.29-1.29-0.84-2.27-1.67-2.95
				c-0.82-0.67-2.06-1.01-3.71-1.01c-1.09,0-2.24,0.15-3.45,0.46s-2.2,1.05-2.98,2.22v19.56c0,0.4,0.11,0.68,0.33,0.83
				c0.22,0.16,0.51,0.35,0.86,0.57l2.83,1.64v2.8H579.73z"/>
			<path d="M652.33,414.5v5.33h-11.91v18.08c0,0.97,0.35,1.83,1.06,2.56c0.7,0.73,1.53,1.31,2.49,1.71s1.78,0.61,2.47,0.61
				c0.63,0,1.46-0.03,2.47-0.09c1.01-0.06,1.77-0.13,2.26-0.21h1.46v3.07c-0.5,0.28-1.33,0.68-2.49,1.19s-2.51,0.98-4.04,1.4
				s-3.1,0.63-4.71,0.63c-1.95,0-3.76-0.28-5.43-0.85c-1.68-0.57-3.03-1.37-4.05-2.41c-1.02-1.04-1.53-2.27-1.53-3.68v-22.01h-5.45
				v-4.73c1.21-0.16,2.26-0.33,3.14-0.52c0.88-0.19,1.58-0.58,2.1-1.18c0.52-0.6,0.81-1.58,0.89-2.95l0.3-4.73l9.05-1.28v10.06
				H652.33z"/>
			<path d="M674.09,449.01c-3.38,0-6.4-0.67-9.08-2.01c-2.68-1.34-4.8-3.31-6.36-5.91s-2.34-5.77-2.34-9.5
				c0-3.43,0.74-6.51,2.23-9.23c1.49-2.72,3.57-4.87,6.24-6.45s5.77-2.37,9.31-2.37c3.35,0,6.22,0.61,8.59,1.83
				c2.37,1.22,4.19,2.84,5.45,4.87s1.89,4.26,1.89,6.7c0,0.28-0.02,0.76-0.06,1.46c-0.04,0.7-0.08,1.38-0.12,2.05
				c-0.04,0.68-0.08,1.14-0.12,1.4h-23.64v-4.94h13.7c0-1.85-0.21-3.41-0.62-4.71c-0.42-1.29-1.08-2.28-2-2.96
				c-0.91-0.68-2.13-1.03-3.66-1.03c-1.05,0-2.01,0.21-2.87,0.64c-0.86,0.43-1.61,1.1-2.25,2.02c-0.64,0.92-1.13,2.1-1.47,3.54
				c-0.35,1.44-0.52,3.17-0.52,5.2c0,2.58,0.33,4.81,1,6.7c0.67,1.89,1.84,3.35,3.51,4.38c1.68,1.03,4.04,1.55,7.1,1.55
				c1.55,0,2.96-0.13,4.23-0.4s2.41-0.6,3.42-1c1.01-0.4,1.89-0.77,2.62-1.13h1.67v4.05c-1.81,1.25-4.1,2.44-6.89,3.56
				C680.25,448.45,677.27,449.01,674.09,449.01z"/>
			<path d="M695.33,448.24v-2.8l3.84-1.64c0.34-0.16,0.62-0.33,0.83-0.52c0.22-0.19,0.33-0.48,0.33-0.88v-19.56
				c0-0.93-0.06-1.55-0.16-1.86c-0.11-0.31-0.39-0.56-0.85-0.76l-4.29-1.91v-2.89l14.83-1.55v6.94h0.39
				c1.31-2.08,2.57-3.64,3.78-4.68c1.21-1.03,2.38-1.71,3.51-2.04s2.21-0.49,3.25-0.49c0.97,0,1.96,0.12,2.95,0.36
				c0.99,0.24,1.94,0.69,2.83,1.34v10.45h-7.38l-0.89-2.23c-0.14-0.34-0.45-0.73-0.94-1.18c-0.49-0.45-1.07-0.67-1.74-0.67
				c-0.64,0-1.24,0.08-1.8,0.25c-0.57,0.17-1.13,0.46-1.68,0.88c-0.56,0.42-1.15,0.98-1.79,1.7v17.9c0,0.68,0.39,1.14,1.16,1.4
				l5.21,1.64v2.8H695.33z"/>
			<path d="M761.94,448.86c-2.1,0-3.91-0.47-5.4-1.41c-1.5-0.94-2.65-2.16-3.44-3.65s-1.19-3.06-1.19-4.7
				c0-2.14,0.52-3.99,1.55-5.52c1.03-1.54,2.36-2.79,3.99-3.75c1.63-0.96,3.36-1.67,5.21-2.13c1.85-0.46,3.57-0.68,5.18-0.68
				c0.32,0,0.87,0.03,1.65,0.1c0.78,0.07,1.57,0.15,2.37,0.24s1.33,0.15,1.61,0.19v-2.53c0-2.18-0.37-3.85-1.12-5
				c-0.74-1.15-2.07-1.73-3.97-1.73c-0.85,0-1.82,0.24-2.9,0.73c-1.08,0.49-2.17,1.08-3.28,1.77c-1.1,0.7-2.12,1.38-3.07,2.05
				c-0.94,0.68-1.71,1.19-2.31,1.55h-2.32v-8.13c1.51-0.44,2.99-0.86,4.45-1.28s3.05-0.76,4.76-1.03c1.72-0.27,3.71-0.4,5.97-0.4
				c2.36,0,4.6,0.29,6.7,0.86c2.1,0.58,3.82,1.64,5.15,3.2c1.33,1.56,2,3.82,2,6.77v16.29c0,0.81,0.25,1.47,0.76,1.98
				c0.51,0.51,1.06,0.76,1.65,0.76c0.46,0,0.95-0.04,1.49-0.13s1.04-0.19,1.52-0.31h1.16v3.19c-0.56,0.36-1.32,0.75-2.29,1.18
				c-0.97,0.43-1.99,0.79-3.04,1.09c-1.05,0.3-2.01,0.45-2.86,0.45c-2.64,0-4.6-0.47-5.87-1.4c-1.27-0.93-1.91-2.37-1.91-4.32h-0.48
				c-1.09,1.65-2.32,2.88-3.69,3.71c-1.37,0.82-2.75,1.37-4.15,1.62C764.42,448.73,763.13,448.86,761.94,448.86z M767.24,442.94
				c1.01,0,2.12-0.24,3.32-0.71c1.2-0.48,2.17-1.28,2.9-2.41v-8.19c-2.2,0-4.14,0.18-5.82,0.54s-2.98,0.99-3.92,1.89
				c-0.93,0.9-1.4,2.18-1.4,3.83c0,1.33,0.26,2.36,0.79,3.1c0.53,0.73,1.17,1.25,1.94,1.53
				C765.81,442.79,766.54,442.94,767.24,442.94z"/>
			<path d="M792.67,448.24v-2.8l3.87-1.64c0.34-0.18,0.62-0.36,0.83-0.54c0.22-0.18,0.33-0.47,0.33-0.86v-21.05
				c0-0.42-0.12-0.72-0.36-0.91s-0.51-0.35-0.8-0.49l-3.81-1.64v-2.89l14.32-1.55v5.27h0.48c1.31-1.67,2.61-2.89,3.9-3.68
				c1.29-0.78,2.56-1.29,3.81-1.52c1.25-0.23,2.46-0.34,3.63-0.34c2.06,0,3.94,0.39,5.63,1.16c1.69,0.77,3.03,1.99,4.04,3.65
				c1,1.66,1.5,3.81,1.5,6.45v17.39c0,0.48,0.1,0.81,0.31,1c0.21,0.19,0.49,0.37,0.85,0.55l3.39,1.64v2.8h-18.94v-2.8l3.04-1.64
				c0.36-0.2,0.66-0.39,0.89-0.57c0.24-0.18,0.36-0.51,0.36-0.98v-13.4c0-1.87-0.14-3.44-0.43-4.73c-0.29-1.29-0.84-2.27-1.67-2.95
				c-0.82-0.67-2.06-1.01-3.71-1.01c-1.09,0-2.24,0.15-3.45,0.46s-2.2,1.05-2.98,2.22v19.56c0,0.4,0.11,0.68,0.33,0.83
				c0.22,0.16,0.51,0.35,0.86,0.57l2.83,1.64v2.8H792.67z"/>
			<path d="M852.91,448.86c-2.8,0-5.21-0.71-7.22-2.13c-2.01-1.42-3.56-3.36-4.64-5.82c-1.08-2.46-1.62-5.25-1.62-8.37
				c0-3.47,0.66-6.64,1.96-9.5c1.31-2.86,3.19-5.15,5.63-6.86c2.44-1.72,5.34-2.58,8.7-2.58c2,0,3.75,0.36,5.23,1.09
				c1.48,0.72,2.64,1.58,3.5,2.58l-0.3-2.44v-7.5c0-0.4-0.11-0.69-0.33-0.89c-0.22-0.2-0.49-0.37-0.8-0.51l-5.06-2.23v-2.89h16.2
				v40.59c0,0.4,0.13,0.7,0.39,0.91c0.26,0.21,0.53,0.37,0.8,0.49l3.84,1.64v2.89l-14.38,1.52v-5.69h-0.51
				c-1.23,1.81-2.58,3.11-4.04,3.92c-1.46,0.8-2.85,1.31-4.17,1.5C854.76,448.76,853.7,448.86,852.91,448.86z M858.06,442.88
				c0.6,0,1.28-0.1,2.05-0.31s1.53-0.54,2.26-1c0.73-0.46,1.32-1.04,1.76-1.76v-19.33c-0.44-0.34-1.03-0.6-1.79-0.79
				c-0.75-0.19-1.51-0.33-2.28-0.42s-1.38-0.13-1.86-0.13c-1.91,0-3.47,0.51-4.69,1.53c-1.22,1.02-2.12,2.39-2.71,4.09
				c-0.59,1.71-0.88,3.59-0.88,5.66c0,2.34,0.28,4.46,0.83,6.34c0.56,1.89,1.43,3.38,2.62,4.47
				C854.58,442.33,856.13,442.88,858.06,442.88z"/>
			<path d="M99.39,528.64v-2.83l4.91-2.02c0.36-0.16,0.63-0.33,0.8-0.52c0.18-0.19,0.27-0.5,0.27-0.94v-31.68
				c0-0.42-0.1-0.71-0.3-0.89s-0.46-0.33-0.77-0.45l-4.91-2.02v-2.83h22.51c3.18,0,6.05,0.44,8.64,1.33
				c2.58,0.88,4.64,2.27,6.18,4.17c1.54,1.9,2.31,4.37,2.31,7.43c0,3.22-0.67,5.99-2,8.31c-1.33,2.32-3.17,4.11-5.52,5.37
				c-2.35,1.26-5.05,1.89-8.08,1.89c-1.09,0-2.44-0.23-4.04-0.7c-1.6-0.47-2.86-1.04-3.8-1.71v-3.96c0.54,0.2,1.33,0.35,2.37,0.45
				c1.04,0.1,2.01,0.15,2.9,0.15c1.53,0,2.76-0.3,3.69-0.91c0.93-0.61,1.65-1.36,2.14-2.28c0.5-0.91,0.83-1.83,1.01-2.75
				c0.18-0.92,0.27-1.7,0.27-2.34c0-1.55-0.26-3-0.77-4.35c-0.52-1.35-1.4-2.44-2.65-3.26c-1.25-0.82-3-1.24-5.24-1.24h-3.42v32.28
				c0,0.44,0.11,0.76,0.34,0.97c0.23,0.21,0.49,0.37,0.79,0.49l5.15,2.02v2.83H99.39z"/>
			<path d="M143.2,528.64v-2.8l4.97-1.79c0.38-0.14,0.67-0.31,0.88-0.51c0.21-0.2,0.31-0.5,0.31-0.89v-34.93
				c0-0.4-0.13-0.7-0.39-0.91c-0.26-0.21-0.53-0.37-0.8-0.49l-5.27-2.23v-2.89h16.47v41.45c0,0.4,0.13,0.71,0.39,0.92
				c0.26,0.22,0.53,0.38,0.8,0.48l4.91,1.79v2.8H143.2z"/>
			<path d="M180.33,529.26c-2.1,0-3.91-0.47-5.4-1.41c-1.5-0.94-2.65-2.16-3.44-3.65s-1.19-3.06-1.19-4.7
				c0-2.14,0.52-3.99,1.55-5.52c1.03-1.54,2.36-2.79,3.99-3.75c1.63-0.96,3.36-1.67,5.21-2.13c1.85-0.46,3.57-0.68,5.18-0.68
				c0.32,0,0.87,0.03,1.65,0.1c0.78,0.07,1.57,0.15,2.37,0.24s1.33,0.15,1.61,0.19v-2.53c0-2.18-0.37-3.85-1.12-5
				c-0.74-1.15-2.07-1.73-3.97-1.73c-0.85,0-1.82,0.24-2.9,0.73c-1.08,0.49-2.17,1.08-3.28,1.77c-1.1,0.7-2.12,1.38-3.07,2.05
				c-0.94,0.68-1.71,1.19-2.31,1.55h-2.32v-8.13c1.51-0.44,2.99-0.86,4.45-1.28s3.05-0.76,4.76-1.03c1.72-0.27,3.71-0.4,5.97-0.4
				c2.36,0,4.6,0.29,6.7,0.86c2.1,0.58,3.82,1.64,5.15,3.2c1.33,1.56,2,3.82,2,6.77v16.29c0,0.81,0.25,1.47,0.76,1.98
				c0.51,0.51,1.06,0.76,1.65,0.76c0.46,0,0.95-0.04,1.49-0.13s1.04-0.19,1.52-0.31h1.16v3.19c-0.56,0.36-1.32,0.75-2.29,1.18
				c-0.97,0.43-1.99,0.79-3.04,1.09c-1.05,0.3-2.01,0.45-2.86,0.45c-2.64,0-4.6-0.47-5.87-1.4c-1.27-0.93-1.91-2.37-1.91-4.32h-0.48
				c-1.09,1.65-2.32,2.88-3.69,3.71c-1.37,0.82-2.75,1.37-4.15,1.62C182.82,529.13,181.52,529.26,180.33,529.26z M185.63,523.34
				c1.01,0,2.12-0.24,3.32-0.71c1.2-0.48,2.17-1.28,2.9-2.41v-8.19c-2.2,0-4.14,0.18-5.82,0.54s-2.98,0.99-3.92,1.89
				c-0.93,0.9-1.4,2.18-1.4,3.83c0,1.33,0.26,2.36,0.79,3.1c0.53,0.73,1.17,1.25,1.94,1.53
				C184.21,523.19,184.94,523.34,185.63,523.34z"/>
			<path d="M240.21,519.88h1.67v4.35c-1.71,1.25-3.66,2.43-5.85,3.53s-4.83,1.65-7.91,1.65c-3.5,0-6.49-0.73-8.99-2.2
				c-2.5-1.47-4.41-3.5-5.73-6.1s-1.98-5.6-1.98-8.99c0-2.72,0.55-5.19,1.64-7.4s2.56-4.12,4.39-5.72c1.84-1.6,3.88-2.83,6.13-3.69
				c2.25-0.86,4.53-1.29,6.83-1.29c1.75,0,3.28,0.16,4.6,0.48c1.32,0.32,2.45,0.68,3.38,1.09c0.93,0.41,1.68,0.73,2.23,0.97v8.49
				h-2.32c-1.07-0.69-2.27-1.47-3.6-2.32c-1.33-0.85-2.69-1.59-4.09-2.22c-1.4-0.63-2.76-0.94-4.09-0.94c-0.48,0-0.91,0.1-1.29,0.3
				c-0.39,0.2-0.75,0.53-1.09,0.98c-0.34,0.46-0.69,1.16-1.06,2.1s-0.67,2.09-0.92,3.45c-0.25,1.36-0.37,2.9-0.37,4.63
				c0,3.75,0.87,6.63,2.62,8.64c1.75,2.01,4.25,3.01,7.5,3.01c1.03,0,2.04-0.13,3.04-0.39c0.99-0.26,1.94-0.6,2.83-1.01
				S239.48,520.38,240.21,519.88z"/>
			<path d="M263.95,529.41c-3.38,0-6.4-0.67-9.08-2.01c-2.68-1.34-4.8-3.31-6.36-5.91s-2.34-5.77-2.34-9.5
				c0-3.43,0.74-6.51,2.23-9.23c1.49-2.72,3.57-4.87,6.24-6.45s5.77-2.37,9.31-2.37c3.35,0,6.22,0.61,8.59,1.83
				c2.37,1.22,4.19,2.84,5.45,4.87s1.89,4.26,1.89,6.7c0,0.28-0.02,0.76-0.06,1.46c-0.04,0.7-0.08,1.38-0.12,2.05
				c-0.04,0.68-0.08,1.14-0.12,1.4h-23.64v-4.94h13.7c0-1.85-0.21-3.41-0.62-4.71c-0.42-1.29-1.08-2.28-2-2.96
				c-0.91-0.68-2.13-1.03-3.66-1.03c-1.05,0-2.01,0.21-2.87,0.64c-0.86,0.43-1.61,1.1-2.25,2.02c-0.64,0.92-1.13,2.1-1.47,3.54
				c-0.35,1.44-0.52,3.17-0.52,5.2c0,2.58,0.33,4.81,1,6.7c0.67,1.89,1.84,3.35,3.51,4.38c1.68,1.03,4.04,1.55,7.1,1.55
				c1.55,0,2.96-0.13,4.23-0.4s2.41-0.6,3.42-1c1.01-0.4,1.89-0.77,2.62-1.13h1.67v4.05c-1.81,1.25-4.1,2.44-6.89,3.56
				C270.1,528.85,267.12,529.41,263.95,529.41z"/>
			<path d="M305.66,542.96v-8.28h2.53c0.48,0.14,1.16,0.29,2.04,0.46c0.88,0.17,1.8,0.33,2.75,0.49c0.95,0.16,1.8,0.28,2.55,0.37
				c0.74,0.09,1.22,0.13,1.41,0.13c0.28,0,0.62-0.02,1.04-0.06c0.42-0.04,0.69-0.12,0.8-0.24c0.3-0.3,0.62-0.69,0.98-1.18
				s0.75-1.15,1.18-2s0.91-1.95,1.44-3.32l-3.66-5.3l-10.69-23.82c-0.16-0.38-0.36-0.66-0.61-0.86c-0.25-0.2-0.52-0.37-0.82-0.51
				l-2.83-1.22v-2.74h19v2.74l-4.56,1.64l6.61,14.59l1.49,4.29h0.71l7.15-17.75l-4.38-2.77v-2.74h14.17v2.74l-2.83,2.11
				c-0.28,0.2-0.56,0.42-0.83,0.65c-0.28,0.24-0.48,0.51-0.6,0.8l-13.22,32.67c-1.15,2.82-2.49,4.95-4,6.39
				c-1.52,1.44-3.13,2.4-4.82,2.89s-3.38,0.73-5.05,0.73c-0.28,0-0.91-0.05-1.89-0.15c-0.98-0.1-1.98-0.22-2.99-0.37
				C306.73,543.21,306.04,543.08,305.66,542.96z"/>
			<path d="M365.87,529.47c-3.61,0-6.79-0.69-9.53-2.05c-2.74-1.37-4.87-3.38-6.4-6.02c-1.53-2.64-2.29-5.86-2.29-9.65
				c0-3.49,0.76-6.58,2.28-9.26c1.52-2.68,3.67-4.77,6.45-6.28c2.78-1.51,6.06-2.26,9.86-2.26c4.11,0,7.51,0.79,10.2,2.38
				c2.69,1.59,4.7,3.72,6.03,6.4c1.33,2.68,2,5.65,2,8.9c0,3.45-0.75,6.53-2.26,9.22c-1.51,2.69-3.65,4.8-6.43,6.33
				C372.98,528.71,369.68,529.47,365.87,529.47z M366.29,524.68c1.45,0,2.65-0.36,3.6-1.09c0.95-0.72,1.71-1.69,2.26-2.9
				c0.56-1.21,0.95-2.55,1.18-4c0.23-1.46,0.34-2.93,0.34-4.42c0-2.4-0.25-4.62-0.76-6.67c-0.51-2.04-1.34-3.7-2.49-4.96
				s-2.69-1.89-4.62-1.89c-1.45,0-2.65,0.36-3.6,1.07c-0.95,0.71-1.71,1.67-2.26,2.86c-0.56,1.19-0.95,2.51-1.18,3.96
				c-0.23,1.45-0.34,2.91-0.34,4.38c0,1.63,0.12,3.25,0.37,4.85c0.25,1.61,0.67,3.08,1.25,4.41c0.58,1.33,1.39,2.4,2.41,3.2
				C363.49,524.27,364.76,524.68,366.29,524.68z"/>
			<path d="M404.79,529.26c-2.03,0-3.87-0.38-5.52-1.15c-1.66-0.76-2.98-1.98-3.98-3.63c-0.99-1.66-1.49-3.81-1.49-6.45v-16.29
				c0-0.42-0.12-0.72-0.36-0.92c-0.24-0.2-0.5-0.36-0.77-0.48l-3.84-1.64v-2.89l15.04-1.55v19.8c0,1.83,0.13,3.39,0.4,4.69
				s0.81,2.29,1.62,2.96c0.81,0.67,2.03,1.01,3.66,1.01c1.73,0,3.09-0.23,4.08-0.69c0.99-0.46,1.77-1.11,2.32-1.97v-18.34
				c0-0.42-0.11-0.72-0.34-0.91c-0.23-0.19-0.51-0.35-0.85-0.49l-3.78-1.64v-2.89l15.01-1.55v27.51c0,0.42,0.11,0.72,0.34,0.91
				c0.23,0.19,0.5,0.35,0.82,0.49l3.81,1.64v2.89l-14.32,1.52v-5.54h-0.45c-1.31,1.63-2.8,2.96-4.48,4S407.73,529.26,404.79,529.26z
				"/>
			<path d="M435.61,528.64v-2.8l3.84-1.64c0.34-0.16,0.62-0.33,0.83-0.52c0.22-0.19,0.33-0.48,0.33-0.88v-19.56
				c0-0.93-0.06-1.55-0.16-1.86c-0.11-0.31-0.39-0.56-0.85-0.76l-4.29-1.91v-2.89l14.83-1.55v6.94h0.39
				c1.31-2.08,2.57-3.64,3.78-4.68c1.21-1.03,2.38-1.71,3.51-2.04s2.21-0.49,3.25-0.49c0.97,0,1.96,0.12,2.95,0.36
				c0.99,0.24,1.94,0.69,2.83,1.34v10.45h-7.38l-0.89-2.23c-0.14-0.34-0.45-0.73-0.94-1.18c-0.49-0.45-1.07-0.67-1.74-0.67
				c-0.64,0-1.24,0.08-1.8,0.25c-0.57,0.17-1.13,0.46-1.68,0.88c-0.56,0.42-1.15,0.98-1.79,1.7v17.9c0,0.68,0.39,1.14,1.16,1.4
				l5.21,1.64v2.8H435.61z"/>
			<path d="M529.32,518.42h2.47v4.53c-1.19,0.97-2.67,1.97-4.42,2.99s-3.69,1.89-5.81,2.59c-2.11,0.7-4.33,1.06-6.66,1.06
				c-4.59,0-8.6-0.92-12.04-2.75c-3.44-1.84-6.12-4.47-8.04-7.89c-1.92-3.42-2.87-7.53-2.87-12.31c0-4.72,0.99-8.82,2.98-12.28
				c1.99-3.46,4.72-6.14,8.2-8.04c3.48-1.9,7.47-2.84,11.96-2.84c1.63,0,3.44,0.13,5.45,0.39c2,0.26,3.94,0.56,5.81,0.91
				c1.87,0.35,3.4,0.66,4.62,0.94v12.48h-4.58l-1.55-5.9c-0.06-0.24-0.25-0.49-0.58-0.76c-0.33-0.27-0.6-0.46-0.82-0.58
				c-1.03-0.58-2.08-1.06-3.16-1.46c-1.07-0.4-2.3-0.6-3.69-0.6c-4.03,0-7.26,1.34-9.68,4.01s-3.63,6.75-3.63,12.25
				c0,5.74,1.33,10.09,3.98,13.07c2.65,2.98,6.25,4.47,10.79,4.47c1.79,0,3.4-0.24,4.84-0.73c1.44-0.49,2.7-1.06,3.78-1.73
				S528.62,518.96,529.32,518.42z"/>
			<path d="M547.78,529.26c-2.1,0-3.91-0.47-5.4-1.41c-1.5-0.94-2.65-2.16-3.44-3.65s-1.19-3.06-1.19-4.7
				c0-2.14,0.52-3.99,1.55-5.52c1.03-1.54,2.36-2.79,3.99-3.75c1.63-0.96,3.36-1.67,5.21-2.13c1.85-0.46,3.57-0.68,5.18-0.68
				c0.32,0,0.87,0.03,1.65,0.1c0.78,0.07,1.57,0.15,2.37,0.24s1.33,0.15,1.61,0.19v-2.53c0-2.18-0.37-3.85-1.12-5
				c-0.74-1.15-2.07-1.73-3.97-1.73c-0.85,0-1.82,0.24-2.9,0.73c-1.08,0.49-2.17,1.08-3.28,1.77c-1.1,0.7-2.12,1.38-3.07,2.05
				c-0.94,0.68-1.71,1.19-2.31,1.55h-2.32v-8.13c1.51-0.44,2.99-0.86,4.45-1.28s3.05-0.76,4.76-1.03c1.72-0.27,3.71-0.4,5.97-0.4
				c2.36,0,4.6,0.29,6.7,0.86c2.1,0.58,3.82,1.64,5.15,3.2c1.33,1.56,2,3.82,2,6.77v16.29c0,0.81,0.25,1.47,0.76,1.98
				c0.51,0.51,1.06,0.76,1.65,0.76c0.46,0,0.95-0.04,1.49-0.13s1.04-0.19,1.52-0.31h1.16v3.19c-0.56,0.36-1.32,0.75-2.29,1.18
				c-0.97,0.43-1.99,0.79-3.04,1.09c-1.05,0.3-2.01,0.45-2.86,0.45c-2.64,0-4.6-0.47-5.87-1.4c-1.27-0.93-1.91-2.37-1.91-4.32h-0.48
				c-1.09,1.65-2.32,2.88-3.69,3.71c-1.37,0.82-2.75,1.37-4.15,1.62C550.27,529.13,548.97,529.26,547.78,529.26z M553.08,523.34
				c1.01,0,2.12-0.24,3.32-0.71c1.2-0.48,2.17-1.28,2.9-2.41v-8.19c-2.2,0-4.14,0.18-5.82,0.54s-2.98,0.99-3.92,1.89
				c-0.93,0.9-1.4,2.18-1.4,3.83c0,1.33,0.26,2.36,0.79,3.1c0.53,0.73,1.17,1.25,1.94,1.53
				C551.66,523.19,552.39,523.34,553.08,523.34z"/>
			<path d="M578.72,528.64v-2.8l3.84-1.64c0.34-0.16,0.62-0.33,0.83-0.52c0.22-0.19,0.33-0.48,0.33-0.88v-19.56
				c0-0.93-0.06-1.55-0.16-1.86c-0.11-0.31-0.39-0.56-0.85-0.76l-4.29-1.91v-2.89l14.83-1.55v6.94h0.39
				c1.31-2.08,2.57-3.64,3.78-4.68c1.21-1.03,2.38-1.71,3.51-2.04s2.21-0.49,3.25-0.49c0.97,0,1.96,0.12,2.95,0.36
				c0.99,0.24,1.94,0.69,2.83,1.34v10.45h-7.38l-0.89-2.23c-0.14-0.34-0.45-0.73-0.94-1.18c-0.49-0.45-1.07-0.67-1.74-0.67
				c-0.64,0-1.24,0.08-1.8,0.25c-0.57,0.17-1.13,0.46-1.68,0.88c-0.56,0.42-1.15,0.98-1.79,1.7v17.9c0,0.68,0.39,1.14,1.16,1.4
				l5.21,1.64v2.8H578.72z"/>
			<path d="M640.12,494.9v5.33h-11.91v18.08c0,0.97,0.35,1.83,1.06,2.56c0.7,0.73,1.53,1.31,2.49,1.71s1.78,0.61,2.47,0.61
				c0.63,0,1.46-0.03,2.47-0.09c1.01-0.06,1.77-0.13,2.26-0.21h1.46v3.07c-0.5,0.28-1.33,0.68-2.49,1.19s-2.51,0.98-4.04,1.4
				s-3.1,0.63-4.71,0.63c-1.95,0-3.76-0.28-5.43-0.85c-1.68-0.57-3.03-1.37-4.05-2.41c-1.02-1.04-1.53-2.27-1.53-3.68v-22.01h-5.45
				v-4.73c1.21-0.16,2.26-0.33,3.14-0.52c0.88-0.19,1.58-0.58,2.1-1.18c0.52-0.6,0.81-1.58,0.89-2.95l0.3-4.73l9.05-1.28v10.06
				H640.12z"/>
			<path d="M683.15,529.47c-3.61,0-6.79-0.69-9.53-2.05c-2.74-1.37-4.87-3.38-6.4-6.02c-1.53-2.64-2.29-5.86-2.29-9.65
				c0-3.49,0.76-6.58,2.28-9.26c1.52-2.68,3.67-4.77,6.45-6.28c2.78-1.51,6.06-2.26,9.86-2.26c4.11,0,7.51,0.79,10.2,2.38
				c2.69,1.59,4.7,3.72,6.03,6.4c1.33,2.68,2,5.65,2,8.9c0,3.45-0.75,6.53-2.26,9.22c-1.51,2.69-3.65,4.8-6.43,6.33
				C690.26,528.71,686.96,529.47,683.15,529.47z M683.57,524.68c1.45,0,2.65-0.36,3.6-1.09c0.95-0.72,1.71-1.69,2.26-2.9
				c0.56-1.21,0.95-2.55,1.18-4c0.23-1.46,0.34-2.93,0.34-4.42c0-2.4-0.25-4.62-0.76-6.67c-0.51-2.04-1.34-3.7-2.49-4.96
				s-2.69-1.89-4.62-1.89c-1.45,0-2.65,0.36-3.6,1.07c-0.95,0.71-1.71,1.67-2.26,2.86c-0.56,1.19-0.95,2.51-1.18,3.96
				c-0.23,1.45-0.34,2.91-0.34,4.38c0,1.63,0.12,3.25,0.37,4.85c0.25,1.61,0.67,3.08,1.25,4.41c0.58,1.33,1.39,2.4,2.41,3.2
				C680.76,524.27,682.04,524.68,683.57,524.68z"/>
			<path d="M707.12,528.64v-2.8l3.87-1.64c0.34-0.18,0.62-0.36,0.83-0.54c0.22-0.18,0.33-0.47,0.33-0.86v-21.05
				c0-0.42-0.12-0.72-0.36-0.91s-0.51-0.35-0.8-0.49l-3.81-1.64v-2.89l14.32-1.55v5.27h0.48c1.31-1.67,2.61-2.89,3.9-3.68
				c1.29-0.78,2.56-1.29,3.81-1.52c1.25-0.23,2.46-0.34,3.63-0.34c2.06,0,3.94,0.39,5.63,1.16c1.69,0.77,3.03,1.99,4.04,3.65
				c1,1.66,1.5,3.81,1.5,6.45v17.39c0,0.48,0.1,0.81,0.31,1c0.21,0.19,0.49,0.37,0.85,0.55l3.39,1.64v2.8h-18.94v-2.8l3.04-1.64
				c0.36-0.2,0.66-0.39,0.89-0.57c0.24-0.18,0.36-0.51,0.36-0.98v-13.4c0-1.87-0.14-3.44-0.43-4.73c-0.29-1.29-0.84-2.27-1.67-2.95
				c-0.82-0.67-2.06-1.01-3.71-1.01c-1.09,0-2.24,0.15-3.45,0.46s-2.2,1.05-2.98,2.22v19.56c0,0.4,0.11,0.68,0.33,0.83
				c0.22,0.16,0.51,0.35,0.86,0.57l2.83,1.64v2.8H707.12z"/>
			<path d="M800.41,494.9v5.33H788.5v18.08c0,0.97,0.35,1.83,1.06,2.56c0.7,0.73,1.53,1.31,2.49,1.71s1.78,0.61,2.47,0.61
				c0.63,0,1.46-0.03,2.47-0.09c1.01-0.06,1.77-0.13,2.26-0.21h1.46v3.07c-0.5,0.28-1.33,0.68-2.49,1.19s-2.51,0.98-4.04,1.4
				s-3.1,0.63-4.71,0.63c-1.95,0-3.76-0.28-5.43-0.85c-1.68-0.57-3.03-1.37-4.05-2.41c-1.02-1.04-1.53-2.27-1.53-3.68v-22.01h-5.45
				v-4.73c1.21-0.16,2.26-0.33,3.14-0.52c0.88-0.19,1.58-0.58,2.1-1.18c0.52-0.6,0.81-1.58,0.89-2.95l0.3-4.73l9.05-1.28v10.06
				H800.41z"/>
			<path d="M803.63,525.84l3.81-1.64c0.42-0.18,0.71-0.36,0.89-0.54c0.18-0.18,0.27-0.47,0.27-0.86v-35.08
				c0-0.4-0.11-0.69-0.34-0.88c-0.23-0.19-0.5-0.36-0.82-0.52l-4.2-2.23v-2.89h15.39v16.02l-0.33,2.86c1.17-1.77,2.4-3.08,3.69-3.95
				c1.29-0.86,2.59-1.43,3.9-1.71c1.31-0.28,2.56-0.42,3.75-0.42c2.03,0,3.89,0.37,5.6,1.1c1.71,0.73,3.08,1.93,4.12,3.57
				c1.04,1.65,1.56,3.84,1.56,6.58v17.39c0,0.48,0.1,0.81,0.31,1c0.21,0.19,0.48,0.37,0.82,0.55l3.51,1.64v2.8h-18.94v-2.8
				l3.04-1.64c0.32-0.18,0.6-0.36,0.83-0.55c0.24-0.19,0.36-0.52,0.36-1v-13.4c0-1.98-0.16-3.62-0.48-4.9
				c-0.32-1.28-0.91-2.23-1.77-2.86c-0.86-0.62-2.11-0.94-3.74-0.94c-0.93,0-2.03,0.15-3.28,0.45c-1.25,0.3-2.24,1.04-2.98,2.23
				v19.56c0,0.4,0.1,0.68,0.31,0.83c0.21,0.16,0.49,0.35,0.85,0.57l2.83,1.64v2.8h-19V525.84z"/>
			<path d="M867.98,529.41c-3.38,0-6.4-0.67-9.08-2.01c-2.68-1.34-4.8-3.31-6.36-5.91s-2.34-5.77-2.34-9.5
				c0-3.43,0.74-6.51,2.23-9.23c1.49-2.72,3.57-4.87,6.24-6.45s5.77-2.37,9.31-2.37c3.35,0,6.22,0.61,8.59,1.83
				c2.37,1.22,4.19,2.84,5.45,4.87s1.89,4.26,1.89,6.7c0,0.28-0.02,0.76-0.06,1.46c-0.04,0.7-0.08,1.38-0.12,2.05
				c-0.04,0.68-0.08,1.14-0.12,1.4h-23.64v-4.94h13.7c0-1.85-0.21-3.41-0.62-4.71c-0.42-1.29-1.08-2.28-2-2.96
				c-0.91-0.68-2.13-1.03-3.66-1.03c-1.05,0-2.01,0.21-2.87,0.64c-0.86,0.43-1.61,1.1-2.25,2.02c-0.64,0.92-1.13,2.1-1.47,3.54
				c-0.35,1.44-0.52,3.17-0.52,5.2c0,2.58,0.33,4.81,1,6.7c0.67,1.89,1.84,3.35,3.51,4.38c1.68,1.03,4.04,1.55,7.1,1.55
				c1.55,0,2.96-0.13,4.23-0.4s2.41-0.6,3.42-1c1.01-0.4,1.89-0.77,2.62-1.13h1.67v4.05c-1.81,1.25-4.1,2.44-6.89,3.56
				C874.14,528.85,871.15,529.41,867.98,529.41z"/>
			<path d="M99.39,609.04v-2.83l4.91-2.03c0.36-0.16,0.63-0.33,0.8-0.52c0.18-0.19,0.27-0.5,0.27-0.94v-31.68
				c0-0.42-0.1-0.71-0.3-0.89c-0.2-0.18-0.46-0.33-0.77-0.45l-4.91-2.03v-2.83h22.51c3.18,0,6.05,0.44,8.64,1.32
				c2.58,0.88,4.64,2.27,6.18,4.17c1.54,1.9,2.31,4.37,2.31,7.43c0,3.21-0.67,5.98-2,8.31c-1.33,2.32-3.17,4.11-5.52,5.37
				c-2.35,1.26-5.05,1.89-8.08,1.89c-1.09,0-2.44-0.23-4.04-0.7c-1.6-0.47-2.86-1.04-3.8-1.71v-3.96c0.54,0.2,1.33,0.35,2.37,0.45
				c1.04,0.1,2.01,0.15,2.9,0.15c1.53,0,2.76-0.3,3.69-0.91c0.93-0.61,1.65-1.37,2.14-2.28c0.5-0.91,0.83-1.83,1.01-2.75
				c0.18-0.92,0.27-1.7,0.27-2.34c0-1.55-0.26-3-0.77-4.35c-0.52-1.35-1.4-2.44-2.65-3.26c-1.25-0.82-3-1.24-5.24-1.24h-3.42v32.28
				c0,0.44,0.11,0.76,0.34,0.97c0.23,0.21,0.49,0.37,0.79,0.49l5.15,2.03v2.83H99.39z"/>
			<path d="M154.75,609.66c-2.1,0-3.91-0.47-5.4-1.42c-1.5-0.94-2.65-2.16-3.44-3.65s-1.19-3.06-1.19-4.7
				c0-2.14,0.52-3.99,1.55-5.52s2.36-2.79,3.99-3.75c1.63-0.96,3.36-1.67,5.21-2.13c1.85-0.46,3.57-0.68,5.18-0.68
				c0.32,0,0.87,0.03,1.65,0.1c0.78,0.07,1.57,0.15,2.37,0.24s1.33,0.15,1.61,0.19v-2.53c0-2.18-0.37-3.85-1.12-5
				c-0.74-1.15-2.07-1.73-3.97-1.73c-0.85,0-1.82,0.24-2.9,0.73s-2.17,1.08-3.28,1.77c-1.1,0.7-2.12,1.38-3.07,2.05
				c-0.94,0.68-1.71,1.19-2.31,1.55h-2.32v-8.13c1.51-0.44,2.99-0.86,4.45-1.28c1.46-0.42,3.05-0.76,4.76-1.03
				c1.72-0.27,3.71-0.4,5.97-0.4c2.36,0,4.6,0.29,6.7,0.86c2.1,0.58,3.82,1.64,5.15,3.2c1.33,1.56,2,3.82,2,6.77v16.29
				c0,0.81,0.25,1.47,0.76,1.98c0.51,0.51,1.06,0.76,1.65,0.76c0.46,0,0.95-0.04,1.49-0.13c0.54-0.09,1.04-0.19,1.52-0.31h1.16v3.19
				c-0.56,0.36-1.32,0.75-2.29,1.18c-0.97,0.43-1.99,0.79-3.04,1.09c-1.05,0.3-2.01,0.45-2.86,0.45c-2.64,0-4.6-0.47-5.87-1.4
				c-1.27-0.93-1.91-2.37-1.91-4.32h-0.48c-1.09,1.65-2.32,2.88-3.69,3.71c-1.37,0.82-2.75,1.37-4.15,1.62
				C157.24,609.53,155.94,609.66,154.75,609.66z M160.05,603.74c1.01,0,2.12-0.24,3.32-0.71c1.2-0.48,2.17-1.28,2.9-2.41v-8.19
				c-2.2,0-4.14,0.18-5.82,0.54s-2.98,0.99-3.92,1.89c-0.93,0.9-1.4,2.18-1.4,3.83c0,1.33,0.26,2.36,0.79,3.1
				c0.53,0.73,1.17,1.25,1.94,1.53C158.63,603.59,159.36,603.74,160.05,603.74z"/>
			<path d="M199.36,609.66c-2.8,0-5.21-0.71-7.22-2.13c-2.01-1.42-3.56-3.36-4.64-5.82c-1.08-2.46-1.62-5.25-1.62-8.37
				c0-3.47,0.66-6.64,1.96-9.5c1.31-2.86,3.19-5.15,5.63-6.86c2.44-1.72,5.34-2.58,8.7-2.58c2,0,3.75,0.36,5.23,1.09
				c1.48,0.72,2.64,1.58,3.5,2.58l-0.3-2.44v-7.5c0-0.4-0.11-0.7-0.33-0.89s-0.49-0.37-0.8-0.51l-5.06-2.23v-2.89h16.2v40.59
				c0,0.4,0.13,0.7,0.39,0.91c0.26,0.21,0.53,0.37,0.8,0.49l3.84,1.64v2.89l-14.38,1.52v-5.69h-0.51c-1.23,1.81-2.58,3.11-4.04,3.92
				c-1.46,0.8-2.85,1.3-4.17,1.5C201.21,609.56,200.15,609.66,199.36,609.66z M204.51,603.68c0.6,0,1.28-0.1,2.05-0.31
				c0.77-0.21,1.53-0.54,2.26-1c0.73-0.46,1.32-1.04,1.76-1.76v-19.33c-0.44-0.34-1.03-0.6-1.79-0.79
				c-0.75-0.19-1.51-0.33-2.28-0.42c-0.76-0.09-1.38-0.13-1.86-0.13c-1.91,0-3.47,0.51-4.69,1.53s-2.12,2.39-2.71,4.09
				c-0.59,1.71-0.88,3.59-0.88,5.66c0,2.34,0.28,4.46,0.83,6.34s1.43,3.38,2.62,4.47C201.03,603.13,202.58,603.68,204.51,603.68z"/>
			<path d="M276.99,575.3v5.33h-11.91v18.08c0,0.97,0.35,1.83,1.06,2.56c0.7,0.73,1.53,1.31,2.49,1.71
				c0.95,0.41,1.78,0.61,2.47,0.61c0.63,0,1.46-0.03,2.47-0.09c1.01-0.06,1.77-0.13,2.26-0.21h1.46v3.07
				c-0.5,0.28-1.33,0.68-2.49,1.19s-2.51,0.98-4.04,1.4s-3.1,0.63-4.71,0.63c-1.95,0-3.76-0.28-5.43-0.85
				c-1.68-0.57-3.03-1.37-4.05-2.41c-1.02-1.04-1.53-2.27-1.53-3.68v-22.01h-5.45v-4.73c1.21-0.16,2.26-0.33,3.14-0.52
				c0.88-0.19,1.58-0.58,2.1-1.18c0.52-0.6,0.81-1.58,0.89-2.95l0.3-4.73l9.05-1.28v10.06H276.99z"/>
			<path d="M299.32,609.87c-3.61,0-6.79-0.68-9.53-2.05c-2.74-1.37-4.87-3.38-6.4-6.01c-1.53-2.64-2.29-5.86-2.29-9.65
				c0-3.49,0.76-6.58,2.28-9.26c1.52-2.68,3.67-4.77,6.45-6.28c2.78-1.51,6.06-2.26,9.86-2.26c4.11,0,7.51,0.79,10.2,2.38
				c2.69,1.59,4.7,3.72,6.03,6.4s2,5.65,2,8.9c0,3.45-0.75,6.53-2.26,9.21c-1.51,2.69-3.65,4.8-6.43,6.33
				C306.43,609.11,303.13,609.87,299.32,609.87z M299.74,605.08c1.45,0,2.65-0.36,3.6-1.09c0.95-0.72,1.71-1.69,2.26-2.9
				c0.56-1.21,0.95-2.55,1.18-4c0.23-1.46,0.34-2.93,0.34-4.42c0-2.4-0.25-4.62-0.76-6.67c-0.51-2.04-1.34-3.7-2.49-4.96
				c-1.15-1.26-2.69-1.89-4.62-1.89c-1.45,0-2.65,0.36-3.6,1.07c-0.95,0.71-1.71,1.67-2.26,2.86c-0.56,1.19-0.95,2.51-1.18,3.96
				c-0.23,1.45-0.34,2.91-0.34,4.38c0,1.63,0.12,3.25,0.37,4.85s0.67,3.08,1.25,4.41c0.58,1.33,1.39,2.4,2.41,3.2
				C296.93,604.67,298.21,605.08,299.74,605.08z"/>
			<path d="M367.27,610.05c-4.9,0-9.05-0.93-12.45-2.78c-3.4-1.86-5.97-4.52-7.73-7.98c-1.76-3.46-2.64-7.61-2.64-12.43
				c0-4.53,0.91-8.52,2.74-11.99c1.83-3.46,4.45-6.17,7.86-8.13c3.41-1.96,7.5-2.93,12.27-2.93c5.2,0,9.48,1,12.83,3.01
				c3.35,2.01,5.85,4.74,7.49,8.2c1.64,3.46,2.46,7.41,2.46,11.84c0,2.98-0.44,5.85-1.31,8.62c-0.87,2.77-2.23,5.25-4.08,7.44
				s-4.21,3.93-7.09,5.21C374.76,609.41,371.3,610.05,367.27,610.05z M367.75,604.66c2.46,0,4.51-0.69,6.13-2.08
				c1.63-1.39,2.85-3.35,3.66-5.87c0.81-2.52,1.22-5.47,1.22-8.84c0-3.89-0.43-7.23-1.28-10s-2.16-4.91-3.93-6.4
				s-4.02-2.23-6.76-2.23c-2.62,0-4.74,0.74-6.34,2.22c-1.61,1.48-2.78,3.47-3.51,5.99c-0.74,2.51-1.1,5.32-1.1,8.41
				c0,3.85,0.42,7.19,1.25,10c0.83,2.82,2.13,4.99,3.89,6.52C362.73,603.89,364.99,604.66,367.75,604.66z"/>
			<path d="M395.11,624.28v-2.77l4.02-1.73c0.36-0.16,0.64-0.32,0.85-0.48c0.21-0.16,0.31-0.45,0.31-0.86v-36.3
				c0-0.42-0.12-0.72-0.36-0.92c-0.24-0.2-0.51-0.36-0.8-0.48l-3.81-1.64v-2.89l14.35-1.55v5.6h0.54c0.93-1.39,2-2.52,3.22-3.38
				s2.51-1.49,3.9-1.89c1.39-0.4,2.82-0.6,4.29-0.6c2.82,0,5.23,0.71,7.24,2.13c2,1.42,3.54,3.36,4.62,5.81
				c1.07,2.45,1.61,5.23,1.61,8.32c0,3.44-0.64,6.57-1.91,9.41c-1.27,2.84-3.1,5.1-5.49,6.78c-2.39,1.68-5.29,2.52-8.68,2.52
				c-1.99,0-3.78-0.37-5.39-1.1c-1.61-0.73-2.8-1.59-3.57-2.56l0.3,2.44v10.24c0,0.42,0.11,0.71,0.33,0.88
				c0.22,0.17,0.51,0.32,0.86,0.46l4.85,1.79v2.77H395.11z M410.33,583.7v18.76c0.52,0.36,1.17,0.63,1.96,0.83
				c0.79,0.2,1.58,0.34,2.35,0.43c0.77,0.09,1.39,0.13,1.85,0.13c1.91,0,3.45-0.51,4.64-1.52c1.19-1.01,2.06-2.36,2.62-4.04
				c0.56-1.68,0.83-3.53,0.83-5.55c0-2.32-0.27-4.41-0.82-6.27c-0.55-1.86-1.41-3.32-2.59-4.41c-1.18-1.08-2.73-1.62-4.66-1.62
				c-1.51,0-2.81,0.37-3.9,1.12C411.53,582.31,410.77,583.02,410.33,583.7z"/>
			<path d="M458.51,609.81c-3.38,0-6.4-0.67-9.08-2.01c-2.68-1.34-4.8-3.31-6.36-5.91c-1.56-2.6-2.34-5.77-2.34-9.5
				c0-3.43,0.74-6.51,2.23-9.23c1.49-2.72,3.57-4.87,6.24-6.45s5.77-2.37,9.31-2.37c3.35,0,6.22,0.61,8.59,1.83
				c2.37,1.22,4.19,2.84,5.45,4.87c1.26,2.02,1.89,4.26,1.89,6.7c0,0.28-0.02,0.76-0.06,1.46c-0.04,0.7-0.08,1.38-0.12,2.05
				c-0.04,0.68-0.08,1.14-0.12,1.4H450.5v-4.94h13.7c0-1.85-0.21-3.41-0.62-4.71c-0.42-1.29-1.08-2.28-2-2.96
				c-0.91-0.68-2.13-1.03-3.66-1.03c-1.05,0-2.01,0.21-2.87,0.64c-0.86,0.43-1.61,1.1-2.25,2.02s-1.13,2.1-1.47,3.54
				c-0.35,1.44-0.52,3.17-0.52,5.2c0,2.58,0.33,4.81,1,6.7c0.67,1.89,1.84,3.34,3.51,4.38c1.68,1.03,4.04,1.55,7.1,1.55
				c1.55,0,2.96-0.13,4.23-0.4s2.41-0.6,3.42-1c1.01-0.4,1.89-0.77,2.62-1.13h1.67v4.05c-1.81,1.25-4.1,2.44-6.89,3.56
				C464.67,609.25,461.69,609.81,458.51,609.81z"/>
			<path d="M479.53,609.04v-2.8l3.87-1.64c0.34-0.18,0.62-0.36,0.83-0.54c0.22-0.18,0.33-0.47,0.33-0.86v-21.05
				c0-0.42-0.12-0.72-0.36-0.91s-0.51-0.35-0.8-0.49l-3.81-1.64v-2.89l14.32-1.55v5.27h0.48c1.31-1.67,2.61-2.89,3.9-3.68
				c1.29-0.78,2.56-1.29,3.81-1.52c1.25-0.23,2.46-0.34,3.63-0.34c2.06,0,3.94,0.39,5.63,1.16c1.69,0.77,3.03,1.99,4.04,3.65
				c1,1.66,1.5,3.81,1.5,6.45v17.39c0,0.48,0.1,0.81,0.31,1c0.21,0.19,0.49,0.37,0.85,0.55l3.39,1.64v2.8h-18.94v-2.8l3.04-1.64
				c0.36-0.2,0.66-0.39,0.89-0.57c0.24-0.18,0.36-0.51,0.36-0.98v-13.4c0-1.87-0.14-3.44-0.43-4.73s-0.84-2.27-1.67-2.95
				c-0.82-0.67-2.06-1.01-3.71-1.01c-1.09,0-2.24,0.15-3.45,0.46s-2.2,1.05-2.98,2.22v19.56c0,0.4,0.11,0.68,0.33,0.83
				c0.22,0.16,0.51,0.35,0.86,0.57l2.83,1.64v2.8H479.53z"/>
			<path d="M572.82,575.3v5.33h-11.91v18.08c0,0.97,0.35,1.83,1.06,2.56c0.7,0.73,1.53,1.31,2.49,1.71
				c0.95,0.41,1.78,0.61,2.47,0.61c0.63,0,1.46-0.03,2.47-0.09c1.01-0.06,1.77-0.13,2.26-0.21h1.46v3.07
				c-0.5,0.28-1.33,0.68-2.49,1.19s-2.51,0.98-4.04,1.4s-3.1,0.63-4.71,0.63c-1.95,0-3.76-0.28-5.43-0.85
				c-1.68-0.57-3.03-1.37-4.05-2.41c-1.02-1.04-1.53-2.27-1.53-3.68v-22.01h-5.45v-4.73c1.21-0.16,2.26-0.33,3.14-0.52
				c0.88-0.19,1.58-0.58,2.1-1.18c0.52-0.6,0.81-1.58,0.89-2.95l0.3-4.73l9.05-1.28v10.06H572.82z"/>
			<path d="M576.04,606.24l3.81-1.64c0.42-0.18,0.71-0.36,0.89-0.54c0.18-0.18,0.27-0.47,0.27-0.86v-35.08
				c0-0.4-0.11-0.69-0.34-0.88c-0.23-0.19-0.5-0.36-0.82-0.52l-4.2-2.23v-2.89h15.39v16.02l-0.33,2.86c1.17-1.77,2.4-3.08,3.69-3.95
				c1.29-0.86,2.59-1.43,3.9-1.71c1.31-0.28,2.56-0.42,3.75-0.42c2.03,0,3.89,0.37,5.6,1.1c1.71,0.73,3.08,1.93,4.12,3.57
				s1.56,3.84,1.56,6.58v17.39c0,0.48,0.1,0.81,0.31,1c0.21,0.19,0.48,0.37,0.82,0.55l3.51,1.64v2.8h-18.94v-2.8l3.04-1.64
				c0.32-0.18,0.6-0.36,0.83-0.55s0.36-0.52,0.36-1v-13.4c0-1.98-0.16-3.62-0.48-4.9c-0.32-1.28-0.91-2.23-1.77-2.86
				c-0.86-0.62-2.11-0.94-3.74-0.94c-0.93,0-2.03,0.15-3.28,0.45c-1.25,0.3-2.24,1.04-2.98,2.23v19.56c0,0.4,0.1,0.68,0.31,0.83
				c0.21,0.16,0.49,0.35,0.85,0.57l2.83,1.64v2.8h-19V606.24z"/>
			<path d="M640.39,609.81c-3.38,0-6.4-0.67-9.08-2.01c-2.68-1.34-4.8-3.31-6.36-5.91c-1.56-2.6-2.34-5.77-2.34-9.5
				c0-3.43,0.74-6.51,2.23-9.23c1.49-2.72,3.57-4.87,6.24-6.45s5.77-2.37,9.31-2.37c3.35,0,6.22,0.61,8.59,1.83
				c2.37,1.22,4.19,2.84,5.45,4.87c1.26,2.02,1.89,4.26,1.89,6.7c0,0.28-0.02,0.76-0.06,1.46c-0.04,0.7-0.08,1.38-0.12,2.05
				c-0.04,0.68-0.08,1.14-0.12,1.4h-23.64v-4.94h13.7c0-1.85-0.21-3.41-0.62-4.71c-0.42-1.29-1.08-2.28-2-2.96
				c-0.91-0.68-2.13-1.03-3.66-1.03c-1.05,0-2.01,0.21-2.87,0.64c-0.86,0.43-1.61,1.1-2.25,2.02s-1.13,2.1-1.47,3.54
				c-0.35,1.44-0.52,3.17-0.52,5.2c0,2.58,0.33,4.81,1,6.7c0.67,1.89,1.84,3.34,3.51,4.38c1.68,1.03,4.04,1.55,7.1,1.55
				c1.55,0,2.96-0.13,4.23-0.4s2.41-0.6,3.42-1c1.01-0.4,1.89-0.77,2.62-1.13h1.67v4.05c-1.81,1.25-4.1,2.44-6.89,3.56
				C646.55,609.25,643.56,609.81,640.39,609.81z"/>
			<path d="M714.09,602.84v-8.99c0-0.42-0.11-0.72-0.33-0.91c-0.22-0.19-0.47-0.32-0.74-0.4l-6.58-2.12v-2.77h23.02v2.77l-3.87,2.12
				c-0.26,0.14-0.51,0.29-0.74,0.45s-0.36,0.45-0.36,0.86v4.76c0,1.99,0.01,3.66,0.03,5.03c0.02,1.37,0.09,2.45,0.21,3.25
				c-2.48,0.81-5.38,1.54-8.7,2.19s-6.66,0.97-10.04,0.97c-4.29,0-8.2-0.87-11.75-2.62s-6.37-4.32-8.49-7.73
				c-2.11-3.4-3.17-7.61-3.17-12.61c0-4.76,1.04-8.88,3.11-12.36c2.07-3.47,4.93-6.15,8.56-8.04c3.63-1.89,7.78-2.83,12.45-2.83
				c3,0,5.56,0.13,7.68,0.39s3.97,0.56,5.54,0.91c1.57,0.35,2.99,0.66,4.26,0.94v12.63h-4.62l-1.52-5.96
				c-0.08-0.32-0.27-0.57-0.57-0.77c-0.3-0.2-0.58-0.35-0.83-0.45c-1.41-0.62-3.07-1.12-4.99-1.52c-1.92-0.4-3.61-0.6-5.08-0.6
				c-2.44,0-4.63,0.6-6.57,1.79c-1.94,1.19-3.46,3-4.57,5.42c-1.11,2.42-1.67,5.49-1.67,9.2c0,3.67,0.51,6.91,1.53,9.72
				c1.02,2.81,2.52,5,4.5,6.58s4.39,2.37,7.25,2.37c0.87,0,1.69-0.06,2.46-0.19c0.76-0.13,1.52-0.32,2.26-0.58
				C712.52,603.48,713.29,603.18,714.09,602.84z"/>
			<path d="M744.52,609.66c-2.1,0-3.91-0.47-5.4-1.42c-1.5-0.94-2.65-2.16-3.44-3.65s-1.19-3.06-1.19-4.7
				c0-2.14,0.52-3.99,1.55-5.52s2.36-2.79,3.99-3.75c1.63-0.96,3.36-1.67,5.21-2.13c1.85-0.46,3.57-0.68,5.18-0.68
				c0.32,0,0.87,0.03,1.65,0.1c0.78,0.07,1.57,0.15,2.37,0.24s1.33,0.15,1.61,0.19v-2.53c0-2.18-0.37-3.85-1.12-5
				c-0.74-1.15-2.07-1.73-3.97-1.73c-0.85,0-1.82,0.24-2.9,0.73s-2.17,1.08-3.28,1.77c-1.1,0.7-2.12,1.38-3.07,2.05
				c-0.94,0.68-1.71,1.19-2.31,1.55h-2.32v-8.13c1.51-0.44,2.99-0.86,4.45-1.28c1.46-0.42,3.05-0.76,4.76-1.03
				c1.72-0.27,3.71-0.4,5.97-0.4c2.36,0,4.6,0.29,6.7,0.86c2.1,0.58,3.82,1.64,5.15,3.2c1.33,1.56,2,3.82,2,6.77v16.29
				c0,0.81,0.25,1.47,0.76,1.98c0.51,0.51,1.06,0.76,1.65,0.76c0.46,0,0.95-0.04,1.49-0.13c0.54-0.09,1.04-0.19,1.52-0.31h1.16v3.19
				c-0.56,0.36-1.32,0.75-2.29,1.18c-0.97,0.43-1.99,0.79-3.04,1.09c-1.05,0.3-2.01,0.45-2.86,0.45c-2.64,0-4.6-0.47-5.87-1.4
				c-1.27-0.93-1.91-2.37-1.91-4.32h-0.48c-1.09,1.65-2.32,2.88-3.69,3.71c-1.37,0.82-2.75,1.37-4.15,1.62
				C747.01,609.53,745.71,609.66,744.52,609.66z M749.82,603.74c1.01,0,2.12-0.24,3.32-0.71c1.2-0.48,2.17-1.28,2.9-2.41v-8.19
				c-2.2,0-4.14,0.18-5.82,0.54s-2.98,0.99-3.92,1.89c-0.93,0.9-1.4,2.18-1.4,3.83c0,1.33,0.26,2.36,0.79,3.1
				c0.53,0.73,1.17,1.25,1.94,1.53C748.4,603.59,749.12,603.74,749.82,603.74z"/>
			<path d="M801.48,575.3v5.33h-11.91v18.08c0,0.97,0.35,1.83,1.06,2.56c0.7,0.73,1.53,1.31,2.49,1.71
				c0.95,0.41,1.78,0.61,2.47,0.61c0.63,0,1.46-0.03,2.47-0.09c1.01-0.06,1.77-0.13,2.26-0.21h1.46v3.07
				c-0.5,0.28-1.33,0.68-2.49,1.19s-2.51,0.98-4.04,1.4s-3.1,0.63-4.71,0.63c-1.95,0-3.76-0.28-5.43-0.85
				c-1.68-0.57-3.03-1.37-4.05-2.41c-1.02-1.04-1.53-2.27-1.53-3.68v-22.01h-5.45v-4.73c1.21-0.16,2.26-0.33,3.14-0.52
				c0.88-0.19,1.58-0.58,2.1-1.18c0.52-0.6,0.81-1.58,0.89-2.95l0.3-4.73l9.05-1.28v10.06H801.48z"/>
			<path d="M823.25,609.81c-3.38,0-6.4-0.67-9.08-2.01c-2.68-1.34-4.8-3.31-6.36-5.91c-1.56-2.6-2.34-5.77-2.34-9.5
				c0-3.43,0.74-6.51,2.23-9.23c1.49-2.72,3.57-4.87,6.24-6.45s5.77-2.37,9.31-2.37c3.35,0,6.22,0.61,8.59,1.83
				c2.37,1.22,4.19,2.84,5.45,4.87c1.26,2.02,1.89,4.26,1.89,6.7c0,0.28-0.02,0.76-0.06,1.46c-0.04,0.7-0.08,1.38-0.12,2.05
				c-0.04,0.68-0.08,1.14-0.12,1.4h-23.64v-4.94h13.7c0-1.85-0.21-3.41-0.62-4.71c-0.42-1.29-1.08-2.28-2-2.96
				c-0.91-0.68-2.13-1.03-3.66-1.03c-1.05,0-2.01,0.21-2.87,0.64c-0.86,0.43-1.61,1.1-2.25,2.02s-1.13,2.1-1.47,3.54
				c-0.35,1.44-0.52,3.17-0.52,5.2c0,2.58,0.33,4.81,1,6.7c0.67,1.89,1.84,3.34,3.51,4.38c1.68,1.03,4.04,1.55,7.1,1.55
				c1.55,0,2.96-0.13,4.23-0.4s2.41-0.6,3.42-1c1.01-0.4,1.89-0.77,2.62-1.13h1.67v4.05c-1.81,1.25-4.1,2.44-6.89,3.56
				C829.41,609.25,826.43,609.81,823.25,609.81z"/>
			<path d="M847.13,603.5c0-1.77,0.61-3.27,1.83-4.5c1.22-1.23,2.72-1.85,4.51-1.85c1.77,0,3.27,0.62,4.51,1.85
				c1.24,1.23,1.86,2.74,1.86,4.53c0,1.79-0.62,3.28-1.86,4.48c-1.24,1.2-2.74,1.8-4.51,1.8c-1.79,0-3.29-0.6-4.51-1.8
				C847.74,606.81,847.13,605.3,847.13,603.5z"/>
		</g>
	</g>
	<g>
		<g>
			<path class="st4" d="M1468.67,638l-240.73-1.49c-8.93-0.06-16.17-7.32-16.17-16.22l0.14-225.84c0.01-8.9,7.25-16.08,16.19-16.02
				l240.73,1.49c8.93,0.06,16.17,7.32,16.17,16.22l-0.14,225.84C1484.85,630.88,1477.6,638.06,1468.67,638z"/>
		</g>
		<g>
			<g>
				<g>
					<g>
						<path class="st2" d="M1394.11,547.33c0,0.04-0.63,0.08-1.84,0.11c-1.31,0.02-3.07,0.05-5.29,0.09
							c-4.72,0.03-11.36,0.07-19.58,0.12c-16.71-0.01-39.77-0.03-65.71-0.05l-0.54,0l-0.08-0.53c-0.49-3.46-1.02-7.14-1.54-10.85
							c-4.42-31.78-8.36-60.14-10.94-78.68l0.39,0.34c-7.41-0.1-13.32-0.19-17.5-0.25c-1.95-0.05-3.5-0.09-4.66-0.12
							c-1.06-0.04-1.61-0.08-1.61-0.12c0-0.04,0.55-0.07,1.61-0.1c1.16-0.02,2.71-0.05,4.66-0.09c4.18-0.03,10.1-0.07,17.5-0.11
							l0.34,0l0.05,0.34c2.68,18.52,6.79,46.86,11.39,78.62c0.53,3.72,1.05,7.39,1.54,10.85l-0.61-0.53
							c25.95,0.18,49.01,0.33,65.71,0.45c8.21,0.11,14.86,0.2,19.58,0.26c2.22,0.05,3.98,0.1,5.29,0.13
							C1393.47,547.25,1394.11,547.29,1394.11,547.33z"/>
					</g>
				</g>
				<g>
					<g>
						<path class="st2" d="M1298.98,527.9c0-0.02,0.16-0.03,0.46-0.05c0.37-0.01,0.82-0.03,1.36-0.05c1.29-0.02,3.05-0.04,5.29-0.08
							c4.71-0.02,11.4-0.06,19.78-0.1c16.97,0.01,40.72,0.02,68.2,0.04l-0.58,0.49c2-11.43,4.16-23.79,6.4-36.59
							c1.16-6.58,2.3-13.04,3.38-19.21l0.61,0.72c-31.91-0.2-60.08-0.38-80.38-0.51c-10.04-0.12-18.12-0.21-23.8-0.27
							c-2.72-0.06-4.86-0.1-6.41-0.13c-0.68-0.03-1.22-0.05-1.66-0.06c-0.37-0.02-0.56-0.04-0.57-0.06c0-0.02,0.19-0.04,0.56-0.06
							c0.44-0.01,0.99-0.03,1.66-0.05c1.55-0.02,3.69-0.05,6.41-0.08c5.68-0.02,13.76-0.06,23.8-0.1c20.3,0.02,48.47,0.06,80.38,0.1
							l0.73,0l-0.13,0.72c-1.08,6.16-2.21,12.63-3.37,19.21c-2.26,12.79-4.44,25.15-6.45,36.58l-0.09,0.49l-0.5,0
							c-27.48-0.19-51.22-0.36-68.2-0.48c-8.37-0.1-15.07-0.19-19.78-0.25c-2.24-0.05-4-0.09-5.29-0.12c-0.55-0.02-1-0.04-1.36-0.06
							C1299.14,527.94,1298.98,527.92,1298.98,527.9z"/>
					</g>
				</g>
				<g>
					<g>
						<path class="st2" d="M1324.84,572.07c-0.11,0-0.12-0.82-0.53-2.19c-0.4-1.35-1.36-3.3-3.4-4.8c-1.98-1.5-5.19-2.32-8.28-1.17
							c-3.06,1.06-5.69,4.3-5.65,8.09c-0.03,3.79,2.61,7.06,5.68,8.14c3.09,1.17,6.31,0.37,8.28-1.11c2.04-1.48,2.99-3.43,3.38-4.77
							C1324.72,572.89,1324.73,572.06,1324.84,572.07c0.06-0.01,0.22,0.82-0.05,2.31c-0.27,1.45-1.15,3.63-3.32,5.35
							c-2.09,1.72-5.67,2.75-9.2,1.48c-3.5-1.15-6.57-4.87-6.54-9.21c-0.05-4.34,3.01-8.03,6.5-9.16c3.53-1.24,7.1-0.19,9.2,1.55
							c2.17,1.74,3.06,3.92,3.34,5.37C1325.06,571.24,1324.9,572.07,1324.84,572.07z"/>
					</g>
				</g>
				<g>
					<g>
						<path class="st2" d="M1384.32,572.29c-0.11,0-0.12-0.82-0.53-2.19c-0.4-1.35-1.36-3.3-3.4-4.8c-1.98-1.5-5.19-2.32-8.28-1.17
							c-3.06,1.06-5.69,4.3-5.65,8.09c-0.03,3.79,2.61,7.06,5.68,8.14c3.09,1.18,6.31,0.37,8.28-1.11c2.04-1.48,2.99-3.43,3.38-4.77
							C1384.2,573.11,1384.2,572.29,1384.32,572.29c0.06-0.01,0.22,0.82-0.05,2.31c-0.27,1.45-1.15,3.63-3.32,5.35
							c-2.09,1.72-5.67,2.75-9.2,1.48c-3.5-1.15-6.57-4.87-6.54-9.21c-0.05-4.34,3.01-8.03,6.5-9.16c3.53-1.24,7.1-0.19,9.2,1.55
							c2.17,1.74,3.06,3.92,3.34,5.37C1384.54,571.47,1384.37,572.3,1384.32,572.29z"/>
					</g>
				</g>
				<g>
					
						<ellipse transform="matrix(0.481 -0.8767 0.8767 0.481 319.91 1466.6912)" class="st2" cx="1398.8" cy="463.13" rx="26.24" ry="26.41"/>
				</g>
			</g>
			<g>
				<g>
					<path class="st5" d="M1413.1,453.38c0.12,0.12-1.19,1.72-3.41,4.23c-2.22,2.5-5.36,5.9-8.87,9.6
						c-1.31,1.37-2.58,2.69-3.77,3.93l-0.4,0.41l-0.42-0.38c-5.7-5.05-9.7-8.83-9.52-9.04c0.18-0.21,4.49,3.22,10.29,8.15
						l-0.82,0.04c1.18-1.25,2.43-2.58,3.73-3.96c3.52-3.7,6.75-7,9.14-9.35C1411.44,454.65,1412.98,453.26,1413.1,453.38z"/>
				</g>
			</g>
		</g>
	</g>
</g>
<text transform="matrix(1 0 0 1 -72.7446 768.2549)" style="font-family:'MyriadPro-Regular'; font-size:12px;">Lorem ipsum</text>
</svg>
