<?xml version="1.0" encoding="utf-8"?>
<!-- Generator: Adobe Illustrator 27.8.1, SVG Export Plug-In . SVG Version: 6.00 Build 0)  -->
<svg version="1.1" id="Layer_1" xmlns="http://www.w3.org/2000/svg" xmlns:xlink="http://www.w3.org/1999/xlink" x="0px" y="0px"
	 viewBox="0 0 1920 1080" style="enable-background:new 0 0 1920 1080;" xml:space="preserve">
<style type="text/css">
	.st0{fill:#5CBFAB;}
	.st1{fill:#FFFFFF;}
	.st2{font-family:'Montserrat-Bold';}
	.st3{font-size:33.6381px;}
	.st4{letter-spacing:5.33;}
	.st5{opacity:0.5;fill:#3687CB;}
	.st6{fill:#FFCCBC;}
	.st7{fill:#FFAC90;}
	.st8{opacity:0.34;fill:#FFAC90;}
	.st9{fill:#E7EEF7;}
	.st10{fill:#00A99D;}
	.st11{font-size:12.9604px;}
	.st12{letter-spacing:0.89;}
	.st13{fill:#F8F8F8;}
	.st14{fill:none;stroke:#DD3300;stroke-miterlimit:10;}
	.st15{font-size:17.6343px;}
	.st16{letter-spacing:2.66;}
</style>
<g>
	<rect x="0" y="-1" class="st0" width="1920" height="1081"/>
	<g>
		<g>
			<g>
				<g>
					<rect x="593.9" y="230.37" class="st1" width="452.78" height="402.04"/>
					<g>
						<polygon points="767.81,254.19 746.81,254.19 746.81,272.83 767.81,272.83 788.8,272.83 788.8,254.19 						"/>
						<rect x="872.77" y="254.19" width="20.99" height="18.64"/>
						<polygon points="851.78,272.83 830.78,272.83 830.78,254.19 809.79,254.19 809.79,272.83 788.8,272.83 788.8,291.47 
							788.8,310.11 767.81,310.11 767.81,328.75 788.8,328.75 788.8,347.39 809.79,347.39 830.78,347.39 830.78,328.75 
							809.79,328.75 809.79,310.11 809.79,291.47 830.78,291.47 851.78,291.47 872.77,291.47 872.77,272.83 						"/>
						<polygon points="893.76,310.11 893.76,291.47 872.77,291.47 872.77,310.11 872.77,328.75 893.76,328.75 						"/>
						<polygon points="746.81,347.39 746.81,366.03 767.81,366.03 767.81,347.39 767.81,328.75 746.81,328.75 						"/>
						<rect x="851.78" y="328.75" width="20.99" height="18.64"/>
						<rect x="767.81" y="459.23" width="20.99" height="18.64"/>
						<rect x="620.86" y="366.03" width="20.99" height="18.64"/>
						<polygon points="851.78,384.67 872.77,384.67 872.77,403.31 893.76,403.31 893.76,384.67 914.75,384.67 914.75,366.03 
							893.76,366.03 893.76,347.39 872.77,347.39 872.77,366.03 851.78,366.03 830.78,366.03 809.79,366.03 788.8,366.03 
							788.8,384.67 809.79,384.67 830.78,384.67 830.78,403.31 851.78,403.31 						"/>
						<polygon points="998.72,384.67 998.72,366.03 977.73,366.03 977.73,384.67 977.73,403.31 998.72,403.31 						"/>
						<rect x="620.86" y="403.31" width="20.99" height="18.64"/>
						<polygon points="725.82,421.95 746.81,421.95 746.81,403.31 767.81,403.31 767.81,384.67 746.81,384.67 725.82,384.67 
							725.82,366.03 704.83,366.03 704.83,384.67 704.83,403.31 725.82,403.31 						"/>
						<rect x="809.79" y="403.31" width="20.99" height="18.64"/>
						<polygon points="956.74,403.31 956.74,384.67 956.74,366.03 935.74,366.03 935.74,384.67 935.74,403.31 914.75,403.31 
							893.76,403.31 893.76,421.95 914.75,421.95 935.74,421.95 935.74,440.59 956.74,440.59 956.74,421.95 977.73,421.95 
							977.73,403.31 						"/>
						<polygon points="725.82,421.95 704.83,421.95 704.83,403.31 683.84,403.31 683.84,384.67 683.84,366.03 662.85,366.03 
							662.85,384.67 641.85,384.67 641.85,403.31 662.85,403.31 662.85,421.95 683.84,421.95 683.84,440.59 704.83,440.59 
							704.83,459.23 725.82,459.23 725.82,440.59 						"/>
						<polygon points="767.81,440.59 788.8,440.59 788.8,459.23 809.79,459.23 809.79,440.59 809.79,421.95 788.8,421.95 
							788.8,403.31 767.81,403.31 767.81,421.95 						"/>
						<polygon points="998.72,421.95 977.73,421.95 977.73,440.59 977.73,459.23 956.74,459.23 956.74,477.87 977.73,477.87 
							977.73,496.51 998.72,496.51 998.72,515.15 998.72,533.79 1019.71,533.79 1019.71,515.15 1019.71,496.51 1019.71,477.87 
							998.72,477.87 998.72,459.23 1019.71,459.23 1019.71,440.59 998.72,440.59 						"/>
						<polygon points="641.85,440.59 620.86,440.59 620.86,459.23 620.86,477.87 641.85,477.87 641.85,496.51 662.85,496.51 
							662.85,477.87 662.85,459.23 641.85,459.23 						"/>
						<rect x="662.85" y="440.59" width="20.99" height="18.64"/>
						<polygon points="893.76,440.59 893.76,421.95 872.77,421.95 851.78,421.95 830.78,421.95 830.78,440.59 830.78,459.23 
							851.78,459.23 851.78,440.59 872.77,440.59 872.77,459.23 893.76,459.23 893.76,477.87 914.75,477.87 914.75,459.23 
							935.74,459.23 935.74,440.59 914.75,440.59 						"/>
						<rect x="683.84" y="459.23" width="20.99" height="18.64"/>
						<polygon points="746.81,459.23 725.82,459.23 725.82,477.87 725.82,496.51 746.81,496.51 746.81,515.15 746.81,533.79 
							767.81,533.79 767.81,515.15 767.81,496.51 767.81,477.87 746.81,477.87 						"/>
						<rect x="809.79" y="459.23" width="20.99" height="18.64"/>
						<rect x="788.8" y="477.87" width="20.99" height="18.64"/>
						<polygon points="872.77,515.15 872.77,496.51 872.77,477.87 851.78,477.87 851.78,496.51 830.78,496.51 830.78,515.15 
							851.78,515.15 						"/>
						<rect x="788.8" y="515.15" width="20.99" height="18.64"/>
						<rect x="830.78" y="533.79" width="20.99" height="18.64"/>
						<path d="M957.13,533.79v-55.94h-84.39v74.93h21.02v18.29h20.99v-18.29h20.99v18.29h20.99v-18.29h0.39v-0.35h20.6v18.64h20.99
							h20.99v-18.64h-20.99v-18.64h-20.99H957.13z M888.91,492.2h52.48v46.6h-52.48V492.2z"/>
						<polygon points="767.81,571.07 767.81,589.71 788.8,589.71 788.8,571.07 788.8,552.43 788.8,533.79 767.81,533.79 
							767.81,552.43 						"/>
						<polygon points="851.78,571.07 851.78,589.71 872.77,589.71 893.76,589.71 893.76,571.07 872.77,571.07 						"/>
						<rect x="746.81" y="589.71" width="20.99" height="18.64"/>
						<polygon points="809.79,608.35 830.78,608.35 830.78,589.71 809.79,589.71 788.8,589.71 788.8,608.35 						"/>
						<polygon points="977.73,589.71 977.73,608.35 998.72,608.35 1019.71,608.35 1019.71,589.71 998.72,589.71 						"/>
						<rect x="904.65" y="506.18" width="20.99" height="18.64"/>
						<path d="M725.82,254.19H620.86v93.2h104.96V254.19z M710.08,333.41h-73.47v-65.24h73.47V333.41z"/>
						<rect x="652.35" y="282.15" width="41.98" height="37.28"/>
						<path d="M914.75,254.19v93.2h104.96v-93.2H914.75z M1003.97,333.41H930.5v-65.24h73.47V333.41z"/>
						<rect x="946.24" y="282.15" width="41.98" height="37.28"/>
						<path d="M620.86,608.58h104.96v-93.2H620.86V608.58z M636.61,529.36h73.47v65.24h-73.47V529.36z"/>
						<rect x="652.35" y="543.34" width="41.98" height="37.28"/>
					</g>
				</g>
			</g>
			<g>
				<text transform="matrix(1.1262 0 0 1 694.335 217.1494)" class="st2 st3 st4">-SCAN ME-</text>
			</g>
		</g>
		<g>
			<path class="st5" d="M1395.22,791.01c-10.77-56.54-22.13-112.47-32.89-169c-9.75-6.23-19.63-12.35-29.58-18.42V173.79
				c0-19.3-17.69-35.01-39.42-35.01h-281.86c-21.74,0-39.42,15.7-39.42,35.01v265.5c-10.64-3.27-22.16-3.67-32.66,0.02
				c2.33,20.39,5.28,42.34,8.25,64.32c-4.06-0.45-8.21-0.34-12.35,0.43c-3.79,33.44-6.38,84.54-9.69,124.99
				c-1.16,14.13,1.99,28.17,8.91,40.76c-3.94,4.33-7.14,9.89-9.1,16.17c-4.86,15.56-7.08,35.4-7.03,53.96
				c0.04,16.65,8.37,32.44,22.52,43.37c0,0,67.01,119.56,96.61,148.65c17.26,16.96,40.43,31.68,66.8,42.93l-0.05,0.01l4.06,74.1
				h286.29l-16.87-105.23c13.5-16.99,22.41-37.6,25.12-56.97C1407.3,854.92,1401.25,822.69,1395.22,791.01z"/>
			<g>
				<path class="st6" d="M1412.93,977.97c-45.75,17.06-104.22,41.96-159.63,31.57c-55.4-10.39-107.04-55.94-139.29-87.62
					c-32.15-31.59-36.54-75.5-44.99-115.13c-6.82-31.99-33.14-51.05-43.72-82.23c122.12-37.51,272.79-40.99,407.6-0.06
					C1480.34,810.88,1526.01,935.81,1412.93,977.97z"/>
				<path class="st6" d="M1091.57,890.28c0,0-106.89-158.81-106.93-176.9c-0.05-20.15,2.36-41.7,7.63-58.6
					c7.57-24.23,32.05-38.5,49.27-18.54c0.17,0.19,0.33,0.39,0.5,0.59c12.38,14.86,16.62,33.7,20.54,51.85
					c55.54,28.14,46.78,16.6,84.92,62.17c0.63,16.46,51.9,65.85,36.25,81.86C1170.93,845.85,1106.74,901.29,1091.57,890.28z"/>
				<path class="st7" d="M1041.15,685.86l149.77,26.2c-28.84-59.71-73.21-112.31-124.12-156.58c1.17-22.65,2.19-46.18-7.08-66.82
					c-9.27-20.64-33.14-35.83-56.71-31.43c-4.12,36.31-6.93,91.8-10.53,135.73c-1.67,20.4,4.92,40.62,18.41,57.2
					C1021,662.6,1031.08,674.37,1041.15,685.86z"/>
				<path class="st8" d="M1150.93,746.97c33.85,20.22,74.68,35.46,103.47,61.12c28.79,25.66,52.99,57.75,61,93.27
					c2.51-12.65-2.45-20.64,0.06-33.28c8.8-44.4,6.1-89.89,29.42-129.94L1150.93,746.97z"/>
				<path class="st7" d="M1230.07,700.11h2.18c23.76-22.39,38.98-56.93,38.86-87.59c-44.93-57.22-106.55-103.78-173.57-140.17
					c-4.06-22.42-8.48-45.68-23.06-64.34c-14.58-18.66-43.24-29.46-67.02-21.1c5.17,45.33,13.21,97.75,18.38,143.08L1230.07,700.11z
					"/>
				<path class="st8" d="M1044.54,682.75c-10.06,6.9-20.12,13.8-30.18,20.7c25.03,18.44,47.07,40.05,65.26,63.99
					c20.36-12.58,44.29-20.57,68.95-23.02c-28.26-0.98-58.24-2.18-79.72-18.52C1055.05,715.42,1044.61,698.88,1044.54,682.75z"/>
				<g>
					<g>
						<g>
							<g>
								<g>
									<g>
										<path class="st9" d="M1405.5,740.1h-347.17c-8.4,0-15.22-6.81-15.22-15.22V82.04c0-8.4,6.81-15.22,15.22-15.22h347.17
											c8.4,0,15.22,6.81,15.22,15.22v642.84C1420.71,733.28,1413.9,740.1,1405.5,740.1z"/>
										<path class="st10" d="M1377.58,179.36h-291.33c-12.62,0-22.86,9.09-22.86,20.3v259.08c0,11.21,10.23,20.3,22.86,20.3
											h291.33c12.62,0,22.86-9.09,22.86-20.3V199.66C1400.43,188.45,1390.2,179.36,1377.58,179.36z"/>
										<path d="M1384.95,746.36h-306.09c-23.61,0-42.81-17.05-42.81-38.01V98.57c0-20.96,19.21-38.01,42.81-38.01h306.09
											c23.61,0,42.81,17.05,42.81,38.01v609.77C1427.76,729.3,1408.56,746.36,1384.95,746.36z M1078.87,73.08
											c-15.83,0-28.71,11.44-28.71,25.5v609.77c0,14.06,12.88,25.49,28.71,25.49h306.09c15.83,0,28.71-11.44,28.71-25.49V98.57
											c0-14.06-12.88-25.5-28.71-25.5H1078.87z"/>
									</g>
								</g>
								<g>
									<text transform="matrix(1.1262 0 0 1 1081.8086 88.1396)" class="st1 st2 st11 st12">9:21</text>
									<g>
										<g>
											<rect x="1322.69" y="82.66" class="st1" width="2.33" height="5.48"/>
											<rect x="1325.83" y="80.42" class="st1" width="2.33" height="7.72"/>
											<rect x="1328.96" y="78.91" class="st1" width="2.33" height="9.22"/>
										</g>
										<g>
											<g>
												<path class="st1" d="M1346.69,86.23l1.36,1.21c1.19-0.93,3-0.91,4.14,0.09l1.36-1.21
													C1351.65,84.65,1348.62,84.63,1346.69,86.23z"/>
											</g>
											<g>
												<path class="st1" d="M1344.41,84.2l1.36,1.21c2.44-2.05,6.3-2.03,8.7,0.09l1.36-1.21
													C1352.67,81.51,1347.6,81.49,1344.41,84.2z"/>
											</g>
											<g>
												<path class="st1" d="M1342.29,82.32l1.37,1.21c3.61-3.08,9.36-3.06,12.93,0.09l1.36-1.21
													C1353.62,78.6,1346.65,78.57,1342.29,82.32z"/>
											</g>
										</g>
										<polygon class="st1" points="1388.29,81.57 1385.54,81.57 1385.54,79.53 1370.26,79.53 1370.26,88.14 1385.54,88.14 
											1385.54,86.09 1388.29,86.09 										"/>
									</g>
								</g>
							</g>
							<g>
								<g>
									<polygon class="st13" points="1132.16,195.42 1132.16,201.76 1088.94,201.76 1088.94,240.11 1081.81,240.11 
										1081.81,195.42 									"/>
								</g>
								<g>
									<polygon class="st13" points="1331.66,462.18 1331.66,455.85 1374.87,455.85 1374.87,417.5 1382.01,417.5 1382.01,462.18 
																			"/>
								</g>
								<g>
									<polygon class="st13" points="1382.12,240.23 1374.99,240.23 1374.99,201.86 1331.8,201.86 1331.8,195.52 1382.12,195.52 
																			"/>
								</g>
								<g>
									<polygon class="st13" points="1081.69,417.37 1088.83,417.37 1088.83,455.74 1132.02,455.74 1132.02,462.08 
										1081.69,462.08 									"/>
								</g>
							</g>
						</g>
						<g>
							<g>
								<rect x="1116.54" y="239.16" class="st1" width="230.74" height="204.89"/>
								<g>
									<polygon points="1205.16,251.3 1194.46,251.3 1194.46,260.8 1205.16,260.8 1215.86,260.8 1215.86,251.3 									"/>
									<rect x="1258.65" y="251.3" width="10.7" height="9.5"/>
									<polygon points="1247.96,260.8 1237.26,260.8 1237.26,251.3 1226.56,251.3 1226.56,260.8 1215.86,260.8 1215.86,270.3 
										1215.86,279.8 1205.16,279.8 1205.16,289.3 1215.86,289.3 1215.86,298.8 1226.56,298.8 1237.26,298.8 1237.26,289.3 
										1226.56,289.3 1226.56,279.8 1226.56,270.3 1237.26,270.3 1247.96,270.3 1258.65,270.3 1258.65,260.8 									"/>
									<polygon points="1269.35,279.8 1269.35,270.3 1258.65,270.3 1258.65,279.8 1258.65,289.3 1269.35,289.3 									"/>
									<polygon points="1194.46,298.8 1194.46,308.29 1205.16,308.29 1205.16,298.8 1205.16,289.3 1194.46,289.3 									"/>
									<rect x="1247.96" y="289.3" width="10.7" height="9.5"/>
									<rect x="1205.16" y="355.79" width="10.7" height="9.5"/>
									<rect x="1130.28" y="308.29" width="10.7" height="9.5"/>
									<polygon points="1247.96,317.79 1258.65,317.79 1258.65,327.29 1269.35,327.29 1269.35,317.79 1280.05,317.79 
										1280.05,308.29 1269.35,308.29 1269.35,298.8 1258.65,298.8 1258.65,308.29 1247.96,308.29 1237.26,308.29 1226.56,308.29 
										1215.86,308.29 1215.86,317.79 1226.56,317.79 1237.26,317.79 1237.26,327.29 1247.96,327.29 									"/>
									<polygon points="1322.84,317.79 1322.84,308.29 1312.14,308.29 1312.14,317.79 1312.14,327.29 1322.84,327.29 									"/>
									<rect x="1130.28" y="327.29" width="10.7" height="9.5"/>
									<polygon points="1183.77,336.79 1194.46,336.79 1194.46,327.29 1205.16,327.29 1205.16,317.79 1194.46,317.79 
										1183.77,317.79 1183.77,308.29 1173.07,308.29 1173.07,317.79 1173.07,327.29 1183.77,327.29 									"/>
									<rect x="1226.56" y="327.29" width="10.7" height="9.5"/>
									<polygon points="1301.45,327.29 1301.45,317.79 1301.45,308.29 1290.75,308.29 1290.75,317.79 1290.75,327.29 
										1280.05,327.29 1269.35,327.29 1269.35,336.79 1280.05,336.79 1290.75,336.79 1290.75,346.29 1301.45,346.29 
										1301.45,336.79 1312.14,336.79 1312.14,327.29 									"/>
									<polygon points="1183.77,336.79 1173.07,336.79 1173.07,327.29 1162.37,327.29 1162.37,317.79 1162.37,308.29 
										1151.67,308.29 1151.67,317.79 1140.97,317.79 1140.97,327.29 1151.67,327.29 1151.67,336.79 1162.37,336.79 
										1162.37,346.29 1173.07,346.29 1173.07,355.79 1183.77,355.79 1183.77,346.29 									"/>
									<polygon points="1205.16,346.29 1215.86,346.29 1215.86,355.79 1226.56,355.79 1226.56,346.29 1226.56,336.79 
										1215.86,336.79 1215.86,327.29 1205.16,327.29 1205.16,336.79 									"/>
									<polygon points="1322.84,336.79 1312.14,336.79 1312.14,346.29 1312.14,355.79 1301.45,355.79 1301.45,365.29 
										1312.14,365.29 1312.14,374.79 1322.84,374.79 1322.84,384.29 1322.84,393.79 1333.54,393.79 1333.54,384.29 
										1333.54,374.79 1333.54,365.29 1322.84,365.29 1322.84,355.79 1333.54,355.79 1333.54,346.29 1322.84,346.29 									"/>
									<polygon points="1140.97,346.29 1130.28,346.29 1130.28,355.79 1130.28,365.29 1140.97,365.29 1140.97,374.79 
										1151.67,374.79 1151.67,365.29 1151.67,355.79 1140.97,355.79 									"/>
									<rect x="1151.67" y="346.29" width="10.7" height="9.5"/>
									<polygon points="1269.35,346.29 1269.35,336.79 1258.65,336.79 1247.96,336.79 1237.26,336.79 1237.26,346.29 
										1237.26,355.79 1247.96,355.79 1247.96,346.29 1258.65,346.29 1258.65,355.79 1269.35,355.79 1269.35,365.29 
										1280.05,365.29 1280.05,355.79 1290.75,355.79 1290.75,346.29 1280.05,346.29 									"/>
									<rect x="1162.37" y="355.79" width="10.7" height="9.5"/>
									<polygon points="1194.46,355.79 1183.77,355.79 1183.77,365.29 1183.77,374.79 1194.46,374.79 1194.46,384.29 
										1194.46,393.79 1205.16,393.79 1205.16,384.29 1205.16,374.79 1205.16,365.29 1194.46,365.29 									"/>
									<rect x="1226.56" y="355.79" width="10.7" height="9.5"/>
									<rect x="1215.86" y="365.29" width="10.7" height="9.5"/>
									<polygon points="1258.65,384.29 1258.65,374.79 1258.65,365.29 1247.96,365.29 1247.96,374.79 1237.26,374.79 
										1237.26,384.29 1247.96,384.29 									"/>
									<rect x="1215.86" y="384.29" width="10.7" height="9.5"/>
									<rect x="1237.26" y="393.79" width="10.7" height="9.5"/>
									<path d="M1301.65,393.79v-28.51h-43v38.19h10.71v9.32h10.7v-9.32h10.7v9.32h10.7v-9.32h0.2v-0.18h10.5v9.5h10.7h10.7v-9.5
										h-10.7v-9.5h-10.7H1301.65z M1266.88,372.59h26.75v23.75h-26.75V372.59z"/>
									<polygon points="1205.16,412.79 1205.16,422.29 1215.86,422.29 1215.86,412.79 1215.86,403.29 1215.86,393.79 
										1205.16,393.79 1205.16,403.29 									"/>
									<polygon points="1247.96,412.79 1247.96,422.29 1258.65,422.29 1269.35,422.29 1269.35,412.79 1258.65,412.79 									"/>
									<rect x="1194.46" y="422.29" width="10.7" height="9.5"/>
									<polygon points="1226.56,431.78 1237.26,431.78 1237.26,422.29 1226.56,422.29 1215.86,422.29 1215.86,431.78 									"/>
									<polygon points="1312.14,422.29 1312.14,431.78 1322.84,431.78 1333.54,431.78 1333.54,422.29 1322.84,422.29 									"/>
									<rect x="1274.9" y="379.72" width="10.7" height="9.5"/>
									<path d="M1183.77,251.3h-53.49v47.5h53.49V251.3z M1175.74,291.67h-37.44v-33.25h37.44V291.67z"/>
									<rect x="1146.32" y="265.55" width="21.4" height="19"/>
									<path d="M1280.05,251.3v47.5h53.49v-47.5H1280.05z M1325.52,291.67h-37.44v-33.25h37.44V291.67z"/>
									<rect x="1296.1" y="265.55" width="21.4" height="19"/>
									<path d="M1130.28,431.9h53.49v-47.5h-53.49V431.9z M1138.3,391.53h37.44v33.25h-37.44V391.53z"/>
									<rect x="1146.32" y="398.66" width="21.4" height="19"/>
								</g>
							</g>
						</g>
					</g>
					<line class="st14" x1="1063.8" y1="271.56" x2="1400.02" y2="271.56"/>
					<g>
						<text transform="matrix(1.1262 0 0 1 1162.2227 231.8926)" class="st2 st15 st16">-SCAN ME-</text>
					</g>
				</g>
				<path class="st6" d="M997.04,644.16c20.71-25.6,41.42-51.21,62.13-76.82c14.6,18.52,20.73,39.47,17.86,61.93
					s-22.25,52.92-41.15,68.05C1017.26,687.38,1006.25,661.63,997.04,644.16z"/>
				<path class="st6" d="M1351.33,955.97c-38.97-29.18-70.78-97.54-55.98-138.66c12.9-35.82,27.63-58.11,87.26-108.47
					c-2.13-38.27,4.8-49.54-3.04-89.55c-41.11-32.64-73.49-75.38-56.68-122.01c47.04,30.06,96.81,57.97,143.85,88.03
					c11.69,61.4,24.03,122.13,35.72,183.53c6.55,34.41,13.13,69.4,8.29,104.03c-8.03,57.51-66.42,125.11-139.2,94.71
					C1364.29,964.54,1357.53,960.61,1351.33,955.97z"/>
				<path class="st7" d="M1329.91,916.4c-16.11-67.61-69.24-126.25-140.37-154.39c-8.16-3.23-15.45,7.43-7.22,10.68
					c68.15,26.97,118.57,82.03,134.02,146.88C1318.21,927.41,1331.78,924.24,1329.91,916.4z"/>
				<path class="st7" d="M1415.44,621.52c-57.13-16.34-91.92-65.61-85.1-118.36c1.03-7.96-13.01-8.04-14.03-0.14
					c-7.54,58.29,32.61,112.57,95.24,130.48C1420.16,635.95,1424.02,623.97,1415.44,621.52z"/>
				<path class="st7" d="M1069.69,569.03c-4.31-7.05-16.51-0.9-12.19,6.16c22.1,36.13,2.93,93.98-31.25,121.56
					c-6.7,5.4,3.13,14.3,9.8,8.91C1074.88,674.33,1094.68,609.9,1069.69,569.03z"/>
				<path class="st7" d="M1390.94,614.67c-0.25-7.99-14.28-8.18-14.03-0.14c0.94,29.68,1.89,59.37,2.83,89.05
					c0.25,7.99,14.28,8.18,14.03,0.14C1392.83,674.04,1391.88,644.36,1390.94,614.67z"/>
				<path class="st7" d="M1384.5,702.28c-50.81,31.04-86.35,78.35-99.65,131.19c4.27,4.18,7.92,8.72,11.27,13.43
					c10.02-53.64,44.55-102.78,95.33-133.79C1398.82,708.6,1391.96,697.72,1384.5,702.28z"/>
				<path class="st8" d="M1429.88,634.33c-6.59,2.68-10.01,9.08-12.9,14.99c-9.13,18.68-18.26,37.36-27.4,56.04
					c0-22.8-2.98-45.93-4.48-68.7c-0.56-8.59-2.37-16.43,9.95-15.05C1406.42,622.9,1419.39,630.37,1429.88,634.33z"/>
				<polygon class="st6" points="1186.51,968.54 1190.92,1049 1501.81,1049 1483.49,934.73 				"/>
				<path class="st8" d="M1430.44,966.41c-57.47-4.56-115.21-1.09-171.51,10.12c-8.81,1.75-5.24,13.8,3.57,12.05
					c55.13-10.98,111.51-14.18,167.78-9.71C1439.27,979.58,1439.39,967.12,1430.44,966.41z"/>
			</g>
		</g>
	</g>
</g>
<path class="st10" d="M1300,590h-166c-6.6,0-12-5.4-12-12v-41c0-6.6,5.4-12,12-12h166c6.6,0,12,5.4,12,12v41
	C1312,584.6,1306.6,590,1300,590z"/>
<g>
	<g>
		<path d="M1160.96,570.22v-9.8h3.47l1.11,4.2c0.07,0.28,0.23,0.53,0.48,0.75c0.25,0.22,0.52,0.43,0.83,0.62
			c0.38,0.22,0.95,0.5,1.69,0.84c0.74,0.34,1.54,0.65,2.41,0.92c0.87,0.27,1.66,0.41,2.39,0.41c2,0,3.65-0.4,4.94-1.21
			c1.3-0.81,1.95-1.91,1.95-3.32c0-1.32-0.4-2.25-1.21-2.8c-0.81-0.55-1.89-1.1-3.25-1.64c-1.33-0.52-2.65-0.96-3.94-1.31
			c-1.3-0.36-2.56-0.76-3.79-1.22c-1.88-0.73-3.42-1.79-4.61-3.19c-1.19-1.4-1.79-3.24-1.79-5.52c0-2.09,0.63-3.9,1.88-5.42
			s2.88-2.7,4.89-3.53c2.01-0.83,4.14-1.24,6.41-1.24c1.29,0,2.63,0.08,4.01,0.23c1.38,0.16,2.71,0.35,3.99,0.58
			c1.27,0.23,2.38,0.45,3.33,0.66v9.53h-3.47l-1.13-4.07c-0.07-0.22-0.22-0.44-0.43-0.64c-0.21-0.21-0.42-0.37-0.61-0.49
			c-0.22-0.13-0.64-0.33-1.25-0.6s-1.3-0.51-2.07-0.72s-1.52-0.32-2.24-0.32c-1.94,0-3.4,0.41-4.37,1.22
			c-0.97,0.82-1.46,1.7-1.46,2.67c0,1.04,0.34,1.91,1.01,2.62s1.94,1.37,3.79,1.98c1.23,0.42,2.44,0.8,3.64,1.14
			c1.2,0.35,2.51,0.8,3.93,1.37c1.18,0.46,2.27,1.04,3.25,1.73s1.78,1.58,2.38,2.66c0.6,1.07,0.9,2.42,0.9,4.03
			c0,1.96-0.54,3.77-1.62,5.43c-1.08,1.67-2.72,3.01-4.91,4.02c-2.19,1.01-4.97,1.52-8.33,1.52c-1.1,0-2.36-0.11-3.79-0.32
			s-2.88-0.48-4.36-0.8C1163.54,570.87,1162.19,570.55,1160.96,570.22z"/>
		<path d="M1214.03,564.98h1.24v3.24c-1.27,0.93-2.73,1.81-4.37,2.63s-3.6,1.23-5.9,1.23c-2.61,0-4.84-0.55-6.71-1.64
			c-1.87-1.1-3.29-2.62-4.28-4.56c-0.99-1.94-1.48-4.18-1.48-6.71c0-2.03,0.41-3.87,1.22-5.52c0.81-1.65,1.91-3.07,3.28-4.27
			c1.37-1.19,2.9-2.11,4.58-2.76s3.38-0.97,5.1-0.97c1.3,0,2.45,0.12,3.43,0.36c0.99,0.24,1.83,0.51,2.52,0.81s1.25,0.54,1.67,0.72
			v6.33h-1.73c-0.8-0.52-1.7-1.1-2.69-1.73c-0.99-0.64-2.01-1.19-3.06-1.66c-1.04-0.47-2.06-0.7-3.05-0.7
			c-0.36,0-0.68,0.07-0.97,0.22c-0.29,0.15-0.56,0.39-0.81,0.73c-0.25,0.34-0.51,0.86-0.79,1.57c-0.27,0.7-0.5,1.56-0.69,2.58
			c-0.19,1.02-0.28,2.17-0.28,3.46c0,2.8,0.65,4.95,1.96,6.44s3.17,2.24,5.6,2.24c0.77,0,1.53-0.1,2.27-0.29
			c0.74-0.19,1.45-0.44,2.11-0.75C1212.87,565.69,1213.48,565.35,1214.03,564.98z"/>
		<path d="M1226.29,571.98c-1.57,0-2.92-0.35-4.03-1.06c-1.12-0.7-1.97-1.61-2.57-2.72c-0.59-1.11-0.89-2.28-0.89-3.51
			c0-1.6,0.38-2.97,1.16-4.12s1.76-2.08,2.98-2.8s2.51-1.25,3.89-1.59c1.38-0.34,2.67-0.51,3.87-0.51c0.24,0,0.65,0.03,1.23,0.08
			c0.58,0.05,1.17,0.11,1.77,0.18c0.59,0.07,0.99,0.12,1.2,0.14v-1.89c0-1.63-0.28-2.87-0.83-3.73s-1.54-1.29-2.97-1.29
			c-0.64,0-1.36,0.18-2.17,0.54c-0.81,0.36-1.62,0.8-2.44,1.32c-0.82,0.52-1.59,1.03-2.29,1.53c-0.7,0.5-1.28,0.89-1.72,1.16h-1.73
			v-6.07c1.13-0.33,2.23-0.64,3.32-0.96s2.27-0.57,3.56-0.77s2.77-0.3,4.46-0.3c1.76,0,3.43,0.21,5,0.64
			c1.57,0.43,2.85,1.23,3.84,2.39c0.99,1.16,1.49,2.85,1.49,5.06v12.16c0,0.61,0.19,1.1,0.57,1.48s0.79,0.57,1.23,0.57
			c0.34,0,0.71-0.03,1.11-0.1s0.78-0.14,1.13-0.23h0.87v2.38c-0.42,0.27-0.99,0.56-1.71,0.88c-0.73,0.32-1.48,0.59-2.27,0.81
			c-0.79,0.22-1.5,0.33-2.13,0.33c-1.97,0-3.43-0.35-4.38-1.04s-1.42-1.77-1.42-3.22h-0.36c-0.82,1.23-1.73,2.15-2.76,2.77
			c-1.02,0.62-2.06,1.02-3.1,1.21C1228.15,571.88,1227.18,571.98,1226.29,571.98z M1230.25,567.56c0.75,0,1.58-0.18,2.48-0.53
			s1.62-0.96,2.17-1.8v-6.11c-1.64,0-3.09,0.13-4.34,0.4s-2.23,0.74-2.92,1.41c-0.7,0.67-1.04,1.63-1.04,2.86
			c0,0.99,0.2,1.76,0.59,2.31s0.87,0.93,1.44,1.14S1229.73,567.56,1230.25,567.56z"/>
		<path d="M1249.22,571.51v-2.09l2.89-1.22c0.25-0.13,0.46-0.27,0.62-0.4c0.16-0.13,0.24-0.35,0.24-0.64v-15.71
			c0-0.31-0.09-0.54-0.27-0.68s-0.38-0.26-0.6-0.37l-2.84-1.22v-2.16l10.69-1.16v3.93h0.36c0.98-1.24,1.95-2.16,2.91-2.74
			c0.96-0.59,1.91-0.96,2.84-1.13c0.93-0.17,1.84-0.26,2.71-0.26c1.54,0,2.94,0.29,4.2,0.87c1.26,0.58,2.26,1.49,3.01,2.72
			c0.75,1.24,1.12,2.84,1.12,4.81v12.98c0,0.36,0.08,0.6,0.23,0.74c0.16,0.14,0.37,0.28,0.63,0.41l2.53,1.22v2.09h-14.13v-2.09
			l2.27-1.22c0.27-0.15,0.49-0.29,0.67-0.42c0.18-0.13,0.27-0.38,0.27-0.73v-10c0-1.39-0.11-2.57-0.32-3.53
			c-0.21-0.96-0.63-1.7-1.25-2.2c-0.61-0.5-1.54-0.75-2.77-0.75c-0.81,0-1.67,0.11-2.58,0.34c-0.9,0.23-1.64,0.78-2.22,1.66v14.6
			c0,0.3,0.08,0.5,0.24,0.62c0.16,0.12,0.38,0.26,0.64,0.42l2.11,1.22v2.09H1249.22z"/>
	</g>
</g>
</svg>
