<?xml version="1.0" encoding="utf-8"?>
<!-- Generator: Adobe Illustrator 27.8.1, SVG Export Plug-In . SVG Version: 6.00 Build 0)  -->
<svg version="1.1" id="Layer_1" xmlns="http://www.w3.org/2000/svg" xmlns:xlink="http://www.w3.org/1999/xlink" x="0px" y="0px"
	 viewBox="0 0 1920 1080" style="enable-background:new 0 0 1920 1080;" xml:space="preserve">
<style type="text/css">
	.st0{fill:#DCE9F4;}
	.st1{opacity:0.5;fill:#3687CB;}
	.st2{fill:#FFCCBC;}
	.st3{fill:#FFAC90;}
	.st4{opacity:0.34;fill:#FFAC90;}
	.st5{fill:#E7EEF7;}
	.st6{fill:#5A6E7F;}
	.st7{fill:#FFFFFF;}
	.st8{font-family:'Montserrat-Bold';}
	.st9{font-size:12.9604px;}
	.st10{letter-spacing:0.89;}
	.st11{fill:#F8F8F8;}
	.st12{fill:none;stroke:#DD3300;stroke-miterlimit:10;}
	.st13{font-size:46.9188px;}
	.st14{letter-spacing:7.37;}
	.st15{fill:#9FCED5;}
	.st16{fill:#CAF2F9;}
	.st17{fill:#F0F8FA;}
	.st18{fill:#4CB7D8;}
	.st19{fill:#1D1D1B;}
	.st20{opacity:0.5;}
	.st21{opacity:0.3;}
	.st22{fill:none;}
	.st23{fill:#97D5C9;}
</style>
<rect x="0" class="st0" width="1920" height="1080"/>
<g>
	<g>
		<g>
			<path class="st1" d="M1372.22,766.01c-10.77-56.54-22.13-112.47-32.89-169c-9.75-6.23-19.63-12.35-29.58-18.42V148.79
				c0-19.3-17.69-35.01-39.42-35.01H988.46c-21.74,0-39.42,15.7-39.42,35.01v265.5c-10.64-3.27-22.16-3.67-32.66,0.02
				c2.33,20.39,5.28,42.34,8.25,64.32c-4.06-0.45-8.21-0.34-12.35,0.43c-3.79,33.44-6.38,84.54-9.69,124.99
				c-1.16,14.13,1.99,28.17,8.91,40.76c-3.94,4.33-7.14,9.89-9.1,16.17c-4.86,15.56-7.08,35.4-7.03,53.96
				c0.04,16.65,8.37,32.44,22.52,43.37c0,0,67.01,119.56,96.61,148.65c17.26,16.96,40.43,31.68,66.8,42.93l-0.05,0.01l4.06,74.1
				h286.29l-16.87-105.23c13.5-16.99,22.41-37.6,25.12-56.97C1384.3,829.92,1378.25,797.69,1372.22,766.01z"/>
			<g>
				<path class="st2" d="M1351.93,968.97c-45.75,17.06-104.22,41.96-159.63,31.57c-55.4-10.39-107.04-55.94-139.29-87.62
					c-32.15-31.59-36.54-75.5-44.99-115.13c-6.82-31.99-33.14-51.05-43.72-82.23c122.12-37.51,272.79-40.99,407.6-0.06
					C1419.34,801.88,1465.01,926.81,1351.93,968.97z"/>
				<path class="st2" d="M1030.57,881.28c0,0-106.89-158.81-106.93-176.9c-0.05-20.15,2.36-41.7,7.63-58.6
					c7.57-24.23,32.05-38.5,49.27-18.54c0.17,0.19,0.33,0.39,0.5,0.59c12.38,14.86,16.62,33.7,20.54,51.85
					c55.54,28.14,46.78,16.6,84.92,62.17c0.63,16.46,51.9,65.85,36.25,81.86C1109.93,836.85,1045.74,892.29,1030.57,881.28z"/>
				<path class="st3" d="M980.15,676.86l149.77,26.2c-28.84-59.71-73.21-112.31-124.12-156.58c1.17-22.65,2.19-46.18-7.08-66.82
					c-9.27-20.64-33.14-35.83-56.71-31.43c-4.12,36.31-6.93,91.8-10.53,135.73c-1.67,20.4,4.92,40.62,18.41,57.2
					C960,653.6,970.08,665.37,980.15,676.86z"/>
				<path class="st4" d="M1089.93,737.97c33.85,20.22,74.68,35.46,103.47,61.12c28.79,25.66,52.99,57.75,61,93.27
					c2.51-12.65-2.45-20.64,0.06-33.28c8.8-44.4,6.1-89.89,29.42-129.94L1089.93,737.97z"/>
				<path class="st3" d="M1169.07,691.11h2.18c23.76-22.39,38.98-56.93,38.86-87.59c-44.93-57.22-106.55-103.78-173.57-140.17
					c-4.06-22.42-8.48-45.68-23.06-64.34c-14.58-18.66-43.24-29.46-67.02-21.1c5.17,45.33,13.21,97.75,18.38,143.08L1169.07,691.11z
					"/>
				<path class="st4" d="M983.54,673.75c-10.06,6.9-20.12,13.8-30.18,20.7c25.03,18.44,47.07,40.05,65.26,63.99
					c20.36-12.58,44.29-20.57,68.95-23.02c-28.26-0.98-58.24-2.18-79.72-18.52C994.05,706.42,983.61,689.88,983.54,673.75z"/>
				<g>
					<g>
						<g>
							<g>
								<g>
									<g>
										<path class="st5" d="M1344.5,731.1H997.32c-8.4,0-15.22-6.81-15.22-15.22V73.04c0-8.4,6.81-15.22,15.22-15.22h347.17
											c8.4,0,15.22,6.81,15.22,15.22v642.84C1359.71,724.28,1352.9,731.1,1344.5,731.1z"/>
										<path class="st6" d="M1316.58,170.36h-291.33c-12.62,0-22.86,9.09-22.86,20.3v259.08c0,11.21,10.23,20.3,22.86,20.3
											h291.33c12.62,0,22.86-9.09,22.86-20.3V190.66C1339.43,179.45,1329.2,170.36,1316.58,170.36z"/>
										<path d="M1323.95,737.36h-306.09c-23.61,0-42.81-17.05-42.81-38.01V89.57c0-20.96,19.21-38.01,42.81-38.01h306.09
											c23.61,0,42.81,17.05,42.81,38.01v609.77C1366.76,720.3,1347.56,737.36,1323.95,737.36z M1017.87,64.08
											c-15.83,0-28.71,11.44-28.71,25.5v609.77c0,14.06,12.88,25.49,28.71,25.49h306.09c15.83,0,28.71-11.44,28.71-25.49V89.57
											c0-14.06-12.88-25.5-28.71-25.5H1017.87z"/>
									</g>
								</g>
								<g>
									<text transform="matrix(1.1262 0 0 1 1020.8086 79.1396)" class="st7 st8 st9 st10">9:21</text>
									<g>
										<g>
											<rect x="1261.69" y="73.66" class="st7" width="2.33" height="5.48"/>
											<rect x="1264.83" y="71.42" class="st7" width="2.33" height="7.72"/>
											<rect x="1267.96" y="69.91" class="st7" width="2.33" height="9.22"/>
										</g>
										<g>
											<g>
												<path class="st7" d="M1285.69,77.23l1.36,1.21c1.19-0.93,3-0.91,4.14,0.09l1.36-1.21
													C1290.65,75.65,1287.62,75.63,1285.69,77.23z"/>
											</g>
											<g>
												<path class="st7" d="M1283.41,75.2l1.36,1.21c2.44-2.05,6.3-2.03,8.7,0.09l1.36-1.21
													C1291.67,72.51,1286.6,72.49,1283.41,75.2z"/>
											</g>
											<g>
												<path class="st7" d="M1281.29,73.32l1.37,1.21c3.61-3.08,9.36-3.06,12.93,0.09l1.36-1.21
													C1292.62,69.6,1285.65,69.57,1281.29,73.32z"/>
											</g>
										</g>
										<polygon class="st7" points="1327.29,72.57 1324.54,72.57 1324.54,70.53 1309.26,70.53 1309.26,79.14 1324.54,79.14 
											1324.54,77.09 1327.29,77.09 										"/>
									</g>
								</g>
							</g>
							<g>
								<g>
									<polygon class="st11" points="1071.16,186.42 1071.16,192.76 1027.94,192.76 1027.94,231.11 1020.81,231.11 
										1020.81,186.42 									"/>
								</g>
								<g>
									<polygon class="st11" points="1270.66,453.18 1270.66,446.85 1313.87,446.85 1313.87,408.5 1321.01,408.5 1321.01,453.18 
																			"/>
								</g>
								<g>
									<polygon class="st11" points="1321.12,231.23 1313.99,231.23 1313.99,192.86 1270.8,192.86 1270.8,186.52 1321.12,186.52 
																			"/>
								</g>
								<g>
									<polygon class="st11" points="1020.69,408.37 1027.83,408.37 1027.83,446.74 1071.02,446.74 1071.02,453.08 
										1020.69,453.08 									"/>
								</g>
							</g>
						</g>
						<g>
							<g>
								<rect x="1055.54" y="230.16" class="st7" width="230.74" height="204.89"/>
							</g>
						</g>
					</g>
					<line class="st12" x1="1002.8" y1="262.56" x2="1339.02" y2="262.56"/>
					<g>
						<text transform="matrix(0.6781 0 0 1 1065 550.2705)" class="st6 st8 st13 st14">-SCAN ME-</text>
					</g>
				</g>
				<path class="st2" d="M936.04,635.16c20.71-25.6,41.42-51.21,62.13-76.82c14.6,18.52,20.74,39.47,17.86,61.93
					s-22.25,52.92-41.15,68.05C956.26,678.38,945.25,652.63,936.04,635.16z"/>
				<path class="st2" d="M1290.33,946.97c-38.97-29.18-70.78-97.54-55.98-138.66c12.9-35.82,27.63-58.11,87.26-108.47
					c-2.13-38.27,4.8-49.54-3.04-89.55c-41.11-32.64-73.49-75.38-56.68-122.01c47.04,30.06,96.81,57.97,143.85,88.03
					c11.69,61.4,24.03,122.13,35.72,183.53c6.55,34.41,13.13,69.4,8.29,104.03c-8.03,57.51-66.42,125.11-139.2,94.71
					C1303.29,955.54,1296.53,951.61,1290.33,946.97z"/>
				<path class="st3" d="M1268.91,907.4c-16.11-67.61-69.24-126.25-140.37-154.39c-8.16-3.23-15.45,7.43-7.22,10.68
					c68.15,26.97,118.57,82.03,134.02,146.88C1257.21,918.41,1270.78,915.24,1268.91,907.4z"/>
				<path class="st3" d="M1354.44,612.52c-57.13-16.34-91.92-65.61-85.1-118.36c1.03-7.96-13.01-8.04-14.03-0.14
					c-7.54,58.29,32.61,112.57,95.24,130.48C1359.16,626.95,1363.02,614.97,1354.44,612.52z"/>
				<path class="st3" d="M1008.69,560.03c-4.31-7.05-16.51-0.9-12.19,6.16c22.1,36.13,2.93,93.98-31.25,121.56
					c-6.7,5.4,3.13,14.3,9.8,8.91C1013.88,665.33,1033.68,600.9,1008.69,560.03z"/>
				<path class="st3" d="M1329.94,605.67c-0.25-7.99-14.28-8.18-14.03-0.14c0.94,29.68,1.89,59.37,2.83,89.05
					c0.25,7.99,14.28,8.18,14.03,0.14C1331.83,665.04,1330.88,635.36,1329.94,605.67z"/>
				<path class="st3" d="M1323.5,693.28c-50.81,31.04-86.35,78.35-99.65,131.19c4.27,4.18,7.92,8.72,11.27,13.43
					c10.02-53.64,44.55-102.78,95.33-133.79C1337.82,699.6,1330.96,688.72,1323.5,693.28z"/>
				<path class="st4" d="M1368.88,625.33c-6.59,2.68-10.01,9.08-12.9,14.99c-9.13,18.68-18.26,37.36-27.4,56.04
					c0-22.8-2.98-45.93-4.48-68.7c-0.56-8.59-2.37-16.43,9.95-15.05C1345.42,613.9,1358.39,621.37,1368.88,625.33z"/>
				<polygon class="st2" points="1125.51,959.54 1129.92,1040 1440.81,1040 1422.49,925.73 				"/>
				<path class="st4" d="M1369.44,957.41c-57.47-4.56-115.21-1.09-171.51,10.12c-8.81,1.75-5.24,13.8,3.57,12.05
					c55.13-10.98,111.51-14.18,167.78-9.71C1378.27,970.58,1378.39,958.12,1369.44,957.41z"/>
			</g>
		</g>
		<g>
			<g>
				<path class="st15" d="M838.93,239.6c-29.17-43.3-65.43-195.36-65.43-195.36l-63.8-9.64l0-0.3l-1.02,0.15l-1.02-0.15l0,0.3
					l-63.84,9.28c0,0-36.91,151.85-66.27,194.98c-29.36,43.13-45.29,77.94-45.39,123.94c-0.1,46-1.2,554.84-1.2,554.84
					s5.82,126.88,110.66,143.9l63.82,0.18l2.03,0.01l63.82,0.18c104.91-16.43,111.28-143.27,111.28-143.27s1.1-508.84,1.2-554.84
					C883.88,317.79,868.11,282.89,838.93,239.6z"/>
			</g>
			<g>
				<path class="st16" d="M812.79,251.13c0,0-40.72-29.38-76.76,2.74c-36.04,32.12-78.1-0.84-78.1-0.84s6.01,70.03,10.63,73.76
					c4.62,3.73,38.45,40.38,67.78,21.26c29.33-19.12,42.17-17.85,53.51-32.69C801.19,300.52,812.79,251.13,812.79,251.13z"/>
			</g>
			<g>
				<path class="st17" d="M824.08,263.88c-0.12-0.19-0.25-0.39-0.38-0.61c-12.86-21.18-37.71-25.36-54.51-8.66
					c-11.94,11.87-22.24,25.54-33.22,29.61c-21.6,7.99-46.48-15.24-78.04-31.2c-60.05-30.38-105.78,83.1-105.87,126.13
					c-0.09,43.03-1.13,518.92-1.13,518.92s5.13,127.76,98.09,143.67l114.98,0.33c93.03-15.38,98.71-143.11,98.71-143.11
					s1.03-475.89,1.13-518.92C863.93,337.01,849.94,304.37,824.08,263.88z"/>
			</g>
			<g>
				
					<rect x="615.44" y="433.31" transform="matrix(2.835426e-03 -1 1 2.835426e-03 96.3242 1314.8337)" class="st18" width="184.02" height="351.61"/>
			</g>
			<g>
				<path class="st19" d="M771.42,1064l-130.05-0.39c-54.95-8.92-82.55-48.15-96.03-79.48c-14.56-33.84-16.19-66.06-16.2-66.38
					l0-0.11l1.2-554.84c0.1-48.43,17.59-83.82,45.77-125.22c28.8-42.31,65.59-192.74,65.96-194.26l0.33-1.34l63.45-9.22l0-0.84
					l2.84,0.43l2.85-0.42l0,0.84l63.41,9.58l0.32,1.34c0.36,1.52,36.49,152.15,65.11,194.63c28,41.56,45.34,77.05,45.23,125.48
					l-1.2,554.9l0,0.06c-0.02,0.32-1.78,32.53-16.49,66.29c-13.61,31.26-41.39,70.33-96.37,78.94L771.42,1064z M641.76,1059.45
					l129.42,0.37c42.76-6.74,74.19-32.48,93.41-76.51c14.13-32.36,16.08-63.26,16.16-64.74l1.2-554.78
					c0.1-47.24-16.94-82.06-44.47-122.92c-27.93-41.46-61.54-178.64-65.42-194.74l-63.38-9.57l-63.41,9.21
					c-3.95,16.08-38.15,153.07-66.27,194.37c-27.71,40.7-44.9,75.42-45,122.66l-1.2,554.78c0.08,1.48,1.9,32.39,15.88,64.83
					C567.71,1026.55,599.03,1052.47,641.76,1059.45z"/>
			</g>
			<g>
				<path class="st18" d="M805.27,34.69c0.03-14.39-9.08-26.36-21.08-28.75l0-0.43L637.86,5.09c-14.07-0.04-25.5,12.97-25.54,29.05
					c-0.03,16.08,11.34,29.15,25.41,29.19l146.34,0.41l0-0.43C796.07,61,805.24,49.08,805.27,34.69z"/>
			</g>
			<g>
				<path class="st19" d="M785.89,65.84l-148.17-0.42c-15.05-0.04-27.27-14.08-27.23-31.29C610.53,16.92,622.81,2.96,637.86,3
					l-0.01,4.18c-13.04-0.04-23.67,12.06-23.7,26.96c-0.03,14.9,10.55,27.06,23.59,27.1l144.51,0.41l0-0.1l1.52-0.29
					c11.37-2.2,19.65-13.37,19.68-26.58l3.66,0.01c-0.03,14.65-8.86,27.14-21.2,30.34L785.89,65.84z"/>
			</g>
			<g>
				<polygon class="st19" points="656.58,125.79 654.32,122.5 687.45,92.85 689.7,96.14 				"/>
			</g>
			<g>
				<polygon class="st19" points="681.23,125.86 678.97,122.57 712.1,92.92 714.35,96.21 				"/>
			</g>
			<g>
				
					<rect x="633.41" y="596.86" transform="matrix(2.836040e-03 -1 1 2.836040e-03 -67.2215 1334.4331)" class="st19" width="4.18" height="208.12"/>
			</g>
			<g>
				
					<rect x="738.48" y="374.32" transform="matrix(2.834541e-03 -1 1 2.834541e-03 221.2711 1256.3037)" class="st19" width="4.18" height="285.76"/>
			</g>
			<g class="st20">
				<path class="st17" d="M782.11,132.27c4.82,15.83,3.58,30.72-2.78,33.26c-6.36,2.53-15.43-8.25-20.25-24.09
					c-4.82-15.83-3.58-30.72,2.78-33.26C768.22,105.66,777.29,116.44,782.11,132.27z"/>
			</g>
			<g class="st21">
				<path class="st18" d="M756.11,663.55c56.33,4.38,97.88-22.89,127.15-56l0.2-89.94l-154.47-0.44
					c-22.52,27.87-55.78,52.34-102.13,48.73c-42.59-3.31-73.55,15.72-95.2,39.08l-0.21,95.65l114.1,0.32
					C672.75,677.09,709,659.89,756.11,663.55z"/>
			</g>
		</g>
		<g>
			<path class="st22" d="M736.84,480.24c-0.1,1.54,1.58,2.9,4.37,2.9c2.66,0,4.37-1.15,4.37-2.71c0-1.85-1.85-2.74-4.81-3.32
				C738.23,477.62,736.84,478.79,736.84,480.24z"/>
			<path class="st22" d="M737.45,472.83c0,1.52,1.65,2.34,4.17,2.81c1.88-0.44,3.33-1.38,3.33-2.76c0-1.22-1.04-2.48-3.7-2.48
				C738.8,470.4,737.45,471.52,737.45,472.83z"/>
			<path class="st22" d="M787.21,480.24c-0.09,1.54,1.58,2.9,4.38,2.9c2.66,0,4.37-1.15,4.37-2.71c0-1.85-1.85-2.74-4.81-3.32
				C788.59,477.62,787.21,478.79,787.21,480.24z"/>
			<path class="st22" d="M787.81,472.83c0,1.52,1.65,2.34,4.17,2.81c1.89-0.44,3.32-1.38,3.32-2.76c0-1.22-1.04-2.48-3.7-2.48
				C789.17,470.4,787.81,471.52,787.81,472.83z"/>
			<path class="st22" d="M682.04,472.92c0,1.56,1.71,2.39,4.32,2.87c1.95-0.45,3.45-1.41,3.45-2.82c0-1.24-1.08-2.54-3.83-2.54
				C683.43,470.43,682.04,471.58,682.04,472.92z"/>
			<path class="st22" d="M630.35,480.5c-0.1,1.58,1.64,2.97,4.53,2.97c2.75,0,4.53-1.17,4.53-2.78c0-1.89-1.92-2.8-4.99-3.4
				C631.78,477.82,630.35,479.02,630.35,480.5z"/>
			<path class="st22" d="M656.51,472.92c0,1.56,1.71,2.39,4.32,2.87c1.95-0.45,3.45-1.41,3.45-2.82c0-1.24-1.08-2.54-3.83-2.54
				C657.9,470.43,656.51,471.58,656.51,472.92z"/>
			<path class="st22" d="M630.98,472.92c0,1.56,1.71,2.39,4.32,2.87c1.96-0.45,3.45-1.41,3.45-2.82c0-1.24-1.07-2.54-3.83-2.54
				C632.38,470.43,630.98,471.58,630.98,472.92z"/>
			<path class="st22" d="M762.64,472.83c0,1.52,1.64,2.34,4.16,2.81c1.89-0.44,3.33-1.38,3.33-2.76c0-1.22-1.04-2.48-3.7-2.48
				C763.98,470.4,762.64,471.52,762.64,472.83z"/>
			<path class="st22" d="M655.88,480.5c-0.1,1.58,1.64,2.97,4.53,2.97c2.76,0,4.53-1.17,4.53-2.78c0-1.89-1.91-2.8-4.98-3.4
				C657.31,477.82,655.88,479.02,655.88,480.5z"/>
			<path class="st22" d="M681.41,480.5c-0.11,1.58,1.63,2.97,4.53,2.97c2.75,0,4.53-1.17,4.53-2.78c0-1.89-1.91-2.8-4.98-3.4
				C682.84,477.82,681.41,479.02,681.41,480.5z"/>
			<path class="st22" d="M762.03,480.24c-0.1,1.54,1.58,2.9,4.37,2.9c2.65,0,4.36-1.15,4.36-2.71c0-1.85-1.84-2.74-4.8-3.32
				C763.41,477.62,762.03,478.79,762.03,480.24z"/>
			<rect x="594.32" y="359.59" class="st23" width="5.75" height="116.97"/>
			<rect x="605.83" y="359.59" class="st23" width="5.75" height="116.97"/>
			<rect x="819.75" y="359.59" class="st23" width="5.74" height="116.97"/>
			<rect x="831.25" y="359.59" class="st23" width="5.75" height="116.97"/>
			<rect x="620.02" y="359.59" class="st23" width="17.98" height="105.77"/>
			<rect x="644.47" y="359.59" class="st23" width="8.99" height="105.77"/>
			<rect x="661.72" y="359.59" class="st23" width="8.99" height="105.77"/>
			<rect x="682.84" y="359.59" class="st23" width="21.21" height="105.77"/>
			<rect x="759.79" y="359.59" class="st23" width="21.21" height="105.77"/>
			<rect x="788.55" y="359.59" class="st23" width="21.22" height="105.77"/>
			<rect x="725.99" y="359.59" class="st23" width="7.83" height="105.77"/>
			<rect x="707.87" y="359.59" class="st23" width="3.99" height="121.03"/>
			<rect x="740.38" y="359.59" class="st23" width="7.82" height="105.77"/>
			<path class="st6" d="M627.21,480.79c0,2.27,2.86,4.21,7.59,4.21c4.32,0,7.7-1.82,7.7-4.52c0-1.89-1.74-3.25-4.56-4.02v-0.07
				c2.79-0.91,3.72-2.32,3.72-3.64c0-1.94-2.2-3.83-6.59-3.83c-3.97,0-6.99,1.67-6.99,4.14c0,1.34,1.07,2.68,3.59,3.5l0.03,0.07
				C628.93,477.44,627.21,478.83,627.21,480.79z M630.98,472.92c0-1.34,1.4-2.49,3.94-2.49c2.76,0,3.83,1.29,3.83,2.54
				c0,1.41-1.49,2.37-3.45,2.82C632.68,475.31,630.98,474.47,630.98,472.92z M634.43,477.29c3.06,0.6,4.99,1.51,4.99,3.4
				c0,1.6-1.78,2.78-4.53,2.78c-2.89,0-4.63-1.39-4.53-2.97C630.35,479.02,631.78,477.82,634.43,477.29z"/>
			<path class="st6" d="M652.74,480.79c0,2.27,2.86,4.21,7.6,4.21c4.32,0,7.7-1.82,7.7-4.52c0-1.89-1.74-3.25-4.56-4.02v-0.07
				c2.79-0.91,3.73-2.32,3.73-3.64c0-1.94-2.19-3.83-6.58-3.83c-3.98,0-7.01,1.67-7.01,4.14c0,1.34,1.08,2.68,3.59,3.5l0.03,0.07
				C654.46,477.44,652.74,478.83,652.74,480.79z M656.51,472.92c0-1.34,1.39-2.49,3.94-2.49c2.76,0,3.83,1.29,3.83,2.54
				c0,1.41-1.5,2.37-3.45,2.82C658.21,475.31,656.51,474.47,656.51,472.92z M659.95,477.29c3.07,0.6,4.98,1.51,4.98,3.4
				c0,1.6-1.77,2.78-4.53,2.78c-2.89,0-4.63-1.39-4.53-2.97C655.88,479.02,657.31,477.82,659.95,477.29z"/>
			<path class="st6" d="M678.28,480.79c0,2.27,2.86,4.21,7.59,4.21c4.32,0,7.7-1.82,7.7-4.52c0-1.89-1.74-3.25-4.56-4.02v-0.07
				c2.78-0.91,3.73-2.32,3.73-3.64c0-1.94-2.19-3.83-6.58-3.83c-3.97,0-7,1.67-7,4.14c0,1.34,1.08,2.68,3.59,3.5l0.03,0.07
				C679.98,477.44,678.28,478.83,678.28,480.79z M682.04,472.92c0-1.34,1.39-2.49,3.93-2.49c2.75,0,3.83,1.29,3.83,2.54
				c0,1.41-1.5,2.37-3.45,2.82C683.75,475.31,682.04,474.47,682.04,472.92z M685.49,477.29c3.07,0.6,4.98,1.51,4.98,3.4
				c0,1.6-1.78,2.78-4.53,2.78c-2.89,0-4.64-1.39-4.53-2.97C681.41,479.02,682.84,477.82,685.49,477.29z"/>
			<path class="st6" d="M733.82,480.52c0,2.22,2.75,4.12,7.32,4.12c4.17,0,7.43-1.78,7.43-4.42c0-1.85-1.68-3.18-4.41-3.93v-0.07
				c2.69-0.89,3.6-2.27,3.6-3.56c0-1.9-2.12-3.74-6.35-3.74c-3.83,0-6.75,1.64-6.75,4.05c0,1.31,1.04,2.62,3.46,3.42l0.03,0.07
				C735.47,477.25,733.82,478.61,733.82,480.52z M737.45,472.83c0-1.31,1.35-2.43,3.8-2.43c2.66,0,3.7,1.26,3.7,2.48
				c0,1.38-1.45,2.32-3.33,2.76C739.1,475.17,737.45,474.35,737.45,472.83z M740.78,477.11c2.95,0.58,4.81,1.48,4.81,3.32
				c0,1.57-1.71,2.71-4.37,2.71c-2.79,0-4.47-1.36-4.37-2.9C736.84,478.79,738.23,477.62,740.78,477.11z"/>
			<path class="st6" d="M759,480.52c0,2.22,2.76,4.12,7.33,4.12c4.17,0,7.43-1.78,7.43-4.42c0-1.85-1.68-3.18-4.41-3.93v-0.07
				c2.69-0.89,3.6-2.27,3.6-3.56c0-1.9-2.12-3.74-6.36-3.74c-3.83,0-6.75,1.64-6.75,4.05c0,1.31,1.04,2.62,3.46,3.42l0.03,0.07
				C760.65,477.25,759,478.61,759,480.52z M762.64,472.83c0-1.31,1.34-2.43,3.79-2.43c2.66,0,3.7,1.26,3.7,2.48
				c0,1.38-1.44,2.32-3.33,2.76C764.28,475.17,762.64,474.35,762.64,472.83z M765.97,477.11c2.96,0.58,4.8,1.48,4.8,3.32
				c0,1.57-1.71,2.71-4.36,2.71c-2.79,0-4.47-1.36-4.37-2.9C762.03,478.79,763.41,477.62,765.97,477.11z"/>
			<path class="st6" d="M784.19,480.52c0,2.22,2.76,4.12,7.33,4.12c4.17,0,7.43-1.78,7.43-4.42c0-1.85-1.68-3.18-4.41-3.93v-0.07
				c2.69-0.89,3.6-2.27,3.6-3.56c0-1.9-2.12-3.74-6.35-3.74c-3.83,0-6.76,1.64-6.76,4.05c0,1.31,1.05,2.62,3.46,3.42l0.03,0.07
				C785.84,477.25,784.19,478.61,784.19,480.52z M787.81,472.83c0-1.31,1.35-2.43,3.8-2.43c2.66,0,3.7,1.26,3.7,2.48
				c0,1.38-1.44,2.32-3.32,2.76C789.47,475.17,787.81,474.35,787.81,472.83z M791.14,477.11c2.96,0.58,4.81,1.48,4.81,3.32
				c0,1.57-1.71,2.71-4.37,2.71c-2.8,0-4.47-1.36-4.38-2.9C787.21,478.79,788.59,477.62,791.14,477.11z"/>
		</g>
		<g>
			<path class="st22" d="M1187.72,378.45c-0.08,1.48,1.24,2.78,3.42,2.78c2.08,0,3.42-1.1,3.42-2.6c0-1.77-1.45-2.62-3.76-3.18
				C1188.8,375.94,1187.72,377.06,1187.72,378.45z"/>
			<path class="st22" d="M1188.19,371.35c0,1.46,1.29,2.24,3.26,2.69c1.47-0.42,2.6-1.32,2.6-2.64c0-1.16-0.82-2.37-2.89-2.37
				C1189.25,369.03,1188.19,370.1,1188.19,371.35z"/>
			<path class="st22" d="M1227.08,378.45c-0.07,1.48,1.24,2.78,3.42,2.78c2.08,0,3.41-1.1,3.41-2.6c0-1.77-1.45-2.62-3.76-3.18
				C1228.16,375.94,1227.08,377.06,1227.08,378.45z"/>
			<path class="st22" d="M1227.56,371.35c0,1.46,1.29,2.24,3.26,2.69c1.47-0.42,2.6-1.32,2.6-2.64c0-1.16-0.81-2.37-2.89-2.37
				C1228.61,369.03,1227.56,370.1,1227.56,371.35z"/>
			<path class="st22" d="M1144.88,371.44c0,1.49,1.34,2.29,3.37,2.75c1.53-0.43,2.7-1.35,2.7-2.7c0-1.19-0.84-2.43-3-2.43
				C1145.97,369.06,1144.88,370.16,1144.88,371.44z"/>
			<path class="st22" d="M1104.48,378.69c-0.08,1.51,1.28,2.84,3.54,2.84c2.15,0,3.54-1.12,3.54-2.66c0-1.81-1.5-2.68-3.9-3.25
				C1105.6,376.13,1104.48,377.28,1104.48,378.69z"/>
			<path class="st22" d="M1124.93,371.44c0,1.49,1.33,2.29,3.38,2.75c1.52-0.43,2.69-1.35,2.69-2.7c0-1.19-0.84-2.43-3-2.43
				C1126.02,369.06,1124.93,370.16,1124.93,371.44z"/>
			<path class="st22" d="M1104.97,371.44c0,1.49,1.34,2.29,3.38,2.75c1.53-0.43,2.69-1.35,2.69-2.7c0-1.19-0.84-2.43-2.99-2.43
				C1106.07,369.06,1104.97,370.16,1104.97,371.44z"/>
			<path class="st22" d="M1207.88,371.35c0,1.46,1.28,2.24,3.25,2.69c1.47-0.42,2.6-1.32,2.6-2.64c0-1.16-0.81-2.37-2.89-2.37
				C1208.93,369.03,1207.88,370.1,1207.88,371.35z"/>
			<path class="st22" d="M1124.44,378.69c-0.08,1.51,1.28,2.84,3.54,2.84c2.15,0,3.54-1.12,3.54-2.66c0-1.81-1.5-2.68-3.89-3.25
				C1125.55,376.13,1124.44,377.28,1124.44,378.69z"/>
			<path class="st22" d="M1144.39,378.69c-0.09,1.51,1.28,2.84,3.54,2.84c2.15,0,3.54-1.12,3.54-2.66c0-1.81-1.49-2.68-3.89-3.25
				C1145.51,376.13,1144.39,377.28,1144.39,378.69z"/>
			<path class="st22" d="M1207.4,378.45c-0.08,1.48,1.24,2.78,3.42,2.78c2.07,0,3.41-1.1,3.41-2.6c0-1.77-1.44-2.62-3.75-3.18
				C1208.48,375.94,1207.4,377.06,1207.4,378.45z"/>
			<rect x="1076.32" y="263" class="st23" width="4.5" height="111.92"/>
			<rect x="1085.32" y="263" class="st23" width="4.5" height="111.92"/>
			<rect x="1252.51" y="263" class="st23" width="4.49" height="111.92"/>
			<rect x="1261.5" y="263" class="st23" width="4.5" height="111.92"/>
			<rect x="1096.4" y="263" class="st23" width="14.05" height="101.2"/>
			<rect x="1115.52" y="263" class="st23" width="7.02" height="101.2"/>
			<rect x="1129" y="263" class="st23" width="7.03" height="101.2"/>
			<rect x="1145.51" y="263" class="st23" width="16.58" height="101.2"/>
			<rect x="1205.66" y="263" class="st23" width="16.58" height="101.2"/>
			<rect x="1228.13" y="263" class="st23" width="16.59" height="101.2"/>
			<rect x="1179.24" y="263" class="st23" width="6.12" height="101.2"/>
			<rect x="1165.07" y="263" class="st23" width="3.12" height="115.81"/>
			<rect x="1190.48" y="263" class="st23" width="6.11" height="101.2"/>
			<path class="st6" d="M1102.03,378.97c0,2.17,2.23,4.03,5.94,4.03c3.38,0,6.02-1.74,6.02-4.33c0-1.81-1.36-3.11-3.57-3.85v-0.07
				c2.18-0.87,2.91-2.22,2.91-3.48c0-1.86-1.72-3.66-5.15-3.66c-3.1,0-5.47,1.6-5.47,3.96c0,1.28,0.84,2.56,2.8,3.34l0.02,0.07
				C1103.37,375.76,1102.03,377.09,1102.03,378.97z M1104.97,371.44c0-1.28,1.09-2.38,3.08-2.38c2.15,0,2.99,1.24,2.99,2.43
				c0,1.35-1.17,2.27-2.69,2.7C1106.31,373.73,1104.97,372.93,1104.97,371.44z M1107.67,375.63c2.4,0.57,3.9,1.44,3.9,3.25
				c0,1.53-1.39,2.66-3.54,2.66c-2.26,0-3.62-1.33-3.54-2.84C1104.48,377.28,1105.6,376.13,1107.67,375.63z"/>
			<path class="st6" d="M1121.99,378.97c0,2.17,2.23,4.03,5.94,4.03c3.38,0,6.02-1.74,6.02-4.33c0-1.81-1.36-3.11-3.57-3.85v-0.07
				c2.18-0.87,2.91-2.22,2.91-3.48c0-1.86-1.71-3.66-5.15-3.66c-3.11,0-5.48,1.6-5.48,3.96c0,1.28,0.85,2.56,2.8,3.34l0.03,0.07
				C1123.32,375.76,1121.99,377.09,1121.99,378.97z M1124.93,371.44c0-1.28,1.09-2.38,3.08-2.38c2.15,0,3,1.24,3,2.43
				c0,1.35-1.17,2.27-2.69,2.7C1126.26,373.73,1124.93,372.93,1124.93,371.44z M1127.62,375.63c2.4,0.57,3.89,1.44,3.89,3.25
				c0,1.53-1.39,2.66-3.54,2.66c-2.26,0-3.62-1.33-3.54-2.84C1124.44,377.28,1125.55,376.13,1127.62,375.63z"/>
			<path class="st6" d="M1141.94,378.97c0,2.17,2.23,4.03,5.94,4.03c3.37,0,6.02-1.74,6.02-4.33c0-1.81-1.36-3.11-3.57-3.85v-0.07
				c2.18-0.87,2.91-2.22,2.91-3.48c0-1.86-1.71-3.66-5.14-3.66c-3.1,0-5.47,1.6-5.47,3.96c0,1.28,0.84,2.56,2.81,3.34l0.02,0.07
				C1143.27,375.76,1141.94,377.09,1141.94,378.97z M1144.88,371.44c0-1.28,1.09-2.38,3.07-2.38c2.15,0,3,1.24,3,2.43
				c0,1.35-1.17,2.27-2.7,2.7C1146.22,373.73,1144.88,372.93,1144.88,371.44z M1147.58,375.63c2.4,0.57,3.89,1.44,3.89,3.25
				c0,1.53-1.39,2.66-3.54,2.66c-2.26,0-3.62-1.33-3.54-2.84C1144.39,377.28,1145.51,376.13,1147.58,375.63z"/>
			<path class="st6" d="M1185.36,378.72c0,2.13,2.15,3.94,5.72,3.94c3.26,0,5.81-1.7,5.81-4.23c0-1.77-1.31-3.04-3.45-3.76v-0.07
				c2.1-0.85,2.81-2.17,2.81-3.4c0-1.81-1.66-3.58-4.97-3.58c-3,0-5.28,1.57-5.28,3.87c0,1.25,0.82,2.51,2.7,3.27l0.03,0.07
				C1186.65,375.58,1185.36,376.88,1185.36,378.72z M1188.19,371.35c0-1.25,1.06-2.33,2.97-2.33c2.08,0,2.89,1.21,2.89,2.37
				c0,1.32-1.13,2.22-2.6,2.64C1189.48,373.59,1188.19,372.81,1188.19,371.35z M1190.79,375.45c2.31,0.56,3.76,1.41,3.76,3.18
				c0,1.5-1.34,2.6-3.42,2.6c-2.18,0-3.49-1.3-3.42-2.78C1187.72,377.06,1188.8,375.94,1190.79,375.45z"/>
			<path class="st6" d="M1205.04,378.72c0,2.13,2.16,3.94,5.73,3.94c3.26,0,5.81-1.7,5.81-4.23c0-1.77-1.31-3.04-3.45-3.76v-0.07
				c2.1-0.85,2.82-2.17,2.82-3.4c0-1.81-1.66-3.58-4.97-3.58c-2.99,0-5.28,1.57-5.28,3.87c0,1.25,0.81,2.51,2.7,3.27l0.02,0.07
				C1206.32,375.58,1205.04,376.88,1205.04,378.72z M1207.88,371.35c0-1.25,1.05-2.33,2.97-2.33c2.08,0,2.89,1.21,2.89,2.37
				c0,1.32-1.13,2.22-2.6,2.64C1209.16,373.59,1207.88,372.81,1207.88,371.35z M1210.48,375.45c2.32,0.56,3.75,1.41,3.75,3.18
				c0,1.5-1.34,2.6-3.41,2.6c-2.18,0-3.5-1.3-3.42-2.78C1207.4,377.06,1208.48,375.94,1210.48,375.45z"/>
			<path class="st6" d="M1224.72,378.72c0,2.13,2.15,3.94,5.73,3.94c3.26,0,5.81-1.7,5.81-4.23c0-1.77-1.32-3.04-3.44-3.76v-0.07
				c2.1-0.85,2.82-2.17,2.82-3.4c0-1.81-1.66-3.58-4.97-3.58c-3,0-5.28,1.57-5.28,3.87c0,1.25,0.82,2.51,2.7,3.27l0.03,0.07
				C1226.01,375.58,1224.72,376.88,1224.72,378.72z M1227.56,371.35c0-1.25,1.06-2.33,2.97-2.33c2.08,0,2.89,1.21,2.89,2.37
				c0,1.32-1.12,2.22-2.6,2.64C1228.85,373.59,1227.56,372.81,1227.56,371.35z M1230.16,375.45c2.31,0.56,3.76,1.41,3.76,3.18
				c0,1.5-1.34,2.6-3.41,2.6c-2.18,0-3.49-1.3-3.42-2.78C1227.08,377.06,1228.16,375.94,1230.16,375.45z"/>
		</g>
	</g>
</g>
</svg>
